v -0.239667 -0.04703 0.0972
v -0.239667 -0.04703 0.0972
v -0.228996 -0.04703 0.0972
v -0.228996 -0.04703 0.0972
v -0.228996 -0.045472 0.0972
v -0.228996 -0.045472 0.0972
v -0.239667 -0.045472 0.0972
v -0.239667 -0.045472 0.0972
v -0.228996 -0.03203 0.0972
v -0.228996 -0.030472 0.0972
v -0.239667 -0.030472 0.1052
v -0.228996 -0.030472 0.1052
v -0.228996 -0.031251 0.1052
v -0.234331 -0.03203 0.1052
v -0.239667 -0.045472 0.1052
v -0.234331 -0.045472 0.1052
v -0.228996 -0.045472 0.1052
v -0.228996 -0.046251 0.1052
v -0.234331 -0.04703 0.1052
v -0.239667 -0.046251 0.1052
v -0.234331 -0.04703 0.1052
f 10 13 9
f 11 14 12
f 7 16 5
f 1 20 8
f 3 21 2
f 6 18 4
f 15 19 17
