v -0.233317 0.0903171 0.0254
v -0.062875 0.160047 0.0254
v -0.249183 -0.0312606 0.0254
v -0.043653 0.142406 0.0254
v -0.0626662 0.110297 0.0254
v -0.246784 0.0458091 0.0254
v -0.249104 0.0313925 0.0254
v -0.207261 -0.0536 0.0254
v -0.235909 0.100711 0.0254
v -0.0195369 0.117162 0.0254
v -0.0678382 0.12767 0.0254
v -0.0981809 0.120999 0.0254
v -0.110586 0.162638 0.0254
v 0.032621 0.113394 0.0254
v -0.0046456 0.0782853 0.0254
v 0.0219847 -0.0959715 0.0254
v -0.249367 -0.0722129 0.0254
v -0.137986 0.132041 0.0254
v -0.182049 0.126548 0.0254
v 0.0381017 0.0283678 0.0254
v 0.042 0.090544 0.0254
v 0.0215587 0.104932 0.0254
v 0.017519 0.00457443 0.0254
v -0.1937 0.0572684 0.0254
v -0.177983 0.0344329 0.0254
v -0.187952 0.0993488 0.0254
v -0.185079 0.0498621 0.0254
v -0.206528 0.0643627 0.0254
v -0.214015 0.0610129 0.0254
v -0.14289 0.157413 0.0254
v -0.0381767 -0.135113 0.0254
v 0.0329936 0.126116 0.0254
v -0.0464067 0.148748 0.0254
v -0.179805 0.155309 0.0254
v -0.262929 0.0315085 0.0254
v -0.210287 0.0291455 0.0254
v -0.231998 -0.0445968 0.0254
v -0.231262 0.00886867 0.0254
v -0.25256 -0.0222245 0.0254
v -0.248153 -0.0520849 0.0254
v 0.03785 -0.105712 0.0254
v 0.042 0.113394 0.0254
v 0.03295 0.0983675 0.0254
v 0.042 0.105135 0.0254
v 0.04195 0.105135 0.0254
v 0.04195 0.1118 0.0254
v 0.03295 0.1118 0.0254
v -0.0812867 0.155342 0.0254
v -0.208157 0.0999042 0.0254
v -0.126875 0.164167 0.0254
v -0.15462 0.145969 0.0254
v -0.109805 0.0236784 0.0254
v -0.18129 0.101697 0.0254
v -0.144577 0.0854736 0.0254
v -0.0879882 0.0967061 0.0254
v -0.0656655 0.166 0.0254
v -0.0519182 0.133993 0.0254
v -0.129298 -0.061218 0.0254
v 0.04195 0.0916 0.0254
v -0.186541 -0.0395396 0.0254
v -0.075971 0.0738476 0.0254
v -0.031 0.12428 0.0284
v -0.009813 0.12428 0.0284
v 0.012437 0.12428 0.0284
v 0.0239685 0.12428 0.0284
v 0.0305 -0.135295 0.0284
v -0.247203 0.0637406 0.0284
v -0.238064 0.00877833 0.0284
v -0.26667 0.039086 0.0284
v 0.042 0.142843 0.0284
v 0.0383594 0.118485 0.0284
v 0.042 0.11379 0.0284
v 0.042 0.105135 0.0284
v 0.042 0.090975 0.0284
v -0.0554198 0.165664 0.0284
v 0.04195 -0.1118 0.0284
v 0.033398 -0.1118 0.0284
v 0.033846 -0.11379 0.0284
v 0.0355668 -0.124107 0.0284
v -0.009813 0.124144 0.0284
v 0.0110308 0.123341 0.0284
v -0.0438316 0.146897 0.0284
v -0.043653 0.142406 0.0284
v -0.212144 0.132174 0.0284
v -0.257145 0.0323849 0.0284
v -0.205707 0.090975 0.0284
v -0.184074 0.0600615 0.0284
v 0.0278801 0.117522 0.0284
v -0.0740292 0.119948 0.0284
v -0.00509559 -0.102758 0.0284
v -0.258279 -0.0323849 0.0284
v -0.249022 -0.0305849 0.0284
v -0.241858 0.0317969 0.0284
v -0.213968 0.0830308 0.0284
v -0.219905 0.0444408 0.0284
v -0.258067 0.0588035 0.0284
v -0.262655 0.045045 0.0284
v -0.255428 -0.0537738 0.0284
v -0.256288 -0.059063 0.0284
v 0.0177546 -0.113742 0.0284
v -0.110668 0.104189 0.0284
v -0.0923152 0.120515 0.0284
v -0.0762395 0.153432 0.0284
v -0.0721209 0.14418 0.0284
v -0.059154 0.150732 0.0284
v -0.0546839 0.107299 0.0284
v -0.043653 0.115854 0.0284
v -0.0178507 0.114695 0.0284
v 0.0140798 0.069015 0.0284
v 0.0215336 -0.0851454 0.0284
v -0.230434 -0.104648 0.0284
v -0.0153381 -0.126673 0.0284
v -0.163979 0.0434971 0.0284
v -0.196585 -0.0356694 0.0284
v -0.182312 -0.125453 0.0284
v -0.174296 0.0910592 0.0284
v -0.192916 0.0490535 0.0284
v -0.189271 0.104621 0.0284
v -0.181584 0.085573 0.0284
v -0.199778 0.0762016 0.0284
v -0.205707 0.105135 0.0284
v -0.205134 0.0400017 0.0284
v -0.205907 0.05323 0.0284
v -0.209647 0.0619304 0.0284
v -0.208054 0.102404 0.0284
v -0.220739 0.101963 0.0284
v -0.205907 0.10097 0.0284
v -0.205907 0.090975 0.0284
v -0.102341 0.150695 0.0284
v -0.118888 0.161107 0.0284
v -0.132127 0.162309 0.0284
v -0.138014 -0.165332 0.0284
v -0.190767 -0.149036 0.0284
v -0.255473 -0.0647566 0.0284
v -0.258834 -0.06684 0.0284
v -0.260239 -0.0332352 0.0284
v -0.251889 -0.021294 0.0284
v -0.165018 0.16135 0.0284
v 0.033846 0.142406 0.0284
v 0.031923 0.142843 0.0284
v 0.0379643 -0.0518796 0.0284
v 0.04195 -0.0916 0.0284
v 0.042 -0.10094 0.0284
v 0.04195 0.0916 0.0284
v 0.033846 0.090975 0.0284
v 0.04195 0.1118 0.0284
v 0.04195 0.105135 0.0284
v 0.042 -0.11379 0.0284
v 0.04195 -0.10094 0.0284
v 0.0389991 -0.125413 0.0284
v 0.0245551 0.109025 0.0284
v 0.0096245 0.117746 0.0284
v -0.0494659 0.120472 0.0284
v -0.053403 0.134722 0.0284
v -0.062875 0.160047 0.0284
v -0.0606244 0.163027 0.0284
v -0.062354 0.159907 0.0254
v -0.0944132 -0.143734 0.0284
v -0.0882093 0.163598 0.0284
v -0.112154 -0.14825 0.0284
v -0.158882 -0.131352 0.0284
v -0.122136 0.16583 0.0284
v -0.001723 0.083709 0.0284
v -0.0724385 0.0727122 0.0284
v -0.150342 0.128392 0.0284
v -0.150342 0.150205 0.0284
v -0.196031 0.11532 0.0284
v -0.186677 0.132298 0.0284
v -0.102957 0.0086011 0.0284
v -0.00464825 -0.0503104 0.0284
v -0.21691 -0.073319 0.0284
v 0.0378109 0.0705285 0.0284
v -0.18741 0.0281897 0.0284
v -0.229377 -0.0414311 0.0284
v -0.262487 0.0404 0.0284
v -0.205357 -0.055503 0.0254
v -0.205139 -0.052375 0.02785
v -0.255217 0.049929 0.1092
v -0.263029 0.05059 0.1092
v -0.25669 -0.006592 0.1092
v -0.255217 0.02135 0.1092
v -0.261273 -0.0317319 0.1092
v -0.260477 0.0289283 0.1092
v -0.267136 -0.0280738 0.1092
v -0.265274 0.0459963 0.1092
v -0.260464 0.0452094 0.1092
v -0.245997 0.050302 0.1092
v -0.243581 0.047441 0.1092
v -0.245415 -0.00856775 0.1092
v -0.25041 -0.0406041 0.1092
v -0.254512 -0.0468774 0.1092
v -0.251452 -0.0275231 0.1092
v -0.255009 -0.0195499 0.1092
v -0.239518 -0.0446316 0.1072
v -0.246737 -0.00375 0.1072
v -0.243737 0.00375 0.1072
v -0.239885 0.0243398 0.1072
v -0.251944 0.002394 0.075291
v -0.252813 0 0.073663
v -0.252813 0.001535 0.074013
v -0.252408 0.002207 0.074821
v -0.252813 0.002406 0.074607
v -0.252408 0.002537 0.075177
v -0.252408 0.002537 0.075177
v -0.252813 0.002766 0.074995
v -0.252813 0.002766 0.074995
v -0.252408 0.00281 0.075577
v -0.252813 0.003063 0.075431
v -0.252813 -0.002766 0.074995
v -0.252408 -0.002207 0.074821
v -0.252813 -0.002406 0.074607
v -0.252813 -0.001535 0.074013
v -0.252813 -0.000527 0.073702
v -0.252408 0 0.073955
v -0.254208 -0.005238 0.074176
v -0.254208 -0.003024 0.071962
v -0.254208 -0.002619 0.071762
v -0.254208 0.00079 0.071203
v -0.254208 0.002315 0.071612
v -0.254208 0.002619 0.071762
v -0.254208 0.003682 0.072401
v -0.254208 0.004799 0.073518
v -0.254208 -0.001566 0.083043
v -0.25462 0.006342 0.075501
v -0.255179 0.006861 0.076297
v -0.255179 0.004213 0.07171
v -0.25462 0.003997 0.071991
v -0.254208 0.004277 0.072923
v -0.25462 0.005209 0.073203
v -0.254208 0.003024 0.071962
v -0.25462 0.003283 0.071514
v -0.25462 0.000857 0.07069
v -0.254208 0 0.071151
v -0.25462 -0.004643 0.072557
v -0.255179 -0.004213 0.07171
v -0.254208 -0.005588 0.074885
v -0.25462 -0.006066 0.074687
v -0.255179 -0.005993 0.07374
v -0.25462 -0.005686 0.073917
v -0.25462 -0.001699 0.083542
v -0.255179 0.006684 0.075409
v -0.255179 0.00346 0.071207
v -0.255179 -0.004893 0.072307
v -0.255179 -0.006393 0.074552
v -0.254208 -0.00079 0.083197
v -0.257968 0.0331096 0.098308
v -0.254962 0.0335774 0.098308
v -0.253918 0.037044 0.098308
v -0.253918 0.0364687 0.101181
v -0.254841 0.037407 0.098308
v -0.253918 0.031456 0.098308
v -0.253918 0.039421 0.100657
v -0.253918 0.038873 0.100612
v -0.254136 0.006841 0.111268
v -0.254138 0.006883 0.111265
v -0.25502 0.006893 0.111264
v -0.247663 0.009411 0.1092
v -0.261537 0.008025 0.1092
v -0.261423 0.008599 0.1092
v -0.261423 0.008599 0.1092
v -0.261423 0.008599 0.1092
v -0.261097 0.009086 0.1092
v -0.260611 0.009411 0.1092
v -0.261537 -0.009775 0.1092
v -0.261423 -0.010349 0.1092
v -0.261423 -0.010349 0.1092
v -0.261423 -0.010349 0.1092
v -0.261097 -0.010836 0.1092
v -0.261097 -0.010836 0.1092
v -0.261097 -0.010836 0.1092
v -0.248237 -0.011275 0.1092
v -0.246851 -0.010349 0.1092
v -0.246851 -0.010349 0.1092
v -0.246851 -0.010349 0.1092
v -0.247176 -0.010836 0.1092
v -0.247176 -0.010836 0.1092
v -0.247176 -0.010836 0.1092
v -0.246737 -0.009775 0.1092
v -0.247663 -0.011161 0.1092
v -0.247663 -0.011161 0.1092
v -0.247663 -0.011161 0.1092
v -0.261409 0.008471 0.110532
v -0.261391 0.008025 0.110693
v -0.26148 0.008025 0.110532
v -0.260604 0.009398 0.1102
v -0.260918 0.009238 0.1102
v -0.260918 0.009238 0.1102
v -0.261084 0.009073 0.1102
v -0.261463 0.008488 0.1102
v -0.261463 0.008488 0.1102
v -0.26141 0.008593 0.1102
v -0.26141 0.008593 0.1102
v -0.26125 0.008907 0.1102
v -0.247773 0.009452 0.1102
v -0.247669 0.009398 0.1102
v -0.246883 -0.009775 0.110693
v -0.246883 -0.009775 0.110693
v -0.246793 -0.009775 0.110532
v -0.246793 -0.009775 0.110532
v -0.246737 -0.009775 0.1102
v -0.260377 -0.010243 0.111197
v -0.260357 -0.01076 0.111044
v -0.260432 -0.010993 0.110825
v -0.260558 -0.010492 0.111122
v -0.260558 -0.010492 0.111122
v -0.260646 -0.010613 0.111044
v -0.260646 -0.010613 0.111044
v -0.26079 -0.010811 0.110825
v -0.26079 -0.010811 0.110825
v -0.26079 -0.010811 0.110825
v -0.26079 -0.010811 0.110825
v -0.260885 -0.010943 0.110532
v -0.260885 -0.010943 0.110532
v -0.261463 -0.010239 0.1102
v -0.26141 -0.010343 0.1102
v -0.260754 -0.010296 0.111122
v -0.260875 -0.010384 0.111044
v -0.261073 -0.010528 0.110825
v -0.261073 -0.010528 0.110825
v -0.261204 -0.010623 0.110532
v -0.261204 -0.010623 0.110532
v -0.261204 -0.010623 0.110532
v -0.26125 -0.010657 0.1102
v -0.26125 -0.010657 0.1102
v -0.26125 -0.010657 0.1102
v -0.26125 -0.010657 0.1102
v -0.261084 -0.010823 0.1102
v -0.261084 -0.010823 0.1102
v -0.260918 -0.010988 0.1102
v -0.248082 -0.010251 0.1112
v -0.248082 -0.010251 0.1112
v -0.248237 -0.010275 0.1112
v -0.248237 -0.010354 0.111197
v -0.247943 -0.010179 0.1112
v -0.248058 -0.010326 0.111197
v -0.248058 -0.010326 0.111197
v -0.247761 -0.009929 0.1112
v -0.247761 -0.009929 0.1112
v -0.247832 -0.010069 0.1112
v -0.247768 -0.010115 0.111197
v -0.247768 -0.010115 0.111197
v -0.247686 -0.009954 0.111197
v -0.247963 -0.010618 0.111122
v -0.247963 -0.010618 0.111122
v -0.247963 -0.010618 0.111122
v -0.248237 -0.010774 0.111064
v -0.248237 -0.010774 0.111064
v -0.247917 -0.01076 0.111044
v -0.247917 -0.01076 0.111044
v -0.247019 -0.010171 0.110825
v -0.247896 -0.010243 0.111197
v -0.247896 -0.010243 0.111197
v -0.247716 -0.010492 0.111122
v -0.247069 -0.010623 0.110532
v -0.247069 -0.010623 0.110532
v -0.246864 -0.010221 0.110532
v -0.246864 -0.010221 0.110532
v -0.246864 -0.010221 0.110532
v -0.248237 -0.010811 0.111044
v -0.247773 -0.011202 0.1102
v -0.247773 -0.011202 0.1102
v -0.247669 -0.011148 0.1102
v -0.247355 -0.010988 0.1102
v -0.247355 -0.010988 0.1102
v -0.247189 -0.010823 0.1102
v -0.24681 -0.010239 0.1102
v -0.24681 -0.010239 0.1102
v -0.24681 -0.010239 0.1102
v -0.246863 -0.010343 0.1102
v -0.246863 -0.010343 0.1102
v -0.246863 -0.010343 0.1102
v -0.247023 -0.010657 0.1102
v -0.247023 -0.010657 0.1102
v -0.239007 -0.057422 0.1312
v -0.239007 -0.057422 0.1312
v -0.239007 -0.057422 0.1312
v -0.239007 -0.057422 0.1312
v -0.239007 -0.057422 0.1312
v -0.239726 -0.057434 0.130699
v -0.239884 -0.057434 0.131196
v -0.239878 -0.057434 0.131302
v -0.239666 -0.057434 0.131778
v -0.239591 -0.057434 0.131854
v -0.239591 -0.057434 0.131854
v -0.239731 -0.057434 0.131695
v -0.239508 -0.057434 0.131919
v -0.238513 -0.057434 0.131923
v -0.238429 -0.057434 0.131858
v -0.238288 -0.057434 0.131701
v -0.238233 -0.057434 0.13161
v -0.238131 -0.057434 0.131204
v -0.239411 -0.057434 0.130422
v -0.239502 -0.057434 0.130477
v -0.245646 -0.058848 0.12865
v -0.245646 -0.058848 0.12865
v -0.245905 -0.058848 0.129469
v -0.245936 -0.058997 0.129461
v -0.246063 -0.058848 0.130313
v -0.246063 -0.058848 0.130313
v -0.246095 -0.058997 0.130309
v -0.246119 -0.058848 0.13117
v -0.246119 -0.058848 0.13117
v -0.246071 -0.058848 0.132027
v -0.246071 -0.058848 0.132027
v -0.246071 -0.058848 0.132027
v -0.246103 -0.058997 0.132031
v -0.245919 -0.058848 0.132873
v -0.245919 -0.058848 0.132873
v -0.245919 -0.058848 0.132873
v -0.245919 -0.058848 0.132873
v -0.245951 -0.058997 0.13288
v -0.245667 -0.058848 0.133694
v -0.245667 -0.058848 0.133694
v -0.245667 -0.058848 0.133694
v -0.245667 -0.058848 0.133694
v -0.245697 -0.058997 0.133705
v -0.245697 -0.058997 0.133705
v -0.245318 -0.058848 0.134478
v -0.245318 -0.058848 0.134478
v -0.245318 -0.058848 0.134478
v -0.245347 -0.058997 0.134493
v -0.244877 -0.058848 0.135215
v -0.244877 -0.058848 0.135215
v -0.244877 -0.058848 0.135215
v -0.244904 -0.058997 0.135233
v -0.24435 -0.058848 0.135893
v -0.24435 -0.058848 0.135893
v -0.244374 -0.058997 0.135915
v -0.243746 -0.058848 0.136503
v -0.243767 -0.058997 0.136527
v -0.243072 -0.058848 0.137036
v -0.24309 -0.058997 0.137062
v -0.242339 -0.058848 0.137483
v -0.242339 -0.058848 0.137483
v -0.242339 -0.058848 0.137483
v -0.242339 -0.058848 0.137483
v -0.242354 -0.058997 0.137511
v -0.242354 -0.058997 0.137511
v -0.242354 -0.058997 0.137511
v -0.241557 -0.058848 0.137839
v -0.241557 -0.058848 0.137839
v -0.241557 -0.058848 0.137839
v -0.241569 -0.058997 0.137869
v -0.241569 -0.058997 0.137869
v -0.240738 -0.058848 0.138098
v -0.240738 -0.058848 0.138098
v -0.240746 -0.058997 0.138129
v -0.240746 -0.058997 0.138129
v -0.239894 -0.058848 0.138256
v -0.239894 -0.058848 0.138256
v -0.239037 -0.058997 0.138344
v -0.23818 -0.058848 0.138263
v -0.23818 -0.058848 0.138263
v -0.238176 -0.058997 0.138295
v -0.238176 -0.058997 0.138295
v -0.238176 -0.058997 0.138295
v -0.237335 -0.058848 0.138112
v -0.237335 -0.058848 0.138112
v -0.237327 -0.058997 0.138143
v -0.233704 -0.058848 0.135938
v -0.233172 -0.058848 0.135265
v -0.232724 -0.058848 0.134531
v -0.232724 -0.058848 0.134531
v -0.232724 -0.058848 0.134531
v -0.232696 -0.058997 0.134547
v -0.232369 -0.058848 0.13375
v -0.232369 -0.058848 0.13375
v -0.23211 -0.058848 0.132931
v -0.23211 -0.058848 0.132931
v -0.23211 -0.058848 0.132931
v -0.232078 -0.058997 0.132939
v -0.232078 -0.058997 0.132939
v -0.231951 -0.058848 0.132087
v -0.231951 -0.058848 0.132087
v -0.231951 -0.058848 0.132087
v -0.231951 -0.058848 0.132087
v -0.231919 -0.058997 0.132091
v -0.231896 -0.058848 0.13123
v -0.231896 -0.058848 0.13123
v -0.231896 -0.058848 0.13123
v -0.231864 -0.058997 0.13123
v -0.231944 -0.058848 0.130372
v -0.231944 -0.058848 0.130372
v -0.231944 -0.058848 0.130372
v -0.231912 -0.058997 0.130369
v -0.232095 -0.058848 0.129527
v -0.232095 -0.058848 0.129527
v -0.232095 -0.058848 0.129527
v -0.232064 -0.058997 0.12952
v -0.232064 -0.058997 0.12952
v -0.232347 -0.058848 0.128706
v -0.232347 -0.058848 0.128706
v -0.232347 -0.058848 0.128706
v -0.232347 -0.058848 0.128706
v -0.232347 -0.058848 0.128706
v -0.232317 -0.058997 0.128695
v -0.232317 -0.058997 0.128695
v -0.232696 -0.058848 0.127922
v -0.232696 -0.058848 0.127922
v -0.232696 -0.058848 0.127922
v -0.232668 -0.058997 0.127907
v -0.233138 -0.058848 0.127185
v -0.233138 -0.058848 0.127185
v -0.233111 -0.058997 0.127167
v -0.233111 -0.058997 0.127167
v -0.233111 -0.058997 0.127167
v -0.233664 -0.058848 0.126507
v -0.233664 -0.058848 0.126507
v -0.233664 -0.058848 0.126507
v -0.23364 -0.058997 0.126485
v -0.23364 -0.058997 0.126485
v -0.234269 -0.058848 0.125897
v -0.234269 -0.058848 0.125897
v -0.234248 -0.058997 0.125873
v -0.234943 -0.058848 0.125364
v -0.234943 -0.058848 0.125364
v -0.234924 -0.058997 0.125338
v -0.234924 -0.058997 0.125338
v -0.235676 -0.058848 0.124917
v -0.235676 -0.058848 0.124917
v -0.235676 -0.058848 0.124917
v -0.235661 -0.058997 0.124889
v -0.236457 -0.058848 0.124561
v -0.236457 -0.058848 0.124561
v -0.236457 -0.058848 0.124561
v -0.236457 -0.058848 0.124561
v -0.236446 -0.058997 0.124531
v -0.237276 -0.058848 0.124302
v -0.237276 -0.058848 0.124302
v -0.237276 -0.058848 0.124302
v -0.237269 -0.058997 0.124271
v -0.23812 -0.058848 0.124144
v -0.23812 -0.058848 0.124144
v -0.23812 -0.058848 0.124144
v -0.238116 -0.058997 0.124112
v -0.238116 -0.058997 0.124112
v -0.238977 -0.058848 0.124089
v -0.238977 -0.058848 0.124089
v -0.238977 -0.058848 0.124089
v -0.238977 -0.058848 0.124089
v -0.238977 -0.058848 0.124089
v -0.238977 -0.058997 0.124056
v -0.238977 -0.058997 0.124056
v -0.238977 -0.058997 0.124056
v -0.239835 -0.058848 0.124137
v -0.239835 -0.058848 0.124137
v -0.239838 -0.058997 0.124105
v -0.240648 -0.058657 0.124421
v -0.239819 -0.058657 0.124273
v -0.239819 -0.058657 0.124273
v -0.238978 -0.058657 0.124225
v -0.238978 -0.058657 0.124225
v -0.238137 -0.058657 0.12428
v -0.23731 -0.058657 0.124435
v -0.23731 -0.058657 0.124435
v -0.236507 -0.058657 0.124689
v -0.236507 -0.058657 0.124689
v -0.235021 -0.058657 0.125477
v -0.23436 -0.058657 0.125999
v -0.23325 -0.058657 0.127262
v -0.232818 -0.058657 0.127985
v -0.232818 -0.058657 0.127985
v -0.232818 -0.058657 0.127985
v -0.232475 -0.058657 0.128754
v -0.232475 -0.058657 0.128754
v -0.232475 -0.058657 0.128754
v -0.232475 -0.058657 0.128754
v -0.232228 -0.058657 0.129559
v -0.232228 -0.058657 0.129559
v -0.23208 -0.058657 0.130388
v -0.23208 -0.058657 0.130388
v -0.232033 -0.058657 0.131229
v -0.232033 -0.058657 0.131229
v -0.232087 -0.058657 0.13207
v -0.232087 -0.058657 0.13207
v -0.232242 -0.058657 0.132898
v -0.232242 -0.058657 0.132898
v -0.232496 -0.058657 0.133701
v -0.232496 -0.058657 0.133701
v -0.232496 -0.058657 0.133701
v -0.232496 -0.058657 0.133701
v -0.232845 -0.058657 0.134467
v -0.232845 -0.058657 0.134467
v -0.232845 -0.058657 0.134467
v -0.233284 -0.058657 0.135186
v -0.233284 -0.058657 0.135186
v -0.234404 -0.058657 0.13644
v -0.239037 -0.058657 0.138175
v -0.239877 -0.058657 0.13812
v -0.240705 -0.058657 0.137965
v -0.241508 -0.058657 0.137711
v -0.241508 -0.058657 0.137711
v -0.241508 -0.058657 0.137711
v -0.242275 -0.058657 0.137362
v -0.242275 -0.058657 0.137362
v -0.242275 -0.058657 0.137362
v -0.243654 -0.058657 0.136401
v -0.244247 -0.058657 0.135803
v -0.244247 -0.058657 0.135803
v -0.244247 -0.058657 0.135803
v -0.244247 -0.058657 0.135803
v -0.244764 -0.058657 0.135138
v -0.244764 -0.058657 0.135138
v -0.244764 -0.058657 0.135138
v -0.244764 -0.058657 0.135138
v -0.245197 -0.058657 0.134415
v -0.245197 -0.058657 0.134415
v -0.245197 -0.058657 0.134415
v -0.245539 -0.058657 0.133646
v -0.245539 -0.058657 0.133646
v -0.245539 -0.058657 0.133646
v -0.245786 -0.058657 0.132841
v -0.245786 -0.058657 0.132841
v -0.245786 -0.058657 0.132841
v -0.245786 -0.058657 0.132841
v -0.245935 -0.058657 0.132012
v -0.245935 -0.058657 0.132012
v -0.245935 -0.058657 0.132012
v -0.245982 -0.058657 0.131171
v -0.245772 -0.058657 0.129502
v -0.245772 -0.058657 0.129502
v -0.245772 -0.058657 0.129502
v -0.245518 -0.058657 0.128699
v -0.241368 -0.058471 0.124895
v -0.240591 -0.058471 0.124656
v -0.240591 -0.058471 0.124656
v -0.239791 -0.058471 0.124513
v -0.238979 -0.058471 0.124467
v -0.235853 -0.058471 0.125252
v -0.235159 -0.058471 0.125675
v -0.235159 -0.058471 0.125675
v -0.235159 -0.058471 0.125675
v -0.234522 -0.058471 0.126179
v -0.233949 -0.058471 0.126757
v -0.23345 -0.058471 0.127399
v -0.233033 -0.058471 0.128096
v -0.233033 -0.058471 0.128096
v -0.233033 -0.058471 0.128096
v -0.232702 -0.058471 0.128839
v -0.23232 -0.058471 0.130417
v -0.232275 -0.058471 0.131228
v -0.232275 -0.058471 0.131228
v -0.232327 -0.058471 0.13204
v -0.232327 -0.058471 0.13204
v -0.232477 -0.058471 0.132839
v -0.232477 -0.058471 0.132839
v -0.232722 -0.058471 0.133614
v -0.232722 -0.058471 0.133614
v -0.233059 -0.058471 0.134354
v -0.233059 -0.058471 0.134354
v -0.233059 -0.058471 0.134354
v -0.233483 -0.058471 0.135048
v -0.233483 -0.058471 0.135048
v -0.233987 -0.058471 0.135686
v -0.234564 -0.058471 0.136258
v -0.235206 -0.058471 0.136757
v -0.241421 -0.058471 0.137485
v -0.242161 -0.058471 0.137148
v -0.243493 -0.058471 0.13622
v -0.243493 -0.058471 0.13622
v -0.244066 -0.058471 0.135643
v -0.244066 -0.058471 0.135643
v -0.244564 -0.058471 0.135001
v -0.244564 -0.058471 0.135001
v -0.245312 -0.058471 0.133561
v -0.245312 -0.058471 0.133561
v -0.245551 -0.058471 0.132784
v -0.245551 -0.058471 0.132784
v -0.245551 -0.058471 0.132784
v -0.245687 -0.058471 0.13036
v -0.245538 -0.058471 0.129561
v -0.241248 -0.058293 0.125217
v -0.240406 -0.058125 0.125418
v -0.239751 -0.058293 0.124855
v -0.239751 -0.058293 0.124855
v -0.23821 -0.058293 0.124861
v -0.237452 -0.058293 0.125003
v -0.236717 -0.058293 0.125236
v -0.236015 -0.058293 0.125556
v -0.236015 -0.058293 0.125556
v -0.235356 -0.058293 0.125958
v -0.235356 -0.058293 0.125958
v -0.233734 -0.058293 0.127593
v -0.233734 -0.058293 0.127593
v -0.233338 -0.058293 0.128255
v -0.233024 -0.058293 0.12896
v -0.232798 -0.058293 0.129697
v -0.232662 -0.058293 0.130457
v -0.232662 -0.058293 0.130457
v -0.232662 -0.058293 0.130457
v -0.232619 -0.058293 0.131227
v -0.232619 -0.058293 0.131227
v -0.232619 -0.058293 0.131227
v -0.232619 -0.058293 0.131227
v -0.232669 -0.058293 0.131997
v -0.232669 -0.058293 0.131997
v -0.232811 -0.058293 0.132755
v -0.233043 -0.058293 0.133491
v -0.233363 -0.058293 0.134193
v -0.234791 -0.058293 0.136
v -0.2354 -0.058293 0.136473
v -0.24499 -0.058293 0.13344
v -0.241749 -0.058125 0.125921
v -0.240406 -0.058125 0.125418
v -0.239699 -0.058125 0.125292
v -0.238982 -0.058125 0.125252
v -0.238265 -0.058125 0.125298
v -0.238265 -0.058125 0.125298
v -0.237559 -0.058125 0.12543
v -0.237559 -0.058125 0.12543
v -0.237559 -0.058125 0.12543
v -0.236875 -0.058125 0.125647
v -0.236221 -0.058125 0.125945
v -0.234538 -0.058125 0.127274
v -0.234098 -0.058125 0.127842
v -0.234098 -0.058125 0.127842
v -0.233729 -0.058125 0.128458
v -0.233437 -0.058125 0.129114
v -0.233437 -0.058125 0.129114
v -0.233437 -0.058125 0.129114
v -0.233437 -0.058125 0.129114
v -0.233226 -0.058125 0.129801
v -0.233226 -0.058125 0.129801
v -0.233226 -0.058125 0.129801
v -0.233099 -0.058125 0.130508
v -0.233099 -0.058125 0.130508
v -0.233099 -0.058125 0.130508
v -0.233059 -0.058125 0.131225
v -0.233105 -0.058125 0.131942
v -0.233238 -0.058125 0.132648
v -0.233238 -0.058125 0.132648
v -0.233454 -0.058125 0.133333
v -0.233454 -0.058125 0.133333
v -0.233752 -0.058125 0.133987
v -0.233752 -0.058125 0.133987
v -0.234126 -0.058125 0.1346
v -0.234126 -0.058125 0.1346
v -0.237608 -0.058125 0.136981
v -0.242066 -0.057971 0.126728
v -0.241505 -0.057971 0.126392
v -0.240907 -0.057971 0.126126
v -0.240282 -0.057971 0.125934
v -0.239638 -0.057971 0.125819
v -0.238984 -0.057971 0.125782
v -0.238332 -0.057971 0.125824
v -0.237688 -0.057971 0.125945
v -0.237688 -0.057971 0.125945
v -0.237065 -0.057971 0.126142
v -0.237065 -0.057971 0.126142
v -0.237065 -0.057971 0.126142
v -0.237065 -0.057971 0.126142
v -0.236469 -0.057971 0.126413
v -0.236469 -0.057971 0.126413
v -0.236469 -0.057971 0.126413
v -0.235911 -0.057971 0.126754
v -0.234937 -0.057971 0.127624
v -0.234937 -0.057971 0.127624
v -0.234535 -0.057971 0.128141
v -0.234199 -0.057971 0.128702
v -0.233933 -0.057971 0.1293
v -0.233933 -0.057971 0.1293
v -0.233741 -0.057971 0.129926
v -0.233626 -0.057971 0.13057
v -0.233589 -0.057971 0.131223
v -0.233949 -0.057971 0.133143
v -0.234221 -0.057971 0.133738
v -0.234221 -0.057971 0.133738
v -0.234561 -0.057971 0.134297
v -0.234967 -0.057971 0.13481
v -0.235432 -0.057971 0.135271
v -0.237107 -0.057971 0.136274
v -0.237733 -0.057971 0.136466
v -0.239567 -0.057832 0.126427
v -0.238987 -0.057832 0.126394
v -0.237838 -0.057832 0.126539
v -0.237838 -0.057832 0.126539
v -0.237284 -0.057832 0.126713
v -0.237284 -0.057832 0.126713
v -0.236756 -0.057832 0.126954
v -0.236756 -0.057832 0.126954
v -0.235805 -0.057832 0.127616
v -0.235397 -0.057832 0.128028
v -0.234336 -0.057832 0.130069
v -0.234234 -0.057832 0.130641
v -0.234234 -0.057832 0.130641
v -0.234234 -0.057832 0.130641
v -0.234886 -0.057711 0.131217
v -0.234201 -0.057832 0.13122
v -0.234239 -0.057832 0.131799
v -0.235424 -0.057832 0.134402
v -0.235424 -0.057832 0.134402
v -0.23753 -0.057711 0.127353
v -0.237077 -0.057711 0.127559
v -0.235911 -0.057711 0.12848
v -0.235606 -0.057711 0.128873
v -0.235002 -0.057711 0.130231
v -0.235002 -0.057711 0.130231
v -0.234914 -0.057711 0.13072
v -0.234918 -0.057711 0.131714
v -0.235366 -0.057711 0.133131
v -0.235626 -0.057711 0.133555
v -0.235934 -0.057711 0.133946
v -0.237108 -0.057711 0.134857
v -0.241524 -0.057609 0.128952
v -0.241234 -0.057609 0.128665
v -0.240563 -0.057609 0.128206
v -0.237797 -0.057609 0.12805
v -0.236472 -0.057609 0.128973
v -0.235656 -0.057609 0.130807
v -0.235633 -0.057609 0.131214
v -0.235659 -0.057609 0.131621
v -0.235735 -0.057609 0.132021
v -0.235857 -0.057609 0.13241
v -0.236026 -0.057609 0.132781
v -0.237102 -0.057609 0.133985
v -0.237452 -0.057609 0.134194
v -0.242355 -0.057609 0.130779
v -0.24228 -0.057609 0.130379
v -0.240929 -0.057528 0.129483
v -0.240462 -0.057528 0.129074
v -0.240195 -0.057528 0.128914
v -0.238997 -0.057528 0.128624
v -0.237291 -0.057528 0.129279
v -0.237464 -0.05747 0.130398
v -0.236594 -0.057528 0.130296
v -0.236594 -0.057528 0.130296
v -0.236503 -0.057528 0.130594
v -0.236448 -0.057528 0.1309
v -0.236451 -0.057528 0.131521
v -0.236508 -0.057528 0.131827
v -0.237553 -0.057528 0.133327
v -0.238401 -0.057528 0.133704
v -0.239224 -0.05747 0.132926
v -0.239329 -0.057528 0.133756
v -0.239634 -0.057528 0.133699
v -0.241564 -0.057528 0.130879
v -0.240435 -0.05747 0.130206
v -0.240304 -0.05747 0.130041
v -0.23921 -0.05747 0.129472
v -0.239 -0.05747 0.12946
v -0.238013 -0.05747 0.129773
v -0.237848 -0.05747 0.129903
v -0.237378 -0.05747 0.13059
v -0.237378 -0.05747 0.13059
v -0.237268 -0.05747 0.131207
v -0.237281 -0.05747 0.131417
v -0.237859 -0.05747 0.132507
v -0.238025 -0.05747 0.132636
v -0.238397 -0.05747 0.132829
v -0.238598 -0.05747 0.132891
v -0.239015 -0.05747 0.13294
v -0.239224 -0.05747 0.132926
v -0.239431 -0.05747 0.132887
v -0.240314 -0.05747 0.132348
v -0.240443 -0.05747 0.132182
v -0.240551 -0.05747 0.132002
v -0.257782 -0.035322 0.105902
v -0.257284 -0.03539 0.105842
v -0.257777 -0.035388 0.105845
v -0.256942 -0.035989 0.101999
v -0.257448 -0.035997 0.101948
v -0.256965 -0.036016 0.101818
v -0.257284 -0.028079 0.103396
v -0.257284 -0.0284 0.105925
v -0.257284 -0.0306 0.105925
v -0.257284 -0.0306 0.105947
v -0.257284 -0.0284 0.105947
v -0.257251 -0.032824 0.105575
v -0.25724 -0.032731 0.105555
v -0.25724 -0.032731 0.105555
v -0.25724 -0.032731 0.105555
v -0.25724 -0.032731 0.105555
v -0.257684 -0.032786 0.105325
v -0.257684 -0.032786 0.105325
v -0.257673 -0.032694 0.105305
v -0.257672 -0.032691 0.105305
v -0.257239 -0.032729 0.105555
v -0.257239 -0.032729 0.105555
v -0.257643 -0.032623 0.105253
v -0.257208 -0.03266 0.105501
v -0.257164 -0.032625 0.105424
v -0.257035 -0.032591 0.105201
v -0.257035 -0.032591 0.105201
v -0.257035 -0.032591 0.105201
v -0.257284 -0.033 0.100914
v -0.257284 -0.03405 0.100904
v -0.257251 -0.033176 0.105575
v -0.257673 -0.033306 0.105305
v -0.257673 -0.033306 0.105305
v -0.257673 -0.033306 0.105305
v -0.257208 -0.03334 0.105501
v -0.257208 -0.03334 0.105501
v -0.257208 -0.03334 0.105501
v -0.25721 -0.033339 0.105503
v -0.257643 -0.033377 0.105253
v -0.257672 -0.033309 0.105305
v -0.257239 -0.033272 0.105554
v -0.257239 -0.033272 0.105554
v -0.257239 -0.033272 0.105554
v -0.25724 -0.033269 0.105555
v -0.25724 -0.033269 0.105555
v -0.257164 -0.033375 0.105424
v -0.252916 -0.030234 0.105851
v -0.252916 -0.030234 0.105851
v -0.252816 -0.030248 0.105951
v -0.252688 -0.030448 0.106079
v -0.252334 -0.030399 0.105725
v -0.252351 -0.030304 0.105708
v -0.252751 -0.030281 0.106016
v -0.252352 -0.030302 0.105708
v -0.252705 -0.030352 0.106062
v -0.252705 -0.030352 0.106062
v -0.252334 -0.030801 0.105725
v -0.252688 -0.030752 0.106079
v -0.252705 -0.030847 0.106062
v -0.252705 -0.030847 0.106062
v -0.252751 -0.030919 0.106016
v -0.252916 -0.035766 0.105851
v -0.252916 -0.035034 0.105851
v -0.252916 -0.035034 0.105851
v -0.252736 -0.03435 0.100925
v -0.252734 -0.034374 0.101098
v -0.252816 -0.035048 0.105951
v -0.252816 -0.035048 0.105951
v -0.252751 -0.035081 0.106016
v -0.252751 -0.035081 0.106016
v -0.252352 -0.035102 0.105708
v -0.252705 -0.035152 0.106062
v -0.252705 -0.035152 0.106062
v -0.252705 -0.035152 0.106062
v -0.252751 -0.035719 0.106016
v -0.252705 -0.035647 0.106062
v -0.252816 -0.035752 0.105951
v -0.252462 -0.035801 0.105598
v -0.252563 -0.035815 0.105497
v -0.252563 -0.035815 0.105497
v -0.252606 -0.035824 0.105432
v -0.257284 -0.027214 0.106625
v -0.252734 -0.034339 0.10101
v -0.257284 -0.0316594 0.100928
v -0.257284 -0.0342161 0.10097
v -0.257284 -0.028319 0.105903
v -0.257284 -0.0334223 0.106101
v -0.257284 -0.02785 0.099645
v -0.257284 -0.0346351 0.0994192
f 40 3 37
f 1 29 36
f 6 7 35
f 11 10 5
f 5 12 11
f 13 48 12
f 11 48 33
f 5 10 15
f 23 15 22
f 19 18 12
f 21 20 22
f 22 20 23
f 36 25 60
f 26 24 49
f 25 27 53
f 53 27 26
f 24 27 36
f 24 26 27
f 53 54 25
f 49 24 28
f 28 24 36
f 49 28 29
f 49 29 1
f 13 12 30
f 4 33 10
f 10 33 32
f 13 30 50
f 7 38 35
f 7 36 38
f 3 39 37
f 37 39 38
f 40 17 3
f 3 17 39
f 42 14 32
f 10 32 14
f 44 45 46
f 43 22 47
f 47 22 14
f 47 14 46
f 46 14 42
f 46 42 44
f 17 40 37
f 1 6 9
f 9 6 35
f 6 1 36
f 60 58 37
f 29 28 36
f 19 9 34
f 34 50 30
f 34 30 19
f 51 18 19
f 30 51 19
f 60 61 52
f 60 52 58
f 53 26 19
f 19 26 49
f 19 49 1
f 12 54 19
f 19 1 9
f 48 11 12
f 12 18 30
f 30 18 51
f 54 55 61
f 5 55 54
f 13 50 56
f 13 56 48
f 48 56 33
f 58 31 17
f 55 5 61
f 5 54 12
f 54 53 19
f 4 57 11
f 4 11 33
f 10 57 4
f 11 57 10
f 16 58 23
f 37 58 17
f 22 15 10
f 45 44 59
f 59 44 21
f 59 21 43
f 43 21 22
f 5 15 61
f 22 10 14
f 16 41 31
f 23 20 16
f 58 16 31
f 16 20 41
f 38 36 37
f 37 36 60
f 52 61 58
f 7 6 36
f 25 61 60
f 58 15 23
f 27 25 36
f 25 54 61
f 58 61 15
f 76 77 78
f 80 81 64
f 62 82 83
f 118 87 119
f 85 93 95
f 97 96 69
f 136 174 91
f 91 174 92
f 171 98 99
f 90 100 110
f 102 101 89
f 129 102 89
f 103 129 104
f 103 104 105
f 163 151 108
f 108 151 88
f 114 68 174
f 164 101 113
f 120 118 167
f 120 117 118
f 119 87 113
f 113 117 122
f 113 116 119
f 118 119 116
f 86 120 121
f 120 122 117
f 120 86 122
f 122 86 123
f 122 123 124
f 122 124 95
f 125 126 94
f 121 125 127
f 121 127 86
f 86 127 128
f 86 128 123
f 95 124 94
f 94 124 125
f 126 125 121
f 131 130 159
f 130 131 129
f 161 133 132
f 133 161 115
f 171 133 115
f 171 111 133
f 134 135 111
f 98 135 99
f 99 135 134
f 137 136 91
f 92 137 91
f 174 68 92
f 92 68 137
f 68 122 93
f 68 85 69
f 96 97 175
f 138 131 162
f 64 81 65
f 65 81 88
f 65 88 140
f 139 70 140
f 150 79 66
f 78 77 100
f 78 100 112
f 144 74 73
f 74 144 145
f 88 151 72
f 72 151 146
f 72 146 73
f 73 146 147
f 73 147 144
f 112 66 78
f 78 66 79
f 78 79 148
f 78 148 76
f 76 148 143
f 76 143 149
f 149 143 142
f 79 150 148
f 172 74 145
f 71 70 88
f 88 70 139
f 88 139 140
f 109 172 145
f 72 71 88
f 144 151 145
f 145 151 109
f 109 151 163
f 112 100 90
f 163 108 106
f 163 106 164
f 152 81 153
f 153 104 89
f 152 88 81
f 81 80 153
f 153 154 104
f 82 105 104
f 82 104 83
f 83 104 154
f 83 154 153
f 83 153 62
f 62 153 80
f 62 80 63
f 63 80 64
f 164 106 101
f 156 105 75
f 75 105 82
f 105 156 103
f 103 159 129
f 103 156 159
f 129 159 130
f 112 158 132
f 132 158 160
f 132 160 161
f 113 169 164
f 156 75 159
f 159 75 162
f 159 162 131
f 113 101 116
f 101 165 168
f 168 165 129
f 129 165 101
f 104 129 89
f 129 166 168
f 168 166 131
f 131 166 129
f 160 158 161
f 114 113 173
f 170 172 109
f 169 109 163
f 117 113 87
f 116 101 167
f 116 167 118
f 131 138 84
f 131 84 168
f 158 170 161
f 114 122 68
f 169 113 114
f 114 173 122
f 101 102 129
f 126 168 84
f 158 112 90
f 170 115 161
f 170 158 90
f 141 110 100
f 141 100 77
f 110 170 90
f 170 171 115
f 141 172 170
f 95 94 126
f 95 126 67
f 121 120 167
f 121 167 126
f 106 108 107
f 106 107 153
f 106 153 101
f 101 153 89
f 88 152 108
f 108 152 107
f 107 152 153
f 101 168 167
f 167 168 126
f 67 126 84
f 171 114 174
f 171 174 98
f 98 174 136
f 170 109 169
f 169 163 164
f 173 113 122
f 93 122 95
f 85 95 67
f 99 134 171
f 114 171 169
f 170 110 141
f 170 169 171
f 111 171 134
f 93 85 68
f 175 97 69
f 67 69 85
f 177 176 8
f 155 157 2
f 184 182 181
f 181 182 180
f 181 183 184
f 183 186 185
f 185 186 178
f 186 183 181
f 178 188 187
f 178 186 181
f 178 181 188
f 188 181 189
f 189 181 180
f 189 192 190
f 191 190 182
f 182 190 192
f 193 180 182
f 189 180 192
f 192 180 193
f 192 193 182
f 187 179 178
f 182 184 191
f 178 179 185
f 197 196 194
f 196 197 195
f 196 195 194
f 202 203 206
f 205 207 208
f 209 210 211
f 213 214 199
f 201 198 204
f 212 217 216
f 200 220 219
f 229 228 222
f 227 230 221
f 232 233 218
f 239 236 215
f 224 225 241
f 231 226 242
f 234 235 243
f 237 238 244
f 240 245 223
f 250 246 247
f 250 247 251
f 251 247 246
f 252 253 249
f 248 249 253
f 248 253 252
f 255 256 254
f 283 282 284
f 302 308 303
f 301 316 305
f 304 317 306
f 307 318 309
f 311 319 320
f 310 321 313
f 312 322 326
f 330 332 333
f 334 331 335
f 337 339 340
f 345 346 349
f 352 336 344
f 351 343 353
f 338 341 342
f 297 350 358
f 296 357 298
f 347 359 348
f 300 299 367
f 369 356 354
f 370 355 373
f 329 328 270
f 269 327 325
f 268 324 267
f 314 264 266
f 315 265 323
f 258 289 259
f 290 292 260
f 261 291 293
f 262 288 287
f 285 263 286
f 278 368 274
f 366 371 272
f 273 372 277
f 275 365 363
f 276 364 280
f 361 271 281
f 360 279 362
f 294 295 257
f 374 380 381
f 383 386 375
f 376 387 388
f 377 389 390
f 392 393 378
f 399 397 400
f 404 406 407
f 409 411 414
f 412 417 420
f 419 416 421
f 423 425 427
f 429 428 430
f 433 432 438
f 436 439 442
f 441 437 443
f 446 444 448
f 445 447 449
f 453 451 454
f 452 455 458
f 457 456 459
f 464 465 466
f 470 472 474
f 475 471 477
f 478 481 484
f 482 485 488
f 487 489 494
f 495 490 496
f 491 497 498
f 499 501 503
f 503 501 506
f 502 505 507
f 508 504 510
f 509 511 513
f 515 514 517
f 516 518 521
f 519 522 524
f 528 527 531
f 532 536 538
f 540 535 544
f 539 543 545
f 546 542 547
f 541 550 551
f 537 552 533
f 534 553 529
f 530 555 523
f 525 554 557
f 526 556 520
f 512 558 559
f 500 561 493
f 492 562 566
f 486 567 568
f 483 569 571
f 480 570 572
f 479 573 476
f 473 575 469
f 468 574 577
f 467 579 462
f 463 580 582
f 461 586 460
f 450 588 589
f 440 590 591
f 435 592 596
f 434 595 431
f 426 601 422
f 424 600 605
f 418 602 606
f 413 607 611
f 415 609 410
f 408 610 612
f 405 613 618
f 403 616 402
f 401 619 398
f 396 621 394
f 395 622 623
f 548 626 549
f 560 634 635
f 563 636 564
f 565 637 639
f 576 646 578
f 581 647 583
f 584 648 649
f 585 650 653
f 587 654 655
f 593 657 594
f 594 657 658
f 597 659 599
f 598 660 661
f 603 662 663
f 604 664 608
f 614 665 669
f 615 668 617
f 620 670 671
f 624 672 625
f 627 674 628
f 629 679 631
f 630 680 682
f 632 681 633
f 638 684 685
f 640 689 641
f 642 690 692
f 643 693 695
f 644 696 645
f 651 699 652
f 656 700 701
f 666 702 667
f 675 673 705
f 676 706 707
f 677 708 711
f 678 709 712
f 683 714 716
f 686 717 721
f 687 720 723
f 688 727 694
f 691 725 728
f 697 729 731
f 698 730 733
f 703 739 740
f 704 741 742
f 710 745 746
f 713 750 753
f 715 756 758
f 719 759 760
f 718 761 724
f 722 762 726
f 732 765 734
f 735 767 737
f 736 766 768
f 738 771 772
f 743 773 744
f 744 773 774
f 747 776 748
f 749 775 777
f 751 778 752
f 752 778 780
f 754 779 755
f 757 781 782
f 763 786 764
f 764 786 788
f 769 791 770
f 783 796 785
f 784 797 798
f 789 787 799
f 790 801 802
f 792 807 793
f 794 808 795
f 800 813 814
f 803 815 816
f 804 819 805
f 806 820 821
f 809 828 810
f 811 829 812
f 812 829 830
f 817 836 818
f 822 839 840
f 823 841 842
f 825 824 843
f 826 844 827
f 831 847 848
f 832 849 850
f 834 851 852
f 835 833 853
f 837 379 838
f 845 391 846
f 854 384 382
f 855 385 856
f 857 858 859
f 861 860 862
f 865 864 866
f 866 864 867
f 868 869 873
f 874 872 875
f 876 877 879
f 892 894 895
f 896 897 888
f 890 899 901
f 889 900 887
f 880 878 870
f 902 883 893
f 881 871 882
f 898 891 884
f 906 907 908
f 910 909 911
f 913 914 915
f 916 904 917
f 903 912 905
f 927 926 928
f 925 923 930
f 929 924 920
f 931 932 919
f 934 933 936
f 935 918 937
f 939 921 922
f 885 941 886
f 886 941 945
f 886 945 885
f 885 945 944
f 885 944 940
f 864 942 867
f 867 942 938
f 867 938 866
f 866 938 943
f 938 863 944
