v -0.130063 0.160497 0.157
v -0.091188 0.161991 0.156839
v -0.091188 0.161991 0.156839
v -0.090776 0.160815 0.156966
v -0.086063 0.115808 0.15487
v -0.129049 0.11557 0.155437
v -0.128554 0.115287 0.155865
v -0.128554 0.115287 0.155865
v -0.125094 0.114437 0.156598
v -0.127952 0.115006 0.156173
v -0.132563 0.161204 0.160997
v -0.132563 0.161204 0.160997
v -0.132563 0.164385 0.160493
v -0.091437 0.164032 0.160601
v -0.091437 0.164032 0.160601
v -0.091318 0.162615 0.1609
v -0.091318 0.162615 0.1609
v -0.090951 0.161204 0.160997
f 1 2 4
f 6 5 7
f 8 9 10
f 3 17 18
f 12 16 15
f 11 14 13
