v -0.215998 0.006834 0.023371
v -0.21599 0.006776 0.023366
v -0.216046 0.006817 0.022895
v -0.216046 0.006817 0.022895
v -0.225201 -0.001094 0.013723
v -0.224658 -0.000602 0.012311
v -0.225284 -0.001154 0.013937
v -0.224233 0.008223 0.007616
v -0.226084 0.007842 0.005905
v -0.226149 0.008019 0.005941
v -0.216932 0.008919 0.023385
v -0.216385 0.007925 0.023083
v -0.216385 0.007925 0.023083
v -0.217012 0.00565 0.018039
v -0.216346 0.00565 0.020465
v -0.216478 0.004309 0.020538
v -0.216046 0.004483 0.022895
v -0.21715 0.009204 0.024008
v -0.216855 0.008795 0.023845
v -0.216323 0.007841 0.02355
v -0.216254 0.007699 0.023512
v -0.218275 0.009776 0.018737
v -0.216868 0.008264 0.020754
v -0.216868 0.008264 0.020754
v -0.217585 0.008521 0.018356
v -0.216004 0.004528 0.023374
v -0.216081 0.004124 0.023417
v -0.217157 0.004178 0.018119
v -0.217157 0.004178 0.018119
v -0.216868 0.003036 0.020754
v -0.216868 0.003036 0.020754
v -0.216932 0.002381 0.023385
v -0.218066 0.004098 0.015758
v -0.217585 0.002779 0.018356
v -0.217585 0.002779 0.018356
v -0.217496 0.001893 0.021101
v -0.22338 0.009749 0.026951
v -0.224731 0.00537 0.0282
v -0.225107 0.00565 0.027906
v -0.224622 0.004524 0.02814
v -0.233966 0.004331 0.012999
v -0.233966 0.004331 0.012999
v -0.232964 0.009347 0.012445
v -0.233678 0.008584 0.010105
v -0.233582 0.008223 0.012787
v -0.23448 0.00565 0.010549
v -0.234096 0.00565 0.013071
v -0.234096 0.00565 0.013071
v -0.234096 0.00565 0.013071
v -0.233602 0.002598 0.010063
v -0.233524 0.0025 0.01002
v -0.232964 0.001953 0.012445
v -0.234473 0.00512 0.010545
v -0.234473 0.00512 0.010545
v -0.233446 0.00565 0.015557
v -0.231288 0.007226 0.020169
v -0.23083 0.008724 0.019915
v -0.229512 0.008675 0.022089
v -0.231231 0.009982 0.017225
v -0.230091 0.010067 0.019506
v -0.229109 0.011189 0.018964
v -0.224906 0.01036 0.025199
v -0.228447 0.004178 0.024363
v -0.226891 0.00565 0.026297
v -0.226759 0.004309 0.026224
v -0.225741 0.009407 0.025661
v -0.238406 0.00593 0.050018
v -0.238411 0.005651 0.05001
v -0.238471 0.006834 0.049902
v -0.22082 0.004524 0.04015
v -0.222503 0.004331 0.042051
v -0.22076 0.00537 0.040259
v -0.220765 0.005649 0.04025
v -0.222431 0.00565 0.042181
v -0.223297 0.000417 0.037063
v -0.223011 0.000602 0.03619
v -0.223011 0.000602 0.03619
v -0.222663 0.000723 0.036819
v -0.222663 0.000723 0.036819
v -0.222146 0.001094 0.037754
v -0.222182 0.00105 0.037688
v -0.240853 0.010714 0.045594
v -0.240309 0.010577 0.046578
v -0.239108 0.009204 0.04875
v -0.238945 0.008795 0.049045
v -0.238612 0.007699 0.049646
v -0.239987 0.000913 0.047159
v -0.240853 0.000586 0.045594
v -0.240414 0.000668 0.046389
v -0.24031 0.000728 0.046576
v -0.2433 0.00537 0.041169
v -0.243236 0.004466 0.041285
v -0.225117 0.008796 0.032381
v -0.225205 0.008584 0.032222
v -0.237069 -0.000807 0.043328
v -0.229328 -0.000116 0.035493
v -0.229176 -2.2e-05 0.03533
v -0.243095 0.003601 0.041541
v -0.241293 0.010632 0.044798
v -0.224686 0.007936 0.033161
v -0.221362 0.005539 0.039171
v -0.223031 0.001852 0.036153
v -0.222438 0.002203 0.037225
v -0.236247 -0.009596 0.042416
v -0.235565 -0.005649 0.040644
v -0.235565 -0.005649 0.040644
v -0.235904 -0.00565 0.040303
v -0.235951 -0.004483 0.040426
v -0.255792 -0.010584 0.037058
v -0.254714 -0.008584 0.034258
v -0.254559 -0.007845 0.033855
v -0.254559 -0.007845 0.033855
v -0.254559 -0.007845 0.033855
v -0.254382 -0.006034 0.033397
v -0.2489 0.000978 0.038833
v -0.248734 0.001115 0.039328
v -0.248721 0.001124 0.03933
v -0.23659 -0.001094 0.043307
v -0.23659 -0.001094 0.043307
v -0.236971 -0.000926 0.043073
v -0.248649 0.001184 0.039581
v -0.255066 -0.001706 0.035174
v -0.255226 -0.001367 0.035589
v -0.254429 -0.004527 0.033519
v -0.254451 -0.004223 0.033575
v -0.25456 -0.003455 0.033858
v -0.254548 -0.007794 0.033828
v -0.254437 -0.006935 0.033538
v -0.255781 -0.01058 0.037031
v -0.236091 -0.003375 0.040788
v -0.236091 -0.003375 0.040788
v -0.235951 -0.006817 0.040426
v -0.236248 -0.001705 0.042418
v -0.236082 -0.002096 0.041987
v -0.235873 -0.002802 0.041446
v -0.235742 -0.003459 0.041106
v -0.237958 -0.003036 0.039314
v -0.235573 -0.006284 0.040665
v -0.235611 -0.006772 0.040765
v -0.23577 -0.008019 0.041177
v -0.236439 -0.009989 0.042917
v -0.239147 -0.006834 0.049949
v -0.25036 0.000611 0.043587
v -0.252662 0.000263 0.042521
v -0.257965 -0.004466 0.042704
v -0.257968 -0.004524 0.042712
v -0.257968 -0.004524 0.042712
v -0.25604 -0.004331 0.044364
v -0.258013 -0.00537 0.042828
v -0.258009 -0.005649 0.042819
v -0.256094 -0.00565 0.044502
v -0.252163 0.000417 0.042603
v -0.257135 -0.009989 0.040546
v -0.256983 -0.010194 0.040152
v -0.256983 -0.010194 0.040152
v -0.255883 -0.008223 0.043954
v -0.257963 -0.006772 0.042698
v -0.257931 -0.007176 0.042616
v -0.257492 -0.002096 0.041476
v -0.257613 -0.002505 0.04179
v -0.255629 -0.001953 0.043295
v -0.257701 -0.002802 0.042017
v -0.237505 -0.010701 0.045685
v -0.237782 -0.010577 0.046404
v -0.237829 -0.010555 0.046527
v -0.238139 -0.01025 0.047331
v -0.238166 -0.010206 0.047401
v -0.239041 -0.007699 0.049675
v -0.239041 -0.007699 0.049675
v -0.238986 -0.003281 0.049531
v -0.253482 -0.009742 0.044652
v -0.255629 -0.009347 0.043295
v -0.253763 -0.008498 0.045382
v -0.237781 -0.000728 0.046402
v -0.263341 0.001551 0.027013
v -0.26511 0.005651 0.027489
v -0.265002 0.006834 0.027429
v -0.26501 0.006776 0.027434
v -0.255654 -0.0012 0.036701
v -0.255717 -0.001154 0.036863
v -0.254414 0.008785 0.044617
v -0.254851 0.008019 0.044859
v -0.26071 -0.000312 0.030948
v -0.259633 -0.000632 0.033216
v -0.26079 0.000198 0.033856
v -0.258897 0.00419 0.041516
v -0.260451 0.004104 0.039483
v -0.259041 0.00565 0.041596
v -0.264954 0.004483 0.027905
v -0.264954 0.004483 0.027905
v -0.264614 0.003375 0.027717
v -0.264614 0.003375 0.027717
v -0.264132 0.008264 0.030046
v -0.263415 0.008521 0.032444
v -0.264522 0.006991 0.030262
v -0.26509 0.005016 0.027478
v -0.264919 0.004124 0.027383
v -0.264919 0.004124 0.027383
v -0.264675 0.003458 0.027249
v -0.264132 0.003036 0.030046
v -0.264068 0.002381 0.027415
v -0.261956 0.00565 0.037403
v -0.262934 0.004098 0.035042
v -0.263504 0.001893 0.029699
v -0.263504 0.001893 0.029699
v -0.262669 0.000939 0.029237
v -0.2618 0.004073 0.037317
v -0.257939 0.009596 0.023523
v -0.248857 0.010286 0.03881
v -0.248036 0.009347 0.038355
v -0.247418 0.008223 0.038013
v -0.248857 0.001014 0.03881
v -0.248182 0.001706 0.04117
v -0.24692 0.007795 0.040472
v -0.247034 0.006969 0.037801
v -0.247554 0.00565 0.035243
v -0.247698 0.00711 0.035322
v -0.248595 0.007196 0.032925
v -0.249717 0.010781 0.036439
v -0.25849 0.010374 0.02433
v -0.256894 0.002381 0.023447
v -0.256347 0.003375 0.023145
v -0.252553 0.004178 0.026437
v -0.252407 0.00565 0.026356
v -0.254109 0.00565 0.024503
v -0.25703 0.002802 0.02302
v -0.256641 0.003601 0.022805
v -0.252553 0.007122 0.026437
v -0.251036 0.007202 0.028462
v -0.252981 0.008521 0.026674
v -0.258408 0.009989 0.023783
v -0.248226 0.003418 0.041195
v -0.247667 0.004861 0.040886
v -0.249248 0.002357 0.04176
v -0.253642 0.007882 0.04419
v -0.253642 0.007882 0.04419
v -0.253987 0.007195 0.044381
v -0.24869 0.002826 0.041451
v -0.248408 0.003185 0.041296
v -0.254135 0.004619 0.044463
v -0.254189 0.004796 0.044492
v -0.247906 0.007255 0.041018
v -0.247906 0.007255 0.041018
v -0.247906 0.007255 0.041018
v -0.248261 0.007936 0.041214
v -0.247596 0.00565 0.040846
v -0.247596 0.00565 0.040846
v -0.247733 0.006681 0.040922
v -0.250619 -0.010286 0.013265
v -0.249912 -0.009278 0.010973
v -0.249912 -0.009278 0.010973
v -0.249527 -0.008796 0.011121
v -0.249743 -0.009347 0.013602
v -0.249743 -0.009347 0.013602
v -0.249439 -0.002598 0.011155
v -0.249522 -0.0025 0.011123
v -0.249743 -0.001953 0.013602
v -0.248839 -0.00565 0.016619
v -0.249389 -0.00565 0.01912
v -0.249551 -0.007196 0.019057
v -0.252614 -0.009997 0.02333
v -0.253773 -0.009776 0.025569
v -0.254751 -0.010823 0.025192
v -0.250803 -0.001318 0.018575
v -0.250175 -0.001558 0.016104
v -0.250175 -0.001558 0.016104
v -0.250031 -0.002635 0.018873
v -0.250031 -0.002635 0.018873
v -0.249445 -0.002802 0.016385
v -0.263347 -0.001551 0.026938
v -0.265189 -0.00565 0.026229
v -0.265189 -0.00565 0.026229
v -0.265066 -0.006817 0.026276
v -0.265066 -0.006817 0.026276
v -0.257919 -0.005649 0.007891
v -0.256677 8.5e-05 0.012037
v -0.256784 0.001299 0.01679
v -0.256879 0.001269 0.016618
v -0.259054 -0.008223 0.010017
v -0.257386 -0.008019 0.008096
v -0.257898 -0.006284 0.007899
v -0.257798 -0.006772 0.007937
v -0.259464 -0.006969 0.00986
v -0.259464 -0.006969 0.00986
v -0.257715 -0.007176 0.007969
v -0.261281 0.000312 0.022679
v -0.261716 -0.002635 0.014374
v -0.261919 -0.000222 0.025053
v -0.262451 -0.000477 0.022228
v -0.262789 -0.001302 0.019413
v -0.262746 -0.002576 0.016708
v -0.262195 -0.004104 0.01419
v -0.263876 -0.009407 0.0243
v -0.264121 -0.008919 0.02664
v -0.264704 -0.007925 0.026415
v -0.264704 -0.007925 0.026415
v -0.260943 -0.009982 0.014672
v -0.261958 -0.010067 0.017011
v -0.262746 -0.008724 0.016708
v -0.264045 -0.007202 0.018929
v -0.264045 -0.007202 0.018929
v -0.264622 -0.007122 0.021392
v -0.264777 -0.00565 0.021333
v -0.264777 -0.00565 0.021333
v -0.264777 -0.00565 0.021333
v -0.264777 -0.00565 0.021333
v -0.265103 -0.00565 0.023828
v -0.264962 -0.004309 0.023882
v -0.265066 -0.004483 0.026276
v -0.264362 -0.008498 0.027018
v -0.264546 -0.008264 0.024042
v -0.264546 -0.008264 0.024042
v -0.264962 -0.006991 0.023882
v -0.264962 -0.006991 0.023882
v -0.264208 -0.00565 0.018867
v -0.264208 -0.00565 0.018867
v -0.264622 -0.004178 0.021392
v -0.264622 -0.004178 0.021392
v -0.264121 -0.002381 0.02664
v -0.264165 -0.002515 0.027094
v -0.258395 -0.009347 0.010271
v -0.262195 -0.007196 0.01419
v -0.2634 -0.00565 0.016456
v -0.2634 -0.00565 0.016456
v -0.264045 -0.004098 0.018929
v -0.264165 -0.002779 0.021568
v -0.263429 -0.001524 0.021851
v -0.263429 -0.001524 0.021851
v -0.263564 -0.002625 0.019115
v -0.263564 -0.002625 0.019115
v -0.263235 -0.004073 0.01652
v -0.262358 -0.00565 0.014127
v -0.262496 -0.001106 0.027736
v -0.242589 0.005651 0.00079
v -0.256944 0.000308 0.011557
v -0.259413 0.009449 0.012035
v -0.259316 0.009596 0.012211
v -0.259316 0.009596 0.012211
v -0.258337 0.000723 0.013981
v -0.258854 0.001094 0.013046
v -0.258854 0.001094 0.013046
v -0.258233 0.010632 0.01417
v -0.258336 0.010572 0.013983
v -0.259056 0.009989 0.012681
v -0.258284 0.003077 0.009133
v -0.259996 0.003459 0.010982
v -0.260034 0.003601 0.010913
v -0.252163 0.008724 0.004558
v -0.250142 0.007202 0.002966
v -0.240691 0.010577 0.004222
v -0.240755 0.010555 0.004106
v -0.241172 0.01025 0.003353
v -0.242578 0.005016 0.00081
v -0.252417 0.007226 0.0041
v -0.24141 0.001311 0.002921
v -0.241205 0.001106 0.003292
v -0.240147 0.000586 0.005206
v -0.240587 0.000668 0.004411
v -0.238526 0.009449 0.008137
v -0.238623 0.009596 0.007961
v -0.237704 0.005649 0.009622
v -0.237764 0.004466 0.009515
v -0.257671 0.010708 0.015185
v -0.257247 0.010584 0.015951
v -0.255883 0.008796 0.018419
v -0.255795 0.008584 0.018578
v -0.255587 0.007845 0.018955
v -0.239975 0.000598 0.005517
v -0.239688 0.000673 0.006251
v -0.239853 0.0006 0.006035
v -0.255603 0.003373 0.018924
v -0.257233 0.01058 0.015977
v -0.238245 0.003375 0.009553
v -0.238057 0.006817 0.009892
v -0.238238 0.002505 0.008657
v -0.23812 0.002802 0.00887
v -0.23812 0.002802 0.00887
v -0.237944 0.003459 0.00919
v -0.237944 0.003459 0.00919
v -0.237905 0.003601 0.009259
v -0.237905 0.003601 0.009259
v -0.237715 0.006284 0.009603
v -0.256295 0.003418 0.017674
v -0.256104 0.004105 0.018018
v -0.25686 0.002357 0.016652
v -0.258725 0.008943 0.013279
v -0.259034 0.008474 0.012721
v -0.256395 0.008116 0.017493
v -0.256118 0.007255 0.017994
v -0.256314 0.007936 0.017639
v -0.258001 0.009441 0.014589
v -0.257241 0.009291 0.015963
v -0.257616 0.009448 0.015285
v -0.257793 0.009445 0.014966
v -0.258344 0.002009 0.013968
v -0.257969 0.001852 0.014647
v -0.258697 0.002324 0.01333
v -0.258562 0.002203 0.013575
v -0.241806 -0.00593 0.000727
v -0.241806 -0.00593 0.000727
v -0.24185 -0.006776 0.000843
v -0.223032 -0.004524 0.008088
v -0.225708 -0.010286 0.008381
v -0.224477 -0.010632 0.011842
v -0.2244 -0.010572 0.011643
v -0.223375 -0.008785 0.008979
v -0.243218 -0.010577 0.004396
v -0.242861 -0.01025 0.003469
v -0.241856 -0.004528 0.000857
v -0.225371 -0.009347 0.007505
v -0.244753 -0.009596 0.008384
v -0.226616 -0.00565 0.017398
v -0.244387 -0.001551 0.008655
v -0.244383 -0.00105 0.007423
v -0.226549 -0.004223 0.017225
v -0.22644 -0.003455 0.016942
v -0.226573 -0.006775 0.017287
v -0.245048 -0.006817 0.010374
v -0.244668 -0.001506 0.008162
v -0.244752 -0.001705 0.008381
v -0.244918 -0.002096 0.008813
v -0.245039 -0.002505 0.009126
v -0.245389 -0.006772 0.010035
v -0.245357 -0.007176 0.009952
v -0.245257 -0.007842 0.009692
v -0.24523 -0.008019 0.009623
v -0.245051 -0.008785 0.009157
v -0.227037 0.004045 0.006432
v -0.226865 0.004619 0.006337
v -0.226729 0.005539 0.006262
v -0.233404 0.00565 0.009954
v -0.233403 0.005761 0.009953
v -0.223645 0.00565 0.0276
v -0.216968 0.00565 0.023907
v -0.217039 0.004861 0.023947
v -0.217254 0.004105 0.024065
v -0.226117 -0.00462 0.016102
v -0.223489 -0.004619 0.009277
v -0.226174 -0.00565 0.016251
v -0.226174 -0.005761 0.016249
v -0.22614 -0.006504 0.016161
v -0.226118 -0.006681 0.016105
v -0.223467 -0.004796 0.00922
v -0.225236 -0.002029 0.013813
v -0.224649 -0.009441 0.012289
v -0.224673 -0.001852 0.01235
v -0.224804 -0.001855 0.01269
v -0.242252 -0.005761 0.001887
v -0.242286 -0.006504 0.001976
v -0.242286 -0.006504 0.001976
v -0.243051 -0.009097 0.003963
v -0.243213 -0.009291 0.004382
v -0.243213 -0.009291 0.004382
v -0.243491 -0.009448 0.005106
v -0.244315 -0.008943 0.007245
v -0.244544 -0.008474 0.00784
v -0.244659 -0.008115 0.00814
v -0.244734 -0.007882 0.008334
v -0.244876 -0.007195 0.008702
v -0.24466 -0.003184 0.008142
v -0.244193 -0.002203 0.00693
v -0.244032 -0.002009 0.00651
v -0.241888 -0.004124 0.00094
v -0.242281 -0.004861 0.001962
v -0.241993 0.00565 0.001868
v -0.240916 0.009097 0.003815
v -0.240698 0.009291 0.004209
v -0.240698 0.009291 0.004209
v -0.238905 0.008474 0.007451
v -0.238376 0.004619 0.008408
v -0.238472 0.004045 0.008235
v -0.238668 0.003364 0.00788
v -0.240355 0.001859 0.00483
v -0.241079 0.002357 0.00352
v -0.24998 -0.007255 0.010947
v -0.255603 -0.008474 0.008782
v -0.255903 -0.008115 0.008667
v -0.256098 -0.007882 0.008592
v -0.25662 -0.00668 0.00839
v -0.256693 -0.006439 0.008362
v -0.249739 -0.006504 0.01104
v -0.249795 -0.006681 0.011018
v -0.25677 -0.00565 0.008333
v -0.250816 -0.002826 0.010625
v -0.250516 -0.003185 0.010741
v -0.25697 -0.006439 0.029864
v -0.257043 -0.00668 0.029835
v -0.257199 -0.007195 0.029776
v -0.262801 -0.008519 0.027619
v -0.263149 -0.008116 0.027485
v -0.263305 -0.007936 0.027425
v -0.263924 -0.006504 0.027186
v -0.264013 -0.005761 0.027152
v -0.264014 -0.00565 0.027152
v -0.257758 -0.003184 0.02956
v -0.261937 -0.002204 0.027952
v -0.262253 -0.002357 0.02783
v -0.263895 0.006681 0.026817
v -0.263895 0.006681 0.026817
v -0.263722 0.007255 0.026721
v -0.263722 0.007255 0.026721
v -0.263367 0.007936 0.026525
v -0.257985 0.007882 0.023549
v -0.257985 0.007882 0.023549
v -0.257641 0.007195 0.023358
v -0.257641 0.007195 0.023358
v -0.257355 0.00565 0.0232
v -0.257356 0.005539 0.023201
v -0.257356 0.005539 0.023201
v -0.257492 0.004619 0.023276
v -0.257665 0.004045 0.023372
v -0.25802 0.003364 0.023568
v -0.258492 0.002781 0.023829
v -0.263892 0.00462 0.026815
v -0.254943 -0.004105 0.034854
v -0.254943 -0.004105 0.034854
v -0.254883 -0.00462 0.034698
v -0.254883 -0.00462 0.034698
v -0.254855 -0.004861 0.034625
v -0.254855 -0.004861 0.034625
v -0.25744 -0.004045 0.041339
v -0.257511 -0.004619 0.041523
v -0.256889 -0.008943 0.039908
v -0.256889 -0.008943 0.039908
v -0.257538 -0.006439 0.041593
v -0.254826 -0.005761 0.034551
v -0.25486 -0.006504 0.034639
v -0.254882 -0.006681 0.034695
v -0.254953 -0.007255 0.03488
v -0.254953 -0.007255 0.03488
v -0.254953 -0.007255 0.03488
v -0.257566 -0.005539 0.041668
v -0.255099 -0.007936 0.035258
v -0.255099 -0.007936 0.035258
v -0.255099 -0.007936 0.035258
v -0.255764 -0.002029 0.036987
v -0.255504 -0.002357 0.036311
v -0.257294 -0.003364 0.040961
v -0.257294 -0.003364 0.040961
v -0.257234 -0.003184 0.040805
v -0.256767 -0.009096 0.039592
v -0.255787 -0.009291 0.037046
v -0.236007 -0.00565 0.041794
v -0.236036 -0.006439 0.04187
v -0.236124 -0.007195 0.042098
v -0.236266 -0.007882 0.042466
v -0.236266 -0.007882 0.042466
v -0.236341 -0.008115 0.04266
v -0.236685 -0.008943 0.043555
v -0.237378 -0.009445 0.045354
v -0.237509 -0.009448 0.045694
v -0.237787 -0.009291 0.046418
v -0.237949 -0.009097 0.046837
v -0.238621 -0.007255 0.048584
v -0.238692 -0.006681 0.048768
v -0.238692 -0.006681 0.048768
v -0.238631 -0.004105 0.048609
v -0.23849 -0.003418 0.048242
v -0.238415 -0.003185 0.048048
v -0.23781 -0.002029 0.046477
v -0.237532 -0.001859 0.045756
v -0.236806 -0.002203 0.04387
v -0.236706 -0.002324 0.043609
v -0.236474 -0.002781 0.043006
v -0.236063 -0.004619 0.04194
v -0.236042 -0.004796 0.041883
v -0.236008 -0.005539 0.041795
v -0.236008 -0.005539 0.041795
v -0.239008 0.005761 0.048931
v -0.239083 0.006681 0.048795
v -0.239456 0.008116 0.048121
v -0.240302 0.009291 0.046591
v -0.240677 0.009448 0.045913
v -0.241062 0.009441 0.045217
v -0.242699 0.005539 0.042257
v -0.242653 0.004796 0.042339
v -0.242624 0.004619 0.042392
v -0.240645 0.001859 0.04597
v -0.240271 0.002029 0.046646
v -0.232325 -0.004223 0.039351
v -0.232325 -0.004223 0.039351
v -0.231275 -0.004861 0.039755
v -0.230642 -0.007936 0.039999
v -0.224561 -0.004045 0.04234
v -0.225097 -0.008115 0.042133
v -0.224902 -0.007882 0.042208
v -0.224535 -0.007195 0.04235
v -0.223544 -0.007842 0.042731
v -0.22438 -0.00668 0.042409
v -0.232381 -0.004527 0.039329
v -0.231351 -0.00565 0.039726
v -0.231261 -0.006504 0.03976
v -0.224939 -0.003364 0.042194
v -0.231642 -0.008584 0.039614
v -0.230486 -0.008116 0.040059
v -0.231088 -0.009278 0.039827
v -0.230138 -0.008519 0.040193
v -0.230138 -0.008519 0.040193
v -0.230725 -0.009593 0.039967
v -0.225265 -0.00537 0.020461
v -0.225597 -0.00565 0.020804
v -0.225149 -0.004524 0.020506
v -0.225474 -0.004483 0.020851
v -0.232008 -0.00419 0.03424
v -0.232326 -0.004331 0.036787
v -0.232326 -0.004331 0.036787
v -0.231916 -0.003077 0.036944
v -0.230381 -0.010286 0.037535
v -0.230381 -0.010286 0.037535
v -0.231257 -0.009347 0.037198
v -0.231916 -0.008223 0.036944
v -0.229855 -0.000519 0.035069
v -0.232161 -0.00565 0.034181
v -0.231611 -0.00565 0.03168
v -0.231611 -0.00565 0.03168
v -0.230657 -0.007226 0.029317
v -0.229855 -0.010781 0.035069
v -0.228694 -0.011563 0.035516
v -0.225112 -0.003375 0.020991
v -0.227002 -0.006991 0.022698
v -0.226586 -0.003036 0.022858
v -0.228419 -0.007122 0.024772
v -0.226586 -0.008264 0.022858
v -0.230823 -0.00565 0.029253
v -0.217653 -0.001551 0.023862
v -0.215811 -0.00565 0.024571
v -0.215951 -0.006834 0.024046
v -0.215943 -0.006776 0.02405
v -0.215934 -0.006817 0.024524
v -0.215934 -0.006817 0.024524
v -0.219242 -0.000198 0.03099
v -0.220089 -0.000111 0.033386
v -0.219042 -0.001233 0.033789
v -0.219042 -0.001233 0.033789
v -0.218211 -0.001302 0.031387
v -0.218254 -0.002576 0.034092
v -0.216879 -0.008919 0.02416
v -0.217436 -0.008675 0.031685
v -0.215897 -0.00565 0.026972
v -0.215897 -0.00565 0.026972
v -0.216038 -0.004309 0.026918
v -0.215934 -0.004483 0.024524
v -0.215934 -0.004483 0.024524
v -0.215934 -0.004483 0.024524
v -0.216296 -0.003375 0.024385
v -0.216296 -0.003375 0.024385
v -0.216866 -0.008795 0.023694
v -0.216639 -0.008498 0.023782
v -0.217571 -0.009776 0.028948
v -0.216454 -0.008264 0.026758
v -0.218211 -0.009997 0.031387
v -0.216835 -0.008521 0.029232
v -0.216038 -0.006991 0.026918
v -0.216038 -0.006991 0.026918
v -0.215857 -0.005016 0.024083
v -0.215957 -0.004528 0.024044
v -0.21604 -0.004124 0.024012
v -0.21604 -0.004124 0.024012
v -0.2163 -0.003458 0.023912
v -0.217765 -0.007226 0.03428
v -0.216879 -0.002381 0.02416
v -0.218805 -0.007196 0.03661
v -0.2176 -0.00565 0.034344
v -0.217124 -0.001893 0.0265
v -0.218014 -0.000939 0.026157
v -0.217695 -0.007936 0.023375
v -0.222345 -0.008943 0.021585
v -0.22294 -0.008474 0.021356
v -0.22294 -0.008474 0.021356
v -0.22324 -0.008115 0.021241
v -0.223434 -0.007882 0.021166
v -0.223957 -0.00668 0.020964
v -0.22403 -0.006439 0.020936
v -0.224106 -0.00565 0.020907
v -0.217658 -0.003418 0.023389
v -0.224017 -0.004796 0.020942
v -0.224105 -0.005539 0.020908
v -0.224105 -0.005539 0.020908
v -0.261611 0.006359 0.027648
v -0.260915 0.007425 0.027263
v -0.262907 0.007066 0.028365
v -0.261537 0.006569 0.027607
v -0.259807 0.009465 0.02665
v -0.259723 0.007828 0.026604
v -0.259544 0.009453 0.026505
v -0.262012 0.008514 0.02787
v -0.26181 0.008703 0.027758
v -0.240305 0.005602 0.042799
v -0.240305 0.005602 0.042799
v -0.241092 0.005388 0.041376
v -0.241092 0.005388 0.041376
v -0.240297 0.005378 0.042814
v -0.24105 0.004801 0.041451
v -0.240248 0.004941 0.042902
v -0.240262 0.006269 0.042877
v -0.241042 0.006569 0.041466
v -0.241096 0.005688 0.041368
v -0.241002 0.006855 0.041539
v -0.238928 0.007726 0.045288
v -0.238928 0.007726 0.045288
v -0.237423 0.006209 0.04801
v -0.238222 0.006142 0.046565
v -0.237449 0.006499 0.047962
v -0.239899 0.007369 0.043533
v -0.240442 0.008563 0.042551
v -0.239982 0.007221 0.043384
v -0.23951 0.007763 0.044236
v -0.239816 0.009281 0.043682
v -0.238637 0.007425 0.045815
v -0.238637 0.007425 0.045815
v -0.23826 0.008871 0.046497
v -0.238728 0.007545 0.04565
v -0.238728 0.007545 0.04565
v -0.238383 0.009019 0.046274
v -0.238826 0.007646 0.045473
v -0.238826 0.007646 0.045473
v -0.238513 0.009148 0.046038
v -0.238513 0.009148 0.046038
v -0.238649 0.009258 0.045793
v -0.237535 0.007066 0.047807
v -0.238293 0.006569 0.046437
v -0.237595 0.00734 0.0477
v -0.237595 0.00734 0.0477
v -0.238344 0.006767 0.046345
v -0.237663 0.007602 0.047575
v -0.238213 0.005248 0.046582
v -0.237429 0.00502 0.048
v -0.238198 0.005471 0.046608
v -0.238378 0.004422 0.046284
v -0.239467 0.003516 0.044315
v -0.239573 0.001893 0.044123
v -0.239359 0.003482 0.044509
v -0.239538 0.009419 0.044185
v -0.239679 0.009361 0.043931
v -0.238552 0.007285 0.045968
v -0.23803 0.008514 0.046912
v -0.238518 0.004079 0.04603
v -0.237951 0.002939 0.047056
v -0.238443 0.004244 0.046165
v -0.238443 0.004244 0.046165
v -0.237851 0.003159 0.047235
v -0.238415 0.002247 0.046216
v -0.238689 0.003802 0.04572
v -0.238289 0.002391 0.046444
v -0.239863 0.003875 0.043598
v -0.239863 0.003875 0.043598
v -0.24024 0.002429 0.042916
v -0.239772 0.003755 0.043763
v -0.241013 0.004516 0.041519
v -0.239948 0.004015 0.043445
v -0.24047 0.002786 0.042501
v -0.252481 0.007696 0.041454
v -0.253091 0.009178 0.041791
v -0.252663 0.007606 0.041555
v -0.227297 -0.005698 0.014066
v -0.227881 -0.005912 0.015584
v -0.227291 -0.005922 0.014051
v -0.227291 -0.005922 0.014051
v -0.22787 -0.006208 0.015555
v -0.227277 -0.006142 0.014014
v -0.225731 -0.005602 0.009998
v -0.225731 -0.005602 0.009998
v -0.227161 -0.004422 0.013714
v -0.227678 -0.003636 0.015057
v -0.227203 -0.004614 0.013822
v -0.22773 -0.003893 0.015193
v -0.227238 -0.004819 0.013913
v -0.227776 -0.004164 0.015311
v -0.226934 -0.002019 0.013125
v -0.226785 -0.003604 0.012736
v -0.227035 -0.002122 0.013387
v -0.226275 -0.003573 0.011412
v -0.225763 -0.006269 0.010081
v -0.225733 -0.005829 0.010004
v -0.225148 -0.005987 0.008485
v -0.225148 -0.005987 0.008485
v -0.225143 -0.005688 0.008472
v -0.225866 -0.006878 0.010351
v -0.225349 -0.007664 0.009008
v -0.225349 -0.007664 0.009008
v -0.225825 -0.006686 0.010242
v -0.225825 -0.006686 0.010242
v -0.225297 -0.007407 0.008872
v -0.22579 -0.006481 0.010151
v -0.225251 -0.007136 0.008753
v -0.22632 -0.007763 0.01153
v -0.226093 -0.009281 0.01094
v -0.226093 -0.009281 0.01094
v -0.226243 -0.007695 0.011329
v -0.226243 -0.007695 0.011329
v -0.225992 -0.009178 0.010678
v -0.225801 -0.008909 0.01018
v -0.226032 -0.007369 0.01078
v -0.226752 -0.007726 0.012652
v -0.226857 -0.009344 0.012924
v -0.226754 -0.009407 0.012655
v -0.226595 -0.007818 0.012244
v -0.225779 -0.002429 0.010122
v -0.226126 -0.003755 0.011026
v -0.22587 -0.002281 0.010361
v -0.226199 -0.003654 0.011215
v -0.225967 -0.002152 0.010612
v -0.225336 -0.003698 0.008973
v -0.225886 -0.004347 0.010401
v -0.226969 -0.007425 0.013214
v -0.22696 -0.009257 0.013191
v -0.227142 -0.006953 0.013664
v -0.226514 -0.001835 0.012032
v -0.226548 -0.003472 0.012122
v -0.226622 -0.001847 0.012313
v -0.225394 -0.00345 0.009123
v -0.225712 -0.008745 0.00995
v -0.226648 -0.009447 0.012382
v -0.227634 -0.00785 0.014942
v -0.227569 -0.008085 0.014774
v -0.22709 -0.007127 0.013529
v -0.227497 -0.008307 0.014587
v -0.227032 -0.007285 0.013378
v -0.227032 -0.007285 0.013378
v -0.227419 -0.008514 0.014384
v -0.21818 -0.003636 0.025152
v -0.219414 -0.004614 0.024677
v -0.218044 -0.003893 0.025204
v -0.220786 -0.007784 0.024149
v -0.220582 -0.009407 0.024228
v -0.220993 -0.007818 0.024069
v -0.241265 -0.004422 0.004423
v -0.240696 -0.003893 0.002944
v -0.241188 -0.004819 0.004224
v -0.24065 -0.004164 0.002825
v -0.241719 -0.003537 0.005602
v -0.241492 -0.002019 0.005012
v -0.241641 -0.003604 0.005401
v -0.241293 -0.002247 0.004495
v -0.241496 -0.003803 0.005024
v -0.241199 -0.002391 0.004252
v -0.24143 -0.003931 0.004853
v -0.242151 -0.003573 0.006724
v -0.241994 -0.003482 0.006316
v -0.242695 -0.005602 0.008138
v -0.243249 -0.004801 0.009576
v -0.242653 -0.004941 0.008029
v -0.242459 -0.002152 0.007525
v -0.242358 -0.002042 0.007263
v -0.243221 -0.004516 0.009504
v -0.242663 -0.006269 0.008056
v -0.243243 -0.006569 0.00956
v -0.242693 -0.005829 0.008132
v -0.243278 -0.005987 0.009651
v -0.24256 -0.006878 0.007786
v -0.243077 -0.007664 0.009129
v -0.243213 -0.006855 0.009483
v -0.242106 -0.007763 0.006607
v -0.242333 -0.009281 0.007197
v -0.242434 -0.009178 0.007459
v -0.242258 -0.007606 0.007003
v -0.242532 -0.009053 0.007714
v -0.241673 -0.007726 0.005485
v -0.241111 -0.002555 0.004022
v -0.241027 -0.002737 0.003805
v -0.240874 -0.003159 0.003408
v -0.240807 -0.003391 0.003234
v -0.242047 -0.001853 0.006454
v -0.24194 -0.001836 0.006176
v -0.241804 -0.001847 0.005824
v -0.241797 -0.003493 0.005806
v -0.241698 -0.001881 0.005548
v -0.241365 -0.009148 0.004684
v -0.241466 -0.009257 0.004946
v -0.240683 -0.00734 0.002912
v -0.24124 -0.006767 0.004357
v -0.240734 -0.007602 0.003045
v -0.240734 -0.007602 0.003045
v -0.241284 -0.006953 0.004473
v -0.242876 -0.008361 0.008609
v -0.242511 -0.007056 0.00766
v -0.24295 -0.008141 0.008801
v -0.243017 -0.007909 0.008974
v -0.24223 -0.009361 0.006931
v -0.240792 -0.00785 0.003195
v -0.240929 -0.008307 0.003549
v -0.241394 -0.007285 0.004759
v -0.241007 -0.008514 0.003752
v -0.228708 0.007763 0.00945
v -0.226079 0.004234 0.007996
v -0.227449 0.004731 0.008754
v -0.226186 0.00396 0.008056
v -0.2289 0.007807 0.009556
v -0.228657 0.009419 0.009422
v -0.223756 0.005602 0.038628
v -0.223813 0.004941 0.038525
v -0.226638 0.006209 0.033418
v -0.225839 0.006142 0.034862
v -0.226611 0.006499 0.033466
v -0.225809 0.006359 0.034917
v -0.223774 0.006051 0.038597
v -0.22299 0.00628 0.040014
v -0.223759 0.005829 0.038623
v -0.223759 0.005829 0.038623
v -0.222972 0.005987 0.040047
v -0.225823 0.005031 0.034892
v -0.225786 0.004819 0.034958
v -0.226512 0.004164 0.033646
v -0.225678 0.009019 0.035154
v -0.225235 0.007646 0.035955
v -0.225547 0.009148 0.035389
v -0.226574 0.006784 0.033533
v -0.226526 0.007066 0.033621
v -0.225768 0.006569 0.034991
v -0.224198 0.003875 0.03783
v -0.223821 0.002429 0.038512
v -0.224289 0.003755 0.037664
v -0.223944 0.002281 0.038288
v -0.223944 0.002281 0.038288
v -0.224387 0.003654 0.037488
v -0.224075 0.002152 0.038053
v -0.223096 0.004234 0.039821
v -0.223096 0.004234 0.039821
v -0.223854 0.004731 0.038451
v -0.223854 0.004731 0.038451
v -0.223854 0.004731 0.038451
v -0.223156 0.00396 0.039714
v -0.223156 0.00396 0.039714
v -0.223905 0.004533 0.03836
v -0.224811 0.009465 0.036721
v -0.224764 0.007828 0.036805
v -0.224666 0.009453 0.036984
v -0.224035 0.004173 0.038125
v -0.223486 0.002993 0.039117
v -0.224113 0.004015 0.037983
v -0.224113 0.004015 0.037983
v -0.223591 0.002786 0.038927
v -0.218093 0.007066 0.022435
v -0.219463 0.006569 0.023193
v -0.2182 0.00734 0.022494
v -0.222597 0.004173 0.024926
v -0.223589 0.002993 0.025475
v -0.222455 0.004015 0.024848
v -0.230684 -0.005912 0.038019
v -0.229151 -0.005922 0.038609
v -0.230655 -0.006208 0.03803
v -0.229083 -0.005031 0.038635
v -0.230588 -0.004731 0.038056
v -0.23051 -0.004445 0.038086
v -0.225181 -0.006269 0.040137
v -0.223853 -0.007136 0.040649
v -0.223754 -0.006855 0.040687
v -0.224577 -0.002993 0.04037
v -0.225787 -0.004015 0.039904
v -0.22478 -0.002786 0.040292
v -0.227042 -0.007828 0.039421
v -0.226852 -0.009453 0.039494
v -0.226834 -0.007807 0.039501
v -0.254389 0.006499 0.017334
v -0.255191 0.006359 0.015883
v -0.257201 0.006269 0.012249
v -0.257201 0.006269 0.012249
v -0.257981 0.006569 0.010838
v -0.25789 0.007136 0.011004
v -0.257941 0.006855 0.010911
v -0.257941 0.006855 0.010911
v -0.256008 0.009447 0.014406
v -0.256079 0.007818 0.014277
v -0.25526 0.004614 0.015758
v -0.25455 0.003893 0.017043
v -0.255214 0.004819 0.015842
v -0.25651 0.003573 0.013498
v -0.256652 0.001956 0.013242
v -0.256652 0.001956 0.013242
v -0.256406 0.003516 0.013687
v -0.256406 0.003516 0.013687
v -0.256512 0.001893 0.013495
v -0.256838 0.007369 0.012905
v -0.256449 0.007763 0.013608
v -0.256756 0.009281 0.013054
v -0.256749 0.007497 0.013066
v -0.25715 0.008909 0.012342
v -0.255576 0.007425 0.015187
v -0.255199 0.008871 0.015869
v -0.255667 0.007545 0.015022
v -0.255322 0.009019 0.015646
v -0.255322 0.009019 0.015646
v -0.255765 0.007646 0.014845
v -0.255765 0.007646 0.014845
v -0.255453 0.009148 0.01541
v -0.254426 0.006784 0.017267
v -0.254997 0.002737 0.016235
v -0.255457 0.004079 0.015402
v -0.255457 0.004079 0.015402
v -0.25489 0.002939 0.016428
v -0.25489 0.002939 0.016428
v -0.255382 0.004244 0.015537
v -0.255928 0.003537 0.01455
v -0.255622 0.002019 0.015103
v -0.255824 0.003604 0.014739
v -0.257844 0.00396 0.011086
v -0.257095 0.004533 0.01244
v -0.257776 0.003698 0.01121
v -0.256152 0.009464 0.014146
v -0.256618 0.009361 0.013304
v -0.255081 0.008703 0.016082
v -0.25315 -0.006499 0.035296
v -0.253745 -0.006359 0.036844
v -0.255269 -0.005602 0.040802
v -0.255249 -0.005158 0.04075
v -0.255823 -0.004801 0.042239
v -0.255227 -0.004941 0.040692
v -0.253839 -0.004422 0.037086
v -0.254215 -0.003604 0.038064
v -0.253965 -0.002122 0.037413
v -0.25414 -0.003694 0.03787
v -0.255237 -0.006269 0.040719
v -0.255838 -0.00628 0.04228
v -0.255267 -0.005829 0.040796
v -0.255267 -0.005829 0.040796
v -0.255852 -0.005987 0.042314
v -0.255852 -0.005987 0.042314
v -0.25521 -0.006481 0.040649
v -0.255749 -0.007136 0.042047
v -0.254907 -0.009281 0.03986
v -0.254757 -0.007695 0.039471
v -0.255008 -0.009178 0.040122
v -0.254248 -0.007726 0.038148
v -0.254143 -0.009344 0.037876
v -0.254247 -0.009407 0.038145
v -0.254405 -0.007818 0.038556
v -0.254405 -0.007818 0.038556
v -0.255715 -0.00396 0.04196
v -0.255159 -0.004533 0.040515
v -0.255159 -0.004533 0.040515
v -0.255664 -0.003698 0.041827
v -0.255664 -0.003698 0.041827
v -0.255114 -0.004347 0.040399
v -0.255114 -0.004347 0.040399
v -0.254031 -0.007425 0.037586
v -0.254031 -0.007425 0.037586
v -0.253751 -0.008871 0.036858
v -0.254099 -0.007545 0.037762
v -0.25404 -0.009257 0.037609
v -0.253177 -0.006784 0.035368
v -0.253448 -0.003159 0.036071
v -0.253381 -0.003391 0.035898
v -0.255606 -0.00345 0.041677
v -0.255542 -0.003215 0.041509
v -0.254352 -0.009447 0.038418
v -0.254352 -0.009447 0.038418
v -0.254459 -0.009464 0.038696
v -0.253431 -0.008085 0.036026
v -0.25391 -0.007127 0.037271
v -0.253503 -0.008307 0.036213
v -0.253503 -0.008307 0.036213
v -0.253968 -0.007285 0.037422
v -0.253968 -0.007285 0.037422
v -0.253581 -0.008514 0.036416
v -0.253581 -0.008514 0.036416
v -0.239871 -0.005698 0.04673
v -0.239851 -0.006142 0.046678
v -0.240424 -0.006499 0.048167
v -0.240424 -0.006499 0.048167
v -0.239828 -0.006359 0.04662
v -0.239828 -0.006359 0.04662
v -0.239839 -0.005031 0.046647
v -0.240418 -0.004731 0.048152
v -0.239868 -0.005471 0.046723
v -0.240453 -0.005313 0.048242
v -0.240252 -0.003636 0.04772
v -0.239777 -0.004614 0.046486
v -0.240304 -0.003893 0.047856
v -0.240388 -0.004445 0.048074
v -0.239281 -0.003537 0.045198
v -0.23957 -0.003931 0.045947
v -0.238927 -0.003516 0.044277
v -0.238848 -0.001893 0.044073
v -0.239006 -0.003482 0.044484
v -0.238633 -0.003875 0.043513
v -0.238353 -0.002429 0.042786
v -0.238701 -0.003755 0.043689
v -0.238337 -0.006269 0.042744
v -0.238399 -0.006686 0.042905
v -0.237871 -0.007407 0.041535
v -0.238364 -0.006481 0.042815
v -0.237825 -0.007136 0.041417
v -0.237787 -0.006855 0.041317
v -0.238667 -0.009281 0.043603
v -0.238817 -0.007695 0.043992
v -0.238566 -0.009178 0.043341
v -0.239169 -0.007818 0.044907
v -0.239889 -0.002555 0.046778
v -0.239973 -0.002737 0.046995
v -0.239088 -0.001835 0.044695
v -0.239122 -0.003472 0.044785
v -0.239196 -0.001847 0.044976
v -0.239202 -0.003493 0.044994
v -0.239302 -0.001881 0.045252
v -0.240396 -0.006784 0.048095
v -0.239222 -0.009447 0.045045
v -0.239116 -0.009464 0.044767
v -0.240143 -0.008085 0.047437
v -0.239664 -0.007127 0.046192
v -0.240071 -0.008307 0.047251
v -0.261796 -0.005248 0.026042
v -0.263308 -0.00502 0.02546
v -0.261823 -0.005471 0.026032
v -0.257845 -0.006269 0.027563
v -0.256517 -0.007136 0.028074
v -0.256417 -0.006855 0.028113
v -0.258186 -0.009053 0.027432
v -0.258715 -0.007497 0.027228
v -0.257943 -0.008909 0.027525
v -0.257943 -0.008909 0.027525
v -0.258544 -0.007369 0.027294
v -0.261427 -0.006953 0.026184
v -0.257713 -0.008745 0.027614
v -0.262705 -0.00785 0.025692
v -0.262537 -0.008085 0.025757
v -0.251944 -0.006359 0.012154
v -0.255819 -0.006269 0.010663
v -0.255749 -0.006481 0.01069
v -0.257147 -0.007136 0.010151
v -0.250468 -0.006784 0.012722
v -0.250562 -0.007065 0.012686
v -0.253868 -0.001835 0.011414
v -0.253778 -0.003472 0.011448
v -0.253587 -0.001847 0.011522
v -0.240695 0.005602 0.008
v -0.239923 0.005091 0.009396
v -0.240722 0.005158 0.007952
v -0.23995 0.004801 0.009349
v -0.239911 0.005987 0.009419
v -0.239904 0.005688 0.009432
v -0.240878 0.006878 0.00767
v -0.243592 0.005912 0.002762
v -0.242797 0.005922 0.0042
v -0.243577 0.006209 0.00279
v -0.240558 0.008563 0.008249
v -0.241018 0.007221 0.007416
v -0.241018 0.007221 0.007416
v -0.240451 0.008361 0.008442
v -0.240451 0.008361 0.008442
v -0.240944 0.007056 0.007552
v -0.240352 0.008141 0.008622
v -0.240262 0.007909 0.008784
v -0.241489 0.007763 0.006564
v -0.242363 0.007425 0.004985
v -0.242363 0.007425 0.004985
v -0.24274 0.008871 0.004303
v -0.24274 0.008871 0.004303
v -0.242272 0.007545 0.00515
v -0.242596 0.006953 0.004564
v -0.242679 0.004614 0.004415
v -0.243389 0.003893 0.00313
v -0.243389 0.003893 0.00313
v -0.242725 0.004819 0.00433
v -0.242725 0.004819 0.00433
v -0.243451 0.004164 0.003019
v -0.241462 0.009419 0.006615
v -0.241321 0.009361 0.006868
v -0.243259 0.00785 0.003365
v -0.243172 0.008085 0.003523
v -0.242858 0.008703 0.00409
v -0.242943 0.002737 0.003937
v -0.242482 0.004079 0.00477
v -0.243049 0.002939 0.003744
v -0.240793 0.004731 0.007823
v -0.240095 0.00396 0.009086
v -0.240095 0.00396 0.009086
v -0.240844 0.004533 0.007732
v -0.240844 0.004533 0.007732
v -0.240164 0.003698 0.008962
v -0.241896 0.001847 0.00583
v -0.241905 0.003493 0.005814
v -0.242039 0.001881 0.005572
f 1 2 4
f 8 9 10
f 14 15 16
f 18 19 11
f 13 20 21
f 24 12 3
f 25 22 23
f 17 26 27
f 33 29 34
f 35 28 30
f 36 31 32
f 50 51 52
f 46 53 48
f 47 54 41
f 49 42 55
f 57 56 58
f 43 44 45
f 61 59 60
f 39 40 38
f 63 65 64
f 62 66 37
f 75 76 79
f 74 71 70
f 101 73 72
f 100 94 93
f 102 78 77
f 103 80 81
f 115 116 117
f 120 95 118
f 130 135 136
f 137 131 108
f 132 107 105
f 159 160 161
f 143 152 144
f 151 148 147
f 172 171 173
f 173 156 172
f 183 184 185
f 187 186 188
f 194 193 195
f 189 176 196
f 190 198 192
f 191 197 199
f 204 200 201
f 175 206 205
f 203 207 202
f 213 121 212
f 217 216 218
f 211 214 215
f 209 210 219
f 224 223 225
f 221 226 222
f 229 228 230
f 220 208 231
f 236 181 182
f 250 252 253
f 255 256 257
f 260 258 259
f 249 251 254
f 263 261 262
f 266 264 267
f 269 265 268
f 284 282 285
f 288 286 289
f 291 287 292
f 283 275 281
f 297 298 299
f 301 302 303
f 294 310 296
f 311 293 295
f 314 312 274
f 313 273 272
f 307 271 309
f 316 300 304
f 315 306 318
f 317 305 308
f 270 319 320
f 326 328 329
f 325 331 323
f 324 332 322
f 321 279 280
f 327 290 330
f 345 346 347
f 335 276 341
f 354 348 349
f 368 369 370
f 373 377 378
f 374 361 382
f 383 371 384
f 387 337 336
f 389 367 390
f 388 366 365
f 386 344 338
f 393 363 394
f 391 342 343
f 392 372 364
f 395 339 396
f 385 278 277
f 397 340 398
f 406 403 410
f 413 419 420
f 418 423 424
f 433 431 432
f 434 430 435
f 436 429 428
f 437 416 415
f 439 412 440
f 441 417 442
f 443 402 438
f 446 6 447
f 444 5 7
f 445 404 405
f 455 411 456
f 457 427 458
f 459 426 425
f 448 400 449
f 450 399 401
f 464 463 409
f 460 422 421
f 453 407 454
f 451 408 452
f 461 414 462
f 470 362 380
f 469 360 359
f 465 353 334
f 474 356 355
f 381 379 471
f 472 376 375
f 473 357 358
f 466 352 468
f 467 351 350
f 486 481 487
f 488 482 475
f 489 476 490
f 491 477 478
f 492 479 480
f 493 483 494
f 485 495 484
f 496 333 497
f 237 498 501
f 235 500 502
f 245 503 243
f 244 504 506
f 242 505 248
f 246 507 508
f 247 509 233
f 232 512 239
f 238 513 234
f 240 514 241
f 227 511 510
f 499 178 177
f 516 126 518
f 125 124 519
f 526 114 527
f 528 128 531
f 158 157 525
f 532 150 149
f 522 146 145
f 530 127 113
f 529 111 535
f 534 112 110
f 537 123 122
f 521 162 538
f 541 155 524
f 523 154 153
f 536 180 179
f 542 129 109
f 546 533 548
f 559 539 540
f 565 515 517
f 566 520 568
f 547 140 545
f 168 554 556
f 555 142 169
f 558 170 557
f 544 139 138
f 543 106 567
f 549 141 104
f 561 174 560
f 551 163 550
f 553 167 166
f 552 165 164
f 134 133 564
f 563 119 562
f 575 91 576
f 577 92 98
f 569 68 67
f 570 69 86
f 571 85 84
f 579 90 87
f 572 83 573
f 574 82 99
f 578 88 89
f 587 588 589
f 612 96 97
f 605 590 581
f 606 580 607
f 613 604 614
f 610 594 611
f 599 596 609
f 618 608 617
f 621 619 603
f 601 602 600
f 622 620 623
f 615 624 616
f 627 628 630
f 631 632 634
f 635 633 636
f 641 639 643
f 637 647 648
f 651 649 652
f 654 650 629
f 638 651 652
f 640 653 626
f 655 656 642
f 644 657 645
f 646 658 659
f 662 660 663
f 664 661 625
f 625 665 664
f 586 666 585
f 598 667 668
f 597 669 595
f 583 670 671
f 592 672 673
f 675 584 593
f 676 582 677
f 678 591 674
f 679 681 682
f 684 683 685
f 680 686 687
f 689 691 692
f 688 697 690
f 695 698 696
f 702 701 703
f 704 705 706
f 710 711 713
f 712 714 715
f 716 718 700
f 699 717 719
f 721 720 723
f 724 722 725
f 726 727 728
f 730 731 732
f 707 733 734
f 707 734 708
f 735 736 709
f 737 738 739
f 740 741 729
f 743 742 744
f 745 747 748
f 693 749 694
f 750 751 746
f 752 753 754
f 755 756 757
f 758 759 760
f 763 764 765
f 767 766 768
f 770 769 771
f 774 776 761
f 762 775 777
f 778 780 781
f 782 779 783
f 784 785 773
f 786 787 790
f 789 788 791
f 799 798 800
f 801 802 772
f 794 806 795
f 809 808 810
f 803 811 804
f 792 812 793
f 796 813 797
f 807 814 815
f 816 817 818
f 819 820 805
f 822 821 823
f 824 825 826
f 829 828 830
f 831 832 833
f 835 834 836
f 838 843 844
f 841 845 842
f 848 849 840
f 846 852 847
f 856 855 857
f 837 859 860
f 827 861 862
f 839 863 864
f 866 865 867
f 858 868 869
f 871 870 873
f 876 875 877
f 850 878 851
f 853 879 854
f 872 880 874
f 882 881 883
f 886 885 887
f 888 889 884
f 893 892 894
f 896 897 899
f 898 900 890
f 902 903 901
f 905 904 906
f 895 907 908
f 895 908 909
f 912 911 914
f 915 913 916
f 891 918 919
f 920 917 922
f 921 923 924
f 926 925 927
f 928 929 931
f 930 932 910
f 934 933 935
f 936 937 938
f 940 939 941
f 942 944 943
f 945 946 947
f 949 948 950
f 951 952 953
f 956 959 960
f 957 961 958
f 964 965 966
f 967 969 970
f 971 968 972
f 976 977 973
f 980 982 983
f 984 981 985
f 954 986 955
f 988 987 990
f 989 991 992
f 993 994 995
f 997 996 998
f 963 962 999
f 974 1000 975
f 978 1001 979
f 1005 1006 1007
f 1009 1010 1011
f 1015 1013 1017
f 1014 1016 1004
f 1018 1019 1012
f 1021 1020 1022
f 1029 1028 1031
f 1030 1032 1033
f 1035 1037 1038
f 1023 1039 1024
f 1002 1040 1003
f 1008 1041 1042
f 1034 1043 1044
f 1025 1045 1027
f 1026 1046 1047
f 1049 1048 1051
f 1052 1050 1054
f 1053 1055 1036
f 1057 1059 1060
f 1064 1065 1056
f 1067 1066 1068
f 1062 1069 1063
f 1072 1073 1074
f 1075 1076 1077
f 1079 1080 1081
f 1078 1082 1083
f 1085 1084 1086
f 1071 1088 1089
f 1091 1090 1092
f 1093 1094 1070
f 1058 1095 1061
f 1087 1096 1097
f 1099 1098 1100
f 1101 1102 1103
f 1104 1105 1106
f 1108 1107 1110
f 1109 1113 1111
f 1112 1114 1115
f 1118 1119 1117
f 1116 1120 1121
f 1123 1122 1124
f 1127 1126 1128
f 1125 1129 1130
f 1133 1132 1134
f 1137 1135 1139
f 1136 1138 1140
f 1131 1141 1142
f 1145 1146 1148
f 1150 1151 1154
f 1153 1152 1155
f 1143 1156 1157
f 1149 1158 1159
f 1144 1160 1147
f 1162 1161 1163
f 1164 1165 1167
f 1168 1166 1169
f 1171 1170 1172
