v -0.0312075 -0.0124816 -0.0105
v -0.00661953 -0.0329524 -0.0105
v 0.0239664 -0.0235651 -0.0105
v 0.032173 -0.013781 0.008
v 0.030925 -0.016391 0.008
v 0.034002 -0.008298 0.008
v 0.033201 -0.011078 0.008
v 0.034785 -0.0025795 -0.0105
v 0.034999 0.000303 0.008
v 0.033853 0.008885 0.008
v 0.034472 0.006059 0.008
v 0.0262857 0.0209009 -0.0105
v 0.00110538 0.0335928 -0.0105
v -0.0275182 0.019299 -0.0105
v 0 0 0.009
v 0.0317822 0.010847 0.009
v 0.0331319 -0.0059379 0.009
v 0.0263124 -0.020991 0.009
v 0.0131505 -0.0309846 0.009
v -0.0031815 -0.0335089 0.009
v -0.0187465 -0.0279558 0.009
v -0.0297928 -0.0156644 0.009
v -0.0336574 0.0004035 0.009
v -0.0294083 0.0163739 0.009
v -0.0180709 0.0283974 0.009
v -0.00237713 0.0335756 0.009
v 0.0138896 0.0306603 0.009
v 0.0242708 0.023696 0.009
v 0 0 -0.0105
v 0.029353 -0.018817 0.0085
v 0.030806 -0.016328 0.0085
v 0.030806 -0.016328 0.0085
v 0.032049 -0.013729 0.0085
v 0.032049 -0.013729 0.0085
v 0.033074 -0.011035 0.0085
v 0.033074 -0.011035 0.0085
v 0.033872 -0.008266 0.0085
v 0.034771 -0.002578 0.0085
v 0.034865 0.000302 0.0085
v 0.034721 0.00318 0.0085
v 0.03434 0.006036 0.0085
v 0.03434 0.006036 0.0085
v 0.033724 0.008851 0.0085
f 15 17 16
f 15 18 17
f 15 19 18
f 15 20 19
f 15 21 20
f 15 22 21
f 15 23 22
f 15 24 23
f 15 25 24
f 15 26 25
f 15 27 26
f 15 28 27
f 15 16 28
f 29 13 12
f 29 14 13
f 29 1 14
f 29 2 1
f 29 3 2
f 12 8 29
f 29 8 3
f 30 5 31
f 32 4 33
f 34 7 36
f 35 6 37
f 38 9 39
f 40 11 41
f 42 10 43
