v 0.008677 -0.030675 0.003
v 0.011048 -0.030138 0.0001
v 0.013966 -0.029201 0.003
v 0.013966 -0.029201 0.003
v 0.01194 -0.029885 1.4e-05
v 0.01194 -0.029885 1.4e-05
v -0.027387 0.007167 0
v -0.027387 0.007167 0
v -0.027697 0.005698 0.003
v -0.027045 0.008487 8.3e-05
v -0.027045 0.008487 8.3e-05
v -0.026439 0.010213 0.003
v -0.026439 0.010213 0.003
v -0.026887 0.009028 0
v -0.026887 0.009028 0
v -0.026223 0.010987 0.003
v 0.0387193 0.00703911 0.003
v 0.012007 -0.029865 0
v 0.010145 -0.030366 0
v 0.000964944 0.0138673 0
v -0.014604 -0.0231789 0.003
v -0.020636 0.020391 0
v -0.020594 0.020432 0.003
v -0.020463 0.020559 0.003
v -0.001399 0.032251 0
v -0.000292 0.03386 0
v -0.000292 0.03386 0
v -0.000292 0.03386 0
v -0.027359 0.006569 0
v 0.008136 -0.029897 0
v 0.010041 -0.030367 0
v 0.013416 -0.028596 0
v 0.013416 -0.028596 0
v 0.005971 -0.026761 0
v 0.00232889 0.000155769 0
v 0.0210802 -0.0126332 0
v 0.030402 -0.002873 0
v 0.029706 -0.001038 0
v 0.029706 -0.001038 0
v 0.029942 0.00091 0
v 0.036838 -0.003271 0
v 0.031899 0.027648 0
v 0.031899 0.027648 0
v 0.032268 0.02691 0
v 0.030626 0.028921 0
v 0.027453 0.029437 0
v 0.024364 0.024962 0
v 0.02506 0.023127 0
v 0.02506 0.023127 0
v 0.016906 0.042432 0
v 0.003415 0.034778 0
v 0.001282 0.034732 0
v 0.006268 0.032251 0
v -0.017145 0.010345 0
v -0.017263 0.009763 0
v 0.017145 0.010345 0
v 0.017263 0.009763 0
v -0.00665306 -0.00335487 0
v 0.01395 -0.017763 0
v 0.01525 -0.017414 0
v 0.00906 -0.022286 0
v 0.014346 -0.017657 0.003
v 0.017172 0.010213 0.003
v -0.0226014 -0.00890006 0.003
v -0.017172 0.010213 0.003
v 0.00347111 -0.00567158 0.003
v -0.005508 0.030969 0.003
v -0.005508 0.030969 0.003
v 0.000497 0.034297 0.0001
v -0.000283 0.033865 2e-06
v -0.000283 0.033865 2e-06
v -0.000283 0.033865 2e-06
v 0.016769 0.04252 0.003
v 0.017488 0.042059 0.003
v 0.031092 0.028455 9.3e-05
v 0.00137962 0.0220171 0.003
v 0.030163 0.024263 0.002
v 0.030221 0.024418 0.002
v 0.030519 0.025203 0.002
v 0.030519 0.025203 0.002
v 0.030489 0.02545 0.002
v 0.030489 0.02545 0.002
v 0.030398 0.0262 0.002
v 0.030398 0.0262 0.002
v 0.030398 0.0262 0.002
v 0.030398 0.0262 0.002
v 0.030208 0.026475 0.002
v 0.030208 0.026475 0.002
v 0.029827 0.027028 0.002
v 0.029827 0.027028 0.002
v 0.029457 0.027222 0.002
v 0.029457 0.027222 0.002
v 0.028937 0.027495 0.002
v 0.028937 0.027495 0.002
v 0.028937 0.027495 0.002
v 0.028434 0.027556 0.002
v 0.02635 0.025203 0.002
v 0.02635 0.025203 0.002
v 0.026647 0.024418 0.002
v 0.026647 0.024418 0.002
v 0.026706 0.024263 0.002
v 0.026706 0.024263 0.002
v 0.026706 0.024263 0.002
v 0.027397 0.023651 0.002
v 0.027458 0.023596 0.002
v 0.034814 -0.002349 0.002
v 0.035504 -0.001737 0.002
v 0.035504 -0.001737 0.002
v 0.035504 -0.001737 0.002
v 0.035563 -0.001582 0.002
v 0.035861 -0.000797 0.002
v 0.035861 -0.000797 0.002
v 0.035831 -0.00055 0.002
v 0.035831 -0.00055 0.002
v 0.035739 0.000201 0.002
v 0.035739 0.000201 0.002
v 0.035739 0.000201 0.002
v 0.03555 0.000475 0.002
v 0.035169 0.001028 0.002
v 0.031812 0.000201 0.002
v 0.031721 -0.00055 0.002
v 0.031721 -0.00055 0.002
v 0.031691 -0.000797 0.002
v 0.031691 -0.000797 0.002
v 0.031691 -0.000797 0.002
v 0.031989 -0.001582 0.002
v 0.031989 -0.001582 0.002
v 0.032048 -0.001737 0.002
v 0.010041 -0.030367 0
v 0.010041 -0.028367 0.002
v 0.010041 -0.028367 0.002
v 0.011017 -0.028126 0.002
v 0.011079 -0.028072 0.002
v 0.01177 -0.02746 0.002
v 0.01177 -0.02746 0.002
v 0.01177 -0.02746 0.002
v 0.01177 -0.02746 0.002
v 0.011828 -0.027305 0.002
v 0.011828 -0.027305 0.002
v 0.012126 -0.02652 0.002
v 0.010544 -0.024228 0.002
v 0.010041 -0.024167 0.002
v 0.009539 -0.024228 0.002
v 0.008649 -0.024695 0.002
v 0.008267 -0.025248 0.002
v 0.007987 -0.026272 0.002
v 0.007987 -0.026272 0.002
v 0.007957 -0.02652 0.002
v 0.007957 -0.02652 0.002
v 0.009065 -0.028126 0.002
v 0.009065 -0.028126 0.002
v 0.009004 -0.028072 0.002
v 0.008313 -0.02746 0.002
v -0.021325 0.007808 0.002
v -0.024681 0.008635 0.002
v -0.025063 0.008082 0.002
v -0.025252 0.007808 0.002
v -0.025252 0.007808 0.002
v -0.025252 0.007808 0.002
v -0.025343 0.007057 0.002
v -0.025343 0.007057 0.002
v -0.025373 0.00681 0.002
v -0.025017 0.00587 0.002
v 0.001412 0.032564 0.002
v 0.001412 0.032564 0.002
v 0.001042 0.032369 0.002
v 0.001042 0.032369 0.002
v 0.00066 0.031817 0.002
v 0.00066 0.031817 0.002
v 0.003472 0.028993 0.002
v 0.004162 0.029605 0.002
v 0.004398 0.031542 0.002
v 0.004208 0.031817 0.002
v 0.001932 0.032837 0.002
v 0.002434 0.032898 0.002
v 0.002937 0.032837 0.002
v 0.000647 0.02976 0.002
v 0.000706 0.029605 0.002
v 0.000706 0.029605 0.002
v 0.001397 0.028993 0.002
v 0.034826 -0.002363 0.003
v 0.00468335 -0.0175921 0.003
v -0.020594 -0.009785 0.003
v 0.0155487 0.00955924 0.003
v 0.000616 0.029748 0.003
v 0.001384 0.028979 0.003
v 0.003484 0.028979 0.003
v 0.031957 -0.001594 0.003
v 0.031957 -0.001594 0.003
v 0.031676 -0.000544 0.003
v 0.031676 -0.000544 0.003
v 0.031957 0.000506 0.003
v 0.035595 0.000506 0.003
v 0.035595 0.000506 0.003
v 0.035876 -0.000544 0.003
v 0.035876 -0.000544 0.003
v 0.035876 -0.000544 0.003
v 0.035876 -0.000544 0.003
v 0.035595 -0.001594 0.003
v 0.035595 -0.001594 0.003
v 0.035595 -0.001594 0.003
v 0.012141 -0.026267 0.003
v 0.01186 -0.027317 0.003
v 0.01186 -0.027317 0.003
v 0.01186 -0.027317 0.003
v 0.011091 -0.028086 0.003
v 0.010041 -0.028367 0.003
v 0.008991 -0.028086 0.003
v 0.008991 -0.028086 0.003
v 0.0188522 -0.0237077 0.003
v 0.007941 -0.026267 0.003
v 0.008223 -0.025217 0.003
v 0.010041 -0.024167 0.003
v 0.011091 -0.024448 0.003
v -0.021189 0.007063 0.003
v -0.02147 0.008113 0.003
v -0.025107 0.006013 0.003
v -0.025389 0.007063 0.003
v -0.025107 0.008113 0.003
v -0.025107 0.008113 0.003
v -0.024339 0.005244 0.003
v 0.027384 0.023637 0.003
v 0.027384 0.023637 0.003
v 0.026616 0.024406 0.003
v 0.026616 0.024406 0.003
v 0.026334 0.025456 0.003
v 0.028434 0.027556 0.003
v 0.029484 0.027274 0.003
v 0.029484 0.027274 0.003
v 0.029484 0.027274 0.003
v 0.030253 0.026506 0.003
v 0.030253 0.026506 0.003
v 0.030253 0.026506 0.003
v 0.030534 0.025456 0.003
v 0.030534 0.025456 0.003
v 0.030534 0.025456 0.003
v 0.030534 0.025456 0.003
v 0.030253 0.024406 0.003
v 0.030253 0.024406 0.003
v -0.020122 -0.003736 0.0018
v -0.020122 -0.003736 0.0018
v -0.023344 -0.006593 0.001675
v -0.024728 -0.00482 0.001675
v -0.024274 -0.005892 0.001675
v -0.024006 -0.006179 0.001675
v -0.024006 -0.006179 0.001675
v -0.024701 -0.004039 0.001675
v -0.024586 -0.003664 0.001675
v -0.023885 -0.002734 0.001675
v -0.024171 -0.003001 0.001675
v -0.020513 -0.003452 0.001675
v -0.02036 -0.003813 0.001675
v -0.020251 -0.004587 0.001675
v -0.020251 -0.004587 0.001675
v -0.020272 -0.004195 0.001675
v -0.020272 -0.004195 0.001675
v -0.02043 -0.005345 0.001612
v -0.020607 -0.005691 0.001612
v -0.020841 -0.006002 0.001612
v -0.021126 -0.006268 0.001612
v -0.021126 -0.006268 0.001612
v -0.021452 -0.00648 0.001612
v -0.023337 -0.006578 0.001612
v -0.023684 -0.006401 0.001612
v -0.023995 -0.006166 0.001612
v -0.023995 -0.006166 0.001612
v -0.02426 -0.005881 0.001612
v -0.02426 -0.005881 0.001612
v -0.02426 -0.005881 0.001612
v -0.02426 -0.005881 0.001612
v -0.024472 -0.005555 0.001612
v -0.024472 -0.005555 0.001612
v -0.024624 -0.005197 0.001612
v -0.024712 -0.004817 0.001612
v -0.024732 -0.004428 0.001612
v -0.024684 -0.004042 0.001612
v -0.02457 -0.00367 0.001612
v -0.024393 -0.003323 0.001612
v -0.024159 -0.003012 0.001612
v -0.023874 -0.002747 0.001612
v -0.023874 -0.002747 0.001612
v -0.021005 -0.002848 0.001612
v -0.02074 -0.003133 0.001612
v -0.02074 -0.003133 0.001612
v -0.020528 -0.00346 0.001612
v -0.020528 -0.00346 0.001612
v -0.020376 -0.003818 0.001612
v -0.020376 -0.003818 0.001612
v -0.020288 -0.004197 0.001612
v -0.020268 -0.004586 0.001612
v -0.020592 -0.0057 0.00155
v -0.021115 -0.006281 0.00155
v -0.021444 -0.006494 0.00155
v -0.024274 -0.005892 0.00155
v -0.024487 -0.005563 0.00155
v -0.02464 -0.005202 0.00155
v -0.024728 -0.00482 0.00155
v -0.024749 -0.004428 0.00155
v -0.024701 -0.004039 0.00155
v -0.024586 -0.003664 0.00155
v -0.024408 -0.003314 0.00155
v -0.024171 -0.003001 0.00155
v -0.024171 -0.003001 0.00155
v -0.023885 -0.002734 0.00155
v -0.023885 -0.002734 0.00155
v -0.023556 -0.00252 0.00155
v -0.020726 -0.003123 0.00155
v -0.020513 -0.003452 0.00155
v -0.02036 -0.003813 0.00155
v -0.02036 -0.003813 0.00155
v -0.020272 -0.004195 0.00155
v -0.020272 -0.004195 0.00155
v -0.020251 -0.004587 0.00155
v -0.024998 -0.004419 0.001425
v -0.025513 -0.003289 0.000325
v -0.025513 -0.003289 0.000325
v -0.02549 -0.003298 0.000201
v -0.02549 -0.003298 0.000201
v -0.025684 -0.003994 0.000201
v -0.025425 -0.003324 9.5e-05
v -0.025615 -0.004005 9.5e-05
v -0.024757 -0.006558 2.5e-05
v -0.025648 -0.00471 9.5e-05
v -0.025524 -0.005406 9.5e-05
v -0.025524 -0.005406 9.5e-05
v -0.025248 -0.006056 9.5e-05
v -0.024835 -0.006629 9.5e-05
v -0.023002 -0.007622 9.5e-05
v -0.025719 -0.004715 0.000201
v -0.025719 -0.004715 0.000201
v -0.025719 -0.004715 0.000201
v -0.025592 -0.005426 0.000201
v -0.025592 -0.005426 0.000201
v -0.02531 -0.006091 0.000201
v -0.024887 -0.006676 0.000201
v -0.024344 -0.007153 0.000201
v -0.023709 -0.007497 0.000201
v -0.023709 -0.007497 0.000201
v -0.023709 -0.007497 0.000201
v -0.023014 -0.007691 0.000201
v -0.023014 -0.007691 0.000201
v -0.020331 -0.006894 0.000201
v -0.019854 -0.006352 0.000201
v -0.019854 -0.006352 0.000201
v -0.025708 -0.00399 0.000325
v -0.025743 -0.004717 0.000325
v -0.025331 -0.006103 0.000325
v -0.025331 -0.006103 0.000325
v -0.025331 -0.006103 0.000325
v -0.024905 -0.006693 0.000325
v -0.024905 -0.006693 0.000325
v -0.024359 -0.007173 0.000325
v -0.024359 -0.007173 0.000325
v -0.024359 -0.007173 0.000325
v -0.023719 -0.00752 0.000325
v -0.023719 -0.00752 0.000325
v -0.023719 -0.00752 0.000325
v -0.023018 -0.007716 0.000325
v -0.023018 -0.007716 0.000325
v -0.020314 -0.006912 0.000325
v -0.020314 -0.006912 0.000325
v -0.019834 -0.006366 0.000325
v -0.025425 -0.003324 0.000555
v -0.02549 -0.003298 0.000449
v -0.02549 -0.003298 0.000449
v -0.02549 -0.003298 0.000449
v -0.025684 -0.003994 0.000449
v -0.025684 -0.003994 0.000449
v -0.025592 -0.005426 0.000449
v -0.025592 -0.005426 0.000449
v -0.02531 -0.006091 0.000449
v -0.02531 -0.006091 0.000449
v -0.024887 -0.006676 0.000449
v -0.023709 -0.007497 0.000449
v -0.023709 -0.007497 0.000449
v -0.025648 -0.00471 0.000555
v -0.025524 -0.005406 0.000555
v -0.024304 -0.007095 0.000555
v -0.023683 -0.007432 0.000555
v -0.019316 -0.005021 0.000201
v -0.020243 -0.002456 2.5e-05
v -0.019352 -0.004304 9.5e-05
v -0.019752 -0.002958 9.5e-05
v -0.019752 -0.002958 9.5e-05
v -0.020165 -0.002386 9.5e-05
v -0.020165 -0.002386 9.5e-05
v -0.020165 -0.002386 9.5e-05
v -0.024622 -0.002172 9.5e-05
v -0.019281 -0.0043 0.000201
v -0.019281 -0.0043 0.000201
v -0.019408 -0.003589 0.000201
v -0.01969 -0.002924 0.000201
v -0.01969 -0.002924 0.000201
v -0.01969 -0.002924 0.000201
v -0.020113 -0.002338 0.000201
v -0.020113 -0.002338 0.000201
v -0.021291 -0.001517 0.000201
v -0.024084 -0.001698 0.000201
v -0.024669 -0.00212 0.000201
v -0.025146 -0.002663 0.000201
v -0.019291 -0.005025 0.000325
v -0.019257 -0.004298 0.000325
v -0.019257 -0.004298 0.000325
v -0.019385 -0.003582 0.000325
v -0.019385 -0.003582 0.000325
v -0.019669 -0.002912 0.000325
v -0.019669 -0.002912 0.000325
v -0.020641 -0.001841 0.000325
v -0.021281 -0.001494 0.000325
v -0.021281 -0.001494 0.000325
v -0.024686 -0.002102 0.000325
v -0.025166 -0.002649 0.000325
v -0.025166 -0.002649 0.000325
v -0.019385 -0.00501 0.000555
v -0.019281 -0.0043 0.000449
v -0.019281 -0.0043 0.000449
v -0.019408 -0.003589 0.000449
v -0.019408 -0.003589 0.000449
v -0.019408 -0.003589 0.000449
v -0.01969 -0.002924 0.000449
v -0.01969 -0.002924 0.000449
v -0.01969 -0.002924 0.000449
v -0.01969 -0.002924 0.000449
v -0.020113 -0.002338 0.000449
v -0.020656 -0.001861 0.000449
v -0.021291 -0.001517 0.000449
v -0.025146 -0.002663 0.000449
v -0.025146 -0.002663 0.000449
v -0.019352 -0.004304 0.000555
v -0.019476 -0.003609 0.000555
v -0.019476 -0.003609 0.000555
v -0.019752 -0.002958 0.000555
v -0.019752 -0.002958 0.000555
v -0.025088 -0.002703 0.000555
v 0.020122 -0.005279 0.0018
v 0.024878 -0.003736 0.0018
v 0.024471 -0.002969 0.0018
v 0.024408 -0.0057 0.001675
v 0.024408 -0.0057 0.001675
v 0.024586 -0.005351 0.001675
v 0.020272 -0.00482 0.001675
v 0.020251 -0.004428 0.001675
v 0.020414 -0.003664 0.001675
v 0.020592 -0.003314 0.001675
v 0.020828 -0.003001 0.001675
v 0.021115 -0.002734 0.001675
v 0.024274 -0.003123 0.001675
v 0.024487 -0.003452 0.001675
v 0.024487 -0.003452 0.001675
v 0.024728 -0.004195 0.001675
v 0.024749 -0.004587 0.001675
v 0.024393 -0.005691 0.001612
v 0.024393 -0.005691 0.001612
v 0.024393 -0.005691 0.001612
v 0.024159 -0.006002 0.001612
v 0.024159 -0.006002 0.001612
v 0.024159 -0.006002 0.001612
v 0.023874 -0.006268 0.001612
v 0.023189 -0.006631 0.001612
v 0.020288 -0.004817 0.001612
v 0.020268 -0.004428 0.001612
v 0.020268 -0.004428 0.001612
v 0.020316 -0.004042 0.001612
v 0.02043 -0.00367 0.001612
v 0.020607 -0.003323 0.001612
v 0.020607 -0.003323 0.001612
v 0.020841 -0.003012 0.001612
v 0.020841 -0.003012 0.001612
v 0.021126 -0.002747 0.001612
v 0.021126 -0.002747 0.001612
v 0.023337 -0.002437 0.001612
v 0.02426 -0.003133 0.001612
v 0.024472 -0.00346 0.001612
v 0.024472 -0.00346 0.001612
v 0.024472 -0.00346 0.001612
v 0.024624 -0.003818 0.001612
v 0.024624 -0.003818 0.001612
v 0.024712 -0.004197 0.001612
v 0.024712 -0.004197 0.001612
v 0.024732 -0.004586 0.001612
v 0.024732 -0.004586 0.001612
v 0.024684 -0.004972 0.001612
v 0.024408 -0.0057 0.00155
v 0.024171 -0.006013 0.00155
v 0.024171 -0.006013 0.00155
v 0.023885 -0.006281 0.00155
v 0.023885 -0.006281 0.00155
v 0.023548 -0.00648 0.001612
v 0.023194 -0.006647 0.00155
v 0.020251 -0.004428 0.00155
v 0.020251 -0.004428 0.00155
v 0.020299 -0.004039 0.00155
v 0.020592 -0.003314 0.00155
v 0.020828 -0.003001 0.00155
v 0.021115 -0.002734 0.00155
v 0.021115 -0.002734 0.00155
v 0.023344 -0.002421 0.00155
v 0.023693 -0.0026 0.00155
v 0.024487 -0.003452 0.00155
v 0.02464 -0.003813 0.00155
v 0.024728 -0.004195 0.00155
v 0.024728 -0.004195 0.00155
v 0.024749 -0.004587 0.00155
v 0.024749 -0.004587 0.00155
v 0.024732 -0.004586 0.001612
v 0.024701 -0.004976 0.00155
v 0.024998 -0.004596 0.001425
v 0.019487 -0.003289 0.000325
v 0.019487 -0.003289 0.000325
v 0.019316 -0.003994 0.000201
v 0.019316 -0.003994 0.000201
v 0.019575 -0.003324 9.5e-05
v 0.022696 -0.00755 2.5e-05
v 0.023369 -0.00743 2.5e-05
v 0.025327 -0.005651 2.5e-05
v 0.019352 -0.00471 9.5e-05
v 0.022703 -0.007656 9.5e-05
v 0.024622 -0.006842 9.5e-05
v 0.025088 -0.006311 9.5e-05
v 0.025088 -0.006311 9.5e-05
v 0.025425 -0.00569 9.5e-05
v 0.019281 -0.004715 0.000201
v 0.019281 -0.004715 0.000201
v 0.019408 -0.005426 0.000201
v 0.024669 -0.006894 0.000201
v 0.024669 -0.006894 0.000201
v 0.02549 -0.005717 0.000201
v 0.02549 -0.005717 0.000201
v 0.019291 -0.00399 0.000325
v 0.019257 -0.004717 0.000325
v 0.020095 -0.006693 0.000325
v 0.024096 -0.007339 0.000325
v 0.024686 -0.006912 0.000325
v 0.025166 -0.006366 0.000325
v 0.025513 -0.005726 0.000325
v 0.025513 -0.005726 0.000325
v 0.019575 -0.003324 0.000555
v 0.019385 -0.004005 0.000555
v 0.019281 -0.004715 0.000449
v 0.019281 -0.004715 0.000449
v 0.019408 -0.005426 0.000449
v 0.019408 -0.005426 0.000449
v 0.01969 -0.006091 0.000449
v 0.020113 -0.006676 0.000449
v 0.022708 -0.007726 0.000449
v 0.023419 -0.007599 0.000449
v 0.02549 -0.005717 0.000449
v 0.019352 -0.00471 0.000555
v 0.019352 -0.00471 0.000555
v 0.019352 -0.00471 0.000555
v 0.019476 -0.005406 0.000555
v 0.022703 -0.007656 0.000555
v 0.025088 -0.006311 0.000555
v 0.025425 -0.00569 0.000555
v 0.025002 -0.006251 0.000625
v 0.025684 -0.005021 0.000201
v 0.025684 -0.005021 0.000201
v 0.025684 -0.005021 0.000201
v 0.025615 -0.00501 9.5e-05
v 0.025423 -0.003639 2.5e-05
v 0.025648 -0.004304 9.5e-05
v 0.025648 -0.004304 9.5e-05
v 0.025524 -0.003609 9.5e-05
v 0.025524 -0.003609 9.5e-05
v 0.025248 -0.002958 9.5e-05
v 0.024835 -0.002386 9.5e-05
v 0.024835 -0.002386 9.5e-05
v 0.019912 -0.002703 9.5e-05
v 0.019912 -0.002703 9.5e-05
v 0.025719 -0.0043 0.000201
v 0.025719 -0.0043 0.000201
v 0.025719 -0.0043 0.000201
v 0.025719 -0.0043 0.000201
v 0.025592 -0.003589 0.000201
v 0.025592 -0.003589 0.000201
v 0.025592 -0.003589 0.000201
v 0.02531 -0.002924 0.000201
v 0.02531 -0.002924 0.000201
v 0.02531 -0.002924 0.000201
v 0.024887 -0.002338 0.000201
v 0.024887 -0.002338 0.000201
v 0.020331 -0.00212 0.000201
v 0.019854 -0.002663 0.000201
v 0.019854 -0.002663 0.000201
v 0.025708 -0.005025 0.000325
v 0.025708 -0.005025 0.000325
v 0.025708 -0.005025 0.000325
v 0.025743 -0.004298 0.000325
v 0.025743 -0.004298 0.000325
v 0.025743 -0.004298 0.000325
v 0.025615 -0.003582 0.000325
v 0.025615 -0.003582 0.000325
v 0.025331 -0.002912 0.000325
v 0.025331 -0.002912 0.000325
v 0.025331 -0.002912 0.000325
v 0.024905 -0.002322 0.000325
v 0.024905 -0.002322 0.000325
v 0.024905 -0.002322 0.000325
v 0.024359 -0.001841 0.000325
v 0.020314 -0.002102 0.000325
v 0.019834 -0.002649 0.000325
v 0.019834 -0.002649 0.000325
v 0.025684 -0.005021 0.000449
v 0.025684 -0.005021 0.000449
v 0.025719 -0.0043 0.000449
v 0.025592 -0.003589 0.000449
v 0.025592 -0.003589 0.000449
v 0.02531 -0.002924 0.000449
v 0.02531 -0.002924 0.000449
v 0.024887 -0.002338 0.000449
v 0.020916 -0.001698 0.000449
v 0.020331 -0.00212 0.000449
v 0.020331 -0.00212 0.000449
v 0.019854 -0.002663 0.000449
v 0.025524 -0.003609 0.000555
v 0.020951 -0.001759 0.000555
v 0.019912 -0.002703 0.000555
v 0.019998 -0.002763 0.000625
v 0.051463 0.0156 0.002114
v 0.051765 0.016725 0.002114
v 0.051765 0.016725 0.002114
v 0.052588 0.017549 0.002114
v 0.054838 0.017549 0.002114
v 0.055662 0.016725 0.002114
v 0.055963 0.0156 0.002114
v 0.055963 0.0156 0.002114
v 0.055662 0.014475 0.002114
v 0.055662 0.014475 0.002114
v 0.055662 0.014475 0.002114
v 0.054838 0.013651 0.002114
v 0.152809 0.0781284 -0.000336
v 0.121573 0.064398 0.001164
v 0.119346 0.06979 -0.000336
v 0.119346 0.06979 0.001164
v 0.120915 0.065991 -0.000336
v 0.115236 0.0450462 -0.000336
v -0.030618 0.078223 0.002664
v -0.02136 0.089655 0.002664
v -0.023313 0.088505 0.002664
v 0.060327 0.019662 0.001164
v 0.064972 0.023074 0.001164
v 0.06526 0.023893 0.001164
v 0.031722 0.033175 0.001164
v 0.030944 0.033002 0.001164
v 0.033498 0.053771 0.004164
v 0.031653 0.05313 0.008164
v 0.032038 0.053264 0.008164
v 0.126195 0.05683 0.008164
v 0.123493 0.058933 0.008164
v 0.123493 0.058933 0.008164
v 0.121573 0.046934 0.008164
v 0.060371 0.019693 0.008164
v 0.060327 0.019662 0.008164
v -0.018022 0.090948 0.008164
v -0.030278 0.079351 0.008164
v -0.031222 0.0736 0.008164
v 0.066388 0.032146 0.008164
v 0.121713 0.060318 0.008164
v 0.121713 0.054052 0.008164
v 0.121796 0.053826 0.008164
v 0.02704 0.025248 0.008164
v 0.027178 0.024731 0.008164
v 0.002567 0.032212 0.008164
v 0.121713 0.047045 0.008164
v 0.089278 0.091198 0.008164
v 0.089977 0.091385 0.008164
v 0.061992 0.020814 0.008164
v 0.064991 0.023128 0.008164
v 0.031653 0.03316 0.008164
v 0.030944 0.033002 0.008164
v -0.017835 0.056871 -0.000336
v -0.018384 0.054821 -0.000336
v -0.018372 0.054868 -0.000336
v -0.018372 0.054868 -0.000336
v 0.112105 0.089559 -0.000336
v 0.116471 0.090505 -0.000336
v 0.15275 0.0722985 -0.000336
v 0.057784 0.01795 -0.000336
v 0.056063 0.01967 -0.000336
v 0.058193 0.014178 -0.000336
v 0.058193 0.014178 -0.000336
v 0.058193 0.014178 -0.000336
v 0.053713 0.0203 -0.000336
v 0.051363 0.01967 -0.000336
v 0.049013 0.0156 -0.000336
v 0.049643 0.01795 -0.000336
v 0.0477975 0.0036265 -0.000336
v 0.04231 0.005475 -0.000336
v 0.0383375 0.017073 -0.000336
v 0.150863 0.0659153 -0.000336
v 0.15382 0.0695139 -0.000336
v 0.129884 0.0825248 -0.000336
v 0.148382 0.087284 -0.000336
v 0.120692 0.0926 -0.000336
v 0.143548 0.090627 -0.000336
v 0.138606 0.0919953 -0.000336
v 0.137938 0.092377 -0.000336
v 0.14081 0.091715 -0.000336
v 0.14081 0.091715 -0.000336
v -0.007872 0.09142 -0.000336
v -0.010222 0.09205 -0.000336
v -0.021847 0.090529 -0.000336
v -0.021847 0.090529 -0.000336
v -0.019093 0.09167 -0.000336
v -0.019093 0.09167 -0.000336
v -0.016378 0.092322 -0.000336
v -0.021887 0.090505 -0.000336
v -0.017835 0.076871 -0.000336
v -0.018384 0.074821 -0.000336
v -0.018066 0.076009 -0.000336
v -0.019885 0.080422 -0.000336
v -0.021935 0.080971 -0.000336
v -0.021935 0.080971 -0.000336
v -0.021935 0.080971 -0.000336
v -0.023985 0.080422 -0.000336
v -0.023985 0.080422 -0.000336
v -0.023985 0.080422 -0.000336
v -0.025486 0.078921 -0.000336
v -0.025486 0.078921 -0.000336
v -0.026035 0.076871 -0.000336
v -0.015229 0.0844701 -0.000336
v -0.021935 0.072771 -0.000336
v -0.021935 0.072771 -0.000336
v -0.019885 0.07332 -0.000336
v -0.023985 0.07332 -0.000336
v -0.0260302 0.0536997 -0.000336
v -0.023651 0.02125 -0.000336
v -0.031792 0.02595 -0.000336
v -0.032222 0.024956 -0.000336
v -0.023022 0.0236 -0.000336
v -0.023022 0.0236 -0.000336
v -0.028634 -0.002357 -0.000336
v -0.016378 -0.029315 -0.000336
v 0.0404375 -0.00474525 -0.000336
v 0.113478 0.0905239 -0.000336
v 0.103335 0.087209 -0.000336
v 0.103965 0.089559 -0.000336
v 0.0790402 0.0775624 -0.000336
v 0.105685 0.083139 -0.000336
v 0.108035 0.082509 -0.000336
v 0.108035 0.082509 -0.000336
v 0.105685 0.091279 -0.000336
v 0.095907 0.0926 -0.000336
v 0.108035 0.091909 -0.000336
v 0.108035 0.091909 -0.000336
v 0.110385 0.091279 -0.000336
v 0.002799 0.07905 -0.000336
v 0.0043 0.077549 -0.000336
v 0.0084 0.077549 -0.000336
v 0.010278 0.08174 -0.000336
v 0.009901 0.08315 -0.000336
v 0.002799 0.08315 -0.000336
v 0.0084 0.084651 -0.000336
v 0.00635 0.0852 -0.000336
v 0.0043 0.084651 -0.000336
v 0.06025 0.0811 -0.000336
v 0.060799 0.07905 -0.000336
v 0.060799 0.07905 -0.000336
v 0.0623 0.077549 -0.000336
v 0.067901 0.07905 -0.000336
v 0.06845 0.0811 -0.000336
v 0.06845 0.0811 -0.000336
v 0.068278 0.08174 -0.000336
v 0.067901 0.08315 -0.000336
v 0.04231 0.090505 -0.000336
v 0.116471 0.0757461 -0.000336
v 0.150366 0.085106 -0.000336
v -0.00756825 0.0530245 -0.000336
v 0.027778 0.05205 -0.000336
v 0.027778 0.04265 -0.000336
v 0.027778 0.04265 -0.000336
v 0.025428 0.04328 -0.000336
v 0.023708 0.045 -0.000336
v 0.023708 0.045 -0.000336
v 0.023078 0.04735 -0.000336
v 0.025428 0.05142 -0.000336
v 0.025428 0.05142 -0.000336
v 0.030128 0.04328 -0.000336
v 0.031849 0.045 -0.000336
v 0.032478 0.04735 -0.000336
v 0.081428 0.08328 -0.000336
v 0.083778 0.08265 -0.000336
v 0.083778 0.08265 -0.000336
v 0.086128 0.08328 -0.000336
v 0.104367 0.0858466 -0.000336
v 0.087849 0.085 -0.000336
v 0.0811774 0.0855519 -0.000336
v 0.079078 0.08735 -0.000336
v 0.088478 0.08735 -0.000336
v 0.073764 0.0926 -0.000336
v 0.087849 0.0897 -0.000336
v 0.0819388 0.0916462 -0.000336
v -0.010222 0.08265 -0.000336
v -0.007872 0.08328 -0.000336
v -0.005522 0.08735 -0.000336
v 0.00583987 0.0604318 -0.000336
v 0.006062 0.056964 -0.000336
v 0.006315 0.057032 -0.000336
v 0.008112 0.057513 -0.000336
v 0.008112 0.057513 -0.000336
v 0.009612 0.059014 -0.000336
v 0.010162 0.061064 -0.000336
v 0.009612 0.063114 -0.000336
v 0.009612 0.063114 -0.000336
v 0.004012 0.057513 -0.000336
v 0.005808 0.057032 -0.000336
v 0.005808 0.057032 -0.000336
v 0.008112 0.064615 -0.000336
v 0.008112 0.064615 -0.000336
v 0.006062 0.065164 -0.000336
v 0.004012 0.064615 -0.000336
v 0.002511 0.063114 -0.000336
v 0.002511 0.063114 -0.000336
v 0.030297 0.070918 -0.000336
v 0.030846 0.068868 -0.000336
v 0.030846 0.068868 -0.000336
v 0.032347 0.067367 -0.000336
v 0.032347 0.067367 -0.000336
v 0.032347 0.074469 -0.000336
v 0.032347 0.074469 -0.000336
v 0.038426 0.071185 -0.000336
v 0.038426 0.071185 -0.000336
v 0.037948 0.072968 -0.000336
v 0.037948 0.072968 -0.000336
v 0.036447 0.074469 -0.000336
v 0.036447 0.074469 -0.000336
v 0.034397 0.066818 -0.000336
v 0.034397 0.066818 -0.000336
v -0.025498 0.054868 -0.000336
v -0.025486 0.054821 -0.000336
v -0.025486 0.058921 -0.000336
v -0.025992 0.057032 -0.000336
v -0.021935 0.060971 -0.000336
v -0.021935 0.060971 -0.000336
v -0.023985 0.060422 -0.000336
v 0.117293 0.061241 -0.000336
v 0.114064 0.0649119 -0.000336
v 0.114826 0.068882 -0.000336
v 0.115878 0.065991 -0.000336
v 0.026217 0.0926 -0.000336
v -0.00135425 0.0926 -0.000336
v 0.035488 0.0926 -0.000336
v 0.04231 0.0926 -0.000336
v 0.00329339 0.0715325 -0.000336
v 0.07914 0.09045 0.002664
v 0.079376 0.0901 0.002664
v -0.005583 0.09045 0.002664
v -0.009022 0.089428 0.001964
v -0.007822 0.08735 0.001964
v -0.008143 0.08615 0.001964
v -0.010222 0.08495 0.001964
v 0.0817 0.08855 0.001964
v 0.085857 0.08855 0.001964
v 0.086178 0.08735 0.001964
v 0.086178 0.08735 0.001964
v 0.085857 0.08615 0.001964
v 0.083778 0.08495 0.001964
v 0.083778 0.08495 0.001964
v 0.082578 0.085272 0.001964
v 0.081378 0.08735 0.001964
v 0.121421 0.054855 0.002664
v 0.029776 -0.000544 0.006664
v 0.030181 -0.002298 0.006664
v 0.029777 -0.000439 0.002664
v -0.028716 -0.000602 0.002664
v -0.028349 0.004844 0.002664
v -0.004722 0.091198 0.001164
v -0.00582 0.0901 0.001164
v 0.089278 0.091198 0.001164
v 0.090778 0.0916 0.001164
v -0.024044 0.027318 0.001164
v 0.078278 0.091198 0.001164
v -0.035222 0.0736 0.005164
v -0.035222 0.0736 0.002664
v -0.035222 1.8e-05 0.002664
v 0.035267 -0.020412 0.002664
v 0.035267 -0.020412 0.005164
v 0.031549 -0.025356 0.002664
v 0.031549 -0.025356 0.002664
v 0.029643 -0.027353 0.005164
v 0.029643 -0.027353 0.005164
v 0.014408 -0.03645 0.005164
v 0.014408 -0.03645 0.005164
v 0.014378 -0.036342 0.002664
v 0.016385 -0.03577 0.002664
v 0.016385 -0.03577 0.002664
v 0.016385 -0.03577 0.002664
v 0.022561 -0.032799 0.005164
v 0.022561 -0.032799 0.005164
v 0.022561 -0.032799 0.005164
v 0.021983 -0.033137 0.002664
v 0.021983 -0.033137 0.002664
v 0.022534 -0.032759 0.002664
v 0.022534 -0.032759 0.002664
v 0.022534 -0.032759 0.002664
v -0.001889 -0.037889 0.002664
v -0.003293 -0.037682 0.005164
v 0.004291 -0.038177 0.002664
v 0.00562 -0.038023 0.002664
v 0.010436 -0.037465 0.002664
v 0.010436 -0.037465 0.002664
v -0.00794 -0.036606 0.002664
v -0.00794 -0.036606 0.002664
v -0.00794 -0.036606 0.002664
v -0.011873 -0.035195 0.005164
v -0.011873 -0.035195 0.005164
v -0.011873 -0.035195 0.005164
v -0.011833 -0.035092 0.002664
v -0.011833 -0.035092 0.002664
v -0.011833 -0.035092 0.002664
v -0.019641 -0.030783 0.005164
v -0.019641 -0.030783 0.005164
v -0.019033 -0.031221 0.002664
v -0.019033 -0.031221 0.002664
v -0.019033 -0.031221 0.002664
v -0.019033 -0.031221 0.002664
v -0.013705 -0.034364 0.002664
v -0.013705 -0.034364 0.002664
v -0.013705 -0.034364 0.002664
v -0.013705 -0.034364 0.002664
v -0.023784 -0.027258 0.002664
v -0.023784 -0.027258 0.002664
v -0.026172 -0.024688 0.005164
v -0.026172 -0.024688 0.005164
v -0.026172 -0.024688 0.005164
v -0.026079 -0.024607 0.002664
v -0.031109 -0.017243 0.005164
v -0.031109 -0.017243 0.005164
v -0.031103 -0.01724 0.002664
v -0.031103 -0.01724 0.002664
v -0.031103 -0.01724 0.002664
v -0.031073 -0.017312 0.002664
v -0.031073 -0.017312 0.002664
v -0.031073 -0.017312 0.002664
v -0.031073 -0.017312 0.002664
v -0.031073 -0.017312 0.002664
v -0.027833 -0.022581 0.002664
v -0.027833 -0.022581 0.002664
v -0.033421 -0.011589 0.002664
v -0.033421 -0.011589 0.002664
v -0.03406 -0.008826 0.002664
v -0.034589 -0.005529 0.001516
v -0.034814 -0.005562 0.002664
v -0.034814 -0.005562 0.002664
v 0.044178 -0.006318 0.002664
v 0.078379 0.023257 0.002664
v 0.071558 0.01981 0.002664
v 0.071558 0.01981 0.002664
v 0.068282 0.01784 0.005164
v 0.068282 0.01784 0.005164
v 0.068332 0.017761 0.002664
v 0.065107 0.015712 0.002664
v 0.065107 0.015712 0.002664
v 0.059088 0.011002 0.002664
v 0.050995 0.002891 0.005164
v 0.048573 -6.6e-05 0.002664
v 0.144153 0.052546 0.002664
v 0.135 0.0956 0.002664
v 0.13839 0.095343 0.002664
v 0.141703 0.094578 0.002664
v 0.144863 0.093323 0.002664
v 0.144863 0.093323 0.002664
v 0.147798 0.091606 0.002664
v 0.147798 0.091606 0.002664
v 0.147798 0.091606 0.005164
v 0.15044 0.089466 0.002664
v 0.15044 0.089466 0.002664
v 0.15044 0.089466 0.002664
v 0.15273 0.086953 0.005164
v 0.15273 0.086953 0.005164
v 0.15273 0.086953 0.002664
v 0.154615 0.084123 0.002664
v 0.154615 0.084123 0.002664
v 0.156052 0.081041 0.005164
v 0.156052 0.081041 0.002664
v 0.155762 0.06443 0.002664
v 0.155762 0.06443 0.002664
v 0.155762 0.06443 0.002664
v 0.156832 0.067657 0.002664
v 0.156832 0.067657 0.005164
v 0.156832 0.067657 0.005164
v 0.157403 0.071009 0.002664
v 0.157403 0.071009 0.002664
v 0.157462 0.074409 0.005164
v 0.157462 0.074409 0.002664
v 0.157008 0.077779 0.002664
v 0.154219 0.0614 0.002664
v 0.154219 0.0614 0.002664
v 0.154219 0.0614 0.002664
v 0.154219 0.0614 0.005164
v 0.152237 0.058638 0.002664
v 0.152237 0.058638 0.002664
v 0.149861 0.056206 0.005164
v 0.149861 0.056206 0.005164
v 0.149861 0.056206 0.002664
v 0.147145 0.05416 0.002664
v 0.147145 0.05416 0.002664
v 0.147145 0.05416 0.002664
v -0.013222 0.0956 0.005164
v -0.034951 0.077042 0.002664
v -0.034951 0.077042 0.002664
v -0.034145 0.080398 0.005164
v -0.034145 0.080398 0.005164
v -0.034145 0.080398 0.002664
v -0.032824 0.083588 0.002664
v -0.03102 0.086531 0.002664
v -0.03102 0.086531 0.005164
v -0.028778 0.089156 0.002664
v -0.028778 0.089156 0.002664
v -0.026153 0.091398 0.005164
v -0.026153 0.091398 0.002664
v -0.023209 0.093202 0.002664
v -0.02002 0.094523 0.005164
v -0.02002 0.094523 0.002664
v -0.02002 0.094523 0.002664
v -0.016663 0.095329 0.002664
v -0.016663 0.095329 0.002664
v 0.003322 0.02926 0.002664
v 0.003971 0.031685 0.002664
v 0.003322 0.032335 0.002664
v 0.029971 0.024568 0.002664
v 0.030209 0.025456 0.002664
v 0.026897 0.024568 0.002664
v 0.026897 0.024568 0.002664
v 0.027547 0.023919 0.002664
v 0.029971 0.026343 0.002664
v 0.029971 0.026343 0.002664
v 0.029322 0.026993 0.002664
v 0.029322 0.026993 0.002664
v 0.028434 0.027231 0.002664
v 0.035551 -0.000544 0.002664
v -0.000762 -0.029571 0.002664
v 0 -0.029775 0.002664
v 0 -0.029775 0.002664
v 0.000762 -0.026929 0.002664
v 0.001321 -0.027487 0.002664
v 0.000762 -0.029571 0.002664
v 0.001321 -0.029013 0.002664
v -0.024176 0.0086 0.002664
v 0.121389 0.06057 0.001164
v 0.121389 0.06057 0.001164
v 0.126195 0.05683 0.001164
v 0.116856 0.063304 0.001164
v 0.02969 0.024731 0.002989
v 0.029884 0.025456 0.002989
v 0.02969 0.026181 0.002989
v 0.02969 0.026181 0.002989
v 0.029159 0.026712 0.002989
v 0.026984 0.025456 0.002989
v 0.026984 0.025456 0.002989
v 0.027178 0.024731 0.002989
v 0.027178 0.024731 0.002989
v 0.027178 0.024731 0.002989
v 0.035226 -0.000544 0.002989
v 0.035032 -0.001269 0.002989
v -0.024826 0.00795 0.002664
v -0.024014 0.008319 0.002989
v 0.003159 0.032053 0.002989
v 0.003159 0.032053 0.002989
v 0.002434 0.032248 0.002989
v 0.002434 0.029348 0.002989
v 0.003159 0.029542 0.002989
v 0.00369 0.031523 0.002989
v 0.065852 0.030639 0.001173
v 0.065852 0.030639 0.001173
v 0.065852 0.030639 0.001173
v 0.065852 0.030639 0.001173
v 0.065852 0.030639 0.001173
v 0.064423 0.031464 0.002164
v 0.065852 0.032289 0.002164
v 0.064423 0.029814 0.002164
v 0.065027 0.02921 0.002164
v 0.064202 0.030639 0.002164
v 0.064202 0.030639 0.002164
v 0.067281 0.029814 0.002164
v 0.065852 0.028989 0.002164
v 0.067281 0.031464 0.002164
v 0.066677 0.032068 0.002164
v 0.067502 0.030639 0.002164
v 0.067502 0.030639 0.002164
v 0.054908 0.06071 0.001173
v 0.054908 0.06071 0.001173
v 0.054908 0.06071 0.001173
v 0.054908 0.06071 0.001173
v 0.054908 0.06071 0.001173
v 0.054908 0.06071 0.001173
v 0.054908 0.06071 0.001173
v 0.054083 0.062138 0.002164
v 0.053479 0.061535 0.002164
v 0.054908 0.06236 0.002164
v 0.054908 0.06236 0.002164
v 0.053479 0.059885 0.002164
v 0.053479 0.059885 0.002164
v 0.054083 0.059281 0.002164
v 0.053258 0.06071 0.002164
v 0.053258 0.06071 0.002164
v 0.056337 0.061535 0.002164
v 0.056337 0.061535 0.002164
v 0.055733 0.062138 0.002164
v 0.055733 0.062138 0.002164
v 0.056558 0.06071 0.002164
v 0.113702 0.083032 -8.7e-05
v 0.113702 0.083032 -8.7e-05
v 0.113702 0.083032 -8.7e-05
v 0.113702 0.083032 -8.7e-05
v 0.113702 0.083032 -8.7e-05
v 0.113702 0.083032 -8.7e-05
v 0.113077 0.084114 0.000664
v 0.112619 0.083656 0.000664
v 0.113702 0.084282 0.000664
v 0.113702 0.084282 0.000664
v 0.112619 0.082407 0.000664
v 0.113077 0.081949 0.000664
v 0.112452 0.083032 0.000664
v 0.114327 0.081949 0.000664
v 0.113702 0.081781 0.000664
v 0.114784 0.083656 0.000664
v 0.114327 0.084114 0.000664
v 0.114952 0.083032 0.000664
v 0.125068 0.051802 -8.7e-05
v 0.125068 0.051802 -8.7e-05
v 0.125068 0.051802 -8.7e-05
v 0.125068 0.051802 -8.7e-05
v 0.125068 0.051802 -8.7e-05
v 0.123986 0.052427 0.000664
v 0.125068 0.053052 0.000664
v 0.123986 0.051177 0.000664
v 0.123986 0.051177 0.000664
v 0.124443 0.050719 0.000664
v 0.123819 0.051802 0.000664
v 0.123819 0.051802 0.000664
v 0.126151 0.052427 0.000664
v 0.125694 0.052884 0.000664
v 0.125694 0.052884 0.000664
v 0.135 0.093728 -3.4e-05
v -0.013222 0.093728 -3.4e-05
v 0.135 0.0941 6.6e-05
v -0.013222 0.0941 6.6e-05
v 0.135 0.095198 0.001164
v 0.135 0.095298 0.001536
v 0.135 0.095298 0.001536
v 0.13833 0.094946 0.001164
v 0.13833 0.094946 0.001164
v 0.138164 0.09386 6.6e-05
v 0.141256 0.093146 6.6e-05
v 0.144206 0.091975 6.6e-05
v 0.144206 0.091975 6.6e-05
v 0.146945 0.090372 6.6e-05
v 0.149411 0.088375 6.6e-05
v 0.149411 0.088375 6.6e-05
v 0.151548 0.086029 6.6e-05
v 0.151548 0.086029 6.6e-05
v 0.151548 0.086029 6.6e-05
v 0.153307 0.083388 6.6e-05
v 0.153307 0.083388 6.6e-05
v 0.155541 0.077467 6.6e-05
v 0.154648 0.080512 6.6e-05
v 0.154648 0.080512 6.6e-05
v 0.155964 0.074322 6.6e-05
v 0.155909 0.071149 6.6e-05
v 0.155909 0.071149 6.6e-05
v 0.155909 0.071149 6.6e-05
v 0.155376 0.06802 6.6e-05
v 0.141584 0.094195 0.001164
v 0.144687 0.092962 0.001164
v 0.144687 0.092962 0.001164
v 0.144687 0.092962 0.001164
v 0.144687 0.092962 0.001164
v 0.147569 0.091275 0.001164
v 0.147569 0.091275 0.001164
v 0.147569 0.091275 0.001164
v 0.150164 0.089174 0.001164
v 0.150164 0.089174 0.001164
v 0.150164 0.089174 0.001164
v 0.152413 0.086705 0.001164
v 0.152413 0.086705 0.001164
v 0.154264 0.083926 0.001164
v 0.154264 0.083926 0.001164
v 0.155676 0.0809 0.001164
v 0.155676 0.0809 0.001164
v 0.156615 0.077695 0.001164
v 0.156615 0.077695 0.001164
v 0.157061 0.074385 0.001164
v 0.157061 0.074385 0.001164
v 0.157061 0.074385 0.001164
v 0.157003 0.071047 0.001164
v 0.157003 0.071047 0.001164
v 0.157003 0.071047 0.001164
v 0.156442 0.067755 0.001164
v 0.156442 0.067755 0.001164
v 0.156442 0.067755 0.001164
v 0.156442 0.067755 0.001164
v 0.155392 0.064585 0.001164
v 0.155392 0.064585 0.001164
v 0.153876 0.061609 0.001164
v 0.153876 0.061609 0.001164
v 0.151929 0.058896 0.001164
v 0.149595 0.056508 0.001164
v 0.149595 0.056508 0.001164
v 0.146928 0.054498 0.001164
v -0.034261 0.0736 0.000605
v -0.03482 0.0736 0.001164
v -0.034554 0.076979 0.001164
v -0.034917 0.0736 0.001529
v -0.033722 0.0736 6.6e-05
v -0.032718 0.079935 6.6e-05
v -0.031487 0.082907 6.6e-05
v -0.031487 0.082907 6.6e-05
v -0.029806 0.08565 6.6e-05
v -0.022528 0.091866 6.6e-05
v -0.022528 0.091866 6.6e-05
v -0.022528 0.091866 6.6e-05
v -0.019556 0.093097 6.6e-05
v -0.019556 0.093097 6.6e-05
v -0.019556 0.093097 6.6e-05
v -0.033763 0.080274 0.001164
v -0.033763 0.080274 0.001164
v -0.032466 0.083405 0.001164
v -0.032466 0.083405 0.001164
v -0.030695 0.086295 0.001164
v -0.030695 0.086295 0.001164
v -0.028494 0.088872 0.001164
v -0.028494 0.088872 0.001164
v -0.025917 0.091073 0.001164
v -0.023027 0.092844 0.001164
v -0.023027 0.092844 0.001164
v -0.019896 0.094141 0.001164
v -0.019896 0.094141 0.001164
v -0.019896 0.094141 0.001164
v -0.0166 0.094932 0.001164
v -0.016428 0.093848 6.6e-05
v -0.033367 1.8e-05 -0.000104
v -0.033367 1.8e-05 -0.000104
v -0.033367 1.8e-05 -0.000104
v -0.034333 1.8e-05 0.000533
v -0.03499 1.8e-05 0.001509
v -0.03499 1.8e-05 0.001509
v -0.03499 1.8e-05 0.001509
v -0.03499 1.8e-05 0.001509
v -0.034992 1.8e-05 0.001516
v -0.034992 1.8e-05 0.001516
v 0.047112 0.001072 -0.000108
v 0.057877 0.012403 -0.000108
v 0.057758 0.013265 -0.000307
v 0.057758 0.013265 -0.000307
v 0.056038 0.011574 -0.000285
v 0.05742 0.012932 -0.000302
v 0.042612 -0.005328 -0.000108
v 0.058513 0.011667 0.000543
v 0.043981 -0.006194 0.00151
v 0.043435 -0.005848 0.000543
v 0.043435 -0.005848 0.000543
v 0.043425 -0.005842 0.000535
v 0.043425 -0.005842 0.000535
v 0.043425 -0.005842 0.000535
v 0.053394 0.005883 0.001516
v 0.058939 0.011175 0.001516
v 0.064975 0.015899 0.001516
v 0.078286 0.023466 0.001516
v 0.068332 0.017761 0.002664
v -0.001653 -0.036052 -0.000108
v -0.012897 -0.032698 -0.000108
v 0.016076 -0.034947 0.000543
v 0.016076 -0.034947 0.000543
v 0.016305 -0.035556 0.001516
v 0.016305 -0.035556 0.001516
v 0.016305 -0.035556 0.001516
v 0.010391 -0.037241 0.001516
v 0.004283 -0.037949 0.001516
v 0.004283 -0.037949 0.001516
v 0.004283 -0.037949 0.001516
v 0.021869 -0.032939 0.001516
v 0.021869 -0.032939 0.001516
v 0.021869 -0.032939 0.001516
v 0.021869 -0.032939 0.001516
v 0.026938 -0.029458 0.001516
v 0.026938 -0.029458 0.001516
v -0.032982 -0.005292 -0.000108
v -0.034333 1.8e-05 0.000533
v -0.034333 1.8e-05 0.000533
v -0.033945 -0.005434 0.000543
v -0.033945 -0.005434 0.000543
v -0.033945 -0.005434 0.000543
v -0.033945 -0.005434 0.000543
v -0.033945 -0.005434 0.000543
v -0.034589 -0.005529 0.001516
v -0.034589 -0.005529 0.001516
v -0.034589 -0.005529 0.001516
v -0.034589 -0.005529 0.001516
v -0.013606 -0.034159 0.001516
v -0.013606 -0.034159 0.001516
v -0.013606 -0.034159 0.001516
v -0.013606 -0.034159 0.001516
v -0.013606 -0.034159 0.001516
v -0.007875 -0.036387 0.001516
v -0.007875 -0.036387 0.001516
v -0.018902 -0.031034 0.001516
v -0.027648 -0.022446 0.001516
v -0.027648 -0.022446 0.001516
v -0.027648 -0.022446 0.001516
v -0.027648 -0.022446 0.001516
v -0.03087 -0.017209 0.001516
v -0.03087 -0.017209 0.001516
v -0.03087 -0.017209 0.001516
v -0.03087 -0.017209 0.001516
v -0.033204 -0.01152 0.001516
v -0.033204 -0.01152 0.001516
v -0.033204 -0.01152 0.001516
v -0.033204 -0.01152 0.001516
v 0.035074 -0.02029 0.001516
v 0.035074 -0.02029 0.001516
v 0.031378 -0.025205 0.001516
v 0.035071 -0.020288 0.00151
v 0.035071 -0.020288 0.00151
v 0.030892 -0.024773 0.000543
v 0.030892 -0.024773 0.000543
v 0.030892 -0.024773 0.000543
v 0.034525 -0.019943 0.000543
v 0.021545 -0.032375 0.000543
v 0.021545 -0.032375 0.000543
v -0.032584 -0.011323 0.000543
v -0.032584 -0.011323 0.000543
v -0.03029 -0.016914 0.000543
v -0.03029 -0.016914 0.000543
v -0.03029 -0.016914 0.000543
v -0.027124 -0.022062 0.000543
v -0.027124 -0.022062 0.000543
v -0.007689 -0.035764 0.000543
v -0.007689 -0.035764 0.000543
v 0.034515 -0.019937 0.000535
v 0.034515 -0.019937 0.000535
v 0.030164 -0.024127 -0.000108
v 0.033702 -0.019423 -0.000108
v 0.010264 -0.036603 0.000543
v 0.010264 -0.036603 0.000543
v 0.010264 -0.036603 0.000543
v 0.010074 -0.035649 -0.000108
v 0.010074 -0.035649 -0.000108
v 0.015735 -0.034036 -0.000108
v 0.004227 -0.036327 -0.000108
v 0.004261 -0.037299 0.000543
v 0.004261 -0.037299 0.000543
v 0.004261 -0.037299 0.000543
v -0.001859 -0.037662 0.001516
v -0.001859 -0.037662 0.001516
v -0.001777 -0.037017 0.000543
v -0.001777 -0.037017 0.000543
v -0.001777 -0.037017 0.000543
v -0.029423 -0.016473 -0.000108
v -0.026339 -0.021487 -0.000108
v -0.026339 -0.021487 -0.000108
v -0.022486 -0.025937 -0.000108
v -0.017966 -0.029707 -0.000108
v 0.026528 -0.028954 0.000543
v 0.026528 -0.028954 0.000543
v 0.033702 -0.019423 -0.000108
v 0.0633 0.079281 0.001664
v 0.062531 0.08005 0.001664
v 0.062531 0.08005 0.001664
v 0.06225 0.0811 0.001664
v 0.066169 0.08215 0.001664
v 0.06645 0.0811 0.001664
v 0.06645 0.0811 0.001664
v 0.066169 0.08005 0.001664
v 0.00635 0.079 0.001664
v 0.0053 0.079281 0.001664
v 0.004531 0.08005 0.001664
v 0.004531 0.08215 0.001664
v 0.0053 0.082919 0.001664
v 0.00635 0.0832 0.001664
v 0.0074 0.082919 0.001664
v 0.00845 0.0811 0.001664
v 0.0074 0.079281 0.001664
v 0.121388 0.046787 0.002664
v 0.108035 0.084809 0.001964
v 0.106835 0.085131 0.001964
v 0.106835 0.085131 0.001964
v 0.105635 0.087209 0.001964
v 0.105957 0.088409 0.001964
v 0.106835 0.089288 0.001964
v 0.108035 0.089609 0.001964
v 0.108035 0.089609 0.001964
v 0.109235 0.089288 0.001964
v 0.110114 0.088409 0.001964
v 0.110435 0.087209 0.001964
v -0.024622 0.027154 0.002664
v -0.025145 0.027108 0.002664
v -0.0298 0.0248 0.001964
v -0.025322 0.0236 0.001964
v -0.025643 0.0224 0.001964
v -0.025643 0.0224 0.001964
v 0.006062 0.059114 0.001814
v 0.006062 0.059114 0.001814
v 0.007037 0.059375 0.001814
v 0.007037 0.059375 0.001814
v 0.005087 0.059375 0.001814
v 0.005087 0.059375 0.001814
v 0.004373 0.060089 0.001814
v 0.004373 0.062039 0.001814
v 0.005087 0.062753 0.001814
v 0.005087 0.062753 0.001814
v 0.007037 0.062753 0.001814
v 0.00775 0.062039 0.001814
v 0.008012 0.061064 0.001814
v 0.036086 0.071893 0.001814
v 0.036086 0.071893 0.001814
v 0.036086 0.071893 0.001814
v 0.036086 0.071893 0.001814
v 0.036347 0.070918 0.001814
v 0.034397 0.072868 0.001814
v 0.035372 0.072607 0.001814
v 0.032447 0.070918 0.001814
v 0.032708 0.071893 0.001814
v 0.033422 0.072607 0.001814
v 0.033422 0.072607 0.001814
v 0.034397 0.068968 0.001814
v 0.033422 0.069229 0.001814
v 0.033422 0.069229 0.001814
v 0.032708 0.069943 0.001814
v 0.032708 0.069943 0.001814
v -0.009025 0.021 0.002664
v -0.008821 0.021762 0.002664
v -0.008262 0.022321 0.002664
v 0.031262 0.013321 0.002664
v 0.031821 0.012762 0.002664
v 0.032025 0.012 0.002664
v 0.032025 0.012 0.002664
v 0.031821 0.011238 0.002664
v 0.028975 0.012 0.002664
v 0.0305 0.013525 0.002664
v 0.001082 -0.028875 0.002939
v 0.001082 -0.027625 0.002939
v -0.000625 -0.029333 0.002939
v 0 -0.0295 0.002939
v 0.000625 -0.029333 0.002939
v 0.03175 0.012 0.002939
v 0.031583 0.012625 0.002939
v 0.031125 0.013083 0.002939
v 0.0305 0.01325 0.002939
v 0.029417 0.012625 0.002939
v 0.02925 0.012 0.002939
v 0.031583 0.011375 0.002939
v 0.031583 0.011375 0.002939
v -0.008583 0.021625 0.002939
v -0.008125 0.022083 0.002939
v -0.0075 0.02225 0.002939
v 0.027778 0.0451 0.002114
v 0.027778 0.0451 0.002114
v 0.026653 0.045401 0.002114
v 0.02583 0.046225 0.002114
v 0.025528 0.04735 0.002114
v 0.025528 0.04735 0.002114
v 0.026653 0.049299 0.002114
v 0.027778 0.0496 0.002114
v 0.027778 0.0496 0.002114
v 0.029727 0.046225 0.002114
v -0.023624 0.055896 0.001814
v -0.023624 0.057846 0.001814
v -0.02291 0.05856 0.001814
v -0.021935 0.058821 0.001814
v -0.021935 0.058821 0.001814
v -0.02096 0.05856 0.001814
v -0.019985 0.056871 0.001814
v -0.020246 0.055896 0.001814
v -0.020246 0.055896 0.001814
v -0.021935 0.074921 0.001814
v -0.021935 0.074921 0.001814
v -0.02291 0.075182 0.001814
v -0.02291 0.075182 0.001814
v -0.023624 0.077846 0.001814
v -0.02291 0.07856 0.001814
v -0.02291 0.07856 0.001814
v -0.021935 0.078821 0.001814
v -0.021935 0.078821 0.001814
v -0.021935 0.078821 0.001814
v -0.02096 0.07856 0.001814
v -0.02096 0.07856 0.001814
v -0.019985 0.076871 0.001814
v -0.020246 0.075896 0.001814
v -0.02096 0.075182 0.001814
v 0.05585 0.0936 0.012164
v 0.0148565 0.0936 0.0122255
v 0.040042 0.064211 0.042548
v 0.044923 0.065908 0.036104
v 0.042483 0.06506 0.036104
v 0.015414 0.0936 0.012263
v 0.0248513 0.0936 0.012595
v 0.008756 0.0936 0.026595
v 0.010941 0.0936 0.026595
v 0.010947 0.0936 0.026595
v 0.0469026 0.0936 0.0272644
v 0.04603 0.0936 0.027109
v 0.0462652 0.0936 0.0267432
v 0.052002 0.0936 0.033671
v 0.0528533 0.0936 0.0318742
v 0.053054 0.0936 0.031617
v 0.053056 0.0936 0.031613
v 0.054027 0.0936 0.029903
v 0.053871 0.0936 0.030051
v 0.055062 0.0936 0.012287
v 0.0557384 0.0936 0.0123166
f 1 2 4
f 8 9 11
f 10 13 15
f 14 12 16
f 5 18 3
f 22 23 24
f 36 35 20
f 58 20 35
f 58 35 36
f 59 62 60
f 63 56 57
f 65 55 54
f 69 72 68
f 67 70 28
f 50 73 74
f 44 83 42
f 43 87 75
f 45 90 92
f 46 94 96
f 47 97 100
f 47 100 49
f 99 101 48
f 41 106 109
f 40 122 39
f 121 123 38
f 127 128 37
f 6 130 132
f 133 137 33
f 32 136 139
f 142 143 61
f 147 149 34
f 131 19 31
f 151 129 30
f 7 157 161
f 160 162 29
f 165 166 71
f 26 167 169
f 27 168 25
f 53 172 173
f 164 52 174
f 175 51 176
f 184 17 76
f 182 17 184
f 21 210 182
f 64 21 183
f 183 21 182
f 183 182 64
f 64 182 66
f 76 66 184
f 184 66 182
f 17 182 210
f 150 209 207
f 208 152 153
f 148 146 211
f 212 145 144
f 213 141 214
f 202 140 204
f 205 138 134
f 203 135 206
f 189 126 124
f 188 125 191
f 190 120 192
f 119 118 194
f 194 118 117
f 193 115 197
f 116 113 195
f 198 114 111
f 196 112 200
f 201 110 107
f 199 108 181
f 105 104 223
f 223 104 102
f 222 103 225
f 224 98 226
f 227 93 229
f 95 91 228
f 230 89 232
f 233 88 86
f 231 85 236
f 84 82 237
f 235 81 79
f 234 80 238
f 239 78 77
f 186 180 179
f 178 177 185
f 171 170 187
f 221 163 217
f 218 159 219
f 158 156 220
f 220 156 155
f 216 154 215
f 251 240 252
f 241 254 256
f 263 242 264
f 266 245 270
f 268 246 244
f 274 243 275
f 277 247 248
f 280 250 249
f 290 255 253
f 291 257 258
f 292 259 261
f 293 260 262
f 294 265 267
f 295 269 272
f 296 271 273
f 299 276 300
f 301 278 303
f 302 279 304
f 305 281 306
f 307 282 283
f 308 284 286
f 309 285 288
f 310 287 311
f 312 289 313
f 298 314 297
f 316 317 319
f 318 320 321
f 326 322 327
f 329 323 324
f 331 325 333
f 337 328 340
f 346 330 332
f 347 334 335
f 353 336 338
f 352 339 357
f 355 341 358
f 361 342 343
f 360 344 362
f 363 364 367
f 365 345 368
f 370 349 371
f 372 348 350
f 373 351 354
f 374 356 359
f 376 369 377
f 378 375 379
f 384 381 387
f 380 382 390
f 394 383 385
f 393 386 396
f 398 388 399
f 401 389 402
f 403 391 404
f 407 392 395
f 408 397 410
f 411 400 413
f 416 405 417
f 418 406 420
f 425 409 426
f 428 412 315
f 414 415 429
f 430 419 422
f 431 421 433
f 432 423 424
f 434 427 366
f 441 435 442
f 449 437 436
f 453 440 439
f 454 438 457
f 466 443 444
f 470 445 446
f 475 447 448
f 481 450 451
f 483 452 485
f 484 456 487
f 486 455 458
f 489 488 459
f 490 460 462
f 491 461 492
f 492 461 463
f 493 464 465
f 494 468 496
f 495 467 469
f 497 471 498
f 499 472 473
f 500 474 477
f 502 476 478
f 503 479 480
f 506 505 482
f 501 504 507
f 517 513 514
f 519 515 521
f 510 516 522
f 525 518 520
f 508 511 529
f 530 523 524
f 532 526 533
f 534 528 535
f 543 531 544
f 538 540 550
f 548 539 542
f 549 541 551
f 552 545 546
f 555 553 554
f 561 560 564
f 527 559 557
f 558 562 571
f 570 563 576
f 577 565 566
f 579 567 580
f 582 569 584
f 583 568 512
f 586 556 573
f 588 572 574
f 592 575 578
f 595 581 596
f 547 536 587
f 603 585 590
f 604 589 605
f 606 591 593
f 608 594 597
f 610 598 599
f 613 600 601
f 614 602 509
f 615 607 609
f 616 611 612
f 618 617 537
f 633 634 635
f 635 634 632
f 646 645 647
f 689 687 688
f 677 631 691
f 692 676 696
f 734 689 688
f 734 688 687
f 766 692 836
f 836 692 636
f 690 631 677
f 690 677 691
f 689 768 738
f 636 689 738
f 844 721 738
f 689 726 768
f 738 837 836
f 766 837 738
f 785 735 766
f 766 735 676
f 676 735 696
f 836 837 766
f 738 787 785
f 676 692 766
f 766 738 785
f 796 844 738
f 796 738 768
f 738 836 636
f 738 721 840
f 738 840 765
f 765 840 792
f 765 792 738
f 738 792 787
f 768 844 796
f 726 844 768
f 844 726 721
f 638 654 639
f 637 655 656
f 701 700 848
f 849 795 850
f 851 794 793
f 853 791 854
f 855 789 856
f 856 789 786
f 857 784 782
f 858 783 859
f 859 783 781
f 860 788 852
f 864 863 862
f 865 732 866
f 878 877 880
f 882 886 890
f 888 892 895
f 889 894 881
f 897 896 898
f 883 899 901
f 902 905 908
f 912 913 906
f 907 916 920
f 905 917 908
f 921 911 923
f 927 935 924
f 925 933 938
f 931 928 939
f 948 950 951
f 953 949 954
f 955 945 956
f 967 965 969
f 973 970 974
f 980 983 984
f 976 981 988
f 992 990 994
f 993 957 997
f 1001 873 1003
f 1005 1002 1006
f 1008 1007 1010
f 1017 1013 999
f 1040 658 649
f 1041 650 1042
f 1042 650 648
f 659 861 660
f 1050 661 1051
f 1051 661 662
f 1053 1025 1023
f 1052 1024 1049
f 1048 1030 1028
f 1047 1029 1027
f 1046 1026 1045
f 1044 1022 1021
f 1054 1031 1055
f 1057 1056 1039
f 1059 663 1060
f 1058 1020 1063
f 1063 1020 1019
f 1062 1018 1061
f 1074 1071 1066
f 1069 1073 1065
f 1072 1076 1064
f 1079 1077 1068
f 1075 1080 1067
f 1078 657 1070
f 1091 1088 1082
f 1083 1093 1094
f 1095 1092 1084
f 1089 1096 1085
f 1087 1097 1100
f 1101 1098 1086
f 1099 1090 1081
f 1111 1108 1106
f 1103 1112 1113
f 1109 1114 1104
f 1116 1115 1105
f 1119 1117 1107
f 1118 1110 1102
f 1123 1127 1129
f 1130 1128 1124
f 1125 1131 1122
f 1121 1132 1133
f 1134 1126 1120
f 1135 694 743
f 790 843 1136
f 1136 843 842
f 1136 842 841
f 743 790 1135
f 1135 790 1136
f 1135 1136 1137
f 1137 1136 1138
f 1142 1139 1141
f 697 1144 1145
f 697 1145 699
f 698 1147 695
f 693 1150 1153
f 693 1153 767
f 1146 1168 1169
f 1146 1169 1148
f 1149 1174 1176
f 1149 1176 1151
f 1152 1178 1154
f 1155 1179 1157
f 1158 1180 1181
f 1158 1181 1156
f 1159 1183 1186
f 1159 1186 1161
f 1162 1187 1190
f 1160 1189 1163
f 996 1200 1199
f 998 1198 995
f 991 1197 1196
f 991 1196 989
f 987 1195 1194
f 978 1193 1191
f 977 1192 979
f 982 1188 1184
f 985 1185 1182
f 985 1182 986
f 975 1177 972
f 971 1175 1172
f 971 1172 966
f 968 1173 1170
f 964 1171 1167
f 963 1166 962
f 961 1165 1164
f 961 1164 960
f 959 1143 1140
f 959 1140 958
f 707 1210 702
f 703 1212 1215
f 703 1215 705
f 1206 1217 1219
f 1206 1219 1207
f 1208 1218 1221
f 1208 1221 1209
f 1211 1225 1229
f 1211 1229 1214
f 1016 1230 1227
f 1016 1227 1014
f 1015 1228 1226
f 1015 1226 1012
f 1011 1224 1222
f 1009 1223 1220
f 1004 1216 1203
f 1004 1203 1000
f 704 1213 706
f 706 1213 1231
f 1205 1234 1201
f 1202 1235 1236
f 1204 1238 874
f 680 1243 1244
f 1242 1251 1254
f 1256 1249 1257
f 1260 952 1258
f 947 1259 946
f 893 891 1272
f 1239 1280 1285
f 1282 1279 1232
f 884 1265 885
f 910 1290 904
f 903 1291 1295
f 909 918 1292
f 1293 919 915
f 1294 914 1297
f 1298 922 926
f 1299 937 932
f 1301 934 1304
f 1302 936 930
f 875 1240 944
f 943 1241 1289
f 941 942 1308
f 940 1307 929
f 876 879 1311
f 1313 1312 1315
f 1273 887 1266
f 1275 1267 1319
f 1319 1267 1264
f 1237 1284 1286
f 1287 1283 1321
f 1288 1322 1306
f 1309 1325 1303
f 1305 1324 1327
f 1305 1327 1300
f 1331 1316 1332
f 1331 1332 1333
f 1336 1337 1339
f 1340 1338 1341
f 1341 1338 1334
f 1342 1335 1271
f 1270 1344 1343
f 1343 1344 1347
f 1233 1278 1281
f 1323 1349 1350
f 1326 1351 1352
f 1317 1276 1354
f 1277 1274 1355
f 1355 1274 1320
f 900 1269 1268
f 1263 1336 1339
f 1329 1261 1346
f 1328 1348 1296
f 1296 1348 1345
f 1353 733 1262
f 1356 1248 1330
f 1330 1248 1255
f 1318 1253 1252
f 1314 1250 1310
f 1361 764 763
f 1362 763 762
f 1363 761 1364
f 1364 761 760
f 1357 759 1359
f 1359 759 758
f 1358 757 1360
f 1360 757 756
f 1368 752 1369
f 1369 752 755
f 1370 754 1371
f 1371 754 753
f 1372 751 750
f 1373 749 1365
f 1366 748 1367
f 1367 748 747
f 1374 651 664
f 1380 742 1382
f 1382 742 744
f 1381 745 1383
f 745 746 1383
f 1384 675 1385
f 1375 740 1376
f 1377 741 739
f 1378 736 1379
f 1379 736 737
f 847 868 867
f 846 845 872
f 665 869 666
f 666 869 870
f 1388 729 728
f 1389 731 1391
f 1390 730 727
f 1386 871 1387
f 630 627 1247
f 625 682 628
f 629 681 1245
f 1247 1246 630
f 619 685 620
f 621 686 622
f 622 686 684
f 623 683 679
f 624 678 626
f 1393 797 807
f 1392 806 1397
f 1396 805 1398
f 1399 813 1400
f 1401 812 811
f 1402 810 809
f 1403 808 803
f 1404 804 802
f 1395 801 800
f 1394 799 798
f 1406 822 1409
f 1411 826 1405
f 1408 825 824
f 1407 823 821
f 1414 1413 820
f 1415 819 1410
f 1416 827 1417
f 1418 828 818
f 1419 817 815
f 1420 816 1412
f 1412 816 814
f 1432 1035 1036
f 1431 1038 1435
f 1434 1037 1033
f 1433 1034 1032
f 1441 1429 1440
f 1439 1430 1438
f 1437 1424 1425
f 1436 1426 1442
f 1443 1427 1428
f 1444 1421 1422
f 1445 1423 1446
f 641 668 642
f 667 640 652
f 652 640 653
f 1450 774 1452
f 1451 773 775
f 1453 776 1454
f 1455 777 769
f 1456 780 779
f 1448 778 770
f 1447 771 1449
f 1449 771 772
f 669 643 644
f 669 644 670
f 1458 832 831
f 1459 835 1461
f 1461 835 833
f 1460 834 1462
f 1463 671 673
f 1463 673 1465
f 1464 674 672
f 1457 830 829
f 1470 720 719
f 1471 718 716
f 1472 715 1475
f 1473 717 713
f 1474 712 1476
f 1477 714 711
f 1478 708 710
f 1478 710 1479
f 1479 710 709
f 1480 724 1466
f 1467 723 1468
f 1469 722 725
f 1043 838 839
f 1500 1501 1481
f 1481 1482 1486
f 1481 1486 1500
f 1486 1487 1500
f 1492 1491 1493
f 1496 1495 1494
f 1497 1496 1494
f 1497 1494 1498
f 1499 1497 1498
f 1490 1489 1488
f 1485 1483 1484
