v -0.004541 -0.011699 0.050512
v -0.007031 -0.010396 0.050512
v 0.004541 0.011699 0.050512
v 0.007031 0.010396 0.050512
v -0.006891 -0.010189 0.050762
v 0.006891 0.010189 0.050762
v -0.0055 0.001646 0.050227
v -0.005517 0.001648 0.050242
v -0.006845 0.001126 0.050762
v -0.00627 0.000894 0.050666
v -0.006421 -0.003179 0.050177
v -0.007054 -0.003321 0.05061
v -0.006659 -0.004438 0.05061
v -0.005358 0.001733 0.050054
v -0.006136 0.001181 0.050654
v -0.006309 0.00145 0.050666
v -0.006283 0.001173 0.050694
v -0.006846 0.001131 0.050762
v -0.001003 0.006253 0.050666
v -0.000938 0.00611 0.050611
v -0.000248 0.006576 0.05061
v 0.004044 0.006149 0.050177
v 0.004916 0.005601 0.050177
v 0.004321 0.006735 0.05061
v -0.003621 0.006454 0.049528
v -0.004109 0.007087 0.050177
v -0.003417 0.006836 0.050177
v -0.008355 -0.001821 0.009
v -0.0106243 -0.000813 0.009
v -0.008618 0.00109137 0.009
v -0.009 0 0.009
v 0.000645 0.007179 0.009
v -0.00162425 0.008187 0.009
v 0.000382 0.0100914 0.009
v 0 0.009 0.009
v 0.009645 -0.001821 0.009
v 0.00737575 -0.000813 0.009
v 0.009382 0.00109137 0.009
v 0.009 0 0.009
v 0.000645 -0.010821 0.009
v -0.00162425 -0.009813 0.009
v 0.000382 -0.00790862 0.009
v 0 -0.009 0.009
v -0.019221 -0.017995 0.004162
v -0.018563 -0.018592 0.004811
v -0.018959 -0.018768 0.004162
v -0.015251 -0.069783 0.010995
v -0.015811 -0.06915 0.010305
v -0.016974 -0.06608 0.007242
v -0.01738 -0.06599 0.007246
v 0.005429 -0.08 0.018932
v 0.00484 -0.08 0.019262
v 0.007707 -0.08061 0.019262
v -0.020264 0.014851 0.020831
v -0.018263 0.016442 0.020735
v -0.020263 0.01485 0.020767
v 0.013845 -0.022624 0.0035475
v 0.013952 -0.025824 0.003547
v 0.018536 -0.025826 0.003543
v 0.008705 -0.036109 0.003552
v 0.013561 -0.057164 0.003547
v 0.013202 -0.078782 0.014644
v 0.018536 -0.080643 0.01723
v 0.018536 -0.080155 0.01649
v 0.013208 -0.080148 0.016766
v 0.013208 -0.080148 0.016766
v 0.013208 -0.080148 0.016766
v 0.018536 -0.079099 0.014891
v 0.01321 -0.081349 0.019021
v 0.016009 -0.081488 0.018878
v 0.018536 -0.081474 0.018748
v 0.018536 -0.081474 0.018748
v 0.016012 -0.081645 0.019262
v 0.016012 -0.081645 0.019262
v 0.017451 -0.081727 0.019262
v 0.008286 -0.080733 0.019262
v 0.002347 -0.077433 0.015171
v 0.002351 -0.078453 0.017262
v 0.003312 -0.078701 0.017262
v -0.002839 -0.07615 0.015396
v -0.00536 -0.075393 0.0155
v -0.00536 -0.075393 0.0155
v -0.002841 -0.076934 0.017262
v -0.002841 -0.076934 0.017262
v -0.00536 -0.07606 0.017262
v -0.005511 -0.072735 0.011047
v -0.002809 -0.072339 0.009872
v -0.005682 -0.072069 0.010303
v -0.007343 -0.069708 0.008344
v -0.00278 -0.07062 0.008306
v -0.006072 -0.071187 0.009458
v -0.005992 -0.071369 0.009633
v -0.005992 -0.071369 0.009633
v -0.007215 -0.069064 0.007783
v -0.006607 -0.068314 0.00713
v -0.006519 -0.068161 0.007021
v -0.016791 -0.063399 0.005373
v -0.016967 -0.064401 0.005985
v -0.016988 -0.066002 0.007172
v -0.016988 -0.066002 0.007172
v -0.017015 -0.065592 0.006841
v -0.015363 -0.070022 0.011463
v -0.015363 -0.070022 0.011463
v -0.017214 -0.069704 0.012119
v -0.015801 -0.070169 0.01208
v -0.016964 -0.070558 0.014151
v -0.017158 -0.070434 0.013999
v -0.016885 -0.070532 0.013991
v -0.016885 -0.070532 0.013991
v -0.016277 -0.070328 0.012749
v -0.020156 -0.069943 0.029343
v -0.020156 -0.069943 0.029343
v -0.020168 -0.069957 0.031762
v -0.018544 -0.071087 0.031762
v -0.020143 -0.069929 0.026863
v -0.020143 -0.069929 0.026863
v -0.020143 -0.069929 0.026863
v -0.018369 -0.071028 0.024876
v -0.020106 -0.069883 0.024933
v -0.020106 -0.069883 0.024933
v -0.019827 -0.069341 0.014096
v 0.010751 -0.070509 0.007158
v 0.007787 -0.071601 0.007957
v 0.009914 -0.070417 0.007124
v 0.0055225 -0.057418 0.003554
v 0.00851788 -0.0533393 0.0035517
v 0.007704 -0.078339 0.014921
v 0.018536 -0.018511 0.004931
v 0.018536 -0.018248 0.005542
v 0.01875 -0.079951 0.020762
v 0.018536 -0.079959 0.020762
v 0.006622 -0.081012 0.020762
v 0.007347 -0.08115 0.020762
v 0.007347 -0.08115 0.020762
v 0.010666 -0.081782 0.020762
v 0.01875 -0.081767 0.026095
v 0.01875 -0.082392 0.031762
v -0.00325 -0.082104 0.031762
v -0.00325 -0.079426 0.028252
v -0.005428 -0.075 0.031762
v -0.00525 -0.075 0.031762
v -0.004941 -0.081377 0.031762
v -0.018039 -0.074157 0.031762
v -0.018039 -0.074157 0.031762
v -0.005978 -0.071363 0.031762
v -0.007507 -0.069585 0.031762
v -0.007507 -0.069585 0.031762
v -0.007507 -0.069585 0.031762
v -0.007507 -0.069585 0.031762
v -0.007507 -0.069585 0.031762
v -0.007507 -0.069585 0.031762
v -0.010428 -0.071212 0.031762
v -0.009678 -0.068699 0.031762
v -0.009678 -0.068699 0.031762
v -0.009678 -0.068699 0.031762
v -0.009678 -0.068699 0.031762
v -0.009678 -0.068699 0.031762
v -0.009678 -0.068699 0.031762
v -0.009678 -0.068699 0.031762
v -0.012015 -0.068901 0.031762
v -0.012015 -0.068901 0.031762
v -0.012015 -0.068901 0.031762
v -0.02149 -0.071823 0.031762
v -0.022395 -0.070936 0.031762
v -0.020556 -0.069577 0.031762
v 0.022822 -0.076543 0.015558
v 0.02138 -0.078437 0.01815
v 0.021848 -0.078784 0.018762
v -0.005428 -0.075 0.017262
v 0.018536 -0.082399 0.031762
v 0.009025 -0.08242 0.023506
v 0.010461 -0.08242 0.022665
v 0.007339 -0.081855 0.022785
v 0.007339 -0.081855 0.022785
v 0.001868 -0.081404 0.028169
v -0.002647 -0.079799 0.029366
v -0.002413 -0.079882 0.029136
v 0.001875 -0.08102 0.025558
v 0.005226 -0.08242 0.028115
v 0.005596 -0.08242 0.027263
v 0.007746 -0.08242 0.024524
v -0.00125 -0.080322 0.028762
v 0.001874 -0.081442 0.028762
v 0.018116 -0.0420738 0.00125825
v 0.017758 -0.082144 0.015301
v 0.017745 -0.083533 0.017748
v 0.017745 -0.083533 0.017748
v 0.014696 -0.083496 0.017933
v 0.014696 -0.083496 0.017933
v -0.008263 -0.079732 0.02907
v 0.011663 -0.083894 0.019496
v 0.011681 -0.083292 0.018118
v 0.008705 -0.082931 0.018303
v 0.008705 -0.082931 0.018303
v 0.002832 -0.082658 0.021137
v -0.018042 -0.07414 0.029254
v -0.018042 -0.07414 0.029254
v 0.009278 -0.065855 0.002607
v -0.012965 -0.065674 0.003583
v -0.012502 -0.066027 0.003726
v -0.012502 -0.066027 0.003726
v -0.004303 -0.013322 0.001277
v -0.019181 -0.025806 0.001289
v -0.011387 -0.025811 0.001283
v -0.012371 -0.066127 0.003767
v -0.010999 -0.066471 0.003811
v -0.010655 -0.066478 0.003779
v -0.010483 -0.066451 0.003746
v -0.009705 -0.066176 0.003528
v 0.010602 -0.066471 0.002804
v 0.01247 -0.066074 0.002673
v 0.009401 -0.061524 0.001588
v 0.012356 -0.061401 0.001577
v 0.011973 -0.061178 0.001543
v 0.009641 -0.0614 0.00157
v -0.011766 -0.046331 0.001283
v -0.017572 -0.067509 0.005538
v -0.017635 -0.069195 0.007237
v -0.017753 -0.071734 0.011198
v -0.017753 -0.071734 0.011198
v -0.020501 -0.070795 0.011407
v -0.017808 -0.072544 0.013375
v -0.017808 -0.072544 0.013375
v -0.020693 -0.071393 0.013621
v -0.020693 -0.071393 0.013621
v -0.020693 -0.071393 0.013621
v -0.020565 -0.071034 0.012095
v -0.020878 -0.071695 0.016079
v -0.020878 -0.071695 0.016079
v -0.020877 -0.071694 0.016063
v -0.020877 -0.071694 0.016063
v -0.017858 -0.073031 0.015623
v -0.017858 -0.073031 0.015623
v -0.017858 -0.073031 0.015623
v -0.017858 -0.073031 0.015623
v -0.020864 -0.071677 0.015889
v -0.020864 -0.071677 0.015889
v -0.02073 -0.071496 0.014055
v -0.02073 -0.071496 0.014055
v -0.021075 -0.071751 0.01881
v -0.021075 -0.071751 0.01881
v -0.017945 -0.073562 0.020152
v -0.017945 -0.073562 0.020152
v -0.021147 -0.071764 0.020418
v -0.018008 -0.07394 0.024688
v -0.018008 -0.07394 0.024688
v -0.021461 -0.07182 0.029326
v -0.021461 -0.07182 0.029326
v -0.002897 -0.082149 0.028978
v 0.002186 -0.083894 0.027867
v 0.002186 -0.083894 0.027867
v 0.001912 -0.083894 0.028762
v -0.00125 -0.08278 0.028762
v -0.00125 -0.08278 0.028762
v -0.002873 -0.08189 0.026438
v -0.002873 -0.08189 0.026438
v 0.002788 -0.083349 0.023672
v 0.004097 -0.083894 0.024409
v 0.00486 -0.083894 0.023582
v 0.01092 -0.083894 0.019733
v 0.017231 -0.083894 0.018504
v 0.017741 -0.083894 0.018503
v 0.019822 -0.083894 0.018499
v -0.000298 0.031325 0.02643
v -0.006458 -0.046507 0.001278
v 0.002033 -0.0258185 0.0012715
v -0.002393 -0.07578 0.01016
v -0.002488 -0.077218 0.012232
v -0.002488 -0.077218 0.012232
v -0.005443 -0.079241 0.019228
v -0.005443 -0.079241 0.019228
v -0.00529 -0.077638 0.01462
v -0.002576 -0.078385 0.01442
v -0.006874 -0.057066 0.001278
v -0.007659 -0.073114 0.00854
v -0.002292 -0.074088 0.008241
v -0.00776 -0.074627 0.010506
v -0.002727 -0.080188 0.019043
v -0.005554 -0.080382 0.024053
v -0.005554 -0.080382 0.024053
v -0.002787 -0.080902 0.021457
v -0.002836 -0.081472 0.023926
v -0.008093 -0.078213 0.019412
v -0.008093 -0.078213 0.019412
v -0.008093 -0.078213 0.019412
v -0.007943 -0.076817 0.014821
v -0.007943 -0.076817 0.014821
v -0.010673 -0.077119 0.019597
v -0.010673 -0.077119 0.019597
v -0.01053 -0.075934 0.015021
v -0.01053 -0.075934 0.015021
v -0.01053 -0.075934 0.015021
v -0.012617 -0.068485 0.005351
v -0.01289 -0.07325 0.010852
v -0.013048 -0.075001 0.015222
v -0.013048 -0.075001 0.015222
v -0.013178 -0.075971 0.019782
v -0.013273 -0.076661 0.024434
v -0.013273 -0.076661 0.024434
v 0.006778 -0.0573022 0.001267
v 0.00929791 -0.0427404 0.00126513
v -0.011766 -0.046331 0.001283
v -0.000651 -0.025817 0.001274
v -0.011501 -0.035989 0.001283
v 0.01779 -0.078789 0.010897
v 0.017773 -0.080564 0.013017
v 0.017773 -0.080564 0.013017
v 0.014751 -0.080662 0.013217
v 0.014751 -0.080662 0.013217
v 0.014722 -0.082171 0.0155
v 0.014722 -0.082171 0.0155
v 0.008752 -0.081748 0.015898
v 0.008994 -0.075081 0.007643
v 0.003096 -0.078243 0.01185
v 0.00318 -0.076623 0.009814
v 0.00318 -0.076623 0.009814
v 0.003269 -0.07477 0.007942
v 0.003269 -0.07477 0.007942
v 0.005256 0.033605 0.02623
v 0.005262 0.033947 0.02887
v -0.021884 -0.069907 0.011403
v -0.021884 -0.069907 0.011403
v -0.021884 -0.069907 0.011403
v -0.021933 -0.070228 0.01237
v -0.021933 -0.070228 0.01237
v -0.022017 -0.070644 0.014226
v -0.022092 -0.070815 0.016119
v -0.022092 -0.070815 0.016119
v -0.022813 -0.067936 0.01033
v -0.02284 -0.068676 0.011925
v -0.02284 -0.068676 0.011925
v -0.022876 -0.069375 0.01448
v -0.022896 -0.069551 0.016199
v -0.022366 -0.070927 0.026844
v -0.022366 -0.070927 0.026844
v -0.022191 -0.070862 0.018856
v -0.020892 -0.067855 0.014653
v -0.020392 -0.069039 0.014403
v -0.020392 -0.069039 0.014403
v -0.020352 -0.068571 0.012638
v -0.020186 -0.064794 0.007073
v -0.020705 -0.064405 0.00754
v -0.020231 -0.066132 0.008409
v -0.020751 -0.068037 0.012834
v -0.020762 -0.068496 0.014518
v -0.020762 -0.068496 0.014518
v -0.020771 -0.06871 0.016253
v -0.020544 -0.069547 0.02687
v -0.020544 -0.069547 0.02687
v -0.012683 -0.069125 0.01069
v -0.012816 -0.06917 0.010705
v -0.01428 -0.06966 0.01072
v -0.014382 -0.069694 0.010737
v -0.013455 -0.069383 0.010687
v -0.01336 -0.069351 0.010694
v -0.01017 -0.068649 0.009493
v -0.011859 -0.068864 0.010546
v -0.011859 -0.068864 0.010546
v -0.011539 -0.068788 0.010407
v -0.009342 -0.068762 0.008823
v -0.009993 -0.068676 0.009344
v -0.010788 -0.0749875 0.024762
v -0.011148 -0.074891 0.024762
v -0.011374 -0.075282 0.031225
v -0.010428 -0.075084 0.024762
v -0.010428 -0.075084 0.024762
v -0.010428 -0.075535 0.031225
v -0.010428 -0.075535 0.031225
v -0.009707 -0.074891 0.024762
v -0.00921525 -0.074135 0.024762
v -0.010764 -0.0728805 0.024762
v -0.010428 -0.07175 0.031225
v -0.011374 -0.072003 0.031225
v -0.010428 -0.073643 0.024762
v 0.002464 0.026852 0.024762
v 0.00403675 0.0277042 0.024762
v 0.002488 0.0289585 0.024762
v 0.002824 0.028196 0.024762
v 0.00125675 -0.075 0.0189746
v -0.00525 -0.075 0.020262
v -0.014245 -0.061876 0.006378
v -0.010524 -0.06003 0.00562
v -0.010524 -0.06003 0.00562
v -0.011 -0.060014 0.005625
v -0.011 -0.060014 0.005625
v -0.011 -0.06 0.012762
v -0.011 -0.06 0.012762
v -0.008855 -0.060674 0.005696
v -0.00913 -0.060511 0.005672
v -0.009333 -0.060391 0.005654
v -0.009333 -0.060391 0.005654
v -0.009988 -0.060139 0.005627
v -0.009988 -0.060139 0.005627
v -0.007752 -0.065625 0.012762
v -0.010157 -0.067404 0.011529
v -0.010157 -0.067404 0.011529
v -0.009125 -0.066998 0.012762
v -0.009125 -0.066998 0.012762
v -0.009132 -0.066986 0.010369
v -0.008926 -0.066874 0.010117
v -0.008926 -0.066874 0.010117
v -0.012795 -0.067042 0.012568
v -0.012795 -0.067042 0.012568
v -0.012795 -0.067042 0.012568
v -0.012589 -0.067146 0.01266
v -0.012875 -0.066998 0.012762
v -0.012875 -0.066998 0.012762
v -0.012875 -0.066998 0.012762
v -0.01218 -0.067309 0.012727
v -0.01218 -0.067309 0.012727
v -0.011 -0.0675 0.012762
v -0.011996 -0.067365 0.012712
v -0.011996 -0.067365 0.012712
v -0.011 -0.067489 0.012238
v -0.011 -0.067489 0.012238
v -0.010752 -0.067492 0.012067
v -0.010752 -0.067492 0.012067
v -0.010752 -0.067492 0.012067
v -0.013858 -0.066178 0.011312
v -0.013419 -0.066616 0.012004
v -0.013195 -0.06679 0.012258
v -0.012873 -0.066994 0.012508
v -0.012873 -0.066994 0.012508
v -0.012873 -0.066994 0.012508
v 0.018113 -0.019091 0.005542
v 0.018248 -0.018875 0.012762
v 0.018389 -0.018606 0.005542
v 0.017666 -0.019637 0.005543
v 0.009337 -0.060389 0.005587
v 0.009337 -0.060389 0.005587
v 0.009133 -0.060515 0.0056
v 0.009125 -0.060502 0.012762
v 0.009125 -0.060502 0.012762
v 0.009125 -0.060502 0.012762
v 0.007887 -0.061659 0.005779
v 0.007763 -0.061881 0.005835
v 0.011077 -0.060001 0.005562
v 0.011077 -0.060001 0.005562
v 0.011 -0.060005 0.005562
v 0.011 -0.060005 0.005562
v 0.011 -0.060005 0.005562
v 0.011 -0.06 0.012762
v 0.011 -0.06 0.012762
v 0.011 -0.06 0.012762
v 0.010526 -0.06003 0.005563
v 0.010526 -0.06003 0.005563
v 0.009838 -0.060185 0.005572
v 0.009838 -0.060185 0.005572
v 0.012875 -0.060502 0.012762
v 0.012875 -0.060502 0.012762
v 0.012313 -0.060237 0.005579
v 0.012313 -0.060237 0.005579
v 0.011778 -0.060082 0.005567
v 0.011778 -0.060082 0.005567
v 0.012945 -0.060544 0.00561
v 0.012872 -0.060508 0.005607
v 0.013825 -0.066216 0.007858
v 0.014248 -0.065625 0.012762
v 0.010999 -0.06749 0.008872
v 0.012875 -0.066998 0.012762
v 0.012875 -0.066998 0.012762
v 0.011515 -0.067464 0.008836
v 0.01287 -0.06699 0.008429
v 0.00969 -0.067264 0.00872
v 0.010321 -0.067438 0.008848
v -0.009625 -0.066132 0.00744
v -0.011 -0.0665 0.00744
v -0.012375 -0.066132 0.00744
v -0.013382 -0.065125 0.00744
v 0.012375 -0.066132 0.00744
v 0.011 -0.0665 0.00744
v 0.009625 -0.066132 0.00744
v 0.009625 -0.066132 0.00744
v 0.008618 -0.065125 0.00744
v 0.009625 -0.061368 0.00744
v 0.012375 -0.061368 0.00744
v 0.013382 -0.065125 0.00744
v -0.015859 -0.065409 0.006917
v -0.014587 -0.062448 0.0062
v -0.016284 -0.063479 0.005438
v -0.014351 -0.061934 0.005897
v -0.010515 -0.05997 0.005129
v -0.00651 -0.06701 0.006377
v -0.014627 -0.069497 0.010534
v -0.012573 -0.06876 0.010785
v -0.012271 -0.068824 0.010722
v -0.0121 -0.068848 0.010663
v -0.013769 -0.069168 0.010506
v -0.011388 -0.06817 0.010773
v -0.010759 -0.068135 0.01034
v -0.010759 -0.068135 0.01034
v -0.011896 -0.068123 0.011047
v -0.015217 -0.068851 0.009872
v -0.013301 -0.068466 0.010566
v -0.013197 -0.067027 0.011321
v -0.013197 -0.067027 0.011321
v -0.012052 -0.068094 0.01111
v -0.01233 -0.068023 0.01118
v -0.01233 -0.068023 0.01118
v -0.01242 -0.067996 0.011184
v -0.012615 -0.067935 0.011152
v -0.012615 -0.067935 0.011152
v -0.01273 -0.067893 0.011107
v -0.01273 -0.067893 0.011107
v -0.01273 -0.067893 0.011107
v -0.013024 -0.067755 0.010928
v -0.013024 -0.067755 0.010928
v -0.013234 -0.067629 0.010755
v -0.013731 -0.067233 0.010209
v -0.011789 -0.06761 0.011766
v -0.012125 -0.067527 0.011865
v -0.012125 -0.067527 0.011865
v -0.012125 -0.067527 0.011865
v -0.012125 -0.067527 0.011865
v -0.012246 -0.067489 0.011874
v -0.012246 -0.067489 0.011874
v -0.012514 -0.067392 0.011827
v -0.012514 -0.067392 0.011827
v -0.01266 -0.06733 0.011762
v -0.01266 -0.06733 0.011762
v -0.01111 -0.067681 0.011361
v -0.010519 -0.067641 0.010887
v -0.010519 -0.067641 0.010887
v -0.010519 -0.067641 0.010887
v -0.010519 -0.067641 0.010887
v -0.010519 -0.067641 0.010887
v -0.009838 -0.067477 0.010251
v -0.009838 -0.067477 0.010251
v -0.009838 -0.067477 0.010251
v -0.009184 -0.067186 0.009566
v -0.00711 -0.067981 0.00708
v -0.007131 -0.062782 0.005355
v -0.007522 -0.062197 0.005602
v -0.00733 -0.062205 0.005161
v -0.008797 -0.060643 0.005214
v -0.009965 -0.060082 0.005137
v -0.011239 -0.059947 0.005137
v -0.011771 -0.060019 0.005158
v -0.011771 -0.060019 0.005158
v -0.011256 -0.059768 0.004677
v -0.012464 -0.060234 0.005214
v -0.01182 -0.059848 0.004701
v -0.01128 -0.059483 0.004275
v -0.010406 -0.059131 0.003945
v -0.012556 -0.060085 0.004762
v -0.011889 -0.059574 0.0043
v -0.011307 -0.059108 0.003955
v -0.012683 -0.059839 0.004365
v -0.016382 -0.065943 0.007116
v -0.016424 -0.065553 0.00681
v -0.016425 -0.064455 0.006031
v 0.009759 -0.067469 0.007928
v 0.010354 -0.06762 0.008036
v 0.010354 -0.06762 0.008036
v 0.010354 -0.06762 0.008036
v 0.012073 -0.067519 0.007913
v 0.013776 -0.06648 0.007169
v 0.013776 -0.06648 0.007169
v 0.014164 -0.066002 0.006882
v 0.014164 -0.066002 0.006882
v 0.011803 -0.059992 0.004964
v 0.01108 -0.059907 0.004956
v 0.01108 -0.059907 0.004956
v 0.010512 -0.059937 0.004957
v 0.009283 -0.060313 0.004988
v 0.008662 -0.060703 0.005031
v 0.008232 -0.061089 0.005087
v 0.007775 -0.061667 0.005194
v 0.007775 -0.061667 0.005194
v 0.007469 -0.062239 0.005328
v 0.007706 -0.060674 0.004115
v 0.008219 -0.060194 0.004054
v 0.008219 -0.060194 0.004054
v 0.011531 -0.06885 0.006944
v 0.009518 -0.068643 0.006855
v 0.009052 -0.068447 0.00675
v 0.007525 -0.061576 0.004661
v 0.008019 -0.060936 0.004551
v 0.008019 -0.060936 0.004551
v 0.008019 -0.060936 0.004551
v 0.008483 -0.060509 0.004492
v 0.008483 -0.060509 0.004492
v 0.009153 -0.060079 0.004444
v 0.013939 -0.066888 0.006574
v 0.012108 -0.068003 0.007258
v 0.012108 -0.068003 0.007258
v 0.011471 -0.068135 0.007359
v 0.011471 -0.068135 0.007359
v 0.010318 -0.068112 0.007365
v 0.009698 -0.067957 0.007269
v 0.009698 -0.067957 0.007269
v 0.009698 -0.067957 0.007269
v 0.018536 -0.081774 0.037431
v 0.018536 -0.081774 0.037431
v 0.01875 -0.079951 0.042762
v 0.014205 -0.082216 0.042762
v 0.012162 -0.081994 0.042762
v 0.012162 -0.081994 0.042762
v 0.012038 -0.081974 0.042762
v 0.012038 -0.081974 0.042762
v 0.008325 -0.081371 0.042762
v 0.008325 -0.081371 0.042762
v 0.006759 -0.081012 0.042762
v 0.004479 -0.08049 0.042762
v -0.00325 -0.078002 0.042762
v 0.001615 -0.079653 0.042762
v 0.01875 -0.081767 0.03743
v 0.01875 -0.081767 0.03743
v -0.00325 -0.082091 0.032762
v -0.00325 -0.078602 0.040341
v -0.00325 -0.079098 0.037825
v -0.00325 -0.079433 0.035274
v -0.00325 -0.079433 0.035274
v -0.005428 -0.075 0.046262
v -0.00475 -0.078937 0.03298
v -0.005305 -0.0787 0.031762
v -0.005237 -0.0787 0.033354
v 0.008038 -0.061799 0.059574
v 0.008038 -0.061799 0.059574
v 0.007973 -0.064018 0.059072
v 0.007973 -0.064018 0.059072
v -0.010578 0.022985 0.031762
v -0.019179 -0.055987 0.05995
v -0.012526 -0.056538 0.059956
v -0.012526 -0.056538 0.059956
v -0.001384 0.024223 0.049438
v -0.00074 0.024033 0.050099
v -0.005765 0.022178 0.049913
v 0.015996 -0.078616 0.04928
v 0.015996 -0.078616 0.04928
v 0.015996 -0.078616 0.04928
v 0.013203 -0.078604 0.049131
v 0.013203 -0.078604 0.049131
v 0.013204 -0.07721 0.050887
v 0.013204 -0.07721 0.050887
v 0.013204 -0.07721 0.050887
v 0.003194 -0.0787 0.046262
v 0.003194 -0.0787 0.046262
v 0.00235 -0.078462 0.046262
v 0.002348 -0.077296 0.048602
v 0.002348 -0.077296 0.048602
v 0.002345 -0.0787 0.045748
v 0.005002 -0.079795 0.044833
v 0.005007 -0.07779 0.048724
v 0.002353 -0.076187 0.050357
v 0.002353 -0.076187 0.050357
v 0.000682 -0.0787 0.04463
v 0.000201 -0.0787 0.044262
v 0.001397 -0.079066 0.044262
v 0.005002 -0.079795 0.044833
v 0.005008 -0.080009 0.044262
v 0.006467 -0.080376 0.044262
v 0.007703 -0.080317 0.044963
v 0.013211 -0.080984 0.04524
v 0.014591 -0.081587 0.044262
v 0.016009 -0.081106 0.045387
v 0.016012 -0.081642 0.044262
v 0.018536 -0.078745 0.049107
v 0.018536 -0.078745 0.049107
v 0.016004 -0.079929 0.047395
v 0.016004 -0.079929 0.047395
v 0.013214 -0.075657 0.052526
v 0.013214 -0.075657 0.052526
v 0.013214 -0.075657 0.052526
v 0.013214 -0.075657 0.052526
v 0.018536 -0.075337 0.052779
v 0.018536 -0.075337 0.052779
v 0.018536 -0.076959 0.051214
v 0.018536 -0.076996 0.05117
v 0.018536 -0.07849 0.049408
v 0.013285 -0.070172 0.056586
v 0.013285 -0.070172 0.056586
v 0.013255 -0.072123 0.055388
v 0.018536 -0.072833 0.054817
v 0.013231 -0.073957 0.05403
v 0.013231 -0.073957 0.05403
v 0.013231 -0.073957 0.05403
v 0.018536 -0.073555 0.054247
v 0.018536 -0.074984 0.05312
v 0.01332 -0.068123 0.057614
v 0.01332 -0.068123 0.057614
v 0.013361 -0.065992 0.058463
v 0.013361 -0.065992 0.058463
v 0.018536 -0.065469 0.058518
v 0.018536 -0.064069 0.058979
v 0.018536 -0.064069 0.058979
v 0.013406 -0.0638 0.059128
v 0.013406 -0.0638 0.059128
v 0.013406 -0.0638 0.059128
v 0.013508 -0.059309 0.059885
v 0.013455 -0.061566 0.059602
v 0.013455 -0.061566 0.059602
v 0.013455 -0.061566 0.059602
v 0.018536 -0.061073 0.059603
v 0.014026 -0.006503 0.059978
v 0.018536 -0.008661 0.059981
v 0.008887 -0.006707 0.059973
v 0.014109 0.003888 0.059978
v 0.014162 0.008842 0.059881
v 0.014193 0.011185 0.059586
v 0.018536 0.012877 0.059257
v 0.018536 0.012877 0.059257
v 0.014227 0.013483 0.059097
v 0.014227 0.013483 0.059097
v 0.014227 0.013483 0.059097
v 0.018536 0.013373 0.059117
v 0.014263 0.015721 0.058421
v 0.014342 0.019953 0.056533
v 0.014385 0.021918 0.055338
v 0.014385 0.021918 0.055338
v 0.014385 0.021918 0.055338
v 0.018536 0.021747 0.055486
v 0.018536 0.023132 0.054575
v 0.014532 0.027049 0.050868
v 0.014588 0.028469 0.049117
v 0.014588 0.028469 0.049117
v 0.018536 0.032348 0.042933
v 0.014736 0.031901 0.043143
v 0.014646 0.029752 0.047232
v 0.018536 0.032692 0.042096
v 0.014769 0.032738 0.040969
v 0.014795 0.033401 0.038728
v 0.009941 0.031803 0.040744
v 0.009775 0.029059 0.046944
v 0.009699 0.027884 0.048835
v 0.009699 0.027884 0.048835
v 0.009621 0.026575 0.05059
v 0.009621 0.026575 0.05059
v 0.007766 0.027508 0.04873
v 0.007824 0.028196 0.047626
v 0.009545 0.025095 0.052237
v 0.004504 0.023487 0.052793
v 0.005367 0.023891 0.052591
v 0.009472 0.023455 0.053761
v 0.009472 0.023455 0.053761
v 0.005818 0.024195 0.052384
v 0.004383 0.022676 0.053551
v -0.000779 0.021454 0.053363
v -0.000779 0.021454 0.053363
v -0.000597 0.023991 0.050246
v -8.4e-05 0.02384 0.050773
v -0.000683 0.022877 0.051789
v 0.00129 0.023436 0.051865
v 0.001413 0.0234 0.051962
v -0.005544 0.024435 0.044236
v -0.005418 0.025409 0.040665
v -0.004573 0.025161 0.04348
v -0.010423 0.023098 0.031762
v -0.006446 0.025712 0.033166
v -0.020177 0.014762 0.047294
v -0.015896 0.017581 0.047821
v -0.020165 0.014723 0.047694
v -0.016391 0.012874 0.055857
v -0.016391 0.012874 0.055857
v -0.016636 0.00965 0.058085
v -0.016636 0.00965 0.058085
v -0.019638 0.009986 0.057043
v -0.019638 0.009986 0.057043
v -0.016515 0.011337 0.057065
v -0.016515 0.011337 0.057065
v -0.016515 0.011337 0.057065
v -0.019645 0.01008 0.056977
v -0.019645 0.01008 0.056977
v -0.016751 0.007847 0.058896
v -0.019494 0.008029 0.058345
v -0.019422 0.00687 0.058861
v -0.019246 0.003335 0.059803
v -0.019266 0.003872 0.059754
v -0.016944 0.004011 0.059835
v -0.0066145 0.0042025 0.05996
v -0.014383 -0.026357 0.0599535
v -0.0124282 -0.0509097 0.0599559
v -0.019203 -0.057673 0.059849
v -0.019203 -0.057673 0.059849
v -0.012583 -0.05858 0.059836
v -0.012583 -0.05858 0.059836
v -0.012628 -0.060584 0.059475
v -0.012628 -0.060584 0.059475
v -0.012628 -0.060584 0.059475
v -0.019246 -0.059726 0.059446
v -0.019361 -0.063143 0.057966
v -0.019315 -0.062003 0.058606
v -0.01266 -0.062517 0.058882
v -0.01266 -0.062517 0.058882
v -0.019299 -0.06149 0.058805
v -0.019258 -0.060171 0.059318
v -0.01943 -0.064667 0.05694
v -0.01943 -0.064667 0.05694
v -0.01943 -0.064667 0.05694
v -0.019383 -0.063697 0.057654
v -0.019383 -0.063697 0.057654
v -0.01268 -0.064355 0.058071
v -0.01268 -0.064355 0.058071
v -0.01268 -0.064355 0.058071
v -0.01268 -0.064355 0.058071
v -0.01268 -0.064355 0.058071
v -0.01268 -0.064355 0.058071
v -0.019508 -0.066002 0.055709
v -0.019508 -0.066002 0.055709
v -0.019508 -0.066002 0.055709
v -0.019508 -0.066002 0.055709
v -0.019439 -0.064843 0.05681
v -0.019439 -0.064843 0.05681
v -0.012689 -0.066072 0.057059
v -0.012689 -0.066072 0.057059
v -0.012689 -0.066072 0.057059
v -0.012689 -0.066072 0.057059
v -0.019589 -0.067152 0.054323
v -0.019589 -0.067152 0.054323
v -0.019522 -0.066241 0.055482
v -0.019522 -0.066241 0.055482
v -0.019522 -0.066241 0.055482
v -0.012687 -0.067643 0.055868
v -0.012687 -0.067643 0.055868
v -0.012687 -0.067643 0.055868
v -0.012687 -0.067643 0.055868
v -0.012687 -0.067643 0.055868
v -0.012687 -0.067643 0.055868
v -0.012678 -0.06905 0.054516
v -0.012678 -0.06905 0.054516
v -0.012678 -0.06905 0.054516
v -0.012678 -0.06905 0.054516
v -0.012675 -0.069122 0.054396
v -0.012675 -0.069122 0.054396
v -0.013756 -0.069484 0.053638
v -0.013756 -0.069484 0.053638
v -0.017262 -0.068896 0.052887
v -0.017262 -0.068896 0.052887
v -0.01965 -0.067891 0.05323
v -0.01965 -0.067891 0.05323
v -0.01965 -0.067891 0.05323
v -0.01965 -0.067891 0.05323
v -0.019609 -0.067419 0.053983
v -0.019609 -0.067419 0.053983
v -0.019816 -0.069288 0.049729
v -0.019816 -0.069288 0.049729
v -0.019751 -0.068827 0.051186
v -0.017209 -0.069765 0.051274
v -0.017209 -0.069765 0.051274
v -0.019736 -0.068721 0.051522
v -0.01716 -0.070418 0.049577
v -0.01716 -0.070418 0.049577
v -0.01716 -0.070418 0.049577
v -0.01716 -0.070418 0.049577
v -0.019826 -0.069339 0.049483
v -0.017192 -0.070634 0.048719
v -0.019892 -0.069585 0.047723
v -0.019906 -0.069629 0.047316
v -0.019999 -0.069748 0.04373
v -0.017977 -0.070897 0.043723
v -0.020099 -0.069876 0.03988
v -0.020099 -0.069876 0.03988
v -0.018289 -0.071002 0.039797
v -0.018289 -0.071002 0.039797
v -0.020101 -0.069878 0.039731
v -0.020134 -0.069917 0.037509
v -0.020144 -0.06993 0.035755
v -0.020144 -0.06993 0.035755
v -0.019846 -0.069443 0.048981
v -0.01714 -0.070617 0.048862
v -0.016896 -0.070535 0.049541
v -0.016873 -0.070528 0.049586
v -0.016873 -0.070528 0.049586
v -0.016163 -0.07029 0.050962
v -0.007812 -0.068623 0.055986
v -0.009529 -0.068724 0.055593
v -0.009679 -0.068702 0.055583
v -0.009679 -0.068702 0.055583
v -0.009838 -0.068678 0.055571
v -0.01083 -0.068659 0.055377
v -0.011088 -0.068687 0.055294
v -0.012015 -0.068901 0.054858
v -0.012015 -0.068901 0.054858
v -0.012515 -0.069069 0.054508
v -0.012515 -0.069069 0.054508
v -0.007293 -0.069748 0.055156
v -0.007293 -0.069748 0.055156
v -0.002755 -0.06943 0.056118
v -0.002755 -0.06943 0.056118
v -0.002755 -0.06943 0.056118
v -0.002755 -0.06943 0.056118
v -0.00662 -0.070413 0.054694
v -0.002788 -0.071101 0.054816
v -0.002788 -0.071101 0.054816
v -0.002788 -0.071101 0.054816
v -0.002788 -0.071101 0.054816
v -0.006569 -0.070463 0.054659
v -0.006569 -0.070463 0.054659
v -0.007455 -0.069623 0.055233
v -0.007455 -0.069623 0.055233
v -0.00751 -0.06959 0.055251
v -0.00751 -0.06959 0.055251
v -0.00751 -0.06959 0.055251
v -0.007821 -0.069406 0.055348
v -0.007821 -0.069406 0.055348
v -0.007821 -0.069406 0.055348
v -0.002813 -0.072611 0.053371
v -0.002813 -0.072611 0.053371
v -0.005696 -0.072028 0.053264
v -0.005904 -0.071512 0.053772
v -0.005904 -0.071512 0.053772
v -0.00599 -0.07137 0.053894
v -0.006433 -0.070635 0.054526
v -0.006433 -0.070635 0.054526
v -0.002829 -0.073943 0.051801
v -0.002829 -0.073943 0.051801
v -0.005447 -0.073334 0.051692
v -0.002712 -0.067617 0.057254
v -0.007785 -0.066926 0.057151
v -0.007702 -0.063149 0.058924
v -0.007702 -0.063149 0.058924
v -0.007702 -0.063149 0.058924
v -0.002449 -0.059367 0.059855
v -0.002449 -0.059367 0.059855
v -0.00236 -0.057178 0.059964
v -0.012526 -0.056538 0.059956
v -0.005959 0.019817 0.053198
v -0.006059 0.018338 0.054675
v -0.006059 0.018338 0.054675
v -0.006059 0.018338 0.054675
v -0.000873 0.019848 0.054814
v -0.006159 0.016683 0.05601
v -0.006159 0.016683 0.05601
v -0.006159 0.016683 0.05601
v -0.000965 0.018077 0.05612
v -0.006255 0.01487 0.057177
v -0.001053 0.016159 0.057259
v -0.00128 0.009734 0.059525
v -0.006569 0.006518 0.059848
v -0.00134 0.007454 0.059856
v -0.00134 0.007454 0.059856
v -0.006621 0.004296 0.05996
v -0.001391 0.005149 0.059964
v -0.001391 0.005149 0.059964
v -0.006626 0.001845 0.05996
v -0.011208 0.01646 0.054561
v -0.011208 0.01646 0.054561
v -0.011317 0.01494 0.055921
v -0.011317 0.01494 0.055921
v -0.011317 0.01494 0.055921
v -0.011317 0.01494 0.055921
v -0.011425 0.013256 0.057111
v -0.011425 0.013256 0.057111
v -0.011425 0.013256 0.057111
v -0.011527 0.011425 0.058116
v -0.0118255 -0.003737 0.059956
v -0.0042755 -0.0357635 0.059962
v 0.004298 0.020965 0.054972
v 0.009401 0.021663 0.055148
v 0.009401 0.021663 0.055148
v 0.004216 0.019102 0.056245
v 0.004216 0.019102 0.056245
v 0.004216 0.019102 0.056245
v 0.009334 0.019735 0.056383
v 0.009334 0.019735 0.056383
v 0.009334 0.019735 0.056383
v 0.004137 0.017104 0.057352
v 0.004064 0.014988 0.058279
v 0.00921 0.01553 0.058347
v 0.00921 0.01553 0.058347
v 0.00921 0.01553 0.058347
v 0.003995 0.012777 0.059013
v 0.003995 0.012777 0.059013
v 0.009154 0.01329 0.059054
v 0.009154 0.01329 0.059054
v 0.009154 0.01329 0.059054
v 0.009102 0.010983 0.059564
v 0.009102 0.010983 0.059564
v 0.003877 0.008162 0.059864
v 0.003877 0.008162 0.059864
v 0.003877 0.008162 0.059864
v 0.009054 0.008629 0.059872
v 0.009054 0.008629 0.059872
v 0.009054 0.008629 0.059872
v 0.009054 0.008629 0.059872
v 0.0011855 -0.0007885 0.0599665
v 0.003828 0.005803 0.059969
v 0.003828 0.005803 0.059969
v 0.003828 0.005803 0.059969
v 0.009011 0.006247 0.059973
v 0.009011 0.006247 0.059973
v 0.00581448 -0.0438814 0.059971
v 0.013208 -0.079858 0.047244
v 0.013208 -0.079858 0.047244
v 0.013208 -0.079858 0.047244
v 0.013208 -0.079858 0.047244
v 0.007705 -0.079304 0.04696
v 0.007705 -0.079304 0.04696
v 0.00771 -0.076922 0.05061
v 0.00771 -0.076922 0.05061
v 0.007724 -0.075489 0.052264
v 0.007724 -0.075489 0.052264
v 0.007724 -0.075489 0.052264
v 0.007724 -0.075489 0.052264
v 0.007746 -0.073893 0.053793
v 0.007746 -0.073893 0.053793
v 0.007746 -0.073893 0.053793
v 0.007746 -0.073893 0.053793
v 0.007777 -0.072147 0.055183
v 0.007816 -0.070268 0.056419
v 0.007816 -0.070268 0.056419
v 0.007816 -0.070268 0.056419
v 0.007861 -0.068274 0.057486
v 0.007861 -0.068274 0.057486
v 0.007914 -0.066184 0.058374
v 0.007914 -0.066184 0.058374
v 0.00251 -0.068086 0.057366
v 0.00251 -0.068086 0.057366
v 0.002461 -0.069999 0.056263
v 0.002421 -0.071784 0.054992
v 0.00239 -0.07342 0.053572
v 0.00239 -0.07342 0.053572
v 0.00239 -0.07342 0.053572
v 0.002367 -0.074892 0.052022
v 0.002367 -0.074892 0.052022
v 0.002367 -0.074892 0.052022
v 0.002367 -0.074892 0.052022
v -0.007749 -0.065093 0.058137
v -0.007749 -0.065093 0.058137
v 0.002871 -0.057317 0.059969
v 0.00058575 -0.0465447 0.0599665
v 0.0121288 -0.0535305 0.0599765
v 0.020174 -0.079462 0.043645
v 0.02025 -0.079653 0.043262
v 0.019957 -0.079301 0.04397
v 0.019633 -0.079197 0.044186
v 0.019633 -0.079197 0.044186
v 0.01925 -0.079171 0.044262
v 0.02025 -0.081604 0.037504
v 0.02025 -0.081604 0.037504
v 0.02025 -0.080434 0.041283
v 0.02025 -0.080434 0.041283
v 0.02025 -0.079818 0.042921
v 0.01925 -0.077953 0.046262
v 0.01925 -0.077953 0.046262
v 0.018536 -0.077983 0.046262
v 0.018536 -0.076781 0.04791
v 0.018536 -0.076781 0.04791
v 0.02225 -0.079337 0.04373
v 0.02225 -0.079337 0.04373
v 0.02225 -0.079337 0.04373
v 0.018536 -0.0787 0.045133
v 0.022822 -0.079314 0.04373
v 0.021755 -0.0787 0.044913
v 0.021755 -0.0787 0.044913
v 0.021755 -0.0787 0.044913
v 0.022822 -0.076663 0.047817
v 0.022822 -0.076663 0.047817
v 0.021316 -0.0784 0.045438
v 0.021316 -0.0784 0.045438
v 0.020035 -0.07799 0.046158
v 0.02225 -0.079755 0.042891
v 0.0016 -0.080348 0.040526
v 0.0016 -0.080348 0.040526
v 0.0016 -0.080348 0.040526
v 0.001592 -0.080927 0.03796
v 0.001592 -0.080927 0.03796
v 0.001585 -0.081309 0.035352
v 0.001585 -0.081309 0.035352
v 0.001585 -0.081309 0.035352
v 0.00159 -0.081347 0.034763
v 0.00088 -0.08112 0.034763
v -0.00125 -0.080322 0.034763
v -0.00125 -0.080322 0.034763
v -0.002565 -0.079827 0.034269
v -0.002976 -0.079685 0.033757
v 0.006742 -0.082399 0.038009
v 0.005988 -0.082399 0.037046
v 0.005117 -0.082399 0.035408
v 0.006748 -0.081727 0.040718
v 0.006748 -0.081727 0.040718
v 0.01029 -0.082399 0.040854
v 0.013022 -0.082399 0.041981
v 0.013022 -0.082399 0.041981
v 0.020822 -0.083894 0.044956
v 0.020822 0.036348 0.03779
v 0.020822 0.035533 0.040555
v 0.020822 0.036944 0.032027
v 0.020822 0.017479 0.060137
v 0.020822 0.016698 0.060494
v 0.020822 0.014924 0.060961
v 0.020822 -0.067219 0.060165
v 0.020822 0.02664 0.054536
v 0.020822 0.025835 0.055312
v 0.020822 -0.077904 0.053389
v 0.020822 -0.076531 0.054538
v 0.020822 -0.074414 0.056311
v 0.020822 -0.073895 0.056746
v 0.020822 -0.069338 0.059384
v 0.020822 -0.072104 0.057783
v 0.020822 -0.072104 0.057783
v 0.020822 -0.083382 0.045824
v 0.020822 -0.083382 0.045824
v 0.020822 -0.083382 0.045824
v 0.020822 -0.081942 0.048264
v 0.020822 -0.081942 0.048264
v 0.020822 -0.081235 0.049463
v 0.020822 0.009623 0.061995
v 0.020822 0.006895 0.06223
v -0.023178 0.007248 0.056852
v -0.023178 0.00791 0.056478
v -0.023178 0.00916 0.055602
v -0.023178 0.011717 0.052685
v -0.023178 -0.062558 0.056362
v -0.023178 -0.066477 0.052384
v 0.00283 -0.082684 0.042307
v 0.00283 -0.082684 0.042307
v 0.00283 -0.082684 0.042307
v 0.002883 -0.081833 0.044755
v 0.002883 -0.081833 0.044755
v 0.002883 -0.081833 0.044755
v 0.002883 -0.081833 0.044755
v 4.8e-05 -0.081079 0.044571
v 4.8e-05 -0.081079 0.044571
v 4.8e-05 -0.081079 0.044571
v 4.8e-05 -0.081079 0.044571
v 0.01493 -0.070504 0.058993
v 0.01493 -0.070504 0.058993
v 0.01489 -0.072879 0.057627
v 0.01489 -0.072879 0.057627
v 0.01489 -0.072879 0.057627
v 0.01489 -0.072879 0.057627
v 0.005219 0.03146 0.044758
v 0.005219 0.03146 0.044758
v 0.015904 0.036726 0.032018
v -0.01312 -0.075541 0.045924
v -0.01312 -0.075541 0.045924
v -0.01312 -0.075541 0.045924
v -0.013052 -0.075032 0.048177
v -0.013052 -0.075032 0.048177
v -0.017861 -0.073049 0.047775
v -0.017861 -0.073049 0.047775
v -0.017861 -0.073049 0.047775
v 0.002755 -0.083861 0.03722
v 0.002787 -0.083363 0.03979
v -5.5e-05 -0.082479 0.039664
v -5.5e-05 -0.082479 0.039664
v -5.5e-05 -0.082479 0.039664
v 0.010691 0.035756 0.03201
v -0.020437 0.012391 0.057771
v -0.016857 0.013943 0.057911
v -0.016857 0.013943 0.057911
v -0.016857 0.013943 0.057911
v -0.019916 0.00907 0.060335
v -0.019916 0.00907 0.060335
v -0.019869 0.00869 0.060511
v -0.019869 0.00869 0.060511
v -0.019869 0.00869 0.060511
v -0.01684 0.009776 0.060572
v -0.01684 0.009776 0.060572
v 0.004769 0.030141 0.047357
v 0.004769 0.030141 0.047357
v 0.0052 0.030394 0.047117
v 0.0052 0.030394 0.047117
v 0.005133 0.026106 0.053562
v 0.005133 0.026106 0.053562
v 0.005133 0.026106 0.053562
v -0.012655 -0.072073 0.054534
v -0.01281 -0.072044 0.054531
v -0.011056 -0.070965 0.056332
v -0.01065 -0.070918 0.056479
v -0.01065 -0.070918 0.056479
v -0.01272 -0.070482 0.056378
v -0.01272 -0.070482 0.056378
v -0.01272 -0.070482 0.056378
v -0.008237 -0.075305 0.051716
v -0.008237 -0.075305 0.051716
v -0.008634 -0.075697 0.050711
v -0.008634 -0.075697 0.050711
v -0.007861 -0.075936 0.050774
v -0.007861 -0.075936 0.050774
v -0.007861 -0.075936 0.050774
v -0.007861 -0.075936 0.050774
v -0.012809 -0.075019 0.048588
v -0.012809 -0.075018 0.048591
v -0.013069 -0.07441 0.050111
v -0.013069 -0.07441 0.050111
v -0.017811 -0.072585 0.050007
v -0.017811 -0.072585 0.050007
v -0.017811 -0.072585 0.050007
v -0.013086 -0.074286 0.050377
v -0.013086 -0.074286 0.050377
v -0.013086 -0.074286 0.050377
v -0.013178 -0.073643 0.051763
v -0.013178 -0.073643 0.051763
v -0.010906 -0.076351 0.046555
v -0.010676 -0.07714 0.043834
v -0.010676 -0.07714 0.043834
v -0.010676 -0.07714 0.043834
v -0.011416 -0.076209 0.046272
v -0.01318 -0.075988 0.04365
v -0.01318 -0.075988 0.04365
v -0.01318 -0.075988 0.04365
v -0.01318 -0.075988 0.04365
v -0.011634 -0.076114 0.046275
v -0.011634 -0.076114 0.046275
v -0.011802 -0.076023 0.046346
v -0.011829 -0.076009 0.046357
v -0.009668 -0.076274 0.048444
v -0.010278 -0.076389 0.047329
v -0.010278 -0.076389 0.047329
v -0.008096 -0.078237 0.044018
v -0.008096 -0.078237 0.044018
v -0.008096 -0.078237 0.044018
v -0.010353 -0.076392 0.047216
v -0.010353 -0.076392 0.047216
v -0.010353 -0.076392 0.047216
v -0.010427 -0.076386 0.047127
v -0.010427 -0.076386 0.047127
v -0.010427 -0.076386 0.047127
v -0.010583 -0.076375 0.046941
v -0.010583 -0.076375 0.046941
v -0.010583 -0.076375 0.046941
v -0.007947 -0.076861 0.048578
v -0.007947 -0.076861 0.048578
v -0.007947 -0.076861 0.048578
v -0.009574 -0.076257 0.048615
v -0.007767 -0.074726 0.052871
v -0.007898 -0.074686 0.052859
v -0.008072 -0.075003 0.052274
v -0.007685 -0.073519 0.054504
v -0.007685 -0.073519 0.054504
v -0.007681 -0.073643 0.054356
v -0.007681 -0.073643 0.054356
v -0.0023 -0.074232 0.055137
v -0.0023 -0.074232 0.055137
v -0.0023 -0.074232 0.055137
v -0.0023 -0.074232 0.055137
v -0.009018 -0.071281 0.056521
v -0.007563 -0.07151 0.056628
v -0.007563 -0.07151 0.056628
v -0.007563 -0.07151 0.056628
v -0.007563 -0.07151 0.056628
v -0.007858 -0.072663 0.055424
v -0.007667 -0.073244 0.054834
v -0.007667 -0.073244 0.054834
v -0.012626 -0.068672 0.058027
v -0.012626 -0.068672 0.058027
v -0.010432 -0.070893 0.056558
v -0.0092 -0.071206 0.05655
v -0.009055 -0.071266 0.056527
v -0.009055 -0.071266 0.056527
v -0.013126 -0.073251 0.052499
v -0.017757 -0.071803 0.052173
v -0.017757 -0.071803 0.052173
v -0.013082 -0.072922 0.053117
v -0.0177 -0.070712 0.054228
v -0.0177 -0.070712 0.054228
v -0.0177 -0.070712 0.054228
v -0.0177 -0.070712 0.054228
v -0.012933 -0.07251 0.053829
v -0.012933 -0.07251 0.053829
v -0.01283 -0.072347 0.054092
v -0.000323 0.029506 0.044386
v -0.000348 0.027577 0.04898
v 0.001019 0.026122 0.052152
v 0.001809 0.02564 0.053078
v 0.001595 0.025737 0.052882
v -0.000378 0.024852 0.053221
v -0.000378 0.024852 0.053221
v -0.000378 0.024852 0.053221
v -0.000378 0.024852 0.053221
v -0.000378 0.024852 0.053221
v -0.000378 0.024852 0.053221
v 0.001458 0.025828 0.052708
v 0.001458 0.025828 0.052708
v 0.005108 0.024214 0.055429
v 0.005108 0.024214 0.055429
v -0.000395 0.023099 0.05514
v -0.000395 0.023099 0.05514
v -0.000395 0.023099 0.05514
v 0.002449 0.025472 0.053491
v 0.002283 0.025516 0.053384
v 0.002283 0.025516 0.053384
v 0.004811 0.026295 0.053262
v 0.004405 0.025968 0.053516
v 0.004405 0.025968 0.053516
v 0.010573 0.028642 0.051918
v 0.010573 0.028642 0.051918
v 0.005536 0.027742 0.0517
v 0.010546 0.026849 0.053902
v 0.010546 0.026849 0.053902
v 0.010546 0.026849 0.053902
v 0.010546 0.026849 0.053902
v 0.005299 0.026997 0.052576
v 0.005246 0.026894 0.052685
v 0.010597 0.030214 0.049783
v 0.01062 0.031591 0.047516
v 0.01062 0.031591 0.047516
v 0.003826 0.030757 0.045318
v 0.004116 0.030624 0.045864
v 0.004192 0.030568 0.046038
v 0.001734 0.030721 0.043329
v 0.002482 0.032062 0.039671
v 0.001479 0.030595 0.043399
v -0.000304 0.030882 0.03954
v 0.005247 0.033085 0.039802
v -0.001943 -0.082523 0.034639
v -0.002837 -0.081484 0.039538
v -0.002837 -0.081484 0.039538
v -0.002897 -0.08215 0.034525
v -0.002561 -0.082304 0.034273
v -0.003223 -0.082092 0.033093
v -0.008263 -0.079733 0.034434
v -0.008263 -0.079733 0.034434
v -0.004941 -0.081377 0.031762
v -0.008263 -0.079788 0.031762
v -0.003003 -0.082156 0.033726
v -0.0029 -0.08219 0.033852
v -0.020259 -0.072664 0.034206
v -0.020259 -0.072664 0.034206
v -0.018042 -0.07414 0.034251
v -0.018042 -0.07414 0.034251
v -0.017416 -0.074578 0.031762
v -0.021303 -0.071799 0.040526
v -0.020873 -0.07169 0.047508
v -0.020737 -0.07151 0.049382
v -0.020737 -0.07151 0.049382
v -0.020515 -0.070832 0.051957
v -0.01764 -0.06933 0.056129
v -0.01764 -0.06933 0.056129
v -0.0201 -0.068684 0.055981
v -0.0201 -0.068684 0.055981
v -0.020153 -0.069054 0.055516
v -0.020153 -0.069054 0.055516
v -0.020153 -0.069054 0.055516
v -0.020279 -0.069777 0.054358
v -0.02031 -0.069923 0.05405
v -0.020465 -0.070657 0.052506
v -0.017578 -0.067681 0.057834
v -0.017578 -0.067681 0.057834
v -0.019893 -0.067156 0.057716
v -0.019893 -0.067156 0.057716
v -0.019893 -0.067156 0.057716
v -0.01253 -0.066641 0.059443
v -0.01253 -0.066641 0.059443
v -0.01253 -0.066641 0.059443
v -0.0197 -0.065369 0.059218
v -0.019787 -0.066266 0.058565
v -0.019787 -0.066266 0.058565
v -0.012432 -0.064423 0.060597
v -0.012432 -0.064423 0.060597
v -0.012432 -0.064423 0.060597
v -0.012432 -0.064423 0.060597
v -0.012432 -0.064423 0.060597
v -0.019529 -0.063355 0.060448
v -0.019529 -0.063355 0.060448
v -0.019632 -0.064662 0.059734
v -0.019632 -0.064662 0.059734
v -0.019632 -0.064662 0.059734
v -0.019632 -0.064662 0.059734
v -0.012334 -0.062055 0.06146
v -0.012334 -0.062055 0.06146
v -0.012334 -0.062055 0.06146
v -0.012334 -0.062055 0.06146
v -0.019384 -0.061158 0.061379
v -0.019384 -0.061158 0.061379
v -0.019384 -0.061158 0.061379
v -0.019384 -0.061158 0.061379
v -0.019384 -0.061158 0.061379
v -0.019487 -0.062824 0.060738
v -0.012236 -0.059578 0.062012
v -0.019326 -0.060081 0.061716
v -0.019326 -0.060081 0.061716
v -0.019365 -0.060842 0.0615
v -0.019365 -0.060842 0.0615
v -0.019365 -0.060842 0.0615
v -0.012139 -0.057036 0.062237
v -0.019207 0.001911 0.06223
v -0.016814 0.002543 0.062233
v -0.016814 0.002543 0.062233
v -0.016783 -0.00721 0.062238
v -0.016822 0.005016 0.06201
v -0.019385 0.004243 0.062007
v -0.019211 0.001971 0.062229
v -0.016831 0.007445 0.061454
v -0.019678 0.007168 0.061216
v -0.016848 0.011958 0.059381
v -0.020291 0.011569 0.058595
v -0.020291 0.011569 0.058595
v -0.020149 0.010653 0.059282
v -0.020149 0.010653 0.059282
v -0.020038 0.009939 0.059816
v -0.020686 0.013727 0.056249
v -0.016866 0.015686 0.056194
v -0.016866 0.015686 0.056194
v -0.020912 0.014794 0.054563
v -0.02097 0.015033 0.054039
v -0.016882 0.018322 0.052198
v -0.016882 0.018322 0.052198
v -0.016882 0.018322 0.052198
v -0.02119 0.01589 0.051915
v -0.016889 0.019168 0.050015
v -0.021368 0.01641 0.049689
v -0.021368 0.01641 0.049689
v -0.021249 0.016096 0.051271
v -0.021249 0.016096 0.051271
v -0.000294 0.031616 0.034529
v 0.005992 0.034338 0.031762
v 0.005265 0.034075 0.032002
v 0.017751 0.036898 0.031762
v 0.014695 -0.083546 0.045491
v 0.014695 -0.083546 0.045491
v 0.014695 -0.083546 0.045491
v 0.014695 -0.083546 0.045491
v 0.014695 -0.083546 0.045491
v 0.018282 -0.083894 0.045056
v 0.018282 -0.083894 0.045056
v 0.0126 -0.083894 0.04431
v 0.0126 -0.083894 0.04431
v 0.01336 -0.083894 0.044494
v 0.008304 -0.083894 0.042606
v 0.008703 -0.082975 0.045123
v 0.008703 -0.082975 0.045123
v 0.008703 -0.082975 0.045123
v 0.004772 -0.083894 0.039876
v 0.005929 -0.083894 0.040996
v -0.00125 -0.08278 0.034763
v 0.002897 -0.083894 0.037224
v -0.005555 -0.080392 0.039412
v -0.008204 -0.079217 0.039286
v -0.008204 -0.079217 0.039286
v -0.013274 -0.076668 0.039033
v -0.013274 -0.076668 0.039033
v -0.013274 -0.076668 0.039033
v -0.005295 -0.077689 0.048779
v -0.005295 -0.077689 0.048779
v -0.002494 -0.077301 0.051157
v -0.002494 -0.077301 0.051157
v -0.007679 -0.073714 0.054271
v -0.001975 -0.06796 0.059718
v -0.007343 -0.067386 0.05958
v -0.002087 -0.07024 0.058413
v -0.002087 -0.07024 0.058413
v -0.002195 -0.072339 0.056878
v -0.002195 -0.072339 0.056878
v -0.020198 -0.072333 0.043097
v -0.020198 -0.072333 0.043097
v -0.018008 -0.073944 0.038781
v -0.017946 -0.073572 0.043282
v -0.017946 -0.073572 0.043282
v -0.017946 -0.073572 0.043282
v -0.017946 -0.073572 0.043282
v -0.020878 -0.071695 0.047446
v -0.017906 -0.073327 0.045527
v -0.017906 -0.073327 0.045527
v -0.017906 -0.073327 0.045527
v -0.001862 -0.065531 0.06077
v -0.001862 -0.065531 0.06077
v -0.001634 -0.060363 0.062047
v -0.001634 -0.060363 0.062047
v -0.001634 -0.060363 0.062047
v -0.001748 -0.062987 0.061551
v -0.003131 0.026573 0.048779
v -0.005976 0.004905 0.062242
v -0.000524 0.005778 0.062247
v -0.000524 0.005778 0.062247
v -0.00597 0.007614 0.062036
v -0.00597 0.007614 0.062036
v -0.000506 0.008561 0.062049
v -0.000506 0.008561 0.062049
v -0.005963 0.010283 0.061524
v -0.000487 0.011303 0.061559
v -0.000487 0.011303 0.061559
v -0.000468 0.013966 0.060781
v -0.005951 0.01532 0.059613
v -0.000449 0.016511 0.059729
v -0.000449 0.016511 0.059729
v -0.005944 0.017606 0.058253
v -0.000431 0.018903 0.058423
v -0.000431 0.018903 0.058423
v -0.000431 0.018903 0.058423
v -0.000431 0.018903 0.058423
v -0.005938 0.019687 0.056654
v -0.005938 0.019687 0.056654
v -0.000413 0.021108 0.056884
v -0.000413 0.021108 0.056884
v -0.000413 0.021108 0.056884
v -0.000413 0.021108 0.056884
v -0.005932 0.021533 0.054852
v -0.005932 0.021533 0.054852
v -0.005927 0.023118 0.05288
v -0.005927 0.023118 0.05288
v -0.005927 0.023118 0.05288
v -0.005921 0.024423 0.050776
v -0.011461 0.023894 0.043642
v -0.014192 0.0213 0.047976
v -0.011449 0.020931 0.052539
v -0.011445 0.019543 0.054563
v -0.011441 0.017871 0.056424
v -0.011437 0.015945 0.058082
v -0.011437 0.015945 0.058082
v -0.011432 0.013795 0.059497
v -0.011424 0.008991 0.061489
v -0.011424 0.008991 0.061489
v -0.011419 0.006428 0.062023
v -0.011415 0.003822 0.062238
v -0.0114 -0.006483 0.062242
v -0.011465 0.024677 0.039017
v -0.016916 0.020749 0.038755
v -0.016908 0.020307 0.04327
v -0.014203 0.022162 0.043456
v 0.015613 0.007001 0.062261
v 0.015636 0.009803 0.062089
v 0.01566 0.012562 0.061663
v 0.015683 0.015256 0.060989
v 0.015683 0.015256 0.060989
v 0.015707 0.017865 0.060077
v 0.015707 0.017865 0.060077
v 0.015707 0.017865 0.060077
v 0.01573 0.020368 0.058935
v 0.015775 0.02498 0.056006
v 0.015816 0.028947 0.052298
v 0.015835 0.030648 0.050184
v 0.015852 0.032161 0.047914
v 0.015796 0.027052 0.054243
v 0.015796 0.027052 0.054243
v 0.015898 0.036162 0.037605
v 0.015879 0.034606 0.042966
v 0.013311 0.035159 0.040195
v 0.013282 0.033226 0.045316
v 0.010671 0.034638 0.040064
v 0.010682 0.03524 0.037419
v 0.005256 0.033618 0.037234
v 0.005256 0.033618 0.037234
v 0.005256 0.033618 0.037234
v 0.005262 0.03395 0.034628
v 0.005081 0.022108 0.057114
v 0.005081 0.022108 0.057114
v 0.005053 0.019811 0.058594
v 0.005053 0.019811 0.058594
v 0.005053 0.019811 0.058594
v 0.005053 0.019811 0.058594
v 0.005025 0.017347 0.059845
v 0.005025 0.017347 0.059845
v 0.005025 0.017347 0.059845
v 0.004967 0.012035 0.061593
v 0.004911 0.006428 0.062252
v 0.01475 -0.080751 0.050184
v 0.01475 -0.080751 0.050184
v 0.014721 -0.082239 0.047911
v 0.014815 -0.077185 0.054267
v 0.014815 -0.077185 0.054267
v 0.014852 -0.075114 0.056047
v 0.014781 -0.07907 0.052306
v 0.01497 -0.068012 0.06013
v 0.01497 -0.068012 0.06013
v 0.01497 -0.068012 0.06013
v 0.01497 -0.068012 0.06013
v 0.015012 -0.065431 0.061031
v 0.015012 -0.065431 0.061031
v 0.015012 -0.065431 0.061031
v 0.015053 -0.062788 0.061688
v 0.015053 -0.062788 0.061688
v 0.015095 -0.060109 0.062098
v 0.002944 -0.080826 0.047116
v 0.002944 -0.080826 0.047116
v 0.002944 -0.080826 0.047116
v 0.003014 -0.07968 0.049381
v 0.003014 -0.07968 0.049381
v 0.00019 -0.07911 0.04918
v 0.00019 -0.07911 0.04918
v 0.00019 -0.07911 0.04918
v 0.003091 -0.078338 0.05154
v 0.003091 -0.078338 0.05154
v 0.003091 -0.078338 0.05154
v -0.002581 -0.078442 0.04898
v -0.002581 -0.078442 0.04898
v -0.002581 -0.078442 0.04898
v -0.002581 -0.078442 0.04898
v -0.002729 -0.08022 0.044386
v -0.002729 -0.08022 0.044386
v -0.005446 -0.079268 0.044202
v -0.005446 -0.079268 0.044202
v 0.00875 -0.081809 0.047514
v 0.00875 -0.081809 0.047514
v 0.008802 -0.080481 0.049783
v 0.008802 -0.080481 0.049783
v 0.008802 -0.080481 0.049783
v 0.00886 -0.078958 0.051923
v 0.00886 -0.078958 0.051923
v 0.008922 -0.077207 0.053918
v 0.008989 -0.075248 0.055744
v 0.003354 -0.072894 0.057127
v 0.003354 -0.072894 0.057127
v 0.009058 -0.073099 0.057377
v 0.009058 -0.073099 0.057377
v 0.00913 -0.070788 0.058799
v 0.003548 -0.068299 0.059855
v 0.009205 -0.068338 0.059993
v 0.003648 -0.065792 0.060857
v 0.00928 -0.065779 0.060944
v 0.00928 -0.065779 0.060944
v 0.003749 -0.063187 0.061597
v 0.003749 -0.063187 0.061597
v 0.009356 -0.063139 0.061642
v 0.009356 -0.063139 0.061642
v 0.003849 -0.060517 0.062064
v 0.003849 -0.060517 0.062064
v 0.003849 -0.060517 0.062064
v 0.009431 -0.060449 0.062081
v 0.009431 -0.060449 0.062081
v 0.009431 -0.060449 0.062081
v 0.003948 -0.057817 0.062252
v 0.0103 0.00684 0.062257
v 0.010331 0.009671 0.062076
v 0.010362 0.012461 0.061628
v 0.010394 0.015181 0.06092
v 0.010394 0.015181 0.06092
v 0.010426 0.017805 0.059961
v 0.010426 0.017805 0.059961
v 0.010426 0.017805 0.059961
v 0.010457 0.020308 0.058765
v 0.010457 0.020308 0.058765
v 0.010488 0.022663 0.057344
v 0.010488 0.022663 0.057344
v 0.010517 0.02485 0.055718
v -0.022092 -0.070815 0.047406
v -0.022967 -0.069777 0.037506
v -0.022953 -0.069733 0.040455
v -0.022953 -0.069733 0.040455
v -0.022304 -0.070906 0.040496
v -0.022304 -0.070906 0.040496
v -0.020892 -0.068431 0.039834
v -0.020892 0.001729 0.058234
v -0.020892 0.007687 0.056611
v -0.020892 0.005691 0.057529
v -0.020892 -0.067894 0.04868
v -0.020801 -0.069045 0.03749
v -0.020797 -0.068993 0.039852
v -0.020539 -0.069536 0.037501
v -0.020539 -0.069536 0.037501
v -0.020426 -0.069252 0.047307
v -0.020771 -0.06871 0.047272
v -0.021197 0.001956 0.061683
v -0.021197 0.001956 0.061683
v -0.021296 0.004146 0.061413
v -0.021343 0.00503 0.061211
v -0.02146 0.006934 0.060574
v -0.02146 0.006934 0.060574
v -0.02159 0.008727 0.059679
v -0.021656 0.009541 0.059161
v -0.021656 0.009541 0.059161
v -0.02179 0.011059 0.057962
v -0.02179 0.011059 0.057962
v -0.022109 0.01404 0.054103
v -0.022109 0.01404 0.054103
v -0.02221 0.014808 0.052386
v -0.022277 0.015244 0.051
v -0.022348 0.015601 0.049188
v -0.022689 0.004714 0.059798
v -0.022777 0.008816 0.057969
v -0.022777 0.008816 0.057969
v -0.022814 0.010205 0.0569
v -0.022851 0.011428 0.055658
v -0.022901 0.012965 0.053447
v -0.022901 0.012965 0.053447
v -0.022928 0.013693 0.051898
v -0.02118 -0.055605 0.061699
v -0.022021 -0.070656 0.049217
v -0.022877 -0.069387 0.04897
v -0.021971 -0.07044 0.050349
v -0.021881 -0.069886 0.052176
v -0.021784 -0.069081 0.053942
v -0.021717 -0.068415 0.055054
v -0.021717 -0.068415 0.055054
v -0.021717 -0.068415 0.055054
v -0.021717 -0.068415 0.055054
v -0.021618 -0.067228 0.056609
v -0.021618 -0.067228 0.056609
v -0.02152 -0.065818 0.058013
v -0.021434 -0.064307 0.059164
v -0.021434 -0.064307 0.059164
v -0.021354 -0.062561 0.060163
v -0.021285 -0.060667 0.060931
v -0.021285 -0.060667 0.060931
v -0.021285 -0.060667 0.060931
v -0.021263 -0.059936 0.061151
v -0.021212 -0.057878 0.061566
v -0.021212 -0.057878 0.061566
v -0.022864 -0.069178 0.049997
v -0.022813 -0.06791 0.053241
v -0.022813 -0.06791 0.053241
v -0.022794 -0.067296 0.054244
v -0.022794 -0.067296 0.054244
v -0.022794 -0.067296 0.054244
v -0.022767 -0.066208 0.055645
v -0.022715 -0.063547 0.057946
v -0.022692 -0.06196 0.058848
v -0.022666 -0.059575 0.05974
v -0.022652 -0.057705 0.060116
v -0.022652 -0.057705 0.060116
v -0.02023 0.008364 0.057782
v -0.020151 0.006159 0.05886
v -0.020151 0.006159 0.05886
v -0.020151 0.006159 0.05886
v -0.020662 0.000395 0.059092
v -0.020664 0.001743 0.059088
v -0.020098 0.00433 0.0594
v -0.020211 0.007882 0.058063
v -0.020292 0.009865 0.056705
v -0.020717 0.008064 0.057263
v -0.020717 0.008064 0.057263
v -0.020712 0.007602 0.057529
v -0.020712 0.007602 0.057529
v -0.020712 0.007602 0.057529
v -0.020695 0.005955 0.058281
v -0.020695 0.005955 0.058281
v -0.020695 0.005955 0.058281
v -0.02068 0.004206 0.058791
v -0.02068 0.004206 0.058791
v -0.02068 0.004206 0.058791
v -0.020036 -0.055605 0.05972
v -0.020662 -0.055605 0.059092
v -0.02005 -0.057644 0.059612
v -0.020763 -0.068534 0.048804
v -0.020381 -0.06893 0.049637
v -0.020381 -0.06893 0.049637
v -0.020339 -0.068389 0.051383
v -0.020339 -0.068389 0.051383
v -0.020273 -0.067139 0.053789
v -0.020273 -0.067139 0.053789
v -0.020273 -0.067139 0.053789
v -0.020294 -0.067593 0.053052
v -0.020227 -0.066004 0.055262
v -0.020227 -0.066004 0.055262
v -0.020227 -0.066004 0.055262
v -0.020227 -0.066004 0.055262
v -0.020181 -0.064652 0.056573
v -0.020181 -0.064652 0.056573
v -0.020181 -0.064652 0.056573
v -0.020181 -0.064652 0.056573
v -0.020181 -0.064652 0.056573
v -0.020151 -0.063538 0.057411
v -0.020151 -0.063538 0.057411
v -0.020113 -0.061888 0.05836
v -0.020113 -0.061888 0.05836
v -0.020113 -0.061888 0.05836
v -0.020759 -0.068388 0.049499
v -0.020759 -0.068388 0.049499
v -0.020748 -0.06786 0.051164
v -0.020729 -0.066654 0.053453
v -0.020716 -0.065563 0.054854
v -0.020716 -0.065563 0.054854
v -0.020704 -0.064268 0.0561
v -0.020695 -0.063202 0.056896
v -0.020684 -0.061624 0.057799
v -0.020684 -0.061624 0.057799
v -0.020081 -0.060096 0.059074
v -0.020081 -0.060096 0.059074
v -0.020073 -0.059567 0.05923
v -0.010428 -0.070893 0.040262
v -0.013178 -0.073643 0.040262
v -0.011803 -0.076024 0.040262
v -0.010428 -0.076393 0.040262
v -0.010428 -0.076393 0.040262
v -0.009053 -0.076024 0.040262
v 0.005206 0.029571 0.040262
v 0.004199 0.030578 0.040262
v 0.021848 -0.075 0.044762
v 0.00148775 -0.075 0.044712
v -0.00525 -0.075 0.043262
v 0.02225 -0.081366 0.038465
v 0.02225 -0.081091 0.039416
v 0.02225 -0.081091 0.039416
v 0.02225 -0.081091 0.039416
v 0.02225 -0.08078 0.040356
f 1 5 2
f 3 6 4
f 11 12 13
f 8 7 14
f 15 16 17
f 10 18 9
f 19 20 21
f 24 22 23
f 26 25 27
f 31 29 30
f 30 28 31
f 31 28 29
f 35 33 34
f 34 32 35
f 35 32 33
f 39 37 38
f 38 36 39
f 39 36 37
f 43 41 42
f 42 40 43
f 43 40 41
f 46 45 44
f 51 52 53
f 55 54 56
f 59 57 58
f 58 57 60
f 58 60 59
f 63 64 67
f 67 64 68
f 70 74 71
f 72 73 75
f 69 66 76
f 77 78 79
f 80 82 84
f 83 81 85
f 86 87 88
f 90 91 93
f 94 89 95
f 50 99 101
f 103 47 104
f 107 106 109
f 112 113 114
f 115 118 120
f 123 122 124
f 61 126 125
f 61 59 126
f 126 59 60
f 127 65 62
f 126 60 125
f 166 167 168
f 130 131 136
f 139 176 177
f 172 135 134
f 173 133 132
f 179 180 178
f 174 181 171
f 175 182 183
f 223 226 220
f 219 224 227
f 233 231 237
f 222 239 225
f 229 232 240
f 241 234 242
f 247 197 144
f 190 138 142
f 250 252 253
f 251 254 255
f 257 259 258
f 261 188 187
f 262 186 263
f 216 265 274
f 270 278 280
f 279 256 249
f 271 285 287
f 283 289 291
f 284 292 286
f 272 269 273
f 294 275 277
f 295 290 288
f 299 196 246
f 298 245 297
f 296 243 235
f 293 218 217
f 301 184 300
f 184 301 266
f 202 302 304
f 202 304 204
f 204 304 203
f 305 306 309
f 308 307 310
f 311 185 189
f 312 192 193
f 194 191 260
f 313 316 317
f 195 282 281
f 314 268 315
f 318 267 276
f 301 300 266
f 303 274 265
f 303 265 216
f 304 302 203
f 319 264 320
f 323 221 324
f 236 326 238
f 329 322 331
f 330 321 325
f 332 327 333
f 228 328 230
f 335 336 244
f 164 334 248
f 341 342 343
f 344 337 346
f 338 121 340
f 347 339 345
f 111 117 348
f 349 116 119
f 161 350 351
f 352 353 162
f 162 102 105
f 110 108 162
f 358 160 155
f 357 154 359
f 148 360 153
f 157 361 356
f 145 92 149
f 363 364 365
f 365 364 367
f 366 368 369
f 374 370 371
f 371 362 374
f 374 362 370
f 378 376 377
f 377 375 378
f 378 375 376
f 379 169 380
f 380 169 140
f 380 140 141
f 372 152 373
f 383 384 387
f 386 390 393
f 394 399 401
f 404 405 406
f 411 414 398
f 397 415 416
f 408 421 424
f 407 422 402
f 426 428 425
f 430 431 434
f 437 439 444
f 433 445 447
f 432 448 429
f 449 452 443
f 442 451 453
f 450 455 456
f 460 459 462
f 461 463 458
f 468 205 200
f 469 201 199
f 209 208 466
f 467 207 206
f 213 476 214
f 475 212 215
f 198 474 472
f 471 210 473
f 477 211 470
f 385 382 482
f 488 354 355
f 48 484 493
f 419 495 420
f 487 492 486
f 485 497 498
f 494 504 506
f 510 413 512
f 513 412 409
f 511 410 516
f 519 403 423
f 496 509 508
f 520 507 503
f 518 505 501
f 517 502 515
f 514 500 499
f 522 489 490
f 526 491 529
f 527 395 524
f 525 396 417
f 523 418 521
f 528 530 400
f 483 531 96
f 532 534 533
f 388 535 389
f 392 391 536
f 538 537 540
f 541 539 542
f 547 543 544
f 548 545 546
f 479 381 481
f 550 478 551
f 97 98 480
f 549 100 49
f 464 553 465
f 457 557 559
f 454 561 563
f 438 562 441
f 440 564 446
f 435 569 436
f 571 579 572
f 573 580 582
f 574 585 587
f 575 592 576
f 577 570 568
f 578 567 581
f 583 566 565
f 584 560 558
f 586 556 588
f 589 555 590
f 591 554 552
f 128 129 427
f 615 616 617
f 626 627 628
f 638 639 640
f 642 637 643
f 644 641 646
f 648 647 649
f 651 650 652
f 655 656 657
f 636 663 667
f 634 668 669
f 629 670 658
f 675 674 678
f 664 679 666
f 684 682 686
f 685 683 687
f 691 694 689
f 696 697 695
f 695 697 698
f 695 698 696
f 701 700 704
f 702 705 706
f 712 711 713
f 717 718 720
f 724 729 730
f 733 736 735
f 740 741 742
f 738 743 744
f 746 747 745
f 749 622 748
f 750 751 752
f 760 757 762
f 767 768 769
f 772 916 771
f 623 625 773
f 774 624 775
f 779 785 786
f 788 790 793
f 808 811 816
f 809 820 823
f 827 832 826
f 825 831 834
f 839 840 828
f 851 850 853
f 852 854 855
f 847 859 846
f 860 845 841
f 861 842 862
f 835 838 844
f 843 864 863
f 870 871 814
f 815 872 821
f 822 873 875
f 819 874 824
f 876 878 882
f 865 891 896
f 883 899 900
f 901 902 885
f 884 903 887
f 906 907 897
f 877 889 881
f 791 781 796
f 795 784 911
f 910 783 778
f 914 777 776
f 918 739 921
f 929 928 930
f 932 931 933
f 935 770 976
f 936 917 919
f 938 920 924
f 941 922 943
f 942 923 926
f 946 770 935
f 946 935 976
f 982 1021 976
f 753 937 939
f 754 940 761
f 759 944 756
f 755 945 764
f 772 771 947
f 737 732 734
f 952 949 956
f 958 961 962
f 963 960 966
f 970 968 974
f 971 973 979
f 978 972 980
f 925 948 951
f 927 953 957
f 934 969 977
f 659 660 630
f 631 984 633
f 985 987 632
f 635 990 662
f 665 989 991
f 677 993 997
f 676 998 673
f 671 999 1000
f 672 1002 680
f 681 1001 1004
f 688 1006 621
f 692 620 619
f 693 618 690
f 1008 1005 1003
f 1012 996 1014
f 1017 995 992
f 1015 994 645
f 653 988 983
f 654 986 661
f 805 787 792
f 804 797 1018
f 1019 794 912
f 1020 913 915
f 1022 1021 982
f 1016 905 1011
f 1013 898 1010
f 1009 886 880
f 1007 879 908
f 810 798 817
f 813 799 806
f 818 807 909
f 916 772 947
f 1022 982 976
f 699 981 975
f 703 967 965
f 707 964 959
f 708 955 710
f 709 954 950
f 714 731 727
f 715 728 726
f 716 725 719
f 721 723 722
f 137 170 607
f 607 170 594
f 608 593 595
f 1035 1036 1038
f 1028 1042 1026
f 1025 1027 1039
f 1043 1046 1047
f 1048 1044 1050
f 1034 1037 1051
f 1052 1033 1041
f 1040 1024 1023
f 1055 610 605
f 611 1053 1056
f 1058 1062 1064
f 1059 1063 613
f 612 1065 1066
f 1067 1068 1057
f 1069 1061 1060
f 1072 601 599
f 1073 600 598
f 1074 597 596
f 1071 604 603
f 1071 603 602
f 1070 1054 606
f 1107 1109 1114
f 1117 1120 1091
f 1127 1129 1132
f 1145 1148 1149
f 1160 1162 1165
f 1167 1169 1172
f 1174 1175 1130
f 1179 1176 1182
f 1180 1183 1185
f 1200 1205 1203
f 1204 1207 1209
f 1188 1210 1212
f 1187 1213 1186
f 1214 1217 1199
f 1218 1219 1173
f 1171 1220 1166
f 1221 1223 1228
f 1233 1234 1236
f 1231 1240 1242
f 1232 1241 1229
f 1159 1158 1163
f 1184 1243 1245
f 1249 1246 1251
f 1247 1252 1253
f 1263 1258 1266
f 1264 1272 1273
f 1262 1274 1257
f 1157 1275 1276
f 1156 1277 1267
f 1279 1280 1284
f 1281 1285 1286
f 1290 1291 1124
f 1306 609 1307
f 1303 1308 1305
f 1301 1309 1302
f 1311 163 1312
f 1313 143 1314
f 1317 1131 1178
f 1324 1327 1250
f 1248 1328 1244
f 1342 1346 1351
f 1353 1356 1345
f 1343 1357 1361
f 1354 1364 1366
f 1352 1365 1358
f 1378 1380 1381
f 1384 1143 1386
f 1389 1395 1397
f 1390 1396 1392
f 1139 1399 1400
f 1401 1125 1078
f 1409 1411 1403
f 1416 1417 1108
f 1418 1136 1298
f 1134 1419 1135
f 1304 1422 1425
f 1216 1426 1429
f 1224 1430 1227
f 1215 1170 1168
f 1431 1432 1434
f 1436 1230 1225
f 1226 1235 1222
f 1438 1315 1310
f 1439 1442 1437
f 1192 1198 1126
f 1445 1128 1133
f 1339 1334 1337
f 1336 1333 1330
f 1237 1331 1321
f 1238 1320 1164
f 1450 1368 1362
f 1449 1355 1341
f 1335 1344 1350
f 1254 1454 1255
f 1455 1457 1458
f 1462 1461 1463
f 1466 1468 1469
f 1475 1470 1477
f 1481 1476 1271
f 1480 1269 1483
f 1484 1270 1260
f 1482 1261 1485
f 1265 1256 1259
f 1488 1393 1391
f 1492 1385 1142
f 1491 1141 1493
f 1494 1150 1376
f 1497 1373 1370
f 1498 1371 1372
f 1499 1500 1501
f 1486 1502 1487
f 1504 1099 1098
f 1507 1081 1509
f 1508 1080 1079
f 1516 1084 1083
f 1076 1518 1077
f 1519 1520 1521
f 1522 1523 1526
f 1295 1293 1296
f 1525 1294 1297
f 1289 1123 1153
f 1154 1292 1151
f 1496 1459 1495
f 1490 1474 1489
f 1398 1524 1527
f 1528 1479 1533
f 1531 1478 1473
f 1532 1472 1534
f 1535 1471 1467
f 1537 1465 1464
f 1538 1460 1456
f 1095 1406 1093
f 1094 1405 1407
f 1092 1408 1075
f 1544 1087 1121
f 1122 1088 1090
f 1096 1097 1539
f 1542 1085 1086
f 1118 1089 1547
f 1548 1082 1551
f 1557 1559 1562
f 1563 1565 1567
f 1112 1558 1113
f 1571 1561 1568
f 1138 1106 1116
f 1137 1115 1299
f 1300 1572 1420
f 1111 1412 1415
f 1110 1414 1556
f 1560 1575 1577
f 1564 1578 1581
f 1584 1583 1587
f 1598 1597 1601
f 1599 1602 1604
f 1605 1503 1606
f 1607 1505 1608
f 1609 1506 1612
f 1610 1510 1613
f 1614 1511 1615
f 1282 1512 1517
f 1278 1513 1287
f 1288 1514 1515
f 1413 1410 1402
f 1576 1404 1541
f 1579 1540 1580
f 1582 1545 1543
f 1586 1119 1588
f 1590 1549 1593
f 1592 1546 1552
f 1596 1550 1553
f 1603 1554 1555
f 1283 1155 1617
f 1616 1268 1529
f 1611 1530 1536
f 1600 1452 1595
f 1594 1451 1453
f 1591 1448 1589
f 1585 1433 1435
f 1566 1428 1570
f 1569 1427 1574
f 1573 1202 1421
f 1424 1189 1191
f 1423 1193 1441
f 1440 1194 1446
f 1443 1447 1444
f 1621 1619 1622
f 1618 1620 1623
f 1629 1624 1630
f 165 1632 857
f 1631 856 858
f 848 849 1633
f 1369 1375 1636
f 1635 1374 1637
f 1639 1377 1146
f 1147 1144 1641
f 1643 1383 1382
f 1644 1379 1140
f 1646 1387 1388
f 1649 1394 1650
f 1651 1638 1640
f 1653 1642 1645
f 1657 1647 1648
f 1100 1652 1101
f 1102 1654 1655
f 1103 1656 1658
f 1316 1318 1660
f 1319 1329 1663
f 1664 1326 1667
f 1665 1325 1323
f 1666 1322 1670
f 1332 1340 1671
f 1338 1349 1673
f 1672 1348 1347
f 1674 1360 1675
f 1359 1367 1676
f 1677 1363 1678
f 1661 1662 1681
f 1683 1668 1685
f 1686 1669 1687
f 1690 1680 1692
f 1691 1679 1659
f 1105 1682 1684
f 1104 1688 1689
f 766 1696 765
f 758 1701 763
f 1703 1693 1705
f 1704 1700 1709
f 1708 1694 1712
f 1711 1695 1699
f 1626 1702 1706
f 1627 1707 1710
f 1625 1698 1697
f 1717 837 836
f 1723 833 830
f 1722 829 1724
f 812 1721 1727
f 800 1725 1731
f 801 1733 802
f 803 1732 789
f 1737 782 1735
f 1634 1628 1716
f 1718 1740 1719
f 1720 1739 1741
f 1726 1742 1744
f 1728 1743 1730
f 1729 1745 1734
f 1736 1746 1747
f 1738 1748 1750
f 1751 780 1749
f 1713 1715 1714
f 147 888 904
f 869 867 156
f 159 868 866
f 158 894 146
f 150 895 893
f 151 892 890
f 1752 1239 1161
f 1195 1190 1755
f 1756 1211 1208
f 1757 1206 1201
f 1754 1197 1196
f 1181 1177 1753
f 1152 1759 1758
f 1760 1049 1045
f 141 140 1762
f 1762 140 614
f 1762 614 1761
f 1030 1763 1764
f 1029 1766 1031
f 1765 1767 1032
