v -0.00958775 -0.005451 -0.0015
v -0.00785181 -0.00642778 -0.0015
v -0.00578963 -0.000297938 -0.0015
v 0.007545 0.00716125 -0.0015
v -0.0056515 -0.005874 -0.0015
v -0.007332 0 -0.0015
v -0.00710019 -0.00167381 -0.0015
v -0.00476063 -0.00383125 -0.0015
v -0.0007865 -0.005687 -0.0015
v 0 -0.0072845 -0.0015
v -0.0067375 -0.0106532 -0.0015
v 0.007545 -0.0072845 -0.0015
v -4.04375e-05 -0.00871813 -0.0015
v 0.00402806 -0.00553709 -0.0015
v 0.00141437 -0.0061765 -0.0015
v 0.00734463 0.0134697 -0.0015
v 0.00616637 0.00490625 -0.0015
v 0.007545 0 -0.0015
v 0 0.0072845 -0.0015
v 0.0009585 0.00684738 -0.0015
v -0.0011975 0.00597025 -0.0015
v 0.00662925 -0.0001415 -0.0015
v 0.00935675 0.00073 -0.0015
v 0.00967288 -0.002265 -0.0015
v 0.009833 -0.0050555 -0.0015
v 0.008491 -0.004967 -0.0015
v -0.0110299 0.00423482 -0.0015
v -0.0056515 0.008695 -0.0015
v -0.00361175 0.0166583 -0.0015
v -0.00571913 0.00550425 -0.0015
v -0.00571725 0.0050105 -0.0015
v -0.0086465 0.03925 -0.0015
v -0.00798737 0.00714969 -0.0015
v -0.00719675 -0.008695 -0.0015
v 0.0099265 -0.0097965 -0.0015
v 0.0110785 0.0045355 -0.0015
v 0.00717937 0.00183431 0
v 0.005845 -0.0060325 0
v 0.00729413 -0.00629025 0
v -0.005574 0.005845 0
v -0.0072545 0 0
v -0.00634812 -0.00378112 0
v 0.000893 -0.005351 0
v 0.00438375 0.000192 0
v 0.00149856 0.0104106 0
v 0.00046313 -0.00732292 0
v -0.003471 -0.00840075 0
v -0.00555725 0.00136 0
v -0.00134065 0.00305994 0
v -0.00907925 0.00338125 0
v -0.00755612 0.000272875 0
v -0.003061 0.008591 0
v -0.00399825 0.0153859 0
v 0.00745594 -0.0037135 0
v 0.00966794 0.00414325 0
v 0.014 0.03925 0
v -0.00569612 -0.0057915 0
v -0.008242 0.008195 0
v -0.00630412 0.00776588 0
v -0.00782363 0.006163 0
v -0.00917197 -0.00797494 0
v -0.014 -0.005845 0
v -0.0106272 0.0237225 0
v 0.009296 -0.004161 -0.0015
v 0.007991 -0.004101 -0.0005
v -0.00628825 -0.00739231 -0.0015
v -0.00794813 -0.00665475 -0.0015
v -0.006336 -0.0077325 -0.0015
v -0.00717 -0.0080775 -0.0015
v -0.0079005 -0.0063145 -0.0015
v -0.006708 -0.00627775 -0.0015
v -0.00714828 -0.00797634 -0.0015
v -0.007617 -0.007956 -0.0015
v -0.007523 -0.008 -0.0015
v -0.007324 -0.00806 -0.0015
v -0.007425 -0.008035 -0.0015
v -0.007823 -0.007883 -0.001468
v -0.00791 -0.007815 -0.001437
v -0.007904 -0.007809 -0.001468
v -0.007336 -0.007623 -0.001005
v -0.007231 -0.00766 -0.000962
v -0.007339 -0.007631 -0.000962
v -0.00803525 0.00694307 -0.0015
v -0.00817 0.007127 -0.0015
v -0.008155 0.00723 -0.0015
v -0.00813 0.00733 -0.0015
v -0.008095 0.007428 -0.0015
v -0.00773562 0.00766062 -0.0015
v -0.00700893 0.00801991 -0.0015
v -0.0076615 0.007929 -0.0015
v -0.007523 0.008 -0.0015
v -0.007337 0.005925 -0.001248
v -0.008049 0.006401 -0.001248
v -0.00819 0.006698 -0.001248
v -0.00819 0.006698 -0.001248
v -0.008217 0.006805 -0.001248
v -0.008217 0.006805 -0.001248
v -0.008233 0.006914 -0.001248
v -0.008238 0.007024 -0.001248
v -0.008233 0.007133 -0.001248
v -0.008217 0.007242 -0.001248
v -0.008106 0.007551 -0.001248
v -0.007984 0.007734 -0.001248
v -0.00791 0.007815 -0.001248
v -0.00791 0.007815 -0.001248
v -0.007829 0.007889 -0.001248
v -0.007829 0.007889 -0.001248
v -0.007829 0.007889 -0.001248
v -0.00774 0.007955 -0.001248
v -0.007646 0.008011 -0.001248
v -0.007547 0.008058 -0.001248
v -0.006332 0.006238 -0.001216
v -0.006138 0.0065 -0.001216
v -0.006138 0.0065 -0.001216
v -0.006091 0.006598 -0.001216
v -0.006091 0.006598 -0.001216
v -0.006055 0.006701 -0.001216
v -0.006055 0.006701 -0.001216
v -0.006028 0.006807 -0.001216
v -0.006012 0.006915 -0.001216
v -0.006012 0.007132 -0.001216
v -0.006028 0.00724 -0.001216
v -0.006055 0.007346 -0.001216
v -0.006091 0.007449 -0.001216
v -0.006605 0.006064 -0.001193
v -0.006514 0.006118 -0.001193
v -0.006514 0.006118 -0.001193
v -0.006428 0.006182 -0.001193
v -0.006428 0.006182 -0.001193
v -0.006428 0.006182 -0.001193
v -0.006349 0.006254 -0.001193
v -0.006213 0.006419 -0.001193
v -0.006158 0.00651 -0.001193
v -0.006158 0.00651 -0.001193
v -0.006158 0.00651 -0.001193
v -0.006113 0.006607 -0.001193
v -0.006113 0.006607 -0.001193
v -0.006077 0.006707 -0.001193
v -0.006077 0.006707 -0.001193
v -0.006077 0.006707 -0.001193
v -0.006051 0.006811 -0.001193
v -0.006035 0.006917 -0.001193
v -0.006035 0.006917 -0.001193
v -0.00603 0.007024 -0.001193
v -0.006035 0.00713 -0.001193
v -0.006051 0.007236 -0.001193
v -0.006077 0.007339 -0.001193
v -0.006077 0.007339 -0.001193
v -0.006113 0.00744 -0.001193
v -0.007118 0.008112 -0.001193
v -0.00662 0.006091 -0.001185
v -0.006531 0.006145 -0.001185
v -0.006531 0.006145 -0.001185
v -0.006448 0.006206 -0.001185
v -0.006142 0.006619 -0.001185
v -0.006107 0.006717 -0.001185
v -0.006066 0.00692 -0.001185
v -0.007225 0.008107 -0.001193
v -0.007225 0.008107 -0.001193
v -0.007227 0.00813 -0.001216
v -0.007335 0.008114 -0.001216
v -0.007335 0.008114 -0.001216
v -0.007441 0.008087 -0.001216
v -0.007441 0.008087 -0.001216
v -0.007544 0.00805 -0.001216
v -0.007544 0.00805 -0.001216
v -0.007544 0.00805 -0.001216
v -0.007544 0.00805 -0.001216
v -0.007642 0.008004 -0.001216
v -0.007642 0.008004 -0.001216
v -0.007642 0.008004 -0.001216
v -0.007736 0.007948 -0.001216
v -0.007736 0.007948 -0.001216
v -0.007736 0.007948 -0.001216
v -0.007736 0.007948 -0.001216
v -0.007823 0.007883 -0.001216
v -0.007823 0.007883 -0.001216
v -0.007904 0.007809 -0.001216
v -0.007904 0.007809 -0.001216
v -0.007978 0.007729 -0.001216
v -0.008043 0.007641 -0.001216
v -0.008099 0.007547 -0.001216
v -0.008099 0.007547 -0.001216
v -0.008145 0.007449 -0.001216
v -0.008208 0.00724 -0.001216
v -0.008208 0.00724 -0.001216
v -0.008224 0.007132 -0.001216
v -0.008224 0.007132 -0.001216
v -0.00823 0.007024 -0.001216
v -0.00823 0.007024 -0.001216
v -0.008224 0.006915 -0.001216
v -0.008208 0.006807 -0.001216
v -0.008208 0.006807 -0.001216
v -0.008182 0.006701 -0.001216
v -0.008099 0.0065 -0.001216
v -0.008043 0.006406 -0.001216
v -0.007441 0.00596 -0.001216
v -0.007335 0.005933 -0.001216
v -0.007335 0.005933 -0.001216
v -0.007227 0.005917 -0.001216
v -0.007331 0.008091 -0.001193
v -0.007331 0.008091 -0.001193
v -0.007434 0.008065 -0.001193
v -0.007535 0.008029 -0.001193
v -0.007535 0.008029 -0.001193
v -0.007631 0.007983 -0.001193
v -0.007631 0.007983 -0.001193
v -0.007723 0.007929 -0.001193
v -0.007888 0.007793 -0.001193
v -0.008078 0.007537 -0.001193
v -0.008186 0.007236 -0.001193
v -0.008202 0.00713 -0.001193
v -0.008207 0.007024 -0.001193
v -0.007434 0.005982 -0.001193
v -0.007331 0.005956 -0.001193
v -0.007331 0.005956 -0.001193
v -0.007225 0.00594 -0.001193
v -0.007118 0.006386 -0.001005
v -0.007118 0.006386 -0.001005
v -0.007118 0.006386 -0.001005
v -0.007118 0.006377 -0.001047
v -0.007118 0.006377 -0.001047
v -0.007008 0.006396 -0.001005
v -0.007006 0.006387 -0.001047
v -0.007006 0.006387 -0.001047
v -0.0069 0.006424 -0.001005
v -0.006795 0.006463 -0.001047
v -0.006709 0.006535 -0.001005
v -0.006709 0.006535 -0.001005
v -0.006703 0.006528 -0.001047
v -0.006703 0.006528 -0.001047
v -0.00663 0.006614 -0.001005
v -0.00663 0.006614 -0.001005
v -0.006623 0.006608 -0.001047
v -0.006566 0.006705 -0.001005
v -0.006566 0.006705 -0.001005
v -0.006558 0.0067 -0.001047
v -0.006558 0.0067 -0.001047
v -0.006558 0.0067 -0.001047
v -0.006519 0.006805 -0.001005
v -0.006519 0.006805 -0.001005
v -0.006511 0.006802 -0.001047
v -0.00649 0.006913 -0.001005
v -0.00649 0.006913 -0.001005
v -0.006481 0.007024 -0.001005
v -0.006472 0.007024 -0.001047
v -0.006481 0.007136 -0.001047
v -0.006511 0.007245 -0.001047
v -0.006566 0.007342 -0.001005
v -0.006558 0.007347 -0.001047
v -0.0068 0.007576 -0.001005
v -0.006795 0.007584 -0.001047
v -0.0069 0.007623 -0.001005
v -0.006897 0.007631 -0.001047
v -0.007008 0.007651 -0.001005
v -0.007008 0.007651 -0.001005
v -0.007006 0.00766 -0.001047
v -0.007006 0.00766 -0.001047
v -0.007006 0.00766 -0.001047
v -0.007118 0.007661 -0.001005
v -0.007118 0.007661 -0.001005
v -0.007118 0.007661 -0.001005
v -0.007118 0.00767 -0.001047
v -0.007118 0.00767 -0.001047
v -0.007118 0.00767 -0.001047
v -0.007118 0.00767 -0.001047
v -0.007118 0.006352 -0.001083
v -0.007118 0.006352 -0.001083
v -0.007118 0.006352 -0.001083
v -0.007002 0.006362 -0.001083
v -0.006604 0.006592 -0.001083
v -0.006537 0.006688 -0.001083
v -0.006537 0.006688 -0.001083
v -0.006487 0.006794 -0.001083
v -0.006447 0.007024 -0.001083
v -0.006447 0.007024 -0.001083
v -0.006457 0.00714 -0.001083
v -0.007118 0.007695 -0.001083
v -0.007118 0.006316 -0.001107
v -0.006506 0.00667 -0.001107
v -0.006453 0.006782 -0.001107
v -0.006411 0.007024 -0.001107
v -0.007229 0.007651 -0.001005
v -0.007229 0.007651 -0.001005
v -0.007231 0.00766 -0.001047
v -0.007231 0.00766 -0.001047
v -0.007231 0.00766 -0.001047
v -0.007339 0.007631 -0.001047
v -0.007339 0.007631 -0.001047
v -0.007339 0.007631 -0.001047
v -0.007437 0.007576 -0.001005
v -0.007437 0.007576 -0.001005
v -0.007437 0.007576 -0.001005
v -0.007442 0.007584 -0.001047
v -0.007442 0.007584 -0.001047
v -0.007442 0.007584 -0.001047
v -0.007442 0.007584 -0.001047
v -0.007528 0.007512 -0.001005
v -0.007534 0.007519 -0.001047
v -0.007614 0.007439 -0.001047
v -0.00767 0.007342 -0.001005
v -0.007678 0.007347 -0.001047
v -0.007678 0.007347 -0.001047
v -0.007726 0.007245 -0.001047
v -0.007726 0.007245 -0.001047
v -0.007755 0.007136 -0.001047
v -0.007756 0.007024 -0.001005
v -0.007756 0.007024 -0.001005
v -0.007756 0.007024 -0.001005
v -0.007765 0.007024 -0.001047
v -0.007765 0.007024 -0.001047
v -0.007746 0.006913 -0.001005
v -0.007746 0.006913 -0.001005
v -0.007746 0.006913 -0.001005
v -0.007755 0.006911 -0.001047
v -0.007755 0.006911 -0.001047
v -0.007717 0.006805 -0.001005
v -0.007717 0.006805 -0.001005
v -0.007726 0.006802 -0.001047
v -0.007726 0.006802 -0.001047
v -0.00767 0.006705 -0.001005
v -0.007229 0.006396 -0.001005
v -0.007229 0.006396 -0.001005
v -0.007231 0.006387 -0.001047
v -0.007231 0.006387 -0.001047
v -0.007235 0.007685 -0.001083
v -0.007348 0.007654 -0.001083
v -0.007348 0.007654 -0.001083
v -0.007454 0.007605 -0.001083
v -0.007454 0.007605 -0.001083
v -0.0077 0.007359 -0.001083
v -0.0077 0.007359 -0.001083
v -0.007749 0.007253 -0.001083
v -0.007749 0.007253 -0.001083
v -0.007779 0.00714 -0.001083
v -0.007789 0.007024 -0.001083
v -0.007779 0.006907 -0.001083
v -0.007235 0.006362 -0.001083
v -0.007235 0.006362 -0.001083
v -0.00736 0.007688 -0.001107
v -0.007731 0.007377 -0.001107
v -0.007783 0.007265 -0.001107
v -0.007815 0.007146 -0.001107
v -0.007241 0.006327 -0.001107
v -0.006607 0.006961 0.0025
v -0.00763 0.007086 0.0025
v -0.00763 0.006961 0.0025
v -0.0076 0.006841 0.0025
v -0.006995 0.006523 0.0025
v -0.006879 0.006567 0.0025
v -0.006879 0.006567 0.0025
v -0.006777 0.006638 0.0025
v -0.006694 0.006731 0.0025
v -0.006637 0.006841 0.0025
v -0.007118 0.006508 0.0025
v -0.007118 0.006508 0.0025
v -0.0076 0.007206 0.0025
v -0.0076 0.007206 0.0025
v -0.006777 0.007409 0.0025
v -0.006879 0.007479 0.0025
v -0.007118 0.007538 0.0025
v -0.007118 0.006274 0.002018
v -0.006939 0.006295 0.002018
v -0.006939 0.006295 0.002018
v -0.006939 0.006295 0.002018
v -0.006939 0.006295 0.002018
v -0.00677 0.006359 0.002018
v -0.00677 0.006359 0.002018
v -0.00677 0.006359 0.002018
v -0.00677 0.006359 0.002018
v -0.006621 0.006462 0.002018
v -0.006621 0.006462 0.002018
v -0.006621 0.006462 0.002018
v -0.006621 0.006462 0.002018
v -0.006501 0.006597 0.002018
v -0.006501 0.006597 0.002018
v -0.006501 0.006597 0.002018
v -0.006417 0.006758 0.002018
v -0.006374 0.006933 0.002018
v -0.006374 0.006933 0.002018
v -0.006374 0.007114 0.002018
v -0.006374 0.007114 0.002018
v -0.006374 0.007114 0.002018
v -0.006417 0.007289 0.002018
v -0.006417 0.007289 0.002018
v -0.006621 0.007585 0.002018
v -0.00677 0.007688 0.002018
v -0.00677 0.007688 0.002018
v -0.006939 0.007752 0.002018
v -0.006939 0.007752 0.002018
v -0.007118 0.007774 0.002018
v -0.006703 0.006528 -0.000962
v -0.006687 0.006509 -0.000927
v -0.006511 0.006802 -0.000962
v -0.006511 0.006802 -0.000962
v -0.006558 0.0067 -0.000962
v -0.007006 0.006387 -0.000962
v -0.006604 0.006592 -0.000927
v -0.006604 0.006592 -0.000927
v -0.006604 0.006592 -0.000927
v -0.006623 0.006608 -0.000962
v -0.006447 0.007024 -0.000927
v -0.006447 0.007024 -0.000927
v -0.006457 0.006907 -0.000927
v -0.006457 0.006907 -0.000927
v -0.006457 0.006907 -0.000927
v -0.006481 0.006911 -0.000962
v -0.006481 0.006911 -0.000962
v -0.006481 0.006911 -0.000962
v -0.006481 0.006911 -0.000962
v -0.006481 0.006911 -0.000962
v -0.006636 0.006449 -0.000894
v -0.006636 0.006449 -0.000894
v -0.006622 0.006463 -0.000894
v -0.006422 0.006901 -0.000903
v -0.006472 0.007024 -0.000962
v -0.006472 0.007024 -0.000962
v -0.006414 0.00728 -0.000894
v -0.006414 0.00728 -0.000894
v -0.006414 0.00728 -0.000894
v -0.006418 0.007289 -0.000894
v -0.007118 0.006377 -0.000962
v -0.007118 0.006377 -0.000962
v -0.006988 0.006285 -0.000894
v -0.006771 0.006361 -0.000894
v -0.006862 0.006319 -0.000894
v -0.006862 0.006319 -0.000894
v -0.006939 0.006298 -0.000894
v -0.006544 0.006541 -0.000894
v -0.006506 0.00667 -0.000903
v -0.006469 0.006648 -0.000894
v -0.006503 0.006599 -0.000894
v -0.006503 0.006599 -0.000894
v -0.006537 0.006688 -0.000927
v -0.006537 0.006688 -0.000927
v -0.006537 0.006688 -0.000927
v -0.006453 0.006782 -0.000903
v -0.006487 0.006794 -0.000927
v -0.006487 0.006794 -0.000927
v -0.00638 0.007154 -0.000894
v -0.00638 0.007154 -0.000894
v -0.006376 0.007114 -0.000894
v -0.006368 0.007024 -0.000894
v -0.006376 0.006933 -0.000894
v -0.006988 0.007762 -0.000894
v -0.006939 0.007749 -0.000894
v -0.007002 0.007685 -0.000927
v -0.007118 0.007695 -0.000927
v -0.007118 0.007695 -0.000927
v -0.007118 0.007731 -0.000903
v -0.007118 0.007731 -0.000903
v -0.007466 0.006361 -0.000894
v -0.007755 0.006911 -0.000962
v -0.007442 0.007584 -0.000962
v -0.007534 0.007519 -0.000962
v -0.007726 0.007245 -0.000962
v -0.007678 0.007347 -0.000962
v -0.007678 0.007347 -0.000962
v -0.007348 0.007654 -0.000927
v -0.007348 0.007654 -0.000927
v -0.007348 0.007654 -0.000927
v -0.007231 0.00766 -0.000962
v -0.007632 0.007455 -0.000927
v -0.007614 0.007439 -0.000962
v -0.007789 0.007024 -0.000927
v -0.007755 0.007136 -0.000962
v -0.007241 0.00772 -0.000903
v -0.00736 0.007688 -0.000903
v -0.007472 0.007636 -0.000903
v -0.007339 0.007631 -0.000962
v -0.007339 0.007631 -0.000962
v -0.007454 0.007605 -0.000927
v -0.0076 0.007598 -0.000894
v -0.0076 0.007598 -0.000894
v -0.007615 0.007584 -0.000894
v -0.007765 0.007024 -0.000962
v -0.007823 0.006767 -0.000894
v -0.007493 0.007673 -0.000894
v -0.007466 0.007686 -0.000894
v -0.007466 0.007686 -0.000894
v -0.007375 0.007728 -0.000894
v -0.007375 0.007728 -0.000894
v -0.007297 0.007749 -0.000894
v -0.007693 0.007506 -0.000894
v -0.007731 0.007377 -0.000903
v -0.007768 0.007398 -0.000894
v -0.007733 0.007448 -0.000894
v -0.0077 0.007359 -0.000927
v -0.0077 0.007359 -0.000927
v -0.0077 0.007359 -0.000927
v -0.007783 0.007265 -0.000903
v -0.007823 0.00728 -0.000894
v -0.007819 0.007289 -0.000894
v -0.007819 0.007289 -0.000894
v -0.007749 0.007253 -0.000927
v -0.007749 0.007253 -0.000927
v -0.007857 0.007154 -0.000894
v -0.007857 0.006893 -0.000894
v -0.00786 0.006933 -0.000894
v -0.00786 0.006933 -0.000894
v -0.007868 0.007024 -0.000894
v -0.00786 0.007114 -0.000894
v -0.007375 0.006319 -0.000894
v -0.007298 0.007752 0.002018
v -0.007298 0.007752 0.002018
v -0.007467 0.007688 0.002018
v -0.007467 0.007688 0.002018
v -0.007467 0.007688 0.002018
v -0.007616 0.007585 0.002018
v -0.007616 0.007585 0.002018
v -0.007735 0.00745 0.002018
v -0.007735 0.00745 0.002018
v -0.00782 0.007289 0.002018
v -0.00782 0.007289 0.002018
v -0.00782 0.007289 0.002018
v -0.007863 0.007114 0.002018
v -0.007863 0.007114 0.002018
v -0.007863 0.007114 0.002018
v -0.007863 0.007114 0.002018
v -0.007863 0.007114 0.002018
v -0.007863 0.006933 0.002018
v -0.007863 0.006933 0.002018
v -0.007863 0.006933 0.002018
v -0.00782 0.006758 0.002018
v -0.00782 0.006758 0.002018
v -0.007467 0.006359 0.002018
f 1 5 2
f 8 11 5
f 5 11 34
f 14 12 35
f 10 15 13
f 13 9 10
f 10 9 15
f 16 4 17
f 19 29 20
f 3 7 6
f 22 23 18
f 23 24 18
f 18 24 22
f 7 27 6
f 6 27 3
f 29 19 21
f 21 19 20
f 28 29 30
f 30 29 31
f 27 32 33
f 27 33 31
f 2 34 1
f 1 34 11
f 34 2 5
f 30 31 33
f 30 33 28
f 33 32 28
f 1 8 5
f 32 29 28
f 14 25 12
f 12 25 35
f 4 16 36
f 4 36 17
f 46 38 57
f 46 39 38
f 38 43 57
f 41 51 42
f 42 48 41
f 49 40 60
f 60 50 49
f 48 51 41
f 52 45 53
f 40 49 44
f 40 44 53
f 53 44 45
f 44 54 37
f 39 54 44
f 39 44 38
f 38 44 49
f 38 49 43
f 44 37 55
f 44 55 56
f 44 56 45
f 57 61 46
f 46 61 47
f 59 40 53
f 59 60 40
f 61 57 62
f 43 42 57
f 62 57 42
f 60 59 58
f 60 58 50
f 50 58 63
f 59 53 63
f 59 63 58
f 65 64 26
f 66 68 72
f 67 70 71
f 73 72 74
f 69 75 72
f 72 75 76
f 72 76 74
f 77 78 79
f 80 81 82
f 83 84 85
f 85 86 83
f 83 86 87
f 83 87 88
f 89 90 91
f 128 112 131
f 132 113 134
f 135 114 116
f 133 115 137
f 136 117 140
f 139 118 119
f 141 120 143
f 145 121 122
f 146 123 148
f 147 124 149
f 151 125 126
f 153 127 129
f 152 130 154
f 155 138 156
f 157 142 144
f 163 111 167
f 168 110 170
f 175 109 106
f 173 107 177
f 176 108 104
f 178 105 103
f 181 102 183
f 185 101 100
f 188 99 190
f 191 98 97
f 193 96 94
f 192 95 194
f 195 93 196
f 197 92 198
f 150 160 159
f 158 162 202
f 201 161 164
f 203 165 204
f 205 166 171
f 207 169 172
f 206 174 208
f 209 179 180
f 210 182 184
f 211 186 187
f 212 189 213
f 214 199 216
f 215 200 217
f 223 225 226
f 229 227 230
f 228 231 233
f 235 234 237
f 249 248 250
f 251 252 253
f 256 254 258
f 255 257 262
f 260 259 263
f 221 267 224
f 239 271 273
f 238 272 242
f 246 275 247
f 269 279 270
f 274 280 281
f 276 282 277
f 261 264 283
f 284 265 287
f 291 288 295
f 293 294 298
f 301 300 303
f 307 306 311
f 308 310 314
f 312 315 317
f 318 319 321
f 323 325 219
f 266 278 286
f 285 326 289
f 290 328 297
f 296 330 299
f 302 331 305
f 304 332 334
f 316 337 320
f 324 339 222
f 327 340 329
f 333 341 342
f 335 343 336
f 338 344 268
f 356 362 365
f 355 366 349
f 350 368 372
f 351 374 352
f 353 377 378
f 354 380 345
f 359 386 388
f 360 387 390
f 232 236 396
f 400 393 392
f 402 406 407
f 240 243 410
f 409 417 403
f 220 397 422
f 401 435 398
f 399 436 430
f 434 438 437
f 241 408 394
f 395 411 404
f 439 405 415
f 245 416 244
f 447 448 451
f 322 218 423
f 292 455 454
f 313 453 309
f 468 459 469
f 462 471 460
f 461 470 472
f 466 476 465
f 449 467 450
f 464 457 489
f 463 488 485
f 458 456 496
f 490 495 491
f 361 391 504
f 357 515 518
f 358 519 346
f 347 524 348
f 425 369 426
f 427 367 363
f 428 364 424
f 370 413 371
f 412 414 373
f 429 433 376
f 375 432 431
f 443 379 444
f 442 440 381
f 382 441 419
f 383 420 385
f 418 421 384
f 445 389 446
f 479 508 482
f 481 505 483
f 480 478 506
f 507 473 509
f 474 475 510
f 484 487 511
f 512 486 514
f 513 494 516
f 520 493 492
f 500 523 501
f 502 517 497
f 499 498 522
f 521 477 525
f 526 452 503
