v -0.373349 -0.054155 0.192208
v -0.373042 -0.0549793 0.192051
v -0.372895 -0.055155 0.191317
v -0.340584 -0.055155 0.128425
v -0.323867 -0.055155 0.095087
v -0.323312 -0.0548752 0.0944444
v -0.323413 -0.054155 0.094196
v -0.3232 0.016551 0.094305
v -0.323413 0.053845 0.094196
v -0.323354 0.0546578 0.09452
v -0.323867 0.054845 0.095087
v -0.372895 0.054845 0.191317
v -0.355742 0.054845 0.158201
v -0.373103 0.0546056 0.19214
v -0.373349 0.053845 0.192208
v -0.373135 -0.016861 0.192317
v -0.344521 0.0193879 0.136148
f 17 4 6
f 17 16 2
f 2 3 4
f 4 3 5
f 4 5 6
f 6 7 8
f 8 7 9
f 8 9 10
f 10 11 13
f 13 11 12
f 13 12 14
f 14 15 16
f 16 15 1
f 16 1 2
f 17 13 14
f 7 6 5
f 7 5 9
f 2 1 3
f 3 1 12
f 3 12 5
f 5 12 11
f 5 11 9
f 9 11 10
f 14 12 15
f 15 12 1
f 13 17 10
f 2 4 17
f 6 8 17
f 17 8 10
f 16 17 14
