v 0 0 -0.08
v -0.0025085 -7.9625e-05 -0.08
v 0.00172637 -0.00156587 -0.08
v 0.001181 0.00262775 -0.08
v 0.0247975 -0.00129562 -0.00127
v 0.0231268 -0.0010065 -0.00381
v 0.0300555 0.012774 -0.00381
v 0.0331992 0.0148 -0.00381
v 0.037048 0 -0.00381
v 0.028021 -0.011168 -0.00381
v 0.02707 -0.0103092 -0.00381
v 0.027711 -0.010366 -0.00381
v 0.024383 -0.005703 -0.00381
v 0.023601 0.003031 -0.00127
v 0.023657 0.003888 -0.00127
v 0.024029 0.004661 -0.00127
v 0.0268455 0.012105 -0.00381
v 0.024891 -0.0130705 -0.0127
v 0.024845 -0.012768 -0.0127
v 0.036748 -0.020038 -0.0127
v 0.035728 -0.021806 -0.0127
v 0.004879 -0.029181 -0.00381
v 0.0122796 -0.0273928 -0.00127
v 0.008486 -0.022967 -0.00127
v 0.0137728 -0.0197198 -0.00127
v 0.020675 -0.01647 -0.01245
v 0.0137075 -0.010376 -0.00381
v 0.0135231 -0.0149979 -0.00381
v 0.004867 0.0030625 -0.0254
v 0.000235625 -0.00302163 0
v 0.00776787 0.00058875 -0.0254
v -0.001 -0.003732 -0.0254
v -0.004584 -0.00450625 -0.0254
v -0.00481125 -0.00378675 0
v -0.00317837 0.003201 0
v -0.00570013 -0.00202275 0
v 0.00318575 0.00156725 0
v 0.00179988 0.005608 -0.0254
v 0.00075275 0.0037985 0
v 0.0175575 0.009829 -0.0127
v 0.0201052 0.0094495 -0.0127
v 0.0194278 0.0107117 0
v 0.022888 0.009756 -0.0127
v 0.022371 0.010897 0
v 0.0243115 0.0117885 -0.0127
v 0.0236043 0.0141213 -0.0127
v 0.0221015 0.0153095 -0.0127
v 0.0192923 0.0147148 -0.0127
v 0.0217753 -0.0174962 0
v 0.019613 -0.013655 0
v 0.0240464 -0.0137124 -0.0127
v 0.022371 -0.012916 0
v 0.0230988 -0.0113375 -0.0127
v 0.022641 -0.011906 0
v 0.0397501 -0.0129942 0
v 0.0222685 -0.009206 -0.0127
v 0.0203765 -0.0087875 -0.0127
v 0.018533 -0.00883925 -0.0127
v 0.0204898 -0.0101375 0
v 0.0172158 -0.0103812 -0.0127
v 0.018239 -0.012762 -0.0127
v -0.018524 0.032084 -0.00381
v -0.00561912 0.0222056 -0.00381
v -0.03545 0.022001 -0.009358
v -0.01862 0.016114 -0.00406
v 0.008177 0.02316 -0.00127
v 0.0147903 0.0308084 -0.00127
v 0.0161137 0.020648 -0.00127
v 0.01713 0.018265 -0.00381
v 0.01023 0.035608 -0.00381
v 0.00429375 0.0291793 -0.00381
v 0.00537 0.0286345 -0.00381
v 0.00669225 0.024033 -0.00381
v 0.006602 0.026819 -0.00381
v 0.010296 0.020795 -0.00381
v 0.0156864 0.0175263 -0.00381
v 0.00664575 0.0375392 -0.00381
v 0.0138237 0.0349587 -0.00381
v 0.023072 0.034948 -0.006261
v 0.020521 0.03642 -0.006261
v 0.02083 0.036958 -0.024874
v 0.0011945 0.0250068 0
v -0.001724 0.0205972 -0.0127
v 0.000555 0.0198037 -0.0127
v -0.00012625 0.0223996 0
v 0.00625975 0.0222305 -0.00381
v 0.001274 0.028378 -0.01245
v -0.001274 0.019247 -0.01245
v -0.001147 0.019568 -0.0127
v 0.005072 0.010984 -0.006261
v 0.006572 0.010117 -0.006261
v 0.006158 0.009483 -0.024892
v 0.0104425 0.013923 -0.00381
v 0.014073 -0.006947 -0.0127
v 0.013762 -0.004884 -0.00381
v 0.014094 0.003948 -0.00381
v 0.014073 0.006947 -0.0127
v 0.0190283 0.005969 -0.00381
v 0.01816 0.007596 -0.00381
v 0.017413 0.008119 -0.00381
v 0.024601 0.00967 -0.01245
v 0.010495 0.006059 -0.0127
v 0.009948 0.006922 -0.0127
v 0.024066 0.015073 -0.0127
v 0.023868 0.015008 -0.0127
v 0.02348 0.015132 -0.0127
v 0.023661 0.015029 -0.0127
v 0.023699 0.015149 -0.012667
v 0.023564 0.015226 -0.012667
v 0.023564 0.015226 -0.012667
v 0.023625 0.015295 -0.012575
v 0.01626 0.013246 -0.01245
v 0.019397 0.016266 -0.012575
v 0.020512 0.016469 -0.01245
v 0.020513 0.016433 -0.012575
v 0.019423 0.016176 -0.012667
v 0.020515 0.01634 -0.012667
v 0.021614 0.016229 -0.012667
v 0.022673 0.015891 -0.012621
v 0.018467 0.015639 -0.0127
v 0.019457 0.016055 -0.0127
v 0.019457 0.016055 -0.0127
v 0.019457 0.016055 -0.0127
v 0.020518 0.016215 -0.0127
v 0.020518 0.016215 -0.0127
v 0.020518 0.016215 -0.0127
v 0.021586 0.016107 -0.0127
v 0.016313 0.010646 -0.0127
v 0.0162355 0.0105765 -0.0127
v 0.016275 0.010863 -0.012667
v 0.016398 0.010836 -0.0127
v 0.009851 0.007221 -0.009358
v 0.009912 0.007319 -0.006266
v 0.011158 0.008078 -0.004284
v 0.016156 0.013283 -0.00406
v 0.016201 0.013531 -0.00406
v 0.015658 0.01193 -0.00381
v 0.016044 0.013589 -0.003825
v 0.015963 0.013619 -0.00381
v 0.016825 0.015103 -0.00381
v 0.01814 0.016205 -0.00381
v 0.018184 0.01613 -0.003825
v 0.01814 0.016205 -0.00381
v 0.019753 0.016794 -0.00381
v 0.019768 0.016708 -0.003825
v 0.019753 0.016794 -0.00381
v 0.0191185 0.017816 -0.00381
v 0.021454 0.016712 -0.003825
v 0.021469 0.016798 -0.00381
v 0.001421 0.039303 -0.00406
v 0.001328 0.041701 -0.009358
v -0.001409 0.012991 -0.004741
v -0.001397 0.012482 -0.005423
v -0.002646 0.0174765 -0.00381
v -0.029169 -0.011969 -0.00356
v -0.031213 -0.013108 -0.00152
v -0.029187 -0.011938 -0.00152
v -0.031213 -0.013108 -0.00152
v -0.031231 -0.013077 -0.001394
v -0.029205 -0.011908 -0.001394
v -0.031231 -0.013077 -0.001394
v -0.029251 -0.011827 -0.001303
v -0.031278 -0.012997 -0.001303
v -0.028389 -0.011268 -0.00356
v -0.027752 -0.008748 -0.00127
v -0.026867 -0.007449 -0.001303
v -0.026867 -0.007449 -0.001303
v -0.026969 -0.007376 -0.00127
v -0.0252955 -0.005714 -0.00127
v -0.027637 -0.008799 -0.001303
v -0.026791 -0.007503 -0.001394
v -0.026791 -0.007503 -0.001394
v -0.02752 -0.008851 -0.00152
v -0.027552 -0.008837 -0.001394
v -0.026763 -0.007523 -0.00152
v -0.025753 -0.006376 -0.00152
v -0.024533 -0.005455 -0.00152
v -0.024665 0.005238 -0.00127
v -0.024029 0.004661 -0.00127
v -0.023535 0.00392 -0.001303
v -0.0256721 0.00103038 -0.00127
v -0.023601 0.003031 -0.00127
v -0.023477 0.003015 -0.001303
v -0.024515 0.005486 -0.00356
v -0.023826 0.004813 -0.00152
v -0.023797 0.004834 -0.00356
v -0.023411 0.003952 -0.00152
v -0.02335 0.002999 -0.00152
v -0.035705 -0.008883 -0.00356
v -0.036274 -0.005949 -0.00152
v -0.036309 -0.005955 -0.00356
v -0.036637 -0.002984 -0.00152
v -0.036672 0.002987 -0.00356
v -0.036274 0.005949 -0.00152
v -0.036309 0.005955 -0.00356
v -0.035671 0.008875 -0.00152
v -0.035705 0.008883 -0.00356
v -0.034832 0.011742 -0.00152
v -0.0313495 0.0032255 -0.00127
v -0.036309 -0.005955 -0.00356
v -0.036672 -0.002987 -0.00356
v -0.036794 0 -0.00356
v -0.036309 0.005955 -0.00356
v -0.035705 0.008883 -0.00356
v -0.034866 0.011753 -0.00356
v -0.034288 0.012703 -0.00356
v -0.033347 0.013282 -0.00152
v -0.033359 0.013315 -0.00356
v -0.029169 0.011969 -0.00356
v -0.028418 0.011247 -0.00152
v -0.028389 0.011268 -0.00356
v -0.023601 -0.003031 -0.00127
v -0.023657 -0.003888 -0.00127
v -0.024029 -0.004661 -0.00127
v -0.033831 -0.012725 -0.00127
v -0.033077 -0.013234 -0.001303
v -0.033907 -0.012825 -0.001303
v -0.033964 -0.012898 -0.001394
v -0.034273 -0.012598 -0.00152
v -0.034273 -0.012598 -0.00152
v -0.034598 -0.012175 -0.001394
v -0.034629 -0.012193 -0.00152
v -0.032132 -0.013457 -0.00356
v -0.032463 -0.013443 -0.00152
v -0.032463 -0.013479 -0.00356
v -0.034299 -0.012622 -0.00356
v -0.031196 -0.013139 -0.00356
v -0.031196 -0.013139 -0.00356
v -0.029169 -0.011969 -0.00356
v -0.027994 -0.010304 -0.00152
v -0.027487 -0.008865 -0.00356
v -0.026763 -0.007523 -0.00152
v -0.025729 -0.006402 -0.00356
v -0.025753 -0.006376 -0.00152
v -0.024515 -0.005486 -0.00356
v -0.023314 -0.002994 -0.00356
v -0.023377 -0.003961 -0.00356
v -0.023826 -0.004813 -0.00152
v -0.023797 -0.004834 -0.00356
v -0.023541 0 -0.00152
v -0.023506 0 -0.00356
v -0.023506 0 -0.00356
v -0.023314 0.002994 -0.00356
v -0.023797 0.004834 -0.00356
v -0.023377 0.003961 -0.00356
v -0.026763 0.007523 -0.00152
v -0.027125 0.008152 -0.00356
v -0.027156 0.008134 -0.00152
v -0.027094 0.00817 -0.003686
v -0.027014 0.008216 -0.003777
v -0.027593 0.009212 -0.003686
v -0.034314 0.012728 -0.003686
v -0.033404 0.013435 -0.003777
v -0.034381 0.012793 -0.003777
v -0.034988 0.011794 -0.003777
v -0.03583 0.008914 -0.003777
v -0.034471 0.01288 -0.00381
v -0.035107 0.011834 -0.00381
v -0.035107 0.011834 -0.00381
v -0.036435 0.005976 -0.003777
v -0.036708 0.00299 -0.003686
v -0.036829 0 -0.003686
v -0.03469 -0.012229 -0.003686
v -0.034988 -0.011794 -0.003777
v -0.035952 0.008945 -0.00381
v -0.035952 0.008945 -0.00381
v -0.036559 0.005996 -0.00381
v -0.03477 -0.012275 -0.003777
v -0.031178 -0.01317 -0.003686
v -0.033153 -0.013516 -0.003777
v -0.034162 -0.013156 -0.00381
v -0.033185 -0.013638 -0.00381
v -0.029152 -0.012 -0.003686
v -0.024448 -0.005595 -0.003777
v -0.025642 -0.006496 -0.003777
v -0.025642 -0.006496 -0.003777
v -0.025556 -0.006588 -0.00381
v -0.026527 -0.007692 -0.00381
v -0.026629 -0.007619 -0.003777
v -0.023253 -0.003994 -0.003777
v -0.023594 -0.004986 -0.00381
v -0.023187 -0.002978 -0.003777
v -0.023131 -0.004026 -0.00381
v -0.023131 -0.004026 -0.00381
v -0.023062 -0.002962 -0.00381
v -0.023062 0.002962 -0.00381
v -0.023253 0.003994 -0.003777
v -0.023131 0.004026 -0.00381
v -0.036748 0.020038 -0.0127
v -0.025086 0.013305 -0.0127
v -0.029897 0.0184395 -0.0127
v -0.017178 0.00874 -0.0127
v -0.010968 0.005154 -0.0127
v -0.0174795 0.0087935 -0.0127
v -0.017681 0.008586 -0.012667
v -0.018593 0.007962 -0.012667
v -0.01855 0.00788 -0.012575
v -0.01855 0.00788 -0.012575
v -0.019601 0.007458 -0.01245
v -0.019609 0.007493 -0.012575
v -0.01963 0.007583 -0.012667
v -0.01865 0.008074 -0.0127
v -0.01865 0.008074 -0.0127
v -0.0213578 0.00808138 -0.0127
v -0.019658 0.007706 -0.0127
v -0.025408 -0.011884 -0.003883
v -0.025059 -0.010276 -0.003973
v -0.02442 -0.008709 -0.00381
v -0.023061 -0.007683 -0.003825
v -0.023104 -0.007607 -0.00381
v -0.025114 -0.010255 -0.003883
v -0.0177483 -0.0092645 -0.0127
v -0.020622 -0.009887 -0.0127
v -0.021129 -0.010023 0
v -0.021632 -0.010157 -0.0127
v -0.021632 -0.010157 -0.0127
v -0.0204041 -0.0104009 0
v -0.022 -0.010525 0
v -0.022371 -0.010897 -0.0127
v -0.021981 -0.0150369 -0.0127
v -0.021719 -0.0122675 0
v -0.019613 -0.013655 -0.0127
v -0.019245 -0.013287 0
v -0.0175779 -0.0134392 -0.0127
v -0.018873 -0.012916 -0.0127
v -0.019336 -0.0133783 0
v -0.004701 -0.030337 -0.00127
v -0.00516 -0.029491 -0.001303
v -0.004586 -0.030286 -0.001303
v -0.016869 -0.018741 -0.00127
v -0.016869 -0.018741 -0.00127
v -0.018323 -0.019358 -0.00127
v -0.01836 -0.019238 -0.001303
v -0.018323 -0.019358 -0.00127
v -0.019872 -0.019668 -0.00127
v -0.019884 -0.019543 -0.001303
v -0.0170325 -0.022752 -0.00127
v -0.019872 -0.019668 -0.00127
v -0.021439 -0.019535 -0.001303
v -0.021452 -0.01966 -0.00127
v -0.022932 -0.019125 -0.001394
v -0.017008 -0.018488 -0.00356
v -0.018398 -0.019115 -0.00152
v -0.022921 -0.019092 -0.00152
v -0.022921 -0.019092 -0.00152
v -0.015749 -0.033253 -0.00356
v -0.018379 -0.031834 -0.00152
v -0.020923 -0.030266 -0.00356
v -0.023289 -0.028439 -0.00152
v -0.023312 -0.028467 -0.00356
v -0.025546 -0.02648 -0.00356
v -0.025521 -0.026454 -0.00152
v -0.027585 -0.024295 -0.00152
v -0.027611 -0.024319 -0.00356
v -0.018397 -0.031864 -0.00356
v -0.023312 -0.028467 -0.00356
v -0.025546 -0.02648 -0.00356
v -0.023312 -0.028467 -0.00356
v -0.027611 -0.024319 -0.00356
v -0.024932 -0.019308 -0.00152
v -0.02495 -0.019277 -0.00356
v -0.02495 -0.019277 -0.00356
v -0.023949 -0.018987 -0.00152
v -0.023953 -0.018952 -0.00356
v -0.02291 -0.019058 -0.00356
v -0.026976 -0.020447 -0.00356
v -0.027874 -0.023893 -0.00152
v -0.027905 -0.02391 -0.00356
v -0.027794 -0.021201 -0.00356
v -0.027988 -0.023298 -0.001303
v -0.027763 -0.023829 -0.001303
v -0.027867 -0.023263 -0.00127
v -0.024868 -0.019419 -0.001303
v -0.023922 -0.01924 -0.00127
v -0.023936 -0.019115 -0.001303
v -0.0111153 -0.0284469 -0.00127
v -0.0151147 -0.0188174 -0.00127
v -0.008129 -0.023205 -0.00127
v -0.007712 -0.023026 -0.00356
v -0.007542 -0.023974 -0.00152
v -0.009064 -0.021688 -0.00356
v -0.008258 -0.022225 -0.00356
v -0.007507 -0.023973 -0.00356
v -0.007507 -0.023973 -0.00356
v -0.011771 -0.020387 -0.00152
v -0.011753 -0.020357 -0.00356
v -0.016991 -0.018519 -0.00152
v -0.016081 -0.018227 -0.00152
v -0.016085 -0.018192 -0.00356
v -0.016085 -0.018192 -0.00356
v -0.018409 -0.019081 -0.00356
v -0.018446 -0.018958 -0.003777
v -0.018446 -0.018958 -0.003777
v -0.01713 -0.018265 -0.00381
v -0.01713 -0.018265 -0.00381
v -0.01707 -0.018375 -0.003777
v -0.019904 -0.019345 -0.003686
v -0.018419 -0.019047 -0.003686
v -0.024968 -0.019246 -0.003686
v -0.024968 -0.019246 -0.003686
v -0.025014 -0.019166 -0.003777
v -0.026994 -0.020416 -0.003686
v -0.026994 -0.020416 -0.003686
v -0.027041 -0.020336 -0.003777
v -0.027824 -0.021181 -0.003686
v -0.027935 -0.023928 -0.003686
v -0.028269 -0.023378 -0.003777
v -0.028016 -0.023975 -0.003777
v -0.027708 -0.024403 -0.003777
v -0.028125 -0.024037 -0.00381
v -0.027802 -0.024486 -0.00381
v -0.023393 -0.028566 -0.003777
v -0.025571 -0.026506 -0.003686
v -0.023334 -0.028494 -0.003686
v -0.018461 -0.031975 -0.003777
v -0.025722 -0.026663 -0.00381
v -0.023472 -0.028663 -0.00381
v -0.021068 -0.030474 -0.00381
v -0.018524 -0.032084 -0.00381
v -0.01023 -0.035608 -0.00381
v -0.004436 -0.03022 -0.00356
v -0.004184 -0.031246 -0.003686
v -0.004404 -0.030206 -0.003686
v -0.004319 -0.030168 -0.003777
v -0.003965 -0.031246 -0.00381
v -0.004204 -0.030117 -0.00381
v -0.004963 -0.029274 -0.003777
v -0.00732 -0.025483 -0.00356
v -0.004879 -0.029181 -0.00381
v -0.005746 -0.028444 -0.003777
v -0.006602 -0.026819 -0.00381
v -0.007195 -0.025454 -0.003777
v -0.007286 -0.025475 -0.003686
v -0.006717 -0.026871 -0.003777
v -0.00768 -0.023012 -0.003686
v -0.008168 -0.022134 -0.003777
v -0.007479 -0.022926 -0.00381
v -0.00905 -0.021655 -0.003686
v -0.008233 -0.0222 -0.003686
v -0.008168 -0.022134 -0.003777
v -0.008079 -0.022045 -0.00381
v -0.00905 -0.021655 -0.003686
v -0.009015 -0.021569 -0.003777
v -0.009015 -0.021569 -0.003777
v -0.008966 -0.021453 -0.00381
v -0.011689 -0.020245 -0.003777
v -0.011689 -0.020245 -0.003777
v -0.009015 -0.021569 -0.003777
v -0.014229 -0.018665 -0.003686
v -0.011735 -0.020326 -0.003686
v -0.011735 -0.020326 -0.003686
v -0.01511 -0.01823 -0.003686
v -0.0161 -0.018065 -0.003777
v -0.015052 -0.018019 -0.00381
v -0.016089 -0.018157 -0.003686
v -0.01707 -0.018375 -0.003777
v -0.016115 -0.01794 -0.00381
v -0.016115 -0.01794 -0.00381
v 0.001916 -0.0221368 -0.0127
v 0.00081 -0.0198037 -0.0127
v 0.0120742 -0.0344359 0
v -0.001869 -0.0221365 -0.0127
v -0.0011875 -0.0267305 -0.0127
v -0.00141325 -0.0236862 0
v 0.00173125 -0.025673 -0.0127
v 0.002019 -0.023812 0
v 0.001193 -0.027999 -0.0127
v 0.001365 -0.0279 -0.0127
v 0.003732 -0.021658 -0.0127
v 0.004435 -0.023812 -0.012667
v 0.00384162 -0.0244616 -0.0127
v 0.004176 -0.022747 -0.0127
v 0.00431 -0.023812 -0.0127
v 0.002333 -0.027436 -0.0127
v 0.002451 -0.020005 -0.012575
v 0.001404 -0.019605 -0.012667
v 0.002401 -0.020083 -0.012667
v 0.002333 -0.020189 -0.0127
v 0.001274 -0.019247 -0.01245
v -0.001274 -0.019247 -0.01245
v -0.001126 -0.0195335 -0.0127
v -0.001365 -0.019724 -0.0127
v -0.001434 -0.019517 -0.012575
v -0.001445 -0.019484 -0.01245
v 0.0001385 -0.0279313 -0.0127
v -0.001193 -0.027999 -0.0127
v -0.001193 -0.027999 -0.0127
v -0.004303 -0.024588 -0.0126835
v -0.004241 -0.023048 -0.0127
v -0.002706 -0.020458 -0.0127
v -0.001328 -0.041701 -0.009358
v -0.001421 -0.039303 -0.00406
v -0.001274 -0.028378 -0.01245
v -0.001404 -0.02802 -0.012667
v -0.001275 -0.028093 -0.012667
v -0.004456 -0.024616 -0.012575
v -0.003895 -0.021503 -0.012575
v -0.002843 -0.020288 -0.012575
v -0.002843 -0.020288 -0.012575
v -0.002843 -0.020288 -0.012575
v -0.003121 -0.020556 -0.01245
v -0.002866 -0.020261 -0.01245
v -0.003815 -0.026074 -0.012667
v -0.004365 -0.024599 -0.012667
v -0.004365 -0.023026 -0.012667
v -0.004365 -0.023026 -0.012667
v -0.003815 -0.021551 -0.012667
v -0.003815 -0.021551 -0.012667
v -0.002785 -0.020361 -0.012667
v -0.001403 -0.012642 -0.005055
v -0.001397 -0.012496 -0.005435
v -0.001536 -0.012234 -0.005323
v -0.001619 -0.012174 -0.005408
v -0.001621 -0.012226 -0.005323
v -0.009851 -0.00963 -0.00396
v -0.003415 -0.013346 -0.00396
v -0.003127 -0.011675 -0.006261
v -0.005147 -0.011148 -0.005407
v -0.005072 -0.010984 -0.006261
v -0.005072 -0.010984 -0.006261
v -0.005147 -0.011148 -0.005407
v -0.006572 -0.010117 -0.006261
v -0.006572 -0.010117 -0.006261
v -0.007081 -0.010031 -0.005407
v -0.006158 -0.009483 -0.024892
v -0.005775 -0.012507 -0.00396
v -0.007944 -0.011255 -0.00396
v -0.00844 -0.011958 -0.00381
v -0.010466 -0.010232 -0.00381
v -0.005775 -0.012507 -0.00396
v -0.005396 -0.011687 -0.004523
v -0.007423 -0.010516 -0.004523
v -0.031835 -0.023109 -0.00381
v -0.028845 -0.026748 -0.00381
v -0.029476 -0.027333 -0.00396
v -0.00664575 -0.0375392 -0.00381
v -0.015963 -0.013619 -0.00381
v -0.01814 -0.016205 -0.00381
v -0.025998 -0.03066 -0.00396
v -0.021673 -0.032829 -0.00381
v -0.017594 -0.035184 -0.00381
v -0.017979 -0.035954 -0.00396
v -0.019753 -0.016794 -0.00381
v -0.021469 -0.016798 -0.00381
v -0.013553 -0.037845 -0.00396
v -0.0138237 -0.0349587 -0.00381
v -0.009851 -0.007221 -0.009358
v -0.011158 -0.008078 -0.004284
v -0.009912 -0.007319 -0.006266
v -0.016158 -0.010507 -0.0127
v -0.023967 -0.0150405 -0.0127
v -0.02348 -0.015132 -0.0127
v -0.023699 -0.015149 -0.012667
v -0.02348 -0.015132 -0.0127
v -0.023564 -0.015226 -0.012667
v -0.023564 -0.015226 -0.012667
v -0.023625 -0.015295 -0.012575
v -0.0164 -0.011044 -0.0127
v -0.01626 -0.013246 -0.01245
v -0.019397 -0.016266 -0.012575
v -0.020512 -0.016469 -0.01245
v -0.020513 -0.016433 -0.012575
v -0.020513 -0.016433 -0.012575
v -0.021643 -0.016354 -0.01245
v -0.021635 -0.01632 -0.012575
v -0.019423 -0.016176 -0.012667
v -0.022673 -0.015891 -0.012621
v -0.016318 -0.012114 -0.0127
v -0.018467 -0.015639 -0.0127
v -0.019457 -0.016055 -0.0127
v -0.016313 -0.010646 -0.0127
v -0.0163555 -0.010741 -0.0127
v -0.016275 -0.010863 -0.012667
v -0.016398 -0.010836 -0.0127
v -0.016156 -0.013283 -0.00406
v -0.016201 -0.013531 -0.00406
v -0.015658 -0.01193 -0.00381
v -0.016044 -0.013589 -0.003825
v -0.016825 -0.015103 -0.00381
v -0.01814 -0.016205 -0.00381
v -0.018184 -0.01613 -0.003825
v -0.019753 -0.016794 -0.00381
v -0.019768 -0.016708 -0.003825
v -0.021454 -0.016712 -0.003825
v -0.009874 -0.00687 -0.012723
v -0.009846 -0.00685 -0.012733
v -0.010458 -0.006038 -0.0127
v -0.010855 -0.005101 -0.012733
v -0.017305 -0.00852 -0.01245
v -0.011521 -0.005039 -0.005435
v -0.011311 -0.00493 -0.006052
v -0.017764 -0.008681 -0.0127
v -0.017553 -0.008661 -0.012667
v -0.017681 -0.008586 -0.012667
v -0.020573 -0.007597 -0.0127
v -0.019071 -0.007886 -0.0127
v -0.0244292 -0.0132905 -0.0127
v -0.036238 -0.020922 -0.0127
v -0.024846 -0.012977 -0.0127
v -0.02488 -0.01124 -0.0127
v -0.024379 -0.009795 -0.0127
v -0.035944 -0.021938 -0.012945
v -0.036131 -0.021624 -0.012945
v -0.025213 -0.013085 -0.01245
v -0.035811 -0.019042 -0.004419
v -0.03547 -0.018843 -0.004284
v -0.041025 -0.007453 -0.005407
v -0.041025 -0.007453 -0.005407
v -0.040012 -0.012355 -0.006261
v -0.041025 0.007453 -0.005407
v -0.037542 0.016734 -0.004523
v -0.03561 0.018625 -0.003993
v -0.036716 0.016366 -0.00396
v -0.036716 0.016366 -0.00396
v -0.035931 0.016015 -0.00381
v -0.03525 0.018416 -0.003847
v -0.036716 -0.016366 -0.00396
v -0.037542 -0.016734 -0.004523
v -0.038409 0.01186 -0.00396
v -0.039273 0.012127 -0.004523
v -0.037587 0.011606 -0.00381
v -0.039551 0.007185 -0.00396
v -0.038705 0.007031 -0.00381
v -0.041029 0.002461 -0.004523
v -0.040126 0.002406 -0.00396
v -0.040126 0.002406 -0.00396
v -0.039268 0.002355 -0.00381
v -0.040126 -0.002406 -0.00396
v -0.0405775 -0.0024335 -0.0042415
v -0.040441 -0.007346 -0.004523
v -0.037587 -0.011606 -0.00381
v -0.038409 -0.01186 -0.00396
v -0.035931 -0.016015 -0.00381
v -0.03984 0.012302 -0.005407
v -0.041202 -0.007485 -0.006261
v -0.03984 -0.012302 -0.005407
v -0.039273 -0.012127 -0.004523
v -0.040441 -0.007346 -0.004523
v -0.041029 -0.002461 -0.004523
v -0.041622 0.002496 -0.005407
v -0.041029 0.002461 -0.004523
v -0.040441 0.007346 -0.004523
v -0.041025 0.007453 -0.005407
v -0.040441 0.007346 -0.004523
v -0.039273 0.012127 -0.004523
v -0.024968 -0.012794 -0.012667
v -0.024969 -0.01295 -0.012667
v -0.024489 -0.009733 -0.012667
v -0.019025 -0.007768 -0.012667
v -0.012644 -0.005383 -0.004008
v -0.012558 -0.005436 -0.004014
v -0.01233 -0.005209 -0.00414
v -0.013004 -0.005581 -0.003857
v -0.013266 0.003716 -0.00396
v -0.013266 0.003716 -0.00396
v -0.014094 -0.003948 -0.00381
v -0.013266 -0.003716 -0.00396
v -0.012395 -0.003472 -0.004523
v -0.012228 -0.001116 -0.005407
v -0.0125235 -0.001143 -0.004965
v -0.012819 0.00117 -0.004523
v -0.012228 0.001116 -0.005407
v -0.012228 0.001116 -0.005407
v -0.011373 0.004697 -0.005419
v -0.011823 0.003312 -0.005407
v -0.011823 0.003312 -0.005407
v -0.011823 0.003312 -0.005407
v -0.011275 0.004647 -0.00565
v -0.011675 0.003129 -0.006261
v -0.012395 0.003472 -0.004523
v -0.012395 0.003472 -0.004523
v -0.013719 -0.001252 -0.00396
v -0.013719 -0.001252 -0.00396
v -0.014576 -0.001331 -0.00381
v -0.014576 0.001331 -0.00381
v -0.014094 0.003948 -0.00381
v -0.012819 -0.00117 -0.004523
v -0.012819 -0.00117 -0.004523
v -0.012819 0.00117 -0.004523
v -0.013719 0.001252 -0.00396
v -0.022926 0.007509 -0.00381
v -0.024921 0.009424 -0.00381
v -0.024846 0.009468 -0.003825
v -0.024846 0.009468 -0.003825
v -0.024767 0.009513 -0.003883
v -0.021392 0.007002 -0.00381
v -0.022886 0.007586 -0.003825
v -0.024153 0.008542 -0.003825
v -0.024216 0.008482 -0.00381
v -0.022886 0.007586 -0.003825
v -0.024087 0.008604 -0.003883
v -0.024153 0.008542 -0.003825
v -0.012217 0.005421 -0.004426
v -0.012574 0.005624 -0.004284
v -0.012537 0.005581 -0.004143
v -0.009948 0.006922 -0.0127
v -0.010945 0.008236 -0.004025
v -0.010987 0.008157 -0.004014
v -0.010676 0.008074 -0.00414
v -0.00878 0.008583 -0.005407
v -0.003415 0.013346 -0.00396
v -0.003415 0.013346 -0.00396
v -0.003191 0.012471 -0.004523
v -0.007944 0.011255 -0.00396
v -0.006136 0.013289 -0.00381
v -0.005775 0.012507 -0.00396
v -0.007551 0.017371 -0.00381
v -0.003628 0.01418 -0.00381
v -0.003628 0.01418 -0.00381
v -0.009851 0.00963 -0.00396
v -0.007081 0.010031 -0.005407
v -0.007584 0.009367 -0.006261
v -0.008651 0.008457 -0.006261
v -0.005072 0.010984 -0.006261
v -0.006977 0.009884 -0.006261
v -0.007944 0.011255 -0.00396
v -0.007423 0.010516 -0.004523
v -0.005775 0.012507 -0.00396
v -0.005396 0.011687 -0.004523
v -0.008742 0.038355 -0.00381
v -0.0234057 0.0308278 -0.00381
v -0.025441 0.030004 -0.00381
v -0.013263 0.037035 -0.00381
v -0.017594 0.035184 -0.00381
v -0.0156212 0.0344987 -0.00381
v -0.030706 0.028474 -0.006261
v -0.026967 0.031803 -0.005407
v -0.026967 0.031803 -0.005407
v -0.004185 0.03998 -0.00396
v -0.004096 0.039124 -0.00381
v -0.004279 0.040879 -0.004523
v -0.004341 0.04147 -0.005407
v -0.007404 0.041145 -0.006261
v -0.009266 0.040654 -0.005407
v -0.014385 0.039311 -0.006261
v -0.018649 0.037294 -0.005407
v -0.014058 0.039255 -0.005407
v -0.014119 0.039425 -0.006261
v -0.027083 0.03194 -0.006261
v -0.023072 0.034948 -0.006261
v -0.033263 0.024146 -0.004523
v -0.008933 0.039193 -0.00396
v -0.009134 0.040075 -0.004523
v -0.008742 0.038355 -0.00381
v -0.013263 0.037035 -0.00381
v -0.013553 0.037845 -0.00396
v -0.013553 0.037845 -0.00396
v -0.017979 0.035954 -0.00396
v -0.018384 0.036762 -0.004523
v -0.017979 0.035954 -0.00396
v -0.022645 0.034302 -0.004523
v -0.022147 0.033547 -0.00396
v -0.021673 0.032829 -0.00381
v -0.026583 0.03135 -0.004523
v -0.025998 0.03066 -0.00396
v -0.029476 0.027333 -0.00396
v -0.030139 0.027948 -0.004523
v -0.030574 0.028352 -0.005407
v -0.026583 0.03135 -0.004523
v -0.022645 0.034302 -0.004523
v -0.022973 0.034797 -0.005407
v -0.018384 0.036762 -0.004523
v -0.018384 0.036762 -0.004523
v -0.013858 0.038696 -0.004523
v -0.035399 0.022056 -0.006263
v -0.035645 0.022073 -0.012447
v -0.023692 0.015151 -0.012667
v -0.023651 0.015032 -0.0127
v -0.0238964 0.0142908 -0.0127
v -0.02348 0.015132 -0.0127
v -0.023564 0.015226 -0.012667
v -0.022229 0.016041 -0.012667
v -0.018695 0.015977 -0.01245
v -0.01773 0.015391 -0.012575
v -0.019108 0.016211 -0.01245
v -0.018695 0.015977 -0.01245
v -0.017708 0.015418 -0.01245
v -0.020694 0.016341 -0.012667
v -0.016781 0.014124 -0.012667
v -0.022183 0.015923 -0.0127
v -0.022183 0.015923 -0.0127
v -0.020692 0.016215 -0.0127
v -0.01787 0.015222 -0.0127
v -0.01689 0.014061 -0.0127
v -0.016188 0.011995 -0.012667
v -0.016438 0.012937 -0.0127
v -0.017458 0.0119495 -0.0127
v -0.016313 0.011993 -0.0127
v -0.016356 0.010793 -0.0127
v -0.0175619 0.01024 -0.0127
v -0.024982 0.013225 -0.0127
v -0.0208747 0.0100895 0
v -0.0188055 0.0121587 0
v -0.0324525 0.0200282 0
v -0.002255 0.007059 -0.0254
v -0.002371 0.006289 -0.0254
v -0.0046235 0.00534 0
v -0.005633 0.0064905 0
v -0.00389062 0.00815275 0
v -0.00630675 -0.001541 -0.0254
v -0.00765787 -0.004657 0
v 0.005687 -0.0071825 0
v 0.00411475 -0.008461 0
v 0.002484 -0.007803 0
v 0.00408013 -0.005813 0
v 0.002367 -0.0073655 -0.0254
v 0.00227325 -0.00531275 -0.0254
v 0.037285 0.021526 -0.0254
v 0.03645 0.021811 -0.024874
v 0.03645 0.021811 -0.024874
v 0.033233 0.02737 -0.0254
v 0.033233 0.02737 -0.0254
v 0.032142 0.027739 -0.024874
v 0.028275 0.032467 -0.0254
v 0.028275 0.032467 -0.0254
v 0.026884 0.032838 -0.024874
v 0.022546 0.036678 -0.0254
v 0.016201 0.039888 -0.0254
v 0.014161 0.039977 -0.024874
v 0.009415 0.042011 -0.0254
v -0.000219 0.042391 -0.024874
v -0.004736 0.042792 -0.0254
v -0.004736 0.042792 -0.0254
v -0.004678 0.042269 -0.024874
v -0.007504 0.041717 -0.024874
v -0.011715 0.041428 -0.0254
v -0.021046 0.036452 -0.0155675
v -0.024232 0.034947 -0.024874
v -0.036603 0.021385 -0.024874
v -0.038414 0.01944 -0.0254
v -0.034691 0.025497 -0.0254
v -0.034266 0.025186 -0.024874
v -0.039742 0.014776 -0.024874
v -0.04109 0.012852 -0.0254
v -0.042422 0.00044 -0.024874
v -0.043037 -0.001186 -0.0254
v -0.04251 -0.001172 -0.024874
v -0.037285 -0.021526 -0.0254
v -0.03645 -0.021811 -0.024874
v -0.03645 -0.021811 -0.024874
v -0.033233 -0.02737 -0.0254
v -0.033233 -0.02737 -0.0254
v -0.032142 -0.027739 -0.024874
v -0.028275 -0.032467 -0.0254
v -0.028275 -0.032467 -0.0254
v -0.026884 -0.032838 -0.024874
v -0.022546 -0.036678 -0.0254
v -0.016201 -0.039888 -0.0254
v -0.014161 -0.039977 -0.024874
v -0.009415 -0.042011 -0.0254
v 0.004736 -0.042792 -0.0254
v 0.007504 -0.041717 -0.024874
v 0.011715 -0.041428 -0.0254
v 0.021046 -0.036452 -0.0155675
v 0.024232 -0.034947 -0.024874
v 0.036603 -0.021385 -0.024874
v 0.038414 -0.01944 -0.0254
v 0.034691 -0.025497 -0.0254
v 0.034266 -0.025186 -0.024874
v 0.039742 -0.014776 -0.024874
v 0.04109 -0.012852 -0.0254
v 0.042422 -0.00044 -0.024874
v 0.043037 0.001186 -0.0254
v 0.04251 0.001172 -0.024874
v 0.0062845 0.045321 0
v 0.0255375 0.0375885 0
v 0.0279455 0.0202527 0
v -0.0060525 0.040222 0
v -0.0240612 0.031687 0
v -0.0131027 0.037992 0
v -0.045137 0.00639225 0
v -0.044493 -0.0108073 0
v -0.0384226 -0.024708 0
v -0.0235511 -0.0384335 0
v 0.00363575 -0.0378624 0
v -0.01004 -0.0448 0
v 0.025764 -0.037958 0
v 0.027204 -0.036869 0
v 0.0265705 -0.0233498 0
v 0.0294339 0.0126733 0
v 0.0449575 0.0091645 0
v 0.0270552 0.0144932 0
v 0.0064905 0.005633 0
v -0.0088965 -0.008248 0
v 7.3e-05 -0.005876 0
v 0.0056215 -0.001737 0
v 0.0021 0.004363 0
v -0.00828975 0.0051365 0
v -0.0097265 -0.00279 0
v 0.016409 0.007298 0
v -0.0317354 -0.0122732 0
v -0.01669 -0.0068105 0
v -0.0207956 -0.0222147 0
v 0.0102358 0.011959 0
v 0.0015915 -0.0154505 0
v -0.00260775 0.014864 0
v 0.0141728 -0.00379988 0
v 0.0052955 0.0044375 0
v 0.00834225 0.004379 0
v 0.00654925 0.00258575 0
v 0.006053 0.002484 -0.0254
v 0.010486 0.002734 -0.0254
v 0.009443 0.005452 -0.0254
v 0.011198 0.00238 -0.024892
v 0.010665 0.002267 -0.0254
v 0.011385 -0.001197 -0.024892
v 0.009961 -0.004435 -0.0254
v 0.010921 -0.002926 -0.024892
v 0.00278675 -0.00985475 -0.0254
v 0.003393 -0.010521 -0.025146
v 0.002267 -0.010665 -0.0254
v 0.00238 -0.011198 -0.024892
v -0.00504175 -0.00925275 -0.0254
v -0.004656 -0.010458 -0.024892
v -0.006906 -0.006197 -0.0254
v -0.007296 -0.008103 -0.0254
v -0.006158 -0.009483 -0.024892
v 0.00114 0.010844 -0.0254
v 0.00766 0.008507 -0.024892
v -0.00280875 0.00873725 -0.0254
v -0.00238 0.011198 -0.024892
v -0.001052 -0.003927 -0.0254
v -0.010665 -0.002267 -0.0254
v -0.009961 0.004435 -0.0254
v -0.00592313 0.00489837 -0.0254
v -0.010844 0.00114 -0.0254
v -0.011198 -0.00238 -0.024892
v -0.000592 0.011291 -0.024892
v 0.008787 0.007116 -0.024892
v 0.008651 -0.008457 -0.006261
v 0.006977 -0.009884 -0.006261
v 0.003415 -0.013346 -0.00396
v 0.003415 -0.013346 -0.00396
v 0.00878 -0.008583 -0.005407
v 0.010466 -0.010232 -0.00381
v 0.009851 -0.00963 -0.00396
v 0.007081 -0.010031 -0.005407
v 0.007584 -0.009367 -0.006261
v 0.005072 -0.010984 -0.006261
v 0.003191 -0.012471 -0.004523
v 0.007944 -0.011255 -0.00396
v 0.005775 -0.012507 -0.00396
v 0.006136 -0.013289 -0.00381
v 0.003628 -0.01418 -0.00381
v 0.007944 -0.011255 -0.00396
v 0.007423 -0.010516 -0.004523
v 0.005775 -0.012507 -0.00396
v 0.005396 -0.011687 -0.004523
v 0.002514 -0.0287967 -0.00381
v 0.002458 -0.028025 -0.003825
v 0.004964 -0.023812 -0.00381
v 0.004586 -0.025473 -0.003825
v 0.004667 -0.025503 -0.00381
v 0.003813 -0.026991 -0.00381
v 0.00553425 -0.0274965 -0.00381
v 0.002502 -0.0281 -0.00381
v 0.003676 -0.020748 -0.003883
v 0.004444 -0.022203 -0.003973
v 0.0045 -0.025442 -0.003883
v 0.003631 -0.026839 -0.003973
v 0.0045 -0.022183 -0.003883
v 0.003676 -0.026877 -0.003883
v 0.032531 -0.023615 -0.00396
v 0.028845 -0.026748 -0.00381
v 0.021673 -0.032829 -0.00381
v 0.025998 -0.03066 -0.00396
v 0.001397 -0.012482 -0.005423
v 0.001409 -0.012991 -0.004741
v 0.026967 -0.031803 -0.005407
v 0.026967 -0.031803 -0.005407
v 0.030706 -0.028474 -0.006261
v 0.033263 -0.024146 -0.004523
v 0.029476 -0.027333 -0.00396
v 0.029476 -0.027333 -0.00396
v 0.022147 -0.033547 -0.00396
v 0.018384 -0.036762 -0.004523
v 0.013553 -0.037845 -0.00396
v 0.009134 -0.040075 -0.004523
v 0.004185 -0.03998 -0.00396
v 0.004279 -0.040879 -0.004523
v 0.004341 -0.04147 -0.005407
v 0.007404 -0.041145 -0.006261
v 0.009266 -0.040654 -0.005407
v 0.018649 -0.037294 -0.005407
v 0.014385 -0.039311 -0.006261
v 0.014058 -0.039255 -0.005407
v 0.014119 -0.039425 -0.006261
v 0.027083 -0.03194 -0.006261
v 0.023072 -0.034948 -0.006261
v 0.030139 -0.027948 -0.004523
v 0.030574 -0.028352 -0.005407
v 0.026583 -0.03135 -0.004523
v 0.022973 -0.034797 -0.005407
v 0.018384 -0.036762 -0.004523
v 0.013858 -0.038696 -0.004523
v 0.024066 -0.015073 -0.0127
v 0.023692 -0.015151 -0.012667
v 0.023651 -0.015032 -0.0127
v 0.023564 -0.015226 -0.012667
v 0.02224 -0.016169 -0.01245
v 0.020674 -0.016434 -0.012575
v 0.01909 -0.016167 -0.012575
v 0.018695 -0.015979 -0.01245
v 0.017698 -0.015364 -0.012575
v 0.017675 -0.015391 -0.01245
v 0.017143 -0.014746 -0.01245
v 0.016149 -0.012607 -0.012575
v 0.016241 -0.012981 -0.01245
v 0.016113 -0.012612 -0.01245
v 0.016364 -0.012573 -0.0127
v 0.0164 -0.011044 -0.0127
v 0.016974 -0.014885 -0.00406
v 0.013053 -0.0087145 -0.0127
v 0.023633 -0.008822 -0.0127
v 0.024355 -0.009751 -0.0127
v 0.01865 -0.008074 -0.0127
v 0.019658 -0.007706 -0.0127
v 0.019658 -0.007706 -0.0127
v 0.017681 -0.008586 -0.012667
v 0.018593 -0.007962 -0.012667
v 0.01855 -0.00788 -0.012575
v 0.01855 -0.00788 -0.012575
v 0.019601 -0.007458 -0.01245
v 0.019609 -0.007493 -0.012575
v 0.019609 -0.007493 -0.012575
v 0.020732 -0.007344 -0.01245
v 0.020731 -0.007379 -0.012575
v 0.01963 -0.007583 -0.012667
v 0.025408 -0.011884 -0.003883
v 0.0177865 -0.0078575 -0.00381
v 0.019776 -0.007015 -0.00381
v 0.015876 -0.001421 -0.00381
v 0.021477 -0.007105 -0.003825
v 0.0230233 -0.00542575 -0.00381
v 0.021492 -0.007019 -0.00381
v 0.02433 -0.0070975 -0.00381
v 0.025114 -0.010255 -0.003883
v 0.025349 -0.011884 -0.003973
v 0.035931 0.016015 -0.00381
v 0.037587 -0.011606 -0.00381
v 0.0380965 0.0026815 -0.00381
v 0.038705 -0.007031 -0.00381
v 0.039268 -0.002355 -0.00381
v 0.0374193 -0.00359175 -0.00381
v 0.041025 0.007453 -0.005407
v 0.041025 0.007453 -0.005407
v 0.040012 0.012355 -0.006261
v 0.041025 -0.007453 -0.005407
v 0.037542 -0.016734 -0.004523
v 0.03561 -0.018625 -0.003993
v 0.036716 -0.016366 -0.00396
v 0.035931 -0.016015 -0.00381
v 0.036716 -0.016366 -0.00396
v 0.03525 -0.018416 -0.003847
v 0.036716 0.016366 -0.00396
v 0.037542 0.016734 -0.004523
v 0.037587 -0.011606 -0.00381
v 0.039273 -0.012127 -0.004523
v 0.038409 -0.01186 -0.00396
v 0.038705 -0.007031 -0.00381
v 0.039551 -0.007185 -0.00396
v 0.039551 -0.007185 -0.00396
v 0.041029 -0.002461 -0.004523
v 0.040126 -0.002406 -0.00396
v 0.040126 -0.002406 -0.00396
v 0.0405775 0.0024335 -0.0042415
v 0.040126 0.002406 -0.00396
v 0.040441 0.007346 -0.004523
v 0.037587 0.011606 -0.00381
v 0.038409 0.01186 -0.00396
v 0.03984 -0.012302 -0.005407
v 0.041202 0.007485 -0.006261
v 0.03984 0.012302 -0.005407
v 0.039273 0.012127 -0.004523
v 0.040441 0.007346 -0.004523
v 0.041029 0.002461 -0.004523
v 0.041622 -0.002496 -0.005407
v 0.041029 -0.002461 -0.004523
v 0.040441 -0.007346 -0.004523
v 0.041025 -0.007453 -0.005407
v 0.040441 -0.007346 -0.004523
v 0.039273 -0.012127 -0.004523
v 0.024932 0.013166 -0.0127
v 0.024846 0.012977 -0.0127
v 0.024846 0.012977 -0.0127
v 0.024968 0.012794 -0.012667
v 0.024969 0.01295 -0.012667
v 0.025122 0.011176 -0.01245
v 0.02457 0.009687 -0.012575
v 0.024489 0.009733 -0.012667
v 0.022123 0.007733 -0.012667
v 0.019025 0.007768 -0.012667
v 0.017681 0.008586 -0.012667
v 0.017681 0.008586 -0.012667
v 0.02488 0.01124 -0.0127
v 0.024379 0.009795 -0.0127
v 0.024379 0.009795 -0.0127
v 0.023405 0.008615 -0.0127
v 0.022081 0.007851 -0.0127
v 0.020573 0.007597 -0.0127
v 0.019071 0.007886 -0.0127
v 0.019071 0.007886 -0.0127
v 0.019071 0.007886 -0.0127
v 0.017764 0.008681 -0.0127
v 0.017764 0.008681 -0.0127
v 0.017764 0.008681 -0.0127
v 0.017553 0.008661 -0.012667
v 0.0361132 0.0211445 -0.0127
v 0.035873 0.021894 -0.012777
v 0.036436 0.021037 -0.012822
v 0.035913 0.021919 -0.012822
v 0.035944 0.021938 -0.012945
v 0.036131 0.021624 -0.012945
v 0.036131 0.021624 -0.012945
v 0.036436 0.021037 -0.012822
v 0.036356 0.02099 -0.012733
v -0.030706 -0.028474 -0.006261
v -0.023072 -0.034948 -0.006261
v -0.009306 -0.040829 -0.006261
v -0.013976 -0.039466 -0.006261
v -0.02083 -0.036958 -0.024874
v -0.01873 -0.037455 -0.006261
v -0.020521 -0.03642 -0.006261
v -0.020521 -0.03642 -0.006261
v -0.027083 -0.03194 -0.006261
v -0.030574 -0.028352 -0.005407
v -0.004279 -0.040879 -0.004523
v -0.008933 -0.039193 -0.00396
v -0.013858 -0.038696 -0.004523
v -0.017979 -0.035954 -0.00396
v -0.017979 -0.035954 -0.00396
v -0.022147 -0.033547 -0.00396
v -0.026583 -0.03135 -0.004523
v -0.029476 -0.027333 -0.00396
v -0.029476 -0.027333 -0.00396
v -0.030139 -0.027948 -0.004523
v -0.032531 -0.023615 -0.00396
v -0.032531 -0.023615 -0.00396
v -0.033263 -0.024146 -0.004523
v -0.022973 -0.034797 -0.005407
v -0.018649 -0.037294 -0.005407
v -0.018649 -0.037294 -0.005407
v -0.014058 -0.039255 -0.005407
v -0.009266 -0.040654 -0.005407
v -0.009134 -0.040075 -0.004523
v -0.009266 -0.040654 -0.005407
v -0.013858 -0.038696 -0.004523
v -0.014058 -0.039255 -0.005407
v -0.018649 -0.037294 -0.005407
v -0.018384 -0.036762 -0.004523
v -0.018384 -0.036762 -0.004523
v -0.022645 -0.034302 -0.004523
v -0.030139 -0.027948 -0.004523
f 1 3 2
f 1 4 3
f 1 2 4
f 14 15 5
f 5 15 16
f 25 23 24
f 67 68 66
f 84 89 83
f 108 106 110
f 113 114 115
f 119 111 109
f 120 116 123
f 121 117 124
f 125 118 127
f 128 130 131
f 133 134 132
f 112 135 136
f 138 137 139
f 142 140 143
f 145 141 146
f 148 144 149
f 76 69 147
f 86 75 76
f 86 76 93
f 71 72 74
f 71 74 73
f 77 78 70
f 151 150 87
f 153 152 88
f 160 156 161
f 162 159 163
f 166 165 168
f 172 170 167
f 175 174 171
f 182 180 183
f 190 189 200
f 192 191 201
f 194 193 203
f 196 195 204
f 198 197 205
f 207 206 208
f 210 209 211
f 179 181 178
f 178 181 199
f 212 213 181
f 181 213 214
f 181 214 169
f 221 218 220
f 215 216 217
f 219 226 222
f 224 223 225
f 158 155 227
f 157 164 229
f 231 230 173
f 233 232 176
f 235 234 177
f 238 237 239
f 236 240 241
f 242 188 243
f 185 184 244
f 187 186 245
f 247 246 248
f 251 250 249
f 253 252 254
f 257 255 258
f 261 202 262
f 259 256 266
f 265 260 267
f 264 263 268
f 271 270 272
f 228 273 269
f 274 277 275
f 276 278 279
f 281 280 284
f 283 282 285
f 286 287 288
f 298 299 300
f 295 297 296
f 303 301 305
f 309 308 310
f 307 306 311
f 313 314 315
f 316 318 319
f 322 323 325
f 327 328 329
f 333 330 334
f 336 332 338
f 339 335 340
f 347 346 355
f 349 348 356
f 352 350 357
f 353 351 359
f 345 364 365
f 360 366 361
f 367 354 368
f 372 371 370
f 341 363 344
f 374 373 375
f 377 337 331
f 376 337 378
f 380 379 384
f 381 385 386
f 388 342 389
f 391 387 343
f 392 395 396
f 397 393 398
f 362 402 400
f 399 404 401
f 403 369 405
f 407 406 408
f 410 409 411
f 413 358 414
f 416 412 417
f 418 415 419
f 422 421 423
f 425 424 426
f 430 429 427
f 383 433 428
f 432 431 434
f 435 382 439
f 437 436 441
f 440 438 444
f 449 446 451
f 447 445 443
f 450 448 442
f 452 390 455
f 454 453 458
f 457 456 394
f 472 470 473
f 476 475 477
f 459 469 471
f 465 474 485
f 485 474 468
f 485 468 467
f 485 486 463
f 459 460 478
f 462 490 460
f 460 490 482
f 460 482 481
f 491 492 493
f 494 487 495
f 501 502 499
f 498 484 483
f 503 496 504
f 505 497 508
f 507 500 509
f 488 506 489
f 480 510 511
f 512 514 513
f 517 518 519
f 523 521 524
f 515 528 529
f 531 516 526
f 532 530 527
f 536 546 420
f 549 548 547
f 553 552 556
f 560 561 563
f 562 564 565
f 567 557 555
f 569 566 570
f 571 573 574
f 559 575 576
f 578 577 537
f 581 579 538
f 583 580 543
f 584 582 544
f 585 588 586
f 590 591 589
f 593 592 594
f 312 572 558
f 312 558 324
f 324 558 568
f 312 587 550
f 312 550 572
f 597 320 554
f 597 551 598
f 604 605 606
f 612 616 614
f 619 615 621
f 626 623 627
f 617 631 633
f 609 635 607
f 632 618 637
f 628 630 639
f 625 629 641
f 622 624 642
f 613 620 611
f 638 636 608
f 644 640 610
f 645 643 634
f 646 599 647
f 600 648 601
f 595 649 596
f 650 651 653
f 650 652 651
f 665 664 668
f 669 663 666
f 672 656 674
f 655 675 676
f 659 658 678
f 662 660 679
f 667 661 670
f 677 657 673
f 671 680 654
f 687 686 681
f 683 689 682
f 691 690 688
f 685 692 684
f 693 695 694
f 697 699 698
f 702 705 709
f 700 712 713
f 711 714 715
f 717 710 704
f 719 716 706
f 703 718 701
f 708 707 63
f 708 63 154
f 721 725 62
f 733 732 734
f 737 735 738
f 726 739 728
f 742 730 720
f 746 744 723
f 750 745 724
f 755 753 722
f 756 741 757
f 752 754 760
f 748 751 763
f 747 749 764
f 729 743 731
f 759 758 727
f 762 761 736
f 766 765 64
f 771 768 767
f 774 773 777
f 770 772 781
f 780 778 782
f 783 779 784
f 786 785 788
f 65 776 775
f 790 302 304
f 789 790 787
f 696 293 790
f 790 293 292
f 790 292 294
f 791 290 769
f 769 290 289
f 769 289 291
f 808 810 811
f 812 813 814
f 815 816 817
f 818 819 820
f 821 824 822
f 823 825 826
f 831 832 829
f 830 833 834
f 836 835 837
f 838 840 842
f 841 843 845
f 844 846 847
f 848 849 850
f 851 852 853
f 858 859 856
f 857 860 861
f 863 862 864
f 884 801 889
f 34 801 30
f 30 801 884
f 30 884 885
f 886 30 885
f 30 886 37
f 37 886 887
f 37 887 39
f 39 887 896
f 888 35 798
f 798 35 797
f 896 799 39
f 39 799 35
f 801 36 889
f 890 42 894
f 880 882 44
f 867 894 42
f 893 321 891
f 892 317 884
f 321 893 326
f 326 893 884
f 326 884 317
f 891 871 872
f 891 792 794
f 869 793 888
f 896 869 888
f 896 888 799
f 799 888 798
f 868 82 894
f 896 85 870
f 866 865 894
f 894 865 868
f 866 894 867
f 897 881 880
f 897 55 881
f 897 59 55
f 52 879 55
f 52 55 54
f 50 49 879
f 897 49 59
f 895 877 897
f 897 877 878
f 897 878 49
f 895 461 877
f 461 466 875
f 893 464 895
f 895 464 461
f 875 464 893
f 893 874 876
f 893 876 875
f 893 873 874
f 872 873 891
f 891 873 893
f 870 869 896
f 888 889 35
f 35 889 36
f 794 871 891
f 892 891 317
f 317 891 321
f 82 85 894
f 894 85 896
f 890 894 897
f 894 896 887
f 894 887 883
f 883 887 898
f 883 899 894
f 894 899 897
f 898 887 900
f 900 887 886
f 897 899 900
f 897 900 886
f 890 897 880
f 890 880 42
f 793 792 888
f 888 792 891
f 888 891 889
f 889 891 892
f 889 892 884
f 885 805 886
f 803 895 897
f 803 897 802
f 895 803 804
f 897 886 805
f 897 805 802
f 893 895 884
f 884 895 885
f 885 895 804
f 885 804 805
f 902 904 905
f 907 906 908
f 910 912 911
f 917 916 914
f 31 29 901
f 38 796 795
f 38 795 920
f 807 806 32
f 32 806 922
f 32 922 33
f 925 800 924
f 922 913 915
f 922 915 33
f 806 909 922
f 922 909 913
f 927 926 923
f 918 921 928
f 903 919 929
f 91 92 90
f 522 525 520
f 934 938 930
f 937 939 931
f 933 943 944
f 946 936 941
f 948 945 942
f 940 947 932
f 952 951 953
f 950 954 956
f 958 957 961
f 960 959 962
f 28 935 27
f 949 955 22
f 967 968 479
f 964 963 973
f 965 966 975
f 982 981 983
f 986 985 987
f 971 988 970
f 974 972 990
f 977 976 995
f 979 978 980
f 992 991 969
f 994 993 984
f 999 998 997
f 1000 26 1001
f 1002 1003 1004
f 1008 1009 1007
f 1012 1006 1005
f 51 19 18
f 20 21 51
f 51 21 996
f 56 1014 53
f 53 1014 1015
f 57 58 1018
f 60 1013 94
f 61 1010 60
f 60 1010 1011
f 1021 1023 1024
f 1025 1026 1027
f 1019 1022 1020
f 1016 1028 1017
f 1033 1031 1035
f 1038 1037 1029
f 8 7 17
f 1030 95 1032
f 1041 1044 9
f 99 98 100
f 11 12 10
f 96 98 1032
f 1032 98 6
f 1032 6 1034
f 1036 1034 13
f 1050 1054 1051
f 1059 1052 1040
f 1061 1057 1042
f 1065 1060 1043
f 1055 1069 1039
f 1047 1072 1045
f 1070 1056 1074
f 1067 1068 1076
f 1064 1066 1078
f 1062 1063 1081
f 1053 1058 1049
f 1075 1073 1046
f 1079 1077 1048
f 1082 1080 1071
f 1086 1084 1087
f 1088 101 1089
f 1095 1090 1097
f 1098 1091 1099
f 1100 1092 1102
f 1103 1094 1105
f 1107 1106 1093
f 122 126 48
f 48 126 47
f 97 102 40
f 40 102 103
f 40 103 129
f 41 1101 40
f 40 1101 1104
f 1083 1085 46
f 46 1085 45
f 43 45 1096
f 104 1108 46
f 104 46 105
f 105 46 107
f 809 1113 1112
f 80 81 79
f 828 827 740
f 1111 1114 1115
f 1109 1110 1116
f 839 603 602
f 1123 1121 1118
f 855 854 989
f 541 545 1130
f 540 542 1132
f 534 539 1134
f 533 535 1138
f 1117 1126 1125
f 1124 1141 1122
f 1120 1144 1119
f 1128 1127 1145
f 1131 1129 1150
f 1135 1133 1153
f 1137 1136 1139
f 1147 1146 1143
f 1151 1148 1142
f 1152 1149 1140
