v 0.02713 0.064959 0.042548
v 0.035423 0.062002 0.042548
v 0.028942 0.059748 0.042548
v 0.0338015 0.0622592 0.0392
v 0.032183 0.060875 0.0392
v 0.032183 0.060875 0.0392
v 0.030371 0.066086 0.0392
v 0.0331451 0.0665944 0.0392
v 0.03497 0.063305 0.0392
v 0.032993 0.061157 0.0392
v 0.034744 0.063956 0.0392
v 0.029561 0.065804 0.0392
v 0.031373 0.060593 0.0392
v 0.0286057 0.0633275 0.0392
v 0.035423 0.062002 0.042548
v 0.0307751 0.064074 0.0392
v 0.0317789 0.0630163 0.037953
v 0.0325032 0.0639528 0.037953
v 0.0308423 0.061139 0.037953
v 0.028167 0.064589 0.037953
v 0.02945 0.0633472 0.037953
v 0.02675 0.063367 0.038318
v 0.030081 0.066919 0.038318
v 0.026524 0.064018 0.038318
v 0.026524 0.064018 0.038318
v 0.029271 0.066637 0.038318
v 0.026213 0.065403 0.03848
v 0.030852 0.059478 0.038318
v 0.030042 0.059197 0.038318
v 0.029526 0.060681 0.037953
v 0.026007 0.065503 0.042548
v 0.026007 0.065503 0.042548
f 6 13 3
f 12 7 1
f 9 15 11
f 10 5 2
f 4 8 16
f 16 14 4
f 16 8 14
f 23 26 32
f 25 22 31
f 20 24 27
f 17 21 18
f 18 19 17
f 19 21 17
f 28 29 30
