v 0.0226104 0.0701735 0.0507246
v -0.0192557 0.0456129 0.0261228
v -0.0205 0.047994 0.026398
v -0.0205 0.086259 0.033145
v 0.0195 0.087315 0.033331
v -0.018413 0.0884544 0.0334722
v 0.026212 0.0835925 0.0405445
v -0.0161026 0.085825 0.0427673
v 0.0247879 0.0757843 0.0385275
v 0.0185 0.045939 0.031874
v 0.0194809 0.0463842 0.0278913
v 0.0256038 0.0486102 0.028284
v -0.0215 0.053383 0.027094
v -0.0205 0.049698 0.026445
v -0.0215 0.080957 0.031956
v -0.0205 0.084642 0.032606
v -0.020929 0.082394 0.040333
v -0.0205 0.083253 0.040485
v -0.023031 0.0519912 0.0287342
v -0.023499 0.051846 0.034947
v -0.0209 0.0601809 0.0364169
v -0.0225 0.0587904 0.0356036
v -0.0220892 0.04975 0.033273
v -0.014 0.044955 0.031701
v -0.017742 0.045939 0.031874
v -0.0205 0.047918 0.036539
v -0.019303 0.04638 0.036268
v 0.020096 0.089965 0.035576
v -0.0223139 0.0849913 0.0332805
v -0.0064125 0.041831 0.0378995
v -0.0115437 0.0226212 0.0117313
v 0.0234954 0.0881748 0.0329945
v 0.0195 0.087358 0.033085
v -0.014 0.088343 0.033259
v -0.017742 0.087358 0.033085
v 0.0275085 0.047883 0.0281552
v -0.0206447 0.0488664 0.0262639
v -0.0205 0.0858337 0.0329379
v 0.031711 0.0567266 0.0280873
v -0.022265 0.053356 0.027244
v -0.022914 0.053281 0.027671
v -0.022481 0.053331 0.027386
v -0.023204 0.053206 0.028098
v 0.020096 0.08907 0.033542
v 0.020096 0.089258 0.033721
v 0.020096 0.089634 0.034081
v 0.020096 0.089844 0.034558
v 0.020096 0.089948 0.034796
v -0.023348 0.080743 0.033172
v -0.023204 0.08078 0.03296
v -0.022914 0.080855 0.032533
v -0.022481 0.080906 0.032248
v -0.022265 0.080931 0.032106
v -0.014 0.089948 0.034796
v -0.014 0.089844 0.034558
v -0.014 0.089634 0.034081
v -0.014 0.089258 0.033721
v -0.014 0.08907 0.033542
v 0.0225589 -0.00881807 0.101751
v -0.0297 0 0.070048
v -0.0296279 7.54448e-05 0.0712117
v -0.029364 -1.8e-05 0.071206
v -0.028988 -1.5e-05 0.073904
v -0.0320714 0.00189622 0.0589462
v -0.030381 0 0.063335
v -0.030417 -1.4e-05 0.062843
v -0.030274 -2.3e-05 0.064666
v -0.028586 0 0.077159
v -0.028393 -1.2e-05 0.078176
v -0.027641 0 0.081574
v -0.02756 -9e-06 0.081553
v -0.02706 0 0.084291
v -0.0251203 -0.000749142 0.0908072
v 0.0298744 0.00495217 0.0262811
v 0.032253 0.001 0.038163
v 0.03204 0.001 0.036549
v 0.031798 0.001 0.03472
v 0.031174 0.001 0.030812
v -0.032779 0.001 0.064087
v -0.032668 0.001 0.065288
v -0.030997 0.001 0.077595
v -0.032466 0.001 0.067473
v -0.031575 0.001 0.074227
v -0.03115 0.001 0.076703
v -0.0326667 0.00429422 0.0524964
v -0.030508 0.001 0.027263
v -0.031174 0.001 0.030812
v -0.0315 0.001 0.032764
v -0.031798 0.001 0.03472
v -0.029754 0.001 0.023738
v -0.0289 0.001 0.020187
v -0.026918 0.001 0.013099
v -0.02796 0.001 0.016658
v -0.028629 0.001 0.019167
v 0.02796 0.001 0.016658
v 0.026951 0.001 0.013361
v 0.00101304 0.0234881 0.0277234
v 0.030002 0.001 0.024976
v 0.029754 0.001 0.023738
v 0.029338 0.001 0.021959
v 0.0289 0.001 0.020187
v 0.028629 0.001 0.019167
v 0.029174 0.001 0.085968
v 0.029776 0.001 0.083467
v 0.028591 0.001 0.088065
v 0.0131925 0.0176644 0.104229
v -0.028078 0.00828826 0.0842777
v -0.0288188 0.00974563 0.026349
v 0.032864 -0.000378638 0.0499337
v 0.0206491 -0.00449819 0.00279779
v -0.0247879 -0.000602852 0.00582586
v -0.0299397 -0.0047553 0.0600848
v -0.0229731 0.00998104 0.0874204
v 0.0279418 -0.0111524 0.0533452
v -0.0249735 -0.00047552 0.100887
v 0.0307539 0.00486859 0.0476608
v 0.03297 -0.001 0.062139
v 0.0320781 6.38533e-05 0.0716184
v 0.032563 -0.001 0.067037
v 0.031781 -0.001 0.073221
v 0.030702 -0.001 0.079392
v 0.029322 -0.001 0.085566
v 0.0284369 -0.000929892 0.0889843
v 0.0248624 -0.000210066 0.101335
v 0.028656 -0.001 0.08797
v 0.031178 -0.001 0.076536
v 0.030979 -0.001 0.077697
v 0.030296 -0.001 0.081123
v 0.030023 -0.001 0.082265
v 0.0324831 -0.000999998 0.0673123
v 0.032082 -0.001 0.070719
v 0.031572 -0.001 0.074248
v 0.032791 -0.001 0.063935
v -0.0184867 -0.0123449 0.0919902
v -0.0300954 0.00017283 0.0826263
v -0.028983 -0.001 0.086901
v -0.030446 -0.001 0.080646
v -0.031602 -0.001 0.074376
v -0.032444 -0.001 0.068155
v -0.0326946 -0.000987252 0.065562
v -0.026649 -0.001 0.094797
v -0.028649 -0.001 0.087992
v -0.0316048 -0.001 0.0740484
v -0.0292583 -0.00834221 0.0778964
v -0.030979 -0.001 0.077697
v -0.030296 -0.001 0.081123
v -0.02952 -0.001 0.084558
v -0.028656 -0.001 0.08797
v -0.025312 -0.001 0.008075
v -0.026358 -0.001 0.011223
v -0.0322894 -0.000723144 0.0376214
v -0.032031 -0.001 0.036076
v -0.031031 -0.001 0.029784
v -0.0289113 -7.43252e-05 0.0201341
v -0.029731 -0.001 0.023479
v -0.028993 -0.001 0.02042
v -0.028185 -0.001 0.017357
v -0.025788 -0.001 0.009556
v -0.031063 -0.001 0.030257
v -0.029753 -0.001 0.023735
v -0.029337 -0.001 0.021956
v -0.027958 -0.001 0.016653
v -0.028469 -0.001 0.01857
v -0.028899 -0.001 0.020183
v -0.031174 -0.001 0.03081
v -0.031798 -0.001 0.03472
v 0.0269286 0.000287595 0.0130951
v 0.027394 -0.001 0.014585
v 0.029159 -0.001 0.021081
v 0.02992 -0.001 0.024314
v 0.0311811 -0.000725875 0.0302834
v 0.030603 -0.001 0.027543
v 0.031733 -0.001 0.033991
v 0.032498 -0.001 0.039946
v 0.032001 -0.001 0.036175
v 0.031501 -0.001 0.032767
v 0.028438 -0.001 0.018578
v 0.0297816 -0.001 0.0238608
v 0.030239 -0.001 0.025954
v 0.031037 -0.001 0.030261
v 0.029544 -0.001 0.022826
v 0.029297 -0.001 0.021788
v 0.0134223 0.0152582 0.000585736
v 0.010526 0.016642 3.8e-05
v -0.013486 0.014712 0.000311
v -0.013436 0.014695 0.000215
v -0.013454 0.014701 0.000251
v -0.010526 0.016642 3.8e-05
v -0.013259 0.014632 7.2e-05
v -0.013325 0.014656 0.000106
v -0.013 0.01454 0
v -0.013174 0.014602 2.9e-05
v -0.013198 0.014611 4.1e-05
v 0.0131266 0.0145779 1.27351e-05
v 0.0133913 0.0146793 0.000154254
v 0.013259 0.014632 7.2e-05
v 0.013198 0.014611 4.1e-05
v 0.013531 0.014728 0.0005
v 0.013505 0.0147177 0.000347389
v 0.013454 0.014701 0.000251
v -0.00766685 -0.0182735 1.19286e-05
v -0.008137 -0.01793 4.1e-05
v -0.008188 -0.017969 7.2e-05
v -0.008244 -0.018011 0.000106
v -0.00817068 -0.0183913 0.000285456
v -0.008353 -0.018093 0.000251
v -0.00839966 -0.0181286 0.000359086
v -0.00476285 -0.0246664 0.00266769
v -0.00819984 -0.0183825 0.000929077
v -0.008418 -0.018142 0.0005
v 0.011866 0.00445 0.000748
v 0.013516 0.014742 0.00063
v 0.011915 0.00445 0.000627
v 0.011932 0.00445 0.000498
v 0.011678 0.00445 6.7e-05
v 0.011864 0.00445 0.000249
v 0.011914 0.00445 0.000369
v 0.0114566 0.00445006 8.29941e-06
v -0.013473 0.014781 0.000748
v -0.0134756 0.014974 0.000317403
v -0.0111506 0.0187494 0.00196539
v 0.00252782 0.0076255 0.0023757
v -0.032404 0.001 0.03908
v -0.031599 0.001 0.033122
v -0.030425 0.001 0.026665
v -0.02972 0.001 0.023432
v -0.028936 0.001 0.020194
v -0.028088 0.001 0.017006
v -0.027163 0.001 0.013814
v -0.026163 0.001 0.010618
v 0.032031 0.001 0.036076
v 0.031031 0.001 0.029784
v 0.028962 0.001 0.020294
v 0.028116 0.001 0.017107
v 0.029731 0.001 0.023479
v 0.026196 0.001 0.01072
v 0.032731 0.001 0.042347
v -0.0283872 -0.0106644 0.0443589
v -0.00402242 -0.0455997 0.00319221
v 0.0298985 -0.00216143 0.0245027
v -0.0301643 -0.00321883 0.0264951
v -0.028622 -0.001262 0.087992
v 0.0309071 -0.00565086 0.0741111
v -0.03297 0.001 0.062139
v -0.032563 0.001 0.067037
v -0.031781 0.001 0.073221
v -0.030702 0.001 0.079392
v 0.027209 0.001 0.093157
v 0.028983 0.001 0.086901
v 0.030446 0.001 0.080646
v 0.0184002 0.0822873 0.0425991
v -0.017386 0.046938 0.036366
v 0.0197629 0.0855524 0.0431745
v 0.0201182 0.0453051 0.0360782
v -0.01983 0.052587 0.037362
v -0.01983 0.078192 0.041877
v -0.002389 0.049455 0.034576
v -0.002362 0.048728 0.034397
v -0.002362 0.04872 0.034446
v -0.001944 0.04872 0.034446
v -0.002438 0.048495 0.034407
v 0.002905 0.048782 0.034457
v 0.0025 0.048782 0.034457
v 0.002905 0.048919 0.034482
v 0.002905 0.048791 0.034408
v -0.005074 0.050042 0.034679
v -0.005074 0.050051 0.03463
v -0.005074 0.054224 0.035417
v -0.005074 0.054233 0.035368
v -0.0065916 0.0539614 0.0353717
v -0.00596275 0.0539 0.0353597
v -0.00708182 0.0532761 0.0352496
v -0.00719519 0.0534217 0.0352311
v -0.00616561 0.0522737 0.0350736
v -0.00687438 0.0510583 0.0348411
v -0.00670537 0.0520984 0.0350167
v -0.00678401 0.052692 0.0351465
v -0.00689044 0.0522318 0.0350654
v -0.0070445 0.0524095 0.035046
v -0.00691838 0.0511485 0.0348238
v -0.00606575 0.0520888 0.0350277
v -0.00646978 0.0533147 0.0352572
v -0.006668 0.0540555 0.0353365
v -0.006188 0.053438 0.0352275
v -0.0058655 0.050171 0.034702
v -0.005336 0.0503 0.034725
v -0.005336 0.050308 0.034676
v -0.005336 0.053982 0.035374
v -0.005336 0.053991 0.035325
v 0.0112739 0.0739884 0.0388824
v 0.011697 0.07561 0.039188
v 0.00979262 0.0753662 0.0390942
v 0.00982292 0.0740523 0.0389053
v 0.009891 0.074073 0.038866
v 0.009535 0.0744075 0.038925
v 0.009375 0.07295 0.038719
v 0.009838 0.07295 0.038719
v 0.0096065 0.072959 0.03867
v 0.010416 0.073976 0.0389
v 0.010416 0.073985 0.03885
v 0.011273 0.073985 0.03885
v 0.011273 0.07295 0.038719
v 0.011273 0.072959 0.03867
v 0.011697 0.07295 0.038719
v 0.00937668 0.0750454 0.0391626
v 0.005121 0.075125 0.039051
v 0.004614 0.073978 0.038849
v 0.005121 0.075116 0.039101
v 0.004614 0.073969 0.038898
v 0.005632 0.073978 0.038849
v 0.005632 0.073969 0.038898
v 0.006532 0.072951 0.038719
v 0.006307 0.072959 0.03867
v 0.006082 0.072951 0.038719
v 0.00505993 0.07566 0.0391965
v 0.0051215 0.075609 0.039137
v 0.00401539 0.0729521 0.0387189
v 0.003939 0.072959 0.03867
v 0.004448 0.073598 0.038833
v 0.004448 0.073607 0.038784
v 0.005794 0.073598 0.038833
v 0.005794 0.073607 0.038784
v 0.00721875 0.0778234 0.0395272
v 0.00697277 0.0775775 0.0395348
v 0.00782853 0.078182 0.0396407
v 0.0078855 0.078056 0.039568
v -0.00434357 0.0505449 0.0347528
v -0.004331 0.05366 0.035267
v -0.0041555 0.0502255 0.0346612
v -0.00291725 0.0501292 0.034685
v -0.0031125 0.0501612 0.034694
v -0.0015495 0.050025 0.0346255
v 0.000961825 0.0539693 0.0353755
v 0.00096825 0.0530335 0.035156
v -0.00312397 0.0540916 0.0353939
v -0.001789 0.054141 0.035402
v -0.00167195 0.053849 0.0353429
v -0.002771 0.052745 0.035156
v -0.002771 0.051437 0.034925
v -0.002771 0.051446 0.034876
v -0.000952582 0.0520058 0.0349973
v -0.000403 0.051703 0.034922
v -0.001002 0.05274 0.035155
v 0.000731011 0.0507155 0.0347684
v -0.000403 0.051695 0.034971
v -0.00101233 0.052754 0.0351152
v -0.00274311 0.0527323 0.03513
v -0.00351871 0.0508399 0.0348031
v -0.00230015 0.0516841 0.0349356
v -0.0036805 0.050855 0.034823
v -0.003532 0.053229 0.0352211
v -0.000580625 0.0534534 0.0352652
v 0.00456075 0.0490437 0.034453
v 0.00459877 0.0491544 0.0345132
v 0.004639 0.0488435 0.0344425
v 0.00464375 0.0494286 0.0345712
v 0.005459 0.050036 0.034678
v 0.006362 0.050132 0.034695
v 0.0070595 0.0505621 0.0347712
v 0.007514 0.053165 0.03523
v 0.007517 0.0520905 0.03499
v 0.006873 0.053839 0.035349
v 0.00722612 0.0534809 0.0352859
v 0.00554162 0.0543103 0.035457
v 0.00679362 0.0538877 0.0353322
v 0.00584862 0.0541929 0.0354112
v 0.007163 0.052249 0.035069
v 0.007162 0.052254 0.035069
v 0.006501 0.050889 0.034829
v 0.00688369 0.0514661 0.0349306
v 0.006476 0.050883 0.034777
v 0.005459 0.0505166 0.0347632
v 0.005459 0.050671 0.03474
v 0.005459 0.050663 0.034789
v 0.00706357 0.0530134 0.0352037
v 0.00736649 0.0508292 0.034818
v 0.00640305 0.0501461 0.034698
v 0.006405 0.050147 0.034698
v 0.007344 0.05211 0.035044
v 0.005459 0.0535615 0.0352745
v 0.0071635 0.0522295 0.035065
v 0.003649 0.049083 0.034485
v 0.00309975 0.0493626 0.0345087
v 0.00308108 0.0494216 0.0345701
v 0.00311969 0.0488639 0.0344275
v 0.00329316 0.0489722 0.0344832
v 0.0170792 0.0543417 0.0422354
v 0.0103778 0.0653925 0.0398146
v 0.013 0.0841 0.054444
v 0.0161575 0.0433419 0.0446018
v 0.0199726 0.0481777 0.0354252
v 0.021 0.050617 0.04854
v 0.0212439 0.0575245 0.0403268
v 0.020985 0.049635 0.048367
v 0.020928 0.051052 0.037853
v 0.020931 0.049214 0.048292
v 0.0209 0.050511 0.037758
v 0.020909 0.049046 0.048263
v 0.020808 0.048262 0.048125
v 0.018924 0.052949 0.035309
v 0.0162328 0.082754 0.0403968
v 0.018709 0.078568 0.039745
v 0.018914 0.078553 0.039835
v 0.019038 0.052946 0.035329
v 0.019021 0.078544 0.039882
v 0.019729 0.052869 0.035764
v 0.0142094 0.0449111 0.0358249
v 0.015202 0.0451898 0.0354465
v 0.013 0.044971 0.035672
v 0.013 0.044951 0.035725
v 0.013 0.045662 0.034888
v 0.013 0.045822 0.03479
v 0.0192286 0.0508453 0.0350387
v 0.013 0.047009 0.034321
v 0.0145256 0.0466021 0.034369
v 0.013 0.0463 0.034498
v 0.013 0.046223 0.034545
v 0.0163806 0.0494814 0.0345295
v 0.013 0.047341 0.034239
v 0.013 0.047123 0.034293
v -0.013 0.04597 0.034672
v -0.013 0.046231 0.03457
v -0.013 0.046943 0.034291
v -0.013 0.046999 0.034291
v -0.013 0.047116 0.034289
v -0.013 0.044911 0.035842
v -0.013 0.044976 0.035745
v -0.013 0.045385 0.035139
v -0.013 0.045455 0.035082
v -0.0180993 0.0435245 0.0432877
v -0.0209795 0.0514162 0.0379039
v -0.020826 0.052617 0.037193
v -0.020829 0.051439 0.03698
v -0.020794 0.052647 0.037025
v -0.020805 0.052637 0.03708
v -0.02025 0.052802 0.036147
v -0.02011 0.052823 0.036025
v -0.0194174 0.0512413 0.0352023
v -0.019689 0.052888 0.035659
v -0.019757 0.052877 0.035718
v -0.014088 0.047136 0.034265
v -0.0162328 0.0488075 0.034411
v -0.018709 0.052963 0.03523
v -0.018914 0.052948 0.03532
v -0.0201204 0.0490456 0.0356628
v -0.0148502 0.0454591 0.0350119
v -0.019038 0.078551 0.039844
v -0.018924 0.078554 0.039824
v -0.019729 0.078474 0.040279
v -0.020121 0.078431 0.040527
v -0.020373 0.078362 0.040913
v -0.021 0.078062 0.042616
v -0.020835 0.078223 0.041706
v -0.020815 0.078242 0.041593
v -0.0189192 0.0839301 0.0431886
v -0.020009 0.082461 0.043391
v -0.019987 0.082501 0.043398
v -0.0199088 0.082661 0.0426049
v -0.020643 0.081027 0.043139
v 0.0140641 0.0859273 0.0431976
v -0.0141673 0.0859504 0.04429
v -0.013 0.085649 0.042182
v -0.0153347 0.0858686 0.0428401
v -0.013 0.085928 0.04295
v -0.013 0.085547 0.04192
v -0.0192771 0.0802046 0.0402185
v -0.0184832 0.0843165 0.0414605
v -0.013 0.084474 0.040927
v -0.0145276 0.0848414 0.0411125
v -0.013 0.08508 0.041335
v -0.0130184 0.0854276 0.0417724
v -0.013 0.084191 0.040736
v -0.013 0.084377 0.040862
v -0.020928 0.079467 0.042863
v -0.0209 0.080009 0.042959
v -0.0207 0.080802 0.043099
v -0.018913 0.083889 0.043643
v -0.01889 0.083914 0.043648
v -0.0207879 0.0796407 0.041656
v -0.0204768 0.0813641 0.0419982
v 0.013 0.085938 0.04295
v 0.013 0.084388 0.040852
v -0.015746 0.083098 0.040457
v 0.013 0.084498 0.040892
v 0.013 0.085101 0.041447
v 0.013 0.085444 0.041763
v 0.013 0.085623 0.042194
v 0.018839 0.083955 0.043655
v 0.018842 0.083975 0.042717
v 0.021138 0.0781616 0.0528572
v 0.0210692 0.0744104 0.0430587
v 0.0197466 0.0826574 0.0413591
v 0.0146999 0.0847163 0.041013
v 0.0194851 0.0800679 0.0403189
v 0.014426 0.08587 0.043992
v 0.0151077 0.085882 0.0433082
v 0.018917 0.083885 0.043643
v 0.018942 0.083863 0.043639
v 0.021 0.076222 0.053055
v 0.020926 0.077764 0.053327
v 0.020924 0.07781 0.053335
v 0.0208394 0.0784832 0.0535313
v 0.0190265 0.0819323 0.0541563
v 0.018907 0.082059 0.054084
v 0.018846 0.082126 0.054096
v 0.0185881 0.0823951 0.0541454
v 0.0157498 0.0838373 0.0544136
v 0.0171198 0.0852541 0.0418543
v 0.013997 0.084086 0.054441
v 0.014424 0.084032 0.054432
v 0.020934 0.076206 0.053145
v 0.020936 0.076206 0.053145
v 0.020881 0.077788 0.053425
v 0.013 0.084088 0.054477
v 0.013 0.084086 0.054479
v 0.014596 0.084006 0.054466
v 0.0152328 0.0839286 0.0544523
v 0.013 0.084059 0.054508
v 0.014597 0.084005 0.054499
v 0.015388 0.083892 0.054479
v 0.020915 0.077795 0.053404
v 0.020937 0.077804 0.053371
v 0.0208142 0.078423 0.0535386
v 0.0199379 0.0807961 0.053963
v 0.014594 0.083968 0.054515
v 0.013 0.084019 0.054525
v 0.013 0.083984 0.054525
v 0.013519 0.083981 0.054525
v 0.013 0.084021 0.054524
v 0.017269 0.0832824 0.0543999
v 0.020945 0.076206 0.053143
v 0.020969 0.07621 0.053122
v 0.020981 0.076211 0.053112
v 0.02099 0.076215 0.05309
v 0.020991 0.076216 0.053088
v 0.020999 0.076219 0.053069
v -0.013 0.084096 0.054458
v -0.013 0.084019 0.054523
v -0.013 0.084021 0.054523
v -0.013 0.08403 0.054522
v -0.013 0.084086 0.054475
v -0.013 0.084084 0.054477
v -0.013 0.084072 0.054498
v -0.013 0.084058 0.054506
v -0.020945 0.076206 0.053143
v -0.020936 0.076206 0.053145
v -0.020882 0.077775 0.053423
v -0.014607 0.083966 0.054515
v -0.020985 0.077203 0.053228
v -0.021 0.076222 0.053055
v -0.020999 0.076219 0.053069
v -0.020931 0.077624 0.053302
v -0.02099 0.076215 0.05309
v -0.020911 0.077787 0.053369
v -0.0202 0.080381 0.053788
v -0.020644 0.079183 0.053577
v -0.020776 0.078825 0.053514
v -0.020802 0.078568 0.053504
v -0.0208075 0.0785776 0.0534716
v -0.020981 0.076211 0.053112
v -0.020916 0.077782 0.053402
v -0.020801 0.07856 0.053539
v -0.0193522 0.0815971 0.054088
v -0.0188187 0.0821375 0.0541924
v -0.014611 0.084004 0.054499
v -0.014613 0.084031 0.054469
v -0.015507 0.0841661 0.054472
v -0.018928 0.082038 0.05408
v -0.0148996 0.0839998 0.0544718
v -0.014567 0.084027 0.054431
v -0.0150142 0.0839108 0.0545117
v -0.0206139 0.0792699 0.0536889
v -0.020897 0.076716 0.053243
v -0.0209 0.076204 0.053153
v -0.018996 0.081978 0.05407
v -0.0200719 0.0805808 0.0539145
v -0.020926 0.049074 0.048268
v -0.0160561 0.043066 0.0472945
v 0.0134129 0.0427461 0.047156
v 0.013 0.042787 0.047253
v -0.013 0.042819 0.047266
v -0.013 0.042805 0.047263
v -0.013 0.042788 0.047252
v 0.013 0.042785 0.047252
v -0.013 0.042786 0.047251
v 0.013 0.042777 0.047248
v -0.013 0.042765 0.047238
v 0.013 0.042757 0.047224
v -0.013 0.042757 0.047224
v 0.013 0.042746 0.047211
v 0.013 0.042741 0.047188
v -0.013 0.042741 0.047197
v -0.0123901 0.0425549 0.0460469
v -0.014594 0.042838 0.047263
v -0.020945 0.050601 0.048628
v -0.020981 0.050606 0.048597
v -0.020915 0.049018 0.04833
v -0.02099 0.05061 0.048575
v -0.014597 0.042809 0.047235
v -0.0150791 0.0428623 0.047205
v -0.0208002 0.0479955 0.0481286
v -0.0207548 0.0482377 0.0482193
v -0.020881 0.049017 0.048352
v -0.0209 0.050599 0.048638
v -0.020936 0.050601 0.04863
v -0.020861 0.049202 0.048392
v -0.013519 0.042822 0.047267
v -0.020999 0.050614 0.048554
v 0.0178087 0.080814 0.053966
v -0.017016 0.045021 0.047655
v 0.0206463 0.0475992 0.0480998
v 0.020897 0.050088 0.048548
v 0.0209 0.050599 0.048638
v 0.0184393 0.0465429 0.0479233
v -0.014931 0.043928 0.047462
v 0.014607 0.042839 0.047263
v 0.020994 0.050611 0.048574
v 0.020993 0.05061 0.048576
v 0.020912 0.049038 0.0483
v 0.020802 0.048258 0.04816
v 0.020971 0.050604 0.048609
v 0.020916 0.049032 0.048332
v 0.020801 0.048253 0.048195
v 0.0151545 0.0428589 0.0471859
v 0.0152769 0.0429095 0.047277
v 0.0165273 0.0432342 0.0473288
v 0.0188954 0.0445929 0.0475333
v 0.020882 0.049031 0.048355
v 0.020935 0.0506 0.048632
v 0.020937 0.0506 0.048631
v 0.014611 0.04281 0.047235
v 0.0070853 0.0726395 0.0448182
v 0.01939 0.060908 0.046323
v 0.01939 0.061258 0.0457755
v 0.01939 0.0614 0.04641
v 0.01939 0.067309 0.047452
v 0.0192238 0.0673444 0.0472471
v -0.0157623 0.0493871 0.0442912
v 0.0186001 0.050837 0.0445238
v 0.0103379 0.0522899 0.0448036
v 0.019445 0.076542 0.04908
v 0.0194768 0.0776967 0.0492835
v 0.019445 0.078378 0.049404
v 0.016425 0.082736 0.050172
v -0.0165887 0.0809596 0.049859
v -0.017776 0.0484701 0.0441301
v 0.019445 0.058446 0.045889
v 0.015406 0.05607 0.0447595
v -0.0148986 0.0483061 0.044101
v -0.016325 0.055732 0.045411
v 0.00932989 0.0811661 0.0498953
v 0.0166682 0.0587363 0.0457579
v -0.0167962 0.0823367 0.0501015
v -0.0163665 0.0743915 0.048701
v 0.019445 0.069771 0.047886
v 0.0150257 0.0735577 0.048554
v 0.019445 0.064108 0.046888
v 0.01939 0.066817 0.047365
v 0.0195 0.076542 0.04908
v 0.0195 0.069771 0.047886
v 0.0195 0.064108 0.046888
v 0.0195 0.058446 0.045889
v 0.0195 0.051675 0.044695
v 0.0191 0.0500769 0.0444133
v 0.0191418 0.0642193 0.0469887
v 0.01939 0.067167 0.0468175
v -0.013 0.042732 0.047562
v -0.0139853 0.0427816 0.0475641
v 0.013 0.042767 0.047562
v 0.013 0.042651 0.047643
v -0.013 0.042663 0.04761
v 0.013 0.042753 0.04756
v 0.013 0.042732 0.047565
v -0.013 0.04273 0.047563
v 0.013 0.04273 0.047565
v 0.013 0.042707 0.04757
v -0.013 0.042692 0.047578
v 0.013 0.042694 0.047581
v 0.013 0.04267 0.0476
v -0.013 0.042665 0.047608
v 0.013 0.042666 0.047609
v 0.013 0.042665 0.047611
v 0.014596 0.042746 0.047588
v 0.014599 0.042719 0.047618
v 0.014542 0.0427 0.047652
v 0.01489 0.042703 0.0480785
v 0.0151742 0.0428041 0.047602
v 0.014589 0.042842 0.047575
v 0.0197724 0.0450214 0.0479278
v 0.0204153 0.0469475 0.0484005
v 0.0209 0.076152 0.053449
v 0.014067 0.083915 0.054817
v -0.0187238 0.0475535 0.0484061
v -0.020367 0.0800243 0.0541261
v -0.0152781 0.0838541 0.0548227
v -0.0144032 0.0838828 0.0548109
v -0.0150521 0.0824497 0.0545591
v 0.013 0.083932 0.05482
v -0.0204723 0.0470724 0.0483288
v -0.020824 0.048983 0.048658
v -0.0209 0.050547 0.048934
v 0.013 0.083965 0.054833
v 0.013 0.083967 0.054834
v 0.014608 0.083912 0.054824
v 0.014611 0.083941 0.054852
v 0.013 0.083997 0.054862
v 0.013 0.084012 0.054899
v 0.0150695 0.0838842 0.054869
v 0.01461 0.08393 0.054922
v 0.0202537 0.0814521 0.0543835
v 0.015471 0.0838064 0.0548112
v 0.013 0.084013 0.054901
v 0.014207 0.083989 0.054932
v 0.020652 0.0787625 0.0540107
v -0.013 0.084013 0.054936
v -0.013 0.083965 0.054833
v -0.013 0.083967 0.054834
v -0.013 0.083997 0.054862
v -0.013 0.084012 0.054899
v -0.013 0.084013 0.054901
v -0.020935 0.076151 0.053455
v -0.020937 0.076151 0.053456
v -0.020881 0.077734 0.053735
v -0.020914 0.077734 0.053757
v -0.020971 0.076147 0.053477
v -0.020993 0.076141 0.053511
v -0.020916 0.07772 0.053827
v -0.014599 0.083959 0.054889
v -0.01666 0.083459 0.0547419
v -0.014596 0.083943 0.054852
v -0.014542 0.083964 0.054928
v -0.0208348 0.078363 0.0538689
v -0.014593 0.083913 0.054824
v -0.020994 0.076141 0.053513
v -0.020975 0.077323 0.053757
v -0.021 0.076135 0.053547
v -0.0160897 0.0835863 0.054861
v -0.0185067 0.0824383 0.0545734
v -0.021 0.05053 0.049032
v -0.020958 0.050544 0.048952
v -0.020914 0.050547 0.048935
v -0.020934 0.050546 0.048942
v -0.020936 0.050545 0.048943
v -0.020969 0.050542 0.048964
v -0.020989 0.050538 0.048988
v -0.020991 0.050536 0.048996
v -0.020992 0.050536 0.048999
v -0.014608 0.042785 0.047572
v -0.014611 0.042748 0.047588
v -0.0150621 0.0427938 0.0476238
v -0.01461 0.042734 0.047658
v -0.020916 0.04897 0.048685
v -0.020938 0.048962 0.048718
v -0.020951 0.049011 0.048765
v -0.0192074 0.0449421 0.0479563
v -0.017422 0.0435641 0.0477088
v -0.0165236 0.0431739 0.0476596
v -0.0153603 0.0428684 0.04759
v -0.0208478 0.0483781 0.0485791
v -0.014207 0.042675 0.047647
v 0.019502 0.0678687 0.046274
v 0.0181 0.064558 0.043129
v 0.0191 0.070746 0.044425
v 0.0191 0.071074 0.044294
v 0.0191 0.070743 0.044419
v 0.0191 0.070501 0.044176
v 0.0191 0.0707154 0.0439174
v 0.0191 0.070574 0.044199
v 0.0191 0.070598 0.044216
v 0.0191 0.070656 0.044255
v 0.0191 0.070692 0.044302
v 0.0191 0.070714 0.044331
v 0.0197 0.070247 0.043835
v 0.019463 0.0704195 0.0435935
v 0.0196479 0.0703957 0.0438914
v 0.019527 0.070426 0.043968
v 0.0197 0.059384 0.04192
v 0.019525 0.059437 0.041621
v 0.0196613 0.0592416 0.041917
v 0.019527 0.05917 0.041983
v 0.0191 0.059028 0.042153
v 0.0191 0.058943 0.0418
v 0.0191 0.058929 0.042153
v 0.0191 0.058798 0.041824
v 0.0191 0.058923 0.042155
v 0.0191 0.058544 0.0420114
v 0.0191 0.0587028 0.0423247
v 0.0191 0.058759 0.042242
v 0.0191 0.058806 0.042206
v 0.0191 0.058835 0.042184
v 0.0191 0.058183 0.0439555
v 0.0192169 0.0584053 0.043381
v 0.0194 0.0582245 0.042824
v 0.019221 0.0641231 0.0449676
v 0.0191 0.059017 0.04403
v 0.0177 0.058459 0.043683
v 0.0141 0.058717 0.042298
v 0.0141 0.058804 0.042203
v 0.0141 0.058923 0.042154
v 0.0141 0.059028 0.042155
v 0.0141 0.059063 0.04216
v 0.01555 0.059063 0.04216
v 0.0141 0.070501 0.044177
v 0.0141 0.070467 0.04417
v 0.01555 0.070467 0.04417
v 0.01865 0.0676105 0.043667
v 0.0141 0.0706 0.044213
v 0.0141 0.070695 0.0443
v 0.0141 0.070744 0.044419
v 0.0141 0.070745 0.044524
v 0.01925 0.070886 0.0448028
v 0.0192066 0.06952 0.0462734
v -0.012487 0.075292 0.039081
v -0.0123146 0.0753797 0.0391472
v -0.012248 0.075232 0.039121
v -0.012213 0.07561 0.039188
v -0.011601 0.075239 0.039072
v -0.011601 0.07542 0.0391545
v -0.009441 0.07561 0.039188
v -0.009865 0.0738945 0.0388855
v -0.009441 0.07295 0.038719
v -0.009441 0.072959 0.03867
v -0.009441 0.075619 0.039139
v -0.011601 0.075619 0.039139
v -0.00733493 0.0750927 0.039094
v -0.00742763 0.0750069 0.0390305
v -0.00893875 0.0738861 0.0388331
v -0.00818769 0.0730965 0.0386937
v -0.00738461 0.0730214 0.0387342
v -0.00874323 0.0733337 0.0388106
v -0.00693379 0.0745159 0.0389924
v -0.00774919 0.0757642 0.0392148
v -0.00842705 0.0740827 0.0389181
v -0.008424 0.0737212 0.038804
v -0.00742138 0.075328 0.0390871
v -0.006451 0.072958 0.03872
v -0.006451 0.072967 0.038671
v -0.006451 0.075618 0.039189
v -0.006451 0.075626 0.03914
v -0.006085 0.072958 0.03872
v -0.006085 0.072967 0.038671
v -0.004379 0.074922 0.039067
v -0.004379 0.074931 0.039017
v -0.004379 0.072958 0.03872
v -0.004379 0.072967 0.038671
v -0.004321 0.075618 0.039189
v -0.006027 0.075618 0.039189
v -0.003955 0.072958 0.03872
v -0.001279 0.07561 0.039188
v -0.001279 0.07295 0.038719
v -0.003517 0.07314 0.0387525
v -0.001704 0.07333 0.038786
v -0.001704 0.074079 0.038918
v -0.00344 0.07523 0.039121
v -0.001704 0.07523 0.039121
v -0.001704 0.074459 0.038985
v -0.003247 0.074459 0.038985
v -0.003247 0.074079 0.038918
v -0.001704 0.075239 0.039072
v -0.001704 0.074467 0.038936
v -0.003247 0.074467 0.038936
v -0.003247 0.074087 0.038869
v -0.001704 0.074087 0.038869
v -0.001704 0.073339 0.038737
v -0.003517 0.073339 0.038737
v -0.003517 0.072959 0.03867
v 0.000938296 0.0754565 0.0391575
v 0.00110848 0.0745099 0.038992
v 0.000468375 0.0747677 0.039001
v 0.001143 0.0749849 0.0390267
v 0.00195045 0.0484727 0.0344025
v 0.00234675 0.0487967 0.0344093
v 0.00217842 0.0493332 0.0345293
v 0.0020185 0.0490194 0.0344484
v 0.008976 0.07295 0.038719
v 0.006738 0.072959 0.03867
v 0.006738 0.07314 0.0387525
v 0.008976 0.07561 0.039188
v 0.007009 0.074079 0.038918
v 0.007009 0.074459 0.038985
v 0.008552 0.074079 0.038918
v 0.008552 0.074459 0.038985
v 0.008552 0.07333 0.038786
v 0.006816 0.07523 0.039121
v 0.008552 0.07523 0.039121
v 0.008552 0.075239 0.039072
v 0.008552 0.074467 0.038936
v 0.007009 0.074467 0.038936
v 0.007009 0.074087 0.038869
v 0.008552 0.074087 0.038869
v 0.008552 0.073339 0.038737
v 0.006738 0.073339 0.038737
v 0.01036 0.078037 0.03959
v 0.0103728 0.0779446 0.0395961
v 0.0103952 0.0777422 0.0395382
v 0.0105632 0.077928 0.0395965
v 0.006725 0.078737 0.039739
v 0.006322 0.07653 0.03935
v 0.006725 0.07653 0.03935
v 0.006725 0.076538 0.039301
v 0.00884274 0.0769116 0.0394178
v 0.00900387 0.0767809 0.0393813
v 0.00881919 0.0767277 0.0393466
v 0.00901258 0.0765393 0.0393522
v -0.00476062 0.0484727 0.0344025
v -0.00436425 0.0487967 0.0344093
v -0.0045326 0.0493332 0.0345293
v -0.0046925 0.0490194 0.0344484
v -0.0172945 0.0825935 0.055524
v -0.0215 0.076882 0.054519
v -0.0235 0.049399 0.049683
v 0.0185 0.044955 0.031701
v -0.01687 0.045517 0.0318
v -0.019303 0.044176 0.048764
v 0.026207 0.0874842 0.0351385
v -0.0169897 0.089259 0.0354515
v -0.016377 0.04559 0.0361285
v -0.0201055 0.0815175 0.042463
v -0.016781 0.044396 0.048803
v -0.017378 0.044748 0.048865
v -0.017512 0.044827 0.048879
v -0.0189335 0.04882 0.036698
v -0.01983 0.050384 0.049857
v -0.015989 0.0429825 0.0477015
v -0.018064 0.0440273 0.0478857
v -0.020139 0.046353 0.048296
v -0.0207995 0.048224 0.048626
v -0.020948 0.048861 0.049588
v -0.021 0.075991 0.054362
v 0.013 0.084013 0.054936
v -0.020921 0.077539 0.054635
v -0.0201845 0.0800056 0.0544394
v -0.014542 0.083819 0.05574
v 0.014572 0.083792 0.055735
v 0.0167425 0.083326 0.055234
v 0.013 0.042505 0.04847
v 0.017575 0.043641 0.0478175
v -0.0136015 0.04259 0.0480585
f 3 4 2
f 2 4 6
f 5 32 2
f 5 2 6
f 39 2 32
f 9 12 7
f 7 8 9
f 10 912 11
f 12 9 11
f 37 13 14
f 14 13 15
f 14 15 16
f 16 15 29
f 17 18 918
f 909 8 7
f 22 21 910
f 910 21 17
f 21 22 19
f 20 23 911
f 22 20 911
f 913 25 917
f 917 27 914
f 914 27 26
f 23 26 19
f 12 11 912
f 17 21 18
f 916 29 22
f 30 31 97
f 30 97 36
f 32 33 34
f 34 33 35
f 34 35 6
f 23 20 22
f 39 915 36
f 3 37 14
f 38 4 3
f 38 3 16
f 16 3 14
f 2 39 31
f 5 33 32
f 33 5 35
f 35 5 6
f 31 39 97
f 36 97 39
f 3 2 19
f 3 19 37
f 37 40 13
f 19 41 42
f 37 19 42
f 37 42 40
f 41 19 43
f 2 23 19
f 2 30 23
f 2 31 30
f 32 44 45
f 32 915 39
f 45 46 32
f 32 46 47
f 32 47 48
f 32 48 915
f 915 48 28
f 19 22 49
f 19 49 43
f 43 49 50
f 43 50 41
f 41 50 51
f 41 51 42
f 42 51 52
f 42 52 40
f 40 52 53
f 40 53 13
f 13 53 15
f 916 28 54
f 54 28 48
f 54 48 55
f 55 48 47
f 55 47 56
f 56 47 46
f 56 46 57
f 57 46 45
f 57 45 58
f 58 45 44
f 58 44 34
f 34 44 32
f 29 4 38
f 34 6 58
f 58 6 57
f 15 53 29
f 29 53 52
f 916 54 6
f 6 54 55
f 6 55 56
f 6 56 57
f 6 4 29
f 49 29 50
f 50 29 51
f 51 29 52
f 29 916 6
f 38 16 29
f 29 49 22
f 912 10 24
f 24 10 25
f 24 25 913
f 60 61 62
f 62 61 63
f 64 65 66
f 66 65 60
f 66 60 67
f 67 60 62
f 63 61 68
f 63 68 69
f 69 68 70
f 69 70 71
f 71 70 72
f 71 72 73
f 75 76 74
f 77 78 74
f 79 80 64
f 80 82 64
f 64 82 83
f 64 83 107
f 107 83 84
f 107 84 81
f 86 87 108
f 108 87 88
f 108 88 89
f 86 108 90
f 90 108 91
f 92 93 108
f 108 93 94
f 108 94 91
f 108 31 92
f 74 95 96
f 74 96 97
f 74 98 99
f 100 101 74
f 74 101 102
f 74 102 95
f 75 74 116
f 106 103 104
f 106 105 103
f 85 97 31
f 107 106 97
f 85 64 107
f 85 108 89
f 108 85 31
f 85 107 97
f 99 100 74
f 98 74 78
f 77 74 76
f 74 97 116
f 106 116 97
f 112 73 238
f 73 112 71
f 71 112 69
f 67 62 112
f 112 62 63
f 112 64 66
f 70 113 72
f 72 113 73
f 67 112 66
f 60 65 61
f 61 65 64
f 64 97 113
f 64 113 61
f 61 113 68
f 68 113 70
f 69 112 63
f 59 106 134
f 59 124 106
f 106 115 134
f 116 114 109
f 64 85 97
f 238 64 112
f 85 238 97
f 117 116 118
f 117 118 119
f 119 118 120
f 120 118 121
f 121 118 122
f 122 118 123
f 122 123 125
f 126 120 127
f 127 120 121
f 127 121 128
f 128 121 122
f 128 122 129
f 129 122 125
f 124 59 123
f 123 59 125
f 130 119 131
f 131 119 120
f 131 120 132
f 132 120 126
f 119 130 133
f 119 133 117
f 117 133 116
f 115 135 136
f 136 135 137
f 137 135 138
f 138 135 139
f 139 135 140
f 134 115 141
f 141 115 136
f 141 136 142
f 143 138 139
f 143 139 144
f 144 139 140
f 138 143 145
f 138 145 137
f 145 146 137
f 137 146 147
f 137 147 136
f 136 147 148
f 136 148 142
f 111 149 150
f 152 151 153
f 153 151 154
f 153 154 155
f 155 154 156
f 156 154 157
f 157 154 150
f 150 154 111
f 149 111 158
f 159 153 160
f 160 153 155
f 160 155 161
f 161 155 156
f 85 151 238
f 149 158 150
f 150 158 162
f 150 162 157
f 157 162 163
f 157 163 156
f 156 163 164
f 156 164 161
f 159 165 153
f 153 165 166
f 153 166 152
f 152 166 238
f 152 238 151
f 110 167 168
f 168 167 169
f 169 167 170
f 170 167 171
f 170 171 172
f 172 171 173
f 173 171 174
f 174 171 109
f 109 114 174
f 174 114 175
f 174 175 173
f 173 175 176
f 173 176 172
f 169 177 168
f 168 177 110
f 178 170 179
f 179 170 172
f 179 172 180
f 180 172 176
f 170 178 181
f 170 181 169
f 169 181 182
f 169 182 177
f 208 239 111
f 208 111 31
f 208 31 221
f 31 110 222
f 183 184 31
f 220 186 187
f 220 187 185
f 188 189 220
f 220 189 190
f 220 190 186
f 188 222 191
f 191 192 188
f 188 192 193
f 188 193 189
f 183 195 196
f 183 196 184
f 184 196 197
f 184 197 194
f 198 199 183
f 183 199 200
f 31 184 222
f 222 184 194
f 222 194 218
f 200 195 183
f 222 221 31
f 220 221 188
f 188 221 222
f 202 201 203
f 203 201 204
f 204 201 205
f 206 205 207
f 201 208 205
f 205 208 209
f 205 209 207
f 207 209 210
f 183 211 212
f 212 211 213
f 200 199 214
f 214 199 198
f 214 198 213
f 213 198 212
f 215 196 216
f 216 196 195
f 214 217 200
f 200 217 216
f 200 216 195
f 215 218 194
f 215 194 197
f 215 197 196
f 211 222 218
f 215 216 218
f 218 216 217
f 217 214 218
f 218 214 213
f 218 213 211
f 201 222 208
f 208 222 110
f 202 203 193
f 209 219 210
f 210 219 220
f 210 220 185
f 210 185 207
f 204 205 187
f 187 205 206
f 187 206 185
f 185 206 207
f 187 186 204
f 204 186 190
f 204 190 203
f 203 190 189
f 203 189 193
f 222 201 191
f 193 192 202
f 202 192 191
f 202 191 201
f 220 219 221
f 198 183 212
f 183 31 222
f 110 31 97
f 221 219 208
f 208 219 209
f 211 183 222
f 73 113 97
f 97 238 73
f 223 85 89
f 223 89 224
f 89 88 224
f 224 88 87
f 224 87 225
f 87 86 225
f 225 86 90
f 225 90 226
f 226 90 91
f 226 91 227
f 227 91 94
f 227 94 228
f 228 94 93
f 228 93 229
f 229 93 92
f 229 92 230
f 230 92 31
f 230 31 111
f 229 230 111
f 229 111 228
f 228 111 154
f 228 154 227
f 227 154 226
f 226 154 225
f 225 154 151
f 225 151 224
f 224 151 223
f 223 151 85
f 77 231 232
f 102 233 234
f 235 98 232
f 232 98 78
f 232 78 77
f 110 97 236
f 236 97 96
f 236 96 234
f 234 96 95
f 234 95 102
f 102 101 233
f 233 101 100
f 233 100 235
f 235 100 99
f 235 99 98
f 77 76 231
f 231 76 75
f 231 75 237
f 237 75 116
f 171 232 231
f 171 231 237
f 171 237 109
f 109 237 116
f 110 236 167
f 167 236 234
f 167 234 233
f 167 233 171
f 171 233 235
f 171 235 232
f 238 239 114
f 114 239 110
f 208 110 239
f 133 130 243
f 130 131 243
f 128 129 243
f 241 162 158
f 241 158 239
f 239 158 111
f 160 161 241
f 161 164 241
f 241 164 163
f 241 163 162
f 159 241 165
f 165 241 166
f 238 144 140
f 242 142 148
f 148 147 242
f 242 147 146
f 242 146 144
f 144 146 145
f 144 145 143
f 142 242 141
f 141 242 134
f 132 126 243
f 243 126 127
f 133 243 116
f 240 179 180
f 240 180 176
f 181 178 240
f 240 178 179
f 240 110 177
f 240 177 182
f 59 134 114
f 242 144 134
f 144 238 134
f 114 116 243
f 127 128 243
f 131 132 243
f 125 59 243
f 125 243 129
f 240 182 181
f 114 243 59
f 114 110 240
f 114 240 176
f 114 176 175
f 238 241 239
f 160 241 159
f 238 166 241
f 238 114 134
f 64 238 244
f 244 238 140
f 244 140 245
f 245 140 246
f 246 140 135
f 246 135 247
f 247 135 106
f 106 135 115
f 84 83 246
f 246 83 82
f 246 82 245
f 82 80 245
f 245 80 79
f 245 79 244
f 244 79 64
f 84 246 81
f 81 246 247
f 81 247 107
f 107 247 106
f 248 124 123
f 248 123 249
f 249 123 250
f 250 123 118
f 250 118 106
f 106 118 116
f 106 124 248
f 250 106 104
f 250 104 249
f 104 103 249
f 249 103 105
f 249 105 248
f 248 105 106
f 8 251 253
f 922 26 27
f 922 27 252
f 252 27 917
f 253 251 9
f 251 254 9
f 922 255 26
f 26 255 256
f 26 256 918
f 254 251 917
f 26 918 21
f 21 918 18
f 21 19 26
f 8 253 9
f 254 11 9
f 10 11 254
f 10 254 25
f 25 254 917
f 251 8 909
f 256 255 923
f 919 252 917
f 920 252 919
f 252 920 921
f 923 255 922
f 260 258 259
f 259 261 257
f 259 257 260
f 259 258 261
f 262 265 263
f 262 263 264
f 264 265 262
f 266 267 285
f 268 269 266
f 266 269 267
f 268 271 269
f 283 271 270
f 273 274 280
f 273 272 274
f 280 274 275
f 277 279 276
f 279 278 276
f 280 275 281
f 282 273 281
f 283 270 284
f 286 285 287
f 272 273 282
f 266 285 286
f 266 286 268
f 268 286 288
f 268 288 271
f 271 284 270
f 278 277 276
f 279 277 278
f 274 282 281
f 272 282 274
f 274 281 275
f 288 289 271
f 286 287 288
f 288 287 289
f 305 292 291
f 293 294 295
f 293 295 305
f 305 295 292
f 296 298 293
f 293 298 294
f 297 298 296
f 299 300 297
f 297 300 298
f 290 301 299
f 299 301 300
f 302 303 290
f 290 303 301
f 302 304 303
f 297 296 299
f 299 296 293
f 293 290 299
f 302 290 304
f 304 290 291
f 291 290 305
f 290 293 305
f 306 307 308
f 308 307 309
f 307 310 309
f 309 310 311
f 312 313 314
f 315 316 312
f 312 316 313
f 317 318 315
f 315 318 316
f 319 320 317
f 317 320 318
f 321 322 319
f 319 322 320
f 314 313 321
f 321 313 322
f 311 308 315
f 315 308 309
f 315 309 317
f 312 314 321
f 319 317 309
f 319 309 321
f 321 309 311
f 321 311 312
f 312 311 315
f 310 306 311
f 311 306 308
f 310 307 306
f 324 326 323
f 323 325 324
f 325 323 326
f 326 324 325
f 328 327 329
f 329 327 331
f 331 330 332
f 332 330 344
f 332 344 334
f 334 333 336
f 336 335 328
f 351 347 338
f 339 351 338
f 347 340 338
f 338 340 339
f 346 342 343
f 343 342 345
f 352 344 345
f 344 341 345
f 345 341 343
f 343 341 346
f 348 351 340
f 348 340 349
f 347 349 340
f 352 342 346
f 344 349 341
f 348 349 344
f 341 349 346
f 346 349 347
f 348 331 350
f 351 348 350
f 346 347 352
f 337 352 347
f 347 351 337
f 351 328 337
f 328 331 327
f 344 352 333
f 352 337 333
f 344 330 348
f 348 330 331
f 344 333 334
f 335 337 328
f 333 337 336
f 336 337 335
f 354 355 353
f 356 354 353
f 354 356 355
f 377 378 358
f 376 361 359
f 360 363 361
f 362 365 363
f 364 366 365
f 380 366 364
f 368 367 381
f 369 371 370
f 372 357 373
f 372 373 374
f 358 372 377
f 358 357 372
f 376 359 377
f 377 359 378
f 379 361 376
f 375 361 379
f 375 363 360
f 375 360 361
f 364 365 375
f 375 365 362
f 375 362 363
f 375 380 364
f 379 370 381
f 379 368 375
f 375 368 380
f 381 367 379
f 379 367 368
f 376 370 379
f 376 371 369
f 369 370 376
f 377 371 376
f 372 371 377
f 372 374 371
f 384 383 382
f 386 385 383
f 386 383 384
f 386 382 385
f 384 382 386
f 387 388 632
f 387 1 393
f 387 393 1
f 461 389 460
f 579 390 624
f 627 390 391
f 392 394 393
f 394 395 393
f 394 396 395
f 396 397 395
f 396 398 397
f 398 391 397
f 398 399 391
f 399 611 391
f 401 402 400
f 400 402 403
f 400 403 404
f 404 403 405
f 404 405 406
f 406 405 494
f 406 494 393
f 393 494 491
f 409 408 407
f 409 407 410
f 408 411 412
f 408 412 415
f 390 408 391
f 414 415 416
f 416 415 417
f 417 415 412
f 391 418 413
f 419 418 415
f 419 415 420
f 420 415 414
f 390 407 408
f 408 415 391
f 391 415 418
f 393 395 391
f 391 395 397
f 413 406 393
f 391 413 393
f 406 413 404
f 404 413 400
f 400 413 418
f 400 418 401
f 407 390 593
f 412 421 417
f 417 421 422
f 417 422 416
f 416 422 423
f 416 423 414
f 414 423 424
f 414 424 420
f 420 424 425
f 420 425 419
f 419 425 442
f 419 442 418
f 407 593 426
f 407 426 410
f 410 426 427
f 410 427 409
f 409 427 428
f 409 428 408
f 408 428 411
f 411 428 429
f 411 429 412
f 412 429 446
f 412 446 421
f 431 432 433
f 434 445 433
f 434 433 435
f 435 433 432
f 445 436 437
f 445 437 438
f 439 438 440
f 440 438 437
f 430 442 441
f 443 442 438
f 443 438 444
f 431 433 445
f 445 438 442
f 430 446 593
f 428 427 446
f 446 427 426
f 446 426 593
f 429 428 446
f 423 422 446
f 446 422 421
f 441 425 424
f 424 423 441
f 441 423 446
f 441 446 430
f 442 425 441
f 430 445 442
f 447 448 444
f 444 448 443
f 443 448 483
f 443 483 442
f 444 438 447
f 447 438 439
f 447 439 449
f 449 439 440
f 449 440 450
f 440 437 450
f 450 437 436
f 450 436 451
f 431 452 432
f 432 452 453
f 432 453 435
f 435 453 454
f 435 454 434
f 434 454 451
f 434 451 445
f 445 451 436
f 454 453 479
f 479 453 452
f 456 457 458
f 458 457 467
f 463 461 464
f 464 461 460
f 462 465 463
f 463 465 471
f 463 471 469
f 468 469 470
f 470 469 471
f 467 483 466
f 472 483 469
f 472 469 473
f 473 469 468
f 567 461 463
f 467 463 469
f 467 469 483
f 479 474 480
f 480 474 475
f 480 475 476
f 480 476 459
f 455 477 478
f 455 478 467
f 451 454 479
f 467 480 458
f 466 449 450
f 480 467 466
f 480 466 479
f 479 466 450
f 479 450 451
f 449 466 447
f 447 466 448
f 448 466 483
f 464 460 481
f 483 472 482
f 482 472 473
f 482 473 484
f 484 473 468
f 484 468 485
f 485 468 470
f 485 470 486
f 486 470 471
f 486 471 465
f 486 465 487
f 487 465 462
f 487 462 481
f 481 462 463
f 481 463 464
f 488 489 508
f 494 492 491
f 508 401 493
f 402 401 494
f 402 494 403
f 403 494 405
f 492 494 401
f 460 495 496
f 488 497 489
f 489 497 498
f 489 498 492
f 487 481 508
f 508 481 460
f 508 460 496
f 492 508 489
f 493 485 486
f 508 493 486
f 508 486 487
f 485 493 484
f 484 493 482
f 482 493 401
f 482 401 483
f 508 492 401
f 500 499 491
f 500 491 490
f 501 500 490
f 502 501 490
f 490 491 492
f 524 490 492
f 503 492 498
f 504 503 498
f 504 498 497
f 505 504 497
f 505 497 488
f 506 505 488
f 506 488 508
f 530 506 508
f 517 496 495
f 507 496 517
f 507 508 496
f 509 460 389
f 509 495 460
f 510 495 509
f 510 517 495
f 513 511 512
f 514 509 389
f 509 514 510
f 515 510 514
f 515 516 510
f 530 508 507
f 510 516 517
f 518 516 515
f 518 519 516
f 519 517 516
f 520 517 519
f 520 507 517
f 520 530 507
f 521 522 523
f 523 522 502
f 502 490 524
f 503 524 492
f 522 501 502
f 513 523 511
f 526 527 528
f 528 530 525
f 529 528 525
f 529 526 528
f 521 531 532
f 521 532 533
f 521 533 522
f 533 534 522
f 522 534 501
f 534 535 501
f 535 500 501
f 535 536 500
f 536 499 500
f 503 504 505
f 503 505 506
f 506 530 503
f 513 512 531
f 521 513 531
f 523 513 521
f 502 524 523
f 525 530 520
f 519 525 520
f 529 525 519
f 518 529 519
f 537 389 461
f 538 571 527
f 538 527 526
f 539 538 526
f 539 526 529
f 540 539 529
f 540 529 518
f 537 514 389
f 541 514 537
f 541 515 514
f 542 515 541
f 543 515 542
f 543 518 515
f 543 544 518
f 544 540 518
f 545 546 547
f 548 538 539
f 551 549 550
f 549 551 552
f 553 552 551
f 553 554 552
f 576 555 572
f 557 572 556
f 557 558 572
f 558 557 559
f 558 559 554
f 554 559 552
f 560 554 553
f 561 554 560
f 561 558 554
f 562 558 561
f 562 572 558
f 569 565 566
f 564 567 467
f 566 570 569
f 548 571 538
f 547 573 572
f 546 573 547
f 546 574 573
f 570 537 461
f 565 540 544
f 565 544 543
f 565 543 566
f 566 543 542
f 566 542 570
f 570 542 541
f 570 541 537
f 564 568 575
f 563 564 575
f 548 539 540
f 565 548 540
f 565 571 548
f 569 571 565
f 569 567 571
f 562 547 572
f 561 547 562
f 561 545 547
f 560 545 561
f 570 461 567
f 570 567 569
f 567 463 467
f 563 455 576
f 575 455 563
f 575 477 455
f 568 477 575
f 568 478 477
f 564 478 568
f 564 467 478
f 576 455 467
f 576 467 457
f 576 457 555
f 555 457 456
f 555 456 572
f 556 456 458
f 572 456 556
f 556 458 480
f 556 480 459
f 556 459 557
f 557 459 476
f 557 476 559
f 559 476 475
f 550 479 452
f 549 479 550
f 549 474 479
f 552 474 549
f 552 475 474
f 559 475 552
f 550 452 431
f 608 550 431
f 608 431 577
f 577 431 601
f 601 431 445
f 601 445 430
f 578 430 600
f 600 430 593
f 593 390 579
f 581 580 625
f 581 582 580
f 582 583 580
f 583 584 580
f 583 585 584
f 585 586 584
f 585 587 586
f 587 588 586
f 587 589 588
f 589 590 588
f 589 591 590
f 589 592 591
f 592 579 591
f 592 593 579
f 594 587 585
f 595 596 597
f 596 598 597
f 599 592 589
f 600 593 592
f 599 600 592
f 604 605 606
f 605 603 606
f 606 603 602
f 607 582 581
f 607 583 582
f 578 594 607
f 607 594 585
f 607 585 583
f 597 598 601
f 601 598 577
f 598 608 577
f 605 595 603
f 595 597 603
f 603 597 602
f 597 601 602
f 578 600 594
f 600 599 594
f 594 599 587
f 599 589 587
f 530 609 503
f 503 609 524
f 567 564 574
f 564 563 574
f 563 576 574
f 571 567 574
f 614 626 627
f 601 430 610
f 528 609 530
f 527 609 528
f 574 609 527
f 571 574 527
f 576 572 574
f 614 627 611
f 430 578 615
f 610 430 615
f 602 601 610
f 524 609 523
f 614 625 626
f 572 573 574
f 574 604 610
f 604 606 610
f 606 602 610
f 614 611 612
f 614 612 613
f 614 613 523
f 609 614 523
f 615 578 607
f 607 581 615
f 581 625 615
f 615 625 614
f 580 584 616
f 617 394 392
f 396 394 617
f 618 396 617
f 619 396 618
f 627 391 611
f 620 611 399
f 620 399 619
f 619 399 398
f 619 398 396
f 621 619 618
f 622 619 621
f 622 620 619
f 623 620 622
f 623 611 620
f 625 624 626
f 624 627 626
f 624 390 627
f 625 580 616
f 613 612 629
f 611 628 612
f 612 628 630
f 629 612 630
f 631 624 625
f 631 591 624
f 591 579 624
f 586 588 631
f 588 590 631
f 590 591 631
f 584 586 616
f 616 586 631
f 616 631 625
f 611 623 628
f 628 623 622
f 628 622 630
f 630 622 621
f 511 613 629
f 523 613 511
f 617 392 499
f 532 630 621
f 531 630 532
f 629 630 531
f 512 629 531
f 511 629 512
f 536 617 499
f 535 617 536
f 618 617 535
f 534 618 535
f 621 618 534
f 533 621 534
f 532 621 533
f 392 393 1
f 392 1 499
f 1 491 499
f 632 491 1
f 632 1 393
f 387 632 393
f 491 388 393
f 387 393 388
f 491 632 388
f 633 652 634
f 665 634 652
f 635 634 665
f 636 666 637
f 664 640 639
f 643 642 641
f 651 643 641
f 644 643 651
f 644 651 645
f 644 645 653
f 638 649 646
f 652 647 648
f 648 647 639
f 639 640 648
f 646 650 638
f 638 650 649
f 652 648 650
f 653 637 652
f 653 645 654
f 645 651 656
f 645 656 654
f 656 641 655
f 653 656 637
f 656 655 637
f 651 641 656
f 633 647 652
f 633 657 647
f 635 657 633
f 665 657 635
f 658 657 665
f 658 655 657
f 636 655 658
f 637 655 636
f 637 665 652
f 653 652 650
f 641 642 659
f 641 659 660
f 641 660 655
f 655 660 661
f 655 661 657
f 657 661 662
f 657 662 647
f 647 662 663
f 647 663 639
f 639 663 664
f 658 665 666
f 637 666 665
f 668 669 667
f 938 671 670
f 667 669 672
f 667 672 673
f 667 673 674
f 674 673 675
f 674 675 676
f 674 676 677
f 677 676 678
f 677 678 679
f 680 677 679
f 680 679 681
f 671 680 681
f 671 681 682
f 671 682 670
f 676 683 678
f 681 679 684
f 682 681 684
f 685 682 684
f 670 682 685
f 687 689 937
f 686 687 937
f 686 684 687
f 686 685 684
f 684 683 687
f 678 683 684
f 678 684 679
f 669 688 672
f 672 688 673
f 688 689 687
f 688 687 675
f 673 688 675
f 687 683 675
f 675 683 676
f 693 668 758
f 756 693 758
f 690 689 688
f 690 688 669
f 693 690 669
f 693 669 668
f 699 693 755
f 729 697 738
f 755 693 756
f 711 710 691
f 738 697 694
f 692 711 691
f 694 697 693
f 729 695 697
f 696 697 695
f 696 691 697
f 696 698 691
f 698 692 691
f 700 693 699
f 701 693 700
f 694 693 701
f 703 704 702
f 707 705 706
f 710 711 708
f 709 935 708
f 935 710 708
f 702 692 698
f 702 704 692
f 692 704 711
f 710 714 691
f 708 711 705
f 708 705 707
f 709 708 707
f 712 709 707
f 713 709 712
f 930 713 712
f 706 704 703
f 706 705 704
f 705 711 704
f 715 930 712
f 716 698 696
f 716 702 698
f 716 703 702
f 717 703 716
f 717 706 703
f 718 706 717
f 718 707 706
f 719 707 718
f 719 712 707
f 720 712 719
f 715 712 720
f 722 723 721
f 726 724 725
f 728 720 719
f 737 729 738
f 728 730 695
f 728 718 730
f 728 719 718
f 737 695 729
f 695 737 728
f 737 720 728
f 731 720 737
f 731 715 720
f 932 738 694
f 932 732 727
f 932 694 732
f 732 694 723
f 721 723 694
f 733 717 716
f 733 696 695
f 733 716 696
f 732 724 726
f 727 732 726
f 734 727 726
f 735 727 734
f 736 735 734
f 725 723 722
f 724 723 725
f 724 732 723
f 730 733 695
f 730 717 733
f 730 718 717
f 736 734 739
f 721 694 701
f 725 722 740
f 721 701 741
f 721 741 742
f 721 742 722
f 722 742 743
f 722 743 740
f 744 725 740
f 745 725 744
f 726 725 745
f 746 726 745
f 734 726 746
f 747 734 746
f 739 734 747
f 748 667 674
f 749 677 680
f 744 740 752
f 746 745 753
f 747 746 753
f 754 747 753
f 739 747 754
f 699 755 926
f 753 752 759
f 753 744 752
f 745 744 753
f 926 927 699
f 927 759 699
f 927 753 759
f 927 754 753
f 750 757 758
f 755 756 925
f 924 750 751
f 757 750 924
f 756 757 924
f 924 925 756
f 668 667 748
f 758 668 748
f 701 700 741
f 741 700 742
f 700 699 759
f 743 700 759
f 742 700 743
f 758 749 750
f 750 749 680
f 751 750 680
f 751 680 671
f 751 671 760
f 760 671 938
f 748 674 677
f 748 677 749
f 758 748 749
f 756 758 757
f 743 759 752
f 743 752 740
f 739 754 928
f 926 755 925
f 928 754 927
f 929 736 739
f 715 731 933
f 735 736 929
f 931 727 735
f 737 738 932
f 934 709 713
f 714 710 935
f 936 670 685
f 937 689 690
f 811 763 764
f 764 763 765
f 764 765 767
f 766 806 767
f 766 767 768
f 768 767 769
f 769 767 770
f 770 767 771
f 771 767 772
f 772 767 765
f 773 774 775
f 775 774 776
f 777 778 773
f 773 778 774
f 779 780 778
f 779 778 777
f 776 780 777
f 780 779 777
f 775 776 773
f 773 776 777
f 762 781 782
f 782 781 783
f 782 783 784
f 784 783 785
f 784 785 786
f 793 786 787
f 787 786 788
f 788 786 789
f 789 786 790
f 790 786 785
f 792 795 791
f 793 792 791
f 812 794 761
f 792 796 795
f 796 792 793
f 793 787 797
f 797 787 788
f 797 788 798
f 788 789 798
f 798 789 790
f 798 790 799
f 799 790 785
f 799 785 800
f 800 785 783
f 800 783 781
f 801 800 802
f 802 800 781
f 803 804 805
f 803 805 766
f 766 805 806
f 781 762 802
f 766 768 803
f 803 768 807
f 768 769 807
f 807 769 770
f 807 770 808
f 770 771 808
f 808 771 772
f 808 772 809
f 809 772 765
f 809 765 810
f 810 765 763
f 810 763 811
f 811 761 794
f 761 811 812
f 814 815 813
f 816 815 814
f 814 813 816
f 817 818 819
f 817 819 820
f 821 820 819
f 821 822 820
f 819 823 821
f 821 823 822
f 818 824 819
f 819 824 823
f 818 817 824
f 826 833 827
f 827 833 830
f 833 826 825
f 827 830 828
f 828 829 834
f 829 828 830
f 831 825 832
f 833 825 831
f 825 826 832
f 834 829 830
f 833 834 830
f 831 834 833
f 834 831 835
f 835 831 832
f 832 826 835
f 836 837 838
f 838 837 839
f 840 841 836
f 836 841 837
f 842 843 840
f 840 843 841
f 844 845 842
f 842 845 843
f 844 848 845
f 838 847 836
f 848 844 842
f 848 842 846
f 846 842 847
f 847 842 840
f 847 840 836
f 838 839 847
f 851 852 850
f 850 852 853
f 850 853 849
f 854 849 855
f 855 849 856
f 856 849 853
f 856 853 857
f 857 853 858
f 855 859 854
f 856 860 855
f 855 860 859
f 857 861 856
f 856 861 860
f 858 862 857
f 857 862 861
f 853 863 858
f 858 863 862
f 852 864 853
f 853 864 863
f 851 865 852
f 852 865 864
f 851 866 865
f 850 866 851
f 867 868 869
f 868 870 869
f 867 869 870
f 867 870 868
f 873 874 872
f 873 872 871
f 871 872 874
f 873 871 874
f 875 876 877
f 879 880 881
f 881 880 882
f 875 877 883
f 884 878 885
f 885 878 882
f 882 878 875
f 882 875 881
f 881 875 883
f 885 886 884
f 882 887 885
f 885 887 886
f 880 888 882
f 882 888 887
f 879 889 880
f 880 889 888
f 881 890 879
f 879 890 889
f 883 891 881
f 881 891 890
f 877 892 883
f 883 892 891
f 877 876 892
f 894 895 893
f 895 894 896
f 896 894 893
f 898 897 899
f 899 900 898
f 897 900 899
f 901 903 902
f 904 902 903
f 902 904 901
f 901 904 903
f 907 908 906
f 907 906 905
f 905 906 908
f 907 905 908
f 921 920 919
