v 0.0052715 0.091572 0.035044
v 0.0650643 0.091572 0.035044
v 0.023555 0.091572 0.025662
v 0.0656641 0.091572 0.0145615
v 0.012839 0.091572 0.0178632
v 0.008781 0.091572 0.0203905
v 0.00749 0.091572 0.022467
v 0.00386325 0.091572 0.0195305
v 0.0072525 0.091572 0.0280745
v 0.008781 0.091572 0.030934
v 0.0618335 0.091572 0.030934
v 0.0629999 0.091572 0.0247438
v 0.0276986 0.091572 0.0238632
v 0.0292208 0.091572 0.0294296
v 0.0306891 0.091572 0.0337332
f 2 4 12
f 13 3 14
f 2 15 1
f 2 12 11
f 6 5 8
f 1 10 9
f 7 6 8
f 1 9 8
