v -0.036521 0.105718 0.02704
v -0.035766 0.106246 0.021906
v -0.032697 0.100532 0.021164
v -0.032841 0.100432 0.021164
v -0.032173 0.100895 0.021534
v -0.0428035 0.0989083 0.0270227
v -0.034963 0.09896 0.02063
v -0.040953 0.094801 0.025445
v -0.033281 0.100125 0.023902
v -0.033283 0.100122 0.025503
v -0.039209 0.096014 0.02062
v -0.032132 0.100923 0.021718
v -0.032132 0.100923 0.021718
v -0.032283 0.100818 0.021399
v -0.034971 0.09895 0.027032
v -0.034852 0.104916 0.025774
v -0.033931 0.103595 0.023839
v -0.0411323 0.101052 0.0206252
v -0.0396461 0.100215 0.020626
v -0.0399352 0.10118 0.0270295
v -0.03485 0.104919 0.02384
f 2 21 16
f 1 20 6
f 19 18 11
f 15 6 20
f 3 4 13
f 12 5 14
f 8 10 9
f 11 7 19
f 16 21 17
f 2 17 21
f 1 15 20
f 19 7 18
