v -0.0237 0.025896 -0.003634
v -0.0242 0.025811 -0.0035
v -0.024459 0.029698 -0.003534
v -0.0247 0.025896 -0.005366
v -0.0247 0.025896 -0.005366
v -0.025066 0.026052 -0.005
v -0.024453 0.025834 -0.003533
v -0.0247 0.029708 -0.003634
v -0.025066 0.026052 -0.004
v -0.025166 0.026106 -0.004239
v -0.023334 0.026052 -0.005
v -0.0237 0.025896 -0.005366
v -0.02595 0.029725 -0.0045
v -0.025922 0.02972 -0.004502
v -0.025877 0.029725 -0.004
v -0.025877 0.029722 -0.004
v -0.025725 0.029709 -0.003641
v -0.025725 0.029709 -0.003641
v 0.0247 0.029708 -0.003634
v 0.024459 0.029698 -0.003534
v 0.0242 0.025811 -0.0035
v 0.0242 0.025811 -0.0055
v 0.023334 0.026052 -0.005
v 0.023947 0.025834 -0.003533
v 0.023334 0.026052 -0.004
v 0.023235 0.026106 -0.004239
v 0.023235 0.026106 -0.004761
v 0.024453 0.025834 -0.005467
v 0.025725 0.029709 -0.003641
v 0.025877 0.029722 -0.004
v 0.025877 0.029725 -0.004
v 0.025922 0.02972 -0.004502
v 0.02595 0.029725 -0.0045
v 0.02595 0.029725 -0.0045
v 0.025939 0.029719 -0.004695
v 0.025725 0.029725 -0.005359
v 0.02971 0.026066 -0.004953
v 0.029388 0.027239 -0.004
v 0.029705 0.026125 -0.0045
v 0.029725 0.025725 -0.009
v 0.029725 0.025725 -0.009
v 0.029719 0.025857 -0.005358
v 0.029529 0.026961 -0.009
v 0.029529 0.026961 -0.009
v 0.029529 0.026961 -0.009
v 0.026961 0.029529 -0.004
v 0.029388 0.027239 -0.009
v 0.028961 0.028076 -0.009
v 0.026725 0.028803 -0.001649
v 0.025725 0.028519 -0.001206
v 0.026452 0.027961 -0.000764
v 0.025725 0.028076 -0.000764
v 0.025725 0.029388 -0.002486
v 0.029388 0.025725 -0.002486
v 0.022523 -0.029725 -0.004
v -0.022523 -0.029725 -0.004
v 0.026961 -0.029529 -0.004
v 0.025877 -0.029722 -0.004
v -0.025725 0.029388 -0.002486
v -0.025725 0.029529 -0.002764
v 0.029343 -0.026901 -0.002764
v 0.029692 -0.025861 -0.003641
v 0.025725 -0.029709 -0.003641
v 0.025725 -0.029709 -0.003641
v 0.026901 -0.029343 -0.002764
v 0.029388 -0.025725 -0.002486
v 0.029388 -0.025725 -0.002486
v 0.029529 -0.025725 -0.002764
v 0.025725 -0.029529 -0.002764
v -0.025725 -0.029388 -0.002486
v -0.025725 -0.029388 -0.002486
v -0.025438 -0.029656 -0.003263
v -0.025725 -0.029709 -0.003641
v -0.0242 -0.029525 -0.00275
v 0.023747 -0.029544 -0.00281
v 0.023747 -0.029544 -0.00281
v 0.022685 -0.029707 -0.003625
v -0.022685 -0.029707 -0.003625
v 0.0242 -0.029525 -0.00275
v -0.025725 -0.028076 -0.000764
v -0.025725 -0.028519 -0.001206
v 0.029725 0.02525 -0.006016
v 0.029525 0.024375 -0.00275
v 0.029544 0.024829 -0.00281
v 0.018 0.02525 -0.002984
v 0.018 0.025891 -0.003625
v 0.018 0.026125 -0.0045
v 0.02251 0.022685 -0.004953
v 0.025891 0.022685 -0.004047
v 0.029725 0.022698 -0.004
v 0.029725 0.022698 -0.004
v 0.02595 0.022625 -0.0045
v 0.029725 0.022625 -0.0045
v 0.025891 0.022685 -0.004953
v 0.029725 0.02286 -0.005375
v 0.02245 -0.022625 -0.0045
v 0.02251 -0.022685 -0.004953
v 0.02251 -0.026066 -0.004047
v 0.029594 -0.02525 -0.002984
v 0.029656 -0.023138 -0.003262
v 0.029594 -0.0235 -0.002984
v 0.029525 -0.024375 -0.00275
v 0.029544 -0.024829 -0.00281
v 0.029544 -0.024829 -0.00281
v -0.02251 -0.022685 -0.004953
v -0.02251 -0.026066 -0.004047
v -0.029725 0.025725 -0.009
v -0.029725 -0.025725 -0.009
v -0.029725 -0.022625 -0.0045
v -0.029725 -0.022698 -0.004
v -0.029725 -0.022698 -0.004
v -0.029725 -0.022698 -0.004
v -0.029725 0.022698 -0.004
v -0.029725 -0.02286 -0.005375
v -0.029725 0.02286 -0.005375
v -0.02971 0.026066 -0.004953
v -0.029705 0.026125 -0.0045
v -0.029705 0.026125 -0.0045
v -0.026961 0.029529 -0.004
v -0.029529 0.026961 -0.009
v -0.027239 0.029388 -0.009
v -0.029343 0.026901 -0.002764
v -0.029692 0.025861 -0.003641
v -0.029692 0.025861 -0.003641
v -0.026901 0.029343 -0.002764
v -0.029388 0.025725 -0.002486
v -0.029529 0.025725 -0.002764
v -0.029544 0.02483 -0.00281
v -0.029594 0.02525 -0.002984
v -0.029594 0.02525 -0.002984
v -0.029594 -0.0235 -0.002984
v -0.029544 0.023921 -0.00281
v -0.029544 0.023921 -0.00281
v -0.029544 0.023921 -0.00281
v -0.029656 -0.023138 -0.003262
v -0.029656 -0.023138 -0.003262
v -0.029594 0.0235 -0.002984
v -0.029594 0.0235 -0.002984
v -0.029707 -0.02286 -0.003625
v -0.029656 0.023138 -0.003262
v -0.029388 -0.025725 -0.002486
v -0.029544 -0.02483 -0.00281
v -0.029594 -0.02525 -0.002984
v -0.029388 -0.027239 -0.009
v -0.029529 -0.026961 -0.009
v -0.029529 -0.026961 -0.009
v -0.026961 -0.029529 -0.004
v -0.025877 -0.029722 -0.004
v -0.028961 -0.028076 -0.009
v -0.027239 -0.029388 -0.009
v -0.026725 -0.028803 -0.001649
v -0.026452 -0.027961 -0.000764
v 0.028803 0.027961 -0.010236
v 0.029343 0.026901 -0.010236
v 0.029343 0.026901 -0.010236
v 0.026452 0.027961 -0.012236
v 0.026452 0.027961 -0.012236
v 0.025725 0.028519 -0.011794
v 0.025725 0.028519 -0.011794
v 0.026725 0.028803 -0.011351
v 0.026725 0.028803 -0.011351
v 0.026725 0.028803 -0.011351
v 0.027627 0.028343 -0.011351
v 0.025725 0.028961 -0.011351
v 0.028961 -0.025725 -0.011351
v 0.028519 -0.025725 -0.011794
v -0.025725 0.029388 -0.010514
v -0.025725 0.028961 -0.011351
v -0.025725 0.028961 -0.011351
v -0.025725 0.028519 -0.011794
v 0.027961 -0.026452 -0.012236
v 0.026725 -0.028803 -0.011351
v 0.025725 -0.028519 -0.011794
v 0.028803 -0.026725 -0.011351
v 0.028803 -0.026725 -0.011351
v 0.025725 -0.028961 -0.011351
v 0.028343 -0.027627 -0.011351
v -0.027961 0.028803 -0.010236
v -0.027961 0.028803 -0.010236
v -0.026901 0.029343 -0.010236
v -0.026901 0.029343 -0.010236
v -0.026961 0.025725 -0.012804
v -0.026901 0.026107 -0.012804
v -0.027239 0.025725 -0.012663
v -0.027961 0.026452 -0.012236
v -0.027961 0.026452 -0.012236
v -0.027961 0.026452 -0.012236
v -0.026725 0.028803 -0.011351
v -0.026725 0.028803 -0.011351
v -0.028076 0.025725 -0.012236
v -0.028519 0.025725 -0.011794
v -0.028519 0.025725 -0.011794
v -0.028803 0.026725 -0.011351
v -0.028803 0.026725 -0.011351
v -0.028803 0.026725 -0.011351
v -0.027627 0.028343 -0.011351
v -0.028343 0.027627 -0.011351
v -0.028343 0.027627 -0.011351
v -0.027627 0.027107 -0.012236
v -0.028961 0.025725 -0.011351
v -0.028961 0.025725 -0.011351
v -0.029388 0.025725 -0.010514
v -0.029529 0.025725 -0.010236
v -0.025725 -0.029388 -0.010514
v -0.025725 -0.028961 -0.011351
v -0.025725 -0.028961 -0.011351
v -0.025725 -0.028519 -0.011794
v -0.025725 -0.028519 -0.011794
v -0.029388 -0.025725 -0.010514
v -0.028961 -0.025725 -0.011351
v -0.028519 -0.025725 -0.011794
v -0.028076 -0.025725 -0.012236
v -0.027239 -0.025725 -0.012663
v -0.026961 -0.025725 -0.012804
v -0.027961 -0.028803 -0.010236
v -0.028803 -0.027961 -0.010236
v -0.029343 -0.026901 -0.010236
v -0.029343 -0.026901 -0.010236
v -0.026901 -0.026107 -0.012804
v -0.026452 -0.027961 -0.012236
v -0.026452 -0.027961 -0.012236
v -0.028803 -0.026725 -0.011351
v -0.027961 -0.026452 -0.012236
v -0.026725 -0.028803 -0.011351
v -0.026725 -0.028803 -0.011351
v -0.026725 -0.028803 -0.011351
v -0.026725 -0.028803 -0.011351
v -0.027627 -0.028343 -0.011351
v -0.026901 -0.029343 -0.010236
v -0.018 0.02286 -0.005375
v -0.018 0.022625 -0.0045
v -0.018 0.026125 -0.0045
v -0.018 0.025891 -0.003625
v -0.018 0.025891 -0.005375
v -0.0242 0.024375 -0.00275
v -0.025075 0.0235 -0.002984
v -0.02595 0.022625 -0.0045
v -0.02595 0.022625 -0.0045
v -0.025891 0.022685 -0.004047
v -0.025891 0.022685 -0.004953
v -0.02251 0.022685 -0.004953
v -0.02251 0.022685 -0.004953
v -0.02245 0.022625 -0.0045
v -0.025075 -0.0235 -0.002984
v -0.025075 -0.02525 -0.002984
v -0.025716 -0.025891 -0.003625
v -0.025891 -0.022685 -0.004953
v -0.025891 -0.022685 -0.004047
v -0.025716 -0.02286 -0.003625
v -0.022685 0.018 -0.005375
v -0.022685 -0.018 -0.005375
v -0.02245 -0.018 -0.0045
v 0.022685 0.018 -0.005375
v 0.02245 0.018 -0.0045
v 0.022685 -0.018 -0.005375
f 13 14 15
f 31 32 33
f 34 35 36
f 37 38 39
f 42 41 45
f 30 29 46
f 49 50 51
f 51 50 52
f 59 3 8
f 53 19 20
f 58 57 63
f 68 61 62
f 65 69 64
f 70 74 75
f 79 71 76
f 82 28 22
f 85 24 21
f 23 27 87
f 86 26 25
f 89 90 92
f 94 93 95
f 16 119 18
f 127 122 123
f 125 60 17
f 128 126 130
f 131 132 136
f 138 110 133
f 137 140 111
f 141 142 143
f 104 66 99
f 101 100 91
f 83 84 54
f 102 67 103
f 148 73 147
f 151 81 152
f 152 81 80
f 47 43 154
f 157 158 161
f 44 40 155
f 48 47 153
f 162 163 156
f 159 164 160
f 172 176 173
f 175 177 171
f 166 165 174
f 183 182 184
f 187 190 191
f 189 167 168
f 188 169 170
f 179 121 180
f 178 181 196
f 194 198 186
f 185 197 199
f 192 200 193
f 195 201 202
f 120 203 107
f 144 145 218
f 223 211 212
f 219 213 214
f 221 207 227
f 222 209 210
f 146 108 217
f 149 144 216
f 229 150 215
f 225 228 220
f 208 205 224
f 226 206 204
f 11 12 234
f 1 232 233
f 9 124 10
f 116 5 118
f 117 4 6
f 7 2 129
f 236 134 235
f 237 113 239
f 240 115 238
f 230 242 231
f 114 247 109
f 112 248 139
f 135 249 244
f 97 255 96
f 88 254 253
f 105 252 251
f 241 250 243
f 72 246 245
f 106 56 78
f 55 98 77
