v -0.024997 0.005928 0.051755
v -0.024136 0.003334 0.051755
v -0.023406 0.00353 0.051755
v -0.016001 -0.020381 0.051755
v -0.016196 -0.021111 0.051755
v -0.016001 -0.021841 0.051755
v -0.016001 -0.021841 0.051755
v -0.016001 -0.021841 0.051755
v -0.015466 -0.022376 0.051755
v -0.014006 -0.022376 0.051755
v -0.013472 -0.021841 0.051755
v -0.013472 -0.021841 0.051755
v -0.003067 -0.027864 0.051755
v -0.00296 -0.027971 0.051755
v 0.013801 -0.025888 0.051755
v 0.013605 -0.025158 0.051755
v 0.011076 -0.025158 0.051755
v 0.011076 -0.026618 0.051755
v 0.025354 -0.016985 0.051755
v 0.025354 -0.018445 0.051755
v 0.021957 0.021841 0.051755
v 0.021423 0.022376 0.051755
v 0.028077 0.010574 0.051755
v 0.028077 0.010574 0.051755
v 0.028177 0.008146 0.051755
v 0.028907 0.007951 0.051755
v 0.030172 0.010141 0.051755
v 0.028177 0.010675 0.051755
v -0.005251 0.026597 0.051755
v -0.007976 0.025867 0.051755
v -0.00535 0.025038 0.051755
v -0.005251 0.025137 0.051755
v -0.016673 0.017715 0.051755
v 0.011563 -0.025439 0.051956
v 0.011443 -0.025888 0.051956
v -0.00258 -0.027629 0.051956
v 0.024867 -0.017266 0.051956
v 0.028351 0.010126 0.051956
v 0.028413 0.010188 0.051956
v 0.028413 0.010188 0.051956
v -0.015514 -0.02156 0.051956
v -0.015185 -0.021889 0.051956
v 0.013118 -0.025439 0.051956
v 0.02976 0.009411 0.051956
v 0.029639 0.00986 0.051956
v 0.028862 0.008513 0.051956
v -0.023735 0.004017 0.051956
v -0.013959 -0.02156 0.051956
v 0.011563 -0.026337 0.051956
v 0.024867 -0.018164 0.051956
v -0.005738 0.025372 0.051956
v -0.015514 -0.020662 0.051956
v -0.005738 0.02627 0.051956
v -0.007293 0.02627 0.051956
v 0.021142 0.021889 0.051956
v -0.017355 0.017266 0.051956
v -0.015634 -0.021111 0.051956
v -0.015634 -0.021111 0.051956
v -0.015634 -0.021111 0.051956
v -0.006067 0.026599 0.051956
v -0.014287 -0.021889 0.051956
v -0.014287 -0.021889 0.051956
v -0.007414 0.025821 0.051956
v 0.011892 -0.025111 0.051956
v -0.024632 0.005572 0.051956
v -0.017235 0.017715 0.051956
v -0.024713 0.005491 0.051956
v 0.024988 -0.017715 0.051956
v 0.024988 -0.017715 0.051956
v -0.02221 -0.010684 0.051755
v -0.024205 -0.00869 0.051755
v -0.024205 -0.00869 0.051755
v -0.02367 -0.008155 0.051755
v -0.02221 -0.008155 0.051755
v -0.021676 -0.00869 0.051755
v 0.031623 -0.004805 0.051755
v 0.031428 -0.004075 0.051755
v 0.029433 -0.00354 0.051755
v 0.031428 -0.005535 0.051755
v 0.029386 -0.004356 0.051956
v 0.030941 -0.005254 0.051956
v 0.029715 -0.004027 0.051956
v 0.031061 -0.004805 0.051956
v 0.031061 -0.004805 0.051956
v -0.022163 -0.009869 0.051956
v -0.023718 -0.008971 0.051956
v -0.023718 -0.008971 0.051956
v -0.022163 -0.008971 0.051956
v -0.023838 -0.00942 0.051956
v -0.022491 -0.010197 0.051956
f 29 60 53
f 7 57 5
f 14 36 13
f 24 39 28
f 20 68 50
f 12 62 10
f 4 58 52
f 71 89 87
f 70 85 90
f 74 88 75
f 77 83 76
f 79 84 81
f 78 80 82
f 6 41 59
f 25 26 46
f 17 34 64
f 2 3 47
f 18 49 35
f 30 63 54
f 31 32 51
f 21 22 55
f 15 16 43
f 33 66 56
f 23 38 40
f 1 67 65
f 19 37 69
f 8 9 42
f 11 48 61
f 27 45 44
f 73 72 86
