v 0.023625 0.023625 -0.013
v -0.021359 -0.027625 -0.005
v -0.023625 0.027625 -0.009
v -0.020548 0.027625 -0.004
v -0.020548 0.027625 -0.004
v -0.027568 -0.023625 -0.003328
v -0.027587 -0.023804 -0.003646
v -0.016 -0.024075 -0.0045
v -0.021359 -0.024002 -0.005
v -0.02126 -0.024056 -0.004761
v -0.02126 -0.024056 -0.004761
v -0.021225 -0.024075 -0.0045
v -0.020475 -0.020575 -0.0045
v -0.016 -0.02081 -0.005375
v -0.020535 -0.020635 -0.004953
v -0.027607 -0.02081 -0.003625
v -0.023916 -0.020635 -0.004047
v -0.027625 -0.020648 -0.004
v -0.016 0.023841 -0.005375
v -0.020535 0.024016 -0.004047
v -0.020475 0.024075 -0.0045
v -0.020475 0.024075 -0.0045
v -0.020535 0.024016 -0.004953
v -0.027494 0.0232 -0.002984
v -0.027568 0.023625 -0.003328
v -0.027587 0.023804 -0.003646
v -0.027587 0.023804 -0.003646
v -0.023916 0.024016 -0.004047
v -0.027607 0.024002 -0.004
v -0.0276 0.024075 -0.0045
v -0.027606 0.024016 -0.004953
v -0.027619 0.023841 -0.005375
v -0.027625 0.023625 -0.005672
v -0.023975 0.020575 -0.0045
v -0.027625 0.020648 -0.004
v -0.023916 0.020635 -0.004047
v -0.027444 0.021872 -0.00281
v -0.027425 0.022325 -0.00275
v -0.027444 0.022779 -0.00281
v 0.027625 -0.023625 -0.005672
v 0.027625 0.020648 -0.004
v 0.027625 -0.020648 -0.004
v 0.022709 -0.023841 -0.003625
v 0.027494 -0.0232 -0.002984
v 0.027568 -0.023625 -0.003328
v 0.027568 -0.023625 -0.003328
v 0.027587 -0.023804 -0.003646
v 0.027587 -0.023804 -0.003646
v 0.0276 -0.024075 -0.0045
v 0.027619 -0.023841 -0.005375
v 0.027606 -0.024016 -0.004953
v 0.027444 -0.022779 -0.00281
v 0.027444 -0.021872 -0.00281
v 0.027425 -0.022325 -0.00275
v 0.023975 -0.020575 -0.0045
v 0.023916 -0.020635 -0.004047
v 0.023975 0.024075 -0.0045
v 0.027607 0.024002 -0.004
v 0.023916 0.024016 -0.004047
v 0.023916 0.024016 -0.004047
v 0.027587 0.023804 -0.003646
v 0.027587 0.023804 -0.003646
v 0.027568 0.023625 -0.003328
v 0.023916 0.020635 -0.004047
v 0.027607 0.02081 -0.003625
v 0.023975 0.016 -0.0045
v 0.023741 0.016 -0.003625
v -0.023975 -0.016 -0.0045
v -0.023741 -0.016 -0.003625
v 0.0231 0.027494 -0.002984
v 0.023625 0.027587 -0.003449
v 0.023719 0.027597 -0.003636
v 0.023902 0.027615 -0.004
v 0.023902 0.027615 -0.004
v 0.023902 0.027615 -0.004
v 0.023975 0.02761 -0.0045
v 0.021772 0.027444 -0.00281
v -0.023741 0.027623 -0.005375
v -0.023916 0.027614 -0.004952
v -0.023975 0.02761 -0.0045
v -0.023975 0.02761 -0.0045
v -0.023625 0.027587 -0.003449
v -0.02071 0.027607 -0.003625
v -0.022484 -0.027598 -0.003534
v -0.022225 -0.027594 -0.0035
v 0.022484 -0.027598 -0.003534
v 0.022225 -0.027594 -0.0035
v -0.027489 -0.02466 -0.004
v -0.027289 -0.025143 -0.004
v -0.027089 -0.025625 -0.004
v -0.027089 -0.025625 -0.004
v -0.026453 -0.026453 -0.004
v 0.027289 -0.025143 -0.004
v 0.027289 -0.025143 -0.004
v 0.025625 -0.027089 -0.009
v 0.026453 -0.026453 -0.004
v 0.026453 -0.026453 -0.009
v 0.027089 -0.025625 -0.004
v 0.027489 -0.02466 -0.009
v 0.027489 0.02466 -0.004
v 0.027289 0.025143 -0.004
v 0.02466 0.027489 -0.004
v 0.02466 0.027489 -0.004
v 0.027089 0.025625 -0.004
v 0.026453 0.026453 -0.004
v 0.026453 0.026453 -0.009
v -0.02466 0.027489 -0.004
v -0.025143 0.027289 -0.004
v -0.025143 0.027289 -0.004
v -0.02466 0.027489 -0.009
v -0.027289 0.025143 -0.004
v -0.027289 0.025143 -0.004
v -0.027089 0.025625 -0.004
v -0.027489 0.02466 -0.009
v -0.023625 -0.027289 -0.002482
v 0.023625 -0.027289 -0.002482
v -0.023625 -0.027089 -0.002
v 0.025557 -0.026971 -0.002965
v 0.025557 -0.026971 -0.002965
v 0.027289 -0.023625 -0.002482
v 0.027289 -0.023625 -0.002482
v 0.027489 -0.023625 -0.002965
v 0.027489 -0.023625 -0.002965
v 0.026971 -0.025557 -0.002965
v 0.026074 -0.026074 -0.002
v 0.026357 -0.026357 -0.002965
v 0.026357 -0.026357 -0.002965
v 0.025357 -0.026625 -0.002
v -0.026971 -0.025557 -0.002965
v -0.026971 -0.025557 -0.002965
v -0.027357 -0.024625 -0.002965
v -0.027357 -0.024625 -0.002965
v -0.027357 -0.024625 -0.002965
v -0.025557 -0.024143 -0.000536
v -0.026357 -0.024357 -0.001172
v -0.024357 -0.026357 -0.001172
v -0.024522 -0.026971 -0.002
v -0.027289 -0.023625 -0.002482
v -0.027489 -0.023625 -0.002965
v -0.027489 -0.023625 -0.002965
v -0.026357 -0.026357 -0.002965
v -0.026074 -0.025039 -0.001172
v 0.027289 0.023625 -0.002482
v 0.027489 0.023625 -0.002965
v 0.027489 0.023625 -0.002965
v -0.027289 0.023625 -0.002482
v -0.027289 0.023625 -0.002482
v -0.027489 0.023625 -0.002965
v -0.027489 0.023625 -0.002965
v 0.026971 0.025557 -0.002965
v 0.026971 0.025557 -0.002965
v 0.027357 0.024625 -0.002965
v 0.027357 0.024625 -0.002965
v 0.027357 0.024625 -0.002965
v 0.024625 0.027357 -0.002965
v 0.025557 0.024143 -0.000536
v 0.026357 0.024357 -0.001172
v 0.024357 0.026357 -0.001172
v 0.023625 0.027089 -0.002
v 0.024522 0.026971 -0.002
v 0.023625 0.027289 -0.002482
v 0.023625 0.027489 -0.002965
v 0.023625 0.027489 -0.002965
v 0.026357 0.026357 -0.002965
v 0.026074 0.025039 -0.001172
v -0.025557 0.026971 -0.002965
v -0.024625 0.027357 -0.002965
v -0.023625 0.027489 -0.002965
v -0.026971 0.025557 -0.002965
v -0.026074 0.026074 -0.002
v -0.026357 0.026357 -0.002965
v -0.025357 0.026625 -0.002
v -0.027357 -0.024625 -0.010035
v -0.024625 -0.023893 -0.012864
v -0.024357 -0.026357 -0.011828
v -0.023625 -0.026453 -0.011828
v -0.024522 -0.026971 -0.011
v -0.025625 -0.023625 -0.012464
v -0.025557 -0.024143 -0.012464
v -0.025557 -0.024143 -0.012464
v -0.026453 -0.023625 -0.011828
v -0.027289 -0.023625 -0.010518
v -0.027489 -0.023625 -0.010035
v -0.024522 -0.024143 -0.012864
v -0.025039 -0.025039 -0.012464
v -0.025625 -0.025625 -0.011828
v -0.024625 -0.025357 -0.012464
v -0.024625 -0.027357 -0.010035
v -0.023625 -0.027289 -0.010518
v -0.023625 -0.027489 -0.010035
v -0.027489 0.023625 -0.010035
v -0.027289 0.023625 -0.010518
v 0.023625 -0.027489 -0.010035
v 0.023625 -0.027289 -0.010518
v -0.026971 0.025557 -0.010035
v -0.024625 0.027357 -0.010035
v -0.024357 0.026357 -0.011828
v -0.024522 0.026971 -0.011
v -0.023625 0.027289 -0.010518
v -0.023625 0.027489 -0.010035
v -0.025557 0.026971 -0.010035
v -0.025357 0.026625 -0.011
v -0.025039 0.026074 -0.011828
v -0.025039 0.025039 -0.012464
v -0.025625 0.025625 -0.011828
v -0.026074 0.026074 -0.011
v -0.026074 0.026074 -0.011
v -0.026357 0.026357 -0.010035
v -0.026357 0.026357 -0.010035
v -0.026625 0.025357 -0.011
v -0.025357 0.024625 -0.012464
v -0.027357 0.024625 -0.010035
v 0.026971 -0.025557 -0.010035
v 0.026971 -0.025557 -0.010035
v 0.024625 -0.027357 -0.010035
v 0.024357 -0.026357 -0.011828
v 0.024522 -0.026971 -0.011
v 0.025557 -0.026971 -0.010035
v 0.025557 -0.026971 -0.010035
v 0.025357 -0.026625 -0.011
v 0.025039 -0.026074 -0.011828
v 0.025039 -0.025039 -0.012464
v 0.025625 -0.025625 -0.011828
v 0.026074 -0.026074 -0.011
v 0.026074 -0.026074 -0.011
v 0.026357 -0.026357 -0.010035
v 0.026357 -0.026357 -0.010035
v 0.026357 -0.026357 -0.010035
v 0.026357 -0.026357 -0.010035
v 0.026625 -0.025357 -0.011
v 0.025357 -0.024625 -0.012464
v 0.027357 -0.024625 -0.010035
v 0.027289 -0.023625 -0.010518
v 0.027489 -0.023625 -0.010035
v 0.023625 0.027489 -0.010035
v 0.023625 0.027289 -0.010518
v 0.023625 0.026453 -0.011828
v 0.027489 0.023625 -0.010035
v 0.027289 0.023625 -0.010518
v 0.027089 0.023625 -0.011
v 0.026453 0.023625 -0.011828
v 0.025625 0.023625 -0.012464
v 0.025557 0.026971 -0.010035
v 0.027357 0.024625 -0.010035
v 0.024625 0.023893 -0.012864
v 0.024357 0.026357 -0.011828
v 0.024522 0.026971 -0.011
v 0.025557 0.024143 -0.012464
v 0.025557 0.024143 -0.012464
v 0.026357 0.024357 -0.011828
v 0.026971 0.024522 -0.011
v 0.024522 0.024143 -0.012864
v 0.024522 0.024143 -0.012864
v 0.024357 0.024357 -0.012864
v 0.025039 0.025039 -0.012464
v 0.025039 0.025039 -0.012464
v 0.025625 0.025625 -0.011828
v 0.025625 0.025625 -0.011828
v 0.026357 0.026357 -0.010035
v 0.025039 0.026074 -0.011828
v 0.024625 0.025357 -0.012464
v 0.024625 0.025357 -0.012464
v 0.024625 0.025357 -0.012464
v 0.024143 0.024522 -0.012864
v 0.024625 0.027357 -0.010035
f 9 10 8
f 14 13 15
f 19 21 23
f 28 26 29
f 34 35 36
f 43 46 48
f 55 42 56
f 60 58 62
f 69 17 68
f 67 64 66
f 59 74 57
f 4 22 20
f 2 12 11
f 93 51 49
f 50 99 40
f 103 76 75
f 107 80 108
f 78 3 110
f 111 31 30
f 81 79 109
f 32 114 33
f 84 85 115
f 86 116 87
f 122 47 45
f 98 94 124
f 118 96 127
f 119 126 128
f 128 126 125
f 89 91 130
f 7 88 131
f 117 136 137
f 133 138 140
f 132 139 6
f 90 92 129
f 129 92 141
f 135 142 134
f 44 121 123
f 53 41 65
f 54 120 52
f 24 147 149
f 37 18 16
f 38 146 39
f 101 104 150
f 61 100 154
f 155 102 73
f 159 158 160
f 162 72 71
f 153 143 145
f 152 144 63
f 151 105 164
f 157 165 156
f 148 27 25
f 167 168 82
f 113 112 169
f 166 171 172
f 172 171 170
f 70 161 163
f 77 5 83
f 175 176 177
f 178 179 181
f 173 183 182
f 187 186 185
f 180 174 184
f 188 189 190
f 196 200 199
f 203 198 197
f 202 207 201
f 201 207 209
f 195 208 210
f 210 208 206
f 211 205 204
f 212 192 191
f 215 193 194
f 221 217 216
f 220 224 219
f 219 224 229
f 218 228 95
f 214 97 227
f 213 226 230
f 230 226 225
f 231 223 222
f 232 233 234
f 246 237 247
f 242 249 241
f 240 250 251
f 244 238 239
f 243 106 259
f 260 258 261
f 262 257 255
f 263 256 264
f 252 1 254
f 248 245 253
f 265 236 235
