v -0.009338 -0.007872 0.00049
v -0.009337 -0.007861 0.000641
v -0.009694 -0.007554 0.000622
v -0.009695 -0.007564 0.000471
v 0.009692 0.007543 -0.000773
v 0.009694 0.007554 -0.000622
v 0.009906 0.007134 -0.000594
v 0.009905 0.007123 -0.000745
v 0.007156 -0.009897 0.00049
v 0.007158 -0.009886 0.000641
v 0.006689 -0.009921 0.000647
v 0.006687 -0.009932 0.000497
v -0.00346775 0.00890775 -0.000755
v -0.009943 -0.006677 0.00041
v 0.006687 -0.009932 0.000497
v 0.00889 0.008008 -0.000647
v 0.007596 -0.0093795 0.000601
v -0.00562812 0.00493762 -0.000302
f 1 2 3
f 1 3 4
f 5 6 7
f 5 7 8
f 9 10 11
f 9 11 12
f 15 14 13
f 18 17 16
