v 0.027453 -0.037351 0.0127
v 0.033226 -0.032323 0.0127
v 0.033226 -0.032323 0.0127
v -0.006306 0.045476 0.0254
v -0.013705 0.043818 0.0254
v -0.013838 0.044241 0.0127
v -0.027453 0.037351 0.0127
v -0.033226 0.032323 0.0127
v -0.033226 0.032323 0.0127
v -0.027655 0.036589 0
v -0.027655 0.036589 0
v -0.032909 0.032014 0
v 0.027655 -0.036589 0
v 0.027655 -0.036589 0
v 0.032909 -0.032014 0
v -0.043412 0.016254 0.0127
v -0.04506 0.008802 0
v -0.045495 0.008887 0.0127
v -0.046337 0.001277 0.0127
v -0.045916 -0.006367 0.0127
v -0.04136 -0.020931 0.0127
v -0.012613 -0.044606 0.0127
v 0.043412 -0.016254 0.0127
v 0.04506 -0.008802 0
v 0.045495 -0.008887 0.0127
v 0.046337 -0.001277 0.0127
v 0.045916 0.006367 0.0127
v 0.04136 0.020931 0.0127
v 0.012613 0.044606 0.0127
v -0.043994 0.0254 0.0127
v -0.043994 0.0254 0.0127
v -0.039213 0.032295 0.0127
v 0.013823 0.048883 0.0127
v 0.048484 0.015165 0.0127
v 0.050318 0.006978 0.0127
v 0.047575 -0.017812 0.0127
v 0.043994 -0.0254 0.0127
v 0.043994 -0.0254 0.0127
v 0.039213 -0.032295 0.0127
v -0.048484 -0.015165 0.0127
v -0.047575 0.017812 0.0127
v -0.04361 0.025178 0.0254
v -0.04361 0.025178 0.0254
v -0.049879 -0.006917 0.0254
v -0.04806 -0.015032 0.0254
v 0.038871 -0.032013 0.0254
v 0.04361 -0.025178 0.0254
v 0.04361 -0.025178 0.0254
v 0.019594 0.04152 0.0254
v 0.021491 0.04554 0.0254
v 0.012493 0.044179 0.0254
v 0.013702 0.048456 0.0254
v -0.038871 0.032013 0.0254
v -0.04506 0.008802 0.0254
v -0.045894 0.001265 0.0254
v -0.045894 0.001265 0.0254
v -0.045476 -0.006306 0.0254
v -0.040965 -0.020731 0.0254
v -0.037351 -0.027453 0.0127
v -0.019594 -0.04152 0.0254
v -0.012493 -0.044179 0.0254
v 0.047159 -0.017657 0.0254
v 0.04506 -0.008802 0.0254
v 0.045894 -0.001265 0.0254
v 0.045894 -0.001265 0.0254
v 0.050337 -0.001388 0.0254
v 0.045476 0.006306 0.0254
v 0.049879 0.006917 0.0254
v 0.049879 0.006917 0.0254
v 0.04806 0.015032 0.0254
v 0.040965 0.020731 0.0254
v 0.037351 0.027453 0.0127
f 4 6 5
f 7 11 9
f 8 10 12
f 1 13 2
f 3 14 15
f 17 16 18
f 24 23 25
f 42 31 41
f 44 40 45
f 46 39 37
f 46 37 47
f 48 38 36
f 48 36 62
f 66 35 68
f 69 34 70
f 50 33 52
f 53 32 30
f 53 30 43
f 61 22 60
f 58 59 21
f 57 20 55
f 56 19 54
f 51 29 49
f 71 72 28
f 67 27 64
f 65 26 63
