v -0.162734 0.0847302 0.00321358
v -0.165115 0.0846399 0.00310121
v -0.165115 0.0846399 0.00321358
v -0.16163 0.0839086 -0.000684015
v -0.165115 0.0844323 0.00073352
v -0.175998 0.0837115 0.000699362
v -0.18591 0.0829608 0.00073352
v -0.246988 0.0781831 0.00154531
v -0.326163 0.0719655 0.00310121
v -0.203142 0.0816473 0.00321358
v -0.174587 0.0833174 -0.00083786
v -0.17695 0.0832406 -0.00078787
v -0.179314 0.0831571 -0.00072151
v -0.181695 0.0830714 -0.00063966
v -0.184058 0.0829834 -0.00054322
v -0.185522 0.0829292 -0.00047775
v -0.216088 0.0805415 -0.00045563
v -0.21637 0.080564 0.00073352
v -0.306497 0.0734685 0.00073352
v -0.328545 0.0716073 0.00321353
v -0.326163 0.0719655 0.00321358
v -0.160371 0.0817241 -0.00130591
v -0.169842 0.0817241 -0.00130546
v -0.172223 0.0817241 -0.00129573
v -0.168556 0.0834837 -0.000884297
v -0.174587 0.0817241 -0.00126565
v -0.203018 0.0809973 -0.0008613
v -0.233813 0.0786096 -0.0008529
v -0.264573 0.0762196 -0.00084272
v -0.295386 0.0738274 -0.00083078
v -0.326163 0.0714419 -0.00081707
v -0.205382 0.0809251 -0.00082503
v -0.266954 0.0761429 -0.00079495
v -0.297749 0.0737506 -0.00077725
v -0.23854 0.0784562 -0.0007507
v -0.210126 0.0807649 -0.00069894
v -0.240921 0.0783704 -0.00067505
v -0.21249 0.0806769 -0.00061312
v -0.243285 0.0782824 -0.00058481
v -0.214871 0.0805889 -0.00051181
v -0.30618 0.0734437 -0.00046492
v -0.329907 0.0711614 -0.000652047
v -0.214871 0.0651453 -0.00130591
v -0.168877 0.0817238 -0.00130584
v -0.319055 0.0698824 -0.00130591
v -0.259864 0.0746173 -0.00130546
v -0.290623 0.0722498 -0.00130413
v -0.321436 0.0698824 -0.00130237
v -0.200655 0.0793544 -0.0013037
v -0.23145 0.0769847 -0.00130148
v -0.262227 0.0746173 -0.0012975
v -0.293005 0.0722498 -0.00129219
v -0.203018 0.0793544 -0.0012891
v -0.233813 0.0769847 -0.00128025
v -0.3238 0.0698824 -0.00128423
v -0.295386 0.0722498 -0.00125769
v -0.326163 0.0698824 -0.00124441
v -0.205382 0.0793544 -0.00125238
v -0.3238 0.0715119 -0.00085688
v -0.304839 0.0734911 -0.00052509
v -0.302476 0.0735814 -0.00062373
v -0.300112 0.0736649 -0.00070824
v -0.269317 0.0760616 -0.00072991
v -0.154251 0.0756103 -0.00129352
v -0.230339 0.0616743 -0.00123778
v -0.23145 0.0616743 -0.00124441
v -0.255119 0.0616743 -0.00130591
v -0.1539 0.0821957 0.000733426
v -0.33205 0.0639962 0.000218316
v -0.224324 0.0616743 -0.00092412
v -0.227008 0.0616743 -0.00114331
v -0.326163 0.0616743 -0.00130591
v -0.151467 0.0755686 -0.000816169
v -0.237012 0.0617558 0.00491937
f 1 68 2
f 1 2 3
f 1 3 10
f 1 10 21
f 1 21 20
f 1 20 69
f 1 69 74
f 1 74 68
f 68 4 5
f 68 5 2
f 2 5 6
f 2 6 7
f 2 7 8
f 2 8 9
f 2 9 10
f 2 10 3
f 4 25 5
f 5 25 11
f 5 11 12
f 5 12 13
f 5 13 14
f 5 14 15
f 5 15 16
f 5 16 6
f 6 16 7
f 7 16 17
f 7 17 18
f 7 18 8
f 8 18 19
f 8 19 9
f 9 19 42
f 9 42 20
f 9 20 21
f 9 21 10
f 68 22 4
f 4 44 23
f 4 23 25
f 4 22 44
f 25 23 24
f 25 24 26
f 25 26 11
f 11 26 27
f 11 27 28
f 11 28 29
f 11 29 30
f 11 30 31
f 11 31 32
f 11 32 12
f 12 32 31
f 12 31 33
f 12 33 34
f 12 34 35
f 12 35 13
f 13 35 36
f 13 36 14
f 14 36 37
f 14 37 38
f 14 38 15
f 15 38 39
f 15 39 40
f 15 40 16
f 16 40 41
f 16 41 17
f 17 41 19
f 17 19 18
f 19 41 42
f 20 42 69
f 22 68 43
f 22 43 67
f 22 67 72
f 22 72 69
f 22 69 45
f 22 45 44
f 23 44 45
f 23 45 46
f 23 46 47
f 23 47 48
f 23 48 49
f 23 49 24
f 24 49 50
f 24 50 51
f 24 51 52
f 24 52 53
f 24 53 26
f 26 53 54
f 26 54 55
f 26 55 56
f 26 56 57
f 26 57 58
f 26 58 28
f 26 28 27
f 28 58 57
f 28 57 59
f 28 59 29
f 29 59 30
f 30 59 31
f 31 59 57
f 31 57 42
f 31 42 41
f 31 41 60
f 31 60 61
f 31 61 62
f 31 62 34
f 31 34 33
f 34 62 63
f 34 63 35
f 35 63 36
f 36 63 62
f 36 62 37
f 37 62 61
f 37 61 38
f 38 61 39
f 39 61 60
f 39 60 41
f 39 41 40
f 68 73 64
f 68 64 43
f 43 65 66
f 43 66 67
f 43 64 65
f 45 69 48
f 45 48 47
f 45 47 46
f 48 55 52
f 48 52 51
f 48 51 50
f 48 50 49
f 48 69 55
f 52 55 53
f 53 55 54
f 55 69 57
f 55 57 56
f 57 69 42
f 73 70 64
f 64 70 71
f 64 71 65
f 65 71 70
f 65 70 74
f 65 74 69
f 65 69 72
f 65 72 67
f 65 67 66
f 73 74 70
f 73 68 74
