v 0.00970137 0.030762 -0.0508036
v -0.0121622 0.030762 -0.0413922
v 0.00731103 0.030762 -0.0549747
v -0.011948 0.030762 -0.059859
v -0.00881875 0.030762 -0.0604465
v -0.0120843 0.030762 -0.0582236
v 0.00257153 0.030762 -0.0487033
v 0.009348 0.030762 -0.059859
v -0.010293 0.030762 -0.0505105
v -0.00881875 0.030762 -0.0457779
v -0.00637675 0.030762 -0.0631738
v -0.00834319 0.030762 -0.0565548
v 0.00660003 0.030762 -0.0594406
v -0.00643375 0.030762 -0.044265
v -0.008318 0.035156 -0.054
v -0.00781 0.035673 -0.054
v -0.00781 0.035673 -0.054
v -0.007751 0.035703 -0.055076
v 0.001327 0.035703 -0.059989
v 0.001787 0.036531 -0.058725
v 0.000333 0.038192 -0.055774
v -0.000476 0.038438 -0.054895
v -0.00034 0.038438 -0.054747
v -0.0025 0.038438 -0.0542
v -0.002451 0.038438 -0.054395
v -0.0013 0.038521 -0.054
v 0.004873 0.035224 -0.057219
v 0.004873 0.035224 -0.057219
v 0.004725 0.035352 -0.057257
v 0.004452 0.035703 -0.057113
v 0.003608 0.036049 -0.057781
v 0.003608 0.036049 -0.057781
v 0.003585 0.036052 -0.057802
v 0.003585 0.036052 -0.057802
v 0.003154 0.036531 -0.057467
v 0.003154 0.036531 -0.057467
v 0.002775 0.035881 -0.058892
v 0.002277 0.035703 -0.059475
v 0.002579 0.035049 -0.059941
v 0.002996 0.036049 -0.058464
v 0.00401 0.035881 -0.057515
v 0.004288 0.035703 -0.057392
v 0.003664 0.036531 -0.056686
v -0.007067 0.03643 -0.054
v -0.002686 0.036531 -0.059472
v -0.001766 0.036531 -0.059625
v 0.002928 0.035997 -0.058595
v 0.002366 0.037229 -0.056853
v 0.002785 0.037229 -0.056211
v -0.002905 0.035703 -0.06034
v 0.001639 0.034763 -0.0607
v 0.005288 0.034763 -0.057182
v -0.00076 0.035703 -0.060518
v -0.000834 0.036531 -0.059625
v -0.000834 0.036531 -0.059625
v -0.000916 0.037229 -0.058629
v 8.6e-05 0.036531 -0.059472
v -0.00016 0.037229 -0.058503
v -0.004762 0.034763 -0.064277
v -0.006075 0.034763 -0.063773
v -0.006075 0.034763 -0.063773
v -0.009511 0.034763 -0.061363
v -0.007316 0.034763 -0.063112
v 0.010046 0.034763 -0.055188
v 0.010046 0.034763 -0.055188
v 0.01019 0.034763 -0.05379
v 2.1e-05 0.034763 -0.058064
v -0.001105 0.034763 -0.058269
v -0.010671 0.030762 -0.038505
v -0.00958 0.030762 -0.035628
v -0.00958 0.030762 -0.035628
v 0.004066 0.030762 -0.059207
v 0.004596 0.030762 -0.058676
v 0.000814 0.030762 -0.065631
v -0.010687 0.030762 -0.061565
v -0.009156 0.030762 -0.063033
v -0.005466 0.030762 -0.065096
v -0.005466 0.030762 -0.065096
v -0.003414 0.030762 -0.065631
v -0.003414 0.030762 -0.065631
v -0.009093 0.034022 -0.034034
v -0.007961 0.035573 -0.038446
v -0.012531 0.033762 -0.034
v -0.005133 0.035188 -0.054
v -0.004617 0.035478 -0.054
v -0.00974 0.033562 -0.035555
v -0.00974 0.033562 -0.035555
v -0.009591 0.033562 -0.035647
v -0.009591 0.033562 -0.035647
v -0.009256 0.033562 -0.035855
v -0.008768 0.033562 -0.036815
v -0.008757 0.033562 -0.036857
v -0.010585 0.033562 -0.038524
v -0.010666 0.033562 -0.038492
v -0.011344 0.033562 -0.035855
v -0.011008 0.033562 -0.035647
v -0.01086 0.033562 -0.035555
v -0.0103 0.033562 -0.03545
v -0.0103 0.033562 -0.03545
v -0.00953 0.034629 -0.0345
v -0.01107 0.034629 -0.0345
v -0.012152 0.034762 -0.034968
v -0.00763 0.034763 -0.036505
v 0.009479 0.033762 -0.059641
v 0.009337 0.033762 -0.059852
v 0.005239 0.033762 -0.063964
v 0.002463 0.033762 -0.065231
v 0.000981 0.033762 -0.065601
v -0.005063 0.033762 -0.065231
v -0.005063 0.033762 -0.065231
v -0.003581 0.033762 -0.065601
v -0.003581 0.033762 -0.065601
v -0.003581 0.033762 -0.065601
v -0.003412 0.033762 -0.065622
v -0.007839 0.033762 -0.063964
v -0.00909 0.033762 -0.063087
v -0.010225 0.033762 -0.062063
v -0.012079 0.033762 -0.059641
v -0.012771 0.033762 -0.058278
v -0.0135 0.033762 -0.055931
v -0.013632 0.033762 -0.055352
v -0.005049 0.035188 -0.054797
v -0.005049 0.035188 -0.054797
v -0.001701 0.035188 -0.057812
v -0.001747 0.034763 -0.05825
v -0.000853 0.034763 -0.05825
v -0.000116 0.035188 -0.057645
v -0.000116 0.035188 -0.057645
v 0.000349 0.035488 -0.056857
v -0.000281 0.035488 -0.057137
v -0.004314 0.035488 -0.055342
v -0.004527 0.035488 -0.054686
v -0.004527 0.035488 -0.054686
v -0.013557 0.034145 -0.055339
v 0.008136 0.034686 -0.060533
v 0.008136 0.034686 -0.060533
v 0.008027 0.034747 -0.060332
v 0.008946 0.034686 -0.059328
v 0.007766 0.034685 -0.060988
v 0.007922 0.034716 -0.060672
v 0.007415 0.03447 -0.061858
v 0.008393 0.03447 -0.060731
v 0.006372 0.034686 -0.062382
v 0.006712 0.034655 -0.062179
v 0.006307 0.03447 -0.062858
v 0.010101 0.034145 -0.058248
v 0.009413 0.034145 -0.059602
v 0.009413 0.034145 -0.059602
v 0.00757 0.034145 -0.06201
v 0.006442 0.034145 -0.063027
v 0.005199 0.034145 -0.063899
v 0.002441 0.034145 -0.065158
v -0.003567 0.034145 -0.065526
v -0.003567 0.034145 -0.065526
v -0.005041 0.034145 -0.065158
v -0.005041 0.034145 -0.065158
v -0.005041 0.034145 -0.065158
v -0.006458 0.034145 -0.064613
v -0.007799 0.034145 -0.063899
v -0.009042 0.034145 -0.063027
v -0.01017 0.034145 -0.06201
v -0.013218 0.034145 -0.05682
v 0.009902 0.03447 -0.058162
v 0.009902 0.03447 -0.058162
v 0.009226 0.03447 -0.059492
v 0.003768 0.03447 -0.064416
v 0.003768 0.03447 -0.064416
v 0.002375 0.03447 -0.064951
v 0.002375 0.03447 -0.064951
v 0.000927 0.03447 -0.065313
v -0.000554 0.03447 -0.065495
v -0.003527 0.03447 -0.065313
v -0.003527 0.03447 -0.065313
v -0.003527 0.03447 -0.065313
v -0.004975 0.03447 -0.064951
v -0.004975 0.03447 -0.064951
v -0.004975 0.03447 -0.064951
v -0.006368 0.03447 -0.064416
v -0.007686 0.03447 -0.063715
v -0.008907 0.03447 -0.062858
v -0.008907 0.03447 -0.062858
v -0.012502 0.03447 -0.058162
v -0.01301 0.03447 -0.056758
v -0.01301 0.03447 -0.056758
v 0.010423 0.034686 -0.055251
v 0.010423 0.034686 -0.055251
v 0.010099 0.034686 -0.056667
v -0.013497 0.03447 -0.053819
v -0.01328 0.034614 -0.05381
v -0.01328 0.034614 -0.05381
v 0.003634 0.034686 -0.064121
v 0.002278 0.034686 -0.064642
v 0.000868 0.034686 -0.064994
v -0.002026 0.034686 -0.065171
v -0.003468 0.034686 -0.064994
v -0.003468 0.034686 -0.064994
v -0.004878 0.034686 -0.064642
v -0.006234 0.034686 -0.064121
v -0.007516 0.034686 -0.063438
v -0.007516 0.034686 -0.063438
v -0.009784 0.034686 -0.061631
v -0.010736 0.034686 -0.060533
v -0.012204 0.034686 -0.058033
v -0.012699 0.034686 -0.056667
v -0.014236 0.03447 -0.036071
v -0.014236 0.03447 -0.036071
v -0.01402 0.034614 -0.036062
v -0.014194 0.03447 -0.035616
v -0.014032 0.03447 -0.035188
v -0.013878 0.034686 -0.035689
v -0.012531 0.034145 -0.034076
v 0.004076 0.033462 -0.059215
v 0.004344 0.033462 -0.058861
v 0.004344 0.033462 -0.058861
v 0.004798 0.033462 -0.05858
v 0.003622 0.034763 -0.057805
v 0.004328 0.034763 -0.057368
v 0.003025 0.034763 -0.058487
v 0.003025 0.034763 -0.058487
v 0.004413 0.034763 -0.057351
v 0.004413 0.034763 -0.057351
f 12 11 5
f 5 11 6
f 14 9 10
f 10 9 2
f 6 12 5
f 13 3 1
f 3 13 7
f 7 1 3
f 10 2 14
f 15 16 18
f 21 22 23
f 25 24 26
f 28 29 30
f 32 34 36
f 42 41 43
f 49 35 48
f 50 45 46
f 39 51 19
f 38 20 37
f 57 53 55
f 58 54 56
f 82 44 17
f 87 88 71
f 70 89 90
f 93 94 69
f 100 86 99
f 101 98 97
f 102 96 95
f 91 103 92
f 8 105 104
f 107 74 108
f 77 110 112
f 78 113 80
f 79 111 114
f 75 117 76
f 118 4 119
f 85 84 123
f 124 125 68
f 127 126 67
f 128 129 130
f 122 131 132
f 123 133 85
f 135 137 138
f 139 140 136
f 143 144 145
f 150 106 151
f 154 109 156
f 159 115 116
f 134 120 121
f 163 146 147
f 164 148 165
f 142 149 141
f 166 152 168
f 173 153 157
f 172 155 175
f 176 158 178
f 181 160 161
f 182 162 184
f 191 167 169
f 191 169 192
f 193 170 171
f 194 174 196
f 195 177 197
f 200 179 180
f 203 183 204
f 187 65 185
f 186 64 66
f 59 198 61
f 60 199 63
f 62 201 202
f 188 205 190
f 189 206 207
f 210 208 209
f 81 211 83
f 72 214 73
f 219 213 212
f 217 220 215
f 221 27 52
f 31 216 33
f 40 218 47
