v 0.021285 -0.025675 -0.0045
v 0.021675 -0.025675 -0.004
v 0.021151 -0.025675 -0.004
v -0.019419 -0.025675 -0.005
v -0.021675 0.025675 -0.009
v 0.021675 0.025675 -0.005564
v -0.018608 0.025675 -0.004
v -0.018608 0.025675 -0.004
v -0.025475 -0.0204 -0.00275
v -0.025475 -0.0204 -0.00275
v -0.025494 -0.020855 -0.00281
v -0.025613 -0.021675 -0.003301
v -0.025655 -0.022077 -0.004
v -0.02565 -0.021916 -0.003625
v -0.02565 -0.021916 -0.003625
v -0.021285 -0.02215 -0.0045
v -0.025653 -0.022091 -0.004953
v -0.025653 -0.022091 -0.004953
v -0.021251 -0.022131 -0.004761
v -0.021251 -0.022131 -0.004761
v -0.025668 -0.021916 -0.005375
v -0.025668 -0.021916 -0.005375
v -0.021151 -0.022077 -0.005
v -0.020785 -0.021921 -0.005366
v -0.019419 -0.022077 -0.004
v -0.0135 -0.021916 -0.003625
v -0.01932 -0.022131 -0.004761
v -0.019285 -0.02215 -0.0045
v -0.01932 -0.022131 -0.004239
v -0.025675 -0.018723 -0.004
v -0.02565 0.021916 -0.003625
v -0.02565 0.021916 -0.003625
v -0.021976 0.022091 -0.004047
v -0.021976 0.022091 -0.004047
v -0.025655 0.022077 -0.004
v -0.025655 0.022077 -0.004
v -0.025655 0.022077 -0.004
v -0.022035 0.02215 -0.0045
v -0.025657 0.018885 -0.003625
v -0.025606 0.019163 -0.003262
v -0.025494 0.019947 -0.00281
v -0.025494 0.019947 -0.00281
v -0.025475 0.0204 -0.00275
v -0.025475 0.0204 -0.00275
v -0.025494 0.020854 -0.00281
v 0.025675 0.018723 -0.004
v 0.02565 -0.021916 -0.003625
v 0.02565 -0.021916 -0.003625
v 0.020785 -0.021921 -0.003634
v 0.021151 -0.022077 -0.004
v 0.021251 -0.022131 -0.004239
v 0.025655 -0.022077 -0.004
v 0.025494 -0.019947 -0.00281
v 0.025494 -0.019947 -0.00281
v 0.025475 -0.0204 -0.00275
v 0.025657 -0.018885 -0.003625
v 0.025606 -0.019163 -0.003262
v 0.025475 0.0204 -0.00275
v 0.025475 0.0204 -0.00275
v 0.025494 0.020855 -0.00281
v 0.025655 0.022077 -0.004
v 0.025655 0.022077 -0.004
v 0.021976 0.022091 -0.004047
v 0.02565 0.021916 -0.003625
v 0.02565 0.021916 -0.003625
v 0.02565 0.021916 -0.003625
v 0.025613 0.021675 -0.003301
v 0.021801 0.021916 -0.005375
v 0.021976 0.022091 -0.004953
v -0.021801 0.025673 -0.005375
v -0.021801 0.025673 -0.005375
v -0.022035 0.025659 -0.0045
v -0.021962 0.025665 -0.004
v -0.021777 0.025646 -0.003637
v -0.021675 0.025635 -0.003436
v -0.02116 0.025544 -0.002984
v -0.02116 0.025544 -0.002984
v -0.02116 0.025544 -0.002984
v -0.02074 0.025494 -0.00281
v -0.020285 0.025475 -0.00275
v -0.01877 0.025657 -0.003625
v -0.01877 0.025657 -0.003625
v -0.019048 0.025606 -0.003263
v 0.02116 0.025544 -0.002984
v 0.021976 0.025664 -0.004952
v 0.021976 0.025664 -0.004952
v 0.021774 0.025671 -0.005362
v 0.021774 0.025671 -0.005362
v 0.021774 0.025671 -0.005362
v 0.021774 0.025671 -0.005362
v 0.019048 0.025606 -0.003262
v 0.01941 0.025544 -0.002984
v 0.019832 0.025494 -0.00281
v 0.019832 0.025494 -0.00281
v 0.019832 0.025494 -0.00281
v -0.025539 -0.02271 -0.004
v -0.023675 -0.025139 -0.004
v -0.023193 -0.025339 -0.009
v 0.025339 -0.023193 -0.004
v 0.025539 -0.02271 -0.004
v 0.023193 -0.025339 -0.004
v 0.02271 -0.025539 -0.004
v 0.025539 0.02271 -0.004
v 0.02271 0.025539 -0.009
v 0.023193 0.025339 -0.004
v 0.023193 0.025339 -0.004
v 0.023193 0.025339 -0.004
v 0.02271 0.025539 -0.004
v 0.023675 0.025139 -0.004
v -0.02271 0.025539 -0.004
v -0.02271 0.025539 -0.004
v -0.023193 0.025339 -0.004
v -0.023193 0.025339 -0.009
v -0.02271 0.025539 -0.009
v -0.02271 0.025539 -0.009
v -0.025339 0.023193 -0.004
v -0.025539 0.02271 -0.004
v -0.023193 0.025339 -0.009
v 0.021675 -0.025539 -0.002965
v 0.023607 -0.025021 -0.002965
v 0.025407 -0.022675 -0.002965
v 0.025407 -0.022675 -0.002965
v 0.022407 -0.024407 -0.001172
v 0.023407 -0.024675 -0.002
v 0.023089 -0.024124 -0.001172
v 0.022675 -0.025407 -0.002965
v 0.022675 -0.025407 -0.002965
v -0.025407 -0.022675 -0.002965
v -0.023607 -0.022193 -0.000536
v -0.024407 -0.022407 -0.001172
v -0.024407 -0.022407 -0.001172
v -0.025021 -0.022572 -0.002
v -0.025339 -0.021675 -0.002482
v -0.025339 -0.021675 -0.002482
v -0.025339 -0.021675 -0.002482
v -0.023607 -0.025021 -0.002965
v -0.023089 -0.023089 -0.000536
v -0.023675 -0.023675 -0.001172
v -0.024407 -0.024407 -0.002965
v -0.024675 -0.023407 -0.002
v -0.024124 -0.023089 -0.001172
v -0.023407 -0.022675 -0.000536
v 0.025339 0.021675 -0.002482
v 0.025339 0.021675 -0.002482
v 0.025339 0.021675 -0.002482
v -0.025339 0.021675 -0.002482
v -0.025139 0.021675 -0.002
v 0.025407 0.022675 -0.002965
v 0.022675 0.025407 -0.002965
v 0.023607 0.022193 -0.000536
v 0.024407 0.022407 -0.001172
v 0.024407 0.022407 -0.001172
v 0.025021 0.022572 -0.002
v 0.021675 0.025339 -0.002482
v 0.021675 0.025539 -0.002965
v 0.023607 0.025021 -0.002965
v 0.023607 0.025021 -0.002965
v 0.023089 0.023089 -0.000536
v 0.023675 0.023675 -0.001172
v 0.024407 0.024407 -0.002965
v 0.024675 0.023407 -0.002
v 0.024124 0.023089 -0.001172
v 0.023407 0.022675 -0.000536
v -0.025407 0.022675 -0.002965
v -0.025407 0.022675 -0.002965
v -0.021675 0.023675 -0.000536
v -0.022407 0.024407 -0.001172
v -0.022407 0.024407 -0.001172
v -0.022407 0.024407 -0.001172
v -0.021675 0.024503 -0.001172
v -0.022572 0.025021 -0.002
v -0.024407 0.022407 -0.001172
v -0.025021 0.022572 -0.002
v -0.021675 0.025339 -0.002482
v -0.021675 0.025339 -0.002482
v -0.021675 0.025339 -0.002482
v -0.021675 0.025539 -0.002965
v -0.021675 0.025539 -0.002965
v -0.023407 0.024675 -0.002
v -0.023407 0.024675 -0.002
v -0.023089 0.024124 -0.001172
v -0.023607 -0.025021 -0.010035
v -0.023607 -0.025021 -0.010035
v -0.022193 -0.023607 -0.012464
v -0.021675 -0.023193 -0.012664
v -0.021675 -0.023675 -0.012464
v -0.022572 -0.025021 -0.011
v -0.023607 -0.022193 -0.012464
v -0.024407 -0.022407 -0.011828
v -0.024407 -0.022407 -0.011828
v -0.025021 -0.022572 -0.011
v -0.025021 -0.022572 -0.011
v -0.024675 -0.023407 -0.011
v -0.024124 -0.023089 -0.011828
v -0.024124 -0.023089 -0.011828
v -0.023407 -0.022675 -0.012464
v -0.023089 -0.023089 -0.012464
v -0.022675 -0.023407 -0.012464
v -0.022193 -0.022572 -0.012864
v -0.022675 -0.025407 -0.010035
v -0.022675 -0.025407 -0.010035
v 0.021675 -0.023675 -0.012464
v 0.021675 -0.023193 -0.012664
v -0.022675 0.025407 -0.010035
v -0.021675 0.023193 -0.012664
v -0.023607 0.022193 -0.012464
v -0.024407 0.022407 -0.011828
v -0.021675 0.023675 -0.012464
v -0.022193 0.023607 -0.012464
v -0.022193 0.023607 -0.012464
v -0.022407 0.024407 -0.011828
v -0.022407 0.024407 -0.011828
v -0.023607 0.025021 -0.010035
v -0.023407 0.024675 -0.011
v -0.023089 0.024124 -0.011828
v -0.023089 0.024124 -0.011828
v -0.022675 0.023407 -0.012464
v -0.022675 0.023407 -0.012464
v -0.022675 0.023407 -0.012464
v -0.023089 0.023089 -0.012464
v -0.023675 0.023675 -0.011828
v -0.023675 0.023675 -0.011828
v -0.023675 0.023675 -0.011828
v -0.024124 0.024124 -0.011
v -0.024124 0.023089 -0.011828
v -0.024124 0.023089 -0.011828
v -0.023407 0.022675 -0.012464
v -0.023407 0.022675 -0.012464
v 0.023607 -0.022193 -0.012464
v 0.024407 -0.022407 -0.011828
v 0.022193 -0.023607 -0.012464
v 0.022193 -0.023607 -0.012464
v 0.022407 -0.024407 -0.011828
v 0.022407 -0.024407 -0.011828
v 0.023407 -0.024675 -0.011
v 0.023089 -0.024124 -0.011828
v 0.023089 -0.024124 -0.011828
v 0.022675 -0.023407 -0.012464
v 0.022675 -0.023407 -0.012464
v 0.022675 -0.023407 -0.012464
v 0.023089 -0.023089 -0.012464
v 0.023675 -0.023675 -0.011828
v 0.023675 -0.023675 -0.011828
v 0.023675 -0.023675 -0.011828
v 0.024124 -0.024124 -0.011
v 0.024124 -0.023089 -0.011828
v 0.024124 -0.023089 -0.011828
v 0.023407 -0.022675 -0.012464
v 0.023407 -0.022675 -0.012464
v 0.021675 0.023675 -0.012464
v 0.021675 0.023193 -0.012664
v 0.023607 0.025021 -0.010035
v 0.022193 0.023607 -0.012464
v 0.022572 0.025021 -0.011
v 0.023607 0.022193 -0.012464
v 0.024407 0.022407 -0.011828
v 0.024407 0.022407 -0.011828
v 0.025021 0.022572 -0.011
v 0.025021 0.022572 -0.011
v 0.024675 0.023407 -0.011
v 0.024124 0.023089 -0.011828
v 0.024124 0.023089 -0.011828
v 0.023407 0.022675 -0.012464
v 0.023089 0.023089 -0.012464
v 0.022675 0.023407 -0.012464
v 0.022193 0.022572 -0.012864
v 0.022675 0.025407 -0.010035
f 18 16 20
f 17 19 22
f 23 24 21
f 26 29 25
f 34 32 35
f 33 37 38
f 49 48 50
f 63 61 65
f 69 86 89
f 68 90 6
f 3 51 1
f 4 28 27
f 104 88 106
f 87 85 105
f 110 72 112
f 70 5 115
f 71 114 113
f 99 100 122
f 121 52 47
f 127 101 120
f 123 124 125
f 126 119 102
f 102 119 2
f 13 96 15
f 14 128 12
f 136 139 97
f 142 138 137
f 132 140 131
f 130 141 129
f 46 57 56
f 54 59 145
f 53 144 55
f 58 60 143
f 30 40 39
f 41 10 133
f 42 134 44
f 9 11 135
f 45 43 146
f 62 103 64
f 66 148 67
f 107 108 149
f 157 107 149
f 156 160 109
f 163 159 158
f 153 161 152
f 151 162 150
f 73 111 74
f 116 117 165
f 164 36 31
f 167 166 170
f 147 172 173
f 171 180 168
f 169 179 181
f 84 154 155
f 93 7 82
f 95 81 83
f 92 91 8
f 94 80 174
f 176 79 77
f 175 78 178
f 177 76 75
f 184 185 186
f 193 192 195
f 194 191 190
f 196 189 188
f 198 197 199
f 201 98 183
f 200 182 187
f 213 118 204
f 215 211 218
f 219 212 209
f 217 220 216
f 216 220 221
f 214 222 224
f 226 223 228
f 208 205 210
f 207 225 206
f 206 225 227
f 237 233 239
f 240 234 231
f 238 241 236
f 236 241 242
f 235 244 245
f 246 243 249
f 202 203 232
f 230 247 229
f 229 247 248
f 253 251 250
f 260 259 262
f 261 258 257
f 263 256 255
f 265 264 266
f 267 252 254
