v -0.019226 0.069833 0.039944
v -0.027194 0.0655255 0.040116
v -0.027194 0.0644 0.039944
v -0.017113 0.0768365 0.0334953
v -0.017113 0.0782318 0.0303385
v -0.017113 0.0798 0.0314075
v -0.017113 0.0802075 0.0300907
v -0.017113 0.0805488 0.0282862
v -0.019226 0.0691585 0.0133092
v -0.027194 0.069833 0.01342
v -0.019226 0.068707 0.040116
v -0.017113 0.054886 0.0324625
v -0.017113 0.054216 0.0307528
v -0.017113 0.053628 0.02783
v -0.017113 0.053597 0.027371
v -0.017113 0.053581 0.026912
v -0.017113 0.0541428 0.0262507
v -0.019226 0.0644 0.01342
v -0.019226 0.0655255 0.013248
v -0.019226 0.0668885 0.013148
v -0.019226 0.0687025 0.013148
v -0.019226 0.068027 0.013175
v -0.027194 0.0650743 0.0133092
v -0.027194 0.066205 0.013175
v -0.027194 0.0655305 0.013148
v -0.027194 0.067344 0.013148
v -0.027194 0.068707 0.013248
v -0.020056 0.0783604 0.027639
v -0.020056 0.0763822 0.0281938
v -0.020056 0.0770601 0.0320173
v -0.020056 0.0757945 0.0339363
v -0.020056 0.074375 0.0309927
v -0.020056 0.0701224 0.0310503
v -0.020056 0.071155 0.0372472
v -0.020056 0.0696867 0.0376965
v -0.020056 0.0681713 0.0379435
v -0.020056 0.0666363 0.0379822
v -0.020056 0.0654885 0.0378815
v -0.020056 0.064732 0.0377455
v -0.020056 0.0639865 0.037558
v -0.020056 0.0632555 0.0373205
v -0.020056 0.0625425 0.0370335
v -0.020056 0.0618505 0.0366995
v -0.020056 0.0611825 0.036319
v -0.020056 0.0605425 0.035894
v -0.020056 0.0599325 0.035426
v -0.020056 0.059355 0.0349185
v -0.020056 0.058814 0.034373
v -0.020056 0.058311 0.0337915
v -0.020056 0.057849 0.0331775
v -0.020056 0.0574295 0.0325335
v -0.020056 0.0570545 0.0318625
v -0.020056 0.056726 0.0311675
v -0.020056 0.056446 0.030452
v -0.020056 0.0562145 0.029719
v -0.020056 0.056033 0.028972
v -0.020056 0.055903 0.0282145
v -0.020056 0.055825 0.02745
v -0.020056 0.05589 0.0255343
v -0.020056 0.0639173 0.0168953
v -0.020056 0.0566102 0.0225634
v -0.020056 0.0581009 0.0198952
v -0.020056 0.0602531 0.0177242
v -0.020056 0.0629087 0.016211
v -0.020056 0.066636 0.015375
v -0.020056 0.0674045 0.015368
v -0.020056 0.0681715 0.015414
v -0.020056 0.0689345 0.0155115
v -0.020056 0.069688 0.0156605
v -0.020056 0.0704305 0.0158605
v -0.020056 0.0711575 0.0161105
v -0.020056 0.0718655 0.0164095
v -0.020056 0.0725515 0.0167555
v -0.020056 0.073213 0.0171475
v -0.020056 0.073846 0.017583
v -0.020056 0.075548 0.019133
v -0.020056 0.076041 0.0197225
v -0.020056 0.0764925 0.0203445
v -0.020056 0.0769015 0.0209955
v -0.020056 0.077265 0.0216725
v -0.020056 0.0775815 0.022373
v -0.020056 0.07785 0.0230935
v -0.020056 0.0780685 0.02383
v -0.020056 0.0782365 0.02458
v -0.020056 0.078354 0.02534
v -0.020056 0.078409 0.025914
v -0.017113 0.078823 0.0307017
v -0.017113 0.0798141 0.0265475
v -0.017113 0.055799 0.02649
v -0.017113 0.0542158 0.0290998
v -0.017113 0.0559429 0.0292758
v -0.017113 0.056452 0.0304497
v -0.017113 0.0571711 0.0325941
v -0.017113 0.0770832 0.0320295
v -0.017113 0.0777158 0.0306305
v -0.017113 0.0785405 0.0307575
v -0.017113 0.078409 0.02745
v -0.011499 0.068837 0.021837
v -0.017204 0.068837 0.021837
v -0.0116575 0.0705605 0.021837
v -0.0119919 0.0709512 0.021837
v -0.0124517 0.070232 0.021837
v -0.017204 0.071553 0.021837
v -0.0131704 0.0702378 0.021837
v -0.0131495 0.0703244 0.021837
v -0.0130965 0.0704171 0.021837
v -0.0130279 0.0704849 0.021837
v -0.0129608 0.0705246 0.021837
v -0.0125641 0.0699324 0.021837
v -0.012606 0.069897 0.021837
v -0.0129383 0.069856 0.021837
v -0.0130362 0.0699121 0.021837
v -0.0131039 0.0699827 0.021837
v -0.0131365 0.0700345 0.021837
v -0.0131578 0.0700923 0.021837
v -0.0131715 0.070152 0.021837
v -0.0131735 0.070177 0.021837
v -0.0121722 0.0693359 0.021385
v -0.017204 0.068837 0.021385
v -0.017204 0.0671165 0.021385
v -0.0116583 0.0698147 0.021385
v -0.0124524 0.0702349 0.021385
v -0.010865 0.07092 0.021385
v -0.012546 0.0699495 0.021385
v -0.017204 0.071553 0.021385
v -0.0131704 0.0701524 0.021385
v -0.0125714 0.0707901 0.021385
v -0.0131495 0.0700661 0.021385
v -0.0131176 0.0700029 0.021385
v -0.013086 0.069958 0.021385
v -0.0129406 0.0698581 0.021385
v -0.0124757 0.0703267 0.021385
v -0.012502 0.0703825 0.021385
v -0.012546 0.0704415 0.021385
v -0.0130154 0.0704937 0.021385
v -0.0131733 0.0702165 0.021385
v -0.011499 0.062679 0.021837
v -0.0129852 0.0637209 0.021837
v -0.017204 0.062679 0.021837
v -0.017204 0.062679 0.021837
v -0.0120561 0.0638195 0.021837
v -0.01245 0.0640283 0.021837
v -0.011499 0.065396 0.021837
v -0.0116583 0.0644183 0.021837
v -0.017204 0.0649433 0.0244858
v -0.0151054 0.0648691 0.021837
v -0.012941 0.064376 0.021837
v -0.0131735 0.064053 0.021837
v -0.012456 0.064105 0.021837
v -0.0130639 0.0637793 0.021837
v -0.0131115 0.063835 0.021837
v -0.0131715 0.0640007 0.021837
v -0.0122977 0.0635007 0.021385
v -0.017204 0.062679 0.021385
v -0.0116575 0.063672 0.021385
v -0.0124524 0.0640776 0.021385
v -0.0116805 0.0644881 0.021385
v -0.0129295 0.063695 0.021385
v -0.017204 0.065396 0.021385
v -0.0131717 0.0640008 0.021385
v -0.0121539 0.0648979 0.021385
v -0.0129661 0.0643646 0.021385
v -0.0131239 0.0638563 0.021385
v -0.0130639 0.0637793 0.021385
v -0.0129852 0.0637209 0.021385
v -0.012546 0.0642835 0.021385
v -0.013111 0.0642398 0.021385
v -0.0131415 0.0641865 0.021385
v -0.0131612 0.0641287 0.021385
v -0.0131733 0.064059 0.021385
v -0.027194 0.0656443 0.0402172
v -0.019226 0.0685885 0.0402172
v -0.019226 0.069833 0.040219
v -0.0224595 0.065079 0.041351
v -0.025693 0.069833 0.042483
v -0.019226 0.0644 0.013144
v -0.0264435 0.065079 0.0120125
v -0.025693 0.069833 0.010881
v -0.027194 0.069833 0.013144
v -0.027194 0.069833 0.013144
v -0.017204 0.074089 0.020932
v -0.017204 0.0614115 0.0211585
v -0.017204 0.072187 0.0242598
f 29 30 31
f 33 34 35
f 35 36 33
f 33 36 37
f 33 37 38
f 33 38 39
f 39 40 33
f 33 40 41
f 33 41 42
f 42 43 33
f 33 43 44
f 33 44 45
f 45 46 33
f 33 46 47
f 33 47 48
f 48 49 33
f 33 49 50
f 33 50 51
f 51 52 33
f 33 52 53
f 33 53 54
f 54 55 33
f 33 55 56
f 33 56 57
f 57 58 33
f 33 58 59
f 33 59 60
f 60 59 61
f 61 62 60
f 60 62 63
f 60 63 64
f 60 65 66
f 60 66 33
f 33 66 67
f 33 67 68
f 68 69 33
f 33 69 70
f 33 70 71
f 71 72 33
f 33 72 73
f 33 73 74
f 74 75 33
f 33 75 32
f 76 77 29
f 29 77 78
f 29 78 79
f 79 80 29
f 29 80 81
f 29 81 82
f 82 83 29
f 29 83 84
f 29 84 85
f 85 86 29
f 29 86 28
f 88 8 87
f 87 8 7
f 87 7 6
f 93 91 92
f 12 13 90
f 14 15 90
f 90 15 16
f 90 16 17
f 17 89 90
f 4 94 5
f 5 94 95
f 97 87 96
f 98 111 99
f 101 102 100
f 103 108 101
f 99 104 103
f 103 104 105
f 106 107 103
f 109 110 98
f 99 112 113
f 113 114 99
f 99 115 116
f 99 117 104
f 121 122 123
f 118 124 121
f 119 131 118
f 125 126 119
f 123 134 127
f 119 126 128
f 129 130 119
f 132 133 123
f 125 127 135
f 136 126 125
f 137 138 139
f 144 142 141
f 146 147 143
f 139 148 146
f 143 149 144
f 139 138 150
f 139 150 151
f 139 152 148
f 155 156 157
f 154 158 153
f 159 160 154
f 161 162 159
f 157 166 161
f 154 163 164
f 154 164 165
f 165 158 154
f 159 167 168
f 169 170 159
f 170 160 159
f 171 2 3
f 172 11 1
f 175 174 173
f 176 20 19
f 176 19 18
f 23 24 25
f 9 22 21
f 178 177 179
f 180 26 27
f 180 27 10
f 181 120 182
f 181 183 120
f 140 145 182
