v -0.313252 -0.0171058 0.0765398
v -0.313297 -0.0171058 0.0755503
v -0.314702 -0.028768 0.0603047
v -0.313349 -0.0171058 0.0746208
v -0.314644 -0.0272451 0.0603047
v -0.314555 -0.0248764 0.0603047
v -0.31448 -0.0225088 0.0603047
v -0.314425 -0.0201401 0.0603047
v -0.314375 -0.0177702 0.0603047
v -0.314364 -0.0171058 0.0603047
v -0.332646 -0.0275036 0.0881599
f 1 2 4
f 1 4 10
f 1 10 11
f 1 11 3
f 1 3 2
f 2 3 4
f 3 11 10
f 3 10 9
f 3 9 8
f 3 8 7
f 3 7 6
f 3 6 5
f 3 5 4
f 4 5 6
f 4 6 7
f 4 7 8
f 4 8 9
f 4 9 10
