v -0.168975 -0.011525 0.004746
v -0.168861 -0.010936 0.004748
v -0.169897 -0.0114374 0.00440894
v -0.145363 -0.014901 -0.0080095
v -0.145455 -0.014604 0.004991
v -0.14554 -0.015198 0.00499
v -0.137629 -0.011605 -0.010264
v -0.147953 0.00314 -0.010371
v -0.14726 0.002967 -0.012672
v -0.147443 0.003218 -0.012646
v -0.137102 -0.011789 -0.011866
v -0.140625 -0.013575 0.007375
v -0.140689 -0.014147 0.009252
v -0.141284 -0.013435 0.009632
v -0.150949 0.00117 0.007268
v -0.150593 -0.000195 0.009695
v -0.14198 -0.012497 0.009784
v -0.151207 0.000832305 0.00927173
v -0.151349 0.001438 0.008122
v -0.147866 0.003727 -0.012379
v -0.161436 -0.00668454 0.00939448
v -0.176481 -0.015657 -0.013332
v -0.152939 -0.009593 -0.013074
v -0.158737 -0.00976028 -0.0101125
v -0.153617 -0.0116632 0.00823643
v -0.182855 -0.017712 -0.0106185
v -0.153308 -0.01091 -0.012506
v -0.177559 -0.0172044 -0.0128423
v -0.176181 -0.016792 -0.012947
v -0.153103 -0.010184 -0.012938
v -0.176322 -0.016254 -0.013233
v -0.178535 -0.0180071 0.00834556
v -0.176292 -0.01722 0.008846
v -0.176352 -0.017006 0.009067
v -0.177771 -0.016673 -0.0131499
v -0.17821 -0.0167923 0.00943606
v -0.176411 -0.016792 0.009288
v -0.153339 -0.010184 0.009757
v -0.153535 -0.01091 0.009321
v -0.153564 -0.011006 0.00929043
v -0.153638 -0.011301 0.008849
v -0.153662 -0.011394 0.008671
v -0.152532 -0.01089 -0.013558
v -0.15338 -0.0112501 -0.0124376
v -0.15367 -0.0114273 0.00869506
v -0.153013 -0.00984762 0.0104498
v -0.142564 -0.01438 -0.011846
v -0.143316 -0.0143357 0.00882828
v -0.140635 -0.014481 0.008469
v -0.140686 -0.014479 0.00924
v -0.140714 -0.0144902 0.00942259
v -0.151765 0.001513 0.008076
v -0.151576 0.001565 0.008111
v -0.151674 0.00155525 0.00809523
v -0.151656 0.001248 0.008895
v -0.151693 0.001546 0.008091
v -0.151479 0.001542 0.00812
v -0.151544 0.001557 0.008114
v -0.151536 0.001265 0.008885
v -0.151355 0.001446 0.008122
v -0.151422 0.00124 0.008851
v -0.151394 0.00148702 0.00812413
v -0.151255 0.000570133 0.00963465
v -0.151125 0.000579 0.009544
v -0.150729 -0.000289 0.009902
v -0.150624 -0.000216 0.009791
v -0.150643 -0.000229 0.009816
v -0.15068 -0.000255 0.009868
v -0.148151 0.003862 -0.01255
v -0.148173 0.00386 -0.012559
v -0.148087 0.00387 -0.012524
v -0.147942 0.003813 -0.012441
v -0.147958 0.003823 -0.012451
v -0.148003 0.00385115 -0.0124799
v -0.147913 0.00379122 -0.0124152
v -0.142011 -0.012519 0.00988
v -0.142029 -0.012531 0.009906
v -0.142066 -0.012557 0.009958
v -0.142116 -0.012591 0.009991
v -0.147459 0.003235 -0.012777
v -0.147261 0.002965 -0.012803
v -0.147309 0.002931 -0.01292
v -0.148102 0.00372908 -0.0128523
v -0.141306 -0.013491 0.009744
v -0.140653 -0.014261 0.009311
v -0.140688 -0.01415 0.009254
v -0.141625 -0.0133741 0.00995369
v -0.149488 -0.00736481 -0.0145474
v -0.137433 -0.011173 -0.012818
v -0.137386 -0.011139 -0.0127
v -0.137051 -0.012012 -0.011883
v -0.137091 -0.01212 -0.011902
v -0.137054 -0.011895 -0.01187
v -0.137249 -0.0126604 -0.0128551
v -0.148113 0.003028 -0.010411
v -0.137789 -0.011717 -0.010303
v -0.140786 -0.013687 0.007336
v -0.15111 0.001058 0.007228
f 3 2 4
f 4 2 5
f 4 6 1
f 4 1 3
f 2 3 1
f 2 1 5
f 5 1 6
f 7 94 8
f 8 94 9
f 8 9 10
f 94 7 11
f 11 7 12
f 11 12 13
f 13 12 14
f 15 16 12
f 12 16 17
f 12 17 14
f 18 16 15
f 18 15 19
f 19 15 8
f 19 8 20
f 20 8 10
f 88 22 24
f 83 88 24
f 22 26 24
f 36 21 26
f 24 25 26
f 24 26 21
f 24 26 44
f 44 28 27
f 27 28 29
f 27 29 30
f 29 35 30
f 30 35 31
f 30 31 23
f 23 31 22
f 23 22 88
f 26 25 32
f 26 28 44
f 32 33 34
f 32 34 36
f 28 35 29
f 28 26 35
f 26 22 35
f 35 22 31
f 36 26 32
f 34 37 36
f 36 46 21
f 46 36 38
f 38 36 37
f 38 37 39
f 39 37 34
f 39 34 40
f 40 34 41
f 41 34 33
f 41 33 42
f 25 42 32
f 32 42 33
f 23 88 30
f 30 88 43
f 30 43 27
f 27 43 44
f 25 45 42
f 40 46 38
f 38 39 40
f 45 40 41
f 45 41 42
f 47 51 48
f 47 94 49
f 47 49 51
f 51 49 50
f 83 21 52
f 44 43 94
f 47 24 44
f 47 44 94
f 43 88 94
f 45 48 40
f 40 48 46
f 46 48 51
f 25 48 45
f 24 21 83
f 24 47 48
f 25 24 48
f 53 54 55
f 55 54 56
f 55 56 52
f 57 58 59
f 19 60 61
f 60 62 61
f 58 53 59
f 59 53 55
f 59 55 63
f 63 55 21
f 52 21 55
f 63 64 61
f 19 61 18
f 18 61 64
f 21 65 63
f 59 63 61
f 59 61 57
f 57 61 62
f 16 18 66
f 66 18 64
f 66 64 67
f 67 64 63
f 67 63 68
f 68 63 65
f 54 69 56
f 56 69 70
f 56 70 52
f 52 70 83
f 69 54 53
f 69 53 71
f 71 53 58
f 71 58 74
f 62 72 57
f 57 72 73
f 57 73 58
f 58 73 74
f 19 20 60
f 60 20 75
f 72 62 60
f 72 60 75
f 17 16 76
f 76 16 66
f 76 66 77
f 77 66 67
f 77 67 78
f 78 67 68
f 78 68 79
f 79 68 65
f 79 65 87
f 87 65 21
f 80 73 72
f 20 10 75
f 75 10 80
f 75 80 72
f 73 80 74
f 74 80 83
f 83 70 69
f 83 69 71
f 83 71 74
f 10 9 80
f 80 9 81
f 80 81 83
f 83 81 82
f 84 14 17
f 84 51 85
f 13 14 86
f 86 14 84
f 86 84 85
f 51 84 87
f 87 46 51
f 21 46 87
f 17 76 84
f 84 76 77
f 84 77 87
f 87 77 78
f 87 78 79
f 88 83 82
f 88 82 89
f 89 82 81
f 89 81 90
f 90 81 9
f 90 9 94
f 91 51 50
f 91 50 92
f 92 50 49
f 92 49 94
f 11 13 93
f 93 13 86
f 86 85 93
f 93 85 91
f 91 85 51
f 94 11 93
f 94 93 91
f 94 91 92
f 90 94 89
f 89 94 88
f 95 96 8
f 8 96 7
f 96 97 7
f 7 97 12
f 97 98 12
f 12 98 15
f 98 95 15
f 15 95 8
f 98 97 95
f 95 97 96
