v -0.003407 0.022241 -0.002018
v -0.004142 0.022116 -0.008928
v -0.0168 0.014967 -0.005999
v -0.0168 0.014967 -0.005999
v -0.0168 0.014967 -0.005999
v -0.0168 0.014967 -0.005999
v -0.016748 0.015025 -0.007464
v -0.018462 0.012849 -0.006075
v 0.017072 -0.014656 -0.002
v 0.017072 -0.014656 -0.002
v 0.017066 -0.014652 0
v 0.017066 -0.014652 0
v 0.017004 -0.014734 0
v 0.017004 -0.014734 0
v 0.017004 -0.014734 0
v 0.013772 -0.017792 -0.002
v 0.013772 -0.017792 -0.002
v 0.009909 -0.020201 -0.002
v 0.012164 -0.018928 0
v 0.00114 -0.022471 -0.002
v 0.00114 -0.022471 -0.002
v 0 -0.0225 0
v -0.003202 -0.022271 0
v -0.003202 -0.022271 0
v -0.003407 -0.022241 -0.002
v -0.007814 -0.021099 -0.002
v -0.006339 -0.021589 0
v -0.011902 -0.019094 -0.002
v -0.009347 -0.020467 0
v -0.007794 -0.021046 0
v -0.012164 -0.018928 0
v -0.014734 -0.017004 0
v -0.018432 -0.012827 0
v -0.018467 -0.012854 -0.002
v -0.017004 -0.014734 0
v -0.020467 -0.009347 0
v -0.020677 -0.008873 -0.002
v -0.020647 -0.008862 0
v -0.020647 -0.008862 0
v -0.022039 -0.004529 -0.002
v -0.021589 -0.006339 0
v -0.020467 0.009347 0
v -0.018928 0.012164 0
v -0.018928 0.012164 0
v -0.019685 0.010896 -0.005028
v -0.018432 0.012827 0
v -0.016934 0.014815 -0.002208
v -0.011892 0.019077 0
v -0.016331 0.015477 -0.002665
v -0.009347 0.020467 0
v -0.007794 0.021046 0
v -0.007794 0.021046 0
v -0.005825 0.021733 -0.003337
v -0.006339 0.021589 0
v -0.00459 0.022027 -0.002352
v -0.00459 0.022027 -0.002352
v -0.005263 0.021876 -0.002774
v -0.005263 0.021876 -0.002774
v -0.007812 0.021093 -0.007718
v -0.0066 0.02151 -0.005549
v -0.006511 0.021537 -0.00634
v 0.006511 0.021537 -0.00476
v 0.006247 0.021615 -0.004008
v 0.009892 0.020169 0
v 0.009892 0.020169 0
v 0.009892 0.020169 0
v 0.005638 0.021776 -0.008514
v 0.006511 0.021537 -0.00634
v 0.009902 0.020187 -0.006738
v 0.009902 0.020187 -0.006738
v 0.0066 0.02151 -0.005551
v 0.0066 0.02151 -0.005551
v 0.00459 0.022027 -0.008748
v 0.005149 0.021903 -0.008413
v 0.010518 0.01989 -0.006427
v 0.012164 0.018928 0
v 0.014675 0.017043 -0.009023
v 0.014516 0.017191 -0.008147
v 0.014516 0.017191 -0.008147
v 0.014516 0.017191 -0.008147
v 0.014516 0.017191 -0.008147
v 0.014516 0.017191 -0.008147
v 0.015923 0.015896 -0.008101
v 0.015923 0.015896 -0.008101
v 0.017004 0.014734 0
v 0.017004 0.014734 0
v 0.017004 0.014734 0
v 0.014668 0.017061 -0.003863
v 0.011979 0.019046 -0.005597
v 0.017072 0.014656 -0.007209
v 0.017072 0.014656 -0.007209
v 0.017066 0.014652 0
v 0.017066 0.014652 0
v 0.017066 0.014652 0
v 0.01853 0.012762 -0.006019
v 0.018928 0.012164 0
v 0.020467 0.009347 0
v 0.021468 0.006736 -0.003373
v 0.021468 0.006736 -0.003373
v 0.021444 0.006727 0
v 0.021444 0.006727 0
v 0.021962 0.00489 -0.002859
v 0.01292 0.020398 -0.012312
v 0.01303 0.019603 -0.011433
v -0.00149626 0.027762 -0.0582245
v 0.003803 0.027762 -0.032
v -0.015735 0.017045 -0.00902
v -0.016242 0.015717 -0.007966
v -0.016242 0.015717 -0.007966
v -0.015949 0.016309 -0.00842
v -0.015949 0.016309 -0.00842
v 0.00305 0.022292 -0.0091
v -0.00305 0.022292 -0.0091
v -0.003787 0.022176 -0.009006
v 0.002118 0.022886 -0.010603
v 0.013246 0.019305 -0.007002
v -0.014459 0.01852 -0.006346
v -0.015798 0.017619 -0.005642
v -0.015802 0.017525 -0.005572
v -0.015802 0.017525 -0.005572
v -0.015802 0.017525 -0.005572
v 0.013101 0.020247 -0.007981
v -0.01579 0.017628 -0.005833
v -0.01579 0.017628 -0.005833
v -0.008599 0.030762 -0.063334
v -0.008481 0.030762 -0.063421
v -0.008481 0.030762 -0.050827
v -0.007572 0.030762 -0.051736
v -0.006478 0.030762 -0.057559
v -0.004028 0.030762 -0.042736
v 0.000275 0.030762 -0.047039
v 0.00185 0.030762 -0.044311
v -0.004028 0.030762 -0.060736
v -0.00445 0.030762 -0.062311
v 0.000275 0.030762 -0.065039
v 0.001428 0.030762 -0.060736
v 0.001428 0.030762 -0.060736
v 0.000275 0.030762 -0.059583
v 0.000275 0.030762 -0.059583
v -0.0013 0.030762 -0.059161
v -0.002875 0.030762 -0.059583
v -0.008725 0.030762 -0.050583
v -0.0103 0.030762 -0.050161
v -0.0103 0.030762 -0.050161
v -0.011875 0.030762 -0.050583
v -0.012513 0.030762 -0.05122
v -0.013028 0.030762 -0.051736
v 0.001755 0.030762 -0.043958
v 0.001755 0.030762 -0.043958
v 0.001428 0.030762 -0.042736
v -0.002875 0.030762 -0.041583
v 0.0077 0.030762 -0.050161
v 0.0077 0.030762 -0.050161
v 0.0077 0.030762 -0.050161
v 0.006125 0.030762 -0.050583
v 0.006125 0.030762 -0.050583
v 0.006125 0.030762 -0.050583
v 0.009912 0.030762 -0.05122
v 0.009912 0.030762 -0.05122
v 0.009275 0.030762 -0.050583
v 0.009275 0.030762 -0.050583
v 0.00455 0.030762 -0.053311
v 0.004972 0.030762 -0.051736
v 0.00220226 0.00546598 0
v -0.00574753 -0.00973187 0
v -0.00473801 -0.000995841 0
v -0.0125477 0.00052525 0
v 0.000732 0.022488 -0.009399
v 0.000732 0.022488 -0.009399
v 0 0.022488 -0.009398
v 0 0.022488 -0.009398
v 0 0.0225 -0.0091
v 0 0.0225 -0.0091
v 0 0.0225 -0.0091
v 0.001945 0.022416 -0.009306
v 0.001945 0.022416 -0.009306
v -0.000763 0.022487 -0.009398
v -0.000763 0.022487 -0.009398
v -0.001973 0.022413 -0.009303
v -0.001973 0.022413 -0.009303
v 0.00755937 0.027762 -0.0548784
v -0.008268 0.027762 -0.063579
v -0.011662 0.027762 -0.052351
v -0.006543 0.027762 -0.057495
v -0.005392 0.027762 -0.058626
v -0.01115 0.027762 -0.051839
v 0.005258 0.027762 -0.058924
v 0.00130057 0.027762 -0.0544311
v -0.009284 0.020328 0.000765
v -0.01789 0.011497 0.001848
v -0.01789 0.011497 0.001848
v -0.016071 0.013926 0.001848
v -0.018435 0.011848 0.001414
v -0.018435 0.011848 0.001414
v -0.013926 0.016071 0.001848
v -0.014351 0.016562 0.001414
v -0.011497 0.01789 0.001848
v 0.016889 0.014635 0.000765
v 0.021265 0 0.001848
v 0.021914 0 0.001414
v 0.021914 0 0.001414
v 0.02212 0.00318 0.000765
v 0.022348 0 0.000765
v 0.021049 -0.003026 0.001848
v 0.021026 -0.006174 0.001414
v 0.02212 -0.00318 0.000765
v 0.021442 -0.006296 0.000765
v 0.013926 -0.016071 0.001848
v 0.011497 -0.01789 0.001848
v 0.014351 -0.016562 0.001414
v -0.0188 0.012082 0.000765
v -0.019934 0.009103 0.001414
v 0.018435 -0.011848 0.001414
v 0.01789 -0.011497 0.001848
v 0.016889 -0.014635 0.000765
v 0.016071 -0.013926 0.001848
v 0.010776 0.01986 -0.006981
v 0.012265 0.018992 -0.006181
v 0.013384 0.018873 -0.006588
v 0.013758 0.018121 -0.005665
v 0.013565 0.01851 -0.006142
v 0.013565 0.01851 -0.006142
v 0.014662 0.017067 -0.003873
v 0.014662 0.017067 -0.003873
v 0.014219 0.017504 -0.004696
v 0.003574 0.022347 -0.00978
v -0.002055 0.022531 -0.009995
v 0.000763 0.022609 -0.010087
v 0.000763 0.022609 -0.010087
v -0.000794 0.022608 -0.010086
v 0.002026 0.022534 -0.009998
v -0.003946 0.022289 -0.009717
v -0.004312 0.022221 -0.009635
v -0.004256 0.022186 -0.0094
v -0.004256 0.022186 -0.0094
v -0.004256 0.022186 -0.0094
v -0.015953 0.016636 -0.004747
v -0.016046 0.016323 -0.0044
v -0.015299 0.016687 -0.004306
v -0.016134 0.016135 -0.004149
v -0.016331 0.015717 -0.003592
v -0.016331 0.015717 -0.003592
v -0.016428 0.015511 -0.003319
v -0.016526 0.015377 -0.003105
v -0.015854 0.017166 -0.005253
v -0.013994 0.018211 -0.005943
v -0.012352 0.019294 -0.006851
v -0.007493 0.021294 -0.008438
v -0.005873 0.021789 -0.008984
v -0.005873 0.021789 -0.008984
v -0.006046 0.021943 -0.009441
v -0.006046 0.021943 -0.009441
v 0.013471 0.018562 -0.008055
v 0.013471 0.018562 -0.008055
v -0.01605 0.016204 -0.00591
v -0.01605 0.016204 -0.00591
v -0.01605 0.016204 -0.00591
v -0.01605 0.016204 -0.00591
v -0.01605 0.016204 -0.00591
v -0.003 0.029312 -0.062311
v -0.0013 0.029312 -0.064011
v -0.00045 0.029312 -0.063783
v 0.0004 0.029312 -0.062311
v 0.000172 0.029312 -0.061461
v 0.000172 0.029312 -0.061461
v -0.00045 0.029312 -0.060839
v -0.00045 0.029312 -0.060839
v -0.00215 0.029312 -0.060839
v -0.002772 0.029312 -0.061461
v -0.01115 0.029312 -0.051839
v -0.01115 0.029312 -0.051839
v -0.011772 0.029312 -0.052461
v -0.011772 0.029312 -0.052461
v -0.0086 0.029312 -0.053311
v -0.008828 0.029312 -0.052461
v -0.008828 0.029312 -0.052461
v -0.00945 0.029312 -0.051839
v -0.00945 0.029312 -0.051839
v -0.00945 0.029312 -0.051839
v -0.0103 0.029312 -0.051611
v -0.0103 0.029312 -0.051611
v 0.000172 0.029312 -0.043461
v 0.000172 0.029312 -0.043461
v 0.0004 0.029312 -0.044311
v 0.0004 0.029312 -0.044311
v 0.000172 0.029312 -0.045161
v -0.00045 0.029312 -0.045783
v -0.0013 0.029312 -0.046011
v -0.00215 0.029312 -0.042839
v 0.00685 0.029312 -0.051839
v 0.00685 0.029312 -0.051839
v 0.006228 0.029312 -0.052461
v 0.006 0.029312 -0.053311
v 0.009172 0.029312 -0.052461
v 0.00855 0.029312 -0.051839
v 0.00855 0.029312 -0.051839
v 0.00855 0.029312 -0.051839
v 0.00855 0.029312 -0.051839
v 0.0077 0.029312 -0.051611
v 0.0077 0.029312 -0.051611
v 0.0077 0.029312 -0.051611
v 0.005321 0.030512 -0.058907
v 0.004809 0.030512 -0.059044
v -0.005673 0.011133 0.0005
v -0.001469 -0.012408 0.0005
v 0.003392 -0.012026 0.0005
v 0.003256 -0.011545 0
v 0.005673 -0.011133 0.0005
v 0.005673 -0.011133 0.0005
v 0.009645 -0.0079085 0.0405
v 0.00715581 -0.00896788 0.0405
v -0.001526 -0.0118203 0.0405
v -0.0102076 -0.00411856 0.0405
v -0.00153396 0.00802447 0.0405
v 0.00864125 0.00895375 0.0405
v 0.00992837 -0.000905265 0.0405
v -0.00076411 0.000452092 0
v 0.00855679 0.00147592 0
v -0.00928881 -0.00475808 0
v -0.00214175 0.00642219 0
v 0.00546644 0.000201625 0
v -0.00439 0.011101 0
v -0.00141 -0.011912 0
v 0.005093 -0.010826 0
v 0.005093 -0.010826 0
v -0.00192566 -0.00836619 0
v 0.002178 -0.011737 0
v 0.000941 -0.011958 0
v 0.000941 -0.011958 0
v 0.00536 -0.010721 0
v 0.0007535 -0.0113537 0
v -0.005446 0.010688 0
v -0.00290273 0.00965304 0
v 0 -0.009 0.007551
v 0 -0.009 0.007551
v 0.000708 -0.01003 0.0068
v -0.000538 -0.010128 0.0068
v 9.8e-05 -0.010246 0.0068
v 9.8e-05 -0.010246 0.0068
v 0 0.009 0.007551
v 0 0.009 0.007551
v -0.000708 0.01003 0.0068
v 0.000538 0.010128 0.0068
v -9.8e-05 0.010246 0.0068
v -9.8e-05 0.010246 0.0068
v 0.00462799 0.00759594 0.0405
v -0.006742 -0.008786 0.0405
v 0.00523775 -0.00629513 0.0405
v 0.009083 -0.007757 0.0405
v -0.00608453 -0.00576163 0.0405
v -0.007604 0.006494 0.034599
v -0.007604 0.006494 0.034599
v -0.007604 0.006494 0.034599
v -0.007604 0.006494 0.034599
v -0.007604 0.006494 0.034599
v -0.007604 0.006494 0.034599
v -0.006368 0.007344 0.0355
v -0.006109 0.006612 0.0355
v -0.006109 0.006612 0.0355
v -0.008454 0.007731 0.0355
v -0.007722 0.00799 0.0355
v -0.00884 0.005645 0.0355
v -0.00825 0.005141 0.0355
v -0.00825 0.005141 0.0355
v -0.006754 0.005258 0.0355
v -0.00625 0.005849 0.0355
v -0.007486 0.004999 0.0355
v -0.007486 0.004999 0.0355
v 0.007604 -0.006494 0.034599
v 0.007604 -0.006494 0.034599
v 0.007604 -0.006494 0.034599
v 0.007604 -0.006494 0.034599
v 0.007604 -0.006494 0.034599
v 0.007604 -0.006494 0.034599
v 0.00884 -0.005645 0.0355
v 0.00825 -0.005141 0.0355
v 0.00825 -0.005141 0.0355
v 0.006754 -0.005258 0.0355
v 0.00625 -0.005849 0.0355
v 0.007486 -0.004999 0.0355
v 0.007486 -0.004999 0.0355
v 0.006368 -0.007344 0.0355
v 0.006109 -0.006612 0.0355
v 0.006109 -0.006612 0.0355
v 0.008454 -0.007731 0.0355
v 0.007722 -0.00799 0.0355
v 0.006494 0.007604 0.032749
v 0.006494 0.007604 0.032749
v 0.006494 0.007604 0.032749
v 0.006494 0.007604 0.032749
v 0.006494 0.007604 0.032749
v 0.007525 0.008312 0.0335
v 0.007525 0.008312 0.0335
v 0.007033 0.008732 0.0335
v 0.007741 0.007702 0.0335
v 0.005786 0.008634 0.0335
v 0.005786 0.008634 0.0335
v 0.005366 0.008142 0.0335
v 0.006396 0.00885 0.0335
v 0.005464 0.006896 0.0335
v 0.005956 0.006476 0.0335
v -0.006494 -0.007604 0.032749
v -0.006494 -0.007604 0.032749
v -0.006494 -0.007604 0.032749
v -0.006494 -0.007604 0.032749
v -0.006494 -0.007604 0.032749
v -0.005464 -0.006896 0.0335
v -0.005956 -0.006476 0.0335
v -0.007525 -0.008312 0.0335
v -0.007525 -0.008312 0.0335
v -0.007033 -0.008732 0.0335
v -0.007033 -0.008732 0.0335
v -0.007741 -0.007702 0.0335
v -0.005786 -0.008634 0.0335
v -0.005786 -0.008634 0.0335
v -0.005366 -0.008142 0.0335
v -0.006396 -0.00885 0.0335
v -0.006396 -0.00885 0.0335
v 0 0.01 0.037899
v 0 0.01 0.037899
v 0 0.01 0.037899
v 0 0.01 0.037899
v 0 0.01 0.037899
v 0 0.01 0.037899
v 0.000431 0.010903 0.0385
v -0.000566 0.010824 0.0385
v -0.000566 0.010824 0.0385
v -0.000903 0.010431 0.0385
v -7.8e-05 0.010997 0.0385
v -7.8e-05 0.010997 0.0385
v -0.000824 0.009434 0.0385
v -0.000431 0.009097 0.0385
v -0.000431 0.009097 0.0385
v 0.000566 0.009176 0.0385
v 7.8e-05 0.009003 0.0385
v 7.8e-05 0.009003 0.0385
f 9 11 15
f 10 14 16
f 19 18 17
f 20 22 24
f 21 23 25
f 29 26 30
f 30 26 27
f 28 31 32
f 33 34 35
f 37 36 38
f 39 41 40
f 45 44 46
f 6 8 47
f 54 1 56
f 52 55 57
f 51 58 53
f 60 61 59
f 62 63 64
f 67 73 74
f 68 72 70
f 69 71 66
f 75 65 76
f 77 78 84
f 83 86 91
f 90 87 93
f 95 94 96
f 99 97 101
f 98 100 102
f 165 164 166
f 167 166 164
f 167 165 166
f 168 172 175
f 176 173 112
f 174 180 113
f 126 182 125
f 188 105 181
f 106 105 188
f 106 188 181
f 191 192 193
f 195 197 196
f 202 200 203
f 199 204 201
f 206 205 207
f 208 209 210
f 212 190 194
f 42 211 43
f 50 48 189
f 92 85 198
f 13 12 215
f 216 213 214
f 217 89 218
f 177 227 179
f 171 229 178
f 178 229 230
f 170 169 228
f 115 231 226
f 114 232 235
f 237 238 239
f 49 243 244
f 117 246 247
f 249 252 248
f 250 2 234
f 251 236 233
f 104 103 122
f 254 116 219
f 253 222 80
f 82 221 220
f 81 225 224
f 79 223 88
f 118 123 119
f 121 124 257
f 120 256 245
f 3 241 255
f 258 242 240
f 109 7 4
f 259 107 110
f 5 111 108
f 185 129 184
f 262 135 261
f 260 134 269
f 268 133 141
f 266 140 139
f 267 138 264
f 264 138 137
f 265 136 263
f 271 183 272
f 271 186 183
f 277 127 275
f 276 128 274
f 273 147 146
f 270 145 281
f 280 143 279
f 278 144 142
f 283 148 285
f 284 132 286
f 287 131 288
f 289 130 151
f 282 150 149
f 295 158 294
f 293 162 292
f 290 163 157
f 291 155 299
f 301 156 152
f 300 154 298
f 297 153 161
f 296 160 159
f 302 187 303
f 317 321 326
f 317 326 320
f 320 326 319
f 321 318 331
f 333 318 320
f 320 318 321
f 320 321 317
f 320 319 333
f 319 326 331
f 326 321 331
f 338 337 335
f 336 339 334
f 344 343 341
f 342 345 340
f 329 327 306
f 308 307 324
f 309 325 330
f 328 305 323
f 304 322 332
f 346 314 316
f 350 311 348
f 349 316 311
f 310 316 349
f 310 349 311
f 350 312 311
f 350 313 312
f 350 314 313
f 346 316 315
f 315 314 346
f 348 314 350
f 359 357 351
f 361 360 355
f 356 362 363
f 368 365 352
f 364 367 354
f 366 358 353
f 369 375 376
f 380 378 371
f 377 381 372
f 384 382 370
f 379 383 373
f 386 385 374
f 390 393 394
f 395 392 391
f 388 397 398
f 399 396 389
f 387 400 401
f 405 407 408
f 404 410 411
f 413 409 403
f 406 414 416
f 418 415 402
f 412 347 417
f 419 427 428
f 429 426 420
f 425 430 423
f 421 431 432
f 435 434 422
f 433 436 424
