v 0.177267 0.0132034 1.69814e-08
v 0.168802 0.010936 0
v 0.182704 0.014661 0.00325
v 0.179621 0.0138347 -0.00465725
v 0.148052 -0.00314 0.008835
v 0.137728 0.011605 0.008835
v 0.137508 0.011137 0.011143
v 0.137126 0.0118494 0.0108787
v 0.140586 0.014147 -0.010712
v 0.140541 0.013575 -0.008835
v 0.137217 0.011789 0.010443
v 0.141176 0.013435 -0.011098
v 0.14187 0.012498 -0.011257
v 0.150866 -0.00117 -0.008835
v 0.150894 -0.00044276 -0.0111065
v 0.151257 -0.001438 -0.009692
v 0.147733 -0.00343945 0.0110515
v 0.153127 0.009365 -0.0115
v 0.150726 0.000364 -0.0115
v 0.15637 0.0056439 0.0118635
v 0.181389 0.0179726 -0.00552978
v 0.153611 0.011565 -0.0095
v 0.164769 0.0101916 -0.00697718
v 0.153564 0.0115229 0.010256
v 0.178259 0.0181044 -0.00995543
v 0.153066 0.009593 -0.011486
v 0.144425 0.014102 0.009504
v 0.151631 -0.0013685 -0.0100325
v 0.179788 0.0119248 0.011736
v 0.153216 0.0104419 0.01145
v 0.15343 0.01091 0.010914
v 0.176191 0.01722 0.010676
v 0.153564 0.011394 0.010265
v 0.178429 0.0179739 0.0102514
v 0.176117 0.017494 -0.010118
v 0.176166 0.017311 -0.01049
v 0.177715 0.0171978 0.0110094
v 0.176353 0.016613 -0.011213
v 0.178844 0.0182621 -0.0103936
v 0.176305 0.016792 -0.011118
v 0.176191 0.01722 -0.010676
v 0.17645 0.016254 -0.011402
v 0.153528 0.011265 -0.0105
v 0.153564 0.011394 -0.010265
v 0.15359 0.011488 -0.010018
v 0.15343 0.01091 -0.010914
v 0.153078 0.009637 -0.0115
v 0.15357 0.011418 0.010265
v 0.153455 0.011 0.010914
v 0.153282 0.010375 -0.011348
v 0.153455 0.011 -0.010914
v 0.15357 0.011418 -0.010265
v 0.153601 0.011528 -0.00989
v 0.140616 0.014477 0.010523
v 0.140694 0.0145187 -0.0109069
v 0.151036 -0.001959 0.010265
v 0.148312 -0.00375239 0.0112091
v 0.151673 -0.001513 -0.009651
v 0.150548 0.0107438 0.0129796
v 0.142896 0.014359 0.010263
v 0.143465 0.014304 0.009991
v 0.144418 0.014104 -0.009508
v 0.142896 0.014356 -0.010262
v 0.143654 0.014274 -0.009897
v 0.141609 0.0134189 -0.0114082
v 0.139938 0.0143301 0.0101765
v 0.151354 -0.001391 -0.010057
v 0.151484 -0.001565 -0.009683
v 0.151436 -0.001265 -0.010457
v 0.151452 -0.001557 -0.009686
v 0.151018 -0.000579 -0.011112
v 0.151106 -0.000576 -0.011181
v 0.151206 -0.000546 -0.01122
v 0.150515 0.000216 -0.011353
v 0.150533 0.000229 -0.011379
v 0.15057 0.000255 -0.011431
v 0.150618 0.000289 -0.011465
v 0.150643 0.000306 -0.011482
v 0.14804 -0.00365313 0.0110584
v 0.148163 -0.00386 0.010963
v 0.148209 -0.00387 0.010986
v 0.148273 -0.003862 0.011012
v 0.1419 0.012519 -0.011353
v 0.141955 0.012557 -0.011431
v 0.142004 0.012591 -0.011465
v 0.142029 0.012608 -0.011482
v 0.14752 -0.002871 0.011471
v 0.147435 -0.002931 0.011391
v 0.147386 -0.002965 0.011274
v 0.140553 0.014382 -0.01081
v 0.141258 0.013568 -0.011293
v 0.141348 0.013652 -0.011329
v 0.141197 0.013491 -0.011211
v 0.140584 0.01415 -0.010713
v 0.140549 0.0142604 -0.0107703
v 0.137511 0.011139 0.011274
v 0.137559 0.011173 0.011391
v 0.137644 0.011233 0.011471
v 0.137207 0.01212 0.010478
v 0.13717 0.011895 0.010447
v 0.137918 0.0133572 0.011217
v 0.151027 -0.001058 -0.008796
v 0.140702 0.013687 -0.008796
v 0.137889 0.011717 0.008873
v 0.148213 -0.003028 0.008873
f 2 1 3
f 3 1 4
f 4 1 2
f 5 17 6
f 6 17 7
f 6 7 8
f 9 10 11
f 11 10 6
f 11 6 8
f 9 12 10
f 10 12 13
f 10 13 14
f 14 13 15
f 15 67 14
f 14 67 16
f 14 16 5
f 5 16 17
f 18 21 23
f 18 23 19
f 18 19 47
f 47 19 65
f 20 59 57
f 23 21 29
f 29 20 23
f 25 22 23
f 23 24 21
f 23 21 25
f 23 22 27
f 27 24 23
f 20 29 30
f 30 37 31
f 31 37 32
f 31 32 33
f 24 33 34
f 34 33 32
f 35 25 36
f 21 24 34
f 34 32 37
f 39 38 40
f 39 40 25
f 25 40 41
f 25 41 36
f 39 21 42
f 39 42 38
f 21 39 25
f 34 29 21
f 37 29 34
f 37 30 29
f 43 44 36
f 36 44 45
f 36 45 35
f 35 45 22
f 35 22 25
f 38 46 40
f 40 46 43
f 40 43 41
f 41 43 36
f 21 18 42
f 42 18 26
f 42 26 38
f 38 26 47
f 38 47 46
f 33 24 48
f 33 48 31
f 31 48 49
f 31 49 30
f 59 20 30
f 59 30 49
f 47 50 46
f 46 50 51
f 46 51 43
f 43 51 52
f 45 52 53
f 45 53 22
f 66 54 55
f 56 57 58
f 58 57 79
f 58 28 56
f 56 28 23
f 54 101 59
f 54 49 60
f 60 49 48
f 60 48 61
f 24 27 48
f 48 27 61
f 49 54 59
f 27 22 62
f 62 22 53
f 51 55 52
f 52 55 63
f 52 63 53
f 53 63 64
f 53 64 62
f 51 65 55
f 51 50 65
f 65 50 47
f 20 57 56
f 20 56 23
f 27 62 61
f 61 62 60
f 55 54 63
f 63 54 60
f 63 60 64
f 64 60 62
f 101 54 66
f 28 68 69
f 69 68 70
f 69 70 67
f 69 67 71
f 69 71 72
f 23 28 73
f 15 71 67
f 15 74 71
f 71 74 75
f 71 75 72
f 72 75 76
f 72 76 77
f 28 69 72
f 28 72 73
f 73 72 77
f 73 77 78
f 78 19 73
f 73 19 23
f 17 16 79
f 80 67 70
f 80 70 81
f 81 70 68
f 81 68 82
f 82 68 28
f 15 13 74
f 74 13 83
f 74 83 75
f 76 93 84
f 76 84 77
f 77 84 85
f 77 85 78
f 78 85 86
f 78 86 19
f 19 86 65
f 82 79 81
f 81 79 80
f 79 57 87
f 79 87 88
f 79 88 89
f 79 89 17
f 90 55 91
f 91 55 92
f 93 95 91
f 91 95 90
f 12 9 93
f 94 95 93
f 13 12 83
f 83 12 93
f 93 91 84
f 92 55 65
f 84 91 85
f 85 91 92
f 85 92 86
f 86 92 65
f 7 17 89
f 7 89 96
f 96 89 88
f 96 88 97
f 97 88 87
f 97 87 98
f 98 87 57
f 98 57 59
f 94 11 100
f 94 100 95
f 66 55 99
f 99 55 90
f 99 90 8
f 8 90 100
f 100 90 95
f 101 66 8
f 8 66 99
f 8 100 11
f 98 101 97
f 97 101 96
f 96 101 7
f 7 101 8
f 98 59 101
f 102 103 14
f 14 103 10
f 103 104 10
f 10 104 6
f 6 105 5
f 105 102 5
f 5 102 14
f 105 104 102
f 102 104 103
