v 0.184603 0.0157281 -0.00181449
v 0.177127 0.013725 0.0065
v 0.181555 0.014353 0.0044395
v 0.18255 0.0146195 -0.00221975
v 0.145395 0.014604 -0.0065
v 0.145395 0.014604 0.0065
v 0.121781 0.016531 0.0065
v 0.0980406 0.0174408 -0.0065
v 0.098089 0.016704 0.0065
v 0.074449 0.015125 0.0065
v 0.05099 0.011801 0.0065
v 0.027842 0.00675 0.0065
v 0.005131 0 0.0065
v -0.005525 -0 -0.000821
v -0.005525 0 -0.001834
v -0.00399114 2.17556e-05 -0.0036275
v -0.005525 -0 -0.000397
v -0.005525 -0 0.000397
v -0.005525 0 0.001393
v 0.00070082 0.000375 0.000257197
v -0.00491692 -9.86024e-05 0.00649419
v 0.00992444 0.00363369 -0.00663348
v -0.005526 0.0006 -0.000397
v -0.005526 0.0006 0.000397
v -0.005526 0.0006 -0.002647
v -0.005526 0.0006 -0.001834
v -0.005526 0.0006 0.003033
v -0.005526 0.0006 0.0065
v -0.005526 0.0006 0.002647
v -0.005526 0.0006 0.001834
v -0.005526 0.0006 0.000821
v -0.005526 0.0006 -0.001393
v 0.027774 0.007352 0.0065
v 0.050953 0.012404 0.0065
v 0.074443 0.015728 0.0065
v 0.098113 0.017305 0.0065
v 0.121836 0.017129 0.0065
v 0.121836 0.017129 -0.0065
v 0.14548 0.015198 0.0065
v 0.14548 0.015198 -0.0065
v -0.005526 0.000411 0.0065
v 0.151673 -0.001513 -0.009651
v 0.151701 -0.001493 -0.009616
v 0.151684 -0.00150535 -0.00964545
v 0.151673 -0.00126 -0.010256
v 0.151386 -0.001542 -0.009692
v 0.151355 -0.001521 -0.009693
v 0.151322 -0.00124 -0.010422
v 0.151344 -0.001515 -0.009693
v 0.151301 -0.001488 -0.009694
v 0.151263 -0.001446 -0.009693
v 0.148063 -0.003813 0.010904
v 0.148079 -0.003823 0.010915
v 0.148125 -0.003851 0.010943
v 0.147645 -0.003215 0.011363
v 0.147583 -0.003235 0.011246
f 1 4 2
f 5 6 8
f 8 6 7
f 8 7 9
f 8 9 22
f 22 9 10
f 22 10 11
f 22 11 12
f 22 12 13
f 14 15 16
f 13 20 22
f 20 16 22
f 14 16 17
f 17 16 18
f 16 19 18
f 19 16 21
f 21 16 20
f 21 20 13
f 20 21 22
f 23 24 20
f 20 25 26
f 21 20 27
f 21 27 28
f 20 29 27
f 20 30 29
f 25 20 22
f 25 22 16
f 30 20 31
f 31 20 24
f 26 32 20
f 20 32 23
f 22 21 33
f 22 33 34
f 22 34 35
f 22 35 8
f 8 35 36
f 8 36 37
f 8 37 38
f 38 37 39
f 38 39 40
f 8 38 5
f 5 38 40
f 3 2 4
f 6 39 7
f 7 39 37
f 7 37 9
f 9 37 36
f 9 36 10
f 10 36 35
f 10 35 11
f 11 35 34
f 11 34 12
f 12 34 33
f 12 33 13
f 13 33 21
f 28 41 21
f 4 1 3
f 3 1 2
f 43 42 44
f 46 47 48
f 47 49 48
f 48 49 50
f 48 50 51
f 45 43 44
f 44 42 45
f 51 50 52
f 52 50 49
f 52 49 53
f 53 49 54
f 54 49 47
f 54 47 46
f 56 53 55
f 55 53 54
f 56 52 53
f 32 26 25
f 24 23 32
f 30 31 24
f 28 27 29
f 29 30 24
f 24 32 25
f 15 14 17
f 25 16 15
f 29 24 25
f 41 28 29
f 41 29 25
f 25 15 17
f 17 18 19
f 19 21 41
f 41 25 17
f 17 19 41
