v 0.022822 -0.081604 0.019733
v 0.020822 -0.056387 0.003543
v 0.020822 0.006442 0.003543
v 0.026072 -0.04935 0.001439
v 0.021289 -0.081604 0.022683
v 0.020822 0.0266726 0.05407
v 0.020822 0.0208405 0.0578552
v 0.020822 0.0086446 0.0605693
v 0.020822 0.024521 0.056215
v 0.020822 0.001063 0.062269
v 0.020822 -0.0414305 0.0616972
v 0.022036 -0.081604 0.0310335
v 0.039189 -0.083894 0.0201485
v 0.029839 -0.081919 0.043023
v 0.020822 -0.081604 0.044429
v 0.038822 -0.06058 0.059033
v 0.038822 -0.061272 0.058918
v 0.038822 -0.056387 0.059353
v 0.038822 -0.057089 0.059345
v 0.038822 -0.05779 0.059318
v 0.038822 -0.05849 0.059273
v 0.038822 -0.061961 0.058785
v 0.038822 -0.062646 0.058634
v 0.038822 -0.063328 0.058466
v 0.038822 -0.065342 0.05786
v 0.038822 -0.064676 0.058079
v 0.038822 -0.064004 0.058281
v 0.038822 -0.066003 0.057624
v 0.038822 -0.067305 0.057102
v 0.038822 -0.082233 0.040415
v 0.038822 -0.0803663 0.045005
v 0.038822 -0.0773541 0.0494154
v 0.031822 0.036514 0.030012
v 0.024822 0.035613 0.030012
v 0.024822 0.036759 0.030012
v 0.039072 -0.056387 0.001893
v 0.030075 0.033312 0.018012
v 0.023572 0.0315635 0.016762
v 0.02374 0.031172 0.016137
v 0.02374 0.032525 0.016137
v 0.024197 0.032227 0.01568
v 0.0287175 0.030553 0.015512
v 0.031822 0.031806 0.015512
v 0.032905 0.032871 0.017387
v 0.033072 0.032514 0.016762
v 0.032905 0.032151 0.016137
v 0.031822 0.033244 0.018012
v 0.023655 0.033185 0.023073
v 0.023572 0.035491 0.022762
v 0.02374 0.034072 0.022137
v 0.024197 0.03511 0.02168
v 0.030504 0.033594 0.021512
v 0.031822 0.034767 0.021512
v 0.032147 0.0335485 0.021555
v 0.032447 0.034804 0.02168
v 0.032905 0.033733 0.022137
v 0.033072 0.035143 0.022762
v 0.032146 0.035528 0.02397
v 0.031822 0.035551 0.024013
v 0.030499 0.0344115 0.024013
v 0.024822 0.035804 0.024013
v 0.024498 0.036768 0.02997
v 0.02374 0.0354775 0.028137
v 0.024197 0.036556 0.02768
v 0.024822 0.03651 0.027512
v 0.031822 0.0351075 0.027512
v 0.031822 0.036264 0.027512
v 0.032146 0.036258 0.027555
v 0.032146 0.035102 0.027555
v 0.032447 0.036265 0.02768
v 0.032447 0.0351095 0.02768
v 0.032706 0.035128 0.027879
v 0.032706 0.036282 0.027879
v 0.032905 0.036308 0.028137
v 0.032905 0.036433 0.029387
v 0.032447 0.036482 0.029845
v 0.032146 0.0365 0.02997
v 0.024498 0.035372 0.03597
v 0.024498 0.036528 0.03597
v 0.024197 0.036556 0.035845
v 0.031822 0.036264 0.036012
v 0.024822 0.035354 0.036012
v 0.024822 0.03651 0.036012
v 0.02374 0.036754 0.034137
v 0.023938 0.036766 0.033879
v 0.02374 0.0354775 0.035387
v 0.023572 0.036705 0.034763
v 0.031822 0.036514 0.033512
v 0.031822 0.035368 0.033512
v 0.032146 0.0365 0.033555
v 0.032146 0.035354 0.033555
v 0.024197 0.036771 0.03368
v 0.024499 0.036768 0.033555
v 0.024822 0.036759 0.033512
v 0.032447 0.036265 0.035845
v 0.032447 0.036482 0.03368
v 0.033047 0.034082 0.034667
v 0.033072 0.036371 0.034763
v 0.033072 0.036371 0.034763
v 0.032905 0.036308 0.035387
v 0.024197 0.03511 0.041845
v 0.030504 0.033594 0.042012
v 0.024822 0.035027 0.042012
v 0.023937 0.035736 0.03988
v 0.02374 0.035283 0.041387
v 0.023572 0.035491 0.040762
v 0.030499 0.0344115 0.039512
v 0.031822 0.035551 0.039512
v 0.032447 0.034804 0.041845
v 0.033072 0.035143 0.040762
v 0.024197 0.032227 0.047845
v 0.0287175 0.030553 0.048012
v 0.024822 0.032096 0.048012
v 0.02374 0.032525 0.047387
v 0.023572 0.032896 0.046762
v 0.027868 0.0321015 0.045512
v 0.031822 0.033244 0.045512
v 0.032447 0.033132 0.04568
v 0.033072 0.032514 0.046762
v 0.038822 0.030337 0.017967
v 0.032905 0.030234 0.017387
v 0.032905 0.0315525 0.017387
v 0.033072 0.031176 0.016762
v 0.033072 0.029838 0.016762
v 0.032905 0.029433 0.016137
v 0.031822 0.029042 0.015512
v 0.024197 0.029487 0.01568
v 0.02374 0.029819 0.016137
v 0.032447 0.0318275 0.017845
v 0.032447 0.032364 0.02168
v 0.028322 0.032081 0.018012
v 0.024197 0.032673 0.02168
v 0.031822 0.032322 0.021512
v 0.038822 0.0325988 0.0236387
v 0.033072 0.032736 0.022762
v 0.023572 0.033087 0.022762
v 0.024197 0.034246 0.02768
v 0.024822 0.033431 0.024013
v 0.028322 0.0340745 0.027512
v 0.031822 0.033177 0.024013
v 0.032146 0.033946 0.027555
v 0.032447 0.033954 0.02768
v 0.038822 0.0336933 0.0291717
v 0.032905 0.034002 0.028137
v 0.032706 0.033974 0.027879
v 0.023938 0.0356195 0.033879
v 0.023938 0.034473 0.033879
v 0.02374 0.034459 0.034137
v 0.024197 0.034478 0.03368
v 0.024197 0.0356245 0.03368
v 0.032447 0.034189 0.029845
v 0.032447 0.0353355 0.029845
v 0.032447 0.034189 0.03368
v 0.032146 0.035354 0.02997
v 0.032146 0.034208 0.02997
v 0.032146 0.034208 0.033555
v 0.024498 0.034476 0.02997
v 0.024499 0.035622 0.033555
v 0.024499 0.034476 0.033555
v 0.028322 0.0343445 0.033512
v 0.024822 0.035613 0.033512
v 0.028322 0.0343445 0.030012
v 0.031822 0.035368 0.030012
v 0.032905 0.034138 0.029387
v 0.038822 0.033882 0.034647
v 0.02374 0.034072 0.041387
v 0.02374 0.032861 0.041387
v 0.023572 0.033087 0.040762
v 0.023572 0.034289 0.040762
v 0.023655 0.033185 0.040452
v 0.024822 0.032584 0.042012
v 0.031822 0.030644 0.045512
v 0.032146 0.0335485 0.04197
v 0.032447 0.032364 0.041845
v 0.032905 0.033733 0.041387
v 0.024197 0.032673 0.041845
v 0.02374 0.031172 0.047387
v 0.02374 0.029819 0.047387
v 0.023572 0.030231 0.046762
v 0.023572 0.0315635 0.046762
v 0.02374 0.0319205 0.046137
v 0.024197 0.029487 0.047845
v 0.024822 0.029342 0.048012
v 0.032905 0.030792 0.047387
v 0.033072 0.029838 0.046762
v 0.032905 0.0315525 0.046137
v 0.032447 0.030523 0.04568
v 0.032905 0.035155 0.035387
v 0.032905 0.034002 0.035387
v 0.033072 0.034071 0.034763
v 0.033072 0.034071 0.034763
v 0.033072 0.032736 0.040762
v 0.023572 0.034405 0.034763
v 0.024197 0.034246 0.035845
v 0.032706 0.035128 0.035646
v 0.024498 0.034216 0.03597
v 0.028322 0.0340745 0.036012
v 0.031822 0.033177 0.039512
v 0.032145 0.035102 0.03597
v 0.032447 0.033954 0.035845
v 0.024197 0.0345935 0.03968
v 0.023937 0.033355 0.03988
v 0.038822 0.006442 0.004171
v 0.038822 0.007164 0.004181
v 0.038822 0.007886 0.004209
v 0.038822 0.008607 0.004257
v 0.038822 0.009326 0.004323
v 0.038822 0.01147 0.004633
v 0.038822 0.012179 0.004774
v 0.038822 0.012883 0.004934
v 0.038822 0.015652 0.005754
v 0.038822 0.013583 0.005112
v 0.038822 0.014278 0.005308
v 0.038822 0.014968 0.005522
v 0.038822 0.0199225 0.0558335
v 0.038822 0.014278 0.058217
v 0.038822 0.013583 0.058413
v 0.038822 0.012883 0.058591
v 0.038822 0.010268 0.0590835
v 0.038822 0.009326 0.059202
v 0.038822 0.006442 0.059353
v 0.026572 0.00365 0.062069
v 0.026572 0.00365 0.062069
v 0.025606 0.002909 0.0609585
v 0.025606 0.002909 0.062102
v 0.025606 0.002909 0.062102
v 0.025706 0.00315 0.060955
v 0.025706 0.00315 0.062099
v 0.026072 0.003516 0.0609425
v 0.026072 0.003516 0.062086
v 0.02619 -0.005274 0.0609385
v 0.02619 -0.005274 0.062082
v 0.025865 -0.005057 0.062093
v 0.025865 -0.005057 0.0609495
v 0.025648 -0.004733 0.060957
v 0.025648 -0.004733 0.062101
v 0.025572 -0.00435 0.062104
v 0.024447 0.005046 0.0621425
v 0.025572 -0.00435 0.062104
v 0.025572 0.00265 0.062104
v 0.025572 0.00265 0.06096
v 0.028455 -0.005274 0.0608595
v 0.028072 -0.00535 0.062016
v 0.028072 -0.00535 0.062016
v 0.026572 -0.00535 0.060925
v 0.020822 -0.083894 0.0317625
v 0.039072 -0.083894 0.043406
v 0.029034 -0.040659 0.001542
v 0.025648 -0.004733 0.001424
v 0.025865 -0.005057 0.001432
v 0.025719 -0.040496 0.001427
v 0.028572 -0.04935 0.001526
v 0.0288875 -0.004895 0.001537
v 0.038822 -0.056387 0.059353
v 0.020822 0.006442 0.059982
v 0.026572 0.00365 0.059781
v 0.026572 0.00365 0.059781
v 0.026072 0.003516 0.059799
v 0.020822 -0.056387 0.059982
v 0.025706 0.00315 0.059811
v 0.025606 0.002909 0.059815
v 0.025572 0.00265 0.06096
v 0.028072 0.00365 0.0608725
v 0.028072 0.00365 0.059729
v 0.038822 0.006442 0.059353
v 0.025572 -0.00435 0.059816
v 0.025572 -0.00435 0.059816
v 0.025648 -0.004733 0.059813
v 0.025865 -0.005057 0.059806
v 0.026072 -0.04935 0.059799
v 0.02619 -0.005274 0.059795
v 0.026572 -0.00535 0.060925
v 0.028072 -0.00535 0.059729
v 0.028072 -0.00535 0.059729
v 0.038822 -0.062646 0.004891
v 0.038822 -0.061961 0.00474
v 0.020822 -0.081604 0.019096
v 0.029839 -0.081919 0.020502
v 0.038822 -0.0757315 0.0122098
v 0.038822 -0.074413 0.010873
v 0.038822 -0.063328 0.005059
v 0.038822 -0.066657 0.006154
v 0.038822 -0.066003 0.005901
v 0.038822 -0.065342 0.005665
v 0.038822 -0.064676 0.005446
v 0.038822 -0.064004 0.005244
v 0.038822 -0.061272 0.004607
v 0.038822 -0.060509 0.004483
v 0.038822 -0.059189 0.004314
v 0.038822 -0.056387 0.004171
v 0.029072 0.00265 0.003831
v 0.025606 0.002909 0.00371
v 0.038822 0.006442 0.004171
v 0.029072 -0.00435 0.003831
v 0.028996 -0.004733 0.003828
v 0.028926 -0.040496 0.003826
v 0.0273222 -0.040369 0.00377
v 0.038822 0.01629 0.005993
v 0.038822 -0.0729333 0.00978125
v 0.038822 0.0305601 0.0191305
v 0.038822 -0.067336 0.057084
v 0.038822 -0.065266 0.057882
v 0.038822 -0.061693 0.004691
v 0.038822 -0.062317 0.00482
v 0.038822 -0.062937 0.004964
v 0.038822 -0.063554 0.005123
v 0.038822 -0.064167 0.005295
v 0.038822 -0.064776 0.005482
v 0.038822 -0.06538 0.005682
v 0.038822 0.006442 0.059349
v 0.038822 0.0201195 0.0557015
v 0.038822 0.014831 0.058043
v 0.038822 0.014222 0.05823
v 0.038822 -0.056387 0.059349
v 0.038822 -0.056952 0.059344
v 0.038822 -0.057517 0.059326
v 0.038822 -0.058081 0.059297
v 0.038822 -0.058645 0.059257
v 0.038822 -0.060887 0.05898
v 0.038822 -0.061998 0.058773
v 0.038822 -0.06255 0.058652
v 0.038822 -0.063099 0.058521
v 0.038822 -0.063646 0.058378
v 0.038822 -0.064189 0.058223
v 0.038822 -0.064729 0.058058
v 0.038822 -0.080271 0.045014
v 0.038822 -0.065889 0.005863
v 0.038822 -0.066394 0.006054
v 0.038822 -0.066895 0.006255
v 0.038822 0.009131 0.004307
v 0.038822 0.011304 0.004607
v 0.038822 0.011872 0.004715
v 0.038822 0.012437 0.004835
v 0.038822 0.013 0.004966
v 0.038822 0.013561 0.00511
v 0.038822 0.014118 0.005265
v 0.038822 0.014671 0.005431
v 0.038822 0.015221 0.00561
v 0.038822 0.019519 0.05605
v 0.038822 0.012992 0.058561
v 0.038822 0.013609 0.058402
v 0.038822 -0.056387 0.004175
v 0.038822 0.006442 0.004175
v 0.038822 0.006981 0.004181
v 0.038822 0.007519 0.004197
v 0.038822 0.008057 0.004223
v 0.038822 0.008594 0.00426
v 0.038822 0.0309456 0.0439187
v 0.038822 0.0328828 0.0387243
v 0.038822 0.032771 0.038751
v 0.038822 0.033518 0.034541
v 0.0432425 0.005069 0.042762
v 0.044411 0.004786 0.042762
v 0.044526 0.001486 0.042762
v 0.043391 0.0012365 0.042762
v 0.0435815 -0.005704 0.042762
v 0.0430445 -0.0075455 0.042762
v 0.0436395 -0.0094385 0.042762
v 0.0436625 -0.0118555 0.042762
v 0.0397865 -0.083894 0.020764
v 0.039604 -0.083894 0.020434
v 0.040598 -0.083894 0.0235735
v 0.0401095 -0.083894 0.0215055
v 0.0411615 -0.083894 0.0305015
v 0.0411275 -0.083894 0.034281
v 0.0408615 -0.083894 0.0380455
v 0.0397835 -0.083894 0.042757
v 0.040129 -0.083894 0.04204
v 0.0392465 -0.083894 0.0433535
v 0.0409165 -0.083894 0.026375
v 0.039141 -0.082244 0.037598
v 0.039248 -0.082248 0.035209
v 0.039351 -0.082251 0.031762
v 0.039354 -0.082252 0.031278
v 0.03918 -0.0822455 0.026462
v 0.0388585 -0.0822345 0.023436
v 0.03902 -0.08224 0.024893
v 0.039024 -0.08224 0.038631
v 0.04047 0.002331 0.056958
v 0.041683 -0.00365 0.051689
v 0.041922 -0.00316 0.049797
v 0.042519 -0.0114355 0.042762
v 0.042455 -0.006615 0.042762
v 0.040959 0.003478 0.055129
v 0.04179 -0.004617 0.050798
v 0.04066 0.001559 0.056297
f 1 12 5
f 7 6 9
f 8 10 11
f 238 240 225
f 250 251 249
f 36 4 252
f 253 36 248
f 264 255 265
f 259 270 254
f 291 294 293
f 3 2 292
f 295 297 296
f 299 280 279
f 301 29 28
f 301 28 302
f 302 28 25
f 302 25 26
f 303 276 304
f 304 276 275
f 304 275 305
f 305 275 281
f 305 281 306
f 306 281 286
f 307 286 285
f 308 285 284
f 18 221 310
f 310 221 220
f 310 220 219
f 216 312 313
f 216 313 217
f 310 314 18
f 18 314 315
f 18 315 19
f 19 315 316
f 20 316 317
f 20 317 21
f 21 317 318
f 16 319 17
f 17 319 320
f 17 320 22
f 22 320 321
f 23 321 322
f 23 322 24
f 24 322 323
f 27 323 324
f 27 324 26
f 26 324 325
f 26 325 302
f 32 326 31
f 309 284 327
f 327 284 283
f 327 283 328
f 328 283 282
f 328 282 329
f 206 330 207
f 208 331 332
f 208 332 209
f 209 332 333
f 209 333 210
f 210 333 334
f 210 334 212
f 212 335 336
f 213 336 337
f 214 337 338
f 214 338 211
f 211 338 298
f 311 339 215
f 340 218 217
f 340 217 341
f 341 217 313
f 203 290 342
f 342 290 289
f 342 289 288
f 303 287 276
f 342 343 203
f 203 343 344
f 203 344 204
f 204 344 345
f 204 345 205
f 205 345 346
f 206 346 347
f 206 347 330
f 120 300 134
f 349 350 348
f 165 143 351
f 165 351 349
f 385 380 381
f 386 379 384
f 354 355 352
f 354 352 353
f 359 382 358
f 356 357 383
f 242 274 243
f 273 272 244
f 245 271 232
f 231 269 233
f 234 268 236
f 235 266 237
f 267 262 239
f 226 241 261
f 224 260 228
f 227 258 230
f 229 257 222
f 256 263 223
f 201 104 202
f 170 106 168
f 169 105 167
f 166 101 176
f 108 107 198
f 174 173 109
f 110 192 175
f 102 171 103
f 159 161 93
f 149 158 92
f 147 150 85
f 86 193 87
f 84 148 146
f 79 82 196
f 80 78 194
f 94 160 88
f 200 199 95
f 189 195 100
f 99 97 191
f 98 190 188
f 90 89 156
f 96 91 153
f 81 197 83
f 181 115 179
f 180 114 178
f 177 111 182
f 116 172 117
f 184 119 185
f 186 118 187
f 112 183 113
f 63 137 64
f 62 34 157
f 65 139 67
f 155 163 77
f 151 154 76
f 75 164 152
f 68 66 141
f 70 69 142
f 73 71 145
f 74 72 144
f 33 162 35
f 50 132 51
f 49 48 136
f 53 52 133
f 58 140 59
f 56 135 57
f 55 54 130
f 60 138 61
f 38 128 40
f 39 127 41
f 43 42 126
f 129 44 121
f 122 45 124
f 123 46 125
f 131 37 47
f 247 246 13
f 367 369 247
f 367 247 368
f 247 360 363
f 363 362 247
f 247 362 370
f 364 247 370
f 247 364 365
f 365 366 247
f 247 13 361
f 247 361 360
f 14 30 15
f 376 278 277
f 277 374 375
f 15 378 371
f 277 375 377
f 277 377 376
f 371 372 15
f 15 372 373
f 15 373 277
f 277 373 374
