v -0.044159 0.098462 0.020883
v -0.03284 0.100433 0.020634
v -0.043176 0.097179 0.02702
v -0.034231 0.103389 0.021265
v -0.033542 0.101902 0.026724
v -0.0443175 0.098348 0.026706
v -0.032965 0.101326 0.021107
v -0.042704 0.095546 0.026389
v -0.033758 0.101756 0.020635
v -0.035603 0.104395 0.027039
v -0.044232 0.098411 0.021147
v -0.04225 0.095865 0.020616
v -0.034461 0.103226 0.026725
v -0.034454 0.103235 0.020951
v -0.033535 0.101911 0.02095
v -0.033535 0.101911 0.02095
f 6 8 3
f 10 5 13
f 11 1 12
f 16 7 2
f 14 15 9
f 4 7 16
