v -0.104409 0.130618 -0.026619
v -0.091791 0.138436 -0.025088
v -0.085912 0.140202 -0.026619
v -0.102077 0.127752 -0.029088
v -0.119523 0.107759 -0.027916
v -0.117556 0.114459 -0.026619
v -0.120339 0.10805 -0.026619
v -0.0721 0.142101 -0.026619
v -0.0721 0.142405 -0.025088
v -0.092496 0.137863 -0.026619
v -0.108455 0.127256 -0.025088
v -0.109516 0.125849 -0.026619
v -0.103043 0.128939 -0.028784
v -0.106815 0.123327 -0.029088
v -0.122523 0.080427 -0.025088
v -0.120339 0.073761 -0.026619
v -0.120626 0.073659 -0.025088
v -0.114561 0.116726 -0.023833
v -0.04469 0.129737 -0.025998
v -0.039658 0.125643 -0.025998
v -0.038772 0.126591 -0.02513
v -0.08177 0.137442 -0.025998
v -0.082034 0.138712 -0.02513
v -0.116886 0.110359 -0.02513
v -0.11382 0.116276 -0.02513
v -0.075432 0.13962 -0.02513
v -0.075344 0.138325 -0.025998
v -0.034223 0.12172 -0.02513
v -0.03523 0.120901 -0.025998
v -0.121795 0.090905 -0.023833
v -0.117681 0.110704 -0.023833
v -0.119118 0.104079 -0.02513
v -0.100758 0.131505 -0.023833
v -0.100758 0.131505 -0.023833
v -0.088452 0.136914 -0.02513
v -0.082211 0.139561 -0.023833
v -0.055458 0.137732 -0.023833
v -0.043942 0.130797 -0.02513
v -0.1221 0.090905 -0.022302
v -0.110649 0.122268 -0.023833
v -0.10602 0.127225 -0.023833
v -0.105428 0.126591 -0.02513
v -0.100934 0.131754 -0.022302
v -0.099283 0.132758 -0.022302
v -0.061989 0.139561 -0.023833
v -0.062166 0.138712 -0.02513
v -0.114553 0.118402 -0.017203
v -0.114558 0.118405 -0.017195
v -0.114558 0.118405 -0.017195
v -0.114187 0.118165 -0.017888
v -0.114187 0.118165 -0.017888
v -0.114187 0.118165 -0.017888
v -0.114187 0.118165 -0.017888
v -0.114187 0.118165 -0.017888
v -0.114194 0.11817 -0.017844
v -0.117043 0.113162 -0.017844
v -0.114187 0.118165 -0.017888
v -0.114066 0.118087 -0.018609
v -0.116907 0.113094 -0.018609
v -0.115102 0.118758 -0.016761
v -0.115102 0.118758 -0.016761
v -0.115124 0.118772 -0.016756
v -0.134461 0.09871 -0.017875
v -0.130614 0.113838 -0.017875
v -0.133009 0.106394 -0.017875
v -0.133157 0.106431 -0.017109
v -0.133009 0.106394 -0.017875
v -0.134006 0.101938 -0.017109
v -0.118212 0.133608 -0.017875
v -0.123282 0.12764 -0.017109
v -0.119976 0.131688 -0.017109
v -0.112125 0.139509 -0.017109
v -0.106266 0.143655 -0.017875
v -0.106348 0.143783 -0.017109
v -0.076918 0.153568 -0.017875
v -0.076929 0.15372 -0.017109
v -0.07105 0.153805 -0.017109
v -0.06003 0.152669 -0.017109
v -0.053676 0.151151 -0.017109
v -0.122806 0.127299 -0.018523
v -0.117894 0.133314 -0.018523
v -0.084575 0.15206 -0.018523
v -0.076884 0.153136 -0.018523
v -0.053847 0.150591 -0.018523
v -0.061512 0.151756 -0.018957
v -0.054037 0.14997 -0.018957
v -0.117109 0.115934 -0.021109
v -0.119631 0.110591 -0.021109
v -0.120029 0.109748 -0.021109
v -0.122495 0.080882 -0.021109
v -0.114858 0.062331 -0.025088
v -0.114836 0.062353 -0.021109
v -0.112049 0.058404 -0.021109
v -0.12006 0.131757 -0.007359
v -0.071051 0.153897 -0.007359
v -0.060014 0.152735 -0.007359
v -0.113113 0.119506 -0.01834
v -0.113113 0.119506 -0.01834
v -0.113113 0.119506 -0.01834
v -0.10772 0.125994 -0.017563
v -0.107773 0.12594 -0.017532
v -0.107773 0.12594 -0.017532
v -0.108896 0.124752 -0.017192
v -0.108896 0.124752 -0.017192
v -0.109119 0.124515 -0.017124
v -0.109119 0.124515 -0.017124
v -0.109994 0.123512 -0.01708
v -0.109994 0.123512 -0.01708
v -0.110424 0.123019 -0.017059
v -0.111043 0.122249 -0.017204
v -0.111043 0.122249 -0.017204
v -0.111698 0.121434 -0.017357
v -0.111698 0.121434 -0.017357
v -0.111698 0.121434 -0.017357
v -0.112185 0.120792 -0.017621
v -0.113056 0.119583 -0.018297
v -0.113056 0.119583 -0.018297
v -0.106527 0.127166 -0.018335
v -0.106527 0.127166 -0.018335
v -0.106527 0.127166 -0.018335
v -0.106584 0.127109 -0.018298
v -0.106829 0.126869 -0.018141
v -0.107668 0.126046 -0.017602
v -0.105254 0.128333 -0.018609
v -0.105254 0.128333 -0.018609
v -0.102377 0.130696 -0.018609
v -0.102377 0.130696 -0.018609
v -0.102377 0.130696 -0.018609
v -0.099332 0.132839 -0.018609
v -0.099332 0.132839 -0.018609
v -0.09083 0.137265 -0.018609
v -0.086301 0.138846 -0.018609
v -0.08164 0.139987 -0.018609
v -0.08164 0.139987 -0.018609
v -0.076892 0.140675 -0.018609
v -0.076892 0.140675 -0.018609
v -0.067308 0.140675 -0.018609
v -0.06256 0.139987 -0.018609
v -0.06256 0.139987 -0.018609
v -0.06256 0.139987 -0.018609
v -0.057899 0.138846 -0.018609
v -0.049013 0.135256 -0.018609
v -0.037367 0.126872 -0.018609
v -0.126149 0.065738 -0.01573
v -0.123463 0.059785 -0.015081
v -0.126738 0.065463 -0.014757
v -0.126945 0.065367 -0.013609
v -0.128654 0.069414 -0.005609
v -0.12858 0.069444 -0.013609
v -0.11483 0.119459 -0.021109
v -0.120144 0.109793 -0.020417
v -0.113329 0.123876 -0.019271
v -0.112639 0.124073 -0.019453
v -0.112639 0.124073 -0.019453
v -0.113495 0.121751 -0.020417
v -0.113371 0.123865 -0.01926
v -0.112117 0.124443 -0.019587
v -0.111223 0.125445 -0.019599
v -0.111223 0.125445 -0.019599
v -0.111157 0.125535 -0.01959
v -0.110825 0.12669 -0.019264
v -0.113734 0.123761 -0.019164
v -0.114327 0.123756 -0.019109
v -0.117217 0.115994 -0.020417
v -0.117217 0.115994 -0.020417
v -0.103937 0.131543 -0.020417
v -0.117621 0.116218 -0.019695
v -0.098271 0.135403 -0.020417
v -0.104222 0.131906 -0.019695
v -0.029504 0.120731 -0.016609
v -0.026841 0.116511 -0.016609
v -0.096111 0.13703 -0.016609
v -0.096111 0.13703 -0.016609
v -0.100421 0.134516 -0.016609
v -0.091579 0.139119 -0.016609
v -0.071143 0.148397 -0.016609
v -0.065926 0.149581 -0.016207
v -0.121837 0.07697 -0.020344
v -0.123271 0.083872 -0.020344
v -0.112777 0.135346 -0.013609
v -0.086946 0.149556 -0.013609
v -0.092054 0.14802 -0.013609
v -0.081723 0.150635 -0.013609
v -0.086946 0.149556 -0.013609
v -0.086848 0.149166 -0.015109
v -0.091922 0.14764 -0.015109
v -0.111758 0.136061 -0.015109
v -0.111758 0.136061 -0.015109
v -0.071118 0.149897 -0.016207
v -0.106068 0.140483 -0.015109
v -0.111034 0.135236 -0.016207
v -0.126193 0.117488 -0.014757
v -0.128257 0.110932 -0.01573
v -0.12887 0.111151 -0.014757
v -0.114821 0.064926 -0.022302
v -0.121027 0.081174 -0.022302
v -0.110886 0.059351 -0.022302
v -0.113592 0.063185 -0.022302
v -0.113592 0.063185 -0.022302
v -0.055356 0.043792 -0.022302
v -0.061927 0.041951 -0.022302
v -0.029379 0.064926 -0.022302
v -0.030608 0.063185 -0.022302
v -0.033314 0.059351 -0.022302
v -0.036809 0.05561 -0.022302
v -0.132778 0.073958 -0.007359
v -0.132688 0.073983 -0.017109
v -0.13361 0.077286 -0.017109
v -0.065087 0.141926 -0.025088
v -0.052409 0.138436 -0.025088
v -0.051582 0.138142 -0.025088
v -0.039599 0.130855 -0.025088
v 0.033736 0.044209 -0.018523
v 0.03185 0.052475 -0.018957
v 0.03309 0.04414 -0.018957
v -0.010857 0.118777 -0.01573
v -0.020405 0.127177 -0.01573
v -0.010411 0.11925 -0.014757
v -0.112411 0.135179 -0.015109
v -0.107148 0.128991 -0.016499
v -0.106943 0.129295 -0.016539
v -0.107946 0.127445 -0.015956
v -0.107948 0.127386 -0.015965
v -0.107948 0.127386 -0.015965
v -0.107991 0.126781 -0.016047
v -0.107991 0.126781 -0.016047
v -0.107966 0.126832 -0.016043
v -0.107966 0.126832 -0.016043
v -0.107966 0.126832 -0.016043
v -0.108449 0.12584 -0.016128
v -0.108449 0.12584 -0.016128
v -0.110128 0.123619 -0.016278
v -0.110121 0.123626 -0.016278
v -0.109783 0.123991 -0.016298
v -0.109783 0.123991 -0.016298
v -0.109783 0.123991 -0.016298
v -0.10902 0.12505 -0.016201
v -0.111142 0.122523 -0.016217
v -0.111338 0.122311 -0.016205
v -0.11151 0.122125 -0.016195
v -0.113533 0.120894 -0.015964
v -0.113533 0.120894 -0.015964
v -0.112943 0.121026 -0.016045
v -0.11291 0.121033 -0.016049
v -0.113591 0.120881 -0.015956
v -0.115414 0.11947 -0.016547
v -0.115414 0.11947 -0.016547
v -0.115266 0.119602 -0.01652
v -0.11476 0.120054 -0.016425
v -0.114746 0.120067 -0.016422
v -0.114738 0.120074 -0.016421
v -0.113819 0.123754 -0.019109
v -0.113819 0.123754 -0.019109
v -0.110822 0.126732 -0.019109
v -0.110948 0.126063 -0.019109
v -0.11121 0.125435 -0.019109
v -0.11121 0.125435 -0.019109
v -0.112093 0.124409 -0.019109
v -0.112374 0.124217 -0.019109
v -0.112674 0.124056 -0.019109
v -0.112674 0.124056 -0.019109
v -0.113317 0.123831 -0.019109
v -0.113317 0.123831 -0.019109
v -0.113317 0.123831 -0.019109
v -0.065632 0.137963 -0.029088
v -0.059285 0.136644 -0.029088
v -0.033294 0.118298 -0.029088
v -0.1122 0.120927 -0.017118
v -0.1122 0.120927 -0.017118
v -0.112428 0.120688 -0.017127
v -0.112428 0.120688 -0.017127
v -0.112428 0.120688 -0.017127
v -0.112355 0.12088 -0.016711
v -0.112355 0.12088 -0.016711
v -0.112355 0.12088 -0.016711
v -0.112355 0.12088 -0.016711
v -0.113266 0.120742 -0.016136
v -0.113266 0.120742 -0.016136
v -0.113266 0.120742 -0.016136
v -0.113266 0.120742 -0.016136
v -0.113154 0.120721 -0.016244
v -0.113154 0.120721 -0.016244
v -0.113154 0.120721 -0.016244
v -0.112637 0.120957 -0.016374
v -0.112637 0.120957 -0.016374
v -0.113137 0.120718 -0.01626
v -0.112632 0.120956 -0.01638
v -0.112737 0.120641 -0.016646
v -0.112737 0.120641 -0.016646
v -0.112357 0.12088 -0.016706
v -0.112357 0.12088 -0.016706
v -0.112357 0.12088 -0.016706
v -0.112725 0.120639 -0.016657
v -0.112599 0.120615 -0.016778
v -0.112599 0.120615 -0.016778
v -0.111226 0.122259 -0.01644
v -0.111226 0.122259 -0.01644
v -0.111145 0.122237 -0.016675
v -0.111145 0.122237 -0.016675
v -0.111145 0.122237 -0.016675
v -0.111145 0.122237 -0.016675
v -0.107845 0.126559 -0.016369
v -0.107845 0.126559 -0.016369
v -0.107845 0.126559 -0.016369
v -0.107845 0.126559 -0.016369
v -0.107845 0.126559 -0.016369
v -0.107845 0.126559 -0.016369
v -0.10893 0.124931 -0.016438
v -0.10893 0.124931 -0.016438
v -0.10893 0.124931 -0.016438
v -0.10893 0.124931 -0.016438
v -0.10893 0.124931 -0.016438
v -0.107843 0.126554 -0.016376
v -0.107843 0.126554 -0.016376
v -0.107843 0.126554 -0.016376
v -0.107843 0.126554 -0.016376
v -0.107843 0.126554 -0.016376
v -0.107843 0.126554 -0.016376
v -0.107843 0.126554 -0.016376
v -0.108895 0.124853 -0.016676
v -0.108895 0.124853 -0.016676
v -0.108895 0.124853 -0.016676
v -0.108895 0.124853 -0.016676
v -0.108895 0.124853 -0.016676
v -0.108895 0.124853 -0.016676
v -0.108895 0.124853 -0.016676
v -0.108895 0.124853 -0.016676
v -0.110026 0.123541 -0.016666
v -0.110026 0.123541 -0.016666
v -0.110026 0.123541 -0.016666
v -0.110026 0.123541 -0.016666
v -0.107739 0.125987 -0.017361
v -0.107708 0.126084 -0.017091
v -0.107721 0.126277 -0.016709
v -0.107721 0.126277 -0.016709
v -0.107721 0.126279 -0.016704
v -0.107721 0.126279 -0.016704
v -0.11412 0.118967 -0.017195
v -0.11412 0.118967 -0.017195
v -0.11412 0.118967 -0.017195
v -0.11412 0.118967 -0.017195
v -0.11412 0.118967 -0.017195
v -0.113258 0.11949 -0.017684
v -0.113258 0.11949 -0.017684
v -0.113258 0.11949 -0.017684
v -0.113258 0.11949 -0.017684
v -0.113669 0.120235 -0.016462
v -0.113669 0.120235 -0.016462
v -0.113669 0.120235 -0.016462
v -0.113669 0.120235 -0.016462
v -0.113659 0.119539 -0.017084
v -0.113659 0.119539 -0.017084
v -0.113659 0.119539 -0.017084
v -0.113659 0.119539 -0.017084
v -0.11468 0.119256 -0.016742
v -0.11468 0.119256 -0.016742
v -0.11468 0.119256 -0.016742
v -0.114196 0.119744 -0.016644
v -0.114196 0.119744 -0.016644
v -0.114196 0.119744 -0.016644
v -0.107567 0.126283 -0.017109
v -0.107567 0.126283 -0.017109
v -0.107563 0.126234 -0.017176
v -0.107563 0.126234 -0.017176
v -0.107567 0.126282 -0.017111
v -0.107734 0.12703 -0.016257
v -0.107734 0.12703 -0.016257
v -0.107734 0.12703 -0.016257
v -0.107725 0.127013 -0.016269
v -0.107725 0.127013 -0.016269
v -0.107725 0.127013 -0.016269
v -0.107594 0.126626 -0.016647
v -0.107594 0.126626 -0.016647
v -0.107595 0.126634 -0.016636
v -0.107595 0.126634 -0.016636
v -0.107595 0.126634 -0.016636
v -0.107607 0.126782 -0.016437
v -0.107607 0.126782 -0.016437
v -0.107607 0.126782 -0.016437
v -0.10538 0.128475 -0.017901
v -0.10538 0.128475 -0.017901
v -0.10538 0.128475 -0.017901
v -0.10538 0.128475 -0.017901
v -0.10567 0.128802 -0.01725
v -0.10567 0.128802 -0.01725
v -0.10567 0.128802 -0.01725
v -0.10567 0.128802 -0.01725
v -0.10567 0.128802 -0.01725
v -0.105432 0.128533 -0.017609
v -0.102539 0.130909 -0.017609
v -0.102539 0.130909 -0.017609
v -0.102539 0.130909 -0.017609
v -0.102539 0.130909 -0.017609
v -0.102539 0.130909 -0.017609
v -0.105917 0.129081 -0.016877
v -0.105917 0.129081 -0.016877
v -0.102982 0.131492 -0.016877
v -0.102982 0.131492 -0.016877
v -0.102982 0.131492 -0.016877
v -0.099478 0.133064 -0.017609
v -0.099478 0.133064 -0.017609
v -0.095311 0.135494 -0.017609
v -0.090931 0.137513 -0.017609
v -0.090931 0.137513 -0.017609
v -0.090931 0.137513 -0.017609
v -0.086377 0.139103 -0.017609
v -0.086377 0.139103 -0.017609
v -0.086377 0.139103 -0.017609
v -0.086377 0.139103 -0.017609
v -0.081692 0.14025 -0.017609
v -0.081692 0.14025 -0.017609
v -0.081692 0.14025 -0.017609
v -0.076918 0.140942 -0.017609
v -0.0721 0.141173 -0.017609
v -0.067282 0.140942 -0.017609
v -0.067282 0.140942 -0.017609
v -0.067282 0.140942 -0.017609
v -0.062508 0.14025 -0.017609
v -0.062508 0.14025 -0.017609
v -0.057823 0.139103 -0.017609
v -0.053269 0.137513 -0.017609
v -0.053269 0.137513 -0.017609
v -0.048889 0.135494 -0.017609
v -0.040807 0.130246 -0.017609
v -0.037181 0.127065 -0.017609
v -0.028349 0.115658 -0.017609
v -0.026178 0.111351 -0.017609
v -0.099877 0.133678 -0.016877
v -0.095649 0.136143 -0.016877
v -0.095649 0.136143 -0.016877
v -0.095649 0.136143 -0.016877
v -0.091205 0.138192 -0.016877
v -0.091205 0.138192 -0.016877
v -0.091205 0.138192 -0.016877
v -0.091205 0.138192 -0.016877
v -0.086585 0.139805 -0.016877
v -0.0721 0.141905 -0.016877
v -0.057615 0.139805 -0.016877
v -0.052995 0.138192 -0.016877
v -0.027712 0.116019 -0.016877
v -0.027712 0.116019 -0.016877
v -0.106521 0.127323 -0.017684
v -0.106521 0.127323 -0.017684
v -0.106521 0.127323 -0.017684
v -0.106521 0.127323 -0.017684
v -0.106521 0.127323 -0.017684
v -0.106629 0.127713 -0.017084
v -0.106629 0.127713 -0.017084
v -0.106629 0.127713 -0.017084
v -0.106629 0.127713 -0.017084
v -0.106629 0.127713 -0.017084
v -0.106629 0.127713 -0.017084
v -0.106912 0.128213 -0.016644
v -0.106912 0.128213 -0.016644
v -0.107319 0.127619 -0.016462
v -0.107319 0.127619 -0.016462
v -0.106133 0.128254 -0.017195
v -0.106133 0.128254 -0.017195
v -0.106133 0.128254 -0.017195
v -0.106502 0.128765 -0.016742
v -0.106502 0.128765 -0.016742
v -0.106502 0.128765 -0.016742
v -0.106502 0.128765 -0.016742
v -0.106502 0.128765 -0.016742
v -0.029639 0.065084 -0.023833
v -0.119953 0.077498 -0.023833
v -0.119953 0.077498 -0.023833
v -0.119118 0.077732 -0.02513
v -0.055458 0.044079 -0.023833
v -0.110649 0.059543 -0.023833
v -0.114561 0.065084 -0.023833
v -0.033551 0.059543 -0.023833
v -0.121333 0.084138 -0.023833
v -0.121333 0.084138 -0.023833
v -0.121333 0.084138 -0.023833
v -0.058288 0.140202 -0.026619
v -0.058288 0.140202 -0.026619
v -0.058288 0.140202 -0.026619
v -0.028566 0.113463 -0.028784
v -0.034684 0.125849 -0.026619
v -0.039791 0.130618 -0.026619
v -0.052049 0.137067 -0.027916
v -0.0455 0.134648 -0.026619
v -0.051704 0.137863 -0.026619
v -0.051704 0.137863 -0.026619
v -0.051704 0.137863 -0.026619
v -0.032043 0.11918 -0.028784
v -0.058522 0.139368 -0.027916
v -0.058522 0.139368 -0.027916
v -0.058872 0.138118 -0.028784
v -0.065129 0.141624 -0.026619
v -0.065247 0.140765 -0.027916
v -0.065247 0.140765 -0.027916
v -0.065424 0.139479 -0.028784
v -0.035397 -0.071654 -0.0315
v -0.035397 -0.071654 -0.0315
v -0.03595 -0.071375 -0.0315
v -0.036639 -0.07053 -0.0315
v -0.032917 -0.072608 -0.0315
v 0.010537 0.018947 -0.0315
v 0.009536 0.021695 -0.0315
v -0.038235 -0.070041 -0.0315
v -0.038235 -0.070041 -0.0315
v 0.031668 0.034059 -0.0315
v 0.031668 0.034059 -0.0315
v 0.032245 0.033157 -0.0315
v 0.0324 0.032292 -0.0315
v 0.03283 0.032292 -0.0315
v -0.034455 -0.074992 -0.007485
v -0.036183 -0.074136 -0.032
v -0.036183 -0.074136 -0.032
v -0.037726 -0.072978 -0.007485
v -0.037726 -0.072978 -0.032
v -0.040054 -0.069923 -0.007485
v -0.040054 -0.069923 -0.032
v -0.04076 -0.068129 -0.032
v -0.04076 -0.068129 -0.032
v -0.04076 -0.068129 -0.032
v -0.041127 -0.066235 -0.007485
v -0.041127 -0.066235 -0.032
v -0.000203 -0.073844 -0.024326
v -0.001103 -0.073844 -0.024567
v -0.001761 -0.073844 -0.025226
v -0.002003 -0.073844 -0.026126
v 0.001356 -0.073844 -0.027026
v 0.001372 -0.075194 -0.023398
v -0.055281 0.036414 -0.019235
v -0.055386 0.036346 -0.019235
v -0.056108 0.035881 -0.019235
v -0.056881 0.035138 -0.019235
v -0.056881 0.035138 -0.019235
v -0.056987 0.035037 -0.019235
v -0.056987 0.035037 -0.019235
v -0.058454 0.033148 -0.019235
v -0.057863 0.03394 -0.019235
v -0.058132 0.033579 -0.019235
v -0.057003 0.029772 -0.021235
v -0.057003 0.024873 -0.017235
v -0.057003 0.028148 -0.020861
v -0.057003 -0.027494 -0.007485
v -0.057003 0.027909 -0.020805
v -0.052173 -0.033379 -0.032
v -0.056546 -0.02979 -0.007485
v -0.056546 -0.02979 -0.032
v -0.056887 -0.028665 -0.032
v 0.034972 0.037292 -0.017276
v 0.034825 0.037292 -0.017926
v 0.034825 0.037292 -0.017926
v 0.034796 0.037292 -0.018055
v 0.030353 0.037292 -0.016541
v 0.035443 -0.07199 -0.007485
v 0.0359 -0.069694 -0.007485
v 0.035315 0.032615 -0.032
v 0.033753 0.035921 -0.019106
v 0.035005 0.034052 -0.018132
v 0.035005 0.034052 -0.018132
v 0.035283 0.032938 -0.017438
v 0.035088 0.033717 -0.017923
v 0.031684 0.034043 -0.015677
v 0.031666 0.034056 -0.015693
v 0.031499 0.034175 -0.015836
v 0.030418 0.034708 -0.016526
v 0.030183 0.034776 -0.016628
v -0.036048 -0.071125 -0.005735
v -0.036048 -0.071125 -0.005735
v -0.036048 -0.071125 -0.005735
v -0.037821 -0.068797 -0.005735
v -0.037821 -0.068797 -0.005735
v -0.037821 -0.068797 -0.005735
v -0.038639 -0.065987 -0.005735
v -0.038639 -0.065987 -0.005735
v 0.0359 -0.069694 -0.032
v 0.035785 -0.070865 -0.032
v 0.03283 0.032292 -0.007235
v 0.0324 0.032292 -0.007235
v 0.0324 0.032292 -0.013735
v 0.034202 0.035449 -0.032
v 0.033617 0.035955 -0.032
v 0.032889 0.036584 -0.032
v 0.031807 0.036996 -0.032
v -0.05293 0.035145 -0.034
v -0.053766 0.034719 -0.034
v -0.022204 0.020851 -0.034
v -0.020329 0.021353 -0.034
v -0.018454 0.024601 -0.034
v -0.018956 0.026476 -0.034
v -0.032301 -0.073028 -0.030005
v -0.032267 -0.073035 -0.030011
v -0.038441 -0.06798 -0.030008
v -0.038433 -0.068057 -0.03
v -0.038433 -0.068057 -0.03
v -0.038303 -0.06936 -0.030042
v -0.038639 -0.065987 -0.030544
v -0.038639 -0.065987 -0.030544
v -0.038631 -0.066071 -0.030486
v -0.038631 -0.066071 -0.030486
v -0.038631 -0.066071 -0.030486
v -0.038613 -0.066252 -0.030379
v -0.038594 -0.06644 -0.030288
v -0.05709 0.025665 -0.017505
v -0.057088 0.025646 -0.017499
v -0.058653 0.029772 -0.019329
v -0.058276 0.029772 -0.01943
v -0.05806 0.032292 -0.019471
v -0.05806 0.032292 -0.019471
v -0.058008 0.032292 -0.01951
v -0.057595 0.032292 -0.019814
v -0.05763 0.029772 -0.019876
v -0.057271 0.029772 -0.020235
v -0.057192 0.029772 -0.020527
v -0.057248 0.032292 -0.020276
v -0.057248 0.032292 -0.020276
v -0.057276 0.032292 -0.020239
v -0.057276 0.032292 -0.020239
v -0.057259 0.026925 -0.018779
v -0.057361 0.027509 -0.019164
v -0.057088 0.027127 -0.01958
v -0.057088 0.027127 -0.01958
v -0.057044 0.025612 -0.017794
v -0.057044 0.025612 -0.017794
v -0.057096 0.025789 -0.0177
v -0.05712 0.028396 -0.020283
v -0.05712 0.028396 -0.020283
v -0.057037 0.025987 -0.018515
v -0.057561 0.027674 -0.018984
v -0.057144 0.0263 -0.018317
v -0.058097 0.028818 -0.019259
v -0.056758 0.033837 -0.032
v -0.056758 0.033837 -0.032
v -0.056825 0.033611 -0.021235
v -0.056284 0.034767 -0.032
v -0.056281 0.034768 -0.021235
v -0.054478 0.036573 -0.032
v -0.054478 0.03657 -0.021235
v -0.053548 0.037047 -0.032
v -0.055366 0.036345 -0.019273
v -0.05645 0.035167 -0.019839
v -0.05645 0.035167 -0.019839
v -0.05645 0.035167 -0.019839
v -0.057976 0.033611 -0.019315
v -0.057976 0.033611 -0.019315
v -0.057976 0.033611 -0.019315
v -0.05747 0.033611 -0.019688
v -0.057092 0.033611 -0.020191
v -0.057092 0.033611 -0.020191
v -0.057092 0.033611 -0.020191
v -0.056874 0.033611 -0.02078
v -0.056874 0.033611 -0.02078
v -0.04086 -0.066208 -0.033
v -0.040926 -0.066215 -0.032752
v -0.040926 -0.066215 -0.032752
v -0.044611 -0.036008 -0.033
v -0.045614 -0.034848 -0.033
v -0.045614 -0.034848 -0.033
v -0.046868 -0.033965 -0.033
v -0.046868 -0.033965 -0.033
v -0.04982 -0.033226 -0.033
v -0.044003 -0.035601 -0.033732
v -0.045122 -0.034305 -0.033732
v -0.045122 -0.034305 -0.033732
v -0.046523 -0.03332 -0.033732
v -0.048121 -0.032704 -0.033732
v -0.04982 -0.032494 -0.033732
v -0.051003 -0.033226 -0.033
v -0.055622 -0.029408 -0.033732
v -0.05516 -0.030272 -0.033732
v -0.05516 -0.030272 -0.033732
v -0.054538 -0.03103 -0.033732
v -0.054538 -0.03103 -0.033732
v -0.056298 -0.029688 -0.033
v -0.056298 -0.029688 -0.033
v -0.055769 -0.030679 -0.033
v -0.055769 -0.030679 -0.033
v -0.055769 -0.030679 -0.033
v -0.055769 -0.030679 -0.033
v -0.055056 -0.031547 -0.033
v -0.052121 -0.033116 -0.033
v 0.032678 -0.073852 -0.033732
v 0.033436 -0.07323 -0.033732
v 0.033436 -0.07323 -0.033732
v 0.034057 -0.072472 -0.033732
v 0.0349 -0.069694 -0.033732
v 0.0349 -0.069694 -0.033732
v 0.033085 -0.07446 -0.033
v 0.033953 -0.073747 -0.033
v 0.035522 -0.070813 -0.033
v 0.035632 -0.069694 -0.033
v 0.035632 -0.069694 -0.033
v -0.055768 0.032292 -0.033848
v -0.05685 0.032292 -0.032765
v 0.035604 0.014517 -0.032981
v 0.034881 0.014517 -0.033704
v 0.034665 0.014517 -0.033848
v -0.053501 0.036902 -0.032765
v -0.053166 0.035873 -0.033848
v -0.053367 0.03649 -0.033414
v -0.052003 0.036995 -0.032981
v -0.054216 0.035338 -0.033848
v -0.054216 0.035338 -0.033848
v -0.054597 0.035863 -0.033414
v -0.055925 0.035141 -0.032765
v -0.055584 0.033455 -0.033848
v -0.056201 0.033656 -0.033414
v -0.056613 0.03379 -0.032765
v -0.052003 0.037139 -0.032765
v 0.034007 0.03253 -0.033863
v 0.03452 0.023531 -0.033848
v 0.034082 0.032535 -0.033848
v 0.0299 0.035984 -0.033876
v 0.0299 0.036706 -0.033414
v 0.034931 0.033892 -0.032692
v 0.034106 0.035371 -0.032692
v 0.030112 0.037163 -0.032692
v 0.032825 0.036478 -0.032692
v 0.032825 0.036478 -0.032692
v 0.030112 0.036108 -0.033823
v 0.030112 0.036108 -0.033823
v 0.031156 0.036627 -0.033414
v 0.031156 0.036627 -0.033414
v 0.031156 0.036627 -0.033414
v 0.030112 0.036751 -0.033362
v 0.03102 0.035918 -0.033876
v 0.03102 0.035918 -0.033876
v 0.03102 0.035918 -0.033876
v 0.032218 0.035462 -0.033876
v 0.032588 0.036081 -0.033414
v 0.032588 0.036081 -0.033414
v 0.032588 0.036081 -0.033414
v 0.033748 0.035079 -0.033414
v 0.030112 0.035973 -0.033854
v -0.033383 -0.07271 -0.030146
v -0.038112 -0.068103 -0.030057
v -0.038259 -0.067751 -0.03
v -0.038413 -0.067159 -0.030105
v -0.038413 -0.067159 -0.030105
v -0.038544 -0.066657 -0.030193
v -0.038544 -0.066657 -0.030193
v -0.0386 -0.066313 -0.030345
v -0.0386 -0.066313 -0.030345
v -0.0386 -0.066313 -0.030345
v -0.038622 -0.066147 -0.030438
v -0.038622 -0.066147 -0.030438
v -0.038631 -0.066067 -0.030489
v -0.038631 -0.066067 -0.030489
v -0.036879 -0.070228 -0.031177
v -0.036879 -0.070228 -0.031177
v -0.037236 -0.069777 -0.030694
v -0.037314 -0.069647 -0.030625
v -0.037314 -0.069647 -0.030625
v -0.037449 -0.06942 -0.030503
v -0.034565 -0.072185 -0.030682
v -0.034565 -0.072185 -0.030682
v -0.034452 -0.072238 -0.030624
v -0.034452 -0.072238 -0.030624
v -0.033556 -0.072659 -0.030168
v -0.035305 -0.071713 -0.031409
v -0.033342 -0.07285 -0.030075
v -0.037237 -0.070353 -0.030602
v -0.037237 -0.070353 -0.030602
v -0.037237 -0.070353 -0.030602
v -0.036866 -0.071157 -0.030602
v -0.036866 -0.071157 -0.030602
v -0.036866 -0.071157 -0.030602
v -0.038094 -0.07058 -0.030075
v -0.037595 -0.071662 -0.030075
v -0.034563 -0.072257 -0.030602
v -0.035444 -0.072169 -0.030602
v -0.036244 -0.071788 -0.030602
v -0.0398 -0.067849 -0.033732
v -0.040503 -0.068054 -0.033
v -0.040503 -0.068054 -0.033
v -0.040503 -0.068054 -0.033
v -0.040503 -0.068054 -0.033
v -0.039161 -0.069473 -0.033732
v -0.034095 -0.074059 -0.033732
v -0.032416 -0.074534 -0.033732
v -0.032416 -0.074534 -0.033732
v -0.039814 -0.069802 -0.033
v -0.037546 -0.07278 -0.033
v -0.036043 -0.073908 -0.033
v -0.034359 -0.074742 -0.033
v -0.034359 -0.074742 -0.033
v -0.03255 -0.075254 -0.033
v -0.001778 -0.075194 -0.023398
v -0.002931 -0.075194 -0.024551
v 0.001372 -0.075194 -0.028854
v 0.002525 -0.075194 -0.027701
v -0.000203 -0.075194 -0.022976
v -0.000203 -0.075194 -0.022976
v -0.021913 0.01961 -0.028
v -0.02077 0.019811 -0.028
v -0.022204 0.022601 -0.03225
v -0.022204 0.022601 -0.03225
v -0.023204 0.022869 -0.03225
v -0.020204 0.024601 -0.03225
v -0.021204 0.022869 -0.03225
v 0.015349 0.019191 -0.030583
v 0.017874 0.019333 -0.029476
v 0.022178 0.018044 -0.029476
v 0.02368 0.018309 -0.029476
v 0.01677 0.01785 -0.030583
v 0.022285 0.016199 -0.030583
v 0.01162 0.022189 -0.031268
v 0.01245 0.019908 -0.031268
v -0.021822 0.018044 -0.029476
v -0.016716 0.020992 -0.029476
v -0.016429 0.018479 -0.030583
v -0.015173 0.019976 -0.030583
v -0.015173 0.019976 -0.030583
v -0.014296 0.021723 -0.030583
v -0.013466 0.018854 -0.031268
v -0.012377 0.021024 -0.031268
f 6 5 7
f 10 2 3
f 12 11 1
f 14 13 4
f 15 16 17
f 26 22 27
f 28 20 29
f 24 31 32
f 25 40 18
f 42 33 41
f 34 44 43
f 23 36 35
f 46 37 45
f 21 38 19
f 59 57 56
f 66 64 67
f 68 65 63
f 72 74 73
f 80 69 81
f 82 75 83
f 85 84 86
f 92 91 93
f 94 71 70
f 95 77 76
f 78 96 79
f 145 144 146
f 149 148 147
f 165 150 87
f 151 88 89
f 169 168 166
f 167 155 164
f 178 179 90
f 185 183 181
f 186 184 182
f 191 190 188
f 176 177 189
f 192 194 193
f 207 206 208
f 214 213 215
f 218 217 216
f 187 180 219
f 162 163 252
f 156 253 263
f 152 264 154
f 153 262 261
f 157 260 259
f 254 161 255
f 256 160 159
f 257 158 258
f 272 268 274
f 245 278 242
f 241 279 243
f 244 277 282
f 284 281 286
f 287 288 291
f 275 293 294
f 296 285 299
f 303 309 319
f 318 308 322
f 311 235 327
f 321 328 107
f 290 273 113
f 114 276 269
f 305 229 225
f 226 231 306
f 307 230 310
f 312 237 234
f 236 233 329
f 301 232 238
f 297 239 240
f 108 106 323
f 324 105 103
f 325 104 101
f 102 332 326
f 320 334 337
f 292 112 298
f 300 111 330
f 331 110 109
f 48 47 342
f 115 271 116
f 117 344 99
f 98 343 52
f 97 53 58
f 280 349 283
f 354 289 350
f 49 339 60
f 247 62 357
f 355 61 338
f 348 251 360
f 347 358 353
f 359 250 249
f 356 248 246
f 270 295 345
f 346 352 54
f 51 351 341
f 50 340 55
f 123 364 100
f 222 224 366
f 367 223 228
f 371 227 302
f 370 304 317
f 372 376 316
f 315 375 378
f 314 379 369
f 313 336 373
f 362 335 333
f 383 125 126
f 384 389 392
f 399 395 385
f 381 127 390
f 391 128 130
f 394 129 400
f 403 131 132
f 403 132 408
f 407 133 412
f 411 134 135
f 410 136 413
f 415 137 138
f 416 139 419
f 418 140 141
f 418 141 420
f 421 142 423
f 424 143 425
f 387 393 397
f 398 401 428
f 429 402 404
f 429 404 433
f 434 405 409
f 435 406 436
f 437 414 417
f 438 422 439
f 441 426 427
f 174 431 173
f 172 430 432
f 172 432 175
f 170 440 171
f 118 124 380
f 443 121 119
f 122 446 363
f 365 442 361
f 453 455 447
f 448 456 368
f 450 377 374
f 458 386 460
f 464 388 396
f 461 221 220
f 120 382 445
f 444 459 449
f 452 457 462
f 451 463 454
f 203 202 465
f 472 205 204
f 201 200 469
f 471 195 198
f 470 199 197
f 468 473 466
f 467 475 196
f 474 30 39
f 483 482 484
f 487 479 267
f 210 211 486
f 481 212 480
f 477 485 488
f 491 476 493
f 492 478 489
f 494 490 265
f 265 490 266
f 209 8 9
f 510 509 512
f 518 514 519
f 545 543 540
f 548 556 549
f 546 557 547
f 550 563 562
f 573 552 551
f 506 559 504
f 505 560 561
f 554 577 578
f 553 555 558
f 507 508 576
f 576 508 574
f 576 574 575
f 587 499 588
f 502 590 592
f 503 593 595
f 538 601 620
f 619 600 621
f 539 610 537
f 616 615 625
f 626 618 624
f 627 602 603
f 622 608 609
f 623 541 617
f 633 634 635
f 529 639 531
f 640 536 535
f 605 534 641
f 604 642 606
f 646 612 613
f 530 637 532
f 533 638 645
f 643 614 607
f 630 648 632
f 647 611 644
f 527 636 528
f 658 652 654
f 659 653 656
f 660 655 661
f 662 657 663
f 670 665 666
f 670 666 672
f 675 667 668
f 674 669 676
f 544 671 673
f 542 677 664
f 684 678 679
f 685 680 681
f 686 683 688
f 691 572 687
f 692 682 693
f 702 689 703
f 694 705 697
f 700 696 698
f 699 695 582
f 582 695 581
f 629 631 701
f 628 704 690
f 707 706 708
f 579 714 580
f 717 718 723
f 722 720 727
f 724 726 725
f 719 715 728
f 729 712 711
f 713 721 710
f 709 716 730
f 567 733 734
f 569 735 570
f 571 736 738
f 747 749 566
f 564 750 568
f 752 565 753
f 759 745 761
f 594 743 596
f 597 744 741
f 737 599 739
f 740 598 742
f 589 732 591
f 731 757 755
f 767 496 756
f 746 498 763
f 768 497 495
f 751 754 766
f 762 765 758
f 760 764 748
f 651 649 773
f 517 520 650
f 772 769 774
f 781 775 777
f 782 776 783
f 650 771 517
f 516 770 778
f 516 778 515
f 513 779 780
f 513 780 511
f 523 785 524
f 525 786 787
f 521 526 788
f 522 789 784
f 795 586 585
f 796 584 792
f 793 583 794
f 798 797 801
f 799 802 800
f 803 501 804
f 804 501 500
f 790 805 791
f 806 807 809
f 808 811 810
f 810 811 812
