v 0.014657 0.090359 -0.005609
v 0.014657 0.090359 -0.005609
v -0.029716 0.132314 0.019141
v -0.105893 0.138044 0.019141
v -0.040793 0.142453 0.017597
v -0.040793 0.142453 0.017597
v -0.028951 0.134655 0.017506
v -0.028951 0.134655 0.017506
v -0.028951 0.134655 0.017506
v -0.029289 0.134187 0.018409
v -0.029289 0.134187 0.018409
v -0.040695 0.142616 0.016641
v -0.028861 0.134781 0.016641
v -0.028861 0.134781 0.016641
v -0.026451 0.132899 0.016641
v -0.041075 0.14199 0.018409
v -0.131326 0.090905 0.01877
v -0.131186 0.099907 0.018409
v -0.13223 0.090905 0.017867
v -0.13241 0.090905 0.017597
v -0.131722 0.099989 0.017597
v -0.131722 0.099989 0.017597
v -0.108419 0.137347 0.018951
v -0.10101 0.142287 0.018951
v -0.1326 0.090905 0.016641
v -0.13191 0.100017 0.016641
v -0.129674 0.108865 0.017597
v -0.130246 0.10723 0.016641
v -0.129855 0.108921 0.016641
v -0.126312 0.117331 0.017597
v -0.126312 0.117331 0.017597
v -0.121714 0.125194 0.017597
v -0.115984 0.132276 0.017597
v -0.116122 0.132406 0.016641
v -0.109252 0.138413 0.017597
v -0.109252 0.138413 0.017597
v -0.110224 0.137783 0.016641
v -0.109369 0.138563 0.016641
v -0.109369 0.138563 0.016641
v -0.101673 0.143467 0.017597
v -0.09342 0.147321 0.017597
v -0.093487 0.147499 0.016641
v -0.093487 0.147499 0.016641
v -0.088382 0.148999 0.016641
v -0.08468 0.149889 0.017597
v -0.075653 0.15111 0.017597
v -0.075653 0.15111 0.017597
v -0.075653 0.15111 0.017597
v -0.075653 0.15111 0.017597
v -0.076237 0.151223 0.016641
v -0.075664 0.1513 0.016641
v -0.075664 0.1513 0.016641
v -0.066545 0.150959 0.017597
v -0.066545 0.150959 0.017597
v -0.066545 0.150959 0.017597
v -0.066527 0.151148 0.016641
v -0.057564 0.149437 0.017597
v -0.057518 0.149622 0.016641
v -0.057694 0.148911 0.018409
v -0.066595 0.150419 0.018409
v -0.066595 0.150419 0.018409
v -0.066595 0.150419 0.018409
v -0.075621 0.150569 0.018409
v -0.075621 0.150569 0.018409
v -0.084567 0.149358 0.018409
v -0.093228 0.146814 0.018409
v -0.101407 0.142994 0.018409
v -0.108918 0.137986 0.018409
v -0.121268 0.124886 0.018409
v -0.121268 0.124886 0.018409
v -0.125825 0.117094 0.018409
v -0.129156 0.108703 0.018409
v -0.05789 0.148124 0.018951
v -0.066669 0.149611 0.018951
v -0.130384 0.099785 0.018951
v -0.131057 0.090905 0.018951
v -0.0545 0.020544 0.040641
v -0.055313 0.02831 0.040641
v -0.055163 0.027566 0.032297
v 0.016334 0.087846 0.040641
v 0.020503 0.080769 -0.005609
v 0.017471 0.086042 0.04067
v 0.016908 0.086947 0.040649
v 0.025581 0.069727 0.040862
v 0.025074 0.070891 0.040858
v -0.010285 0.119381 0.017358
v -0.013046 0.121872 0.01709
v 0.004209 0.104083 -0.005609
v -0.002906 0.11207 0.019642
v -0.004461 0.11364 0.019093
v 0.006063 0.101828 0.027827
v 0.00555 0.102465 0.026949
v -0.132042 0.082708 -0.005609
v -0.130565 0.076703 0.017891
v -0.129123 0.07069 0.016641
v -0.132457 0.095068 -0.005609
v -0.130349 0.107254 -0.005609
v -0.110276 0.13784 -0.005609
v -0.099934 0.144622 -0.005609
v -0.099934 0.144622 -0.005609
v -0.088429 0.14916 -0.005609
v -0.076242 0.151263 -0.005609
v -0.063882 0.150845 -0.005609
v -0.051866 0.147921 -0.005609
v -0.032038 -0.073017 0.044214
v -0.034801 -0.072017 0.041767
v -0.026781 0.116811 0.023891
v -0.02684 0.11677 0.023064
v -0.0721 0.139281 0.020807
v -0.0721 0.139993 0.02142
v -0.045211 0.100854 0.028141
v -0.002346 0.09332 0.045141
v 0.017016 0.08559 0.040837
v 0.017016 0.08559 0.040837
v 0.016614 0.085191 0.040983
v -0.053276 0.069374 0.040983
v -0.053617 0.062238 0.041959
v -0.055056 0.062483 0.040983
v -0.044237 0.080048 0.045141
v -0.039664 0.084875 0.045141
v -0.028434 0.091909 0.045141
v -0.028702 0.091772 0.045141
v 0.025373 0.055392 0.08394
v 0.025187 0.055392 0.08399
v -0.052113 0.055392 0.083919
v -0.052438 0.055392 0.083701
v -0.042483 0.081926 0.083215
v -0.042483 0.081926 0.083215
v -0.042568 0.082003 0.082641
v -0.037112 0.086822 0.083215
v -0.030933 0.090649 0.083215
v -0.028658 0.091652 0.082641
v -0.024155 0.093274 0.083215
v -0.024155 0.093274 0.083215
v -0.024187 0.093384 0.082641
v -0.017011 0.09461 0.083215
v -0.008163 0.09443 0.082641
v -0.002598 0.093274 0.083215
v -0.002567 0.093384 0.082641
v -0.002567 0.093384 0.082641
v 0.001904 0.091652 0.082641
v 0.00423 0.090751 0.082641
v 0.010358 0.086822 0.083215
v 0.010427 0.086914 0.082641
v 0.023046 0.069502 0.083701
v 0.019833 0.075955 0.083701
v 0.019833 0.075955 0.083701
v -0.024066 0.092961 0.083701
v -0.036916 0.086563 0.083701
v -0.036916 0.086563 0.083701
v -0.042243 0.081707 0.083701
v 0.022592 0.069326 0.084027
v 0.022592 0.069326 0.084027
v 0.019419 0.075698 0.084027
v -0.128807 0.070802 0.017891
v -0.051608 0.097881 0.022979
v -0.050913 0.097515 0.023505
v -0.055405 0.093001 0.023471
v -0.006619 0.107788 0.02704
v -0.006113 0.112005 0.023043
v -0.006162 0.111328 0.023471
v -0.006162 0.111328 0.023471
v -0.005347 0.111247 0.023628
v -0.005347 0.111247 0.023628
v -0.013995 0.116121 0.020882
v -0.022369 0.115454 0.020882
v -0.021947 0.112488 0.022582
v -0.019709 0.107019 0.028163
v -0.013888 0.105631 0.031373
v -0.020816 0.105079 0.031373
v -0.020816 0.105079 0.031373
v -0.020816 0.105079 0.031373
v -0.02104 0.106576 0.028556
v -0.018826 0.107653 0.027415
v -0.028015 0.104977 0.028641
v -0.028015 0.104977 0.028641
v -0.021956 0.106376 0.028641
v -0.02116 0.106536 0.028592
v -0.027602 0.103577 0.031373
v -0.045835 0.093741 0.031373
v -0.044627 0.096822 0.028343
v -0.04458 0.096835 0.02837
v -0.052771 0.098496 0.022098
v -0.057284 0.099462 0.020298
v -0.062985 0.098262 0.019431
v -0.071113 0.091849 0.019154
v -0.06621 0.096416 0.019251
v -0.075071 0.085428 0.019144
v -0.071207 0.091748 0.019152
v -0.07759 0.07903 0.019149
v -0.075931 0.083729 0.019143
v -0.053636 0.082437 0.039641
v -0.049735 0.087927 0.036207
v -0.049519 0.087734 0.039641
v -0.047356 0.089838 0.039641
v 0.029252 0.05471 0.043775
v 0.028886 0.054716 0.044141
v -0.060304 0.072651 0.042873
v -0.024717 0.104089 0.042873
v -0.062625 0.067574 0.042141
v -0.060991 0.072904 0.042141
v -0.035384 0.101102 0.042141
v -0.030236 0.103241 0.042141
v -0.024883 0.104802 0.042141
v -0.024883 0.104802 0.042141
v -0.040409 0.098638 0.041141
v -0.035501 0.101343 0.041141
v -0.030325 0.103494 0.041141
v -0.024944 0.105063 0.041141
v 0.007925 0.10173 0.041141
v -0.004092 0.018544 0.086641
v -0.003603 0.016604 0.086105
v -0.008699 0.017681 0.086641
v -0.008453 0.015696 0.086105
v -0.053377 0.055392 0.086105
v -0.054841 0.055392 0.084641
v -0.066297 0.153637 0.016641
v -0.076408 0.153715 0.016641
v -0.076408 0.153715 0.016641
v -0.076408 0.153715 0.016641
v -0.085241 0.15252 0.016641
v -0.085241 0.15252 0.016641
v -0.085162 0.152147 0.018554
v -0.089055 0.151399 0.016641
v -0.094371 0.149838 0.016641
v -0.094371 0.149838 0.016641
v -0.094371 0.149838 0.016641
v -0.1118 0.139721 0.016641
v -0.117941 0.134121 0.016641
v -0.117941 0.134121 0.016641
v -0.117941 0.134121 0.016641
v -0.117664 0.13386 0.018554
v -0.120821 0.130562 0.016641
v -0.123927 0.126724 0.016641
v -0.123927 0.126724 0.016641
v -0.123614 0.126508 0.018554
v -0.134381 0.100394 0.016641
v -0.049802 0.144448 0.021641
v -0.041094 0.141958 0.021332
v -0.128388 0.118343 0.018554
v -0.101479 0.143121 0.02126
v -0.102274 0.144535 0.020176
v -0.102274 0.144535 0.020176
v -0.102806 0.14548 0.018554
v -0.102806 0.14548 0.018554
v -0.102806 0.14548 0.018554
v -0.049066 0.146214 0.02126
v -0.049066 0.146214 0.02126
v -0.048443 0.147712 0.020176
v -0.048443 0.147712 0.020176
v -0.048026 0.148712 0.018554
v -0.048026 0.148712 0.018554
v -0.1351 0.090905 0.016641
v -0.12873 0.11851 0.016641
v -0.127942 0.119858 0.016641
v -0.127942 0.119858 0.016641
v -0.116875 0.133116 0.020176
v -0.110909 0.140532 0.016641
v -0.110675 0.140232 0.018554
v -0.110675 0.140232 0.018554
v -0.110007 0.139379 0.020176
v -0.110007 0.139379 0.020176
v -0.102993 0.145811 0.016641
v -0.101031 0.146727 0.016641
v -0.101031 0.146727 0.016641
v -0.075811 0.153796 0.016641
v -0.075811 0.153796 0.016641
v -0.075789 0.153416 0.018554
v -0.04101 0.142097 0.021228
v -0.040157 0.143501 0.020176
v -0.039557 0.144488 0.018371
v -0.04788 0.149063 0.016641
v -0.063478 0.033185 0.028577
v -0.057 -0.027444 0.041141
v -0.131479 0.069855 -0.006859
v -0.134519 0.082369 -0.006859
v -0.134951 0.09524 -0.006859
v -0.132756 0.10793 -0.006859
v -0.128027 0.119908 -0.006859
v -0.120961 0.130675 -0.006859
v -0.120961 0.130675 -0.006859
v -0.111853 0.13978 -0.006859
v -0.111853 0.13978 -0.006859
v -0.101084 0.146842 -0.006859
v -0.089104 0.151567 -0.006859
v -0.076414 0.153757 -0.006859
v -0.076414 0.153757 -0.006859
v -0.063543 0.153322 -0.006859
v -0.008538 0.121234 -0.006859
v 0.006825 0.102497 0.036626
v -0.04912 0.096064 0.029474
v -0.05002 0.096165 0.028593
v -0.054215 0.091936 0.028577
v -0.054462 0.100093 0.023666
v -0.055774 0.100281 0.023198
v -0.059385 0.096563 0.02317
v -0.059385 0.096563 0.02317
v -0.056786 0.100426 0.022837
v -0.052229 0.098938 0.025123
v -0.052229 0.098938 0.025123
v -0.052141 0.099225 0.02501
v -0.052141 0.099225 0.02501
v -0.052141 0.099225 0.02501
v -0.054379 0.100081 0.023695
v -0.051764 0.096901 0.026652
v -0.051764 0.096901 0.026652
v -0.05655 0.094026 0.025443
v -0.05655 0.094026 0.025443
v -0.051971 0.097332 0.026248
v -0.052263 0.097937 0.02568
v -0.052254 0.098208 0.025529
v -0.047313 0.095487 0.032381
v -0.048014 0.096309 0.03033
v -0.047385 0.096448 0.030816
v -0.02163 0.107576 0.031713
v -0.02163 0.107576 0.031713
v -0.021155 0.107342 0.032381
v -0.021155 0.107342 0.032381
v -0.013911 0.107918 0.032381
v -0.013934 0.110191 0.028577
v -0.017478 0.110054 0.028588
v -0.017478 0.110054 0.028588
v -0.017702 0.109493 0.02929
v -0.021207 0.107696 0.031604
v -0.021207 0.107696 0.031604
v -0.01747 0.11174 0.026692
v -0.013966 0.113325 0.025443
v -0.017329 0.110805 0.027697
v -0.014005 0.117129 0.02317
v -0.02124 0.116641 0.023224
v -0.019836 0.11522 0.023952
v -0.024296 0.118804 0.022253
v -0.022963 0.118266 0.02247
v -0.022767 0.118109 0.02253
v -0.025526 0.118776 0.022203
v -0.012342 0.118933 0.022486
v -0.01077 0.117599 0.023016
v -0.006658 0.107489 0.032381
v 0.000868 0.107648 0.02955
v 0.000868 0.107648 0.02955
v 0.003522 0.105428 0.031832
v 0.000468 0.106064 0.032381
v 0.002843 0.105994 0.031132
v 0.000132 0.104834 0.036626
v 0.000132 0.104834 0.036626
v 0.005343 0.103912 0.033707
v 0.006878 0.102621 0.035927
v 0.006446 0.102984 0.035303
v 0.006446 0.102984 0.035303
v 0.006725 0.102263 0.039641
v 6.5e-05 0.104589 0.039641
v -0.020966 0.106081 0.036626
v -0.027889 0.104549 0.036626
v -0.027889 0.104549 0.036626
v -0.027817 0.104305 0.039641
v -0.034428 0.101844 0.039641
v -0.034534 0.102076 0.036626
v -0.055712 0.083831 0.039641
v -0.055923 0.083973 0.036626
v -0.058995 0.078127 0.039641
v -0.038 -0.004694 0.043141
v 0.015069 0.090643 0.043141
v 0.010119 0.097483 0.043141
v 0.016716 0.091778 0.041141
v 0.011699 0.098709 0.038937
v 0.011711 0.098693 0.039641
v -0.002689 0.115461 0.018911
v -0.006438 0.11922 0.017681
v -0.006438 0.11922 0.017681
v -0.006824 0.119585 0.017612
v -0.131341 0.069904 0.016641
v -0.134517 0.082369 0.016641
v -0.129901 0.065845 0.016641
v 0.0359 -0.070694 0.060441
v -0.051011 0.074038 0.082641
v -0.041713 0.086393 0.082641
v -0.048306 0.078447 0.045141
v -0.050122 0.075733 0.045141
v -0.018547 0.097072 0.082641
v -0.028575 0.094546 0.082641
v -0.033279 0.092377 0.082641
v -0.003115 0.096119 0.082641
v -0.003134 0.09602 0.045141
v -0.008206 0.097072 0.082641
v -0.008206 0.097072 0.082641
v -0.008579 0.097117 0.045141
v -0.008579 0.097117 0.045141
v -0.008579 0.097117 0.045141
v -0.013377 0.097392 0.082641
v -0.013381 0.097262 0.045141
v -0.013381 0.097262 0.045141
v -0.015645 0.097331 0.045141
v 0.019165 0.081817 0.045026
v 0.015518 0.080071 0.086641
v 0.018337 0.076326 0.086641
v -0.035366 0.086383 0.086641
v -0.039014 0.08344 0.086641
v -0.031322 -0.075672 0.060441
v -0.033684 -0.074902 0.060441
v -0.03293 -0.075295 0.045141
v -0.056796 -0.028997 0.041141
v -0.056796 -0.028997 0.041141
v 0.035272 -0.001779 0.044105
v -0.037323 -0.004694 0.043322
v -0.037324 -0.070683 0.0433
v -0.034831 -0.074288 0.044087
v -0.034103 -0.074733 0.044319
v -0.035435 -0.073775 0.043886
v -0.033621 -0.075028 0.044472
v -0.063548 0.031465 0.02778
v -0.062239 0.031407 0.029228
v -0.023549 0.117239 0.024031
v -0.050354 0.100305 0.026729
v -0.050431 0.100251 0.024986
v -0.028726 0.115449 0.028004
v -0.027302 0.116446 0.026266
v -0.027341 0.116419 0.027595
v -0.025998 0.117359 0.024141
v -0.025998 0.117359 0.023503
v -0.026433 0.117055 0.023322
v -0.026697 0.11687 0.026893
v -0.049369 0.100995 0.028083
v -0.030672 0.114087 0.028641
v -0.030231 0.114396 0.029141
v -0.030231 0.114396 0.029141
v -0.028651 0.115502 0.028664
v -0.026994 0.114454 0.030619
v -0.026979 0.114466 0.030614
v -0.018949 0.112529 0.026556
v -0.02379 0.117045 0.026183
v -0.019189 0.112937 0.026226
v 0.009818 0.100212 0.039641
v 0.010005 0.100445 0.041141
v -0.005584 0.11514 0.023572
v 0.00162 0.108389 0.027905
v 0.004886 0.105242 0.030907
v 0.004886 0.105242 0.030907
v -0.013615 0.122136 0.021428
v -0.013615 0.122136 0.021428
v -0.018109 0.125534 0.02127
v -0.018109 0.125534 0.02127
v -0.018171 0.12546 0.021332
v -0.00947 0.118632 0.022207
v -0.000541 0.111878 0.024152
v -0.0043 0.115622 0.022237
v -0.0043 0.115622 0.022237
v -0.008268 0.119383 0.02094
v -0.008268 0.119383 0.02094
v -0.01249 0.123141 0.020248
v -0.01249 0.123141 0.020248
v -0.017006 0.126838 0.020176
v -0.003273 0.115696 0.020625
v -0.003273 0.115696 0.020625
v -0.053216 0.058977 0.086105
v -0.040364 0.084917 0.086105
v -0.036524 0.088014 0.086105
v 0.017039 0.08137 0.086105
v 0.020006 0.077428 0.086105
v 0.024378 0.068603 0.086105
v 0.025718 0.063855 0.086105
v -0.041351 0.085997 0.084641
v -0.041351 0.085997 0.084641
v -0.037371 0.089208 0.084641
v -0.037371 0.089208 0.084641
v -0.028381 0.094046 0.084641
v -0.008272 0.096541 0.084641
v -0.003246 0.095599 0.084641
v 0.02576 0.069087 0.084641
v 0.035632 -0.070694 0.061441
v 0.034998 -0.07306 0.061441
v -0.035148 -0.07296 0.061441
v -0.035 -0.070683 0.062173
v -0.035732 -0.070683 0.061441
v -0.03453 -0.074709 0.04394
v -0.03453 -0.074709 0.04394
v -0.035435 -0.074125 0.043616
v -0.035435 -0.074125 0.043616
v -0.038385 -0.071506 0.04248
v -0.037042 -0.073125 0.042743
v -0.038581 -0.071738 0.042129
v -0.036234 -0.07346 0.043353
v -0.042735 -0.038687 0.042939
v -0.042981 -0.038713 0.042873
v -0.043365 -0.03705 0.042873
v -0.056537 -0.028928 0.042141
v -0.056732 -0.027444 0.042141
v -0.056732 -0.027444 0.042141
v 0.015626 0.091027 0.042959
v 0.020836 0.084122 0.042555
v 0.021238 0.084351 0.041833
v 0.026946 0.070342 0.042876
v 0.025847 0.074114 0.042555
v 0.025847 0.074114 0.042555
v 0.02646 0.071449 0.042884
v 0.035469 0.00017 0.042658
v 0.03536 -0.001148 0.043529
v 0.035563 -0.001966 0.043865
v 0.035656 -0.001389 0.043198
v 0.035737 -0.002834 0.044256
v 0.021767 0.078542 0.044276
v 0.019296 0.081953 0.044399
v 0.01954 0.082182 0.043792
v 0.02197 0.078705 0.043729
v 0.028918 0.058905 0.043792
v 0.019933 0.082523 0.043336
v 0.022302 0.078948 0.043285
v 0.022302 0.078948 0.043285
v 0.024372 0.075204 0.043215
v -0.035754 0.091114 0.044375
v -0.035754 0.091114 0.044375
v -0.029445 0.094361 0.044375
v -0.008561 0.097268 0.044375
v -0.001605 0.095867 0.044375
v -0.001605 0.095867 0.044375
v 0.005206 0.093709 0.043727
v -0.001484 0.096283 0.043727
v -0.008512 0.097699 0.043727
v -0.015677 0.097916 0.043727
v -0.02961 0.094762 0.043727
v -0.02961 0.094762 0.043727
v -0.035984 0.091481 0.043727
v -0.008437 0.098343 0.043293
v -0.109577 0.103969 0.019141
v -0.111177 0.104397 0.019141
v -0.047669 0.103583 0.019141
v -0.065652 0.032222 0.022891
v -0.047436 0.08992 0.040641
v -0.054715 0.080757 0.040641
v -0.018413 0.017727 0.084141
v -0.013377 0.017392 0.084141
v -0.031965 -0.072989 0.045141
v -0.032312 -0.072749 0.045141
v -0.034999 -0.070683 0.041788
v -0.034769 -0.07202 0.041788
v -0.061879 0.032139 0.026203
v -0.029238 0.112039 0.028141
v -0.028689 0.112423 0.028641
v -0.004851 0.113873 0.019966
v -0.008894 0.117898 0.018551
v 0.006063 0.101294 0.031405
v 0.004693 0.102868 0.029316
v -0.014213 0.121102 0.019232
v -0.010103 0.11729 0.020195
v -0.013637 0.121635 0.018616
v -0.065459 0.031499 0.022592
v 0.025144 0.051186 0.08394
v -0.051898 0.051186 0.08394
v -0.013377 0.016642 0.08394
v 0.021209 0.078349 0.041103
v 0.024358 0.070604 0.041561
v -0.075202 0.085346 0.016641
v -0.077476 0.078887 0.016641
v -0.077476 0.078887 0.016641
v -0.074146 0.08703 0.016641
v -0.071119 0.091856 0.016641
v -0.071119 0.091856 0.016641
v -0.071119 0.091856 0.016641
v -0.069726 0.093166 0.016641
v -0.069726 0.093166 0.016641
v -0.069726 0.093166 0.016641
v -0.069726 0.093166 0.016641
v -0.06103 0.098956 0.016641
v -0.06103 0.098956 0.016641
v -0.06103 0.098956 0.016641
v -0.064685 0.097193 0.016641
v -0.064685 0.097193 0.016641
v -0.066234 0.096447 0.016641
v -0.066234 0.096447 0.016641
v -0.055994 0.099375 0.016641
v -0.059679 0.099068 0.016641
v -0.059679 0.099068 0.016641
v -0.059679 0.099068 0.016641
v -0.051628 0.097924 0.016641
v -0.054902 0.099012 0.016641
v -0.054902 0.099012 0.016641
v -0.043923 0.133162 0.016641
v -0.044297 0.133418 0.016641
v -0.062376 0.140283 0.016641
v -0.064406 0.140809 0.016641
v -0.04966 0.100347 0.02244
v -0.049436 0.100493 0.021743
v -0.051225 0.099541 0.025849
v -0.051225 0.099541 0.025849
v -0.050769 0.099864 0.027087
v -0.050769 0.099864 0.027087
v -0.051128 0.099645 0.025743
v -0.046779 0.102657 0.029833
v -0.046755 0.102623 0.029898
v -0.048057 0.101198 0.030272
v -0.046137 0.101741 0.030976
v -0.046137 0.101741 0.030976
v -0.046514 0.102279 0.030555
v -0.046514 0.102279 0.030555
v -0.051234 0.099531 0.025859
v -0.049746 0.100016 0.029198
v -0.049647 0.100649 0.028629
v -0.049647 0.100649 0.028629
v -0.030147 0.114276 0.029876
v -0.030147 0.114276 0.029876
v -0.030143 0.114271 0.029906
v -0.030143 0.114271 0.029906
v -0.029895 0.113916 0.030555
v -0.029895 0.113916 0.030555
v -0.029523 0.113384 0.030989
v -0.029523 0.113384 0.030989
v -0.026822 0.116645 0.028184
v -0.026822 0.116645 0.028184
v -0.027927 0.115374 0.030021
v -0.026268 0.116601 0.028634
v -0.024109 0.117545 0.024141
v -0.024513 0.117247 0.026759
v -0.027208 0.11472 0.030563
v -0.028348 0.115561 0.029418
v -0.028348 0.115561 0.029418
v -0.02579 0.117377 0.026337
v -0.025411 0.117609 0.024141
v -0.023957 0.117453 0.023882
v -0.025277 0.117675 0.023656
v -0.025277 0.117675 0.023656
v -0.025642 0.117527 0.023593
v -0.025642 0.117527 0.023593
v -0.025642 0.117527 0.023593
v -0.02591 0.117418 0.023546
v -0.024342 0.117655 0.023742
v -0.024819 0.117671 0.023695
v -0.025227 0.117685 0.023656
v -0.025235 0.117684 0.023656
v -0.061894 0.138118 0.020807
v -0.060646 0.138658 0.021437
v -0.055386 0.136116 0.020807
v -0.055082 0.13698 0.021437
v -0.066432 0.138709 0.020807
v -0.049747 0.13474 0.021437
v -0.062538 0.138316 0.020807
v -0.053344 0.135488 0.020807
v -0.053073 0.135405 0.020807
v -0.082059 0.066937 0.020823
v -0.081421 0.070139 0.020824
v -0.080616 0.075521 0.020811
v -0.080616 0.075521 0.020811
v -0.080621 0.075488 0.020811
v -0.078609 0.080537 0.02142
v -0.080588 0.075711 0.02081
v -0.073883 0.09125 0.021055
v -0.074117 0.091416 0.020807
v -0.077124 0.086252 0.020807
v -0.076453 0.08593 0.021437
v -0.073535 0.091006 0.02142
v -0.073507 0.090986 0.021429
v -0.073362 0.090884 0.021472
v -0.056863 0.101788 0.021606
v -0.056944 0.101781 0.021596
v -0.05708 0.1015 0.022056
v -0.05708 0.1015 0.022056
v -0.059919 0.101498 0.021228
v -0.059919 0.101498 0.021228
v -0.060453 0.101348 0.021188
v -0.060453 0.101348 0.021188
v -0.060465 0.101161 0.021493
v -0.060465 0.101161 0.021493
v -0.063206 0.100498 0.020995
v -0.063777 0.100226 0.020971
v -0.06374 0.100086 0.021222
v -0.066347 0.098882 0.020878
v -0.066813 0.098558 0.020869
v -0.066813 0.098558 0.020869
v -0.066745 0.098436 0.021114
v -0.069225 0.096789 0.020827
v -0.069225 0.096789 0.020827
v -0.069562 0.096468 0.020825
v -0.069455 0.096338 0.021084
v -0.07199 0.094077 0.02081
v -0.07183 0.093933 0.021086
v -0.068859 0.097137 0.02083
v -0.065791 0.099268 0.020889
v -0.065791 0.099268 0.020889
v -0.06007 0.10211 0.020374
v -0.053881 0.101048 0.023049
v -0.053881 0.101048 0.023049
v -0.053881 0.101048 0.023049
v -0.053881 0.101048 0.023049
v -0.053559 0.101297 0.022527
v -0.053931 0.101457 0.022181
v -0.055901 0.10168 0.021794
v -0.055901 0.10168 0.021794
v -0.055901 0.10168 0.021794
v -0.056598 0.101758 0.021658
v -0.056598 0.101758 0.021658
v -0.053459 0.101297 0.022318
v -0.051258 0.100448 0.023426
v -0.051244 0.100542 0.022963
v -0.051508 0.100135 0.024294
v -0.051508 0.100135 0.024294
v -0.051434 0.100199 0.024184
v -0.051434 0.100199 0.024184
v -0.051434 0.100199 0.024184
v -0.051341 0.10028 0.024044
v -0.051341 0.10028 0.024044
v -0.051284 0.100353 0.023856
v -0.051269 0.100374 0.023792
v -0.054197 0.100623 0.023443
v -0.051839 0.099843 0.024654
v -0.063547 0.099554 0.02165
v -0.060423 0.100631 0.021919
v -0.060423 0.100631 0.021919
v -0.057214 0.101005 0.022472
v -0.071344 0.093502 0.021504
v -0.049878 0.101938 0.019761
v -0.053294 0.102229 0.020506
v -0.056651 0.103266 0.019818
v -0.051036 0.100792 0.021578
v -0.053376 0.101826 0.021068
v -0.053376 0.101826 0.021068
v -0.053436 0.101531 0.021675
v -0.053436 0.101531 0.021675
v -0.067152 0.100135 0.019595
v -0.067152 0.100135 0.019595
v -0.070186 0.097901 0.019581
v -0.070186 0.097901 0.019581
v -0.060514 0.103924 0.019273
v -0.056694 0.104368 0.019302
v -0.056694 0.104368 0.019302
v -0.052948 0.103934 0.019348
v -0.050414 0.10143 0.020335
v -0.05038 0.101464 0.020278
v -0.051141 0.100666 0.022278
v -0.051141 0.100666 0.022278
v -0.060274 0.102944 0.019695
v -0.063474 0.101105 0.020227
v -0.056616 0.10237 0.020643
v -0.056616 0.10237 0.020643
v -0.056616 0.10237 0.020643
v -0.075281 0.092235 0.019582
v -0.08284 0.070284 0.019586
v -0.082022 0.075801 0.019583
v -0.082022 0.075801 0.019583
v -0.0721 0.137858 0.019582
v -0.066356 0.1369 0.019334
v -0.053672 0.134686 0.019909
v -0.066214 0.138019 0.019909
v -0.030106 0.11464 0.019627
v -0.029845 0.115453 0.019302
v -0.030875 0.114377 0.019378
v -0.029647 0.115269 0.019527
v -0.031009 0.114568 0.019238
v -0.02835 0.116134 0.020105
v -0.046982 0.103383 0.019238
v -0.027159 0.116619 0.02227
v -0.027129 0.11672 0.022184
v -0.027129 0.11672 0.022184
v -0.027066 0.116932 0.022003
v -0.047826 0.102835 0.019267
v -0.047826 0.102835 0.019267
v -0.047825 0.102832 0.01927
v -0.047825 0.102832 0.01927
v -0.047722 0.102603 0.019449
v -0.026994 0.116697 0.022681
v -0.025966 0.117529 0.023024
v -0.025966 0.117529 0.023024
v -0.02669 0.117958 0.02195
v -0.026551 0.117468 0.022249
v -0.026551 0.117468 0.022249
v -0.026113 0.11806 0.022313
v -0.025953 0.117598 0.022832
v -0.025966 0.117533 0.023015
v -0.049285 0.101431 0.020233
v -0.048374 0.101842 0.020006
v -0.049464 0.101528 0.020038
v -0.049674 0.101731 0.019893
v -0.049096 0.101833 0.019742
v -0.049096 0.101833 0.019742
v -0.049096 0.101833 0.019742
v -0.049484 0.101539 0.020017
v -0.048693 0.102162 0.019514
v -0.048268 0.102498 0.019356
v -0.048268 0.102498 0.019356
v -0.048532 0.101958 0.019719
v -0.048532 0.101958 0.019719
v -0.048532 0.101958 0.019719
v -0.025302 0.117776 0.023189
v -0.025302 0.117776 0.023189
v -0.025302 0.117776 0.023189
v -0.025302 0.117776 0.023189
v -0.025302 0.117776 0.023189
v -0.025302 0.117776 0.023189
v -0.025644 0.117651 0.023127
v -0.025644 0.117651 0.023127
v -0.025644 0.117651 0.023127
v -0.025644 0.117651 0.023127
v -0.025644 0.117651 0.023127
v -0.025708 0.117917 0.02266
v -0.025434 0.118359 0.02242
v -0.025311 0.117814 0.023017
v -0.025311 0.117814 0.023017
v -0.025311 0.117814 0.023017
v -0.0254 0.118206 0.0225
v -0.050803 0.100418 0.022956
v -0.050764 0.100419 0.022956
v -0.050764 0.100419 0.022956
v -0.050764 0.100419 0.022956
v -0.050764 0.100419 0.022956
v -0.050359 0.100763 0.021276
v -0.050359 0.100763 0.021276
v -0.049134 0.101296 0.020483
v -0.049895 0.100737 0.021537
v -0.049895 0.100737 0.021537
v -0.049895 0.100737 0.021537
v -0.049903 0.100732 0.021558
v -0.049903 0.100732 0.021558
v -0.049903 0.100732 0.021558
v -0.049903 0.100732 0.021558
v -0.04997 0.101113 0.020577
v -0.04997 0.101113 0.020577
v -0.051007 0.100475 0.022959
v -0.049897 0.100735 0.02154
v -0.049897 0.100735 0.02154
v -0.049897 0.100735 0.02154
v -0.050099 0.100726 0.021414
v -0.050099 0.100726 0.021414
v -0.050099 0.100726 0.021414
v -0.023327 0.117247 0.023397
v -0.02314 0.117364 0.023143
v -0.023814 0.117524 0.023387
v -0.02479 0.117797 0.023201
v -0.02479 0.117797 0.023201
v -0.024285 0.11772 0.023268
v -0.024177 0.11794 0.022823
v -0.022831 0.117594 0.022814
v -0.024048 0.118295 0.022483
v -0.023387 0.117245 0.023568
v -0.050804 0.100363 0.023529
v -0.050463 0.100312 0.024197
v -0.022825 0.117084 0.023263
v -0.023013 0.116972 0.023515
v -0.050446 0.10028 0.024608
v -0.050446 0.10028 0.024608
v -0.05087 0.10011 0.024541
v -0.05087 0.10011 0.024541
v -0.05087 0.10011 0.024541
v -0.051175 0.099891 0.024892
v -0.051175 0.099891 0.024892
v -0.051177 0.099891 0.024889
v -0.051177 0.099891 0.024889
v -0.051177 0.099891 0.024889
v -0.018509 0.109616 0.029335
v -0.018509 0.109616 0.029335
v -0.018394 0.112427 0.026169
v -0.019634 0.114013 0.024931
v -0.018309 0.109472 0.029389
v -0.020021 0.108803 0.030456
v -0.021719 0.10774 0.031466
v -0.021719 0.10774 0.031466
v -0.021835 0.107996 0.031218
v -0.019864 0.108573 0.030591
v -0.019864 0.108573 0.030591
v -0.019864 0.108573 0.030591
v -0.017777 0.110837 0.027729
v -0.051273 0.099602 0.025473
v -0.051667 0.09917 0.02543
v -0.051667 0.09917 0.02543
v -0.051464 0.099581 0.025195
v -0.051464 0.099581 0.025195
v -0.051464 0.099581 0.025195
v -0.051907 0.099198 0.025217
v -0.051907 0.099198 0.025217
v -0.051696 0.099615 0.024952
v -0.044354 0.099197 0.031219
v -0.04427 0.099078 0.031246
v -0.04427 0.099078 0.031246
v -0.037938 0.102927 0.031246
v -0.044133 0.098884 0.031397
v -0.051775 0.097484 0.026297
v -0.051775 0.097484 0.026297
v -0.051561 0.097719 0.026425
v -0.051787 0.098397 0.025832
v -0.05054 0.096606 0.027854
v -0.045878 0.098229 0.030963
v -0.047336 0.097127 0.030382
v -0.048922 0.096798 0.029233
v -0.047305 0.096764 0.030582
v -0.030656 0.114064 0.019608
v -0.048883 0.101244 0.020579
v -0.030027 0.114501 0.019673
v -0.05007 0.100392 0.023004
v -0.05007 0.100392 0.023004
v -0.04964 0.10069 0.021669
v -0.04964 0.10069 0.021669
v -0.049517 0.100611 0.021701
v -0.049776 0.100731 0.021619
v -0.049776 0.100731 0.021619
v -0.049776 0.100731 0.021619
v -0.049776 0.100731 0.021619
v -0.050206 0.100431 0.022981
v -0.050206 0.100431 0.022981
v -0.050158 0.10043 0.02299
v -0.027552 0.11628 0.021609
v -0.028367 0.115736 0.020502
v -0.027567 0.116235 0.021632
v -0.050145 0.100308 0.024155
v -0.050044 0.100277 0.024139
v -0.050305 0.100333 0.024179
v -0.050305 0.100333 0.024179
v -0.050249 0.100341 0.024172
v -0.050249 0.100341 0.024172
v -0.050147 0.100309 0.024156
v -0.050108 0.100303 0.024543
v -0.050108 0.100303 0.024543
v -0.050108 0.100303 0.024543
v -0.050066 0.100328 0.024904
v -0.050291 0.100313 0.024577
v -0.050291 0.100313 0.024577
v -0.050291 0.100313 0.024577
v -0.050257 0.100327 0.024942
v -0.027078 0.116564 0.022712
v -0.04953 0.100836 0.026753
v -0.049365 0.100819 0.026651
v -0.027416 0.11632 0.02617
v -0.028783 0.115363 0.027839
v -0.03065 0.114056 0.028449
v -0.0009 -0.073844 0.054596
v 0 -0.073844 0.054355
v -0.001575 -0.075194 0.053427
v -0.029312 0.126912 0.019791
v -0.028654 0.127571 0.019791
v -0.028637 0.125743 0.021141
v -0.10343 0.13456 0.019791
v -0.10253 0.134319 0.019791
v -0.100971 0.135219 0.019791
v -0.104105 0.133391 0.021141
v -0.100955 0.133391 0.021141
v -0.099802 0.134544 0.021141
v -0.105886 0.138056 0.015758
v -0.106405 0.136119 0.015758
v -0.030212 0.132346 0.015758
v -0.028275 0.131827 0.015758
v -0.043906 0.133186 0.015761
v -0.055229 0.138497 0.015761
v -0.064761 0.097357 0.015761
v -0.060761 0.140103 0.015761
v -0.066405 0.14108 0.015761
v -0.062346 0.140377 0.015761
v -0.04966 0.136225 0.015761
v -0.043978 0.133232 0.015761
v -0.043978 0.133232 0.015761
v -0.070324 0.092789 0.015761
v -0.070324 0.092789 0.015761
v -0.070324 0.092789 0.015761
v -0.072969 0.089325 0.015761
v -0.053368 0.098737 0.015761
v -0.054864 0.099107 0.015761
v -0.055901 0.099364 0.015761
v -0.069821 0.093268 0.015761
v -0.069821 0.093268 0.015761
v -0.058666 0.099403 0.015761
v -0.05968 0.09919 0.015761
v -0.06159 0.098788 0.015761
v -0.06159 0.098788 0.015761
v -0.064579 0.09748 0.015761
v -0.064579 0.09748 0.015761
v -0.078462 0.075494 0.015761
v -0.077542 0.078916 0.015761
v -0.108477 0.105264 0.018141
v -0.086458 0.084856 0.018141
v -0.086163 0.085956 0.018141
v -0.089463 0.087861 0.018141
v -0.090269 0.087056 0.018141
v -0.06825 0.109074 0.018141
v -0.069055 0.108269 0.018141
v -0.085924 0.126973 0.019065
v -0.086205 0.127136 0.018848
v -0.086205 0.127136 0.018848
v -0.087117 0.126223 0.018848
v -0.087117 0.126223 0.018848
v -0.087117 0.126223 0.018848
v -0.088363 0.125889 0.018848
v -0.086392 0.127244 0.018524
v -0.087225 0.126411 0.018524
v -0.087225 0.126411 0.018524
v -0.088363 0.126106 0.018524
v -0.088363 0.126106 0.018524
v -0.110985 0.104729 0.019065
v -0.107418 0.105922 0.018848
v -0.10833 0.10501 0.018848
v -0.10833 0.10501 0.018848
v -0.109577 0.104676 0.018848
v -0.11207 0.107169 0.018848
v -0.111736 0.108415 0.018848
v -0.107606 0.106031 0.018524
v -0.108439 0.105198 0.018524
v -0.108439 0.105198 0.018524
v -0.109577 0.104893 0.018524
v -0.111853 0.107169 0.018524
v -0.111548 0.108307 0.018524
v -0.090522 0.087202 0.018848
v -0.090335 0.087094 0.018524
v -0.090335 0.087094 0.018524
v -0.089502 0.087927 0.018524
v -0.086087 0.085956 0.018524
v -0.06715 0.104351 0.019065
v -0.065904 0.10501 0.018848
v -0.06715 0.104676 0.018848
v -0.068397 0.10501 0.018848
v -0.068397 0.109328 0.018848
v -0.06715 0.109662 0.018848
v -0.066012 0.105198 0.018524
v -0.06715 0.104893 0.018524
v -0.069121 0.108307 0.018524
v -0.06715 0.109445 0.018524
v -0.026254 0.110366 0.027431
v -0.033199 0.105552 0.020297
v -0.026245 0.110376 0.020312
v -0.033208 0.105541 0.027416
v -0.033208 0.105541 0.027416
v -0.034934 0.104859 0.026142
v -0.044095 0.098503 0.02702
v -0.034928 0.104866 0.021536
v -0.035603 0.104395 0.027039
v -0.034852 0.104916 0.025774
v -0.044232 0.098411 0.021147
v -0.035595 0.104404 0.020637
v -0.02625 0.110371 0.023872
v -0.02625 0.110371 0.023872
v -0.033204 0.105546 0.023856
v -0.044383 0.098306 0.021197
v -0.035039 0.10479 0.021401
v -0.035045 0.104782 0.026277
v -0.044159 0.098462 0.020883
v -0.04484 0.097987 0.023818
v -0.039849 0.101448 0.02703
v -0.039841 0.101458 0.020627
v -0.043777 0.098798 0.028141
v -0.044982 0.097954 0.027878
v -0.047044 0.096511 0.025362
v -0.047259 0.09636 0.023891
v -0.025234 0.111782 0.021023
v -0.025234 0.111782 0.026758
v -0.035791 0.104391 0.019641
v -0.035791 0.104391 0.028141
f 8 12 13
f 9 14 15
f 16 5 10
f 11 6 7
f 19 20 21
f 33 34 36
f 35 37 38
f 41 43 44
f 47 52 55
f 52 56 55
f 57 59 54
f 53 60 46
f 49 61 64
f 48 63 45
f 45 63 65
f 40 66 67
f 32 70 30
f 31 69 71
f 27 72 22
f 22 72 18
f 62 73 74
f 68 24 23
f 17 75 76
f 79 78 77
f 81 82 2
f 1 92 88
f 96 25 93
f 97 29 28
f 97 28 26
f 39 98 99
f 101 42 100
f 51 50 102
f 58 103 104
f 83 114 80
f 118 116 117
f 134 135 136
f 137 139 138
f 142 144 143
f 133 148 131
f 130 149 127
f 128 150 151
f 145 153 147
f 146 152 154
f 95 94 155
f 112 141 140
f 121 132 122
f 120 129 119
f 156 157 158
f 162 160 163
f 161 164 159
f 165 167 166
f 168 174 169
f 176 177 171
f 172 178 173
f 170 179 175
f 180 181 182
f 158 183 156
f 193 195 194
f 200 198 201
f 203 199 205
f 206 202 207
f 208 204 209
f 212 211 213
f 212 213 214
f 218 222 223
f 236 235 240
f 240 235 255
f 261 232 257
f 262 241 243
f 260 242 246
f 259 245 258
f 258 245 263
f 244 227 264
f 267 220 268
f 238 239 248
f 247 269 249
f 250 270 251
f 272 252 271
f 291 292 293
f 296 295 298
f 299 302 297
f 305 309 307
f 308 310 311
f 313 312 314
f 319 320 322
f 318 325 315
f 327 326 328
f 329 330 331
f 345 347 348
f 344 349 346
f 350 290 351
f 355 354 356
f 356 354 357
f 358 359 360
f 352 317 353
f 340 338 342
f 364 365 366
f 369 289 370
f 217 288 286
f 287 219 266
f 284 265 226
f 285 225 224
f 285 224 221
f 228 282 230
f 231 283 280
f 229 281 233
f 234 279 256
f 256 279 254
f 277 237 278
f 276 372 253
f 371 275 373
f 375 377 378
f 385 387 389
f 379 390 392
f 400 398 399
f 405 404 361
f 273 410 411
f 107 419 420
f 432 210 433
f 435 339 436
f 437 343 341
f 438 441 442
f 443 336 337
f 434 444 445
f 439 447 449
f 440 450 451
f 453 367 368
f 446 452 448
f 216 215 454
f 455 397 396
f 457 394 395
f 457 395 458
f 461 456 463
f 468 459 460
f 376 462 464
f 381 465 380
f 384 466 467
f 384 467 382
f 469 470 374
f 471 472 473
f 475 406 476
f 409 407 474
f 479 478 480
f 408 481 477
f 484 483 482
f 402 485 487
f 401 486 274
f 362 488 363
f 491 492 494
f 493 490 489
f 497 403 499
f 498 495 496
f 393 500 501
f 197 196 504
f 503 508 506
f 502 507 505
f 512 391 388
f 386 383 514
f 513 515 516
f 511 520 510
f 509 519 521
f 517 522 518
f 192 527 528
f 531 105 532
f 533 534 106
f 536 537 111
f 541 91 540
f 542 544 543
f 539 87 86
f 89 538 90
f 526 535 545
f 124 123 546
f 126 125 547
f 530 548 529
f 84 550 85
f 549 115 113
f 552 191 190
f 554 188 551
f 557 186 189
f 562 185 565
f 567 187 559
f 569 184 570
f 582 584 586
f 589 590 592
f 585 595 597
f 413 596 422
f 598 587 600
f 593 601 588
f 591 604 602
f 421 417 607
f 608 603 605
f 430 610 611
f 612 427 428
f 426 425 613
f 614 424 599
f 615 606 609
f 616 620 418
f 110 109 632
f 629 634 628
f 631 636 633
f 646 642 647
f 656 658 660
f 661 662 663
f 664 666 667
f 668 670 671
f 667 676 664
f 653 685 687
f 679 693 696
f 678 694 697
f 698 699 681
f 680 700 682
f 701 294 304
f 707 649 650
f 706 654 705
f 704 659 703
f 648 673 644
f 711 714 727
f 726 715 689
f 720 728 721
f 722 710 723
f 716 675 729
f 669 674 718
f 719 665 717
f 651 732 652
f 731 688 684
f 712 686 683
f 677 657 655
f 645 672 733
f 713 709 730
f 643 735 639
f 640 736 641
f 638 734 637
f 739 635 630
f 740 737 738
f 746 742 744
f 747 743 745
f 525 753 754
f 760 761 763
f 759 749 748
f 750 762 751
f 772 773 768
f 774 770 779
f 771 767 777
f 778 756 775
f 776 755 752
f 622 618 783
f 758 623 787
f 765 790 764
f 621 784 786
f 788 785 793
f 789 794 791
f 725 769 708
f 808 817 799
f 800 816 819
f 798 820 803
f 802 813 724
f 818 766 812
f 821 822 823
f 782 825 795
f 335 792 332
f 830 617 412
f 619 627 781
f 780 626 824
f 826 625 624
f 334 333 828
f 829 796 827
f 801 797 831
f 690 814 691
f 836 839 414
f 837 695 692
f 840 838 843
f 847 431 429
f 848 833 834
f 316 324 852
f 854 853 851
f 856 849 845
f 855 846 850
f 323 321 857
f 583 860 594
f 859 858 862
f 864 866 303
f 842 861 841
f 844 702 863
f 871 870 868
f 873 874 875
f 300 865 301
f 876 872 306
f 869 867 877
f 878 879 880
f 741 881 883
f 806 815 811
f 887 882 892
f 810 893 891
f 809 890 807
f 805 889 804
f 580 581 888
f 886 895 885
f 897 898 896
f 894 902 903
f 905 884 904
f 832 835 910
f 906 901 912
f 899 908 900
f 913 907 911
f 914 108 757
f 916 909 915
f 415 919 423
f 917 918 416
f 920 922 921
f 923 925 924
f 926 929 927
f 928 930 931
f 933 4 932
f 934 3 935
f 579 941 940
f 576 936 943
f 577 944 942
f 578 937 939
f 575 949 573
f 574 951 950
f 564 959 956
f 563 957 572
f 571 955 954
f 556 948 945
f 555 946 561
f 558 947 953
f 560 952 568
f 566 938 958
f 553 960 961
f 969 970 972
f 971 976 978
f 973 977 979
f 974 980 975
f 523 981 524
f 982 989 983
f 984 991 985
f 986 992 993
f 986 993 987
f 988 962 990
f 994 995 997
f 996 966 965
f 998 964 963
f 999 1001 1002
f 1000 1005 1006
f 1003 1008 1004
f 1007 968 967
f 1029 1017 1038
f 1016 1025 1010
f 1027 1019 1024
f 1033 1034 1028
f 1031 1032 1015
f 1026 1014 1012
f 1023 1013 1018
f 1022 1009 1036
f 1021 1035 1011
f 1030 1020 1037
