v -0.023178 0.040145 -0.0127
v -0.016254 0.043412 -0.0127
v -0.008887 0.045495 -0.0127
v -0.001277 0.046337 -0.0127
v 0.006367 0.045916 -0.0127
v 0.013838 0.044241 -0.0127
v 0.020931 0.04136 -0.0127
v 0.038093 0.026413 -0.0127
v 0.023178 -0.040145 -0.0127
v 0.016254 -0.043412 -0.0127
v 0.008887 -0.045495 -0.0127
v 0.001277 -0.046337 -0.0127
v -0.006367 -0.045916 -0.0127
v -0.013838 -0.044241 -0.0127
v -0.020931 -0.04136 -0.0127
v -0.038093 -0.026413 -0.0127
v -0.041921 -0.019783 -0.0127
v -0.044606 -0.012613 -0.0127
v -0.046074 -0.005099 -0.0127
v -0.046285 0.002554 -0.0127
v -0.045233 0.010137 -0.0127
v -0.042948 0.017444 -0.0127
v -0.039491 0.024275 -0.0127
v -0.034957 0.030444 -0.0127
v -0.029469 0.035782 -0.0127
v -0.04152 -0.019594 -0.0254
v -0.041921 -0.019783 -0.0127
v -0.04353 -0.0205425 -0.0254
v -0.044179 -0.012493 -0.0254
v -0.044606 -0.012613 -0.0127
v -0.045633 -0.005051 -0.0254
v -0.046074 -0.005099 -0.0127
v -0.046285 0.002554 -0.0127
v -0.045842 0.002529 -0.0254
v -0.0448 0.01004 -0.0254
v -0.045233 0.010137 -0.0127
v -0.042948 0.017444 -0.0127
v -0.042537 0.017277 -0.0254
v -0.039491 0.024275 -0.0127
v -0.039113 0.024043 -0.0254
v -0.034622 0.030152 -0.0254
v -0.034957 0.030444 -0.0127
v -0.029187 0.03544 -0.0254
v -0.029469 0.035782 -0.0127
v -0.022956 0.039761 -0.0254
v -0.023178 0.040145 -0.0127
v -0.016098 0.042997 -0.0254
v -0.016254 0.043412 -0.0127
v -0.008887 0.045495 -0.0127
v -0.008802 0.04506 -0.0254
v -0.001277 0.046337 -0.0127
v -0.001265 0.045894 -0.0254
v 0.006367 0.045916 -0.0127
v 0.006306 0.045476 -0.0254
v 0.013705 0.043818 -0.0254
v 0.013838 0.044241 -0.0127
v 0.020931 0.04136 -0.0127
v 0.020731 0.040965 -0.0254
v 0.027453 0.037351 -0.0127
v 0.037729 0.026161 -0.0254
v 0.041921 0.019783 -0.0127
v 0.022956 -0.039761 -0.0254
v 0.016254 -0.043412 -0.0127
v 0.016098 -0.042997 -0.0254
v 0.008887 -0.045495 -0.0127
v 0.008802 -0.04506 -0.0254
v 0.001277 -0.046337 -0.0127
v 0.001265 -0.045894 -0.0254
v -0.006367 -0.045916 -0.0127
v -0.006306 -0.045476 -0.0254
v -0.013838 -0.044241 -0.0127
v -0.013705 -0.043818 -0.0254
v -0.020931 -0.04136 -0.0127
v -0.020731 -0.040965 -0.0254
v -0.027453 -0.037351 -0.0127
v -0.0361155 -0.0298622 -0.0254
v -0.037729 -0.026161 -0.0254
v -0.041382 -0.028693 -0.0254
f 76 78 28
f 60 61 8
f 58 59 7
f 55 57 6
f 54 56 5
f 52 53 4
f 50 51 3
f 47 49 2
f 45 48 1
f 43 46 25
f 41 44 24
f 40 42 23
f 38 39 22
f 35 37 21
f 34 36 20
f 31 33 19
f 29 32 18
f 26 30 17
f 77 27 16
f 74 75 15
f 72 73 14
f 70 71 13
f 68 69 12
f 66 67 11
f 64 65 10
f 62 63 9
