v -0.165118 0.0846369 0.00784035
v -0.165118 0.084451 0.0102079
v -0.169856 0.0842651 0.00784035
v -0.216422 0.0805687 0.00925647
v -0.18587 0.0829567 0.00938811
v -0.165118 0.0835859 0.0121047
v -0.149677 0.0811306 0.0050843
v -0.172217 0.0833142 0.0118883
v -0.182903 0.0828995 0.0113946
v -0.181691 0.0829567 0.0114614
v -0.17933 0.0830497 0.0115851
v -0.176954 0.0831355 0.0116988
v -0.176954 0.0837075 0.00784035
v -0.203126 0.0816483 0.00321401
v -0.210116 0.0810978 0.00784035
v -0.246958 0.0781735 0.00911785
v -0.306525 0.0734689 0.00932229
v -0.303589 0.073426 0.0113517
v -0.213455 0.0805186 0.0112829
v -0.205394 0.0793532 0.012723
v -0.176954 0.0817198 0.0126452
v -0.174593 0.0817198 0.0127519
v -0.172217 0.0817198 0.0128416
v -0.169856 0.0817198 0.0129204
v -0.167479 0.0817198 0.0129932
v -0.165118 0.0817198 0.0130581
v -0.229065 0.0786954 0.011997
v -0.290651 0.073905 0.0119481
v -0.3096 0.0719745 0.0122174
v -0.297749 0.0722391 0.0126222
v -0.266948 0.0746128 0.0126591
v -0.236148 0.0769866 0.0126911
v -0.162742 0.0817198 0.013092
v -0.174593 0.0832213 0.0117995
v -0.233787 0.0785238 0.0118384
v -0.293012 0.0738192 0.0118723
v -0.262211 0.0762144 0.0118982
v -0.273006 0.0758069 0.0114056
v -0.302021 0.0734832 0.0114684
v -0.300126 0.0735547 0.0115662
v -0.236148 0.078438 0.0117427
v -0.271686 0.0762502 0.00321401
v -0.295388 0.074384 0.00321502
v -0.295388 0.074384 0.00784134
v -0.3096 0.0732615 0.00783636
v -0.3096 0.0730756 0.0102029
v -0.295388 0.0722391 0.012734
v -0.264588 0.0746128 0.0127629
v -0.233787 0.0769866 0.0127908
v -0.203002 0.0793532 0.0128167
v -0.23141 0.0769866 0.0128746
v -0.229065 0.0769866 0.0129514
v -0.195919 0.0793532 0.0130391
v -0.189984 0.0795188 0.0131211
v -0.186444 0.0793532 0.0132086
v -0.295388 0.0737334 0.0117835
v -0.297749 0.0736405 0.0116798
v -0.3096 0.0698725 0.0131737
v -0.184068 0.0793532 0.0132386
v -0.181691 0.0793532 0.0132595
v -0.17933 0.0793532 0.0132774
v -0.176954 0.0793532 0.0132914
v -0.156252 0.0504228 0.0111524
v -0.3096 0.0732615 0.00321502
v -0.307892 0.0733974 0.00321502
v -0.293012 0.0722391 0.0128247
v -0.262211 0.0746128 0.0128516
v -0.290651 0.0722391 0.0129015
v -0.288274 0.0722391 0.0129673
v -0.226689 0.0769866 0.0130152
v -0.307224 0.0698725 0.0132056
v -0.285914 0.0722391 0.0130261
v -0.304847 0.0698725 0.0132326
v -0.243262 0.0746128 0.0132465
v -0.210116 0.0769866 0.0132725
v -0.207755 0.0769866 0.0132884
v -0.236148 0.0746128 0.0132944
v -0.205394 0.0769866 0.0132964
v -0.264588 0.0722462 0.0132984
v -0.295388 0.0698725 0.0132964
v -0.297749 0.0698725 0.0132874
v -0.269309 0.0722462 0.0132774
v -0.238524 0.0746128 0.0132834
v -0.266948 0.0722462 0.0132914
v -0.30961 0.0662963 0.0133306
v -0.301108 0.00539317 0.00990892
f 7 1 2
f 7 63 86
f 7 86 42
f 7 42 14
f 1 7 3
f 1 3 4
f 1 4 5
f 1 5 2
f 7 2 6
f 2 8 6
f 2 5 9
f 2 9 10
f 2 10 11
f 2 11 12
f 2 12 8
f 7 13 3
f 7 14 15
f 7 15 13
f 3 13 16
f 3 16 4
f 4 16 17
f 4 17 5
f 5 17 18
f 5 18 19
f 5 19 9
f 6 20 21
f 6 21 22
f 6 22 23
f 6 23 24
f 6 24 25
f 6 25 26
f 6 26 7
f 6 8 27
f 6 27 28
f 6 28 29
f 6 29 30
f 6 30 31
f 6 31 32
f 6 32 20
f 7 26 33
f 8 12 34
f 8 34 35
f 8 35 36
f 8 36 37
f 8 37 27
f 9 19 18
f 9 18 38
f 9 38 10
f 10 38 39
f 10 39 11
f 11 39 40
f 11 40 41
f 11 41 12
f 12 41 34
f 13 15 16
f 14 42 43
f 14 43 44
f 14 44 15
f 15 44 16
f 16 44 17
f 17 44 45
f 17 45 46
f 17 46 18
f 18 46 29
f 18 29 39
f 18 39 38
f 20 22 21
f 20 32 47
f 20 47 48
f 20 48 49
f 20 49 22
f 22 49 50
f 22 50 23
f 23 50 51
f 23 51 24
f 24 51 52
f 24 52 25
f 25 52 53
f 25 53 26
f 26 53 54
f 26 54 55
f 26 55 33
f 27 37 28
f 28 37 36
f 28 36 29
f 29 36 56
f 29 56 57
f 29 57 40
f 29 40 39
f 29 46 45
f 29 45 64
f 29 64 86
f 29 86 85
f 29 85 58
f 29 58 47
f 29 47 30
f 30 47 31
f 31 47 32
f 33 55 59
f 33 59 60
f 33 60 61
f 33 61 62
f 33 62 63
f 33 63 7
f 34 41 35
f 35 41 56
f 35 56 36
f 40 57 41
f 41 57 56
f 42 86 64
f 42 64 65
f 42 65 43
f 43 65 44
f 44 65 45
f 45 65 64
f 47 58 66
f 47 66 48
f 48 66 49
f 49 66 67
f 49 67 50
f 50 67 51
f 51 67 52
f 52 67 68
f 52 68 69
f 52 69 70
f 52 70 53
f 53 70 58
f 53 58 54
f 54 58 55
f 55 58 71
f 55 71 59
f 58 70 72
f 58 72 69
f 58 69 68
f 58 68 66
f 58 85 71
f 59 71 73
f 59 73 74
f 59 74 60
f 60 74 75
f 60 75 61
f 61 75 76
f 61 76 62
f 62 76 84
f 62 84 77
f 62 77 78
f 62 78 63
f 63 78 79
f 63 85 86
f 66 68 67
f 69 72 70
f 71 85 73
f 85 80 81
f 85 81 73
f 73 81 82
f 73 82 75
f 73 75 74
f 75 82 83
f 75 83 76
f 76 83 81
f 76 81 84
f 77 84 80
f 77 80 78
f 78 80 79
f 79 80 85
f 79 85 63
f 80 84 81
f 81 83 82
