v -0.299435 0.0662035 0.000550124
v -0.304118 0.065622 0.001505
v -0.300445 0.067516 0.001505
v -0.297897 0.0645 0.001505
v -0.33003 -0.067346 -0
v -0.32953 -0.067346 -0
v -0.32878 -0.067346 -0.000666
v -0.32953 0.067347 -0
v -0.33003 0.067347 -0
v -0.329921 0.0680539 -0.000758335
v -0.006001 -0.169998 -0.001
v -0.325251 -0.0675896 -0.000309819
v -0.217921 -0.0728135 -0.000354839
v -0.211924 -0.071774 -0.001
v -1e-06 -0.163998 -0.001
v -0.188084 -0.169998 -0.001
v -1e-06 0.163998 -0.001
v -0.211924 0.071774 -0.001
v -0.188084 0.169998 -0.001
v -0.300397 0.0673611 -0.000790631
v -1e-06 -0.070549 -0.001
v -1e-06 -0.0332745 -0.0005
v -0.213553 0.0666018 -0.000426827
v -0.211448 0.069999 -0.001
v -1e-06 0.070549 -0.001
v -0.211924 0.068224 -0.001
v -1e-06 0.063449 -0.001
v -1e-06 0.042499 -0.001
v -0.006001 0.169998 -0
v -0.328268 0.070494 -0
v -0.330312 -0.0687948 -0.000407987
v -0.32753 0 -0
v -0.32753 0.067347 5.97241e-18
v -0.329907 0.069579 -0
v -0.217559 0.0732429 -0.00040625
v -0.211924 0.071774 -0
v -1e-06 0.163998 -0
v -0.00184951 0.168854 -0.000571429
v -0.198962 0.168583 -0.000375
v -1e-06 -0.163998 -0
v -0.211924 -0.071774 -0
v -0.006001 -0.169998 -0
v -0.00155556 -0.168441 -0.0005
v -0.198757 -0.168705 -0.000333333
v -0.282172 -0.0238224 -0.000590364
v -1e-06 -0.070549 -0
v -1e-06 -0.042499 -0
v -0.214743 -0.0664506 -0.000738095
v -0.251997 -0.0332745 -0
v -1e-06 0.070549 -0
v -0.211448 0.069999 -0
v -1e-06 0.063449 -0
v -1e-06 0.0297245 -0.0005
v -0.329695 0.067347 0.00025
v -0.328829 0.067347 0.000749
v -0.32828 0.067347 0.0002
v -0.328829 -0.067346 0.000749
v -0.32828 -0.067346 0.0002
v -0.32953 0.067347 0.001499
v -0.32903 -0.004098 0.001499
v -0.329612 -0.067346 0.0008745
v -0.213437 -0.0677941 0.000549991
v -0.216907 -0.0726098 0.001505
v -0.21812 -0.0683762 0.001505
v -0.217216 -0.0672335 0.001505
v -0.214446 -0.066482 0.001505
v -0.211898 -0.0694984 0.001505
v -0.299437 -0.0617934 0.000549675
v -0.302906 -0.06661 0.001505
v -0.304118 -0.0623762 0.001505
v -0.303214 -0.0612335 0.001505
v -0.300445 -0.060482 0.001505
v -0.297897 -0.0634986 0.001505
v -0.28832 -0.0613849 0.000551496
v -0.289857 -0.0671173 0.001505
v -0.292491 -0.0635883 0.001505
v -0.29205 -0.062199 0.001505
v -0.289727 -0.060515 0.001505
v -0.286275 -0.0624321 0.001505
v -0.291636 -0.0215671 0.000552425
v -0.285825 -0.0203682 0.001505
v -0.287795 -0.0243063 0.001505
v -0.289234 -0.0245365 0.001505
v -0.291782 -0.023217 0.001505
v -0.291619 -0.0192717 0.001505
v -0.289951 0.0235243 0.000551889
v -0.287899 0.0179573 0.001505
v -0.292087 0.0193185 0.001505
v -0.292529 0.0207065 0.001505
v -0.291605 0.023423 0.001505
v -0.28768 0.0238503 0.001505
v -0.298436 0.019154 0.000551194
v -0.304053 0.0210586 0.001505
v -0.300362 0.02346 0.001505
v -0.299004 0.0229315 0.001505
v -0.297473 0.020504 0.001505
v -0.299608 0.0171831 0.001505
v -0.299435 -0.0177957 0.000550092
v -0.302906 -0.0226106 0.001505
v -0.304118 -0.0183767 0.001505
v -0.303214 -0.0172345 0.001505
v -0.300445 -0.016483 0.001505
v -0.297897 -0.019499 0.001505
v -0.287384 0.0661768 0.000531781
v -0.289857 0.0607308 0.001505
v -0.291955 0.062046 0.001505
v -0.292119 0.065622 0.001505
v -0.291214 0.0667645 0.001505
v -0.290379 0.06728 0.001505
v -0.288445 0.067516 0.001505
v -0.285897 0.0645 0.001505
v -0.213385 0.0721759 0.000531753
v -0.215858 0.0667308 0.001505
v -0.217956 0.068046 0.001505
v -0.21812 0.071622 0.001505
v -0.217216 0.0727645 0.001505
v -0.21638 0.07328 0.001505
v -0.214446 0.073516 0.001505
v -0.211898 0.0704999 0.001505
v -0.329115 -0.067418 0.001519
v -0.329115 -0.006307 0.001519
v -0.329115 0.067419 0.00152
v -0.328177 0.067492 0.000115
v -0.32867 0.067454 0.000445
v -0.329 0.067428 0.000938
v -0.329 -0.067428 0.000938
v -0.32867 -0.067453 0.000445
v -0.328177 -0.067492 0.000115
v -0.309837 0.0286588 -0
v -0.31137 -0.0094488 -0
v -0.328268 -0.070494 -0
v -0.301514 -0.0187681 -0
v -0.327595 0.067538 -0
v -0.327595 0.024249 -0
v -0.327595 0.014447 -0
v -0.327595 -0.014447 -0
v -0.327595 -0.016423 -0
v -0.327595 -0.024249 -0
v -0.327595 -0.067538 1.90378e-19
v -0.294732 -0.0605123 -0
v -0.239171 0.0744974 -0
v -0.23599 0.0547395 -0
v -0.242327 0.0287699 -0
v -0.272439 0.0595614 -0
v -0.214331 0.021288 -0
v -0.230463 0.058974 -0
v -0.266953 0.0749383 -0
v -0.252563 0.04541 -0
v -0.237175 0.0154109 -0
v -0.282813 0.016104 -0
v -0.230463 0.017944 -0
v -0.2104 0.0749925 -0
v -0.264407 0.073487 -0
v -0.28512 0.0454503 -0
v -0.230769 0.0614828 -0
v -0.213316 0.0696914 -0
v -0.220469 0.0580217 -0
v -0.210582 0.073487 -0
v -0.292118 0.0393795 -0
v -0.293983 0.0394391 -0
v -0.209101 0.067928 -0
v -0.290943 0.0188833 -0
v -0.279914 0.0143889 -0
v -0.286784 -0.0216081 -0
v -0.217219 -0.0709568 -0
v -0.230345 -0.060841 -0
v -0.272372 -0.0530673 -0
v -0.236036 -0.0281745 -0
v -0.210582 -0.073487 -0
v -0.284771 -0.017944 -0
v -0.244961 -0.0508948 -0
v -0.290281 -0.016472 -0
v -0.24247 -0.016104 -0
v -0.257396 -0.017063 -0
v -0.268667 -0.073487 -0
v -0.292118 -0.0393795 -0
v -0.294119 -0.0409395 -0
v -0.270911 -0.0742451 -0
v -0.155339 -0.079368 -0
v -0.210842 -0.077203 -0
v -0.154066 -0.073487 -0
v -0.153481 -0.0714845 -0
v -0.156253 -0.073224 -0
v -0.2349 -0.0143321 -0
v -0.290256 -0.0562596 -0
v -0.209369 -0.0687935 -0
v -0.236954 -0.074615 -0
v -0.280392 -0.013 -0
f 1 4 2
f 1 2 3
f 1 3 4
f 5 6 31
f 31 6 7
f 31 7 12
f 8 9 10
f 13 44 45
f 14 15 43
f 14 43 11
f 14 11 13
f 13 11 16
f 13 16 44
f 38 18 19
f 19 18 35
f 19 35 39
f 39 35 20
f 15 14 21
f 21 14 48
f 21 48 22
f 45 48 13
f 20 35 23
f 18 38 17
f 18 17 24
f 24 17 25
f 24 25 26
f 26 25 27
f 26 27 23
f 23 27 28
f 23 28 53
f 23 53 45
f 22 48 45
f 45 20 23
f 12 6 31
f 31 6 5
f 31 131 12
f 12 45 32
f 32 45 33
f 34 9 8
f 20 30 33
f 33 30 34
f 33 34 8
f 35 39 20
f 36 37 38
f 36 38 29
f 36 29 35
f 35 29 39
f 41 42 43
f 42 41 44
f 44 41 13
f 44 13 45
f 45 13 49
f 41 43 40
f 41 40 48
f 48 40 46
f 48 46 47
f 45 20 33
f 20 45 23
f 37 36 50
f 50 36 51
f 50 51 52
f 52 51 23
f 23 35 20
f 13 48 49
f 49 48 47
f 49 47 22
f 49 22 45
f 45 53 23
f 23 53 52
f 11 42 16
f 16 42 44
f 38 19 29
f 29 19 39
f 31 12 131
f 30 20 10
f 30 10 34
f 34 10 9
f 54 59 55
f 54 55 8
f 8 55 56
f 8 56 33
f 57 61 58
f 58 61 6
f 58 6 12
f 7 45 12
f 61 54 6
f 6 54 8
f 6 8 7
f 7 8 10
f 7 10 45
f 45 10 20
f 60 61 57
f 59 60 55
f 55 60 57
f 55 57 56
f 56 57 58
f 58 12 32
f 58 32 56
f 56 32 33
f 14 13 41
f 14 41 48
f 26 23 24
f 24 23 51
f 24 51 18
f 18 51 36
f 18 36 35
f 15 40 43
f 43 42 11
f 17 37 25
f 25 37 50
f 25 50 27
f 27 50 52
f 27 52 28
f 28 52 53
f 22 47 21
f 21 47 46
f 21 46 15
f 15 46 40
f 38 37 17
f 62 67 63
f 62 63 64
f 62 64 65
f 62 65 66
f 62 66 67
f 68 73 69
f 68 69 70
f 68 70 71
f 68 71 72
f 68 72 73
f 74 79 75
f 74 75 76
f 74 76 77
f 74 77 78
f 74 78 79
f 80 85 81
f 80 81 82
f 80 82 83
f 80 83 84
f 80 84 85
f 86 91 87
f 86 87 88
f 86 88 89
f 86 89 90
f 86 90 91
f 92 97 93
f 92 93 94
f 92 94 95
f 92 95 96
f 92 96 97
f 98 103 99
f 98 99 100
f 98 100 101
f 98 101 102
f 98 102 103
f 104 111 105
f 104 105 106
f 104 106 107
f 104 107 108
f 104 108 109
f 104 109 110
f 104 110 111
f 112 119 113
f 112 113 114
f 112 114 115
f 112 115 116
f 112 116 117
f 112 117 118
f 112 118 119
f 133 123 9
f 9 123 124
f 9 124 125
f 125 122 9
f 126 127 5
f 5 127 128
f 5 128 139
f 5 120 126
f 163 130 129
f 133 34 30
f 34 133 9
f 134 129 135
f 129 134 133
f 130 163 132
f 136 130 137
f 137 130 138
f 139 31 5
f 139 131 31
f 130 139 138
f 136 135 130
f 130 135 129
f 130 132 139
f 139 132 140
f 139 140 131
f 133 30 129
f 129 30 163
f 123 133 134
f 137 128 136
f 136 128 135
f 137 138 128
f 128 138 139
f 126 124 127
f 127 124 123
f 127 123 128
f 128 123 134
f 128 134 135
f 120 121 126
f 126 121 125
f 126 125 124
f 121 122 125
f 149 150 154
f 145 151 143
f 143 151 149
f 149 151 145
f 141 153 147
f 146 155 157
f 143 144 148
f 143 148 142
f 142 148 144
f 142 144 141
f 141 144 153
f 153 144 147
f 154 150 162
f 154 162 159
f 159 162 160
f 156 141 152
f 156 152 158
f 156 158 161
f 161 158 152
f 142 155 146
f 142 146 157
f 159 160 154
f 150 149 163
f 150 163 162
f 174 172 173
f 168 171 167
f 168 167 164
f 179 181 182
f 179 183 181
f 181 183 182
f 178 167 175
f 168 174 173
f 185 176 164
f 184 168 173
f 180 169 186
f 180 165 169
f 169 165 186
f 168 166 171
f 171 166 167
f 167 166 187
f 167 187 175
f 175 187 178
f 164 172 170
f 170 172 174
f 170 174 164
f 164 176 177
f 177 176 185
f 164 132 172
f 172 132 188
f 172 188 173
f 173 188 184
