v 0.000813 -0.003827 0.079062
v 0 -0.004 0.079062
v 0 0 0.08
v 7.9625e-05 0.0025085 0.08
v 0.00156587 -0.00172637 0.08
v 0.000623 -0.00293 0.08
v -0.00262775 -0.001181 0.08
v 0.00129562 -0.0247975 0.00127
v -0.003031 -0.023601 0.00127
v -0.003888 -0.023657 0.00127
v -0.004661 -0.024029 0.00127
v 0.0130705 -0.024891 0.0127
v 0.012768 -0.024845 0.0127
v 0.020038 -0.036748 0.0127
v 0.021806 -0.035728 0.0127
v 0.029181 -0.004879 0.00381
v 0.0273928 -0.0122796 0.00127
v 0.022967 -0.008486 0.00127
v 0.0197198 -0.0137728 0.00127
v 0.016169 -0.02224 0.01245
v 0.010376 -0.0137075 0.00381
v 0.0149979 -0.0135231 0.00381
v -0.0030625 -0.004867 0.0254
v 0.00302163 -0.000235625 0
v -0.00058875 -0.00776787 0.0254
v 0.003732 0.001 0.0254
v 0.00450625 0.004584 0.0254
v 0.00378675 0.00481125 0
v -0.003201 0.00317837 0
v 0.00202275 0.00570013 0
v -0.00156725 -0.00318575 0
v -0.005608 -0.00179988 0.0254
v -0.0037985 -0.00075275 0
v -0.009829 -0.0175575 0.0127
v -0.00866775 -0.0195881 0.0127
v -0.0107117 -0.0194278 0
v -0.0107723 -0.0235997 0.0127
v -0.010897 -0.022371 0
v -0.0153095 -0.0221015 0.0127
v -0.0147148 -0.0192923 0.0127
v 0.0174962 -0.0217753 0
v 0.013655 -0.019613 0
v 0.0137124 -0.0240464 0.0127
v 0.012916 -0.022371 0
v 0.0113375 -0.0230988 0.0127
v 0.011906 -0.022641 0
v 0.0129942 -0.0397501 0
v 0.009014 -0.0229507 0.0127
v 0.0101375 -0.0204898 0
v 0.0103812 -0.0172158 0.0127
v 0.0126675 -0.0173015 0.0127
v -0.032084 0.018524 0.00381
v -0.0222056 0.00561912 0.00381
v -0.016167 0.022239 0.01245
v -0.02316 -0.008177 0.00127
v -0.0308084 -0.0147903 0.00127
v -0.020648 -0.0161137 0.00127
v -0.018265 -0.01713 0.00381
v -0.035608 -0.01023 0.00381
v -0.0291793 -0.00429375 0.00381
v -0.0286345 -0.00537 0.00381
v -0.024033 -0.00669225 0.00381
v -0.026819 -0.006602 0.00381
v -0.020795 -0.010296 0.00381
v -0.0175263 -0.0156864 0.00381
v -0.022009 -0.035572 0.01245
v -0.015293 -0.023939 0.01245
v -0.01542 -0.023866 0.00406
v -0.0375392 -0.00664575 0.00381
v -0.0349587 -0.0138237 0.00381
v -0.034948 -0.023072 0.006261
v -0.03642 -0.020521 0.006261
v -0.036958 -0.02083 0.024874
v -0.0250068 -0.0011945 0
v -0.0205972 0.001724 0.0127
v -0.0198037 -0.000555 0.0127
v -0.0223996 0.00012625 0
v -0.0222305 -0.00625975 0.00381
v -0.019568 0.001147 0.0127
v -0.013923 -0.0104425 0.00381
v 0.008501 -0.011882 0.00406
v 0.008283 -0.011023 0.003991
v 0.008236 -0.010945 0.004025
v 0.008072 -0.011148 0.00427
v 0.007458 -0.010124 0.005435
v 0.007536 -0.010246 0.005055
v -0.003948 -0.014094 0.00381
v -0.006503 -0.012284 0.0127
v -0.0067825 -0.0185941 0.00381
v -0.00967 -0.024601 0.01245
v -0.007612 -0.022167 0.01245
v -0.00874925 -0.0130917 0.0127
v -0.0145646 -0.0237361 0.0127
v -0.016135 -0.0199875 0.0127
v -0.010727 -0.016031 0.01245
v -0.007451 -0.010111 0.005423
v -0.007716 -0.010546 0.004741
v -0.013589 -0.016044 0.003825
v -0.017816 -0.0191185 0.00381
v -0.011929 -0.015745 0.003825
v -0.013557 -0.01613 0.003883
v -0.0174765 0.002646 0.00381
v 0.013077 0.031231 0.001394
v 0.011827 0.029251 0.001303
v 0.012997 0.031278 0.001303
v 0.01025 0.028242 0.00127
v 0.011247 0.028418 0.00152
v 0.010277 0.02812 0.001303
v 0.010312 0.027959 0.00356
v 0.008799 0.027637 0.001303
v 0.008748 0.027752 0.00127
v 0.008799 0.027637 0.001303
v 0.008748 0.027752 0.00127
v 0.007449 0.026867 0.001303
v 0.007376 0.026969 0.00127
v 0.005714 0.0252955 0.00127
v 0.008837 0.027552 0.001394
v 0.006376 0.025753 0.00152
v 0.005455 0.024533 0.00152
v 0.005455 0.024533 0.00152
v -0.005238 0.024665 0.00127
v -0.005425 0.024552 0.001394
v -0.004736 0.023929 0.001303
v -0.004661 0.024029 0.00127
v -0.004736 0.023929 0.001303
v -0.00103038 0.0256721 0.00127
v -0.003888 0.023657 0.00127
v -0.00392 0.023535 0.001303
v -0.004792 0.023854 0.001394
v -0.004834 0.023797 0.00356
v -0.003952 0.023411 0.00152
v -0.002999 0.02335 0.00152
v 0.008883 0.035705 0.00356
v 0.005949 0.036274 0.00152
v 0.002987 0.036672 0.00356
v 0 0.036758 0.00152
v 0 0.036794 0.00356
v -0.002987 0.036672 0.00356
v -0.002984 0.036637 0.00152
v -0.005949 0.036274 0.00152
v -0.008883 0.035705 0.00356
v -0.011742 0.034832 0.00152
v -0.011753 0.034866 0.00356
v -0.0032255 0.0313495 0.00127
v 0.005955 0.036309 0.00356
v 0 0.036794 0.00356
v -0.002987 0.036672 0.00356
v 0 0.036794 0.00356
v -0.005955 0.036309 0.00356
v -0.011753 0.034866 0.00356
v -0.012679 0.034263 0.00152
v -0.012703 0.034288 0.00356
v -0.01347 0.032258 0.00356
v -0.013108 0.031213 0.00152
v -0.013139 0.031196 0.00356
v 0.003031 0.023601 0.00127
v 0.003888 0.023657 0.00127
v 0.004661 0.024029 0.00127
v 0.012725 0.033831 0.00127
v 0.012066 0.034409 0.00127
v 0.013234 0.033077 0.001303
v 0.012825 0.033907 0.001303
v 0.012825 0.033907 0.001303
v 0.012898 0.033964 0.001394
v 0.012598 0.034273 0.00152
v 0.012129 0.034517 0.001303
v 0.012175 0.034598 0.001394
v 0.013457 0.032132 0.00356
v 0.013443 0.032463 0.00152
v 0.013479 0.032463 0.00356
v 0.013139 0.031196 0.00356
v 0.011268 0.028389 0.00356
v 0.007523 0.026763 0.00152
v 0.006376 0.025753 0.00152
v 0.006402 0.025729 0.00356
v 0.005486 0.024515 0.00356
v 0.005486 0.024515 0.00356
v 0.002994 0.023314 0.00356
v 0.003961 0.023377 0.00356
v 0.004813 0.023826 0.00152
v 0.004834 0.023797 0.00356
v 0.004834 0.023797 0.00356
v 0 0.023541 0.00152
v 0 0.023506 0.00356
v 0 0.023506 0.00356
v 0 0.023506 0.00356
v -0.002994 0.023314 0.00356
v -0.002994 0.023314 0.00356
v -0.003961 0.023377 0.00356
v -0.007692 0.026527 0.00381
v -0.006588 0.025556 0.00381
v -0.008216 0.027014 0.003777
v -0.007619 0.026629 0.003777
v -0.007619 0.026629 0.003777
v -0.006496 0.025642 0.003777
v -0.005703 0.024383 0.00381
v -0.012728 0.034314 0.003686
v -0.013435 0.033404 0.003777
v -0.012793 0.034381 0.003777
v -0.008914 0.03583 0.003777
v -0.011834 0.035107 0.00381
v -0.00299 0.036708 0.003686
v 0 0.036829 0.003686
v -0.008945 0.035952 0.00381
v 0.012338 0.034879 0.00381
v 0.013056 0.034085 0.003777
v 0.01317 0.031178 0.003686
v 0.013156 0.034162 0.00381
v 0.012 0.029152 0.003686
v 0.011344 0.028286 0.003777
v 0.012189 0.029042 0.00381
v 0.011418 0.028184 0.00381
v 0.005595 0.024448 0.003777
v 0.006496 0.025642 0.003777
v 0.006588 0.025556 0.00381
v 0.007619 0.026629 0.003777
v 0.008968 0.027255 0.00381
v 0.008917 0.02737 0.003777
v 0.00397 0.023342 0.003686
v 0.004911 0.023695 0.003777
v 0.003994 0.023253 0.003777
v 0.004986 0.023594 0.00381
v 0.002978 0.023187 0.003777
v 0.003994 0.023253 0.003777
v 0.004026 0.023131 0.00381
v 0.004026 0.023131 0.00381
v 0.002962 0.023062 0.00381
v 0 0.023377 0.003777
v 0 0.02347 0.003686
v -0.00299 0.023279 0.003686
v 0 0.02347 0.003686
v -0.004911 0.023695 0.003777
v -0.004026 0.023131 0.00381
v -0.005595 0.024448 0.003777
v -0.004986 0.023594 0.00381
v -0.004986 0.023594 0.00381
v -0.020038 0.036748 0.0127
v -0.013305 0.025086 0.0127
v -0.0184395 0.029897 0.0127
v -0.019832 0.036939 0.012447
v -0.0197 0.036778 0.009358
v -0.019629 0.036802 0.006263
v -0.00874 0.017178 0.0127
v -0.005154 0.010968 0.0127
v -0.008517 0.017619 0.012575
v -0.0087935 0.0174795 0.0127
v -0.008804 0.017376 0.0127
v -0.008664 0.017545 0.012667
v -0.008664 0.017545 0.012667
v -0.008586 0.017681 0.012667
v -0.008586 0.017681 0.012667
v -0.008783 0.017583 0.0127
v -0.007962 0.018593 0.012667
v -0.007962 0.018593 0.012667
v -0.00788 0.01855 0.012575
v -0.00788 0.01855 0.012575
v -0.007458 0.019601 0.01245
v -0.007493 0.019609 0.012575
v -0.007493 0.019609 0.012575
v -0.007583 0.01963 0.012667
v -0.007583 0.01963 0.012667
v -0.008074 0.01865 0.0127
v -0.008074 0.01865 0.0127
v -0.007706 0.019658 0.0127
v -0.00808138 0.0213578 0.0127
v 0.011163 0.025202 0.00406
v 0.010281 0.025043 0.00406
v 0.00719 0.019806 0.003883
v 0.007801 0.018278 0.003973
v 0.008213 0.017442 0.003834
v 0.00775 0.018249 0.003883
v 0.00775 0.018249 0.003883
v 0.008278 0.017463 0.003862
v 0.011176 0.025122 0.01245
v 0.0092645 0.0177483 0.0127
v 0.009887 0.020622 0.0127
v 0.010023 0.021129 0
v 0.010157 0.021632 0.0127
v 0.010157 0.021632 0.0127
v 0.0104009 0.0204041 0
v 0.010525 0.022 0
v 0.010897 0.022371 0.0127
v 0.0150369 0.021981 0.0127
v 0.0122675 0.021719 0
v 0.013655 0.019613 0.0127
v 0.013287 0.019245 0
v 0.0134392 0.0175779 0.0127
v 0.012916 0.018873 0.0127
v 0.0133783 0.019336 0
v 0.03022 0.004436 0.00356
v 0.031246 0.004255 0.00152
v 0.018741 0.016869 0.00127
v 0.019668 0.019872 0.00127
v 0.022752 0.0170325 0.00127
v 0.019535 0.021439 0.001303
v 0.01966 0.021452 0.00127
v 0.019214 0.02296 0.001303
v 0.019333 0.022998 0.00127
v 0.019125 0.022932 0.001394
v 0.019115 0.018398 0.00152
v 0.019092 0.022921 0.00152
v 0.019092 0.022921 0.00152
v 0.019092 0.022921 0.00152
v 0.033253 0.015749 0.00356
v 0.031864 0.018397 0.00356
v 0.031834 0.018379 0.00152
v 0.030236 0.020903 0.00152
v 0.028467 0.023312 0.00356
v 0.02648 0.025546 0.00356
v 0.026454 0.025521 0.00152
v 0.024295 0.027585 0.00152
v 0.024319 0.027611 0.00356
v 0.031864 0.018397 0.00356
v 0.030266 0.020923 0.00356
v 0.028467 0.023312 0.00356
v 0.02648 0.025546 0.00356
v 0.024319 0.027611 0.00356
v 0.019308 0.024932 0.00152
v 0.019862 0.025963 0.00356
v 0.019277 0.02495 0.00356
v 0.018952 0.023953 0.00356
v 0.018987 0.023949 0.00152
v 0.019058 0.02291 0.00356
v 0.019058 0.02291 0.00356
v 0.019058 0.02291 0.00356
v 0.020447 0.026976 0.00356
v 0.023893 0.027874 0.00152
v 0.02391 0.027905 0.00356
v 0.02391 0.027905 0.00356
v 0.023333 0.028111 0.00152
v 0.023343 0.028146 0.00356
v 0.023323 0.028077 0.001394
v 0.023875 0.027843 0.001394
v 0.023298 0.027988 0.001303
v 0.023298 0.027988 0.001303
v 0.023829 0.027763 0.001303
v 0.023263 0.027867 0.00127
v 0.019115 0.023936 0.001303
v 0.0284469 0.0111153 0.00127
v 0.022342 0.008373 0.001303
v 0.0188174 0.0151147 0.00127
v 0.023205 0.008129 0.00127
v 0.023141 0.007978 0.00127
v 0.021753 0.009091 0.001394
v 0.022342 0.008373 0.001303
v 0.023091 0.007863 0.001303
v 0.021721 0.009078 0.00152
v 0.022276 0.008308 0.001394
v 0.022276 0.008308 0.001394
v 0.022251 0.008283 0.00152
v 0.023054 0.007777 0.001394
v 0.022251 0.008283 0.00152
v 0.022225 0.008258 0.00356
v 0.02304 0.007745 0.00152
v 0.023026 0.007712 0.00356
v 0.02304 0.007745 0.00152
v 0.023974 0.007542 0.00152
v 0.023026 0.007712 0.00356
v 0.022225 0.008258 0.00356
v 0.023973 0.007507 0.00356
v 0.020357 0.011753 0.00356
v 0.018694 0.01425 0.00356
v 0.018519 0.016991 0.00152
v 0.018192 0.016085 0.00356
v 0.018299 0.015128 0.00152
v 0.018264 0.015119 0.00356
v 0.018192 0.016085 0.00356
v 0.019081 0.018409 0.00356
v 0.019407 0.021425 0.00152
v 0.019372 0.021421 0.00356
v 0.019337 0.021418 0.003686
v 0.019252 0.019913 0.003777
v 0.018838 0.018484 0.00381
v 0.018958 0.018446 0.003777
v 0.018958 0.018446 0.003777
v 0.018265 0.01713 0.00381
v 0.018375 0.01707 0.003777
v 0.018375 0.01707 0.003777
v 0.019345 0.019904 0.003686
v 0.019047 0.018419 0.003686
v 0.019047 0.018419 0.003686
v 0.018456 0.017025 0.003686
v 0.019246 0.024968 0.003686
v 0.019246 0.024968 0.003686
v 0.019166 0.025014 0.003777
v 0.019166 0.025014 0.003777
v 0.019057 0.025077 0.00381
v 0.020416 0.026994 0.003686
v 0.020336 0.027041 0.003777
v 0.020227 0.027103 0.00381
v 0.023928 0.027935 0.003686
v 0.023378 0.028269 0.003777
v 0.024403 0.027708 0.003777
v 0.023975 0.028016 0.003777
v 0.024037 0.028125 0.00381
v 0.024486 0.027802 0.00381
v 0.026506 0.025571 0.003686
v 0.028494 0.023334 0.003686
v 0.031975 0.018461 0.003777
v 0.034542 0.013042 0.003777
v 0.030474 0.021068 0.00381
v 0.032084 0.018524 0.00381
v 0.033482 0.015858 0.00381
v 0.034659 0.013087 0.00381
v 0.035608 0.01023 0.00381
v 0.03022 0.004436 0.00356
v 0.031246 0.004219 0.00356
v 0.031246 0.004184 0.003686
v 0.030206 0.004404 0.003686
v 0.033586 0.004091 0.003777
v 0.033586 0.003965 0.00381
v 0.035492 0.005029 0.003686
v 0.034251 0.004271 0.003686
v 0.036013 0.005658 0.003777
v 0.03556 0.004967 0.003777
v 0.034918 0.004448 0.003777
v 0.034275 0.004182 0.003777
v 0.034308 0.00406 0.00381
v 0.026924 0.006833 0.00356
v 0.027584 0.006533 0.00152
v 0.027567 0.006502 0.00356
v 0.027503 0.006391 0.003777
v 0.026819 0.006602 0.00381
v 0.025454 0.007195 0.003777
v 0.02744 0.006283 0.00381
v 0.026871 0.006717 0.003777
v 0.026871 0.006717 0.003777
v 0.023012 0.00768 0.003686
v 0.021655 0.00905 0.003686
v 0.0222 0.008233 0.003686
v 0.022134 0.008168 0.003777
v 0.021655 0.00905 0.003686
v 0.021569 0.009015 0.003777
v 0.018592 0.014172 0.003777
v 0.021569 0.009015 0.003777
v 0.020326 0.011735 0.003686
v 0.01823 0.01511 0.003686
v 0.020326 0.011735 0.003686
v 0.01823 0.01511 0.003686
v 0.01814 0.015085 0.003777
v 0.018065 0.0161 0.003777
v 0.018019 0.015052 0.00381
v 0.018157 0.016089 0.003686
v 0.018456 0.017025 0.003686
v 0.018375 0.01707 0.003777
v 0.018065 0.0161 0.003777
v 0.01794 0.016115 0.00381
v 0.01794 0.016115 0.00381
v 0.022001 0.03545 0.009358
v 0.022057 0.0354 0.006263
v 0.022073 0.035645 0.012447
v 0.025212 0.004763 0.00381
v 0.023613 0.004873 0.003825
v 0.023609 0.00496 0.00381
v 0.027845 0.002466 0.003973
v 0.027831 0.002457 0.00406
v 0.027428 0.002952 0.00406
v 0.02614 0.003926 0.01245
v 0.0221368 -0.001916 0.0127
v 0.0198037 -0.00081 0.0127
v 0.0344359 -0.0120742 0
v 0.0221365 0.001869 0.0127
v 0.0267305 0.0011875 0.0127
v 0.0236862 0.00141325 0
v 0.025673 -0.00173125 0.0127
v 0.023812 -0.002019 0
v 0.028378 -0.001192 0.012621
v 0.028268 -0.001261 0.012575
v 0.028378 -0.001239 0.012575
v 0.027999 -0.001193 0.0127
v 0.0279 -0.001365 0.0127
v 0.021658 -0.003732 0.0127
v 0.021595 -0.003841 0.012667
v 0.022716 -0.004298 0.012667
v 0.022693 -0.004388 0.012575
v 0.027542 -0.002401 0.012667
v 0.0244616 -0.00384162 0.0127
v 0.026748 -0.003156 0.0127
v 0.027436 -0.002333 0.0127
v 0.027436 -0.002333 0.0127
v 0.020005 -0.002451 0.012575
v 0.019605 -0.001404 0.012667
v 0.020083 -0.002401 0.012667
v 0.020189 -0.002333 0.0127
v 0.019247 0.001192 0.012621
v 0.019247 0.001239 0.012575
v 0.019357 0.001261 0.012575
v 0.0195335 0.001126 0.0127
v 0.019724 0.001365 0.0127
v 0.0279313 -0.0001385 0.0127
v 0.027999 0.001193 0.0127
v 0.027999 0.001193 0.0127
v 0.020458 0.002706 0.0127
v 0.02802 0.001404 0.012667
v 0.028093 0.001275 0.012667
v 0.027345 0.002883 0.01245
v 0.026122 0.003895 0.012575
v 0.024616 0.004456 0.012575
v 0.021503 0.003895 0.012575
v 0.020288 0.002843 0.012575
v 0.020556 0.003121 0.01245
v 0.020261 0.002866 0.01245
v 0.026074 0.003815 0.012667
v 0.024599 0.004365 0.012667
v 0.023026 0.004365 0.012667
v 0.021551 0.003815 0.012667
v 0.00963 0.009851 0.00396
v 0.013346 0.003415 0.00396
v 0.011687 0.005396 0.004523
v 0.011148 0.005147 0.005407
v 0.010117 0.006572 0.006261
v 0.010031 0.007081 0.005407
v 0.010031 0.007081 0.005407
v 0.010031 0.007081 0.005407
v 0.008583 0.00878 0.005407
v 0.008457 0.008651 0.006261
v 0.012507 0.005775 0.00396
v 0.013289 0.006136 0.00381
v 0.011255 0.007944 0.00396
v 0.011958 0.00844 0.00381
v 0.011255 0.007944 0.00396
v 0.011958 0.00844 0.00381
v 0.010232 0.010466 0.00381
v 0.011687 0.005396 0.004523
v 0.012507 0.005775 0.00396
v 0.010516 0.007423 0.004523
v 0.010516 0.007423 0.004523
v 0.023109 0.031835 0.00381
v 0.027333 0.029476 0.00396
v 0.026748 0.028845 0.00381
v 0.0375392 0.00664575 0.00381
v 0.039193 0.008933 0.00396
v 0.016205 0.01814 0.00381
v 0.03066 0.025998 0.00396
v 0.032829 0.021673 0.00381
v 0.035954 0.017979 0.00396
v 0.016794 0.019753 0.00381
v 0.016798 0.021469 0.00381
v 0.0349587 0.0138237 0.00381
v 0.037035 0.013263 0.00381
v 0.007221 0.009851 0.009358
v 0.008078 0.011158 0.004284
v 0.007319 0.009912 0.006266
v 0.010507 0.016158 0.0127
v 0.0150405 0.023967 0.0127
v 0.015132 0.02348 0.0127
v 0.015226 0.023564 0.012667
v 0.015295 0.023625 0.012575
v 0.011044 0.0164 0.0127
v 0.013246 0.01626 0.01245
v 0.016266 0.019397 0.012575
v 0.016469 0.020512 0.01245
v 0.016433 0.020513 0.012575
v 0.016433 0.020513 0.012575
v 0.016354 0.021643 0.01245
v 0.01632 0.021635 0.012575
v 0.016176 0.019423 0.012667
v 0.015932 0.022694 0.012575
v 0.012114 0.016318 0.0127
v 0.015639 0.018467 0.0127
v 0.016055 0.019457 0.0127
v 0.010646 0.016313 0.0127
v 0.010741 0.0163555 0.0127
v 0.010863 0.016275 0.012667
v 0.010836 0.016398 0.0127
v 0.013283 0.016156 0.00406
v 0.013531 0.016201 0.00406
v 0.013589 0.016044 0.003825
v 0.015103 0.016825 0.00381
v 0.016205 0.01814 0.00381
v 0.01613 0.018184 0.003825
v 0.016708 0.019768 0.003825
v 0.016794 0.019753 0.00381
v 0.016712 0.021454 0.003825
v 0.011929 0.015745 0.003825
v 0.013557 0.01613 0.003883
v 0.00687 0.009874 0.012723
v 0.00685 0.009846 0.012733
v 0.006038 0.010458 0.0127
v 0.005101 0.010855 0.012733
v 0.00852 0.017305 0.01245
v 0.005039 0.011521 0.005435
v 0.00493 0.011311 0.006052
v 0.00878 0.017593 0.0127
v 0.008678 0.017382 0.012667
v 0.008661 0.017553 0.012667
v 0.008681 0.017764 0.0127
v 0.008586 0.017681 0.012667
v 0.007851 0.022081 0.0127
v 0.007597 0.020573 0.0127
v 0.007597 0.020573 0.0127
v 0.007886 0.019071 0.0127
v 0.007886 0.019071 0.0127
v 0.0132905 0.0244292 0.0127
v 0.020922 0.036238 0.0127
v 0.012977 0.024846 0.0127
v 0.01124 0.02488 0.0127
v 0.009795 0.024379 0.0127
v 0.013085 0.025213 0.01245
v 0.019042 0.035811 0.004419
v 0.018843 0.03547 0.004284
v 0.007453 0.041025 0.005407
v 0.007453 0.041025 0.005407
v 0.012302 0.03984 0.005407
v 0.012355 0.040012 0.006261
v -0.016734 0.037542 0.004523
v -0.016734 0.037542 0.004523
v -0.018625 0.03561 0.003993
v -0.016366 0.036716 0.00396
v -0.016366 0.036716 0.00396
v -0.016015 0.035931 0.00381
v -0.018416 0.03525 0.003847
v 0.016975 0.038085 0.005407
v 0.018915 0.036109 0.004247
v 0.016366 0.036716 0.00396
v 0.018671 0.035689 0.004019
v -0.01186 0.038409 0.00396
v -0.011606 0.037587 0.00381
v -0.012127 0.039273 0.004523
v -0.011606 0.037587 0.00381
v -0.007185 0.039551 0.00396
v -0.007185 0.039551 0.00396
v -0.007031 0.038705 0.00381
v -0.002461 0.041029 0.004523
v -0.002406 0.040126 0.00396
v 0.0024335 0.0405775 0.0042415
v 0.007185 0.039551 0.00396
v 0.012127 0.039273 0.004523
v -0.016975 0.038085 0.005407
v 0.007485 0.041202 0.006261
v 0.012127 0.039273 0.004523
v 0.012302 0.03984 0.005407
v 0.007346 0.040441 0.004523
v 0.007346 0.040441 0.004523
v -0.002461 0.041029 0.004523
v -0.007346 0.040441 0.004523
v -0.012302 0.03984 0.005407
v 0.019949 0.037083 0.012886
v 0.01985 0.037132 0.012789
v 0.012794 0.024968 0.012667
v 0.01295 0.024969 0.012667
v 0.01122 0.025004 0.012667
v 0.009687 0.02457 0.012575
v 0.0082 0.023186 0.01245
v 0.007645 0.022155 0.012575
v 0.007612 0.022167 0.01245
v 0.009733 0.024489 0.012667
v 0.009733 0.024489 0.012667
v 0.007471 0.020571 0.012667
v 0.007768 0.019025 0.012667
v 0.005383 0.012644 0.004008
v 0.005436 0.012558 0.004014
v 0.005209 0.01233 0.00414
v 0.005581 0.013004 0.003857
v -0.003716 0.013266 0.00396
v 0.003948 0.014094 0.00381
v 0.003716 0.013266 0.00396
v 0.003312 0.011823 0.005407
v 0.003472 0.012395 0.004523
v 0.0011 0.012048 0.006261
v 0.001116 0.012228 0.005407
v 0.001116 0.012228 0.005407
v -0.003472 0.012395 0.004523
v 0.001252 0.013719 0.00396
v 0.001252 0.013719 0.00396
v 0.001331 0.014576 0.00381
v 0.00117 0.012819 0.004523
v 0.00117 0.012819 0.004523
v -0.001252 0.013719 0.00396
v -0.007015 0.019777 0.00381
v -0.008482 0.024216 0.00381
v -0.009424 0.024921 0.00381
v -0.009468 0.024846 0.003825
v -0.009468 0.024846 0.003825
v -0.009513 0.024767 0.003883
v -0.007545 0.018251 0.00381
v -0.0071 0.019792 0.003825
v -0.007509 0.022926 0.00381
v -0.008542 0.024153 0.003825
v -0.008482 0.024216 0.00381
v -0.008542 0.024153 0.003825
v -0.007586 0.022886 0.003825
v -0.008542 0.024153 0.003825
v -0.008604 0.024087 0.003883
v -0.005421 0.012217 0.004426
v -0.005624 0.012574 0.004284
v -0.005581 0.012537 0.004143
v -0.005116 0.010887 0.012723
v -0.005101 0.010855 0.012733
v -0.006922 0.009948 0.0127
v -0.00685 0.009846 0.012733
v -0.008501 0.011882 0.00406
v -0.008283 0.011023 0.003991
v -0.008236 0.010945 0.004025
v -0.007448 0.009827 0.005323
v -0.007489 0.009734 0.005408
v -0.007516 0.009777 0.005323
v -0.008072 0.011148 0.00427
v -0.007458 0.010124 0.005435
v -0.007536 0.010246 0.005055
v -0.008583 0.00878 0.005407
v -0.013346 0.003415 0.00396
v -0.012471 0.003191 0.004523
v -0.00963 0.009851 0.00396
v -0.010232 0.010466 0.00381
v -0.011958 0.00844 0.00381
v -0.011255 0.007944 0.00396
v -0.011255 0.007944 0.00396
v -0.011958 0.00844 0.00381
v -0.012507 0.005775 0.00396
v -0.012507 0.005775 0.00396
v -0.013289 0.006136 0.00381
v -0.017371 0.007551 0.00381
v -0.01418 0.003628 0.00381
v -0.00963 0.009851 0.00396
v -0.010031 0.007081 0.005407
v -0.009367 0.007584 0.006261
v -0.010516 0.007423 0.004523
v -0.008457 0.008651 0.006261
v -0.011148 0.005147 0.005407
v -0.010984 0.005072 0.006261
v -0.009884 0.006977 0.006261
v -0.010516 0.007423 0.004523
v -0.011255 0.007944 0.00396
v -0.012507 0.005775 0.00396
v -0.011687 0.005396 0.004523
v -0.011687 0.005396 0.004523
v -0.038355 0.008742 0.00381
v -0.026748 0.028845 0.00381
v -0.023109 0.031835 0.00381
v -0.0308278 0.0234057 0.00381
v -0.030004 0.025441 0.00381
v -0.037035 0.013263 0.00381
v -0.035184 0.017594 0.00381
v -0.0344987 0.0156212 0.00381
v -0.028474 0.030706 0.006261
v -0.031803 0.026967 0.005407
v -0.031803 0.026967 0.005407
v -0.039124 0.004096 0.00381
v -0.03998 0.004185 0.00396
v -0.040879 0.004279 0.004523
v -0.039311 0.014385 0.006261
v -0.039255 0.014058 0.005407
v -0.039255 0.014058 0.005407
v -0.039425 0.014119 0.006261
v -0.03194 0.027083 0.006261
v -0.034948 0.023072 0.006261
v -0.023615 0.032531 0.00396
v -0.039193 0.008933 0.00396
v -0.040075 0.009134 0.004523
v -0.039193 0.008933 0.00396
v -0.038355 0.008742 0.00381
v -0.037845 0.013553 0.00396
v -0.037035 0.013263 0.00381
v -0.037845 0.013553 0.00396
v -0.038696 0.013858 0.004523
v -0.035954 0.017979 0.00396
v -0.036762 0.018384 0.004523
v -0.035954 0.017979 0.00396
v -0.034302 0.022645 0.004523
v -0.032829 0.021673 0.00381
v -0.03066 0.025998 0.00396
v -0.03066 0.025998 0.00396
v -0.030004 0.025441 0.00381
v -0.027948 0.030139 0.004523
v -0.026748 0.028845 0.00381
v -0.027333 0.029476 0.00396
v -0.028352 0.030574 0.005407
v -0.03135 0.026583 0.004523
v -0.03135 0.026583 0.004523
v -0.037294 0.018649 0.005407
v -0.036762 0.018384 0.004523
v -0.038696 0.013858 0.004523
v -0.038696 0.013858 0.004523
v -0.040075 0.009134 0.004523
v -0.015132 0.02348 0.0127
v -0.0142908 0.0238964 0.0127
v -0.016041 0.022229 0.012667
v -0.016127 0.022262 0.012575
v -0.016434 0.020695 0.012575
v -0.016341 0.020694 0.012667
v -0.014124 0.016781 0.012667
v -0.012968 0.016316 0.012667
v -0.015923 0.022183 0.0127
v -0.015923 0.022183 0.0127
v -0.016215 0.020692 0.0127
v -0.015222 0.01787 0.0127
v -0.014061 0.01689 0.0127
v -0.014061 0.01689 0.0127
v -0.011998 0.016059 0.01245
v -0.01299 0.016226 0.012575
v -0.011995 0.016188 0.012667
v -0.012937 0.016438 0.0127
v -0.012937 0.016438 0.0127
v -0.010993 0.016151 0.01245
v -0.011 0.016186 0.012575
v -0.011997 0.016095 0.012575
v -0.011997 0.016095 0.012575
v -0.011995 0.016188 0.012667
v -0.011993 0.016313 0.0127
v -0.0119495 0.017458 0.0127
v -0.011 0.016186 0.012575
v -0.011019 0.016276 0.012667
v -0.010793 0.016356 0.0127
v -0.010727 0.016031 0.01245
v -0.010727 0.016031 0.01245
v -0.01024 0.0175619 0.0127
v -0.013225 0.024982 0.0127
v -0.0100895 0.0208747 0
v -0.0121587 0.0188055 0
v -0.0200282 0.0324525 0
v -0.007059 0.002255 0.0254
v -0.006289 0.002371 0.0254
v -0.00534 0.0046235 0
v -0.0064905 0.005633 0
v -0.00815275 0.00389062 0
v 0.001541 0.00630675 0.0254
v 0.004657 0.00765787 0
v 0.0071825 -0.005687 0
v 0.008461 -0.00411475 0
v 0.007803 -0.002484 0
v 0.005813 -0.00408013 0
v 0.0073655 -0.002367 0.0254
v 0.00531275 -0.00227325 0.0254
v -0.021526 -0.037285 0.0254
v -0.021811 -0.03645 0.024874
v -0.02737 -0.033233 0.0254
v -0.02737 -0.033233 0.0254
v -0.027739 -0.032142 0.024874
v -0.032467 -0.028275 0.0254
v -0.032467 -0.028275 0.0254
v -0.032838 -0.026884 0.024874
v -0.036678 -0.022546 0.0254
v -0.036678 -0.022546 0.0254
v -0.036958 -0.02083 0.024874
v -0.039888 -0.016201 0.0254
v -0.039888 -0.016201 0.0254
v -0.039977 -0.014161 0.024874
v -0.042011 -0.009415 0.0254
v -0.042011 -0.009415 0.0254
v -0.041806 -0.007075 0.024874
v -0.042988 -0.002372 0.0254
v -0.042792 0.004736 0.0254
v -0.041717 0.007504 0.024874
v -0.041428 0.011715 0.0254
v -0.041428 0.011715 0.0254
v -0.039802 0.014564 0.024874
v -0.038935 0.018374 0.0254
v -0.036452 0.021046 0.0155675
v -0.034947 0.024232 0.024874
v -0.021385 0.036603 0.024874
v -0.014776 0.039742 0.024874
v -0.025497 0.034691 0.0254
v -0.025186 0.034266 0.024874
v -0.012852 0.04109 0.0254
v -0.012695 0.040588 0.024874
v 0.013967 0.040094 0.024874
v 0.021526 0.037285 0.0254
v 0.021811 0.03645 0.024874
v 0.02737 0.033233 0.0254
v 0.02737 0.033233 0.0254
v 0.027739 0.032142 0.024874
v 0.032467 0.028275 0.0254
v 0.032467 0.028275 0.0254
v 0.032838 0.026884 0.024874
v 0.036678 0.022546 0.0254
v 0.036678 0.022546 0.0254
v 0.036958 0.02083 0.024874
v 0.039888 0.016201 0.0254
v 0.039888 0.016201 0.0254
v 0.039977 0.014161 0.024874
v 0.042011 0.009415 0.0254
v 0.042011 0.009415 0.0254
v 0.041806 0.007075 0.024874
v 0.042988 0.002372 0.0254
v 0.042792 -0.004736 0.0254
v 0.041717 -0.007504 0.024874
v 0.041428 -0.011715 0.0254
v 0.041428 -0.011715 0.0254
v 0.039802 -0.014564 0.024874
v 0.038935 -0.018374 0.0254
v 0.036452 -0.021046 0.0155675
v 0.034947 -0.024232 0.024874
v 0.021385 -0.036603 0.024874
v 0.014776 -0.039742 0.024874
v 0.025497 -0.034691 0.0254
v 0.025186 -0.034266 0.024874
v 0.012852 -0.04109 0.0254
v 0.012695 -0.040588 0.024874
v -0.045321 -0.0062845 0
v -0.0375885 -0.0255375 0
v -0.0202527 -0.0279455 0
v -0.040222 0.0060525 0
v -0.031687 0.0240612 0
v -0.037992 0.0131027 0
v -0.00639225 0.045137 0
v 0.0108073 0.044493 0
v 0.024708 0.0384226 0
v 0.0384335 0.0235511 0
v 0.0378624 -0.00363575 0
v 0.0448 0.01004 0
v 0.037958 -0.025764 0
v 0.036869 -0.027204 0
v 0.0233498 -0.0265705 0
v -0.0126733 -0.0294339 0
v -0.0091645 -0.0449575 0
v -0.0144932 -0.0270552 0
v -0.005633 -0.0064905 0
v 0.008248 0.0088965 0
v 0.005876 -7.3e-05 0
v 0.001737 -0.0056215 0
v -0.004363 -0.0021 0
v -0.0051365 0.00828975 0
v 0.00279 0.0097265 0
v -0.007298 -0.016409 0
v 0.0122732 0.0317354 0
v 0.0068105 0.01669 0
v 0.0222147 0.0207956 0
v -0.011959 -0.0102358 0
v 0.0154505 -0.0015915 0
v -0.014864 0.00260775 0
v 0.00379988 -0.0141728 0
v -0.0044375 -0.0052955 0
v -0.004379 -0.00834225 0
v -0.00258575 -0.00654925 0
v -0.002484 -0.006053 0.0254
v -0.002734 -0.010486 0.0254
v -0.005724 -0.009914 0.024892
v -0.004052 -0.010556 0.024892
v -0.00238 -0.011198 0.024892
v -0.002267 -0.010665 0.0254
v 0.001197 -0.011385 0.024892
v 0.004435 -0.009961 0.0254
v 0.002926 -0.010921 0.024892
v 0.00766 -0.008507 0.024892
v 0.009443 -0.005452 0.0254
v 0.008787 -0.007116 0.024892
v 0.00985475 -0.00278675 0.0254
v 0.010521 -0.003393 0.025146
v 0.010665 -0.002267 0.0254
v 0.011198 -0.00238 0.024892
v 0.00925275 0.00504175 0.0254
v 0.010458 0.004656 0.024892
v 0.007116 0.008787 0.024892
v 0.006197 0.006906 0.0254
v 0.007714 0.007611 0.0254
v 0.008507 0.00766 0.024892
v 0.008103 0.007296 0.0254
v 0.009483 0.006158 0.024892
v -0.010844 -0.00114 0.0254
v -0.011198 0.00238 0.024892
v -0.00873725 0.00280875 0.0254
v 0.003927 0.001052 0.0254
v -0.004435 0.009961 0.0254
v -0.00489837 0.00592313 0.0254
v -0.011291 0.000592 0.024892
v 0.008457 -0.008651 0.006261
v 0.009884 -0.006977 0.006261
v 0.013346 -0.003415 0.00396
v 0.008583 -0.00878 0.005407
v 0.010232 -0.010466 0.00381
v 0.010232 -0.010466 0.00381
v 0.00963 -0.009851 0.00396
v 0.00963 -0.009851 0.00396
v 0.010516 -0.007423 0.004523
v 0.009367 -0.007584 0.006261
v 0.010031 -0.007081 0.005407
v 0.010984 -0.005072 0.006261
v 0.011148 -0.005147 0.005407
v 0.012471 -0.003191 0.004523
v 0.011958 -0.00844 0.00381
v 0.011255 -0.007944 0.00396
v 0.011255 -0.007944 0.00396
v 0.011958 -0.00844 0.00381
v 0.012507 -0.005775 0.00396
v 0.012507 -0.005775 0.00396
v 0.013289 -0.006136 0.00381
v 0.011255 -0.007944 0.00396
v 0.010516 -0.007423 0.004523
v 0.011687 -0.005396 0.004523
v 0.012507 -0.005775 0.00396
v 0.011687 -0.005396 0.004523
v 0.0287967 -0.002514 0.00381
v 0.023812 -0.004964 0.00381
v 0.025473 -0.004586 0.003825
v 0.025503 -0.004667 0.00381
v 0.0274965 -0.00553425 0.00381
v 0.025442 -0.0045 0.003883
v 0.026839 -0.003631 0.003973
v 0.026877 -0.003676 0.003883
v 0.023615 -0.032531 0.00396
v 0.026748 -0.028845 0.00381
v 0.038355 -0.008742 0.00381
v 0.037845 -0.013553 0.00396
v 0.035184 -0.017594 0.00381
v 0.033547 -0.022147 0.00396
v 0.031803 -0.026967 0.005407
v 0.031803 -0.026967 0.005407
v 0.028474 -0.030706 0.006261
v 0.024494 -0.033743 0.005407
v 0.022256 -0.035231 0.005419
v 0.022302 -0.035316 0.00561
v 0.027333 -0.029476 0.00396
v 0.027948 -0.030139 0.004523
v 0.03066 -0.025998 0.00396
v 0.036762 -0.018384 0.004523
v 0.035954 -0.017979 0.00396
v 0.038696 -0.013858 0.004523
v 0.037845 -0.013553 0.00396
v 0.040075 -0.009134 0.004523
v 0.039193 -0.008933 0.00396
v 0.039193 -0.008933 0.00396
v 0.03998 -0.004185 0.00396
v 0.040879 -0.004279 0.004523
v 0.039311 -0.014385 0.006261
v 0.039255 -0.014058 0.005407
v 0.039255 -0.014058 0.005407
v 0.039425 -0.014119 0.006261
v 0.03194 -0.027083 0.006261
v 0.034948 -0.023072 0.006261
v 0.028352 -0.030574 0.005407
v 0.03135 -0.026583 0.004523
v 0.03135 -0.026583 0.004523
v 0.037294 -0.018649 0.005407
v 0.038696 -0.013858 0.004523
v 0.038696 -0.013858 0.004523
v 0.040075 -0.009134 0.004523
v 0.015073 -0.024066 0.0127
v 0.015132 -0.02348 0.0127
v 0.016044 -0.022219 0.012667
v 0.016131 -0.022252 0.012575
v 0.016434 -0.020674 0.012575
v 0.016167 -0.01909 0.012575
v 0.015979 -0.018695 0.01245
v 0.015364 -0.017698 0.012575
v 0.01608 -0.019121 0.012667
v 0.015927 -0.022174 0.0127
v 0.016216 -0.020672 0.0127
v 0.015962 -0.019164 0.0127
v 0.011044 -0.0164 0.0127
v 0.010727 -0.016031 0.01245
v 0.010727 -0.016031 0.01245
v 0.009751 -0.024355 0.0127
v 0.008074 -0.01865 0.0127
v 0.007706 -0.019658 0.0127
v 0.008804 -0.017376 0.0127
v 0.008783 -0.017583 0.0127
v 0.008586 -0.017681 0.012667
v 0.008586 -0.017681 0.012667
v 0.007962 -0.018593 0.012667
v 0.007962 -0.018593 0.012667
v 0.00788 -0.01855 0.012575
v 0.00788 -0.01855 0.012575
v 0.007458 -0.019601 0.01245
v 0.007493 -0.019609 0.012575
v 0.007493 -0.019609 0.012575
v 0.007583 -0.01963 0.012667
v 0.007583 -0.01963 0.012667
v 0.008517 -0.017619 0.012575
v 0.008664 -0.017545 0.012667
v 0.008664 -0.017545 0.012667
v 0.00775 -0.018249 0.003883
v 0.007015 -0.019776 0.00381
v 0.00121375 -0.0195014 0.00381
v 0.007105 -0.021477 0.003825
v 0.007019 -0.021492 0.00381
v 0.007248 -0.019816 0.003973
v 0.00719 -0.019806 0.003883
v 0.011606 -0.037587 0.00381
v 0.007031 -0.038705 0.00381
v -0.007453 -0.041025 0.005407
v -0.007453 -0.041025 0.005407
v -0.012302 -0.03984 0.005407
v -0.012355 -0.040012 0.006261
v 0.016734 -0.037542 0.004523
v 0.016734 -0.037542 0.004523
v 0.018625 -0.03561 0.003993
v 0.016366 -0.036716 0.00396
v 0.016015 -0.035931 0.00381
v 0.016366 -0.036716 0.00396
v 0.018416 -0.03525 0.003847
v -0.016975 -0.038085 0.005407
v -0.018915 -0.036109 0.004247
v -0.016366 -0.036716 0.00396
v -0.018671 -0.035689 0.004019
v 0.011606 -0.037587 0.00381
v 0.012127 -0.039273 0.004523
v 0.01186 -0.038409 0.00396
v 0.007185 -0.039551 0.00396
v 0.007185 -0.039551 0.00396
v 0.002461 -0.041029 0.004523
v 0.002406 -0.040126 0.00396
v -0.0024335 -0.0405775 0.0042415
v -0.007185 -0.039551 0.00396
v -0.012127 -0.039273 0.004523
v 0.016975 -0.038085 0.005407
v -0.007485 -0.041202 0.006261
v -0.012302 -0.03984 0.005407
v -0.012127 -0.039273 0.004523
v -0.007346 -0.040441 0.004523
v -0.007346 -0.040441 0.004523
v 0.002461 -0.041029 0.004523
v 0.007346 -0.040441 0.004523
v 0.012302 -0.03984 0.005407
v -0.0130715 -0.024889 0.0127
v -0.012977 -0.024846 0.0127
v -0.012794 -0.024968 0.012667
v -0.01295 -0.024969 0.012667
v -0.01122 -0.025004 0.012667
v -0.011176 -0.025122 0.01245
v -0.009687 -0.02457 0.012575
v -0.009687 -0.02457 0.012575
v -0.0082 -0.023186 0.01245
v -0.007645 -0.022155 0.012575
v -0.009733 -0.024489 0.012667
v -0.009733 -0.024489 0.012667
v -0.007471 -0.020571 0.012667
v -0.007768 -0.019025 0.012667
v -0.008586 -0.017681 0.012667
v -0.01124 -0.02488 0.0127
v -0.009795 -0.024379 0.0127
v -0.007851 -0.022081 0.0127
v -0.007597 -0.020573 0.0127
v -0.007597 -0.020573 0.0127
v -0.007886 -0.019071 0.0127
v -0.007886 -0.019071 0.0127
v -0.008681 -0.017764 0.0127
v -0.008681 -0.017764 0.0127
v -0.00878 -0.017593 0.0127
v -0.008678 -0.017382 0.012667
v -0.008661 -0.017553 0.012667
v -0.02187 -0.035834 0.012733
v -0.021894 -0.035873 0.012777
v -0.02099 -0.036356 0.012733
v 0.027323 0.031652 0.006261
v 0.028474 0.030706 0.006261
v 0.031803 0.026967 0.005407
v 0.034948 0.023072 0.006261
v 0.034948 0.023072 0.006261
v 0.040829 0.009306 0.006261
v 0.039466 0.013976 0.006261
v 0.039425 0.014119 0.006261
v 0.037455 0.01873 0.006261
v 0.037294 0.018649 0.005407
v 0.036958 0.02083 0.024874
v 0.03642 0.020521 0.006261
v 0.03642 0.020521 0.006261
v 0.031803 0.026967 0.005407
v 0.028352 0.030574 0.005407
v 0.028352 0.030574 0.005407
v 0.040879 0.004279 0.004523
v 0.039193 0.008933 0.00396
v 0.038696 0.013858 0.004523
v 0.037845 0.013553 0.00396
v 0.035954 0.017979 0.00396
v 0.033547 0.022147 0.00396
v 0.03135 0.026583 0.004523
v 0.027333 0.029476 0.00396
v 0.027333 0.029476 0.00396
v 0.023615 0.032531 0.00396
v 0.034797 0.022973 0.005407
v 0.034797 0.022973 0.005407
v 0.037294 0.018649 0.005407
v 0.037294 0.018649 0.005407
v 0.039255 0.014058 0.005407
v 0.040654 0.009266 0.005407
v 0.040075 0.009134 0.004523
v 0.039255 0.014058 0.005407
v 0.036762 0.018384 0.004523
v 0.037294 0.018649 0.005407
v 0.036762 0.018384 0.004523
v 0.034302 0.022645 0.004523
v 0.034797 0.022973 0.005407
v 0.03135 0.026583 0.004523
v 0.031803 0.026967 0.005407
v 0.027948 0.030139 0.004523
v 0.027948 0.030139 0.004523
f 3 5 4
f 3 7 5
f 3 4 7
f 6 2 1
f 9 10 8
f 8 10 11
f 19 17 18
f 56 57 55
f 66 67 68
f 76 79 75
f 96 97 95
f 101 100 98
f 65 58 99
f 78 64 65
f 78 65 80
f 60 61 63
f 60 63 62
f 69 70 59
f 104 103 105
f 110 106 113
f 114 111 115
f 117 108 112
f 127 123 128
f 125 122 129
f 134 133 145
f 136 135 146
f 139 137 147
f 140 138 149
f 142 141 150
f 151 143 152
f 154 153 155
f 124 126 121
f 121 126 144
f 156 157 126
f 126 157 158
f 126 158 116
f 160 163 166
f 167 164 165
f 159 161 162
f 169 168 170
f 107 109 172
f 175 173 118
f 176 174 120
f 180 179 182
f 119 181 177
f 178 183 185
f 186 132 188
f 131 130 189
f 192 190 193
f 194 191 195
f 198 197 199
f 202 148 203
f 201 200 204
f 205 206 208
f 171 209 207
f 211 210 212
f 213 215 214
f 216 217 218
f 220 219 224
f 222 221 225
f 226 223 227
f 230 228 231
f 187 229 184
f 233 232 235
f 236 234 196
f 240 241 242
f 249 245 251
f 247 248 252
f 255 257 259
f 250 256 253
f 254 258 261
f 262 260 264
f 270 273 271
f 269 268 272
f 274 266 267
f 276 277 279
f 278 281 282
f 285 286 288
f 295 293 296
f 306 304 313
f 307 305 314
f 310 308 316
f 311 309 317
f 303 321 323
f 318 326 320
f 327 312 329
f 330 328 331
f 334 333 332
f 337 336 335
f 298 338 297
f 299 322 301
f 341 294 292
f 339 294 342
f 343 340 346
f 345 344 349
f 348 347 352
f 351 350 354
f 356 353 358
f 357 355 360
f 365 364 366
f 368 363 300
f 324 369 302
f 372 373 375
f 379 374 380
f 381 377 382
f 325 371 370
f 319 388 383
f 384 389 385
f 386 390 387
f 392 391 394
f 395 393 396
f 397 315 398
f 401 399 402
f 403 400 404
f 408 406 409
f 414 412 415
f 416 413 417
f 418 410 411
f 291 290 407
f 420 419 421
f 424 423 426
f 427 425 422
f 428 359 430
f 431 429 433
f 362 436 361
f 438 435 432
f 434 437 440
f 439 367 443
f 442 441 447
f 446 444 378
f 448 445 376
f 451 449 450
f 453 452 454
f 455 457 456
f 467 468 469
f 473 475 474
f 478 476 480
f 482 481 483
f 485 487 486
f 459 472 477
f 465 479 490
f 490 479 471
f 490 471 470
f 490 491 463
f 459 460 484
f 462 493 460
f 460 493 489
f 460 489 488
f 494 492 495
f 496 458 497
f 501 502 500
f 503 498 504
f 505 499 506
f 511 510 512
f 516 514 515
f 519 518 522
f 507 520 523
f 513 509 526
f 524 508 517
f 527 525 521
f 531 539 405
f 543 542 541
f 551 552 554
f 553 555 556
f 558 548 547
f 560 557 561
f 562 564 565
f 550 566 567
f 571 569 533
f 572 570 537
f 574 573 538
f 576 575 568
f 577 580 578
f 582 583 581
f 585 584 586
f 275 563 549
f 275 549 287
f 287 549 559
f 275 579 544
f 275 544 563
f 594 283 546
f 594 545 595
f 599 600 601
f 608 612 610
f 617 611 620
f 622 618 623
f 605 630 602
f 616 614 615
f 627 628 633
f 625 626 635
f 621 624 636
f 609 619 606
f 631 613 604
f 634 632 603
f 607 637 629
f 640 596 641
f 644 646 645
f 642 643 647
f 597 648 598
f 589 649 591
f 590 650 593
f 592 588 587
f 651 652 654
f 651 653 652
f 660 658 662
f 664 656 666
f 661 659 668
f 667 657 665
f 663 669 655
f 677 676 670
f 681 678 671
f 674 680 672
f 684 682 679
f 675 683 673
f 685 687 686
f 688 691 689
f 695 697 696
f 708 705 709
f 710 706 712
f 704 694 693
f 701 717 719
f 716 721 722
f 720 718 726
f 723 715 707
f 727 724 711
f 703 725 702
f 714 713 53
f 714 53 102
f 731 735 52
f 743 742 745
f 736 746 737
f 751 739 728
f 755 752 733
f 757 754 734
f 762 761 732
f 767 764 729
f 748 766 730
f 763 765 769
f 759 760 772
f 753 758 773
f 749 756 775
f 740 750 741
f 770 768 738
f 774 771 744
f 779 54 780
f 776 778 784
f 785 781 786
f 787 782 789
f 788 783 794
f 791 790 797
f 793 792 800
f 798 795 802
f 799 796 803
f 806 692 698
f 805 700 699
f 807 263 265
f 804 807 801
f 690 244 807
f 807 244 243
f 807 243 246
f 808 238 777
f 777 238 237
f 777 237 239
f 825 826 828
f 827 829 830
f 831 832 834
f 833 835 836
f 837 838 840
f 839 841 842
f 843 844 845
f 846 847 848
f 853 854 851
f 855 852 856
f 858 859 860
f 861 862 863
f 864 865 867
f 866 868 870
f 869 871 872
f 873 874 875
f 876 877 879
f 878 880 881
f 886 887 884
f 888 885 889
f 909 818 914
f 28 818 24
f 24 818 909
f 24 909 910
f 911 24 910
f 24 911 31
f 31 911 912
f 31 912 33
f 33 912 921
f 913 29 815
f 815 29 814
f 921 816 33
f 33 816 29
f 818 30 914
f 915 36 919
f 905 907 38
f 892 919 36
f 918 284 916
f 917 280 909
f 284 918 289
f 289 918 909
f 289 909 280
f 916 896 897
f 916 809 811
f 894 810 913
f 921 894 913
f 921 913 816
f 816 913 815
f 893 74 919
f 921 77 895
f 891 890 919
f 919 890 893
f 891 919 892
f 922 906 905
f 922 47 906
f 922 49 47
f 44 904 47
f 44 47 46
f 42 41 904
f 922 41 49
f 920 902 922
f 922 902 903
f 922 903 41
f 920 461 902
f 461 466 900
f 918 464 920
f 920 464 461
f 900 464 918
f 918 899 901
f 918 901 900
f 918 898 899
f 897 898 916
f 916 898 918
f 895 894 921
f 913 914 29
f 29 914 30
f 811 896 916
f 917 916 280
f 280 916 284
f 74 77 919
f 919 77 921
f 915 919 922
f 919 921 912
f 919 912 908
f 908 912 923
f 908 924 919
f 919 924 922
f 923 912 925
f 925 912 911
f 922 924 925
f 922 925 911
f 915 922 905
f 915 905 36
f 810 809 913
f 913 809 916
f 913 916 914
f 914 916 917
f 914 917 909
f 910 822 911
f 820 920 922
f 820 922 819
f 920 820 821
f 922 911 822
f 922 822 819
f 918 920 909
f 909 920 910
f 910 920 821
f 910 821 822
f 928 929 927
f 927 929 930
f 927 930 931
f 933 932 934
f 935 937 936
f 939 941 940
f 944 946 947
f 949 948 943
f 25 23 926
f 32 813 812
f 32 812 952
f 824 823 26
f 26 823 953
f 26 953 27
f 955 817 954
f 953 942 945
f 953 945 27
f 823 938 953
f 953 938 942
f 950 951 956
f 960 966 957
f 967 968 958
f 83 82 963
f 972 962 974
f 976 971 977
f 969 965 980
f 979 964 973
f 982 978 975
f 970 981 959
f 985 984 986
f 989 988 990
f 22 961 21
f 983 987 16
f 992 991 1003
f 995 996 1007
f 993 994 1012
f 1017 1015 1018
f 999 1019 998
f 1001 1002 1000
f 1005 1004 1022
f 1009 1006 1026
f 1011 1008 1027
f 1013 1010 1014
f 1023 1021 997
f 1025 1024 1016
f 1031 20 1032
f 1033 1034 1035
f 1029 1030 1037
f 1038 1036 1039
f 1041 81 84
f 1042 86 85
f 43 13 12
f 14 15 43
f 43 15 1028
f 45 48 1043
f 50 51 1040
f 1052 1054 1056
f 1048 1053 1051
f 1050 1055 1057
f 1044 1058 1045
f 1061 1059 1049
f 1046 1060 1047
f 1065 1063 1066
f 1067 1062 1068
f 87 89 1064
f 1077 1081 1078
f 1088 1079 1069
f 1089 1086 1070
f 1074 1097 1072
f 1085 1083 1084
f 1094 1095 1101
f 1092 1093 1102
f 1090 1091 1103
f 1080 1087 1075
f 1099 1082 1073
f 1100 1098 1071
f 1076 1104 1096
f 1107 1106 1108
f 1110 90 1112
f 1113 91 1114
f 1109 1111 1115
f 1120 1116 1121
f 1122 1117 1124
f 1123 1118 1126
f 1125 1119 1127
f 1130 1129 1131
f 40 94 39
f 34 88 92
f 34 35 1128
f 93 1105 37
f 857 639 638
f 72 73 71
f 850 849 747
f 1133 1134 1132
f 1146 1145 1139
f 883 882 1020
f 540 532 1154
f 535 536 1156
f 530 534 1158
f 528 529 1160
f 1135 1150 1136
f 1138 1137 1162
f 1147 1163 1143
f 1142 1144 1165
f 1141 1166 1140
f 1152 1151 1167
f 1155 1153 1171
f 1159 1157 1177
f 1169 1168 1164
f 1172 1170 1161
f 1174 1173 1148
f 1176 1175 1149
