v 0.02225 0.010857 0.01525
v 0.0184447 0.00928862 0.01525
v 0.022982 0.010125 0.01525
v 0.011599 0.0111573 0.01525
v 0.00622825 0.0150948 0.01525
v 0.00763681 0.00909906 0.01525
v 0.02325 -0.0045625 0.01925
v -0.010125 -0.017875 0.01925
v -0.0177815 0.0130625 0.01375
v -0.018625 0.0094 0.01375
v -0.018625 -0.0047 0.01375
v 0.0171345 -0.0134398 0.01375
v -0.0157804 -0.0132727 0.01375
v 0.00952133 0.00734594 0.00025
v 0.010625 0.007771 0.00025
v 0.0112395 0.0060875 0.00025
v 0.021764 -0.0168813 0.01925
v 0.027817 -0.018625 0.011
v 0.03125 -0.018625 0.01925
v 0.03125 -0.018625 0.01925
v 0.0288212 -0.0153257 0.01375
v 0.0247171 -0.0162318 0.01925
v -0.0004764 0.0178405 0.01375
v 0.0307443 0.0180161 0.01925
v 0.03125 0.018625 0.01375
v 0.031424 0.018625 0.01275
v 0.0240919 0.0177041 0.01925
v 0.0301419 0.0169399 0.01375
v 0.016737 0.015425 0.01375
v 0.0261443 0.0151687 0.01375
v -0.015962 -0.0094 0.01375
v -0.00331775 0.0100588 0.01375
v -0.015962 0.0100625 0.01375
v 0.01325 -0.0047 0.01375
v 0.027866 -0.0094 0.01375
v 0.0245498 -0.0145118 0.01375
v 0.029566 0 0.01375
v 0.027933 -0.005425 0.01375
v 0.0304248 -0.00956875 0.01375
v 0.0303677 -0.00222475 0.01375
v 0.029566 0.0124125 0.01375
v 0.0278183 0.00600825 0.01375
v 0.0221354 0.0017625 0.01375
v 0.027565 0.0036265 0.01375
v 0.0299635 0.00582475 0.01375
v 0.0280055 0.0142289 0.01375
v 0.0251765 0.015425 0.01375
v 0.0267521 0.0164871 0.01375
v 0.02195 -0.013825 0.01375
v 0.020362 -0.013637 0.01375
v 0.0219843 -0.0125527 0.01375
v 0.0210662 0.0132679 0.01375
v 0.0219843 0.0125527 0.01375
v 0.024014 0.0131 0.01925
v 0.0302989 -0.0172983 0.01925
v 0.0276402 -0.0112031 0.01925
v 0.027406 -0.012123 0.01925
v 0.0291443 -0.00731437 0.01925
v 0.031116 -0.005129 0.01925
v 0.0286179 -0.00353737 0.01925
v 0.031116 0 0.01925
v 0.031116 -0.004508 0.01925
v 0.03125 0 0.01925
v 0.031165 -0.00466 0.01925
v 0.03125 -0.01 0.01925
v 0.031116 0.01 0.01925
v 0.031116 0.005491 0.01925
v 0.027552 0.00550606 0.01925
v 0.031165 0.00534 0.01925
v 0.03125 0.01 0.01925
v 0.031116 0.004871 0.01925
v 0.031024 0.003996 0.01925
v 0.031116 0.0162 0.01925
v 0.0264032 0.0141987 0.01925
v 0.024014 0 0.01925
v 0.0229263 0.0102952 0.01925
v 0.0205205 0.014829 0.01925
v 0.0220783 -0.0133468 0.01925
v 0.021762 -0.012237 0.01925
v 0.0229985 -0.0100625 0.01925
v 0.0202419 -0.0121606 0.01925
v 0.02175 -0.010991 0.01925
v 0.03125 -0.011925 0.01925
v 0.03125 0.0162 0.01925
v 0.0649901 0.027285 0.00189887
v 0.065618 0.027285 0.001659
v 0.0656555 0.027285 -0.0007585
v 0.0638089 0.027285 -0.0038295
v 0.06225 0.018625 -0.02725
v 0.06325 0.018625 -0.02625
v 0.0633055 0.02104 -0.013625
v 0.037475 0.0156403 -0.02725
v 0.0633055 0.02104 0.013625
v 0.032 0.02587 -0.027183
v 0.0331385 0.018625 0.0230747
v 0.0404103 0.0234802 0.02525
v 0.0499764 0.0233166 0.02525
v 0.043646 0.024006 0.02525
v 0.0526028 0.029285 -0.0160905
v 0.052312 0.029285 -0.016937
v 0.0469995 0.029285 -0.022062
v 0.0469995 0.029285 0.022062
v 0.055522 0.029285 0.018807
v 0.052312 0.029285 0.016937
v 0.0607936 0.029285 0.0213398
v 0.06174 0.029285 0.016937
v 0.06174 0.029285 0.022062
v 0.0569517 0.029285 0.0178237
v 0.0590007 0.029285 0.0230009
v 0.0378991 0.029285 0.0189119
v 0.041687 0.029285 0.016937
v 0.0425652 0.029285 0.0229388
v 0.041687 0.029285 -0.016937
v 0.0354573 0.029285 -0.0173731
v 0.0384323 0.029285 -0.0233078
v 0.06174 0.029285 -0.0194995
v 0.057704 0.029285 -0.0191872
v 0.0582458 0.029285 -0.0229642
v 0.0374685 0.029285 0.015
v 0.0330552 0.029285 0.0159782
v 0.052312 0.029285 0.015
v 0.06125 0.029285 0.015
v 0.058627 0.029285 0.0151219
v 0.062183 0.029285 0.0149918
v 0.065856 0.029285 0
v 0.0657978 0.029285 0.0033645
v 0.0639716 0.029285 0.00011725
v 0.0623828 0.029285 -0.0114628
v 0.0625 0.029218 -0.0147568
v 0.0655183 0.029285 -0.0028265
v 0.052312 0.029285 -0.015
v 0.06125 0.029285 -0.015
v 0.0374685 0.029285 -0.015
v 0.047842 0.029285 -0.016779
v 0.0420012 0.029285 -0.016565
v 0.06225 0.029285 -0.024156
v 0.06225 0.029285 -0.022062
v 0.0660763 0.029285 -0.000894
v 0.0621794 0.029285 0.022535
v 0.0484993 0.029285 0.0173932
v 0.0445425 0.029285 0.0167195
v 0.0465548 0.029285 0.0202226
v 0.047725 0.029285 -0.0200806
v 0.0388202 0.027285 0.0217941
v 0.03275 0.027285 0.005131
v 0.0343287 0.027285 -0.0213017
v 0.03275 0.0248347 -0.00765925
v 0.03275 0.023945 -0.0166593
v 0.03275 0.023335 -0.005399
v 0.0617045 0.027285 -0.0220364
v 0.0613508 0.027285 0.0229536
v 0.052962 0.027285 0.021412
v 0.057026 0.027285 0.0120932
v 0.0590862 0.027285 0.0205352
v 0.06109 0.027285 0.0194995
v 0.0569228 0.027285 0.0222683
v 0.041037 0.027285 0.021412
v 0.041037 0.027285 0.00696225
v 0.0345259 0.027285 0.0211036
v 0.041037 0.027285 -0.0194995
v 0.0440357 0.027285 -0.0227234
v 0.0587905 0.027285 -0.0213926
v 0.052962 0.027285 -0.021412
v 0.06109 0.027285 -0.0194995
v 0.0486866 0.027285 0.0191817
v 0.0458418 0.027285 0.0188279
v 0.04554 0.027285 -0.0177452
v 0.0482654 0.027285 -0.018505
v 0.062372 0.027285 -0.0089565
v 0.061316 0.027285 -0.00219837
v 0.0646577 0.027285 -0.0016915
v 0.0623532 0.027285 0.00875225
v 0.0649113 0.027285 0.0046645
v 0.062918 0.027285 0.0032
v 0.05676 0.027985 0.019288
v 0.056694 0.027985 0.019371
v 0.06275 0.029151 -0.02625
v 0.06125 0.029035 -0.015
v 0.06125 0.029035 0.015
v 0.03325 0.029035 0.015
v 0.03325 0.029035 -0.015
v 0.053306 -0.0282 -0.022937
v 0.0570025 -0.018625 -0.0219922
v 0.0608781 -0.018625 -0.0196435
v 0.06325 -0.0238125 -0.02625
v 0.06525 -0.018625 0.016
v 0.04625 -0.0212188 0.02525
v 0.0595468 -0.018625 0.0238981
v 0.0602687 -0.0282 -0.0135483
v 0.0688345 -0.0282 -0.0101875
v 0.0670898 -0.018625 0.0153853
v 0.063174 -0.029 -0.026633
v 0.0623457 -0.0256313 -0.027231
v 0.0620225 -0.0278578 -0.02725
v 0.06225 -0.0259 -0.02725
v 0.0613873 -0.018625 -0.0259032
v 0.063174 -0.0238125 -0.026633
v 0.063174 -0.018625 -0.026633
v 0.062957 -0.029 -0.026957
v 0.062957 -0.018625 -0.026957
v 0.06225 -0.018625 -0.02725
v 0.032201 -0.018625 0.0231
v 0.031326 -0.018625 0.024633
v 0.0325361 -0.018625 0.0245937
v 0.032288 -0.0276415 -0.02725
v 0.03225 -0.0222625 -0.02725
v 0.03175 0 -0.027116
v 0.03225 -0.0222625 -0.02725
v 0.03225 -0.0259 -0.027
v 0.03225 -0.018625 -0.027
v 0.0327275 -0.0256484 -0.027
v 0.0546732 -0.018625 -0.0258775
v 0.0613719 -0.018625 -0.0260953
v 0.06225 -0.0222625 -0.027
v 0.06225 -0.0222625 -0.027
v 0.0593898 -0.018625 0.0181594
v 0.062616 -0.018625 0.016566
v 0.0551717 -0.018625 0.0221395
v 0.068373 -0.0282 -0.000875625
v 0.0481442 -0.0282 -0.0060285
v 0.0662255 -0.0282 -0.0003515
v 0.055627 -0.0282 -0.000402
v 0.048678 -0.0282 -0.000402
v 0.04888 -0.0282 -0.002065
v 0.063059 -0.03 0.0149496
v 0.0612494 -0.03 0.0235039
v 0.06225 -0.03 0.02225
v 0.101506 -0.03 -0.00236112
v 0.0996613 -0.03 -0.0100305
v 0.102761 -0.03 -0.007106
v 0.0399775 -0.0268077 -0.02725
v 0.0531035 -0.0287 0.018578
v 0.0541372 -0.0287 0.0085516
v 0.04205 -0.0287 0.005809
v 0.0424 -0.0287 0.0181532
v 0.047 -0.0287 0.012
v 0.0539695 -0.0287 -0.00348825
v 0.0497265 -0.0287 -0.002949
v 0.0519491 -0.0287 0.00137813
v 0.052152 -0.0287 -0.000824
v 0.0626175 -0.0287 0.00858575
v 0.0583738 -0.0287 0.009125
v 0.0605964 -0.0287 0.0134521
v 0.0608 -0.0287 0.01125
v 0.059475 -0.018625 -0.022495
v 0.0620745 -0.018625 0.0199575
v 0.0602219 -0.018625 0.0203648
v 0.0609495 -0.018625 -0.0241025
v 0.0598656 -0.018625 -0.0239997
v 0.0609495 -0.021625 -0.0241025
v 0.060506 -0.021625 -0.0249212
v 0.0598531 -0.021625 -0.0241152
v 0.06025 -0.021625 -0.02429
v 0.0609495 -0.021625 0.0224775
v 0.060506 -0.021625 0.021659
v 0.0598531 -0.021625 0.0224651
v 0.06025 -0.021625 0.02229
v 0.0617817 -0.0129 -0.0115124
v 0.0724404 -0.0129 -0.016706
v 0.0673582 -0.0129 -0.0108108
v 0.074976 -0.0129 -0.016662
v 0.0347683 -0.0129 0.0019208
v 0.0416235 -0.0129 0.0026875
v 0.038015 -0.0129 0.005874
v 0.05945 -0.0129 -0.02
v 0.060389 -0.0129 -0.0223115
v 0.05339 -0.0129 -0.003904
v 0.0577997 -0.0129 -0.0147272
v 0.0576813 -0.0129 0.00582075
v 0.049402 -0.0129 -0.00826435
v 0.0521187 -0.0129 0.022297
v 0.0559562 -0.0129 0.019704
v 0.036257 -0.0129 0.0147215
v 0.0374942 -0.0129 0.019169
v 0.036725 -0.0129 0.018744
v 0.0603462 -0.0129 0.0184552
v 0.0574415 -0.0129 0.017496
v 0.0581062 -0.0129 0.0221653
v 0.056744 -0.0129 0.020725
v 0.0578765 -0.0129 0.0130235
v 0.057753 -0.0129 0.013621
v 0.0682593 0.0065 -0.0136898
v 0.06325 0.0065 0.01403
v 0.06325 0.0065 -0.01403
v 0.063361 0.0065 -0.01322
v 0.063361 0.0065 0.01322
v 0.0655925 0.0065 0.0133687
v 0.0682335 0.0065 0.0135853
v 0.071464 0.0065 -0.0150295
v 0.0684935 0.0065 -0.0146255
v 0.0675505 0.0065 0.00495775
v 0.095296 0.0065 -0.0143291
v 0.0752329 0.0065 0.0175161
v 0.067527 0.0065 -0.0146
v 0.0763743 0.0065 -0.0182238
v 0.083353 0.0065 0.0199845
v 0.085717 0.0065 0.019815
v 0.098369 0.0065 -0.0127725
v 0.100628 0.0065 -0.00815887
v 0.0824099 0.0065 0.0192916
v 0.0907675 0.0065 -0.0172595
v 0.0884485 0.0065 -0.0192305
v 0.101636 0.0065 0.0026175
v 0.100322 0.0065 0.00871225
v 0.074806 0.0065 0.018219
v 0.072297 0.0065 -0.016878
v 0.084544 0.0065 -0.01885
v 0.075375 0.0065 0.01849
v 0.077364 0.0065 0.019189
v 0.102185 0.0065 0.005616
v 0.03275 0.0133374 0.00107488
v 0.03275 0.016116 -0.020011
v 0.03275 -0.00059 -0.0188705
v 0.03275 -0.004315 -0.0132025
v 0.03275 0.0147998 0.0113563
v 0.03275 0.004963 -0.015428
v 0.03275 0.009285 -0.015
v 0.03275 0.01336 -0.015181
v 0.029 0.018625 0.009549
v 0.0280245 0.0174375 0.00975
v 0.05475 -0.007715 0.02075
v 0.0640863 -0.018625 0.0153155
v 0.02625 -0.018625 0.00975
v 0.0287745 -0.018625 0.0092745
v 0.0611965 -0.018625 -0.0243845
v 0.02525 -0.018625 0.010018
v 0.0625 -0.018625 -0.020375
v 0.0548302 -0.007715 -0.0236099
v 0.061549 -0.007715 -0.01675
v 0.06175 -0.0091825 -0.001656
v 0.0536976 -0.0114 -0.0132011
v 0.0395 -0.0114 -0.01975
v 0.0395 -0.0114 -0.02275
v 0.0382099 -0.0114 -0.00956225
v 0.060389 -0.007715 -0.0223115
v 0.059414 -0.007715 -0.018956
v 0.0564105 -0.007715 0.0213718
v 0.055477 -0.007715 0.0196485
v 0.058375 -0.007715 0.01765
v 0.058725 -0.007715 0.018744
v 0.060215 -0.007715 0.0180872
v 0.0344805 -0.0114 0.010553
v 0.038015 -0.0114 0.005874
v 0.06175 -0.0114 0.012906
v 0.0425 -0.0114 -0.02575
v 0.041 -0.0114 -0.025348
v 0.039902 -0.0114 -0.02425
v 0.0450853 -0.0114 -0.00651135
v 0.0595 0.018625 0.0245
v 0.06175 0.00900875 -0.020239
v 0.06175 -0.01065 0.012062
v 0.06175 0.0068855 0.0177109
v 0.06175 -0.010486 0.011019
v 0.038078 0.013607 -0.02575
v 0.037375 0.01633 -0.02575
v 0.047 0.013854 -0.02575
v 0.056275 0.015092 -0.02575
v 0.0562595 0.0130225 -0.02575
v 0.05525 -0.007715 -0.02575
v 0.05755 -0.000915 -0.02575
v 0.0492913 0.00376612 -0.02575
v 0.055 0.004535 -0.02575
v 0.0532938 -0.000619875 -0.02575
v 0.037282 0.0044545 -0.02575
v 0.040169 0.00521 -0.02575
v 0.0393375 0.0046255 -0.02575
v 0.059854 -0.007715 -0.023621
v 0.06225 0.0021 -0.02725
v 0.06225 0.0021 -0.02725
v 0.062633 0 -0.027174
v 0.062957 0.018625 -0.026957
v 0.063174 0.018625 -0.026633
v 0.063174 0.018625 -0.026633
v 0.03225 0.0021 -0.02725
v 0.03225 0.0021 -0.02725
v 0.054078 0.013607 -0.02725
v 0.05715 0.015092 -0.02725
v 0.0432922 0.0131912 -0.02725
v 0.038078 0.013607 -0.02725
v 0.0948445 -0.00445 0.0148525
v 0.0891255 -0.00445 0.0175912
v 0.06225 0.0021 -0.027
v 0.06225 0.0021 -0.027
v 0.03225 0.0021 -0.027
v 0.0325 0.002533 -0.027
v 0.0545496 0.00296725 -0.027
v 0.031692 0.018625 0.0249665
v 0.02425 0.018625 0.01375
v 0.024384 0.018625 0.01175
v 0.02625 0.018625 0.00975
v 0.02575 0.018625 0.009884
v 0.0277555 -0.016802 0.00975
v 0.0268222 0.0130832 0.00975
v 0.026683 0.005 0.00975
v 0.02685 0.004375 0.00975
v 0.026683 -0.005 0.00975
v 0.027506 -0.0019895 0.00975
v 0.0267691 -0.0139271 0.00975
v 0.027866 -0.01 0.00975
v 0.027308 -0.006082 0.00975
v 0.0288353 0.00814038 0.01375
v 0.0271474 0.00933862 0.01375
v 0.0291095 -0.0165676 0.01375
v 0.0276205 -0.0038335 0.01375
v 0.0270022 0.0153697 0.01375
v 0.0264233 -0.0155885 0.01375
v 0.02685 -0.004375 0.01375
v 0.0282035 0.00398975 0.01375
v 0.029099 -0.0046875 0.01375
v 0.0285968 -0.008083 0.01375
v 0.0268892 -0.00754175 0.01375
v 0.091461 -0.00445 0.017569
v 0.0093875 -0.016 0.01925
v -0.0049375 0.0178125 0.01925
v 0.02325 0.018625 0.01925
v 0.02025 0.015053 0.01925
v 0.0217852 0.0103235 0.01925
v 0.0222405 0.0121345 0.01925
v 0.0227405 0.0126125 0.01925
v 0.0234313 -0.0075735 0.01925
v 0.0210688 -0.0144295 0.01925
v 0.0239335 -0.0102245 0.01925
v 0.019994 -0.01385 0.01925
v 0.029 0.009125 0.01925
v 0.027371 -0.002496 0.01925
v 0.026398 -0.003147 0.01925
f 2 3 1
f 6 4 5
f 14 15 16
f 33 32 31
f 31 32 13
f 29 32 33
f 32 43 34
f 34 43 12
f 33 23 29
f 33 9 23
f 35 21 36
f 38 43 37
f 43 38 35
f 37 40 38
f 41 42 43
f 42 44 43
f 43 44 37
f 44 45 37
f 37 45 40
f 43 46 41
f 41 46 28
f 31 13 11
f 31 11 33
f 33 11 10
f 33 10 9
f 12 50 36
f 36 49 51
f 36 51 43
f 32 29 43
f 43 29 52
f 12 43 51
f 47 52 29
f 52 53 43
f 43 53 47
f 47 53 52
f 47 30 46
f 47 46 43
f 43 35 36
f 29 23 47
f 47 23 48
f 47 48 30
f 38 39 35
f 35 39 21
f 41 28 45
f 41 45 42
f 56 57 55
f 58 56 59
f 56 60 75
f 75 60 61
f 56 58 60
f 61 60 62
f 61 62 63
f 63 62 64
f 63 64 65
f 65 64 59
f 66 68 67
f 68 66 54
f 61 68 75
f 75 68 54
f 70 69 63
f 63 69 71
f 63 71 61
f 61 71 72
f 61 72 68
f 73 74 66
f 66 74 54
f 73 24 74
f 56 75 7
f 7 75 76
f 76 75 54
f 22 56 17
f 17 56 78
f 56 81 79
f 56 79 78
f 7 80 56
f 82 81 56
f 82 56 80
f 59 56 65
f 65 56 83
f 83 56 55
f 83 55 20
f 67 70 66
f 66 70 84
f 66 84 73
f 73 84 24
f 77 76 54
f 56 22 57
f 74 27 54
f 54 27 77
f 96 97 98
f 106 105 107
f 104 108 106
f 106 108 105
f 102 109 104
f 104 109 108
f 111 110 102
f 102 110 112
f 101 114 113
f 100 117 101
f 101 117 118
f 116 118 117
f 110 111 120
f 120 111 141
f 123 104 106
f 125 127 126
f 130 127 125
f 117 100 116
f 116 100 99
f 99 134 135
f 135 113 114
f 99 128 116
f 116 128 136
f 116 136 118
f 130 125 138
f 125 126 138
f 124 123 106
f 124 106 139
f 139 106 107
f 107 105 139
f 140 104 123
f 104 140 102
f 102 140 142
f 102 142 111
f 111 142 141
f 113 135 101
f 101 135 143
f 101 143 100
f 100 143 99
f 109 102 112
f 101 118 115
f 101 115 114
f 148 147 149
f 163 162 170
f 162 163 161
f 152 165 153
f 152 153 156
f 156 153 154
f 144 158 157
f 157 158 166
f 157 166 152
f 152 166 165
f 153 165 166
f 163 168 160
f 170 168 163
f 160 168 167
f 160 167 158
f 169 170 164
f 169 88 170
f 170 88 171
f 164 150 169
f 162 150 164
f 161 163 160
f 155 151 154
f 153 172 155
f 155 172 151
f 170 172 153
f 170 85 172
f 173 172 174
f 86 85 170
f 86 170 87
f 170 171 87
f 166 158 153
f 153 158 170
f 170 158 167
f 170 167 168
f 144 159 158
f 158 159 145
f 158 145 146
f 158 146 160
f 160 146 161
f 154 153 155
f 164 170 162
f 152 156 157
f 157 156 144
f 103 176 175
f 137 129 177
f 180 119 121
f 180 121 179
f 179 121 122
f 133 181 131
f 131 181 178
f 131 178 132
f 185 192 198
f 197 199 200
f 195 215 201
f 209 206 210
f 182 220 189
f 189 220 222
f 220 223 224
f 221 219 190
f 226 225 227
f 228 229 230
f 205 231 194
f 236 234 235
f 236 233 234
f 235 232 236
f 236 232 233
f 240 238 239
f 240 237 238
f 240 239 237
f 244 242 243
f 244 241 242
f 244 243 241
f 188 247 216
f 247 246 217
f 216 218 188
f 218 204 188
f 203 204 202
f 212 183 245
f 249 212 245
f 249 196 212
f 184 248 249
f 184 249 245
f 183 184 245
f 253 251 252
f 252 250 253
f 253 250 251
f 257 255 256
f 256 254 257
f 257 254 255
f 259 261 260
f 270 263 262
f 262 263 264
f 269 268 258
f 268 265 258
f 258 265 266
f 267 270 268
f 273 274 275
f 278 271 279
f 279 271 272
f 281 280 276
f 281 276 277
f 287 288 291
f 282 290 294
f 300 296 297
f 298 292 299
f 289 295 306
f 305 308 293
f 293 308 309
f 301 302 307
f 303 304 310
f 311 314 313
f 312 315 311
f 313 316 311
f 311 316 317
f 311 317 318
f 18 326 324
f 322 191 186
f 325 213 327
f 345 346 331
f 331 346 347
f 331 347 333
f 333 332 331
f 331 332 348
f 342 343 334
f 330 352 350
f 351 344 352
f 353 352 330
f 357 355 356
f 361 363 362
f 357 358 360
f 355 364 354
f 361 365 366
f 361 366 364
f 96 187 97
f 369 89 370
f 200 371 373
f 200 373 197
f 198 372 90
f 198 90 185
f 193 369 370
f 376 92 377
f 376 378 92
f 92 378 379
f 375 208 207
f 207 94 375
f 368 201 382
f 382 201 215
f 214 211 383
f 383 211 385
f 386 383 385
f 384 210 374
f 374 210 206
f 336 329 335
f 359 328 367
f 340 341 339
f 337 338 321
f 391 389 26
f 391 26 319
f 95 387 349
f 393 390 320
f 390 393 394
f 390 394 323
f 323 394 395
f 323 395 396
f 396 395 397
f 396 398 323
f 323 398 392
f 400 399 398
f 404 401 407
f 388 405 25
f 25 405 401
f 401 409 25
f 25 409 403
f 403 409 410
f 388 406 411
f 411 408 402
f 402 405 388
f 402 388 411
f 91 285 284
f 93 283 286
f 381 412 380
f 414 415 416
f 415 419 416
f 418 419 417
f 413 421 19
f 413 19 8
f 421 422 19
f 413 423 421
f 424 19 422
f 425 422 420
f 425 420 426
