v -0.198497 -0.023406 0.00898719
v -0.205427 -0.0793598 0.0127195
v -0.205427 -0.0769915 0.0132971
v -0.160424 -0.088241 0.00398371
v -0.165109 -0.0835874 0.0121047
v -0.174582 -0.0817225 0.0127523
v -0.205363 -0.0793598 0.0127223
v -0.202995 -0.0793598 0.0128153
v -0.200627 -0.0793598 0.0128967
v -0.198259 -0.0793598 0.0129697
v -0.207304 -0.075383 0.0134229
v -0.206545 -0.0828473 0.00054051
v -0.165109 -0.0817225 0.0130569
v -0.167472 -0.0817225 0.0129897
v -0.169846 -0.0817225 0.0129196
v -0.172214 -0.0817225 0.0128424
v -0.152175 -0.0683477 -0.000774534
v -0.149003 -0.0739466 0.0115817
f 1 12 11
f 1 11 18
f 11 12 2
f 11 2 3
f 2 12 4
f 2 4 5
f 2 5 6
f 2 6 7
f 2 7 3
f 3 7 8
f 3 8 9
f 3 9 10
f 3 10 11
f 12 1 4
f 5 13 14
f 5 14 15
f 5 15 16
f 5 16 6
f 5 4 18
f 5 18 13
f 6 16 8
f 6 8 7
f 8 16 9
f 9 16 15
f 9 15 10
f 10 15 14
f 10 14 13
f 10 13 11
f 11 13 18
f 1 17 4
f 1 18 17
f 17 18 4
