v -0.044203 0.099485 0.025448
v -0.044203 0.099485 0.025448
v -0.044201 0.099488 0.023847
v -0.036533 0.104807 0.025506
v -0.036533 0.104807 0.025506
v -0.036531 0.104809 0.023905
v -0.036531 0.104809 0.023905
v -0.036531 0.104809 0.023905
v -0.044204 0.100121 0.025388
v -0.044204 0.100121 0.025388
v -0.044203 0.100123 0.023912
v -0.044203 0.100123 0.023912
v -0.037128 0.105031 0.025442
v -0.037128 0.105031 0.025442
v -0.037128 0.105031 0.025442
v -0.037126 0.105033 0.023965
v -0.037126 0.105033 0.023965
f 7 13 16
f 2 14 4
f 1 12 10
f 6 17 11
f 8 5 15
f 2 9 14
f 1 3 12
