v -0.314299 -0.0133711 0.0603047
v -0.314333 -0.0154094 0.0603047
v -0.314323 -0.0133711 0.0505417
v -0.314377 -0.0177796 0.0603047
v -0.318249 -0.0137209 0.0454722
v -0.314426 -0.0201499 0.0603047
v -0.314481 -0.022515 0.0603047
v -0.318371 -0.06714 0.0603354
v -0.314569 -0.0252377 0.0603047
v -0.315007 -0.0367263 0.0603047
v -0.315123 -0.0394439 0.0603047
v -0.315222 -0.0414515 0.0603047
v -0.31546 -0.0461818 0.0603047
v -0.31524 -0.0350104 0.0316336
f 1 14 3
f 1 3 5
f 1 5 8
f 1 8 13
f 1 13 12
f 1 12 11
f 1 11 10
f 1 10 9
f 1 9 7
f 1 7 6
f 1 6 4
f 1 4 2
f 1 2 14
f 2 4 14
f 14 5 3
f 4 6 14
f 14 6 7
f 5 14 8
f 7 9 14
f 9 10 14
f 14 10 11
f 11 12 14
f 12 13 14
f 14 13 8
