v 0.0337789 0.0309336 0.008164
v 0.0410315 0.056391 0.008164
v 0.0318455 0.053197 0.008164
v 0.006238 -0.024662 0.008164
v 0.002567 -0.024662 0.008164
v 0.00951925 -0.028609 0.008164
v 0.058368 0.053826 0.008164
v 0.014636 0.046934 0.008164
v 0.011746 0.048536 0.008164
v -0.0229218 0.0194161 0.008164
v 0.089977 0.032646 0.008164
v 0.089803 0.032723 0.008164
v 0.061992 0.046934 0.008164
v 0.0603089 0.0591339 0.008164
v 0.122625 0.0569251 0.008164
v 0.123493 0.053826 0.008164
v 0.014636 -0.024662 0.008164
v 0.142111 0.053826 0.008164
v 0.139909 0.053826 0.008164
v 0.13303 0.052011 0.008164
v -0.009522 -0.028609 0.008164
v 8.24675e-05 -0.0283164 0.008164
v -0.00375 -0.024662 0.008164
v 0.125379 0.048477 0.008164
v 0.124994 0.0520258 0.008164
v 0.122603 0.046934 0.008164
v 0.121643 0.0458385 0.008164
v 0.121388 0.046787 0.008164
v 0.094546 0.032646 0.008164
v 0.089977 0.030611 0.008164
v 0.081537 0.027948 0.008164
v 0.0650142 0.0255163 0.008164
v 0.0657536 0.0190696 0.008164
v 0.048625 0.0121479 0.008164
v 0.0328821 -0.0137388 0.008164
v 0.0338545 0.000244187 0.008164
v 0.0242254 -0.0192876 0.008164
v 0.0100438 -0.0351995 0.008164
v -0.0136197 -0.0296351 0.008164
v -0.015294 -0.024662 0.008164
v -0.0211598 -0.0210606 0.008164
v 0.0691716 0.0297412 0.008164
v 0.0646527 0.0355858 0.008164
v 0.0651673 0.0306342 0.008164
v 0.139458 0.0558341 0.008164
v 0.0134834 0.0249035 0.008164
v 0.0283364 0.0254562 0.008164
v 0.010437 0.032646 0.008164
v 0.00250437 0.0306309 0.008164
v 0.122633 0.0482265 0.008164
v -0.00794275 0.032646 0.008164
v -0.00259063 0.0405889 0.008164
v 0.0318455 0.053826 0.008164
v 0.0239099 0.052982 0.008164
v 0.0552829 0.0586795 0.008164
v 0.0595753 0.0452109 0.008164
v -0.00856959 0.019372 0.008164
v 0.0318455 0.0132233 0.008164
v 0.0304976 0.0121384 0.008164
v -0.0082545 0.0154925 0.008164
v 0.00769747 0.0239058 0.008164
v -0.00375 -0.024507 0.008164
v 0.002567 -0.024507 0.008164
v 0.0055105 -0.024381 0.008164
v 0.0136176 -0.0164114 0.008164
v 0.0300776 -0.00095556 0.008164
v 0.0202709 0.0184706 0.008164
v 0.0639333 0.0233203 0.008164
v 0.0617482 0.029096 0.008164
v 0.0319417 0.029622 0.008164
v 0.0510463 0.0611573 0.008164
v 0.0180284 0.0468529 0.008164
v 0.024465 0.0389702 0.008164
v 0.058368 0.042851 0.008164
v -0.00531938 0.026538 0.008164
v 0.0101257 -0.0265615 0.008164
v -0.0227386 0.0900982 0.047664
v 0.0392332 0.0936 0.047664
v -0.0178955 0.0929848 0.008664
v -0.033222 0.066871 0.008664
v -0.032847 0.0276315 0.047664
v -0.033222 1.8e-05 0.008664
v -0.0330949 0.0612909 0.047664
v 0.135 0.0936 0.008664
v 0.107234 0.0931621 0.047664
v 0.143339 0.054373 0.008664
v 0.14854 0.057708 0.008664
v 0.152511 0.06244 0.008664
v 0.154891 0.068141 0.008664
v 0.155465 0.074293 0.008664
v 0.154181 0.080335 0.008664
v 0.151154 0.085721 0.008664
v 0.14666 0.089961 0.008664
v 0.141107 0.092669 0.008664
v 0.077565 0.025084 0.008664
v 0.0471133 0.0132349 0.047664
v 0.0381375 -0.0123635 0.008664
v -0.032236 -0.00839 0.008664
v -0.029324 -0.016339 0.008664
v -0.024646 -0.023395 0.008664
v -0.018457 -0.029171 0.008664
v -0.0070305 -0.0345305 0.008664
v -0.0240693 0.00373025 0.049664
v -0.023297 0.00470287 0.051464
v -0.0228133 -0.0103587 0.049664
v -0.0228588 -0.009033 0.051464
v -0.0246827 -0.00208513 0.049664
v -0.015551 -0.020065 0.049664
v -0.0141462 -0.0212692 0.051464
v -0.0171937 -0.0211742 0.049664
v -0.015916 -0.020795 0.051464
v -0.0138057 -0.0210444 0.049664
v -0.000847375 -0.0271359 0.049664
v 0.0115473 -0.0259673 0.049664
v 0.0168473 -0.0252605 0.051464
v 0.0239318 -0.017125 0.049664
v 0.0241978 -0.0178562 0.051464
v 0.0243535 -0.0191365 0.049664
v 0.0256435 -0.01856 0.049664
v 0.0291824 -0.00650825 0.049664
v 0.030896 -0.003542 0.049664
v 0.0168638 0.0254224 0.049664
v -0.00399006 0.0259218 0.051464
v 0.0219724 0.0203724 0.049664
v 0.020693 0.0211112 0.051464
v 0.0277275 0.00909475 0.049664
v 0.0304701 0.00684706 0.049664
v -0.005671 0.0256428 0.049664
v -0.0182031 0.0182679 0.049664
v -0.0182954 0.0175522 0.051464
v -0.0241424 0.0887644 0.049664
v 0.00315975 0.090805 0.049664
v -0.0305713 0.0807644 0.049664
v -0.032197 0.0577255 0.049664
v 0.0260391 0.0199675 0.049664
v 0.0651985 0.049014 0.049664
v 0.0140824 0.0505914 0.049664
v 0.0348477 0.0689222 0.049664
v -0.0314835 0.025608 0.049664
v 0.0737519 0.0261786 0.049664
v 0.001154 0.0926 0.049664
v -0.0164525 0.092184 0.049664
v 0.103165 0.0913178 0.049664
v 0.134112 0.0705764 0.049664
v 0.121575 0.045776 0.049664
v 0.095132 0.034001 0.049664
v 0.083879 0.0863747 0.049664
v 0.0588915 0.0926 0.049664
v -0.00930416 0.0866188 0.049664
v 0.00705297 0.0425363 0.049664
v -0.034261 0.065762 0.040921
v -0.034261 0.054306 0.033491
v -0.032872 0.078992 0.034229
v -0.03236 0.079966 0.020918
v -0.0260971 0.0218713 0.047664
v 0.0685931 0.0773448 0.047664
v 0.0990253 0.0610984 0.047664
v 0.094907 0.09103 0.047664
v 0.0465727 0.045407 0.047664
v -0.009894 0.0884751 0.047664
v 0.0320283 0.0694714 0.047664
v -0.003042 -0.028973 0.047664
v -0.022306 0.015376 0.047664
v -0.027841 0.00024 0.047664
v -0.026724 -0.0003835 0.047664
v 0.00159501 0.0328839 0.047664
v 0.0525255 0.011168 0.047664
v 0.0496 0.013225 0.047664
v -0.0223348 0.0558006 0.047664
v 0.0832227 0.0872011 0.047664
v 0.0657625 0.09103 0.047664
v 0.110512 0.039593 0.049436
v -0.029722 0.067968 0.042125
v -0.029722 0.073411 0.040717
v -0.029722 0.073411 0.012611
v -0.029722 0.0773895 0.015805
v -0.029722 0.062379 0.041499
v -0.029722 0.052106 0.0286783
v -0.029722 0.0520815 0.0252597
v -0.029722 0.053634 0.018599
v -0.029722 0.0586626 0.0142025
v -0.029722 0.0638086 0.0120259
v -0.029722 0.080388 0.0334885
v -0.029722 0.080769 0.0321767
v -0.029722 0.0815506 0.0298199
v 0.0186468 0.0238763 0.051464
v 0.00980975 0.0273793 0.051464
v -0.00193303 -0.0274371 0.051464
v -0.010626 -0.0235 0.051464
v 0.0126003 -0.028985 0.051464
v -0.0219972 0.0057295 0.051464
v -0.024997 -6e-06 0.051464
v 0.0266046 -0.00803731 0.051464
v 0.0299558 0.00585244 0.051464
v 0.0295234 -0.00590187 0.051464
v 0.024445 -0.0204348 0.051464
v 0.0257153 -0.0204102 0.051464
v 0.00528019 -0.0229512 0.051464
v -0.0184 -0.021845 0.051464
v -0.016435 -0.0235 0.051464
v -0.0162945 -0.023858 0.051464
v -0.0212823 -0.0186045 0.051464
v -0.0255825 -0.00793558 0.051464
v -0.0257667 0.00688822 0.051464
v -0.024412 0.013563 0.051464
v -0.020333 0.0199115 0.051464
v -0.020535 0.019413 0.051464
v -0.0220295 0.017576 0.051464
v -0.0164873 0.0236735 0.051464
v 0.0203149 0.0250476 0.051464
v 0.024445 0.019413 0.051464
v 0.0287733 0.0162025 0.051464
v -0.006973 0.0051635 0.051464
v 0.0148295 -0.0128798 0.051464
v -0.018485 -0.01649 0.051464
v 0.00475575 0.0238763 0.051464
v 0.0202403 0.0147474 0.051464
v 0.010059 0.013563 0.051464
v -0.00924313 0.0187683 0.051464
v 0.00700587 0.0266262 0.049664
v 0.0281599 0.0129689 0.049664
v 0.0187198 -0.0189732 0.049664
v -0.005862 -0.027971 0.049664
v -0.008244 -0.0271245 0.049664
v -0.0205372 0.00819256 0.049664
v 0.002988 -0.0257355 0.049664
v -0.004159 -0.027971 0.049664
v -0.020281 -0.0142977 0.049664
v -0.00300412 -0.0285151 0.049664
v -0.0005855 0.0246507 0.049664
v -0.0105438 0.021107 0.049664
v -0.024035 0.00778475 0.049664
v -0.021727 -0.0156197 0.049664
v -0.00309563 -0.0148523 0.049664
v -0.0128263 -0.0246065 0.049664
v 0.0132317 -0.0270402 0.049664
v 0.0187856 -0.0240239 0.049664
v 0.020114 0.021749 0.049664
v -0.0116323 0.0245773 0.049664
v -0.0181205 0.02052 0.049664
v -0.0197305 0.0176743 0.049664
v -0.020535 0.017552 0.049664
v -0.022077 0.015657 0.049664
v -0.00127837 0.004357 0.049664
v 0.0247864 0.00213888 0.049664
v 0.0105503 0.0209134 0.049664
v -0.004159 -0.028576 0.049664
v 0.002988 -0.013567 0.049664
v 0.033788 -0.019477 0.008664
v 0.0258499 -0.0279992 0.008664
v 0.013885 -0.03478 0.008664
v 0.00757925 -0.0358447 0.008664
v -0.003006 -0.035955 0.008664
v -0.011193 -0.033582 0.008664
v -0.018605 -0.029373 0.008664
v -0.024837 -0.023556 0.008664
v -0.029547 -0.016452 0.008664
v -0.032479 -0.008448 0.008664
v -0.033472 1.8e-05 0.008664
v 0.0724385 0.022192 0.008664
v 0.143441 0.054144 0.008664
v 0.135 0.09385 0.008664
v 0.141182 0.092908 0.008664
v 0.146802 0.090166 0.008664
v 0.151351 0.085875 0.008664
v 0.154415 0.080424 0.008664
v 0.155715 0.074307 0.008664
v 0.155134 0.068081 0.008664
v 0.152724 0.06231 0.008664
v 0.148705 0.05752 0.008664
v -0.013222 0.09385 0.008664
v -0.033472 0.0736 0.008664
v -0.0326063 0.078274 0.008664
v -0.029722 0.0790811 0.0349753
v -0.029722 0.0799465 0.033609
v -0.029722 0.0785483 0.0359172
v -0.029722 0.0738221 0.0396151
v -0.029722 0.0760642 0.038378
v -0.029722 0.0717662 0.0404875
v -0.029722 0.0700082 0.0409692
v -0.029722 0.0682233 0.0411991
v -0.029722 0.0661303 0.0412191
v -0.029722 0.0629394 0.0406333
v -0.029722 0.0645355 0.0410286
v -0.029722 0.080455 0.032576
v -0.029722 0.080395 0.032705
v -0.029722 0.0805619 0.0206431
v -0.029722 0.0810327 0.022186
v -0.029722 0.0814839 0.0242715
v -0.029722 0.0819278 0.0251906
v -0.029722 0.08137 0.029749
v -0.029722 0.081468 0.029268
v -0.029722 0.080316 0.0204855
v -0.029722 0.0798728 0.0195727
v -0.029722 0.079617 0.019175
v -0.029722 0.079822 0.019529
v -0.029722 0.078528 0.0175385
v -0.029722 0.0573326 0.0374884
v -0.029722 0.0583398 0.0383121
v -0.029722 0.0604655 0.0396405
v -0.029722 0.0569773 0.0378354
v -0.029722 0.0544156 0.0337824
v -0.029722 0.0556627 0.0356945
v -0.029722 0.056285 0.036443
v -0.029722 0.053652 0.032277
v -0.029722 0.053579 0.033344
v -0.029722 0.0530169 0.0302928
v -0.029722 0.052659 0.0285765
v -0.029722 0.0525815 0.025655
v -0.029722 0.0528545 0.0236959
v -0.029722 0.0534645 0.0215909
v -0.029722 0.0539641 0.0204077
v -0.029722 0.0553951 0.0180719
v -0.029722 0.0575398 0.0157222
v -0.029722 0.0588817 0.0146512
v -0.029722 0.062317 0.0129204
v -0.029722 0.0638814 0.0124734
v -0.029722 0.0671392 0.0121265
v -0.029722 0.0693417 0.0122837
v -0.029722 0.072668 0.013197
v -0.029722 0.0716557 0.0128344
v -0.029722 0.0693378 0.0118762
v -0.029722 0.072668 0.013197
v -0.029722 0.0737293 0.0137148
v -0.029722 0.075139 0.014506
v -0.029722 0.0762394 0.0153113
v -0.029722 0.0744305 0.0136642
v -0.029722 0.0774975 0.016442
v -0.030865 0.079053 0.019609
v -0.03084 0.079239 0.019887
v -0.030799 0.079223 0.03358
v -0.030809 0.079134 0.033715
v -0.03045 0.066188 0.040854
v -0.030402 0.066406 0.040896
v -0.030346 0.054857 0.033981
v -0.030324 0.054706 0.033754
v -0.034261 0.061436 0.01353
v -0.030109 0.061402 0.013459
v -0.030128 0.061204 0.013556
f 4 5 6
f 18 19 20
f 22 6 5
f 23 22 5
f 19 25 20
f 26 25 16
f 24 25 26
f 24 26 27
f 12 11 28
f 27 28 29
f 29 28 11
f 29 11 30
f 30 11 12
f 30 12 31
f 58 36 34
f 58 66 35
f 6 38 37
f 41 39 40
f 32 44 43
f 42 44 32
f 25 19 16
f 16 19 45
f 16 45 15
f 18 45 19
f 70 47 58
f 58 47 46
f 46 47 70
f 51 49 48
f 14 7 56
f 14 56 13
f 16 15 50
f 16 50 26
f 26 50 27
f 52 51 48
f 54 53 71
f 14 55 7
f 14 71 55
f 7 55 56
f 75 61 46
f 57 60 61
f 41 40 62
f 62 40 23
f 62 23 63
f 63 23 5
f 63 5 64
f 64 5 4
f 37 65 17
f 17 65 4
f 4 65 64
f 59 66 58
f 46 67 58
f 58 67 59
f 46 61 67
f 32 68 33
f 32 33 42
f 32 69 68
f 32 43 69
f 43 14 13
f 13 56 43
f 34 1 58
f 58 1 70
f 54 3 53
f 53 3 2
f 53 2 71
f 8 72 9
f 9 72 54
f 46 73 48
f 52 48 9
f 9 48 8
f 8 48 73
f 8 73 72
f 56 1 74
f 52 10 51
f 51 10 75
f 51 75 49
f 57 10 60
f 57 75 10
f 61 75 57
f 40 39 21
f 40 21 23
f 23 21 22
f 22 21 39
f 22 38 6
f 4 6 76
f 37 17 6
f 6 17 76
f 4 76 17
f 48 49 75
f 48 75 46
f 46 70 1
f 46 1 73
f 35 36 58
f 147 138 136
f 138 147 149
f 138 137 136
f 134 139 150
f 150 139 135
f 140 150 135
f 140 136 150
f 149 131 133
f 141 142 132
f 132 142 131
f 147 144 143
f 141 132 148
f 148 132 147
f 143 148 147
f 131 149 132
f 147 132 149
f 134 150 133
f 133 150 149
f 149 150 137
f 149 137 138
f 144 147 140
f 140 147 136
f 136 137 150
f 158 157 156
f 169 161 159
f 160 161 169
f 164 155 165
f 169 166 155
f 159 96 166
f 159 166 169
f 96 168 167
f 159 157 96
f 169 77 160
f 83 169 81
f 81 169 155
f 159 156 157
f 159 161 156
f 77 169 83
f 170 171 158
f 156 170 158
f 171 170 156
f 156 161 160
f 160 77 78
f 160 78 156
f 156 78 171
f 171 78 85
f 171 85 158
f 158 85 157
f 172 145 146
f 104 192 191
f 104 204 192
f 194 217 193
f 193 195 194
f 195 193 197
f 197 196 115
f 190 115 198
f 200 199 201
f 200 201 189
f 189 201 188
f 202 215 203
f 106 203 215
f 106 215 191
f 192 106 191
f 203 106 192
f 192 204 203
f 204 104 191
f 204 191 205
f 207 206 208
f 207 208 191
f 191 208 205
f 210 186 211
f 210 211 212
f 212 211 217
f 212 217 194
f 217 125 186
f 186 125 211
f 209 206 219
f 219 206 207
f 219 207 130
f 219 130 213
f 191 130 207
f 117 214 196
f 196 197 193
f 196 193 117
f 214 117 193
f 213 130 191
f 211 125 217
f 196 214 115
f 210 187 186
f 186 216 217
f 217 218 193
f 193 218 219
f 193 219 214
f 214 198 115
f 216 123 219
f 198 189 188
f 202 199 215
f 215 199 200
f 215 200 111
f 111 109 215
f 215 109 198
f 215 198 191
f 191 198 213
f 209 219 123
f 198 109 189
f 189 109 200
f 200 109 111
f 187 123 186
f 186 123 216
f 217 216 219
f 217 219 218
f 219 213 214
f 214 213 198
f 190 198 188
f 228 105 225
f 234 113 227
f 227 113 229
f 103 232 225
f 107 103 225
f 233 105 228
f 228 108 110
f 235 112 234
f 235 234 224
f 113 226 236
f 222 237 114
f 226 114 236
f 116 245 120
f 116 120 119
f 118 222 116
f 245 221 126
f 246 122 238
f 220 122 246
f 225 129 231
f 231 129 240
f 240 129 241
f 232 241 225
f 107 225 105
f 126 127 245
f 245 127 120
f 120 127 121
f 241 129 225
f 225 244 228
f 233 228 110
f 124 221 245
f 222 245 116
f 240 239 231
f 225 231 244
f 228 244 234
f 228 234 108
f 108 234 112
f 238 124 246
f 246 124 245
f 237 222 118
f 239 128 231
f 231 128 230
f 231 246 244
f 224 234 227
f 224 227 229
f 128 220 230
f 230 246 231
f 234 226 113
f 230 220 246
f 244 246 245
f 234 244 245
f 234 245 248
f 248 245 222
f 248 222 234
f 234 222 226
f 226 222 114
f 163 242 243
f 162 223 247
f 272 273 80
f 272 80 259
f 259 80 82
f 259 82 258
f 258 82 98
f 258 98 257
f 257 98 99
f 257 99 256
f 256 99 100
f 256 100 255
f 255 100 101
f 255 101 254
f 254 101 102
f 254 102 253
f 253 102 252
f 251 252 250
f 249 250 97
f 260 95 261
f 261 95 86
f 261 86 270
f 270 86 87
f 270 87 269
f 269 87 88
f 269 88 268
f 268 88 89
f 268 89 267
f 267 89 90
f 267 90 266
f 266 90 91
f 266 91 265
f 265 91 92
f 265 92 264
f 264 92 93
f 264 93 263
f 263 93 94
f 263 94 262
f 262 94 84
f 262 84 271
f 271 84 79
f 183 276 274
f 274 275 183
f 277 278 174
f 279 277 174
f 280 279 174
f 280 174 173
f 281 280 173
f 282 281 173
f 284 282 177
f 282 173 177
f 283 284 177
f 300 283 177
f 184 286 285
f 289 288 290
f 291 292 185
f 293 294 287
f 294 296 295
f 300 177 301
f 299 300 301
f 301 298 299
f 304 301 306
f 302 303 306
f 302 306 305
f 178 308 307
f 179 311 310
f 310 309 179
f 311 179 180
f 313 312 180
f 314 313 181
f 313 180 181
f 315 314 181
f 317 316 182
f 318 182 322
f 319 318 322
f 321 322 327
f 323 320 175
f 325 324 327
f 326 327 176
f 297 328 176
f 154 329 330
f 331 332 153
f 334 333 151
f 335 336 152
f 339 338 337
