v -0.01525 0.04475 -0.014
v 0.01525 0.04475 -0.014
v 0.01525 0.04475 -0.05575
v -0.011 0.04475 -0.04575
v -0.012375 0.04475 -0.046118
v -0.013382 0.04475 -0.047125
v 0.008618 0.04475 -0.047125
v 0.01625 0.044482 -0.05575
v 0.01625 0.044482 -0.05575
v -0.097834 0.010399 -0.086975
v -0.106717 0.012247 -0.07159
v -0.107041 0.011813 -0.071028
v -0.107258 0.011165 -0.070652
v -0.106334 0.012399 -0.072253
v -0.105613 -0.008149 -0.089502
v -0.105887 -0.008698 -0.089027
v -0.106262 -0.008899 -0.088377
v -0.025581 0.013621 -0.028411
v -0.023764 0.013621 -0.028699
v -0.023764 0.013621 -0.028699
v -0.025581 0.012648 -0.029062
v -0.025581 0.012648 -0.029062
v -0.023965 0.012648 -0.029317
v -0.029862 0.0115 -0.036765
v -0.030336 0.0115 -0.035835
v -0.055081 0.0145 -0.043787
v 0.01525 0.04275 -0.05775
v -0.022802 0.015118 -0.052795
v -0.024009 0.015 -0.052236
v -0.024719 0.015 -0.052022
v -0.028923 0.015 -0.051134
v -0.031079 0.015 -0.051177
v -0.021583 0.015487 -0.053501
v -0.017812 0 -0.056969
v -0.017812 0.01917 -0.056969
v -0.10722 0.011813 -0.091718
v -0.10722 0.011813 -0.091718
v -0.107003 0.011165 -0.092093
v -0.106927 0.010399 -0.092225
v -0.116427 0.010399 -0.075771
v -0.10722 -0.011813 -0.091718
v -0.10722 -0.011813 -0.091718
v -0.107544 -0.012247 -0.091156
v -0.107544 -0.012247 -0.091156
v -0.107544 -0.012247 -0.091156
v -0.107927 -0.012399 -0.090493
v -0.107927 -0.012399 -0.090493
v -0.109177 0.00575 -0.088328
v -0.107927 0.012399 -0.090493
v -0.107544 0.012247 -0.091156
v -0.107544 0.012247 -0.091156
v -0.107003 -0.011165 -0.092093
v -0.115427 -0.012399 -0.077503
v -0.116351 -0.011165 -0.075902
v -0.116134 -0.011813 -0.076278
v -0.116134 -0.011813 -0.076278
v -0.11581 -0.012247 -0.07684
v -0.116351 0.011165 -0.075902
v -0.0596 0.011585 -0.046425
v -0.057187 0.015133 -0.045032
v -0.057564 0.015128 -0.044147
v -0.057564 0.015128 -0.044147
v -0.057649 0.015118 -0.043549
v -0.057723 0.01511 -0.043023
v -0.0531 0.011585 -0.057684
v -0.052495 0.01193 -0.057334
v -0.051392 0.01297 -0.056697
v -0.051252 0.013265 -0.056617
v -0.097572 0.008439 -0.08782
v -0.097649 0.009399 -0.087404
v -0.049872 0.013936 -0.057588
v -0.049872 0.013936 -0.057588
v -0.049872 0.013936 -0.057588
v -0.049872 0.013936 -0.057588
v -0.047417 0.015062 -0.058286
v -0.047207 0.015057 -0.058291
v -0.047027 0.0132 -0.058445
v -0.046708 0.015042 -0.058217
v -0.046708 0.015042 -0.058217
v -0.048252 0.015086 -0.058156
v -0.048252 0.015086 -0.058156
v -0.048252 0.015086 -0.058156
v -0.048252 0.015086 -0.058156
v -0.048517 0.013641 -0.058304
v -0.048517 0.013641 -0.058304
v -0.048517 0.013641 -0.058304
v -0.048517 0.013641 -0.058304
v -0.049298 0.015112 -0.057711
v -0.049298 0.015112 -0.057711
v -0.049298 0.015112 -0.057711
v -0.049298 0.015112 -0.057711
v -0.049472 0.015116 -0.057598
v -0.049472 0.015116 -0.057598
v -0.050417 0.012785 -0.057902
v -0.049171 0.012258 -0.058682
v -0.01711 0 -0.057544
v -0.047067 0.0145 -0.05579
v -0.046994 0.0145 -0.055789
v -0.055667 0.012807 -0.043289
v -0.055453 0.012884 -0.044031
v -0.055453 0.012884 -0.044031
v -0.055723 0.012368 -0.044187
v -0.04943 0.014354 -0.05362
v -0.049223 0.012368 -0.055445
v -0.049223 0.012368 -0.055445
v -0.049608 0.014311 -0.053324
v -0.049608 0.014311 -0.053324
v -0.049712 0.014257 -0.053166
v -0.051756 0.013356 -0.050082
v -0.052088 0.013284 -0.049554
v -0.052791 0.013472 -0.048214
v -0.053475 0.013927 -0.046784
v -0.053994 0.014257 -0.045751
v -0.054768 0.014488 -0.044333
v -0.050396 0.010549 -0.056122
v -0.049804 0.011258 -0.055781
v -0.049804 0.011258 -0.055781
v -0.04752 0.012526 -0.056063
v -0.049441 0.011186 -0.056234
v -0.050685 0.009891 -0.056952
v -0.050685 0.009891 -0.056952
v -0.0430235 0.010049 -0.0484975
v -0.048481 0.010049 -0.051455
v -0.051561 0.010049 -0.04429
v -0.051987 0.0115 -0.045245
v -0.052231 0.010049 -0.04679
v -0.0483973 0.010049 -0.044145
v -0.044292 0.0115 -0.042745
v -0.044756 0.0115 -0.042509
v -0.042476 0.0115 -0.045245
v -0.047231 0.010049 -0.04679
v -0.029911 0.010049 -0.03679
v -0.0249665 0.015049 -0.0319975
v -0.0276485 0.015049 -0.0334508
v -0.0250077 0.015049 -0.0355899
v -0.025581 0.015049 -0.03429
v -0.043001 0.012648 -0.043717
v -0.044158 0.012648 -0.04256
v -0.051461 0.012648 -0.049863
v -0.052204 0.012648 -0.048406
v -0.05246 0.012648 -0.04679
v -0.05311 0.013621 -0.04679
v -0.042475 0.013621 -0.043335
v -0.04164 0.013621 -0.044973
v -0.042259 0.012648 -0.045174
v -0.042003 0.012648 -0.04679
v -0.107334 -0.010399 -0.070521
v -0.107258 -0.011165 -0.070652
v -0.107258 -0.011165 -0.070652
v -0.098451 -0.012247 -0.085906
v -0.107041 -0.011813 -0.071028
v -0.106334 -0.012399 -0.072253
v -0.098834 -0.012399 -0.085243
v -0.098834 -0.012399 -0.085243
v -0.0188725 0.006 -0.0215495
v -0.0205213 0.006 -0.0224433
v -0.0188976 0.006 -0.0237581
v -0.020873 0.000806 -0.023896
v -0.020005 0.006 -0.024267
v -0.020187 0.000806 -0.024582
v -0.01925 0.006 -0.022959
v 0.009658 0.04355 -0.047725
v 0.010225 0.04355 -0.047158
v -0.011 0.04355 -0.04695
v -0.012342 0.04355 -0.047725
v -0.011775 0.04355 -0.047158
v -0.017982 0.020128 -0.05575
v -0.018722 0.019063 -0.05458
v -0.019023 0.018774 -0.054181
v -0.017629 0.020579 -0.01355
v 0.01575 0.044482 -0.013134
v 0.016116 0.044482 -0.0135
v -0.01575 0.044482 -0.013134
v -0.016116 0.044482 -0.0135
v -0.017516 0.019873 -0.057013
v -0.017346 0.019781 -0.057206
v -0.017807 0.020032 -0.056496
v 0.01625 0.04275 -0.057482
v -0.01625 0.044482 -0.05575
v -0.016616 0.044116 -0.05575
v -0.016982 0.04375 -0.05575
v -0.017048 0.043502 -0.05575
v 0.01675 0.04375 -0.056616
v 0.016116 0.04375 -0.05725
v 0.016116 0.044482 -0.05625
v 0.016116 0.044482 -0.05625
v -0.016116 0.044482 -0.05625
v -0.01675 0.04375 -0.056616
v -0.017109 0.01917 -0.057543
v -0.017837 0.020002 -0.056595
v -0.01804 0.01969 -0.056412
v -0.018043 0.01976 -0.056315
v -0.018048 0.019924 -0.056088
v -0.018861 0.018811 -0.054977
v -0.021687 0.016135 -0.053293
v -0.022837 0.015838 -0.052622
v -0.022741 0.016459 -0.052229
v -0.023951 0.015765 -0.052095
v -0.023951 0.015765 -0.052095
v -0.021477 0.017134 -0.0524
v -0.022527 0.016896 -0.051669
v -0.026731 0.016 -0.051138
v -0.028909 0.016 -0.050867
v -0.033269 0.016 -0.051269
v -0.031171 0.016732 -0.050182
v -0.03344 0.016732 -0.050557
v -0.050419 0.016076 -0.056136
v -0.049609 0.016754 -0.056053
v -0.050191 0.016075 -0.056484
v -0.048765 0.01675 -0.05683
v -0.048765 0.01675 -0.05683
v -0.04799 0.016746 -0.057168
v -0.04799 0.016746 -0.057168
v -0.049301 0.016066 -0.057346
v -0.049141 0.016064 -0.057451
v -0.049141 0.016064 -0.057451
v -0.049141 0.016064 -0.057451
v -0.049141 0.016064 -0.057451
v -0.048176 0.016049 -0.057871
v -0.048176 0.016049 -0.057871
v -0.047403 0.016036 -0.057999
v -0.047403 0.016036 -0.057999
v -0.047208 0.016032 -0.058005
v -0.047208 0.016032 -0.058005
v -0.047208 0.016032 -0.058005
v -0.046161 0.016014 -0.05786
v -0.046161 0.016014 -0.05786
v -0.04637 0.016736 -0.05716
v -0.056291 0.016754 -0.044515
v -0.056919 0.016076 -0.044878
v -0.056919 0.016076 -0.044878
v -0.056691 0.016749 -0.042873
v -0.056694 0.01675 -0.043026
v -0.057416 0.01606 -0.042833
v -0.05742 0.016063 -0.043024
v -0.057269 0.016073 -0.044061
v -0.057269 0.016073 -0.044061
v -0.056572 0.016753 -0.04386
v -0.017796 0.020443 -0.013787
v -0.01765 0.020472 -0.013476
v -0.0218735 0.0145 -0.04307
v -0.021907 0.0145 -0.045994
v -0.019724 0.0145 -0.044811
v -0.021407 0.0145 -0.044128
v -0.104195 -0.010399 -0.092957
v -0.104347 -0.01193 -0.092693
v -0.104347 -0.01193 -0.092693
v -0.098718 -0.01193 -0.089443
v -0.104491 -0.012361 -0.092444
v -0.104195 0.010399 -0.092957
v -0.104347 0.01193 -0.092693
v -0.105695 -0.010399 -0.093091
v -0.105695 0.010399 -0.093091
v -0.105195 -0.010399 -0.093225
v -0.105195 0.010399 -0.093225
v -0.104947 -0.010399 -0.093159
v -0.104947 0.010399 -0.093159
v -0.105337 -0.011827 -0.092979
v -0.105742 -0.013038 -0.092278
v -0.107061 -0.014131 -0.089993
v -0.106309 -0.011547 -0.092759
v -0.106309 -0.011547 -0.092759
v -0.106634 -0.012521 -0.092196
v -0.106634 -0.012521 -0.092196
v -0.107121 -0.013171 -0.091353
v -0.107695 -0.013399 -0.090359
v -0.107378 0.013765 -0.090176
v -0.107378 0.013765 -0.090176
v -0.107378 0.013765 -0.090176
v -0.105742 0.013038 -0.092278
v -0.105337 0.011827 -0.092979
v -0.107753 0.013151 -0.090392
v -0.107695 0.013399 -0.090359
v -0.107695 0.013399 -0.090359
v -0.107121 0.013171 -0.091353
v -0.107121 0.013171 -0.091353
v -0.106634 0.012521 -0.092196
v -0.115195 -0.013399 -0.077369
v -0.115195 -0.013399 -0.077369
v -0.115195 -0.013399 -0.077369
v -0.114561 -0.014131 -0.077003
v -0.114561 -0.014131 -0.077003
v -0.115195 0.013399 -0.077369
v -0.115195 0.013399 -0.077369
v -0.115195 0.013399 -0.077369
v -0.114878 0.013765 -0.077186
v -0.114878 0.013765 -0.077186
v -0.115769 -0.013171 -0.076374
v -0.115769 -0.013171 -0.076374
v -0.115275 -0.013847 -0.075766
v -0.115275 -0.013847 -0.075766
v -0.115881 -0.013038 -0.074717
v -0.116285 -0.011827 -0.074017
v -0.116427 -0.010399 -0.073771
v -0.116427 -0.010399 -0.073771
v -0.116256 -0.012521 -0.075532
v -0.116581 -0.011547 -0.074968
v -0.116581 -0.011547 -0.074968
v -0.116581 -0.011547 -0.074968
v -0.116695 -0.010399 -0.074771
v -0.116695 0.010399 -0.074771
v -0.116581 0.011547 -0.074968
v -0.116581 0.011547 -0.074968
v -0.116581 0.011547 -0.074968
v -0.116581 0.011547 -0.074968
v -0.116285 0.011827 -0.074017
v -0.115881 0.013038 -0.074717
v -0.115881 0.013038 -0.074717
v -0.116256 0.012521 -0.075532
v -0.116256 0.012521 -0.075532
v -0.115769 0.013171 -0.076374
v -0.106566 0.013399 -0.072387
v -0.106566 0.013399 -0.072387
v -0.1072 0.014131 -0.072753
v -0.09768 0.011547 -0.087777
v -0.097566 0.010399 -0.087975
v -0.097566 0.010399 -0.087975
v -0.108066 0.010399 -0.069789
v -0.108066 0.010399 -0.069789
v -0.107952 0.011547 -0.069986
v -0.107952 0.011547 -0.069986
v -0.109066 0.010399 -0.069521
v -0.107627 0.012521 -0.070549
v -0.107914 0.013847 -0.071516
v -0.10714 0.013171 -0.071392
v -0.098492 -0.013171 -0.086371
v -0.099066 -0.013399 -0.085377
v -0.099066 -0.013399 -0.085377
v -0.099066 -0.013399 -0.085377
v -0.0997 -0.014131 -0.085743
v -0.108519 -0.013038 -0.070467
v -0.107914 -0.013847 -0.071516
v -0.107914 -0.013847 -0.071516
v -0.106566 -0.013399 -0.072387
v -0.106566 -0.013399 -0.072387
v -0.10714 -0.013171 -0.071392
v -0.1072 -0.014131 -0.072753
v -0.1072 -0.014131 -0.072753
v -0.1072 -0.014131 -0.072753
v -0.107627 -0.012521 -0.070549
v -0.107627 -0.012521 -0.070549
v -0.107952 -0.011547 -0.069986
v -0.05345 -0.007973 -0.059486
v 0.00225 -0.017 -0.05575
v 0.00225 -0.017 -0.05575
v -0.048245 -0.017 -0.056014
v -0.048351 -0.017 -0.055946
v -0.048351 -0.017 -0.055946
v -0.048757 -0.017 -0.05558
v -0.029712 -0.0115 -0.037107
v -0.021076 -0.0115 -0.032121
v -0.021285 -0.0115 -0.031814
v -0.046987 -0.0145 -0.055788
v -0.047067 -0.0145 -0.055789
v -0.047067 -0.0145 -0.055789
v -0.047498 -0.0145 -0.055797
v -0.047498 -0.0145 -0.055797
v -0.047648 -0.0145 -0.055747
v -0.055453 -0.012884 -0.044031
v -0.055453 -0.012884 -0.044031
v -0.053413 -0.013887 -0.046909
v -0.052992 -0.013608 -0.047791
v -0.052773 -0.013462 -0.048251
v -0.052773 -0.013462 -0.048251
v -0.055708 -0.012397 -0.044178
v -0.052662 -0.013435 -0.04846
v -0.049208 -0.012397 -0.055437
v -0.050976 -0.013608 -0.051283
v -0.050892 -0.01365 -0.051404
v -0.050892 -0.01365 -0.051404
v -0.050411 -0.013894 -0.052104
v -0.050353 -0.010594 -0.056098
v -0.050353 -0.010594 -0.056098
v -0.056853 -0.010594 -0.044839
v -0.056853 -0.010594 -0.044839
v -0.056853 -0.010594 -0.044839
v -0.049804 -0.011258 -0.055781
v -0.049804 -0.011258 -0.055781
v -0.056304 -0.011258 -0.044523
v -0.056304 -0.011258 -0.044523
v 0.01325 0 -0.054848
v -0.093198 0 -0.085453
v 0.01175 0 -0.05525
v 0.00225 -0.015 -0.05775
v 0.01509 -0.004034 -0.05775
v 0.009891 -0.012517 -0.05775
v -0.031079 -0.015 -0.051177
v -0.028923 -0.015 -0.051134
v -0.04624 -0.011212 -0.058342
v -0.045224 -0.015 -0.057755
v -0.094061 -0.000265 -0.085951
v -0.096494 -0.002018 -0.087356
v -0.106994 -0.002018 -0.06917
v -0.107296 -0.00262 -0.069344
v -0.107296 -0.00262 -0.069344
v -0.107296 -0.00262 -0.069344
v -0.107401 -0.003306 -0.069405
v -0.058952 -0.011908 -0.046052
v -0.058952 -0.011908 -0.046052
v -0.059589 -0.011643 -0.044652
v -0.058232 -0.013146 -0.043868
v -0.057843 -0.014144 -0.043643
v -0.057843 -0.014144 -0.043643
v -0.057723 -0.015111 -0.043066
v -0.057773 -0.013892 -0.042105
v -0.058241 -0.012693 -0.042375
v -0.058244 -0.012514 -0.045643
v -0.058244 -0.012514 -0.045643
v -0.05083 -0.014233 -0.056373
v -0.05083 -0.014233 -0.056373
v -0.05083 -0.014233 -0.056373
v -0.051192 -0.013306 -0.056582
v -0.051744 -0.012514 -0.056901
v -0.052452 -0.011908 -0.05731
v -0.052452 -0.011908 -0.05731
v -0.05248 -0.011895 -0.057326
v -0.050796 -0.012294 -0.058121
v -0.050796 -0.012294 -0.058121
v -0.049472 -0.015116 -0.057598
v -0.049641 -0.015119 -0.057446
v -0.049641 -0.015119 -0.057446
v -0.049641 -0.015119 -0.057446
v -0.049812 -0.014144 -0.057553
v -0.049812 -0.014144 -0.057553
v -0.049812 -0.014144 -0.057553
v -0.049812 -0.014144 -0.057553
v -0.05044 -0.015132 -0.056668
v -0.05044 -0.015132 -0.056668
v -0.050284 -0.01513 -0.056866
v -0.050284 -0.01513 -0.056866
v -0.046707 -0.015042 -0.058221
v -0.046936 -0.013513 -0.058392
v -0.048252 -0.015086 -0.058156
v -0.048252 -0.015086 -0.058156
v -0.049261 -0.015111 -0.057733
v -0.049261 -0.015111 -0.057733
v -0.046082 -0.015025 -0.058125
v -0.048416 -0.010732 -0.059247
v -0.049627 -0.011669 -0.058945
v -0.050202 -0.013146 -0.057778
v -0.048913 -0.012693 -0.058532
v -0.048913 -0.012693 -0.058532
v -0.047522 -0.012013 -0.05873
v -0.018192 -0.016848 -0.016633
v -0.016603 -0.016848 -0.01369
v -0.016857 -0.016662 -0.013578
v -0.050419 -0.016076 -0.056136
v -0.050419 -0.016076 -0.056136
v -0.049791 -0.016754 -0.055773
v -0.049791 -0.016754 -0.055773
v -0.045358 -0.016 -0.057523
v -0.046161 -0.016014 -0.05786
v -0.050191 -0.016075 -0.056484
v -0.050191 -0.016075 -0.056484
v -0.050191 -0.016075 -0.056484
v -0.050191 -0.016075 -0.056484
v -0.050191 -0.016075 -0.056484
v -0.049609 -0.016754 -0.056053
v -0.049609 -0.016754 -0.056053
v -0.050048 -0.016074 -0.056667
v -0.049301 -0.016066 -0.057346
v -0.049301 -0.016066 -0.057346
v -0.049107 -0.016064 -0.057472
v -0.049107 -0.016064 -0.057472
v -0.049493 -0.016753 -0.0562
v -0.048894 -0.016751 -0.056746
v -0.048894 -0.016751 -0.056746
v -0.048894 -0.016751 -0.056746
v -0.048737 -0.01675 -0.056847
v -0.017128 -0.016594 -0.056444
v -0.017019 -0.016732 -0.05636
v -0.017202 -0.016502 -0.0565
v -0.031104 -0.016 -0.050911
v -0.05139 -0.007741 -0.058429
v -0.0948795 -0.0001325 -0.083537
v -0.047005 -0.012304 -0.055897
v -0.097744 -0.002018 -0.085191
v -0.097281 -0.001572 -0.084924
v -0.106151 -0.003306 -0.07157
v -0.106151 -0.003306 -0.07157
v -0.106046 -0.00262 -0.071509
v -0.106046 -0.00262 -0.071509
v -0.105744 -0.002018 -0.071335
v -0.055242 -0.0145 -0.04334
v -0.055667 -0.012807 -0.043289
v -0.056545 -0.01113 -0.043796
v -0.057805 -0.009819 -0.044523
v -0.057527 -0.009986 -0.045228
v -0.04752 -0.012526 -0.056063
v -0.04752 -0.012526 -0.056063
v -0.050685 -0.009891 -0.056952
v -0.051027 -0.009986 -0.056487
v -0.051027 -0.009986 -0.056487
v -0.049441 -0.011186 -0.056234
v -0.049441 -0.011186 -0.056234
v -0.049441 -0.011186 -0.056234
v -0.051591 -0.008291 -0.058413
v -0.028081 -0.010151 -0.03862
v -0.029911 -0.010151 -0.03679
v -0.021251 -0.010151 -0.03179
v -0.0483973 -0.010151 -0.049435
v -0.048481 -0.010151 -0.042125
v -0.0430235 -0.010151 -0.0450825
v -0.043566 -0.0115 -0.043389
v -0.042936 -0.0115 -0.044314
v -0.042726 -0.0115 -0.044621
v -0.047231 -0.010151 -0.04679
v -0.026195 -0.015151 -0.0319975
v -0.0235132 -0.015151 -0.0334508
v -0.026154 -0.015151 -0.0355899
v -0.025581 -0.015151 -0.03429
v -0.05311 -0.013621 -0.04679
v -0.052849 -0.013621 -0.045057
v -0.052227 -0.012648 -0.048331
v -0.05246 -0.012648 -0.04679
v -0.050897 -0.013621 -0.051386
v -0.042521 -0.012648 -0.049058
v -0.042061 -0.012648 -0.047569
v -0.042287 -0.0115 -0.046045
v -0.042521 -0.012648 -0.044521
v -0.042521 -0.012648 -0.044521
v -0.042521 -0.012648 -0.044521
v -0.043399 -0.012648 -0.043234
v -0.043399 -0.012648 -0.043234
v -0.052227 -0.012648 -0.045249
v -0.042922 -0.013621 -0.042791
v -0.042922 -0.013621 -0.042791
v -0.041935 -0.013621 -0.044239
v -0.041935 -0.013621 -0.044239
v -0.041418 -0.013621 -0.045914
v -0.041418 -0.013621 -0.047666
v -0.041058 -0.014272 -0.043817
v 0.010306 -0.014653 -0.051161
v 0.011001 -0.01418 -0.045758
v 0.004596 -0.016815 -0.05575
v 0.006303 0.00425 -0.050119
v 0.00475 0 -0.050973
v 0.004552 0.00425 -0.051061
v -0.021932 -0.0145 -0.0421685
v -0.01964 -0.0145 -0.0434107
v -0.021897 -0.0145 -0.0452388
v -0.021407 -0.0145 -0.044128
v 0.01175 0.004683 -0.055
v 0.004396 0.004604 -0.055104
v 0.01175 0.004591 -0.055092
v 0.008036 0.004683 -0.049072
v 0.009246 0.0045 -0.04745
v 0.007911 0.0045 -0.048939
v -0.017108 -0.016556 -0.056499
v -0.017108 -0.016556 -0.056499
v -0.016226 -0.016853 -0.056502
v -0.016226 -0.016853 -0.056502
v -0.016226 -0.016421 -0.057158
v -0.016226 -0.01577 -0.057596
v 0.00225 -0.016732 -0.05675
v 0.00225 -0.016732 -0.05675
v 0.00225 -0.016 -0.057482
v 0.00225 -0.016 -0.057482
v 0.01625 -0.002 -0.057482
v 0.016078 -0.00419 -0.057482
v 0.016078 -0.00419 -0.057482
v 0.016801 -0.004305 -0.05675
v 0.015376 -0.008688 -0.05675
v 0.014168 -0.010659 -0.05675
v 0.010909 -0.013918 -0.05675
v 0.008938 -0.015126 -0.05675
v 0.004555 -0.016551 -0.05675
v 0.015565 -0.006326 -0.057482
v 0.014724 -0.008356 -0.057482
v 0.013576 -0.010229 -0.057482
v 0.010479 -0.013326 -0.057482
v 0.010479 -0.013326 -0.057482
v 0.008606 -0.014474 -0.057482
v 0.008606 -0.014474 -0.057482
v 0.012526 0.00425 -0.055148
v 0.013871 0.00425 -0.054371
v 0.014406 0.004683 -0.052962
v 0.01429 0.0045 -0.053716
v 0.01429 0.0045 -0.053716
v 0.01429 0.0045 -0.053716
v 0.014132 0.004683 -0.053625
v 0.014132 0.004683 -0.053625
v 0.013824 0.0045 -0.054324
v 0.013824 0.0045 -0.054324
v 0.013695 0.004683 -0.054194
v 0.011 -0.00775 -0.05125
v 0.009625 -0.00775 -0.050882
v 0.009625 -0.00775 -0.046118
v 0.011 -0.00775 -0.04575
f 16 15 17
f 18 22 20
f 19 21 23
f 36 38 39
f 41 45 46
f 51 37 48
f 65 59 66
f 82 77 86
f 83 85 88
f 89 84 73
f 91 74 93
f 67 68 94
f 94 68 71
f 95 72 87
f 26 99 100
f 105 103 106
f 107 108 104
f 102 114 101
f 98 97 118
f 119 117 120
f 116 115 121
f 124 125 126
f 131 122 127
f 127 123 131
f 131 123 122
f 132 25 24
f 136 134 135
f 135 133 136
f 136 133 134
f 109 139 110
f 111 140 141
f 113 112 142
f 143 137 144
f 145 130 146
f 138 129 128
f 159 158 160
f 161 156 157
f 157 155 161
f 161 155 156
f 162 7 163
f 165 6 166
f 164 5 4
f 171 172 2
f 174 173 1
f 178 27 184
f 8 183 186
f 9 185 3
f 182 181 188
f 187 180 179
f 34 189 96
f 190 191 192
f 177 193 167
f 175 176 35
f 169 168 194
f 195 33 28
f 29 198 196
f 200 197 201
f 199 30 202
f 203 31 32
f 205 204 206
f 207 208 209
f 214 211 215
f 217 210 212
f 218 213 220
f 79 76 223
f 221 75 80
f 222 81 219
f 216 90 92
f 226 78 224
f 227 225 228
f 234 232 233
f 63 64 235
f 60 61 231
f 230 62 236
f 229 237 238
f 170 239 240
f 244 243 241
f 241 242 244
f 244 242 243
f 247 248 249
f 256 245 246
f 252 254 258
f 261 259 263
f 52 262 264
f 42 265 43
f 44 266 47
f 250 257 251
f 275 274 267
f 276 270 277
f 50 49 272
f 271 255 253
f 280 260 282
f 273 284 268
f 269 283 286
f 53 278 289
f 279 281 291
f 288 290 292
f 299 293 294
f 297 295 300
f 57 296 56
f 55 298 54
f 40 301 305
f 303 306 307
f 302 308 309
f 311 287 285
f 58 304 310
f 315 10 316
f 319 13 321
f 318 320 322
f 11 323 12
f 325 14 313
f 324 312 314
f 69 317 70
f 150 153 326
f 326 153 327
f 339 336 332
f 331 333 340
f 148 341 151
f 149 147 342
f 154 152 335
f 328 334 338
f 329 337 330
f 361 362 360
f 365 363 366
f 367 368 369
f 377 375 379
f 402 404 405
f 403 406 401
f 408 400 399
f 413 407 415
f 414 398 416
f 419 420 423
f 424 422 411
f 410 421 430
f 426 433 436
f 431 432 437
f 440 417 442
f 441 418 439
f 443 438 389
f 412 425 409
f 444 445 446
f 390 451 452
f 450 447 455
f 448 428 453
f 454 427 429
f 463 435 434
f 449 457 458
f 459 456 460
f 465 461 467
f 466 462 464
f 349 468 347
f 348 469 346
f 388 473 387
f 484 359 485
f 486 380 374
f 487 376 488
f 353 476 354
f 358 356 490
f 491 492 496
f 493 373 494
f 495 372 378
f 357 355 489
f 497 474 343
f 498 350 499
f 352 351 500
f 507 503 501
f 501 502 507
f 507 502 503
f 511 509 510
f 510 508 511
f 511 508 509
f 514 364 515
f 370 516 371
f 519 506 521
f 524 505 504
f 525 512 513
f 523 526 522
f 520 527 528
f 518 531 517
f 529 532 530
f 537 536 538
f 542 540 541
f 541 539 542
f 542 539 540
f 543 545 544
f 547 546 548
f 472 549 470
f 552 471 550
f 344 551 556
f 555 553 558
f 554 384 557
f 567 535 345
f 559 562 561
f 569 563 564
f 569 564 570
f 571 565 566
f 571 566 573
f 385 560 568
f 386 572 574
f 383 575 381
f 577 579 581
f 582 578 583
f 582 583 585
f 576 584 580
f 533 586 587
f 589 534 588
f 478 392 477
f 391 475 382
f 480 397 396
f 479 394 482
f 481 395 393
f 481 393 483
