v -0.14532 -0.014604 -0.008009
v -0.145455 -0.014604 0.004991
v -0.121707 -0.016531 -0.007764
v -0.121842 -0.016531 0.005236
v -0.098016 -0.016704 -0.007518
v -0.098151 -0.016704 0.005482
v -0.074377 -0.015125 -0.007272
v -0.074512 -0.015125 0.005727
v -0.05092 -0.011801 -0.007029
v -0.051055 -0.011801 0.00597
v -0.027773 -0.00675 -0.006789
v -0.027908 -0.00675 0.006211
v -0.005063 -0 -0.006553
v -0.005198 -0 0.006446
v 0.005463 -0 -0.000332
v 0.005463 -0 0.000447
v 0.005463 -0 0.002698
v 0.005463 0 0.001882
v 2.37769e-36 0 -1.92747e-19
v 0.005463 -0 -0.000747
v 0.005463 0 -0.001761
v 0.00546376 -0.000120001 -0.006444
v 0.005463 -0 -0.002575
v 0.005463 0 0.001446
v 0.005464 -0.0006 0.001883
v 0.005464 -0.0006 0.000865
v -5.94423e-37 -0.0006 -9.63735e-20
v -0.004965 -0.0006 -0.006552
v -0.0051 -0.0006 0.006447
v 0.005464 -0.0006 0.003085
v 0.005464 -0.0006 0.006557
v 0.005464 -0.0006 0.002698
v 0.005464 -0.0006 0.000447
v 0.005464 -0.0006 -0.000332
v 0.005464 -0.0006 -0.001331
v 0.005464 -0.0006 -0.001762
v 0.005464 -0.0006 -0.002575
v -0.02784 -0.007352 0.006211
v -0.027705 -0.007352 -0.006788
v -0.051018 -0.012404 0.005971
v -0.050883 -0.012404 -0.007028
v -0.074506 -0.015728 0.005727
v -0.074371 -0.015728 -0.007272
v -0.098175 -0.017305 0.005481
v -0.09804 -0.017305 -0.007518
v -0.121896 -0.017129 0.005235
v -0.121762 -0.017129 -0.007764
v -0.14554 -0.015198 0.00499
v -0.145405 -0.015198 -0.00801
v 0.00546333 -8.11466e-10 0.006557
f 1 2 3
f 3 2 4
f 3 4 5
f 5 4 6
f 5 6 7
f 7 6 8
f 7 8 9
f 9 8 10
f 9 10 11
f 11 10 12
f 11 12 13
f 13 12 14
f 15 19 16
f 17 18 19
f 14 19 13
f 50 17 19
f 50 19 14
f 20 21 19
f 19 15 20
f 13 19 22
f 19 23 22
f 19 21 23
f 24 19 18
f 24 16 19
f 25 27 26
f 28 27 29
f 27 30 31
f 27 31 29
f 27 32 30
f 27 25 32
f 27 33 26
f 34 33 27
f 34 27 35
f 36 35 27
f 36 27 37
f 37 27 28
f 37 28 22
f 28 29 38
f 28 38 39
f 39 38 40
f 39 40 41
f 41 40 42
f 41 42 43
f 43 42 44
f 43 44 45
f 45 44 46
f 45 46 47
f 47 46 48
f 47 48 49
f 22 28 13
f 13 28 11
f 11 28 39
f 11 39 9
f 9 39 41
f 9 41 7
f 7 41 43
f 7 43 5
f 5 43 45
f 5 45 3
f 3 45 47
f 3 47 1
f 1 47 49
f 2 48 4
f 4 48 46
f 4 46 6
f 6 46 44
f 6 44 8
f 8 44 42
f 8 42 10
f 10 42 40
f 10 40 12
f 12 40 38
f 12 38 14
f 14 38 29
f 14 29 50
f 50 29 31
f 23 21 20
f 35 36 37
f 26 33 34
f 34 35 37
f 37 22 23
f 23 20 15
f 16 24 18
f 23 15 16
f 34 37 23
f 32 25 26
f 26 34 23
f 16 18 17
f 26 23 16
f 31 30 32
f 32 26 16
f 32 16 17
f 50 31 32
f 17 50 32
