v -0.311955 -0.0112901 0.00547166
v -0.312551 -0.0712537 -0.00536341
v -0.311955 -0.011297 0.00783569
v -0.250368 -0.011716 0.00783714
v -0.311955 -0.0114 0.0102432
v -0.311955 -0.0114413 0.0104012
v -0.250368 -0.011977 0.0107172
v -0.244964 -0.0118968 0.00990776
v -0.311955 -0.0125883 0.012442
v -0.252742 -0.0119702 0.0107534
v -0.248016 -0.0131859 0.0122521
v -0.311955 -0.0128768 0.0128449
v -0.250368 -0.0131585 0.0122594
v -0.311955 -0.0142094 0.0135015
v -0.311955 -0.0600039 0.0135015
v -0.310668 -0.0154114 0.0135015
v -0.198276 -0.0319859 0.0132972
v -0.311342 -0.0574549 0.0135015
v -0.311955 -0.0675116 0.0134001
v -0.205442 -0.0769837 0.0132957
v -0.205442 -0.0746139 0.0132986
v -0.197559 -0.0343557 0.0132972
v -0.194424 -0.0512387 0.000665532
v -0.311955 -0.0698607 0.013158
v -0.304856 -0.0698744 0.0132319
v -0.297745 -0.0698744 0.0132856
v -0.269325 -0.0722511 0.0132769
v -0.207749 -0.0769837 0.0132885
v -0.205442 -0.0793466 0.0127188
v -0.310232 -0.0185121 0.0135015
v -0.224665 -0.0145354 0.0117922
v -0.205442 -0.0808302 0.011768
v -0.311955 -0.0698744 0.0131566
v -0.214859 -0.0769837 0.0132276
v -0.210123 -0.0769837 0.0132711
v -0.221584 -0.0769986 0.0131229
v -0.229069 -0.0769837 0.0129493
v -0.231443 -0.0769837 0.0128725
v -0.233806 -0.0769837 0.0127884
v -0.264589 -0.0746139 0.0127623
v -0.236169 -0.0769837 0.0126899
v -0.226707 -0.0787902 0.0120579
v -0.207749 -0.0793466 0.0126087
v -0.229069 -0.0787009 0.0119941
v -0.231443 -0.0786116 0.0119217
v -0.233806 -0.0785223 0.0118361
v -0.295383 -0.0737347 0.0117811
v -0.297745 -0.0736454 0.0116781
v -0.207749 -0.0807409 0.0116665
v -0.211937 -0.080583 0.0114593
v -0.205445 -0.0812891 0.0102541
v -0.311955 -0.0718527 0.0121623
v -0.295383 -0.0722442 0.0127333
v -0.293009 -0.0722442 0.0128246
v -0.290646 -0.0722442 0.0128986
v -0.259841 -0.0746139 0.0129261
v -0.262215 -0.0746139 0.0128507
v -0.297745 -0.0722442 0.0126203
v -0.288272 -0.0739957 0.012013
v -0.290646 -0.0739064 0.0119463
v -0.293009 -0.073824 0.0118695
v -0.300119 -0.0735561 0.0115636
v -0.210089 -0.0806517 0.011552
v -0.302012 -0.0734874 0.0114665
v -0.303591 -0.0734256 0.0113477
f 1 2 52
f 1 52 33
f 1 33 24
f 1 24 19
f 1 19 15
f 1 15 14
f 1 14 12
f 1 12 9
f 1 9 6
f 1 6 5
f 1 5 3
f 1 3 4
f 1 4 23
f 1 23 2
f 3 5 4
f 4 8 23
f 4 5 8
f 5 6 7
f 5 7 8
f 6 9 10
f 6 10 7
f 7 10 11
f 7 11 31
f 7 31 8
f 31 23 8
f 9 12 10
f 10 13 11
f 10 12 13
f 11 23 31
f 11 13 12
f 11 12 14
f 11 14 23
f 14 15 18
f 14 18 30
f 14 30 16
f 14 16 17
f 14 17 23
f 15 19 20
f 15 20 21
f 15 21 18
f 16 30 22
f 16 22 17
f 17 22 23
f 18 21 23
f 19 24 25
f 19 25 26
f 19 26 27
f 19 27 28
f 19 28 20
f 20 28 29
f 20 29 23
f 20 23 21
f 30 23 22
f 23 30 18
f 23 29 32
f 23 32 51
f 24 33 25
f 25 27 26
f 25 33 34
f 25 34 35
f 25 35 27
f 27 35 28
f 28 35 29
f 29 35 34
f 29 34 36
f 29 36 37
f 29 37 38
f 29 38 39
f 29 39 40
f 29 40 41
f 29 41 42
f 29 42 43
f 29 43 32
f 32 43 42
f 32 42 44
f 32 44 45
f 32 45 46
f 32 46 47
f 32 47 48
f 32 48 49
f 32 49 51
f 51 49 50
f 23 51 2
f 33 52 53
f 33 53 54
f 33 54 55
f 33 55 56
f 33 56 37
f 33 37 36
f 33 36 34
f 37 56 57
f 37 57 38
f 38 57 39
f 39 57 54
f 39 54 40
f 40 54 53
f 40 53 41
f 41 53 42
f 42 53 58
f 42 58 59
f 42 59 44
f 44 59 60
f 44 60 61
f 44 61 45
f 45 61 46
f 46 61 47
f 47 61 52
f 47 52 48
f 48 52 62
f 48 62 49
f 49 63 50
f 49 62 63
f 50 63 62
f 50 62 64
f 50 64 65
f 50 65 51
f 52 2 65
f 52 65 64
f 52 64 62
f 52 61 60
f 52 60 59
f 52 59 58
f 52 58 53
f 54 57 56
f 54 56 55
f 65 2 51
