v -0.273551 0.001799 0.074987
v -0.268024 0.001948 0.076796
v -0.268348 0.001612 0.076799
v -0.268348 -0.000855 0.0781325
v -0.268024 -0.0010355 0.0784085
v -0.268186 0.0014805 0.0777385
v -0.268186 -0.0014665 0.0758905
v -0.268348 -0.001336 0.075991
v -0.268348 -0.001483 0.076215
v -0.268348 -0.001565 0.076655
v -0.268024 -0.001779 0.077575
v -0.268024 -0.001934 0.076834
v -0.268348 -0.001598 0.07683
v -0.269455 0.002316 0.07571
v -0.273551 0.002555 0.076567
v -0.277647 0.002316 0.07571
f 3 2 6
f 8 9 7
f 7 9 10
f 7 10 12
f 4 5 11
f 13 12 10
f 15 14 16
f 16 14 1
