v -0.027572 0.107853 0.026625
v -0.030387 0.105902 0.02386
v -0.0280992 0.107488 0.0255895
v -0.031444 0.105169 0.023513
v -0.0307375 0.105659 0.02248
v -0.0296825 0.106389 0.0242065
v -0.027571 0.107854 0.025935
v -0.026866 0.108343 0.025937
v -0.028267 0.105853 0.024552
v -0.0289715 0.105365 0.024206
v -0.028267 0.105854 0.023863
v -0.027914 0.106099 0.0235185
v -0.02625 0.110371 0.023872
v -0.026254 0.110366 0.027431
v -0.0265185 0.110806 0.020292
v -0.030891 0.109625 0.027506
v -0.0270715 0.111657 0.0256725
v -0.033821 0.106354 0.027457
v -0.029731 0.107954 0.027424
v -0.026796 0.11123 0.023872
v -0.030311 0.108789 0.027465
f 3 1 7
f 4 6 2
f 7 1 8
f 12 9 11
f 15 20 13
f 15 17 20
f 14 21 19
f 4 2 5
f 5 2 6
f 3 7 8
f 12 11 10
f 11 9 10
f 20 17 13
f 18 21 16
f 18 19 21
f 14 16 21
