v 0.023396 0.061687 0.041692
v 0.0164405 0.0589145 0.0459805
v 0.0149845 0.0603705 0.043828
v 0.015172 0.060183 0.045964
v 0.016353 0.059002 0.045964
v 0.016353 0.059002 0.045964
v 0.016353 0.059002 0.04741
v 0.021536 0.066738 0.045964
v 0.022716 0.065558 0.045964
v 0.02177 0.064584 0.047885
v 0.020449 0.065619 0.047892
v 0.01648 0.06153 0.047904
v 0.018892 0.061619 0.047956
v 0.0200075 0.062768 0.047961
v 0.018892 0.064015 0.047963
v 0.018835 0.063956 0.047965
v 0.017848 0.062939 0.047965
v 0.017832 0.062922 0.047964
v 0.019226 0.061963 0.047965
v 0.024045 0.062922 0.041692
v 0.023171 0.065393 0.041692
f 2 5 3
f 4 8 16
f 12 4 18
f 11 15 8
f 16 17 4
f 13 19 6
f 14 10 9
f 9 6 14
f 6 7 13
f 21 1 20
