v -0.329176 0.0322883 0.0323797
v -0.336807 0.0706091 0.0943399
v -0.320605 0.0301055 0.094765
v -0.325106 0.072973 0.0320026
v -0.323572 0.0716202 0.0942043
v -0.314835 0.0327683 0.0329667
v -0.315957 0.0552474 0.0556405
v -0.316463 0.0636916 0.0462432
v -0.315638 0.0491291 0.0784376
v -0.317359 0.0714067 0.0784682
v -0.31687 0.0687885 0.0321378
f 1 6 3
f 6 1 4
f 6 4 11
f 3 5 2
f 3 2 1
f 2 4 1
f 9 6 7
f 9 7 8
f 3 6 9
f 6 11 8
f 6 8 7
f 10 8 11
f 10 11 4
f 2 5 4
f 8 10 9
f 3 9 5
f 10 4 5
f 10 5 9
