v -0.158386 0.075611 0.00321313
v -0.171366 0.0482563 0.00321358
v -0.158246 0.075611 0.00073352
v -0.203725 0.0303777 0.00087465
v -0.177557 0.0420731 0.00321358
v -0.158009 0.075611 4.029e-05
v -0.203725 0.0303674 0.00073352
v -0.17872 0.0409428 0.00321358
v -0.177706 0.0419825 0.000838041
v -0.157543 0.075611 -0.00087148
v -0.203725 0.029428 -0.00086041
v -0.178833 0.0408344 0.00321358
v -0.202982 0.0222964 0.0014711
v -0.17996 0.0397815 0.00321358
v -0.149627 0.0728073 -0.000670781
v -0.181278 0.0385996 0.00321358
v -0.186658 0.033891 0.000733221
f 15 10 6
f 15 6 3
f 15 3 1
f 15 1 13
f 15 13 2
f 1 3 4
f 1 4 13
f 2 5 9
f 2 9 15
f 2 13 16
f 2 16 14
f 2 14 12
f 2 12 8
f 2 8 5
f 3 6 7
f 3 7 4
f 4 7 11
f 4 11 13
f 5 8 9
f 6 10 7
f 7 10 11
f 8 12 9
f 10 15 11
f 11 15 13
f 9 12 14
f 14 17 9
f 14 16 17
f 9 17 13
f 9 13 15
f 16 13 17
