v 0 -0.012494 -0.0005
v 0.002437 -0.012254 -0.0005
v 0.000773 -0.01247 -0.001692
v 0.0008 -0.012468 -0.0019
v 0.000773 -0.01247 -0.002107
v 0.000693 -0.012474 -0.0023
v 0.002437 -0.012254 -0.03525
v -0.002437 -0.012254 -0.0005
v -0.0004 -0.012487 -0.001207
v -0.000207 -0.012492 -0.001127
v -0.00241025 0.00574325 0
v -0.00419906 0.00421619 0
v 0.00388924 -0.00551344 0
v 0.00349193 0.000783485 0
v -0.00518005 0.00693896 0
v 0.00656263 0.00507918 0
v -0.000195 -0.011974 0
v -0.001515 -0.011844 0
v -0.00537916 -0.00592813 0
v 0.006085 -0.00918255 0
v -0.00662958 -0.00481274 -0.038
v -0.001515 -0.011844 -0.038
v -0.001849 -0.011811 -0.038
v -0.003079 -0.011539 -0.038
v -0.006663 0.009972 -0.038
v -0.006663 0.009972 -0.038
v -0.006315 0.010158 -0.038
v -0.005693 0.001895 -0.038
v -0.00241025 0.00574325 -0.038
v -0.008605 0.00833 -0.038
v -0.0053593 0.00751252 -0.038
v -2.28438e-05 0.00676903 -0.038
v 0.00273372 -0.00488766 -0.038
v 0.00573599 0.0035313 -0.038
v -0.011763 -0.00234 -0.038
v -0.011081 -0.00459 -0.038
v -0.011081 -0.00459 -0.038
v -0.000641 0.005966 -0.038
v -0.000641 0.005966 -0.038
v -0.002296 0.005543 -0.038
v -0.002296 0.005543 -0.038
v 0.001065 0.005905 -0.038
v 0.00516 0.003062 -0.038
v 0.005814 0.001484 -0.038
v 0.005814 0.001484 -0.038
v 0.005814 0.001484 -0.038
v 0.004928 -0.003422 -0.038
v -0.001391 -0.005796 -0.038
v -0.002686 -0.005365 -0.038
v -0.002686 -0.005365 -0.038
v -0.00448 -0.003906 -0.038
v -0.004088 -0.004391 -0.038
v -0.004088 -0.004391 -0.038
v -0.003032 -0.005125 -0.038
v -0.005814 -0.001484 -0.038
v -0.00516 -0.003062 -0.038
v -0.00516 -0.003062 -0.038
v -0.00569956 0.00317456 -0.038
v -0.008481 0.008481 -0.038
v -0.008481 0.008481 -0.038
v -0.008481 0.008481 -0.038
v -0.008277 -0.008648 -0.038
v -0.008277 -0.008648 -0.038
v -0.008481 -0.008481 -0.038
v -0.008481 -0.008481 -0.038
v -0.006663 -0.009972 -0.038
v -0.00234 -0.011763 -0.038
v 0.00234 -0.011763 -0.038
v 0 -0.011994 -0.038
v 0.008604 -0.008331 -0.038
v 0.008481 -0.008481 -0.038
v 0.008481 -0.008481 -0.038
v 0.006663 -0.009972 -0.038
v 0.011994 0 -0.038
v 0.011968 -0.000263 -0.038
v 0.011633 0.002768 -0.038
v 0.011763 0.00234 -0.038
v 0.008481 0.008481 -0.038
v 0.008481 0.008481 -0.038
v 0.002544 0.011701 -0.038
v 0.006663 0.009972 -0.038
v 0.007044 0.009659 -0.038
v 0.00234 0.011763 -0.038
v 0.00418836 -0.00948943 -0.038
v 0.002437 -0.012254 -0.0375
v 0 -0.012494 -0.0375
v -0.002437 -0.012254 -0.0375
v -0.002437 -0.012254 -0.0375
v -0.006941 -0.010388 -0.0375
v -0.008834 -0.008834 -0.0375
v -0.008834 -0.008834 -0.0375
v -0.008834 -0.008834 -0.0375
v -0.010388 -0.006941 -0.0375
v -0.011543 -0.004781 -0.0375
v -0.012254 -0.002437 -0.0375
v -0.012254 -0.002437 -0.0375
v -0.008834 0.008834 -0.0375
v -0.008834 0.008834 -0.0375
v -0.006941 0.010388 -0.0375
v -0.006941 0.010388 -0.0375
v -0.006941 0.010388 -0.0375
v 0.002437 0.012254 -0.0375
v 0.006941 0.010388 -0.0375
v 0.006941 0.010388 -0.0375
v 0.008834 0.008834 -0.0375
v 0.012254 0.002437 -0.0375
v 0.012494 0 -0.0375
v 0.008834 -0.008834 -0.0375
v 0.006941 -0.010388 -0.0375
v 0.000514 -0.005466 -0.0005
v 0.000392 -0.005484 -0.001223
v 0.000207 -0.005496 -0.001127
v -0.002462 -0.004918 -0.0375
v -0.002462 -0.004918 -0.0375
v -0.002645 -0.004791 -0.0375
v -0.003748 -0.004025 -0.0375
v -0.003748 -0.004025 -0.0375
v -0.003934 -0.003794 -0.0375
v -0.00473 -0.002806 -0.0375
v -0.004872 -0.002463 -0.0375
v -0.005329 -0.00136 -0.0375
v -0.005329 -0.00136 -0.0375
v -0.005377 -0.000916 -0.0375
v -0.005219 0.001737 -0.0375
v -0.004952 0.00227 -0.0375
v -0.004518 0.003137 -0.0375
v -0.002105 0.005081 -0.0375
v -0.00131 0.005284 -0.0375
v -0.00131 0.005284 -0.0375
v -0.00131 0.005284 -0.0375
v -0.000588 0.005468 -0.0375
v 0.000977 0.005413 -0.0375
v 0.001897 0.005106 -0.0375
v 0.005187 0.001704 -0.0375
v 0.005187 0.001704 -0.0375
v 0.005329 0.00136 -0.0375
v 0.005329 0.00136 -0.0375
v 0.005465 9.9e-05 -0.0375
v 0.004518 -0.003137 -0.0375
v 0.003502 -0.004228 -0.0375
v 0.003061 -0.007391 -0.006681
v 0.003061 -0.007391 -0.006681
v 0.003696 -0.007878 -0.0062
v 0.003696 -0.007878 -0.0062
v 0.003855 -0.007495 -0.0062
v 0.003368 -0.00813 -0.0062
v 0.007391 -0.003061 -0.006681
v 0.008184 -0.003166 -0.0062
v 0.00813 -0.002755 -0.0062
v -0.003061 0.007391 -0.006681
v -0.003061 0.007391 -0.006681
v -0.003696 0.007878 -0.0062
v -0.003696 0.007878 -0.0062
v -0.003855 0.007495 -0.0062
v -0.003368 0.00813 -0.0062
v -0.007391 0.003061 -0.006681
v -0.008184 0.003166 -0.0062
v -0.00813 0.002755 -0.0062
v -0.007391 0.003061 -0.032319
v -0.007391 0.003061 -0.032319
v -0.007391 0.003061 -0.032319
v -0.007495 0.002268 -0.0328
v -0.007878 0.002427 -0.0328
v -0.007085 0.002322 -0.0328
v -0.008184 0.003166 -0.0328
v -0.00813 0.002755 -0.0328
v -0.00813 0.002755 -0.0328
v -0.003061 0.007391 -0.032319
v -0.003061 0.007391 -0.032319
v -0.003061 0.007391 -0.032319
v -0.003061 0.007391 -0.032319
v -0.003166 0.006598 -0.0328
v -0.003166 0.006598 -0.0328
v -0.003548 0.006756 -0.0328
v -0.002755 0.006652 -0.0328
v -0.002755 0.006652 -0.0328
v -0.003696 0.007878 -0.0328
v -0.003368 0.00813 -0.0328
v -0.002427 0.006904 -0.0328
v 0.003061 0.007391 -0.032319
v 0.003061 0.007391 -0.032319
v 0.003061 0.007391 -0.032319
v 0.003061 0.007391 -0.032319
v 0.003368 0.006652 -0.0328
v 0.002268 0.007495 -0.0328
v 0.002427 0.007878 -0.0328
v 0.002322 0.007085 -0.0328
v 0.002755 0.00813 -0.0328
v 0.003855 0.007287 -0.0328
v 0.003696 0.006904 -0.0328
v 0.003801 0.007697 -0.0328
v 0.007391 0.003061 -0.032319
v 0.007391 0.003061 -0.032319
v 0.007391 0.003061 -0.032319
v 0.007391 0.003061 -0.032319
v 0.007391 0.003061 -0.032319
v 0.007287 0.002268 -0.0328
v 0.007287 0.002268 -0.0328
v 0.006904 0.002427 -0.0328
v 0.006904 0.002427 -0.0328
v 0.007697 0.002322 -0.0328
v 0.006652 0.002755 -0.0328
v 0.007495 0.003855 -0.0328
v 0.007085 0.003801 -0.0328
v 0.008184 0.002957 -0.0328
v 0.00813 0.003368 -0.0328
v 0.007391 -0.003061 -0.032319
v 0.007391 -0.003061 -0.032319
v 0.007391 -0.003061 -0.032319
v 0.007495 -0.002268 -0.0328
v 0.007878 -0.002427 -0.0328
v 0.007085 -0.002322 -0.0328
v 0.008184 -0.003166 -0.0328
v 0.00813 -0.002755 -0.0328
v 0.00813 -0.002755 -0.0328
v 0.003061 -0.007391 -0.032319
v 0.003061 -0.007391 -0.032319
v 0.003061 -0.007391 -0.032319
v 0.003061 -0.007391 -0.032319
v 0.003368 -0.00813 -0.0328
v 0.002427 -0.006904 -0.0328
v 0.003166 -0.006598 -0.0328
v 0.003166 -0.006598 -0.0328
v 0.003548 -0.006756 -0.0328
v 0.002755 -0.006652 -0.0328
v 0.002755 -0.006652 -0.0328
v 0.003696 -0.007878 -0.0328
v -0.003061 -0.007391 -0.032319
v -0.003061 -0.007391 -0.032319
v -0.003061 -0.007391 -0.032319
v -0.003061 -0.007391 -0.032319
v -0.002755 -0.00813 -0.0328
v -0.003855 -0.007287 -0.0328
v -0.003696 -0.006904 -0.0328
v -0.003801 -0.007697 -0.0328
v -0.003368 -0.006652 -0.0328
v -0.002268 -0.007495 -0.0328
v -0.002427 -0.007878 -0.0328
v -0.002322 -0.007085 -0.0328
v -0.007391 -0.003061 -0.032319
v -0.007391 -0.003061 -0.032319
v -0.007391 -0.003061 -0.032319
v -0.007391 -0.003061 -0.032319
v -0.007391 -0.003061 -0.032319
v -0.007495 -0.003855 -0.0328
v -0.007085 -0.003801 -0.0328
v -0.008184 -0.002957 -0.0328
v -0.00813 -0.003368 -0.0328
v -0.007287 -0.002268 -0.0328
v -0.007287 -0.002268 -0.0328
v -0.006904 -0.002427 -0.0328
v -0.006904 -0.002427 -0.0328
v -0.007697 -0.002322 -0.0328
v -0.006652 -0.002755 -0.0328
v -0.007713 -0.0076475 -0.034
v -0.0075975 -0.00653625 -0.034
v -0.00650325 -0.00713013 -0.034
v -0.007024 -0.007118 -0.034
v 0.007713 -0.006589 -0.034
v 0.0075975 -0.0077005 -0.034
v 0.00650325 -0.00710663 -0.034
v 0.007024 -0.007118 -0.034
v -0.0078855 -0.007232 -0.004
v -0.0070175 -0.00793575 -0.004
v -0.006664 -0.00674212 -0.004
v -0.007024 -0.007118 -0.004
v 0.0070295 -0.00793575 -0.004
v 0.007383 -0.00674212 -0.004
v 0.0061615 -0.007232 -0.004
v 0.007024 -0.007118 -0.004
f 2 3 4
f 1 9 10
f 7 5 6
f 11 12 16
f 15 11 16
f 19 13 15
f 15 12 11
f 13 19 20
f 15 13 14
f 13 16 14
f 16 13 20
f 29 32 58
f 58 31 29
f 31 32 29
f 34 84 33
f 33 84 21
f 21 34 33
f 111 112 110
f 142 143 145
f 146 144 141
f 148 149 147
f 151 153 154
f 155 152 150
f 157 158 156
f 164 162 160
f 167 165 161
f 163 166 159
f 170 173 174
f 175 172 171
f 177 178 169
f 179 176 168
f 187 185 180
f 186 188 181
f 191 189 182
f 190 184 183
f 192 197 199
f 201 198 196
f 200 202 195
f 204 203 194
f 206 205 193
f 212 210 209
f 214 213 207
f 211 215 208
f 219 222 224
f 226 223 218
f 221 225 216
f 227 220 217
f 235 233 228
f 234 236 231
f 239 237 229
f 238 232 230
f 246 245 241
f 248 247 242
f 240 250 251
f 253 249 243
f 252 254 244
f 18 8 17
f 83 102 80
f 105 79 103
f 104 78 82
f 104 82 81
f 106 77 76
f 107 75 74
f 109 73 71
f 108 72 70
f 68 85 86
f 68 86 69
f 88 23 22
f 87 24 67
f 93 64 91
f 92 65 62
f 90 63 89
f 89 63 66
f 96 35 37
f 95 36 94
f 30 98 60
f 61 97 99
f 59 100 25
f 101 27 26
f 43 44 135
f 133 132 42
f 39 131 128
f 38 130 41
f 40 129 127
f 126 125 28
f 28 125 124
f 55 123 122
f 121 120 56
f 57 119 51
f 53 118 117
f 52 116 54
f 49 115 114
f 50 113 48
f 47 140 139
f 45 138 137
f 46 136 134
f 258 256 257
f 257 255 258
f 258 255 256
f 262 260 261
f 261 259 262
f 262 259 260
f 266 264 265
f 265 263 266
f 266 263 264
f 270 267 268
f 268 269 270
f 270 269 267
