v -0.384246 -0.0669295 0.200206
v -0.388608 0.0653514 0.194603
v -0.389089 -0.0636928 0.19365
v -0.37469 0.0663721 0.196247
v -0.360724 0.0686207 0.169894
v -0.374309 0.0666672 0.194982
v -0.37595 0.0673143 0.195495
v -0.362775 0.0687472 0.172681
v -0.338246 -0.0675097 0.0943408
v -0.386652 -0.0641226 0.188956
v -0.387032 -0.064994 0.190318
v -0.38674 -0.0664275 0.191154
v -0.341326 0.0668396 0.0960792
v -0.385402 -0.067074 0.192623
v -0.358355 0.0687662 0.165947
v -0.334442 0.0710802 0.115783
v -0.352253 0.0698013 0.149952
v -0.36529 0.0687173 0.17582
v -0.375759 0.0679025 0.192306
v -0.373875 0.0681429 0.188185
v -0.385402 0.0670888 0.192612
v -0.38674 0.0664283 0.191154
v -0.339231 -0.0686902 0.096678
v -0.385977 -0.066798 0.191928
v -0.337585 -0.0697939 0.0943403
v -0.335651 -0.0710373 0.0943408
v -0.339224 0.068691 0.0966673
v -0.337289 0.0700474 0.0943365
v -0.33667 -0.0710233 0.0971498
v -0.336928 -0.0710795 0.0987258
v -0.383074 -0.067448 0.190947
v -0.323776 -0.071902 0.0954603
v -0.383555 0.0405046 0.20527
v -0.328566 0.0717268 0.0978788
v -0.336752 0.0710662 0.118357
v -0.337112 0.0710662 0.118357
v -0.354603 0.0697029 0.152332
v -0.367639 0.068691 0.177238
v -0.367612 0.068691 0.177238
v -0.375926 0.0680445 0.187852
v -0.385142 0.0671599 0.193682
v -0.38545 0.0667656 0.190318
v -0.336922 0.0710802 0.0987151
v -0.336385 0.0709257 0.0954987
v -0.334727 -0.0712414 0.0943408
v -0.380661 -0.0676643 0.187852
v -0.333483 -0.0713883 0.095485
v -0.320154 0.067531 0.0947257
v -0.328566 0.0717689 0.0954987
v -0.337234 0.0710802 0.116834
v -0.33093 0.0715862 0.100237
v -0.378647 0.0677936 0.194687
v -0.380661 0.067665 0.187852
v -0.332153 0.0714878 0.0943408
v -0.333301 0.0713894 0.0943408
v -0.335039 0.071181 0.0943408
v -0.328566 0.0717689 0.0943408
f 33 4 7
f 33 3 1
f 4 33 15
f 4 15 5
f 4 5 6
f 4 6 7
f 7 8 18
f 7 18 19
f 7 19 52
f 7 52 33
f 3 33 9
f 3 9 10
f 3 10 11
f 3 11 12
f 3 12 1
f 33 13 9
f 15 8 5
f 5 8 6
f 6 8 7
f 8 15 16
f 8 16 17
f 8 17 18
f 19 20 52
f 52 41 33
f 41 21 2
f 41 2 33
f 2 13 33
f 9 25 23
f 9 23 10
f 9 13 28
f 9 28 56
f 9 56 55
f 9 55 54
f 9 54 57
f 9 57 48
f 9 48 33
f 9 33 32
f 9 32 45
f 9 45 26
f 9 26 25
f 10 23 11
f 11 23 12
f 12 24 1
f 12 23 25
f 12 25 26
f 12 26 24
f 1 24 14
f 13 27 28
f 14 24 26
f 14 26 29
f 14 29 30
f 14 30 31
f 14 31 1
f 1 32 33
f 33 16 15
f 16 48 34
f 16 34 35
f 16 35 17
f 16 33 48
f 17 35 36
f 17 36 37
f 17 37 38
f 17 38 39
f 17 39 18
f 18 39 19
f 19 39 20
f 20 39 38
f 20 38 52
f 21 42 22
f 21 22 2
f 21 41 43
f 21 43 56
f 21 56 44
f 21 44 42
f 22 42 44
f 22 44 28
f 22 28 27
f 22 27 2
f 2 27 13
f 26 45 29
f 29 45 30
f 30 45 47
f 30 47 46
f 30 46 31
f 31 46 1
f 34 48 49
f 34 49 36
f 34 36 35
f 36 49 50
f 36 50 37
f 37 50 38
f 38 40 52
f 38 50 51
f 38 51 40
f 52 53 41
f 40 51 54
f 40 54 53
f 40 53 52
f 41 53 43
f 43 53 55
f 43 55 56
f 44 56 28
f 45 32 47
f 46 47 1
f 47 32 1
f 48 57 49
f 49 57 51
f 49 51 50
f 51 57 54
f 53 54 55
