v 0.190858 0.016175 0.001819
v 0.189559 0.015311 -0.002237
v 0.188831 0.014444 -0.001819
v 0.191271 0.01645 -0.001324
v 0.191619 0.016681 -0.000237
v 0.191619 0.016681 -0.000237
v 0.191619 0.016681 -0.000237
v 0.191468 0.016581 0.000914
v 0.191468 0.016581 0.000914
v 0.191644 0.016316 0.000914
v 0.191211 0.015645 0.001819
v 0.191821 0.016051 0.000914
v 0.191972 0.016151 -0.000237
v 0.191972 0.016151 -0.000237
v 0.191972 0.016151 -0.000237
v 0.191624 0.01592 -0.001324
v 0.191624 0.01592 -0.001324
v 0.189912 0.014781 -0.002237
f 1 10 11
f 2 3 18
f 4 17 6
f 7 16 14
f 5 13 8
f 9 15 12
