v 0.035972 0.014487 0.01463
v 0.035969 0.01467 0.014179
v 0.035963 0.014911 0.01333
v 0.035962 0.014922 0.009358
v 0.035972 0.011928 0.01351
v 0.035972 0.012131 0.013006
v 0.035972 0.012215 0.012337
v 0.035972 0.012215 0.010343
v 0.035972 0.012046 0.009524
v 0.035554 0.029714 0.009829
v 0.035554 0.029714 0.009829
v 0.035554 0.029714 0.009829
v 0.035531 0.029997 0.014028
v 0.035531 0.029997 0.014028
v 0.035517 0.030176 0.014484
v 0.035282 0.033123 0.017529
v 0.035167 0.034552 0.018034
v 0.035067 0.035806 0.018242
v 0.034909 0.037779 0.018242
v 0.034848 0.038541 0.018131
v 0.034848 0.038541 0.018131
v 0.034788 0.0393 0.017971
v 0.034634 0.04122 0.017135
v 0.034538 0.042423 0.016102
v 0.034513 0.042738 0.015644
v 0.034451 0.043519 0.014179
v 0.034451 0.043519 0.014179
v 0.03444 0.043656 0.013801
v 0.034424 0.043852 0.00991
v 0.03443 0.043771 0.009358
v 0.034444 0.043598 0.008663
v 0.035318 0.032663 0.005346
v 0.035362 0.032115 0.00571
v 0.035425 0.031326 0.006389
v 0.035528 0.030045 0.008529
v 0.035528 0.030045 0.008529
v 0.035542 0.029861 0.009057
v 0.035542 0.029861 0.009057
v 0.035331 0.032508 0.010358
v 0.035317 0.032679 0.013053
v 0.035205 0.034083 0.01523
v 0.035161 0.034628 0.015554
v 0.03507 0.035765 0.015885
v 0.035034 0.036223 0.015962
v 0.034703 0.040357 0.014357
v 0.034703 0.040357 0.014357
v 0.034682 0.040627 0.013906
v 0.034653 0.040981 0.013006
v 0.034653 0.040981 0.013006
v 0.034653 0.040981 0.013006
v 0.034647 0.041065 0.012337
v 0.034647 0.041065 0.010343
v 0.034647 0.041065 0.010343
v 0.03466 0.040896 0.009524
v 0.034679 0.040667 0.008902
v 0.034699 0.040415 0.008417
v 0.035255 0.033457 0.007987
v 0.035288 0.03304 0.008581
v 0.035309 0.032783 0.009171
v 0.035309 0.032783 0.009171
v 0.035323 0.032602 0.009757
v 0.035323 0.032602 0.009757
v 0.035857 0.01889 0.013842
v 0.035847 0.019281 0.014451
v 0.035812 0.020582 0.015554
v 0.035799 0.021083 0.015745
v 0.035727 0.023795 0.015868
v 0.035713 0.024315 0.015728
v 0.035713 0.024315 0.015728
v 0.035699 0.02484 0.015564
v 0.035643 0.026946 0.012337
v 0.035643 0.026946 0.010343
v 0.035643 0.026946 0.010343
v 0.035647 0.026777 0.009524
v 0.035647 0.026777 0.009524
v 0.035854 0.018993 0.008581
v 0.035861 0.018736 0.009171
v 0.035866 0.018555 0.009757
v 0.035563 0.029598 0.009043
v 0.035578 0.029361 0.00835
v 0.035588 0.02902 0.007633
v 0.035599 0.028593 0.006981
v 0.035645 0.026871 0.005438
v 0.035867 0.018505 0.00606
v 0.035928 0.016226 0.004687
v 0.035935 0.015943 0.004842
v 0.03594 0.015754 0.005085
v 0.035885 0.01783 0.022829
v 0.035876 0.018175 0.022685
v 0.035876 0.018175 0.022685
v 0.035867 0.018523 0.016658
v 0.03585 0.019169 0.017209
v 0.035836 0.019691 0.017507
v 0.035684 0.025378 0.017923
v 0.035657 0.026407 0.017505
v 0.035639 0.027092 0.017137
v 0.035577 0.029424 0.013983
v 0.035577 0.029424 0.013983
v 0.034191 0.045605 0.015655
v 0.034191 0.045605 0.009081
v 0.03445 0.043529 0.01569
v 0.034508 0.042807 0.016016
v 0.034514 0.042722 0.016162
v 0.034514 0.042722 0.017547
v 0.034514 0.042722 0.017547
v 0.034492 0.042997 0.01786
v 0.034477 0.043187 0.017953
v 0.03445 0.043528 0.018021
v 0.034197 0.045566 0.018021
v 0.034191 0.045606 0.018057
v 0.034191 0.045606 0.022059
v 0.034177 0.045698 0.022368
v 0.033854 0.047853 0.02283
v 0.033827 0.048035 0.022753
v 0.033759 0.04849 0.022277
v 0.033759 0.04849 0.018058
v 0.033753 0.04853 0.018022
v 0.033753 0.04853 0.018022
v 0.033753 0.04853 0.018022
v 0.033064 0.052171 0.018022
v 0.032963 0.052691 0.017875
v 0.032887 0.05307 0.017319
v 0.03288 0.05307 0.016381
v 0.033046 0.052174 0.015689
v 0.033046 0.052174 0.015689
v 0.033743 0.048532 0.015689
v 0.033743 0.048532 0.015689
v 0.033751 0.048489 0.015654
v 0.033751 0.048489 0.015654
v 0.033698 0.048489 0.008491
v 0.033698 0.048489 0.008491
v 0.033698 0.048489 0.008491
v 0.033698 0.048489 0.008491
v 0.033656 0.04869 0.008037
v 0.033656 0.04869 0.008037
v 0.033656 0.04869 0.008037
v 0.033656 0.04869 0.008037
v 0.033624 0.048847 0.007742
v 0.033624 0.048847 0.007742
v 0.033588 0.049021 0.007475
v 0.033588 0.049021 0.007475
v 0.033528 0.049329 0.007278
v 0.033528 0.049329 0.007278
v 0.033528 0.049329 0.007278
v 0.033528 0.049329 0.007278
v 0.03345 0.049727 0.007104
v 0.032747 0.053329 0.005239
v 0.032779 0.053148 0.004927
v 0.0328 0.053036 0.004832
v 0.032849 0.052772 0.004688
v 0.033671 0.048489 0.004928
v 0.033762 0.048021 0.005084
v 0.033853 0.047553 0.005293
v 0.033853 0.047553 0.005293
v 0.033905 0.047291 0.005457
v 0.034036 0.046625 0.006023
v 0.034078 0.046357 0.006422
v 0.034116 0.046104 0.00687
v 0.034116 0.046104 0.00687
v 0.034116 0.046104 0.00687
v 0.034147 0.045898 0.007391
v 0.034147 0.045898 0.007391
v 0.034168 0.045755 0.007951
v 0.034168 0.045755 0.007951
v 0.034184 0.04565 0.008653
v 0.034184 0.04565 0.008653
v 0.034184 0.04565 0.008653
v 0.03604 0.014748 0.008663
v 0.036045 0.014544 0.008105
v 0.036045 0.012047 0.009524
v 0.035617 0.029835 0.01338
v 0.035617 0.029835 0.01338
v 0.035604 0.030003 0.014028
v 0.035604 0.030003 0.014028
v 0.035604 0.030003 0.014028
v 0.035589 0.030182 0.014484
v 0.035408 0.032452 0.017165
v 0.035354 0.033128 0.017529
v 0.03524 0.034558 0.018034
v 0.035181 0.03529 0.018171
v 0.035139 0.035812 0.018242
v 0.034982 0.037785 0.018242
v 0.034921 0.038547 0.018131
v 0.034921 0.038547 0.018131
v 0.03486 0.039306 0.017971
v 0.03486 0.039306 0.017971
v 0.03461 0.042429 0.016102
v 0.034585 0.042744 0.015644
v 0.034559 0.043071 0.015169
v 0.034537 0.043342 0.01463
v 0.034537 0.043342 0.01463
v 0.034523 0.043525 0.014179
v 0.034503 0.043777 0.009358
v 0.034517 0.043603 0.008663
v 0.034858 0.039327 0.004704
v 0.035434 0.032121 0.00571
v 0.035497 0.031332 0.006389
v 0.035573 0.030382 0.007733
v 0.0356 0.030051 0.008529
v 0.035614 0.029867 0.009057
v 0.035389 0.032685 0.013053
v 0.035389 0.032685 0.013053
v 0.035277 0.034089 0.01523
v 0.035143 0.035771 0.015885
v 0.035106 0.036229 0.015962
v 0.034776 0.040363 0.014357
v 0.034776 0.040363 0.014357
v 0.034754 0.040633 0.013906
v 0.034754 0.040633 0.013906
v 0.034754 0.040633 0.013906
v 0.034726 0.040987 0.013006
v 0.034719 0.04107 0.012337
v 0.034719 0.04107 0.012337
v 0.034719 0.04107 0.010343
v 0.034751 0.040673 0.008902
v 0.034888 0.038952 0.007101
v 0.034933 0.03839 0.006916
v 0.035327 0.033463 0.007987
v 0.03536 0.033045 0.008581
v 0.03536 0.033045 0.008581
v 0.035381 0.032789 0.009171
v 0.035381 0.032789 0.009171
v 0.035395 0.032608 0.009757
v 0.035871 0.021085 0.015745
v 0.035854 0.02172 0.015885
v 0.035785 0.024317 0.015728
v 0.035727 0.02651 0.013906
v 0.035717 0.026864 0.013006
v 0.035715 0.026948 0.012337
v 0.035715 0.026948 0.010343
v 0.03572 0.026779 0.009524
v 0.035726 0.02655 0.008902
v 0.035732 0.026298 0.008417
v 0.035804 0.023589 0.006743
v 0.035867 0.02125 0.006892
v 0.03588 0.020728 0.007028
v 0.035915 0.019412 0.007987
v 0.035927 0.018995 0.008581
v 0.03566 0.029022 0.007633
v 0.035671 0.028595 0.006981
v 0.035697 0.027636 0.005958
v 0.035717 0.026873 0.005438
v 0.035802 0.023675 0.004439
v 0.035822 0.022945 0.004391
v 0.035892 0.020308 0.004828
v 0.03594 0.018507 0.00606
v 0.036015 0.015669 0.00525
v 0.036015 0.015669 0.022265
v 0.036015 0.015669 0.022265
v 0.036012 0.015771 0.022451
v 0.036003 0.016133 0.022759
v 0.035958 0.017832 0.022829
v 0.035958 0.017832 0.022829
v 0.035958 0.017832 0.022829
v 0.035958 0.017832 0.022829
v 0.035948 0.018176 0.022685
v 0.035948 0.018176 0.022685
v 0.035945 0.0183 0.022583
v 0.035941 0.018472 0.022353
v 0.03589 0.020371 0.017815
v 0.035873 0.021017 0.018032
v 0.035873 0.021017 0.018032
v 0.035852 0.021806 0.018183
v 0.035711 0.027094 0.017137
v 0.035668 0.028713 0.015526
v 0.035661 0.02898 0.015156
v 0.035655 0.02922 0.014646
v 0.035649 0.029427 0.013982
v 0.035649 0.029427 0.013982
v 0.035637 0.029586 0.013531
v 0.03594 0.018473 0.005973
v 0.034262 0.045617 0.009081
v 0.034586 0.042727 0.017547
v 0.034564 0.043003 0.01786
v 0.034549 0.043193 0.017953
v 0.034522 0.043535 0.018021
v 0.034262 0.045616 0.022059
v 0.034262 0.045616 0.022059
v 0.034249 0.045708 0.022368
v 0.034249 0.045708 0.022368
v 0.034236 0.045795 0.022517
v 0.034153 0.046348 0.02283
v 0.033926 0.047864 0.02283
v 0.033926 0.047864 0.02283
v 0.033899 0.048046 0.022753
v 0.033831 0.048501 0.022277
v 0.033831 0.048501 0.018058
v 0.033831 0.048501 0.018058
v 0.033824 0.048542 0.018022
v 0.033035 0.052705 0.017874
v 0.033011 0.052824 0.017773
v 0.032951 0.053084 0.01638
v 0.032982 0.052908 0.016011
v 0.033117 0.052188 0.015688
v 0.033823 0.048501 0.015654
v 0.033769 0.048502 0.008491
v 0.033769 0.048502 0.008491
v 0.033769 0.048502 0.008491
v 0.033727 0.048703 0.008036
v 0.033695 0.048861 0.007742
v 0.033659 0.049035 0.007474
v 0.033599 0.049342 0.007277
v 0.033599 0.049342 0.007277
v 0.033522 0.04974 0.007103
v 0.033522 0.04974 0.007103
v 0.032957 0.052683 0.006946
v 0.032884 0.053058 0.006789
v 0.032827 0.053343 0.006394
v 0.032818 0.053343 0.005238
v 0.032818 0.053343 0.005238
v 0.03285 0.053162 0.004927
v 0.032871 0.05305 0.004832
v 0.032871 0.05305 0.004832
v 0.033833 0.048034 0.005083
v 0.033924 0.047566 0.005292
v 0.033924 0.047566 0.005292
v 0.034107 0.046638 0.006023
v 0.03415 0.04637 0.006422
v 0.034218 0.04591 0.007392
v 0.03424 0.045768 0.007952
v 0.03424 0.045768 0.007952
v 0.034256 0.045662 0.008654
f 9 4 8
f 1 5 2
f 3 6 7
f 39 11 61
f 58 34 57
f 52 30 29
f 27 49 28
f 15 13 40
f 37 35 62
f 18 43 44
f 16 41 42
f 85 87 86
f 78 84 77
f 93 92 65
f 93 65 66
f 91 63 64
f 69 70 94
f 73 74 12
f 75 80 79
f 117 127 128
f 100 132 165
f 166 133 163
f 162 134 159
f 160 135 157
f 152 142 151
f 103 101 102
f 107 108 104
f 109 110 99
f 114 115 113
f 120 124 126
f 125 122 123
f 168 169 170
f 219 218 197
f 216 195 217
f 207 190 210
f 173 202 171
f 176 201 174
f 181 205 204
f 178 203 177
f 246 271 247
f 259 249 253
f 255 257 258
f 248 250 251
f 236 235 245
f 234 243 244
f 232 240 233
f 261 224 260
f 262 263 225
f 265 266 227
f 82 239 81
f 90 254 88
f 98 270 268
f 17 180 179
f 19 183 182
f 20 186 184
f 25 189 188
f 10 200 38
f 46 208 47
f 50 213 51
f 67 226 68
f 71 228 229
f 59 220 222
f 76 237 238
f 322 320 298
f 312 311 310
f 307 306 308
f 275 273 276
f 295 272 296
f 285 284 286
f 282 278 283
f 294 293 292
f 119 287 289
f 129 297 130
f 131 299 136
f 137 300 138
f 139 301 141
f 140 302 145
f 144 304 146
f 153 314 316
f 158 319 161
f 105 274 106
f 83 242 241
f 89 256 252
f 95 96 264
f 97 269 267
f 14 175 172
f 21 22 185
f 23 24 187
f 26 192 191
f 31 194 193
f 32 33 196
f 36 199 198
f 45 206 209
f 48 211 212
f 54 53 214
f 56 55 215
f 72 230 231
f 60 221 223
f 111 277 280
f 112 279 281
f 118 116 288
f 121 290 291
f 143 303 305
f 148 147 309
f 150 149 313
f 155 154 315
f 156 317 318
f 167 164 321
