v -0.016135 0.016135 0.01925
v -0.016636 -0.015589 0.02325
v -0.017486 -0.014375 0.02325
v -0.018496 -0.011601 0.02325
v -0.010125 -0.018625 0.02325
v -0.018112 0.013032 0.02325
v -0.017486 0.014375 0.02325
v -0.017174 0.014875 0.02225
v -0.016113 0.016113 0.02325
v 0.03125 0.018357 0.02425
v 0.03125 -0.018357 0.02425
v -0.016526 -0.011254 0.02525
v -0.015754 -0.013375 0.02525
v -0.015104 -0.014303 0.02525
v 0.030633 0.017171 0.025174
v 0.03077 -0.017375 0.025104
v 0.03077 -0.017375 0.025104
v 0.030923 -0.017611 0.02499
v 0.030956 0.017666 0.024956
v 0.030628 -0.017167 0.025161
v 0.030628 -0.017167 0.025161
v 0.030628 -0.017167 0.025161
v 0.030635 0.017175 0.025173
v 0.03093 -0.017624 0.024981
v 0.030952 -0.017663 0.024953
v 0.030952 -0.017663 0.024953
v 0.030952 -0.017663 0.024953
v 0.0312 0.018133 0.024563
v -0.010125 0.018338 0.02424
v -0.018399 0.011584 0.023868
v -0.015526 0.016561 0.023868
v -0.017401 0.014326 0.023868
v -0.017401 0.014326 0.023868
v -0.014184 0.017155 0.024426
v -0.015343 0.016344 0.024426
v -0.016344 0.015343 0.024426
v -0.017155 0.014184 0.024426
v -0.017753 0.012901 0.024426
v -0.017753 0.012901 0.024426
v -0.01812 0.011535 0.024426
v -0.016772 0.013963 0.024868
v -0.017338 0.01275 0.024868
v -0.011584 -0.018399 0.023868
v -0.018399 -0.011584 0.023868
v -0.01802 -0.012999 0.023868
v -0.01802 -0.012999 0.023868
v -0.017401 -0.014326 0.023868
v -0.017401 -0.014326 0.023868
v -0.016561 -0.015526 0.023868
v -0.014326 -0.017401 0.023868
v -0.012999 -0.01802 0.023868
v -0.014184 -0.017155 0.024426
v -0.012901 -0.017753 0.024426
v -0.011535 -0.01812 0.024426
v -0.011535 -0.01812 0.024426
v -0.013963 -0.016772 0.024868
v -0.01275 -0.017338 0.024868
v -0.01275 -0.017338 0.024868
v -0.011458 -0.017684 0.024868
v -0.017135 -0.011361 0.025152
v -0.010125 -0.018527 0.023868
v -0.010125 -0.018527 0.023868
v -0.010125 -0.018338 0.02424
v -0.010125 -0.018338 0.02424
v -0.010125 -0.018243 0.024426
v -0.010125 -0.018243 0.024426
v -0.010125 -0.018243 0.024426
v -0.010125 -0.017801 0.024868
v -0.010125 -0.017615 0.024963
v -0.010125 -0.017615 0.024963
v -0.010125 -0.017615 0.024963
v -0.016814 -0.012559 0.025152
v -0.016289 -0.013684 0.025152
v -0.015578 -0.0147 0.025152
v -0.013684 -0.016289 0.025152
v -0.010125 -0.017243 0.025152
f 8 9 1
f 17 19 22
f 15 20 23
f 29 28 10
f 32 7 6
f 34 31 35
f 36 33 37
f 39 30 40
f 41 38 42
f 44 4 46
f 3 48 45
f 2 49 47
f 52 50 51
f 57 53 55
f 5 62 43
f 54 65 59
f 75 56 58
f 12 60 72
f 13 73 74
f 13 74 14
f 18 16 70
f 69 21 76
f 71 26 24
f 63 27 67
f 66 25 68
f 61 11 64
