v -0.195584 -0.019319 -0.0065
v -0.188995 -0.014936 0.002056
v -0.189559 -0.015311 -0.002237
v -0.188654 -0.014709 -0.001819
v -0.188654 -0.014709 -0.001819
v -0.191271 -0.01645 -0.001324
v -0.191619 -0.016681 -0.000237
v -0.188241 -0.014434 0.001324
v -0.187893 -0.014203 0.000237
v -0.187893 -0.014203 0.000237
v -0.188044 -0.014303 -0.000914
v -0.188397 -0.013773 -0.000914
v -0.188246 -0.013673 0.000237
v -0.188246 -0.013673 0.000237
v -0.189007 -0.014179 -0.001819
v -0.189007 -0.014179 -0.001819
v -0.188594 -0.013904 0.001324
v -0.189348 -0.014406 0.002056
f 1 6 7
f 2 18 8
f 9 17 14
f 10 13 11
f 5 12 16
f 4 15 3
