v 0.015849 -0.019675 -0.013
v -0.019675 -0.019675 -0.013
v -0.019675 -0.019675 -0.013
v 0.019675 0.019675 -0.013
v 0.019675 -0.019675 -0.013
v 0.019675 -0.019675 -0.013
v -0.023675 -0.019675 -0.009
v 0.023675 0.019675 -0.009
v -0.023339 -0.021193 -0.004
v -0.023339 -0.021193 -0.009
v -0.023539 -0.02071 -0.009
v -0.023139 -0.021675 -0.009
v -0.022503 -0.022503 -0.009
v -0.022503 -0.022503 -0.009
v -0.021675 -0.023139 -0.009
v 0.023339 -0.021193 -0.004
v 0.021675 -0.023139 -0.009
v 0.021675 -0.023139 -0.009
v 0.022503 -0.022503 -0.009
v 0.022503 -0.022503 -0.009
v 0.023139 -0.021675 -0.009
v 0.023139 -0.021675 -0.009
v 0.023339 -0.021193 -0.009
v 0.023339 0.021193 -0.004
v 0.023339 0.021193 -0.009
v 0.023539 0.02071 -0.009
v 0.023139 0.021675 -0.009
v 0.022503 0.022503 -0.009
v 0.022503 0.022503 -0.009
v 0.021675 0.023139 -0.009
v 0.021193 0.023339 -0.009
v 0.02071 0.023539 -0.009
v 0.02071 0.023539 -0.009
v -0.023339 0.021193 -0.004
v 0.023407 -0.020675 -0.002965
v 0.023021 -0.020572 -0.002
v 0.023407 -0.020675 -0.002965
v 0.023021 -0.021607 -0.002965
v 0.022675 -0.021407 -0.002
v -0.022407 -0.022407 -0.002965
v -0.023021 -0.021607 -0.002965
v -0.023407 -0.020675 -0.002965
v -0.022124 -0.022124 -0.002
v -0.022675 -0.021407 -0.002
v 0.022407 0.022407 -0.002965
v 0.023021 0.021607 -0.002965
v 0.023407 0.020675 -0.002965
v 0.022124 0.022124 -0.002
v 0.022675 0.021407 -0.002
v -0.021607 0.023021 -0.002965
v -0.023407 0.020675 -0.002965
v -0.020572 0.023021 -0.002
v -0.023021 0.020572 -0.002
v -0.023407 0.020675 -0.002965
v -0.023021 0.021607 -0.002965
v -0.022675 0.021407 -0.002
v -0.021407 0.022675 -0.002
v 0.019675 0.021652 -0.012421
v 0.019675 0.022075 -0.0122
v 0.019675 0.022075 -0.0122
v 0.019675 0.022475 -0.0118
v 0.019675 0.023099 -0.010979
v 0.019675 0.023456 -0.010305
v 0.019675 0.023456 -0.010305
v 0.019675 0.023502 -0.010029
v 0.019675 0.023502 -0.010029
v -0.022407 0.022407 -0.010035
v -0.021607 0.023021 -0.010035
v -0.022124 0.022124 -0.011
v -0.022124 0.022124 -0.011
v -0.022407 0.022407 -0.010035
v -0.022675 0.021407 -0.011
v 0.021607 0.023021 -0.010035
v 0.021607 0.023021 -0.010035
v 0.023407 0.020675 -0.010035
v 0.023407 0.020675 -0.010035
v 0.020675 0.019943 -0.012864
v 0.020675 0.019943 -0.012864
v 0.019943 0.020675 -0.012864
v 0.020193 0.021607 -0.012464
v 0.020407 0.022407 -0.011828
v 0.020407 0.022407 -0.011828
v 0.020407 0.022407 -0.011828
v 0.020572 0.023021 -0.011
v 0.021193 0.019675 -0.012664
v 0.021607 0.020193 -0.012464
v 0.021607 0.020193 -0.012464
v 0.021607 0.020193 -0.012464
v 0.022503 0.019675 -0.011828
v 0.022407 0.020407 -0.011828
v 0.022407 0.020407 -0.011828
v 0.022407 0.020407 -0.011828
v 0.023021 0.020572 -0.011
v 0.023021 0.020572 -0.011
v 0.023339 0.019675 -0.010518
v 0.023539 0.019675 -0.010035
v 0.023539 0.019675 -0.010035
v 0.023021 0.021607 -0.010035
v 0.022675 0.021407 -0.011
v 0.022124 0.021089 -0.011828
v 0.022124 0.021089 -0.011828
v 0.022124 0.021089 -0.011828
v 0.022124 0.021089 -0.011828
v 0.021407 0.020675 -0.012464
v 0.021407 0.020675 -0.012464
v 0.021407 0.020675 -0.012464
v 0.020572 0.020193 -0.012864
v 0.020572 0.020193 -0.012864
v 0.020407 0.020407 -0.012864
v 0.020407 0.020407 -0.012864
v 0.020407 0.020407 -0.012864
v 0.021089 0.021089 -0.012464
v 0.021089 0.021089 -0.012464
v 0.021089 0.021089 -0.012464
v 0.021675 0.021675 -0.011828
v 0.021675 0.021675 -0.011828
v 0.022124 0.022124 -0.011
v 0.022407 0.022407 -0.010035
v 0.021407 0.022675 -0.011
v 0.021407 0.022675 -0.011
v 0.021089 0.022124 -0.011828
v 0.021089 0.022124 -0.011828
v 0.021089 0.022124 -0.011828
v 0.020675 0.021407 -0.012464
v 0.020675 0.021407 -0.012464
v 0.020675 0.021407 -0.012464
v 0.020193 0.020572 -0.012864
v 0.020193 0.020572 -0.012864
v 0.020193 0.020572 -0.012864
v 0.020675 0.023407 -0.010035
v 0.020675 0.023407 -0.010035
v 0.020675 0.023407 -0.010035
v -0.023539 -0.019675 -0.010035
v -0.023539 -0.019675 -0.010035
v -0.023339 -0.019675 -0.010518
v -0.022503 -0.019675 -0.011828
v -0.021193 -0.019675 -0.012664
v 0.023539 -0.019675 -0.010035
v 0.023339 -0.019675 -0.010518
v 0.023139 -0.019675 -0.011
v 0.022503 -0.019675 -0.011828
v 0.022503 -0.019675 -0.011828
v 0.021675 -0.019675 -0.012464
v 0.021193 -0.019675 -0.012664
v 0.02071 -0.019675 -0.012864
v 0.02071 -0.019675 -0.012864
v 0.02071 -0.019675 -0.012864
v -0.021607 -0.023021 -0.010035
v -0.021607 -0.023021 -0.010035
v -0.023407 -0.020675 -0.010035
v -0.023407 -0.020675 -0.010035
v -0.020675 -0.019943 -0.012864
v -0.020675 -0.019943 -0.012864
v -0.019675 -0.02071 -0.012864
v -0.019675 -0.02071 -0.012864
v -0.019675 -0.02071 -0.012864
v -0.019675 -0.02071 -0.012864
v -0.019943 -0.020675 -0.012864
v -0.019943 -0.020675 -0.012864
v -0.019943 -0.020675 -0.012864
v -0.020193 -0.021607 -0.012464
v -0.020193 -0.021607 -0.012464
v -0.020193 -0.021607 -0.012464
v -0.020193 -0.021607 -0.012464
v -0.019675 -0.021193 -0.012664
v -0.019675 -0.021675 -0.012464
v -0.019675 -0.021675 -0.012464
v -0.020407 -0.022407 -0.011828
v -0.020407 -0.022407 -0.011828
v -0.020407 -0.022407 -0.011828
v -0.019675 -0.022503 -0.011828
v -0.021607 -0.020193 -0.012464
v -0.021607 -0.020193 -0.012464
v -0.021607 -0.020193 -0.012464
v -0.022407 -0.020407 -0.011828
v -0.022407 -0.020407 -0.011828
v -0.022407 -0.020407 -0.011828
v -0.023021 -0.020572 -0.011
v -0.023021 -0.020572 -0.011
v -0.023021 -0.021607 -0.010035
v -0.022675 -0.021407 -0.011
v -0.022124 -0.021089 -0.011828
v -0.022124 -0.021089 -0.011828
v -0.022124 -0.021089 -0.011828
v -0.022124 -0.021089 -0.011828
v -0.021407 -0.020675 -0.012464
v -0.021407 -0.020675 -0.012464
v -0.021407 -0.020675 -0.012464
v -0.020572 -0.020193 -0.012864
v -0.020572 -0.020193 -0.012864
v -0.020407 -0.020407 -0.012864
v -0.020407 -0.020407 -0.012864
v -0.020407 -0.020407 -0.012864
v -0.021089 -0.021089 -0.012464
v -0.021089 -0.021089 -0.012464
v -0.021089 -0.021089 -0.012464
v -0.021675 -0.021675 -0.011828
v -0.021675 -0.021675 -0.011828
v -0.022124 -0.022124 -0.011
v -0.022407 -0.022407 -0.010035
v -0.021407 -0.022675 -0.011
v -0.021407 -0.022675 -0.011
v -0.021089 -0.022124 -0.011828
v -0.021089 -0.022124 -0.011828
v -0.021089 -0.022124 -0.011828
v -0.020675 -0.021407 -0.012464
v -0.020675 -0.021407 -0.012464
v -0.020675 -0.021407 -0.012464
v -0.020193 -0.020572 -0.012864
v -0.020193 -0.020572 -0.012864
v -0.020193 -0.020572 -0.012864
v 0.023021 -0.021607 -0.010035
v 0.023021 -0.021607 -0.010035
v 0.023021 -0.021607 -0.010035
v 0.019675 -0.021193 -0.012664
v 0.019675 -0.021193 -0.012664
v 0.019675 -0.02071 -0.012864
v 0.019943 -0.020675 -0.012864
v 0.019943 -0.020675 -0.012864
v 0.020675 -0.019943 -0.012864
v 0.020675 -0.019943 -0.012864
v 0.020675 -0.019943 -0.012864
v 0.021607 -0.020193 -0.012464
v 0.021607 -0.020193 -0.012464
v 0.021607 -0.020193 -0.012464
v 0.021607 -0.020193 -0.012464
v 0.021607 -0.020193 -0.012464
v 0.022407 -0.020407 -0.011828
v 0.022407 -0.020407 -0.011828
v 0.023021 -0.020572 -0.011
v 0.019675 -0.021675 -0.012464
v 0.020193 -0.021607 -0.012464
v 0.020193 -0.021607 -0.012464
v 0.019675 -0.022503 -0.011828
v 0.020407 -0.022407 -0.011828
v 0.020407 -0.022407 -0.011828
v 0.019675 -0.023139 -0.011
v 0.020572 -0.023021 -0.011
v 0.020572 -0.023021 -0.011
v 0.020572 -0.023021 -0.011
v 0.021607 -0.023021 -0.010035
v 0.021607 -0.023021 -0.010035
v 0.021407 -0.022675 -0.011
v 0.021407 -0.022675 -0.011
v 0.021089 -0.022124 -0.011828
v 0.021089 -0.022124 -0.011828
v 0.020193 -0.020572 -0.012864
v 0.020193 -0.020572 -0.012864
v 0.020407 -0.020407 -0.012864
v 0.022124 -0.022124 -0.011
v 0.022124 -0.022124 -0.011
v 0.022407 -0.022407 -0.010035
v 0.022407 -0.022407 -0.010035
v 0.022407 -0.022407 -0.010035
v 0.022407 -0.022407 -0.010035
v 0.022675 -0.021407 -0.011
v 0.022124 -0.021089 -0.011828
v 0.022124 -0.021089 -0.011828
v 0.021407 -0.020675 -0.012464
v 0.021407 -0.020675 -0.012464
v 0.023407 -0.020675 -0.010035
f 38 16 35
f 39 37 36
f 44 40 43
f 42 9 41
f 49 45 48
f 47 24 46
f 55 34 51
f 56 54 53
f 52 50 57
f 68 69 71
f 72 67 70
f 81 58 59
f 60 61 83
f 89 86 90
f 26 8 75
f 75 8 97
f 76 96 95
f 27 25 98
f 99 93 102
f 100 94 92
f 103 91 106
f 107 111 105
f 105 111 114
f 104 113 101
f 101 113 115
f 30 29 73
f 74 28 118
f 119 117 121
f 121 117 116
f 124 112 129
f 129 112 110
f 128 109 4
f 87 85 77
f 88 78 108
f 32 31 131
f 82 120 122
f 80 123 126
f 79 125 127
f 84 62 64
f 130 63 66
f 132 65 33
f 2 156 160
f 158 154 163
f 155 165 162
f 164 167 168
f 169 166 171
f 136 172 177
f 11 7 150
f 150 7 134
f 151 133 135
f 12 10 180
f 181 178 185
f 184 179 175
f 182 176 187
f 190 191 188
f 188 191 196
f 186 194 183
f 183 194 198
f 15 14 149
f 148 13 200
f 202 199 203
f 203 199 197
f 207 195 209
f 209 195 192
f 210 193 3
f 173 137 152
f 174 153 189
f 170 201 205
f 161 204 206
f 159 208 211
f 23 22 212
f 216 217 219
f 6 146 220
f 221 145 224
f 147 144 223
f 228 143 142
f 231 233 234
f 237 236 239
f 244 240 245
f 246 238 235
f 243 251 241
f 241 251 252
f 242 253 17
f 18 255 20
f 21 19 213
f 214 254 256
f 256 254 250
f 247 5 249
f 232 218 248
f 229 258 227
f 225 257 260
f 226 259 222
f 141 140 230
f 261 139 138
f 157 1 215
