v 0.003544 0.017835 -0.007729
v 0.003544 0.017835 -0.007729
v -0.000673 0.021667 -0.00681
v -0.000491 0.02182 -0.006879
v -0.000457 0.021848 -0.006877
v 0.001871 0.018993 -0.007303
v 0.00323 0.017558 -0.007734
v 0.003858 0.018054 -0.007558
v 0.004792 0.017117 -0.007881
v 0.004792 0.017117 -0.007881
v -0.012939 -0.025829 -0.0312
v 0.007959 0.014607 -0.008746
v 0.007175 0.015541 -0.008083
v 0.005491 0.017547 -0.0062
v 0.008569 0.01388 -0.009873
v 0.008445 0.014027 -0.009486
v 0.008445 0.014027 -0.009486
v 0.004886 0.018268 -0.007112
v 0.001682 0.023643 -0.030932
v -0.000866 0.021505 -0.014146
v -0.001 0.021393 -0.0082
v -0.027811 -0.001104 -0.0082
v -0.030672 -0.003505 -0.031048
v -0.027623 -0.000946 -0.001768
v -0.027585 -0.000914 -0.001755
v -0.027428 -0.000783 -0.0017
v -0.029726 -0.002711 -0.0047
v -0.029726 -0.002711 -0.0047
v -0.029652 -0.002649 -0.004339
v -0.029652 -0.002649 -0.004339
v -0.029652 -0.002649 -0.004339
v -0.028288 -0.001505 -0.002001
v -0.028288 -0.001505 -0.002001
v -0.029388 -0.002427 -0.00316
v -0.029348 -0.002394 -0.003108
v -0.029106 -0.002191 -0.002792
v -0.029418 -0.002453 -0.0032
v -0.029418 -0.002453 -0.0032
v -0.029569 -0.002579 -0.003934
v -0.028574 -0.001745 -0.002101
v -0.028574 -0.001745 -0.002101
v -0.028574 -0.001745 -0.002101
v -0.02183 -0.012121 -0.0062
v -0.02183 -0.012121 -0.0047
v -0.02183 -0.012121 -0.0047
v -0.011407 -0.024544 -0.0047
v -0.021711 -0.012093 -0.003898
v -0.021821 -0.012119 -0.004473
v -0.021821 -0.012119 -0.004473
v -0.021821 -0.012119 -0.004473
v -0.02093 -0.011683 -0.00249
v -0.021145 -0.011847 -0.002773
v -0.021354 -0.011964 -0.003094
v -0.021387 -0.011979 -0.00315
v -0.021412 -0.011989 -0.003202
v -0.02157 -0.012051 -0.003515
v 0.002219 0.021329 -0.004028
v 0.002092 0.021222 -0.003557
v -0.029856 -0.004825 -0.0017
v -0.029889 -0.004861 -0.0017
v -0.029889 -0.004861 -0.0017
v -0.029638 -0.004632 -0.0017
v -0.029638 -0.004632 -0.0017
v -0.028413 -0.002619 -0.0017
v -0.028453 -0.0027 -0.0017
v -0.029208 -0.003989 -0.0017
v -0.028188 -0.002171 -0.0017
v -0.023034 -0.005501 -0.0017
v -0.027583 -0.001016 -0.0017
v -0.027607 -0.001052 -0.0017
v -0.027618 -0.001074 -0.0017
v 0.002518 0.019342 -0.0017
v 0.005182 0.020012 -0.0017
v 0.004937 0.019901 -0.0017
v 0.004602 0.019748 -0.0017
v 0.001953 0.019352 -0.0017
v 0.0116075 0.01337 -0.0312
v 0.020001 0.001811 -0.030932
v -0.012352 -0.025337 -0.031048
v 0.004982 0.014265 -0.0082
v 0.004982 0.014265 -0.0082
v 0.004143 0.015265 -0.013028
v 0.002678 0.01701 -0.01381
v 0.006387 0.02091 -0.003357
v -0.030248 -0.00527 -0.0047
v -0.030693 -0.006008 -0.0062
v -0.030693 -0.006008 -0.0012
v -0.029913 -0.004885 -0.00179
v -0.029913 -0.004885 -0.00179
v -0.030229 -0.005247 -0.003977
v -0.028756 -0.003892 -0.001512
v -0.029408 -0.004439 -0.001252
v -0.028944 -0.004049 -0.001437
v -0.028944 -0.004049 -0.001437
v -0.023994 -0.010257 -0.0012
v -0.025235 -0.00414 -0.0012
v 0.009393 -0.016459 -0.0012
v 0.01045 -0.016001 -0.0012
v 0.007876 -0.018161 -0.0012
v 0.007535 -0.020415 -0.0012
v 0.008834 0.01699 -0.0012
v 0.009796 0.016355 -0.0012
v 0.00975 0.016257 -0.001456
v 0.009796 0.016355 -0.0012
v 0.010898 0.016021 -0.0012
v 0.003549 0.020487 -0.0062
v 0.003549 0.020487 -0.0062
v -0.024122 -0.011049 -0.0062
v -0.022858 -0.011332 -0.0062
v -0.022858 -0.011332 -0.0062
v -0.029694 -0.004051 -0.0062
v 0.007191 0.01465 -0.010246
v 0.007143 0.014699 -0.009904
v 0.007143 0.014699 -0.009904
v 0.007143 0.014699 -0.009904
v 0.007143 0.014699 -0.009904
v 0.006927 0.014922 -0.009489
v 0.006927 0.014922 -0.009489
v 0.006054 0.015819 -0.008558
v 0.005199 0.016698 -0.008094
v 0.005199 0.016698 -0.008094
v 0.004863 0.017044 -0.007911
v 0.004863 0.017044 -0.007911
v 0.004258 0.016666 -0.008174
v 0.004566 0.016892 -0.008108
v 0.00099 0.019342 -0.013779
v 0.000901 0.019211 -0.014062
v 0.003698 0.015912 -0.007594
v 0.005723 0.015737 -0.008802
v 0.005723 0.015737 -0.008802
v 0.004781 0.014641 -0.00842
v 0.004781 0.014641 -0.00842
v 0.003727 0.015761 -0.007238
v 0.006413 0.015078 -0.009462
v 0.006413 0.015078 -0.009462
v 0.006713 0.014812 -0.010014
v 0.006713 0.014812 -0.010014
v 0.006713 0.014812 -0.010014
v 0.006713 0.014812 -0.010014
v 0.006268 0.01472 -0.010079
v 0.006015 0.014928 -0.009589
v 0.006015 0.014928 -0.009589
v 0.006015 0.014928 -0.009589
v 0.005374 0.015536 -0.008917
v 0.005374 0.015536 -0.008917
v 0.005374 0.015536 -0.008917
v 0.005068 0.015252 -0.008884
v 0.003985 0.016401 -0.0081
v 0.002762 0.017306 -0.013166
v 0.004191 0.015682 -0.01237
v 0.004191 0.015682 -0.01237
v 0.005168 0.014593 -0.011488
v 0.002669 0.017123 -0.013465
v 0.004103 0.015436 -0.012671
v 0.005103 0.014265 -0.011759
v 0.005416 0.0139 -0.009225
v 0.004851 0.01442 -0.00807
v 0.007427 -0.02043 -0.001456
v 0.010422 -0.015896 -0.001456
v 0.00843 -0.017127 -0.001456
v 0.00843 -0.017127 -0.001456
v 0.007778 -0.018115 -0.001456
v 0.007434 -0.019247 -0.001456
v 0.009225 -0.016186 -0.001635
v 0.008271 -0.016986 -0.001635
v 0.008002 0.017815 -0.001456
v 0.008762 0.016909 -0.001456
v 0.008762 0.016909 -0.001456
v 0.00975 0.016257 -0.001456
v 0.010882 0.015913 -0.001456
v 0.007326 0.018846 -0.001635
v 0.007821 0.017704 -0.001635
v -0.024562 -0.010848 -0.0013
v -0.023911 -0.010327 -0.001456
v -0.024195 -0.004758 -0.001456
v -0.024195 -0.004758 -0.001456
v -0.025185 -0.004043 -0.001456
v -0.023272 -0.00563 -0.001635
v -0.023272 -0.00563 -0.001635
v -0.024047 -0.004606 -0.001635
v -0.024047 -0.004606 -0.001635
v -0.029421 -0.004166 -0.002221
v -0.029242 -0.00332 -0.00271
v -0.029018 -0.003172 -0.002282
v -0.029275 -0.003343 -0.002787
v -0.029275 -0.003343 -0.002787
v -0.029275 -0.003343 -0.002787
v -0.029435 -0.003455 -0.003241
v -0.029435 -0.003455 -0.003241
v -0.029547 -0.003537 -0.003712
v -0.029547 -0.003537 -0.003712
v -0.029547 -0.003537 -0.003712
v -0.029617 -0.003589 -0.004224
v -0.029617 -0.003589 -0.004224
v -0.029617 -0.003589 -0.004224
v -0.029617 -0.003589 -0.004224
v -0.029617 -0.003589 -0.004224
v -0.029796 -0.004465 -0.004106
v -0.029796 -0.004465 -0.004106
v -0.029796 -0.004465 -0.004106
v -0.029796 -0.004465 -0.004106
v -0.029615 -0.004313 -0.002882
v -0.029637 -0.003604 -0.0047
v -0.029637 -0.003604 -0.0047
v -0.029637 -0.003604 -0.0047
v -0.029727 -0.004044 -0.0047
v -0.029727 -0.004044 -0.0047
v -0.029727 -0.004044 -0.0047
v -0.029817 -0.004484 -0.0047
v -0.029817 -0.004484 -0.0047
v -0.022871 -0.011365 -0.0047
v -0.022871 -0.011365 -0.0047
v -0.02257 -0.011486 -0.0047
v -0.02257 -0.011486 -0.0047
v -0.02257 -0.011486 -0.0047
v -0.02257 -0.011486 -0.0047
v -0.022561 -0.011481 -0.004441
v -0.022561 -0.011481 -0.004441
v -0.022561 -0.011481 -0.004441
v -0.022561 -0.011481 -0.004441
v -0.022747 -0.010405 -0.001789
v -0.022776 -0.010448 -0.001851
v -0.023475 -0.011121 -0.0047
v -0.023475 -0.011121 -0.0047
v -0.023475 -0.011121 -0.0047
v -0.02444 -0.011061 -0.004321
v -0.022541 -0.011472 -0.004236
v -0.022541 -0.011472 -0.004236
v -0.022458 -0.011429 -0.003793
v -0.022458 -0.011429 -0.003793
v -0.022458 -0.011429 -0.003793
v -0.02233 -0.011356 -0.003371
v -0.02233 -0.011356 -0.003371
v -0.02233 -0.011356 -0.003371
v -0.02233 -0.011356 -0.003371
v -0.022167 -0.011247 -0.002983
v -0.022167 -0.011247 -0.002983
v -0.022167 -0.011247 -0.002983
v -0.023077 -0.010802 -0.002566
v -0.023103 -0.010826 -0.002636
v -0.023103 -0.010826 -0.002636
v -0.023103 -0.010826 -0.002636
v -0.023251 -0.010956 -0.003102
v -0.023251 -0.010956 -0.003102
v -0.023251 -0.010956 -0.003102
v -0.02337 -0.011048 -0.003609
v -0.023447 -0.011103 -0.004142
v -0.024421 -0.011048 -0.004021
v -0.023466 -0.011116 -0.004389
v -0.023466 -0.011116 -0.004389
v -0.024124 -0.011085 -0.0047
v -0.0218 -0.010905 -0.002329
v -0.0218 -0.010905 -0.002329
v -0.021966 -0.011081 -0.002601
v -0.021966 -0.011081 -0.002601
v -0.022139 -0.011226 -0.002925
v 0.00531 0.020198 -0.002487
v 0.00531 0.020198 -0.002487
v 0.004068 0.019712 -0.002045
v 0.002068 0.019992 -0.002229
v 0.002924 0.02071 -0.003996
v 0.003562 0.020517 -0.0047
v 0.00385 0.020395 -0.0047
v 0.00385 0.020395 -0.0047
v 0.004702 0.020244 -0.003752
v 0.004785 0.020313 -0.0047
v 0.004459 0.02004 -0.002851
v 0.004459 0.02004 -0.002851
v 0.0056 0.020442 -0.003564
v 0.0056 0.020442 -0.003564
v 0.005699 0.020524 -0.0047
v 0.009539 0.011498 -0.001895
v 0.009875 0.010687 -0.002229
v 0.009978 0.011865 -0.002461
f 1 8 10
f 6 2 7
f 12 13 14
f 4 3 5
f 22 40 33
f 46 49 44
f 87 61 88
f 85 86 90
f 63 92 93
f 62 94 91
f 15 116 16
f 17 115 117
f 18 122 9
f 125 123 120
f 132 133 128
f 121 119 130
f 118 113 139
f 138 114 112
f 137 140 143
f 136 141 135
f 134 142 145
f 129 146 124
f 144 147 148
f 20 127 126
f 149 154 151
f 150 155 152
f 153 83 82
f 156 80 131
f 79 23 11
f 78 77 19
f 21 157 81
f 98 159 97
f 99 161 162
f 100 163 158
f 160 164 165
f 101 167 102
f 104 168 169
f 105 103 170
f 166 171 172
f 95 173 174
f 96 175 177
f 176 178 181
f 179 68 180
f 24 71 70
f 25 69 26
f 41 67 32
f 42 65 64
f 89 60 59
f 184 36 35
f 186 34 37
f 185 38 189
f 192 39 31
f 190 29 193
f 197 199 191
f 188 202 187
f 183 182 66
f 30 28 196
f 195 27 203
f 194 205 201
f 198 204 207
f 200 206 209
f 208 111 210
f 211 216 219
f 213 45 48
f 212 220 225
f 215 50 217
f 228 47 229
f 233 56 55
f 250 248 226
f 253 221 222
f 237 239 240
f 238 242 234
f 235 241 244
f 232 243 231
f 230 245 246
f 227 247 218
f 223 249 251
f 236 54 53
f 256 52 255
f 254 51 252
f 43 214 110
f 109 224 108
f 73 258 74
f 72 260 76
f 261 57 58
f 75 267 259
f 271 269 84
f 265 268 257
f 265 257 270
f 262 263 106
f 107 264 266
f 272 273 274
